<?xml version="1.0" standalone="no"?>
<!DOCTYPE svg PUBLIC "-//W3C//DTD SVG 20010904//EN"
 "http://www.w3.org/TR/2001/REC-SVG-20010904/DTD/svg10.dtd">
<svg version="1.0" xmlns="http://www.w3.org/2000/svg"
 width="900.000000pt" height="922.000000pt" viewBox="0 0 900.000000 922.000000"
 preserveAspectRatio="xMidYMid meet">
<metadata>
Created by potrace 1.16, written by Peter Selinger 2001-2019
</metadata>
<g transform="translate(0.000000,922.000000) scale(0.100000,-0.100000)"
fill="#FFFFFF" stroke="none">
<path d="M222 6828 l3 -2173 3383 0 3384 0 0 1960 c0 1078 -1 2056 -1 2173
l-1 212 -3385 0 -3385 0 2 -2172z m338 2112 c0 -22 5 -40 10 -40 6 0 10 18 10
40 l0 41 138 -3 137 -3 -3 -115 c-4 -129 5 -233 20 -224 6 4 9 67 8 153 -1 80
-1 156 -1 169 1 22 3 22 146 22 l145 0 0 -41 c0 -24 4 -38 10 -34 5 3 10 22
10 41 l0 34 135 0 135 0 0 -175 c0 -110 4 -175 10 -175 6 0 10 65 10 175 l0
175 150 0 150 0 0 -40 c0 -22 5 -40 10 -40 6 0 10 18 10 40 l0 40 135 0 135 0
2 -172 c2 -107 7 -173 13 -173 6 0 11 66 13 173 l2 172 145 0 145 0 0 -40 c0
-22 5 -40 10 -40 6 0 10 18 10 40 l0 40 135 0 135 0 0 -175 c0 -110 4 -175 10
-175 6 0 10 65 10 175 l0 175 150 0 150 0 0 -41 c0 -24 4 -38 10 -34 6 3 10
22 10 41 l0 34 140 0 140 0 0 -175 c0 -110 4 -175 10 -175 6 0 10 65 10 175
l0 175 145 0 145 0 0 -41 c0 -24 4 -38 10 -34 6 3 10 22 10 41 l0 34 135 0
135 0 0 -175 c0 -110 4 -175 10 -175 6 0 10 65 10 175 l0 175 150 0 150 0 0
-40 c0 -22 5 -40 10 -40 6 0 10 18 10 40 l0 40 140 0 140 0 0 -175 c0 -110 4
-175 10 -175 6 0 10 65 10 175 l0 175 145 0 145 0 0 -40 c0 -22 5 -40 10 -40
6 0 10 18 10 40 l0 40 135 0 135 0 0 -175 c0 -110 4 -175 10 -175 6 0 10 65
10 175 l0 175 150 0 150 0 0 -40 c0 -22 5 -40 10 -40 6 0 10 18 10 40 l0 40
140 0 140 0 0 -175 c0 -110 4 -175 10 -175 6 0 10 65 10 175 l0 175 145 0 145
0 0 -40 c0 -22 5 -40 10 -40 6 0 10 18 10 40 l0 40 135 0 135 0 0 -175 c0
-110 4 -175 10 -175 6 0 10 65 10 175 l0 175 150 0 150 0 0 -40 c0 -22 5 -40
10 -40 6 0 10 18 10 40 l0 40 140 0 140 0 0 -122 c0 -68 3 -167 7 -220 l6 -98
-86 0 c-51 0 -87 -4 -87 -10 0 -6 37 -10 91 -10 l92 0 -9 -42 c-10 -46 -12
-350 -4 -433 l5 -50 -87 -3 c-117 -4 -114 -22 3 -22 l90 0 -8 -47 c-9 -53 -11
-336 -3 -423 l5 -55 -87 -3 c-117 -4 -114 -22 3 -22 l91 0 -8 -47 c-11 -57
-12 -392 -2 -445 l7 -38 -90 0 c-53 0 -89 -4 -89 -10 0 -6 37 -10 91 -10 l90
0 -8 -47 c-10 -58 -10 -405 0 -450 l6 -33 -89 0 c-53 0 -90 -4 -90 -10 0 -6
37 -10 91 -10 l91 0 -7 -32 c-11 -57 -17 -350 -8 -425 l9 -73 -25 -1 c-14 -1
-54 0 -88 1 -40 1 -63 -2 -63 -9 0 -7 23 -11 59 -11 32 0 72 -3 88 -6 29 -6
29 -6 22 -57 -10 -66 -10 -334 0 -409 8 -66 16 -61 -96 -58 -47 1 -73 -2 -73
-9 0 -7 30 -11 84 -11 l85 0 -6 -177 c-3 -107 -1 -214 6 -267 6 -49 10 -91 8
-92 -1 -1 -67 -4 -147 -5 l-145 -2 -3 84 c-4 118 -22 127 -22 11 l0 -92 -295
0 -295 0 0 85 c0 50 -4 85 -10 85 -6 0 -10 -35 -10 -85 l0 -85 -295 0 -295 0
0 90 c0 53 -4 90 -10 90 -6 0 -10 -37 -10 -90 l0 -90 -295 0 -295 0 0 90 c0
53 -4 90 -10 90 -6 0 -10 -37 -10 -90 l0 -90 -295 0 -295 0 0 84 c0 47 -4 88
-10 91 -6 4 -10 -27 -10 -84 l0 -91 -295 0 -295 0 0 90 c0 53 -4 90 -10 90 -6
0 -10 -37 -10 -90 l0 -90 -285 0 c-157 0 -288 -1 -292 -2 -5 -2 -9 35 -11 82
-4 119 -22 129 -22 12 l0 -92 -295 0 -295 0 0 84 c0 47 -4 88 -10 91 -6 4 -10
-27 -10 -84 l0 -91 -295 0 -295 0 0 84 c0 47 -4 88 -10 91 -6 4 -10 -26 -10
-84 l0 -90 -295 -3 -295 -3 0 87 c0 48 -4 90 -10 93 -6 4 -10 -27 -10 -84 l0
-91 -285 0 c-157 0 -288 -1 -292 -2 -5 -2 -9 35 -11 82 -4 122 -22 127 -22 6
0 -85 -2 -97 -16 -92 -9 3 -81 6 -161 6 l-146 0 9 63 c11 80 11 244 1 375 l-9
102 106 0 c64 0 106 4 106 10 0 6 -42 10 -105 10 l-105 0 0 40 c0 22 5 40 10
40 14 0 14 347 0 355 -5 3 -10 26 -10 51 l0 44 108 1 c69 0 100 3 87 9 -11 5
-60 9 -109 9 l-89 1 9 53 c9 55 8 336 -2 425 l-6 52 106 0 c64 0 106 4 106 10
0 6 -42 10 -105 10 l-105 0 0 39 c0 22 4 43 10 46 13 8 13 342 0 350 -5 3 -10
26 -10 51 l0 44 105 0 c63 0 105 4 105 10 0 6 -42 10 -105 10 l-105 0 0 39 c0
22 5 43 11 47 12 7 7 278 -7 392 l-7 52 107 0 c64 0 106 4 106 10 0 6 -42 10
-105 10 l-105 0 0 38 c0 21 5 43 11 49 11 11 6 304 -6 396 l-7 47 106 0 c137
0 140 18 4 22 l-103 3 -3 38 c-2 21 2 45 8 52 13 16 11 343 -2 351 -5 3 -8 23
-8 45 l0 39 88 1 c48 0 96 4 107 9 13 6 -19 9 -89 9 l-108 1 7 48 c4 26 9 125
11 220 l5 172 149 0 150 0 0 -40z"/>
<path d="M380 8810 c0 -6 68 -10 185 -10 117 0 185 4 185 10 0 6 -68 10 -185
10 -117 0 -185 -4 -185 -10z"/>
<path d="M990 8810 c0 -6 68 -10 185 -10 117 0 185 4 185 10 0 6 -68 10 -185
10 -117 0 -185 -4 -185 -10z"/>
<path d="M1600 8810 c0 -6 67 -10 180 -10 113 0 180 4 180 10 0 6 -67 10 -180
10 -113 0 -180 -4 -180 -10z"/>
<path d="M2210 8810 c0 -6 68 -10 185 -10 117 0 185 4 185 10 0 6 -68 10 -185
10 -117 0 -185 -4 -185 -10z"/>
<path d="M2820 8810 c0 -6 68 -10 185 -10 117 0 185 4 185 10 0 6 -68 10 -185
10 -117 0 -185 -4 -185 -10z"/>
<path d="M3440 8810 c0 -6 67 -10 180 -10 113 0 180 4 180 10 0 6 -67 10 -180
10 -113 0 -180 -4 -180 -10z"/>
<path d="M4040 8810 c0 -6 68 -10 185 -10 117 0 185 4 185 10 0 6 -68 10 -185
10 -117 0 -185 -4 -185 -10z"/>
<path d="M4650 8810 c0 -6 68 -10 185 -10 117 0 185 4 185 10 0 6 -68 10 -185
10 -117 0 -185 -4 -185 -10z"/>
<path d="M5260 8810 c0 -6 68 -10 185 -10 117 0 185 4 185 10 0 6 -68 10 -185
10 -117 0 -185 -4 -185 -10z"/>
<path d="M5880 8810 c0 -6 67 -10 180 -10 113 0 180 4 180 10 0 6 -67 10 -180
10 -113 0 -180 -4 -180 -10z"/>
<path d="M6480 8810 c0 -6 68 -10 185 -10 117 0 185 4 185 10 0 6 -68 10 -185
10 -117 0 -185 -4 -185 -10z"/>
<path d="M560 8535 c0 -117 4 -185 10 -185 6 0 10 68 10 185 0 117 -4 185 -10
185 -6 0 -10 -68 -10 -185z"/>
<path d="M1780 8535 c0 -117 4 -185 10 -185 6 0 10 68 10 185 0 117 -4 185
-10 185 -6 0 -10 -68 -10 -185z"/>
<path d="M2390 8541 c0 -114 4 -181 10 -181 6 0 10 65 10 174 0 106 -4 177
-10 181 -7 4 -10 -57 -10 -174z"/>
<path d="M3000 8535 c0 -117 4 -185 10 -185 6 0 10 68 10 185 0 117 -4 185
-10 185 -6 0 -10 -68 -10 -185z"/>
<path d="M4220 8535 c0 -117 4 -185 10 -185 6 0 10 68 10 185 0 117 -4 185
-10 185 -6 0 -10 -68 -10 -185z"/>
<path d="M5440 8535 c0 -117 4 -185 10 -185 6 0 10 68 10 185 0 117 -4 185
-10 185 -6 0 -10 -68 -10 -185z"/>
<path d="M6660 8535 c0 -117 4 -185 10 -185 6 0 10 68 10 185 0 117 -4 185
-10 185 -6 0 -10 -68 -10 -185z"/>
<path d="M1170 8535 c0 -110 4 -175 10 -175 6 0 10 65 10 175 0 110 -4 175
-10 175 -6 0 -10 -65 -10 -175z"/>
<path d="M3610 8535 c0 -110 4 -175 10 -175 6 0 10 65 10 175 0 110 -4 175
-10 175 -6 0 -10 -65 -10 -175z"/>
<path d="M4830 8535 c0 -110 4 -175 10 -175 6 0 10 65 10 175 0 110 -4 175
-10 175 -6 0 -10 -65 -10 -175z"/>
<path d="M6050 8535 c0 -110 4 -175 10 -175 6 0 10 65 10 175 0 110 -4 175
-10 175 -6 0 -10 -65 -10 -175z"/>
<path d="M695 8530 c4 -6 77 -10 185 -10 108 0 181 4 185 10 4 7 -60 10 -185
10 -125 0 -189 -3 -185 -10z"/>
<path d="M1310 8530 c0 -6 65 -10 174 -10 106 0 177 4 181 10 4 7 -57 10 -174
10 -114 0 -181 -4 -181 -10z"/>
<path d="M1920 8530 c0 -6 67 -10 180 -10 113 0 180 4 180 10 0 6 -67 10 -180
10 -113 0 -180 -4 -180 -10z"/>
<path d="M2525 8530 c4 -6 77 -10 186 -10 113 0 179 4 179 10 0 6 -69 10 -186
10 -121 0 -183 -3 -179 -10z"/>
<path d="M3135 8530 c4 -6 77 -10 185 -10 108 0 181 4 185 10 4 7 -60 10 -185
10 -125 0 -189 -3 -185 -10z"/>
<path d="M3750 8530 c0 -12 302 -12 340 0 15 5 -50 8 -157 9 -116 1 -183 -3
-183 -9z"/>
<path d="M4360 8530 c0 -6 67 -10 180 -10 113 0 180 4 180 10 0 6 -67 10 -180
10 -113 0 -180 -4 -180 -10z"/>
<path d="M4970 8530 c0 -6 65 -10 174 -10 106 0 177 4 181 10 4 7 -57 10 -174
10 -114 0 -181 -4 -181 -10z"/>
<path d="M5580 8530 c0 -6 66 -10 179 -10 109 0 182 4 186 10 4 7 -58 10 -179
10 -117 0 -186 -4 -186 -10z"/>
<path d="M6190 8530 c0 -6 66 -10 179 -10 109 0 182 4 186 10 4 7 -58 10 -179
10 -117 0 -186 -4 -186 -10z"/>
<path d="M857 8434 c-3 -3 -6 -84 -7 -180 -1 -150 1 -174 15 -174 13 0 15 24
15 174 0 157 -5 197 -23 180z"/>
<path d="M1460 8260 c0 -113 4 -180 10 -180 6 0 10 67 10 180 0 113 -4 180
-10 180 -6 0 -10 -67 -10 -180z"/>
<path d="M2075 8388 c-9 -77 -2 -301 10 -305 13 -4 18 344 5 352 -4 3 -11 -18
-15 -47z"/>
<path d="M2680 8260 c0 -113 4 -180 10 -180 6 0 10 67 10 180 0 113 -4 180
-10 180 -6 0 -10 -67 -10 -180z"/>
<path d="M3298 8260 c-2 -126 0 -180 8 -180 14 0 19 346 5 355 -7 3 -11 -60
-13 -175z"/>
<path d="M3900 8260 c0 -113 4 -180 10 -180 6 0 10 67 10 180 0 113 -4 180
-10 180 -6 0 -10 -67 -10 -180z"/>
<path d="M4520 8260 c0 -113 4 -180 10 -180 6 0 10 67 10 180 0 113 -4 180
-10 180 -6 0 -10 -67 -10 -180z"/>
<path d="M5127 8433 c-11 -11 -8 -353 3 -353 6 0 10 67 10 180 0 99 -1 180 -3
180 -2 0 -7 -3 -10 -7z"/>
<path d="M5740 8260 c0 -113 4 -180 10 -180 6 0 10 67 10 180 0 113 -4 180
-10 180 -6 0 -10 -67 -10 -180z"/>
<path d="M6347 8433 c-12 -11 -8 -355 4 -351 9 3 16 345 6 354 -2 2 -7 1 -10
-3z"/>
<path d="M380 8261 c0 -23 350 -26 357 -4 3 9 -42 12 -176 12 -102 1 -181 -3
-181 -8z"/>
<path d="M1000 8260 c0 -11 24 -13 130 -12 186 1 220 3 220 12 0 6 -65 10
-175 10 -110 0 -175 -4 -175 -10z"/>
<path d="M1600 8260 c0 -17 352 -18 358 -1 2 7 -55 10 -177 10 -113 1 -181 -3
-181 -9z"/>
<path d="M2220 8260 c0 -15 341 -18 350 -3 3 4 -75 9 -172 11 -117 2 -178 -1
-178 -8z"/>
<path d="M2820 8260 c0 -10 10 -11 114 -14 40 -1 61 3 63 12 4 9 -18 12 -86
12 -54 0 -91 -4 -91 -10z"/>
<path d="M3010 8255 c0 -8 5 -15 10 -15 6 0 10 7 10 15 0 8 -4 15 -10 15 -5 0
-10 -7 -10 -15z"/>
<path d="M3040 8254 c0 -11 5 -14 16 -10 9 3 40 6 70 6 30 0 54 5 54 10 0 6
-30 10 -70 10 -58 0 -70 -3 -70 -16z"/>
<path d="M3440 8260 c0 -6 67 -10 181 -10 117 0 178 3 174 10 -4 6 -75 10
-181 10 -109 0 -174 -4 -174 -10z"/>
<path d="M4040 8260 c0 -5 17 -10 38 -11 20 0 67 -2 105 -3 50 -2 67 1 67 11
0 10 -25 13 -105 13 -63 0 -105 -4 -105 -10z"/>
<path d="M4260 8254 c0 -11 5 -14 16 -10 9 3 40 6 70 6 30 0 54 5 54 10 0 6
-30 10 -70 10 -58 0 -70 -3 -70 -16z"/>
<path d="M4660 8260 c0 -6 65 -10 175 -10 110 0 175 4 175 10 0 6 -65 10 -175
10 -110 0 -175 -4 -175 -10z"/>
<path d="M5265 8260 c-7 -11 6 -12 128 -15 60 -2 77 1 77 11 0 11 -22 14 -99
14 -56 0 -103 -4 -106 -10z"/>
<path d="M5480 8257 c0 -9 20 -13 70 -13 50 0 70 4 70 13 0 9 -20 13 -70 13
-50 0 -70 -4 -70 -13z"/>
<path d="M5880 8260 c0 -6 67 -10 180 -10 113 0 180 4 180 10 0 6 -67 10 -180
10 -113 0 -180 -4 -180 -10z"/>
<path d="M6490 8260 c0 -5 19 -10 43 -11 23 0 68 -1 100 -2 41 -2 57 1 57 10
0 10 -25 13 -100 13 -60 0 -100 -4 -100 -10z"/>
<path d="M6700 8258 c0 -10 19 -12 70 -10 91 5 91 22 0 22 -49 0 -70 -4 -70
-12z"/>
<path d="M560 7980 c0 -113 4 -180 10 -180 6 0 10 67 10 180 0 113 -4 180 -10
180 -6 0 -10 -67 -10 -180z"/>
<path d="M1170 7985 c0 -110 4 -175 10 -175 6 0 10 65 10 175 0 110 -4 175
-10 175 -6 0 -10 -65 -10 -175z"/>
<path d="M1780 7980 c0 -113 4 -180 10 -180 6 0 10 67 10 180 0 113 -4 180
-10 180 -6 0 -10 -67 -10 -180z"/>
<path d="M2390 7980 c0 -113 4 -180 10 -180 6 0 10 67 10 180 0 113 -4 180
-10 180 -6 0 -10 -67 -10 -180z"/>
<path d="M3000 7980 c0 -113 4 -180 10 -180 6 0 10 67 10 180 0 113 -4 180
-10 180 -6 0 -10 -67 -10 -180z"/>
<path d="M3610 7980 c0 -113 4 -180 10 -180 6 0 10 67 10 180 0 113 -4 180
-10 180 -6 0 -10 -67 -10 -180z"/>
<path d="M4220 7980 c0 -113 4 -180 10 -180 6 0 10 67 10 180 0 113 -4 180
-10 180 -6 0 -10 -67 -10 -180z"/>
<path d="M4830 7980 c0 -113 4 -180 10 -180 6 0 10 67 10 180 0 113 -4 180
-10 180 -6 0 -10 -67 -10 -180z"/>
<path d="M5440 7980 c0 -113 4 -180 10 -180 6 0 10 67 10 180 0 113 -4 180
-10 180 -6 0 -10 -67 -10 -180z"/>
<path d="M6050 7980 c0 -113 4 -180 10 -180 6 0 10 67 10 180 0 113 -4 180
-10 180 -6 0 -10 -67 -10 -180z"/>
<path d="M6660 7980 c0 -113 4 -180 10 -180 6 0 10 67 10 180 0 113 -4 180
-10 180 -6 0 -10 -67 -10 -180z"/>
<path d="M2608 7992 c-43 -2 -78 -7 -78 -12 0 -5 76 -9 180 -9 111 -1 180 3
180 9 0 6 -36 10 -82 11 -46 0 -92 1 -103 2 -11 1 -55 1 -97 -1z"/>
<path d="M3827 7993 c-46 -2 -75 -8 -72 -13 8 -14 355 -13 355 0 0 6 -34 10
-82 10 -46 0 -92 2 -103 3 -11 2 -55 2 -98 0z"/>
<path d="M4364 7991 c-17 -17 18 -21 176 -21 113 0 180 4 180 10 0 6 -28 11
-62 12 -122 4 -290 3 -294 -1z"/>
<path d="M700 7980 c0 -6 67 -10 180 -10 113 0 180 4 180 10 0 6 -67 10 -180
10 -113 0 -180 -4 -180 -10z"/>
<path d="M1310 7980 c0 -6 67 -10 180 -10 113 0 180 4 180 10 0 6 -67 10 -180
10 -113 0 -180 -4 -180 -10z"/>
<path d="M1920 7980 c0 -6 67 -10 180 -10 113 0 180 4 180 10 0 6 -67 10 -180
10 -113 0 -180 -4 -180 -10z"/>
<path d="M3145 7980 c4 -6 73 -10 175 -10 102 0 171 4 175 10 4 7 -57 10 -175
10 -118 0 -179 -3 -175 -10z"/>
<path d="M4975 7980 c4 -6 73 -10 175 -10 102 0 171 4 175 10 4 7 -57 10 -175
10 -118 0 -179 -3 -175 -10z"/>
<path d="M5580 7980 c0 -6 65 -10 174 -10 106 0 177 4 181 10 4 7 -57 10 -174
10 -114 0 -181 -4 -181 -10z"/>
<path d="M6195 7980 c4 -6 75 -10 181 -10 109 0 174 4 174 10 0 6 -67 10 -181
10 -117 0 -178 -3 -174 -10z"/>
<path d="M855 7787 c-8 -130 -3 -264 10 -257 12 6 17 348 5 355 -4 3 -11 -41
-15 -98z"/>
<path d="M1460 7705 c0 -117 4 -185 10 -185 6 0 10 68 10 185 0 117 -4 185
-10 185 -6 0 -10 -68 -10 -185z"/>
<path d="M2075 7879 c-3 -8 -4 -88 -3 -179 2 -123 6 -164 16 -168 10 -3 13 30
11 166 -1 160 -9 219 -24 181z"/>
<path d="M2680 7711 c0 -109 4 -182 10 -186 7 -4 10 58 10 179 0 117 -4 186
-10 186 -6 0 -10 -66 -10 -179z"/>
<path d="M3300 7710 c0 -118 3 -179 10 -175 6 4 10 73 10 175 0 102 -4 171
-10 175 -7 4 -10 -57 -10 -175z"/>
<path d="M3907 7883 c-11 -11 -8 -363 3 -363 6 0 10 68 10 185 0 102 -1 185
-3 185 -2 0 -7 -3 -10 -7z"/>
<path d="M4520 7706 c0 -117 4 -186 10 -186 6 0 10 66 10 179 0 109 -4 182
-10 186 -7 4 -10 -58 -10 -179z"/>
<path d="M5120 7710 c0 -113 4 -180 10 -180 6 0 10 67 10 180 0 113 -4 180
-10 180 -6 0 -10 -67 -10 -180z"/>
<path d="M5740 7705 c0 -122 3 -184 10 -180 6 4 10 75 10 180 0 105 -4 176
-10 180 -7 4 -10 -58 -10 -180z"/>
<path d="M6340 7705 c0 -110 4 -175 10 -175 6 0 10 65 10 175 0 110 -4 175
-10 175 -6 0 -10 -65 -10 -175z"/>
<path d="M380 7710 c0 -6 67 -10 180 -10 113 0 180 4 180 10 0 6 -67 10 -180
10 -113 0 -180 -4 -180 -10z"/>
<path d="M990 7710 c0 -6 68 -10 185 -10 117 0 185 4 185 10 0 6 -68 10 -185
10 -117 0 -185 -4 -185 -10z"/>
<path d="M1600 7710 c0 -6 67 -10 180 -10 113 0 180 4 180 10 0 6 -67 10 -180
10 -113 0 -180 -4 -180 -10z"/>
<path d="M2210 7710 c0 -6 68 -10 185 -10 117 0 185 4 185 10 0 6 -68 10 -185
10 -117 0 -185 -4 -185 -10z"/>
<path d="M2820 7710 c0 -6 68 -10 185 -10 117 0 185 4 185 10 0 6 -68 10 -185
10 -117 0 -185 -4 -185 -10z"/>
<path d="M3440 7710 c0 -6 67 -10 180 -10 113 0 180 4 180 10 0 6 -67 10 -180
10 -113 0 -180 -4 -180 -10z"/>
<path d="M4040 7710 c0 -6 67 -10 180 -10 113 0 180 4 180 10 0 6 -67 10 -180
10 -113 0 -180 -4 -180 -10z"/>
<path d="M4660 7710 c0 -6 67 -10 180 -10 113 0 180 4 180 10 0 6 -67 10 -180
10 -113 0 -180 -4 -180 -10z"/>
<path d="M5260 7710 c0 -6 68 -10 185 -10 117 0 185 4 185 10 0 6 -68 10 -185
10 -117 0 -185 -4 -185 -10z"/>
<path d="M5880 7710 c0 -6 67 -10 180 -10 113 0 180 4 180 10 0 6 -67 10 -180
10 -113 0 -180 -4 -180 -10z"/>
<path d="M6480 7710 c0 -6 68 -10 185 -10 117 0 185 4 185 10 0 6 -68 10 -185
10 -117 0 -185 -4 -185 -10z"/>
<path d="M4220 7436 c0 -117 4 -186 10 -186 6 0 10 66 10 179 0 109 -4 182
-10 186 -7 4 -10 -58 -10 -179z"/>
<path d="M560 7430 c0 -113 4 -180 10 -180 6 0 10 67 10 180 0 113 -4 180 -10
180 -6 0 -10 -67 -10 -180z"/>
<path d="M1170 7430 c0 -113 4 -180 10 -180 6 0 10 67 10 180 0 113 -4 180
-10 180 -6 0 -10 -67 -10 -180z"/>
<path d="M1780 7430 c0 -113 4 -180 10 -180 6 0 10 67 10 180 0 113 -4 180
-10 180 -6 0 -10 -67 -10 -180z"/>
<path d="M2390 7430 c0 -113 4 -180 10 -180 6 0 10 67 10 180 0 113 -4 180
-10 180 -6 0 -10 -67 -10 -180z"/>
<path d="M3000 7430 c0 -113 4 -180 10 -180 6 0 10 67 10 180 0 113 -4 180
-10 180 -6 0 -10 -67 -10 -180z"/>
<path d="M3610 7430 c0 -113 4 -180 10 -180 6 0 10 67 10 180 0 113 -4 180
-10 180 -6 0 -10 -67 -10 -180z"/>
<path d="M4830 7431 c0 -114 4 -181 10 -181 6 0 10 65 10 174 0 106 -4 177
-10 181 -7 4 -10 -57 -10 -174z"/>
<path d="M5440 7430 c0 -113 4 -180 10 -180 6 0 10 67 10 180 0 113 -4 180
-10 180 -6 0 -10 -67 -10 -180z"/>
<path d="M6050 7430 c0 -113 4 -180 10 -180 6 0 10 67 10 180 0 113 -4 180
-10 180 -6 0 -10 -67 -10 -180z"/>
<path d="M6660 7430 c0 -113 4 -180 10 -180 6 0 10 67 10 180 0 113 -4 180
-10 180 -6 0 -10 -67 -10 -180z"/>
<path d="M700 7430 c0 -6 67 -10 180 -10 113 0 180 4 180 10 0 6 -67 10 -180
10 -113 0 -180 -4 -180 -10z"/>
<path d="M1300 7430 c0 -6 68 -10 185 -10 117 0 185 4 185 10 0 6 -68 10 -185
10 -117 0 -185 -4 -185 -10z"/>
<path d="M1920 7430 c0 -6 67 -10 180 -10 113 0 180 4 180 10 0 6 -67 10 -180
10 -113 0 -180 -4 -180 -10z"/>
<path d="M2530 7430 c0 -6 67 -10 180 -10 113 0 180 4 180 10 0 6 -67 10 -180
10 -113 0 -180 -4 -180 -10z"/>
<path d="M3140 7430 c0 -6 67 -10 180 -10 113 0 180 4 180 10 0 6 -67 10 -180
10 -113 0 -180 -4 -180 -10z"/>
<path d="M3750 7430 c0 -6 67 -10 180 -10 113 0 180 4 180 10 0 6 -67 10 -180
10 -113 0 -180 -4 -180 -10z"/>
<path d="M4360 7430 c0 -6 67 -10 180 -10 113 0 180 4 180 10 0 6 -67 10 -180
10 -113 0 -180 -4 -180 -10z"/>
<path d="M4970 7430 c0 -6 67 -10 180 -10 113 0 180 4 180 10 0 6 -67 10 -180
10 -113 0 -180 -4 -180 -10z"/>
<path d="M5580 7430 c0 -6 67 -10 180 -10 113 0 180 4 180 10 0 6 -67 10 -180
10 -113 0 -180 -4 -180 -10z"/>
<path d="M6190 7430 c0 -6 67 -10 180 -10 113 0 180 4 180 10 0 6 -67 10 -180
10 -113 0 -180 -4 -180 -10z"/>
<path d="M858 7334 c-5 -4 -8 -85 -8 -181 0 -144 2 -173 14 -173 12 0 15 25
15 143 0 145 -8 225 -21 211z"/>
<path d="M1460 7160 c0 -113 4 -180 10 -180 6 0 10 67 10 180 0 113 -4 180
-10 180 -6 0 -10 -67 -10 -180z"/>
<path d="M2076 7302 c-3 -20 -6 -101 -6 -179 0 -121 2 -143 15 -143 13 0 15
26 15 174 0 166 -10 230 -24 148z"/>
<path d="M2687 7333 c-11 -11 -8 -353 3 -353 6 0 10 67 10 180 0 99 -1 180 -3
180 -2 0 -7 -3 -10 -7z"/>
<path d="M3300 7161 c0 -114 4 -181 10 -181 6 0 10 65 10 174 0 106 -4 177
-10 181 -7 4 -10 -57 -10 -174z"/>
<path d="M3900 7160 c0 -113 4 -180 10 -180 6 0 10 67 10 180 0 113 -4 180
-10 180 -6 0 -10 -67 -10 -180z"/>
<path d="M4518 7258 c-5 -226 -3 -278 10 -278 15 0 18 345 2 355 -6 4 -11 -24
-12 -77z"/>
<path d="M5127 7333 c-11 -11 -8 -353 3 -353 6 0 10 67 10 180 0 99 -1 180 -3
180 -2 0 -7 -3 -10 -7z"/>
<path d="M5740 7161 c0 -114 4 -181 10 -181 6 0 10 65 10 174 0 106 -4 177
-10 181 -7 4 -10 -57 -10 -174z"/>
<path d="M6347 7333 c-11 -11 -8 -353 3 -353 6 0 10 67 10 180 0 99 -1 180 -3
180 -2 0 -7 -3 -10 -7z"/>
<path d="M450 7160 c-126 -9 -54 -20 119 -17 112 1 166 6 168 13 4 12 -144 14
-287 4z"/>
<path d="M996 7162 c-3 -6 -2 -13 4 -17 15 -9 350 -4 356 6 3 5 -58 9 -138 9
-79 0 -159 3 -179 6 -21 4 -39 2 -43 -4z"/>
<path d="M1602 7158 c6 -17 349 -19 355 -3 2 7 -59 12 -178 14 -147 2 -180 0
-177 -11z"/>
<path d="M2218 7164 c-4 -4 -5 -11 -2 -15 7 -13 351 -11 359 1 4 6 -44 10
-137 10 -79 0 -159 3 -178 6 -19 3 -38 2 -42 -2z"/>
<path d="M2823 7157 c-2 -4 2 -9 9 -12 22 -9 354 -1 348 8 -6 10 -350 14 -357
4z"/>
<path d="M3440 7156 c0 -14 17 -16 143 -15 78 0 160 4 182 8 30 7 7 9 -90 10
-71 1 -154 4 -182 7 -45 6 -53 4 -53 -10z"/>
<path d="M4044 7159 c-10 -17 22 -20 191 -17 109 2 168 7 165 13 -6 12 -348
16 -356 4z"/>
<path d="M4652 7159 c4 -11 39 -15 178 -17 109 -1 177 1 184 8 7 7 -11 10 -55
10 -36 0 -121 3 -189 7 -103 5 -122 4 -118 -8z"/>
<path d="M5267 7164 c-19 -19 20 -24 178 -24 182 0 239 13 108 24 -98 8 -278
8 -286 0z"/>
<path d="M5882 7158 c4 -10 49 -14 173 -16 190 -3 243 11 79 21 -172 11 -256
9 -252 -5z"/>
<path d="M6482 7159 c4 -11 39 -15 178 -17 109 -1 177 1 184 8 7 7 -14 10 -64
10 -41 0 -126 3 -189 7 -95 5 -113 4 -109 -8z"/>
<path d="M560 6880 c0 -113 4 -180 10 -180 6 0 10 67 10 180 0 113 -4 180 -10
180 -6 0 -10 -67 -10 -180z"/>
<path d="M1170 6880 c0 -113 4 -180 10 -180 6 0 10 67 10 180 0 113 -4 180
-10 180 -6 0 -10 -67 -10 -180z"/>
<path d="M1780 6880 c0 -113 4 -180 10 -180 6 0 10 67 10 180 0 113 -4 180
-10 180 -6 0 -10 -67 -10 -180z"/>
<path d="M2390 6880 c0 -113 4 -180 10 -180 6 0 10 67 10 180 0 113 -4 180
-10 180 -6 0 -10 -67 -10 -180z"/>
<path d="M3000 6880 c0 -113 4 -180 10 -180 6 0 10 67 10 180 0 113 -4 180
-10 180 -6 0 -10 -67 -10 -180z"/>
<path d="M3610 6880 c0 -113 4 -180 10 -180 6 0 10 67 10 180 0 113 -4 180
-10 180 -6 0 -10 -67 -10 -180z"/>
<path d="M4220 6880 c0 -113 4 -180 10 -180 6 0 10 67 10 180 0 113 -4 180
-10 180 -6 0 -10 -67 -10 -180z"/>
<path d="M4830 6880 c0 -113 4 -180 10 -180 6 0 10 67 10 180 0 113 -4 180
-10 180 -6 0 -10 -67 -10 -180z"/>
<path d="M5440 6880 c0 -113 4 -180 10 -180 6 0 10 67 10 180 0 113 -4 180
-10 180 -6 0 -10 -67 -10 -180z"/>
<path d="M6050 6880 c0 -113 4 -180 10 -180 6 0 10 67 10 180 0 113 -4 180
-10 180 -6 0 -10 -67 -10 -180z"/>
<path d="M6660 6880 c0 -113 4 -180 10 -180 6 0 10 67 10 180 0 113 -4 180
-10 180 -6 0 -10 -67 -10 -180z"/>
<path d="M700 6880 c0 -6 67 -10 180 -10 113 0 180 4 180 10 0 6 -67 10 -180
10 -113 0 -180 -4 -180 -10z"/>
<path d="M1310 6881 c0 -5 41 -11 90 -13 67 -2 90 0 90 10 0 9 -25 12 -90 12
-49 0 -90 -4 -90 -9z"/>
<path d="M1500 6874 c0 -14 3 -14 15 -4 11 9 15 9 15 1 0 -7 5 -9 12 -5 6 4
38 6 71 5 40 -2 57 1 52 8 -3 6 -40 11 -86 11 -66 0 -79 -3 -79 -16z"/>
<path d="M1920 6880 c0 -6 67 -10 180 -10 113 0 180 4 180 10 0 6 -67 10 -180
10 -113 0 -180 -4 -180 -10z"/>
<path d="M2530 6880 c0 -6 37 -10 90 -10 53 0 90 4 90 10 0 6 -37 10 -90 10
-53 0 -90 -4 -90 -10z"/>
<path d="M2720 6880 c0 -6 35 -10 85 -10 50 0 85 4 85 10 0 6 -35 10 -85 10
-50 0 -85 -4 -85 -10z"/>
<path d="M3140 6880 c0 -6 67 -10 180 -10 113 0 180 4 180 10 0 6 -67 10 -180
10 -113 0 -180 -4 -180 -10z"/>
<path d="M3750 6880 c0 -6 67 -10 180 -10 113 0 180 4 180 10 0 6 -67 10 -180
10 -113 0 -180 -4 -180 -10z"/>
<path d="M4360 6881 c0 -13 129 -18 134 -6 3 6 5 4 5 -2 1 -18 21 -16 21 2 0
12 -16 15 -80 15 -44 0 -80 -4 -80 -9z"/>
<path d="M4530 6875 c0 -8 5 -15 10 -15 6 0 10 7 10 15 0 8 -4 15 -10 15 -5 0
-10 -7 -10 -15z"/>
<path d="M4560 6875 c0 -8 5 -15 10 -15 6 0 10 7 10 15 0 8 -4 15 -10 15 -5 0
-10 -7 -10 -15z"/>
<path d="M4597 6874 c5 -13 7 -13 14 -2 7 11 11 10 19 -2 9 -13 11 -13 20 0 6
9 10 10 10 3 0 -15 53 -10 58 6 2 7 -17 11 -62 11 -56 0 -64 -2 -59 -16z"/>
<path d="M4975 6880 c8 -13 175 -11 175 1 0 5 -41 9 -91 9 -59 0 -88 -4 -84
-10z"/>
<path d="M5160 6881 c0 -5 38 -10 85 -10 50 -1 85 3 85 9 0 6 -35 10 -85 10
-47 0 -85 -4 -85 -9z"/>
<path d="M5580 6880 c0 -6 67 -10 180 -10 113 0 180 4 180 10 0 6 -67 10 -180
10 -113 0 -180 -4 -180 -10z"/>
<path d="M6190 6880 c0 -6 30 -10 70 -10 40 0 70 4 70 10 0 6 -30 10 -70 10
-40 0 -70 -4 -70 -10z"/>
<path d="M6340 6875 c0 -18 16 -20 23 -2 4 9 8 8 16 -3 9 -13 11 -13 11 3 0
12 -8 17 -25 17 -16 0 -25 -6 -25 -15z"/>
<path d="M6406 6875 c4 -8 10 -12 15 -9 14 8 10 24 -6 24 -9 0 -12 -6 -9 -15z"/>
<path d="M6440 6880 c0 -5 25 -10 55 -10 30 0 55 5 55 10 0 6 -25 10 -55 10
-30 0 -55 -4 -55 -10z"/>
<path d="M852 6603 c2 -112 7 -177 13 -175 16 3 13 344 -3 350 -10 3 -12 -34
-10 -175z"/>
<path d="M1460 6600 c0 -113 4 -180 10 -180 6 0 10 67 10 180 0 113 -4 180
-10 180 -6 0 -10 -67 -10 -180z"/>
<path d="M2079 6780 c0 -3 -2 -85 -5 -183 -3 -138 -1 -178 9 -174 16 5 23 335
7 351 -5 5 -10 8 -11 6z"/>
<path d="M2680 6606 c0 -106 4 -177 10 -181 7 -4 10 57 10 174 0 114 -4 181
-10 181 -6 0 -10 -65 -10 -174z"/>
<path d="M3300 6600 c0 -118 3 -179 10 -175 6 4 10 73 10 175 0 102 -4 171
-10 175 -7 4 -10 -57 -10 -175z"/>
<path d="M3900 6606 c0 -106 4 -177 10 -181 7 -4 10 57 10 174 0 114 -4 181
-10 181 -6 0 -10 -65 -10 -174z"/>
<path d="M4520 6682 l0 -99 -192 1 -193 1 -3 -262 -2 -263 -45 0 c-25 0 -45
-4 -45 -10 0 -5 20 -10 45 -10 l45 0 0 -265 0 -265 -45 0 c-25 0 -45 -4 -45
-10 0 -5 20 -10 45 -10 l45 0 0 -230 0 -230 180 -1 c99 -1 186 -2 193 -3 9 -1
13 -37 15 -134 3 -172 22 -167 22 6 l0 127 290 2 290 2 0 -129 c0 -80 4 -130
10 -130 6 0 10 48 10 124 l0 124 203 7 c111 4 245 5 297 3 l95 -3 3 -133 c3
-173 22 -167 22 8 l0 128 110 1 110 0 33 32 32 33 3 -27 c5 -41 22 -32 22 12
0 35 6 45 58 91 l57 53 183 -2 c118 -1 182 2 182 8 0 7 -63 12 -170 13 l-170
3 61 53 c57 49 62 51 75 35 12 -17 13 -16 14 10 0 20 16 42 64 88 l65 61 175
-2 c116 0 176 3 176 10 0 6 -57 10 -165 10 -91 0 -165 4 -165 8 0 5 12 19 26
33 14 13 47 53 72 87 l47 64 3 -51 c2 -28 7 -51 13 -51 17 0 15 336 -2 355 -5
5 -9 -5 -9 -25 l-1 -35 -16 30 c-8 17 -31 49 -50 73 l-34 42 145 0 c91 0 146
4 146 10 0 6 -58 10 -155 10 l-155 0 -135 128 -135 127 140 3 c195 4 183 22
-14 22 l-154 0 -59 50 c-32 28 -95 82 -140 120 l-82 70 -100 0 -101 0 0 100
c0 60 -4 100 -10 100 -6 0 -10 -39 -10 -97 l0 -98 -300 -2 -300 -1 0 99 c0 59
-4 99 -10 99 -6 0 -10 -39 -10 -97 l0 -98 -290 -1 -290 -2 0 99 c0 59 -4 99
-10 99 -6 0 -10 -39 -10 -98z m1606 -268 c256 -221 453 -417 499 -494 31 -54
38 -74 38 -121 0 -52 -3 -60 -58 -135 -81 -110 -144 -174 -340 -347 -93 -83
-197 -177 -229 -209 -37 -36 -72 -60 -90 -63 -23 -5 -1781 0 -1793 4 -2 1 -3
341 -3 756 l0 755 904 0 904 0 168 -146z"/>
<path d="M6340 6606 c0 -106 4 -177 10 -181 6 -4 11 52 12 159 0 91 1 171 2
178 1 6 -5 13 -11 16 -10 3 -13 -36 -13 -172z"/>
<path d="M386 6612 c-7 -12 201 -21 289 -13 l70 6 -85 8 c-115 9 -268 9 -274
-1z"/>
<path d="M996 6612 c-12 -20 325 -30 356 -11 8 5 -14 9 -57 9 -38 1 -120 3
-182 6 -64 3 -114 1 -117 -4z"/>
<path d="M1606 6611 c-4 -6 8 -13 26 -16 50 -9 324 -1 318 9 -7 13 -336 20
-344 7z"/>
<path d="M2216 6611 c-7 -11 171 -18 279 -11 50 4 86 7 81 8 -34 7 -356 10
-360 3z"/>
<path d="M2826 6612 c-9 -15 19 -22 92 -22 98 0 262 12 262 19 0 11 -347 14
-354 3z"/>
<path d="M3446 6612 c-3 -6 -3 -13 1 -15 16 -10 329 -7 343 3 10 7 -20 10
-101 10 -64 0 -143 3 -176 6 -38 4 -63 3 -67 -4z"/>
<path d="M4046 6612 c-3 -6 8 -11 27 -13 33 -4 336 5 327 9 -17 9 -348 13
-354 4z"/>
<path d="M4660 6606 c0 -10 11 -13 43 -11 23 1 102 3 175 4 72 0 132 4 132 9
0 4 -79 8 -175 9 -144 2 -175 0 -175 -11z"/>
<path d="M5270 6604 c0 -15 9 -16 61 -10 34 3 113 6 175 6 69 0 114 4 114 10
0 6 -65 10 -175 10 -156 0 -175 -2 -175 -16z"/>
<path d="M5880 6610 c0 -19 211 -27 315 -10 62 9 66 9 -142 14 -95 2 -173 1
-173 -4z"/>
<path d="M6486 6612 c-10 -17 96 -25 229 -17 69 4 125 10 125 14 0 11 -347 14
-354 3z"/>
<path d="M560 6330 c0 -113 4 -180 10 -180 6 0 10 67 10 180 0 113 -4 180 -10
180 -6 0 -10 -67 -10 -180z"/>
<path d="M1780 6325 c0 -117 4 -185 10 -185 6 0 10 68 10 185 0 117 -4 185
-10 185 -6 0 -10 -68 -10 -185z"/>
<path d="M3000 6325 c0 -117 4 -185 10 -185 6 0 10 68 10 185 0 117 -4 185
-10 185 -6 0 -10 -68 -10 -185z"/>
<path d="M6660 6330 c0 -113 4 -180 10 -180 6 0 10 67 10 180 0 113 -4 180
-10 180 -6 0 -10 -67 -10 -180z"/>
<path d="M1170 6325 c0 -110 4 -175 10 -175 6 0 10 65 10 175 0 110 -4 175
-10 175 -6 0 -10 -65 -10 -175z"/>
<path d="M2390 6325 c0 -110 4 -175 10 -175 6 0 10 65 10 175 0 110 -4 175
-10 175 -6 0 -10 -65 -10 -175z"/>
<path d="M3610 6325 c0 -110 4 -175 10 -175 6 0 10 65 10 175 0 110 -4 175
-10 175 -6 0 -10 -65 -10 -175z"/>
<path d="M700 6330 c0 -6 67 -10 180 -10 113 0 180 4 180 10 0 6 -67 10 -180
10 -113 0 -180 -4 -180 -10z"/>
<path d="M1310 6330 c0 -6 67 -10 180 -10 113 0 180 4 180 10 0 6 -67 10 -180
10 -113 0 -180 -4 -180 -10z"/>
<path d="M1920 6330 c0 -6 67 -10 180 -10 113 0 180 4 180 10 0 6 -67 10 -180
10 -113 0 -180 -4 -180 -10z"/>
<path d="M2530 6330 c0 -6 67 -10 180 -10 113 0 180 4 180 10 0 6 -67 10 -180
10 -113 0 -180 -4 -180 -10z"/>
<path d="M3135 6330 c4 -6 77 -10 186 -10 113 0 179 4 179 10 0 6 -69 10 -186
10 -121 0 -183 -3 -179 -10z"/>
<path d="M3750 6330 c0 -6 67 -10 180 -10 113 0 180 4 180 10 0 6 -67 10 -180
10 -113 0 -180 -4 -180 -10z"/>
<path d="M3900 6055 c0 -117 4 -185 10 -185 6 0 10 68 10 185 0 117 -4 185
-10 185 -6 0 -10 -68 -10 -185z"/>
<path d="M856 6220 c-4 -9 -5 -90 -4 -180 4 -207 22 -225 26 -25 2 138 -8 237
-22 205z"/>
<path d="M1460 6050 c0 -113 4 -180 10 -180 6 0 10 67 10 180 0 113 -4 180
-10 180 -6 0 -10 -67 -10 -180z"/>
<path d="M2075 6218 c-10 -26 0 -343 10 -338 6 3 10 71 10 173 0 153 -6 202
-20 165z"/>
<path d="M2680 6050 c0 -113 4 -180 10 -180 6 0 10 67 10 180 0 113 -4 180
-10 180 -6 0 -10 -67 -10 -180z"/>
<path d="M3301 6053 c-1 -116 3 -183 9 -183 12 0 12 316 0 345 -5 12 -9 -51
-9 -162z"/>
<path d="M380 6050 c0 -6 68 -10 185 -10 117 0 185 4 185 10 0 6 -68 10 -185
10 -117 0 -185 -4 -185 -10z"/>
<path d="M990 6050 c0 -6 68 -10 185 -10 117 0 185 4 185 10 0 6 -68 10 -185
10 -117 0 -185 -4 -185 -10z"/>
<path d="M1600 6050 c0 -6 67 -10 180 -10 113 0 180 4 180 10 0 6 -67 10 -180
10 -113 0 -180 -4 -180 -10z"/>
<path d="M2215 6050 c4 -6 77 -10 186 -10 113 0 179 4 179 10 0 6 -69 10 -186
10 -121 0 -183 -3 -179 -10z"/>
<path d="M2825 6050 c4 -6 75 -10 180 -10 105 0 176 4 180 10 4 7 -58 10 -180
10 -122 0 -184 -3 -180 -10z"/>
<path d="M3430 6050 c0 -6 68 -10 185 -10 117 0 185 4 185 10 0 6 -68 10 -185
10 -117 0 -185 -4 -185 -10z"/>
<path d="M560 5780 c0 -113 4 -180 10 -180 6 0 10 67 10 180 0 113 -4 180 -10
180 -6 0 -10 -67 -10 -180z"/>
<path d="M1170 5780 c0 -113 4 -180 10 -180 6 0 10 67 10 180 0 113 -4 180
-10 180 -6 0 -10 -67 -10 -180z"/>
<path d="M1780 5780 c0 -113 4 -180 10 -180 6 0 10 67 10 180 0 113 -4 180
-10 180 -6 0 -10 -67 -10 -180z"/>
<path d="M2390 5780 c0 -113 4 -180 10 -180 6 0 10 67 10 180 0 113 -4 180
-10 180 -6 0 -10 -67 -10 -180z"/>
<path d="M3000 5780 c0 -113 4 -180 10 -180 6 0 10 67 10 180 0 113 -4 180
-10 180 -6 0 -10 -67 -10 -180z"/>
<path d="M3610 5780 c0 -113 4 -180 10 -180 6 0 10 67 10 180 0 113 -4 180
-10 180 -6 0 -10 -67 -10 -180z"/>
<path d="M700 5780 c0 -5 14 -10 30 -10 205 -2 320 0 323 7 1 4 -78 9 -175 11
-117 2 -178 -1 -178 -8z"/>
<path d="M1306 5781 c-8 -12 12 -18 54 -16 19 0 97 2 173 3 83 1 137 6 137 12
0 13 -357 14 -364 1z"/>
<path d="M1922 5778 c3 -9 52 -12 181 -13 97 0 177 3 177 6 0 15 -40 19 -197
19 -125 0 -164 -3 -161 -12z"/>
<path d="M2532 5778 c6 -17 349 -19 355 -2 2 7 -55 11 -178 13 -146 2 -180 0
-177 -11z"/>
<path d="M3140 5780 c0 -12 -1 -12 200 -12 107 -1 155 3 158 11 3 8 -46 11
-177 11 -114 0 -181 -4 -181 -10z"/>
<path d="M3750 5780 c0 -6 67 -10 180 -10 113 0 180 4 180 10 0 6 -67 10 -180
10 -113 0 -180 -4 -180 -10z"/>
<path d="M850 5500 c0 -135 3 -181 12 -178 17 6 18 350 1 355 -10 4 -13 -36
-13 -177z"/>
<path d="M1460 5500 c0 -113 4 -180 10 -180 6 0 10 67 10 180 0 113 -4 180
-10 180 -6 0 -10 -67 -10 -180z"/>
<path d="M2075 5658 c-10 -39 -1 -331 10 -335 6 -2 11 62 12 177 1 108 -2 180
-7 180 -5 0 -12 -10 -15 -22z"/>
<path d="M2680 5500 c0 -113 4 -180 10 -180 6 0 10 67 10 180 0 113 -4 180
-10 180 -6 0 -10 -67 -10 -180z"/>
<path d="M3300 5500 c0 -104 4 -180 9 -180 6 0 10 76 10 180 0 110 -3 180 -9
180 -6 0 -10 -71 -10 -180z"/>
<path d="M3900 5500 c0 -113 4 -180 10 -180 6 0 10 67 10 180 0 113 -4 180
-10 180 -6 0 -10 -67 -10 -180z"/>
<path d="M385 5500 c8 -13 355 -13 355 0 0 6 -72 10 -181 10 -116 0 -178 -4
-174 -10z"/>
<path d="M1000 5500 c0 -6 66 -10 175 -9 105 0 175 4 175 9 0 6 -70 10 -175
10 -109 0 -175 -4 -175 -10z"/>
<path d="M1600 5500 c0 -6 67 -10 180 -10 113 0 180 4 180 10 0 6 -67 10 -180
10 -113 0 -180 -4 -180 -10z"/>
<path d="M2220 5500 c0 -6 65 -10 175 -10 110 0 175 4 175 10 0 6 -65 10 -175
10 -110 0 -175 -4 -175 -10z"/>
<path d="M2825 5500 c4 -6 75 -10 181 -10 109 0 174 4 174 10 0 6 -67 10 -181
10 -117 0 -178 -3 -174 -10z"/>
<path d="M3440 5500 c0 -6 67 -10 180 -10 113 0 180 4 180 10 0 6 -67 10 -180
10 -113 0 -180 -4 -180 -10z"/>
<path d="M1780 5226 c0 -117 4 -186 10 -186 6 0 10 66 10 179 0 109 -4 182
-10 186 -7 4 -10 -58 -10 -179z"/>
<path d="M560 5220 c0 -113 4 -180 10 -180 6 0 10 67 10 180 0 113 -4 180 -10
180 -6 0 -10 -67 -10 -180z"/>
<path d="M1170 5225 c0 -110 4 -175 10 -175 6 0 10 65 10 175 0 110 -4 175
-10 175 -6 0 -10 -65 -10 -175z"/>
<path d="M2390 5220 c0 -113 4 -180 10 -180 6 0 10 67 10 180 0 113 -4 180
-10 180 -6 0 -10 -67 -10 -180z"/>
<path d="M3000 5220 c0 -113 4 -180 10 -180 6 0 10 67 10 180 0 113 -4 180
-10 180 -6 0 -10 -67 -10 -180z"/>
<path d="M3610 5225 c0 -110 4 -175 10 -175 6 0 10 65 10 175 0 110 -4 175
-10 175 -6 0 -10 -65 -10 -175z"/>
<path d="M6660 5220 c0 -113 4 -180 10 -180 6 0 10 67 10 180 0 113 -4 180
-10 180 -6 0 -10 -67 -10 -180z"/>
<path d="M700 5231 c0 -7 60 -11 181 -11 99 0 178 4 175 8 -8 13 -356 15 -356
3z"/>
<path d="M1305 5231 c-4 -8 50 -11 179 -11 102 0 186 3 186 8 0 12 -357 15
-365 3z"/>
<path d="M1920 5230 c0 -6 67 -10 180 -10 113 0 180 4 180 10 0 6 -67 10 -180
10 -113 0 -180 -4 -180 -10z"/>
<path d="M2526 5231 c-5 -8 45 -11 180 -11 103 0 184 3 181 7 -13 12 -354 16
-361 4z"/>
<path d="M3140 5230 c0 -6 67 -10 180 -10 113 0 180 4 180 10 0 6 -67 10 -180
10 -113 0 -180 -4 -180 -10z"/>
<path d="M3745 5230 c-4 -7 58 -10 179 -10 117 0 186 4 186 10 0 6 -66 10
-179 10 -109 0 -182 -4 -186 -10z"/>
<path d="M857 5123 c-4 -3 -7 -85 -7 -180 0 -135 3 -174 13 -170 9 3 11 46 10
177 -2 95 -4 175 -6 176 -2 2 -7 1 -10 -3z"/>
<path d="M1460 4950 c0 -113 4 -180 10 -180 6 0 10 67 10 180 0 113 -4 180
-10 180 -6 0 -10 -67 -10 -180z"/>
<path d="M2076 5038 c-3 -50 -6 -131 -6 -180 0 -72 3 -88 15 -88 13 0 15 26
15 174 0 189 -13 241 -24 94z"/>
<path d="M2680 4950 c0 -113 4 -180 10 -180 6 0 10 67 10 180 0 113 -4 180
-10 180 -6 0 -10 -67 -10 -180z"/>
<path d="M3300 4951 c0 -114 4 -181 10 -181 6 0 10 65 10 174 0 106 -4 177
-10 181 -7 4 -10 -57 -10 -174z"/>
<path d="M3900 4950 c0 -113 4 -180 10 -180 6 0 10 67 10 180 0 113 -4 180
-10 180 -6 0 -10 -67 -10 -180z"/>
<path d="M6347 5124 c-10 -11 -8 -354 2 -354 10 0 21 341 11 353 -4 4 -9 4
-13 1z"/>
<path d="M380 4950 c0 -6 68 -10 185 -10 117 0 185 4 185 10 0 6 -68 10 -185
10 -117 0 -185 -4 -185 -10z"/>
<path d="M990 4950 c0 -6 68 -10 185 -10 117 0 185 4 185 10 0 6 -68 10 -185
10 -117 0 -185 -4 -185 -10z"/>
<path d="M1600 4950 c0 -6 67 -10 180 -10 113 0 180 4 180 10 0 6 -67 10 -180
10 -113 0 -180 -4 -180 -10z"/>
<path d="M2210 4950 c0 -6 68 -10 185 -10 117 0 185 4 185 10 0 6 -68 10 -185
10 -117 0 -185 -4 -185 -10z"/>
<path d="M2820 4950 c0 -6 68 -10 185 -10 117 0 185 4 185 10 0 6 -68 10 -185
10 -117 0 -185 -4 -185 -10z"/>
<path d="M3440 4950 c0 -6 67 -10 180 -10 113 0 180 4 180 10 0 6 -67 10 -180
10 -113 0 -180 -4 -180 -10z"/>
<path d="M4040 4950 c0 -6 67 -10 180 -10 113 0 180 4 180 10 0 6 -67 10 -180
10 -113 0 -180 -4 -180 -10z"/>
<path d="M4650 4950 c0 -6 68 -10 185 -10 117 0 185 4 185 10 0 6 -68 10 -185
10 -117 0 -185 -4 -185 -10z"/>
<path d="M5260 4950 c0 -6 68 -10 185 -10 117 0 185 4 185 10 0 6 -68 10 -185
10 -117 0 -185 -4 -185 -10z"/>
<path d="M5880 4950 c0 -6 67 -10 180 -10 113 0 180 4 180 10 0 6 -67 10 -180
10 -113 0 -180 -4 -180 -10z"/>
<path d="M6480 4950 c0 -6 68 -10 185 -10 117 0 185 4 185 10 0 6 -68 10 -185
10 -117 0 -185 -4 -185 -10z"/>
<path d="M7533 7238 c-6 -7 -58 -139 -117 -293 -59 -154 -110 -286 -113 -292
-4 -9 8 -13 40 -13 l44 0 33 90 32 91 130 -3 130 -3 31 -85 32 -85 48 -3 c26
-2 47 -1 47 1 0 6 -230 569 -241 590 -11 20 -81 24 -96 5z m97 -207 c27 -73
50 -135 50 -137 0 -2 -45 -4 -100 -4 -55 0 -100 2 -100 4 0 2 17 50 39 107 21
57 42 119 46 137 4 18 9 32 11 30 2 -2 26 -64 54 -137z"/>
<path d="M7960 6901 c-60 -54 -62 -71 -6 -47 l36 15 0 -115 c0 -107 1 -114 20
-114 19 0 20 7 20 155 0 85 -3 155 -7 155 -5 0 -33 -23 -63 -49z"/>
<path d="M1001 4349 c-63 -50 -62 -80 2 -54 15 6 17 -1 17 -84 0 -90 0 -91 25
-91 l25 0 0 135 c0 74 -4 135 -9 135 -4 0 -32 -19 -60 -41z"/>
<path d="M3952 4357 c-12 -13 -22 -31 -22 -40 0 -24 37 -22 50 3 13 24 58 27
66 5 7 -17 0 -28 -73 -114 -74 -87 -72 -91 38 -91 88 0 90 1 87 23 -3 19 -10
22 -51 25 l-49 3 46 49 c56 60 66 92 39 128 -28 38 -99 43 -131 9z"/>
<path d="M7080 4360 c-11 -11 -20 -26 -20 -34 0 -23 27 -26 46 -5 9 10 25 19
36 19 27 0 23 -37 -7 -56 -31 -21 -32 -30 0 -38 35 -9 48 -37 29 -64 -20 -28
-35 -28 -64 3 -26 28 -40 25 -40 -10 0 -30 35 -55 78 -55 67 0 108 84 63 129
-17 17 -18 21 -5 32 39 32 -2 99 -61 99 -22 0 -43 -8 -55 -20z"/>
<path d="M220 3276 l0 -773 353 -5 c193 -3 605 -4 915 -3 l562 3 38 28 c20 16
71 60 112 99 42 38 135 121 208 184 72 63 149 135 169 160 21 25 62 73 92 106
135 152 136 233 6 396 -85 105 -482 468 -599 547 l-40 27 -908 2 -908 2 0
-773z m572 743 c11 -6 95 -75 187 -152 194 -164 351 -296 916 -768 226 -188
412 -344 414 -346 3 -2 -13 -18 -35 -35 -21 -18 -71 -63 -111 -101 l-72 -69
-23 18 c-22 18 -333 278 -938 784 -564 473 -800 672 -800 676 0 10 442 3 462
-7z m711 2 c13 -5 60 -40 104 -78 43 -37 171 -144 283 -238 549 -459 745 -626
745 -634 0 -14 -131 -157 -172 -188 -21 -17 -37 -23 -41 -16 -7 10 -198 171
-907 763 -209 175 -400 336 -425 358 l-45 41 217 1 c119 0 227 -4 241 -9z
m548 -9 c52 -26 366 -301 500 -436 171 -174 229 -272 198 -336 l-14 -29 -175
146 c-537 450 -779 654 -785 663 -4 6 37 10 117 10 100 0 131 -4 159 -18z
m-1156 -678 c341 -286 698 -584 793 -663 94 -80 172 -147 172 -150 0 -3 -105
-4 -234 -1 l-235 5 -33 31 c-18 17 -116 101 -218 186 -356 296 -805 672 -852
712 l-48 41 0 194 c0 184 1 193 18 179 9 -8 296 -249 637 -534z m245 -813 c0
-3 -103 -5 -229 -3 l-228 3 -222 185 -221 186 0 194 0 195 450 -377 c248 -207
450 -379 450 -383z m-712 -5 c-2 -1 -45 0 -95 2 l-93 4 0 79 0 80 95 -82 c53
-45 95 -82 93 -83z"/>
<path d="M3220 3275 l0 -775 43 -1 c23 0 432 -1 908 -1 758 0 869 2 895 15 16
8 73 55 125 104 52 48 147 132 211 186 117 99 275 270 329 355 40 64 53 114
39 157 -17 52 -81 144 -151 220 -82 87 -489 454 -549 494 -22 14 -111 16 -937
19 l-913 3 0 -776z m1861 724 c81 -62 413 -365 510 -466 122 -126 176 -217
165 -275 -18 -94 -170 -269 -430 -497 -105 -92 -197 -175 -205 -184 -7 -9 -28
-26 -46 -37 -33 -20 -44 -21 -932 -20 l-898 0 -3 755 -2 755 903 -2 904 -3 34
-26z"/>
<path d="M6493 4042 l-273 -2 0 -769 0 -768 388 -5 c213 -2 621 -4 907 -3 473
1 523 3 553 18 18 10 72 55 120 100 48 45 134 123 192 173 214 186 365 362
390 453 21 80 -40 184 -209 352 -136 135 -453 414 -496 436 -25 14 -114 16
-665 17 -349 0 -758 0 -907 -2z m757 -267 l0 -255 255 0 255 0 0 -255 0 -255
-255 0 -255 0 0 255 0 255 -255 0 -255 0 0 248 c0 137 3 252 7 255 3 4 118 7
255 7 l248 0 0 -255z m817 230 c18 -11 71 -54 118 -95 l85 -74 0 -158 0 -158
-250 0 -250 0 0 256 0 256 133 -4 c112 -2 137 -6 164 -23z m-1364 -491 l37 -7
0 -248 0 -249 -250 0 -250 0 0 255 0 255 213 0 c116 0 229 -3 250 -6z m1954
-49 c63 -72 107 -165 99 -209 -7 -37 -85 -161 -134 -213 l-31 -33 -155 0 -156
0 0 256 0 256 166 -4 167 -3 44 -50z m-1544 -465 l137 0 0 -240 0 -240 -255 0
-255 0 0 238 c0 131 3 242 8 247 4 4 57 5 117 1 61 -3 172 -6 248 -6z m1157
-142 l0 -141 -77 -74 c-127 -121 -129 -122 -263 -123 -63 -1 -125 -1 -137 -1
l-23 1 0 240 0 240 250 0 250 0 0 -142z"/>
<path d="M1020 2079 c-57 -72 -93 -137 -86 -154 4 -11 20 -15 56 -15 47 0 50
-2 50 -25 0 -19 5 -25 23 -25 17 0 27 10 40 38 21 48 21 62 2 62 -12 0 -15 16
-15 85 0 103 -11 109 -70 34z m20 -84 c0 -31 -3 -35 -25 -35 -14 0 -25 3 -25
6 0 8 40 64 46 64 2 0 4 -16 4 -35z"/>
<path d="M3951 2070 c-19 -90 -12 -103 44 -81 28 12 55 -5 55 -34 0 -57 -27
-71 -66 -34 -13 12 -30 19 -38 16 -21 -8 -20 -19 5 -51 28 -36 89 -37 124 -1
36 35 35 105 -1 134 -15 12 -40 21 -55 21 -19 0 -29 5 -29 15 0 11 11 15 43
15 50 0 72 12 64 34 -5 12 -21 16 -71 16 l-64 0 -11 -50z"/>
<path d="M7092 2102 c-30 -23 -45 -83 -37 -145 9 -64 40 -97 90 -97 65 0 101
64 72 126 -18 36 -50 50 -92 40 -29 -7 -31 1 -9 32 18 26 36 28 54 7 14 -17
20 -18 39 -6 12 8 12 13 -3 35 -13 20 -25 26 -54 26 -20 0 -47 -8 -60 -18z
m84 -139 c8 -30 -5 -56 -31 -61 -21 -5 -35 14 -35 49 0 32 7 39 36 39 17 0 25
-7 30 -27z"/>
<path d="M219 1648 c-1 -79 -1 -426 0 -773 l2 -630 913 -3 914 -2 55 47 c30
27 99 86 153 133 55 46 178 163 274 260 254 254 277 306 199 450 -32 58 -70
104 -173 205 -72 72 -183 174 -246 228 -63 54 -139 119 -169 145 -105 91 8 82
-1013 82 l-908 0 -1 -142z m381 52 c0 -40 4 -70 10 -70 6 0 10 30 10 70 l0 70
295 0 295 0 0 -65 c0 -37 4 -65 10 -65 6 0 10 28 10 65 l0 65 295 0 295 0 0
-70 c0 -40 4 -70 10 -70 6 0 10 30 10 70 l0 70 91 0 c102 0 144 -14 184 -62
24 -29 25 -34 25 -189 0 -208 18 -214 22 -8 l3 152 67 -57 c43 -37 65 -63 61
-72 -4 -10 0 -12 11 -8 10 4 34 -12 71 -47 l55 -52 0 -173 c0 -109 4 -174 10
-174 6 0 10 62 10 167 l0 168 109 -109 c61 -61 124 -135 145 -169 31 -53 36
-70 36 -123 0 -55 -4 -68 -38 -118 -41 -62 -228 -266 -243 -266 -5 0 -9 57 -9
130 0 80 -4 130 -10 130 -6 0 -10 -54 -10 -143 l0 -144 -58 -54 c-32 -30 -93
-85 -135 -122 l-77 -68 -1 115 c-2 133 -2 132 -12 142 -4 4 -7 -56 -7 -134 l0
-142 -51 -40 -51 -40 -99 0 -99 0 0 40 c0 22 -4 40 -10 40 -5 0 -10 -18 -10
-40 l0 -40 -140 0 -140 0 0 180 c0 113 -4 180 -10 180 -6 0 -10 -67 -10 -180
l0 -180 -145 0 -145 0 0 40 c0 22 -4 40 -10 40 -5 0 -10 -18 -10 -40 l0 -40
-135 0 -135 0 -2 177 c-2 130 -6 177 -15 181 -10 3 -13 -37 -13 -177 l0 -181
-145 0 -145 0 0 40 c0 22 -4 40 -10 40 -5 0 -10 -18 -10 -40 l0 -40 -140 0
-140 0 0 180 c0 113 -4 180 -10 180 -6 0 -10 -67 -10 -180 l0 -180 -30 0 -30
0 0 220 0 220 125 0 c77 0 125 4 125 10 0 6 -48 10 -125 10 l-125 0 0 270 0
270 128 2 127 2 -125 6 c-69 4 -126 8 -127 9 -2 0 -3 111 -3 246 l0 245 180 0
180 0 0 -70z"/>
<path d="M300 1540 c0 -113 4 -180 10 -180 6 0 10 67 10 180 0 113 -4 180 -10
180 -6 0 -10 -67 -10 -180z"/>
<path d="M916 1673 c-3 -25 -6 -106 -6 -179 0 -107 3 -134 14 -134 11 0 13 33
13 175 0 174 -8 227 -21 138z"/>
<path d="M1520 1540 c0 -113 4 -180 10 -180 6 0 10 67 10 180 0 113 -4 180
-10 180 -6 0 -10 -67 -10 -180z"/>
<path d="M440 1541 c0 -22 350 -26 357 -4 3 9 -41 12 -176 12 -100 1 -181 -3
-181 -8z"/>
<path d="M1060 1540 c0 -6 65 -10 175 -10 110 0 175 4 175 10 0 6 -65 10 -175
10 -110 0 -175 -4 -175 -10z"/>
<path d="M1665 1540 c4 -6 75 -10 181 -10 109 0 174 4 174 10 0 6 -67 10 -181
10 -117 0 -178 -3 -174 -10z"/>
<path d="M1820 1266 c0 -117 4 -186 10 -186 6 0 10 66 10 179 0 109 -4 182
-10 186 -7 4 -10 -58 -10 -179z"/>
<path d="M600 1260 c0 -113 4 -180 10 -180 6 0 10 67 10 180 0 113 -4 180 -10
180 -6 0 -10 -67 -10 -180z"/>
<path d="M1210 1260 c0 -113 4 -180 10 -180 6 0 10 67 10 180 0 113 -4 180
-10 180 -6 0 -10 -67 -10 -180z"/>
<path d="M740 1272 c0 -13 148 -19 275 -11 l90 5 -106 2 c-58 1 -140 5 -182 8
-53 5 -77 3 -77 -4z"/>
<path d="M1960 1271 c0 -6 20 -13 45 -17 59 -8 315 5 315 17 0 5 -80 9 -180 9
-106 0 -180 -4 -180 -9z"/>
<path d="M1397 1257 c40 -6 106 -6 190 0 l128 10 -190 0 c-160 0 -180 -1 -128
-10z"/>
<path d="M300 990 c0 -113 4 -180 10 -180 6 0 10 67 10 180 0 113 -4 180 -10
180 -6 0 -10 -67 -10 -180z"/>
<path d="M916 1123 c-9 -69 -7 -311 3 -317 15 -10 21 51 21 205 0 147 -11 201
-24 112z"/>
<path d="M1520 991 c0 -109 4 -182 10 -186 7 -4 10 58 10 179 0 117 -4 186
-10 186 -6 0 -10 -66 -10 -179z"/>
<path d="M2140 983 c0 -125 4 -183 10 -173 13 20 13 347 0 355 -7 4 -10 -59
-10 -182z"/>
<path d="M440 990 c0 -6 67 -10 180 -10 113 0 180 4 180 10 0 6 -67 10 -180
10 -113 0 -180 -4 -180 -10z"/>
<path d="M1055 990 c4 -6 77 -10 186 -10 113 0 179 4 179 10 0 6 -69 10 -186
10 -121 0 -183 -3 -179 -10z"/>
<path d="M1660 990 c0 -6 66 -10 179 -10 109 0 182 4 186 10 4 7 -58 10 -179
10 -117 0 -186 -4 -186 -10z"/>
<path d="M2270 990 c0 -6 68 -10 185 -10 117 0 185 4 185 10 0 6 -68 10 -185
10 -117 0 -185 -4 -185 -10z"/>
<path d="M600 716 c0 -117 4 -186 10 -186 6 0 10 66 10 179 0 109 -4 182 -10
186 -7 4 -10 -58 -10 -179z"/>
<path d="M1820 716 c0 -117 4 -186 10 -186 6 0 10 66 10 179 0 109 -4 182 -10
186 -7 4 -10 -58 -10 -179z"/>
<path d="M1210 709 c0 -117 3 -178 10 -174 14 8 14 355 0 355 -6 0 -10 -67
-10 -181z"/>
<path d="M740 710 c0 -6 67 -10 180 -10 113 0 180 4 180 10 0 6 -67 10 -180
10 -113 0 -180 -4 -180 -10z"/>
<path d="M1350 710 c0 -6 67 -10 180 -10 113 0 180 4 180 10 0 6 -67 10 -180
10 -113 0 -180 -4 -180 -10z"/>
<path d="M1960 710 c0 -6 67 -10 180 -10 113 0 180 4 180 10 0 6 -67 10 -180
10 -113 0 -180 -4 -180 -10z"/>
<path d="M440 441 c0 -23 350 -26 357 -3 4 9 -36 12 -176 12 -104 0 -181 -4
-181 -9z"/>
<path d="M1060 440 c0 -5 15 -10 33 -11 25 0 280 0 320 1 5 0 5 5 2 10 -4 6
-75 10 -181 10 -109 0 -174 -4 -174 -10z"/>
<path d="M1660 440 c0 -12 14 -12 210 -12 95 0 146 4 148 11 3 8 -51 11 -177
11 -114 0 -181 -4 -181 -10z"/>
<path d="M3220 1015 l0 -775 916 0 917 0 46 37 c25 21 78 67 117 103 38 36
124 112 190 170 148 129 298 297 342 381 39 75 38 101 -11 194 -49 92 -266
305 -621 608 l-68 57 -914 0 -914 0 0 -775z m1700 750 c0 -4 -31 -31 -469
-397 l-295 -247 -51 43 c-27 23 -192 161 -365 305 -173 145 -324 272 -335 282
-19 19 -2 19 748 19 422 0 767 -2 767 -5z m410 -241 c190 -167 361 -350 398
-423 18 -35 32 -74 32 -86 0 -81 -168 -280 -431 -512 -106 -92 -197 -172 -204
-177 -8 -6 -37 13 -92 60 -44 38 -229 193 -411 344 -182 151 -331 278 -331
282 -1 4 151 134 337 290 185 155 370 310 411 345 l74 63 51 -42 c28 -24 103
-88 166 -144z m-1685 -187 c209 -176 378 -322 376 -326 -5 -8 -772 -651 -777
-651 -2 0 -4 295 -4 656 0 508 3 654 12 648 7 -4 183 -151 393 -327z m587
-491 c35 -30 205 -173 378 -318 l315 -263 -382 -3 c-210 -1 -555 -1 -767 0
l-386 3 378 317 c207 174 382 317 389 318 6 0 40 -24 75 -54z"/>
<path d="M6220 1015 l0 -775 926 0 926 0 66 63 c37 35 137 125 222 199 216
190 353 336 400 428 45 89 10 195 -105 319 -82 87 -344 331 -430 400 -38 30
-91 75 -117 98 l-47 43 -921 0 -920 0 0 -775z m390 691 c0 -36 5 -68 10 -71 6
-4 10 20 10 64 l0 71 295 0 295 0 0 -70 c0 -40 4 -70 10 -70 6 0 10 30 10 70
l0 70 295 0 295 0 0 -65 c0 -37 4 -65 10 -65 6 0 10 28 10 65 l0 65 103 0 102
-1 42 -38 c40 -36 42 -39 44 -106 l2 -70 -74 -61 -74 -61 -7 -84 c-3 -46 -6
-144 -7 -216 l-1 -133 -150 0 c-93 0 -150 -4 -150 -10 0 -6 57 -10 150 -10
l150 0 0 -94 0 -94 -39 -49 c-21 -26 -50 -59 -65 -72 l-26 -24 0 126 c0 78 -4
127 -10 127 -6 0 -10 -53 -10 -139 0 -137 0 -140 -27 -173 -54 -64 -234 -268
-243 -273 -6 -3 -7 55 -3 143 4 107 3 151 -6 156 -8 5 -11 -34 -11 -151 0 -87
-3 -168 -6 -181 -6 -22 -9 -22 -150 -22 l-144 0 0 40 c0 22 -4 40 -10 40 -5 0
-10 -18 -10 -40 l0 -40 -140 0 -140 0 0 180 c0 113 -4 180 -10 180 -6 0 -10
-67 -10 -180 l0 -180 -145 0 -145 0 0 40 c0 22 -4 40 -10 40 -5 0 -10 -18 -10
-40 l0 -40 -135 0 -135 0 0 174 c0 106 -4 177 -10 181 -7 4 -10 -57 -10 -175
l0 -181 -37 3 -38 3 -3 218 -2 217 129 0 c76 0 132 4 136 10 4 6 -42 10 -129
10 l-136 0 0 264 0 264 133 8 132 9 -130 5 -130 5 -3 235 c-1 129 0 240 2 247
4 10 49 13 186 13 l180 0 0 -64z m1590 -58 l30 -22 -27 -28 c-15 -15 -30 -28
-35 -28 -4 0 -8 23 -8 50 0 28 2 50 5 50 3 0 19 -10 35 -22z m240 -218 c171
-156 255 -249 291 -325 33 -69 36 -104 10 -160 -38 -85 -207 -268 -396 -430
-39 -33 -113 -99 -165 -146 -52 -47 -105 -91 -117 -98 -22 -11 -513 -17 -513
-6 0 3 99 118 220 256 121 137 222 260 224 272 3 12 7 155 9 317 2 162 7 302
11 310 4 8 58 54 119 102 l112 86 30 -27 c17 -15 91 -83 165 -151z"/>
<path d="M6320 1541 c0 -114 4 -181 10 -181 6 0 10 65 10 174 0 106 -4 177
-10 181 -7 4 -10 -57 -10 -174z"/>
<path d="M6927 1713 c-11 -11 -8 -353 3 -353 6 0 10 67 10 180 0 99 -1 180 -3
180 -2 0 -7 -3 -10 -7z"/>
<path d="M7540 1541 c0 -100 3 -181 8 -181 11 0 13 348 2 355 -6 4 -10 -62
-10 -174z"/>
<path d="M6455 1540 c4 -6 77 -10 186 -10 113 0 179 4 179 10 0 6 -69 10 -186
10 -121 0 -183 -3 -179 -10z"/>
<path d="M7066 1541 c17 -17 354 -18 354 -1 0 6 -67 10 -182 10 -112 0 -178
-4 -172 -9z"/>
<path d="M7680 1540 c0 -6 67 -10 180 -10 113 0 180 4 180 10 0 6 -67 10 -180
10 -113 0 -180 -4 -180 -10z"/>
<path d="M7220 1266 c0 -117 4 -186 10 -186 6 0 10 66 10 179 0 109 -4 182
-10 186 -7 4 -10 -58 -10 -179z"/>
<path d="M6610 1265 c0 -110 4 -175 10 -175 6 0 10 65 10 175 0 110 -4 175
-10 175 -6 0 -10 -65 -10 -175z"/>
<path d="M7830 1265 c0 -110 4 -175 10 -175 6 0 10 65 10 175 0 110 -4 175
-10 175 -6 0 -10 -65 -10 -175z"/>
<path d="M6757 1273 c-4 -6 7 -13 24 -17 52 -10 317 -7 324 4 4 6 -32 10 -102
10 -59 0 -138 3 -174 6 -41 4 -69 3 -72 -3z"/>
<path d="M7365 1271 c-3 -5 -2 -11 2 -13 5 -2 87 -1 183 2 159 5 168 6 96 13
-110 10 -274 9 -281 -2z"/>
<path d="M6320 985 c0 -122 3 -184 10 -180 6 4 10 75 10 180 0 105 -4 176 -10
180 -7 4 -10 -58 -10 -180z"/>
<path d="M6920 990 c0 -113 4 -180 10 -180 6 0 10 67 10 180 0 113 -4 180 -10
180 -6 0 -10 -67 -10 -180z"/>
<path d="M7540 990 c0 -122 3 -179 10 -175 13 8 12 342 -1 351 -5 3 -9 -69 -9
-176z"/>
<path d="M6455 990 c4 -6 77 -10 186 -10 113 0 179 4 179 10 0 6 -69 10 -186
10 -121 0 -183 -3 -179 -10z"/>
<path d="M7060 990 c0 -6 67 -10 180 -10 113 0 180 4 180 10 0 6 -67 10 -180
10 -113 0 -180 -4 -180 -10z"/>
<path d="M6610 716 c0 -117 4 -186 10 -186 6 0 10 66 10 179 0 109 -4 182 -10
186 -7 4 -10 -58 -10 -179z"/>
<path d="M7220 716 c0 -117 4 -186 10 -186 6 0 10 66 10 179 0 109 -4 182 -10
186 -7 4 -10 -58 -10 -179z"/>
<path d="M6750 710 c0 -6 67 -10 180 -10 113 0 180 4 180 10 0 6 -67 10 -180
10 -113 0 -180 -4 -180 -10z"/>
<path d="M7360 710 c0 -6 67 -10 180 -10 113 0 180 4 180 10 0 6 -67 10 -180
10 -113 0 -180 -4 -180 -10z"/>
<path d="M6453 438 c4 -13 15 -13 310 -9 31 1 57 6 57 11 0 6 -69 10 -186 10
-144 0 -185 -3 -181 -12z"/>
<path d="M7060 440 c0 -12 -2 -12 203 -15 117 -2 157 0 154 8 -5 16 -357 22
-357 7z"/>
</g>
</svg>
