<?xml version="1.0" standalone="no"?>
<!DOCTYPE svg PUBLIC "-//W3C//DTD SVG 20010904//EN"
 "http://www.w3.org/TR/2001/REC-SVG-20010904/DTD/svg10.dtd">
<svg version="1.0" xmlns="http://www.w3.org/2000/svg"
 width="898.000000pt" height="922.000000pt" viewBox="0 0 898.000000 922.000000"
 preserveAspectRatio="xMidYMid meet">
<metadata>
Created by potrace 1.16, written by Peter Selinger 2001-2019
</metadata>
<g transform="translate(0.000000,922.000000) scale(0.100000,-0.100000)"
fill="#FFFFFF" stroke="none">
<path d="M202 6828 l3 -2173 3387 -3 3388 -2 0 2175 0 2175 -1937 0 c-1066 -1
-1994 -5 -2063 -10 -69 -5 -210 -16 -315 -24 -104 -8 -311 -22 -460 -31 -148
-8 -344 -20 -435 -25 -91 -5 -253 -14 -360 -20 -195 -11 -394 -22 -675 -40
-82 -5 -220 -12 -305 -15 -85 -4 -167 -9 -182 -11 l-28 -6 0 81 0 81 1253 1
c688 1 1279 5 1312 9 33 4 -535 8 -1263 9 l-1322 1 2 -2172z m333 1952 c189
-10 432 -24 700 -40 182 -11 450 -26 700 -40 94 -5 244 -14 335 -20 169 -10
406 -23 705 -40 94 -5 247 -14 340 -20 221 -13 464 -27 695 -40 102 -6 262
-15 355 -20 94 -6 248 -15 343 -20 94 -6 250 -14 345 -20 94 -5 251 -14 347
-20 431 -26 516 -31 700 -37 133 -5 181 -9 150 -14 -62 -10 -750 -52 -1760
-109 -195 -11 -429 -25 -520 -30 -91 -5 -325 -19 -520 -30 -195 -11 -506 -29
-690 -40 -184 -11 -495 -29 -690 -40 -195 -11 -431 -25 -525 -30 -93 -6 -249
-15 -345 -20 -96 -6 -245 -15 -330 -20 -227 -14 -516 -30 -588 -33 l-62 -2 0
353 0 353 68 -6 c37 -3 148 -10 247 -15z m45 -730 c102 -6 257 -15 345 -20 88
-5 241 -14 340 -20 99 -6 254 -15 345 -20 91 -5 248 -14 350 -20 102 -6 257
-15 345 -20 241 -14 489 -29 695 -40 288 -16 520 -29 695 -40 88 -5 243 -14
345 -20 201 -11 431 -25 690 -40 91 -5 248 -14 350 -20 102 -6 259 -15 350
-20 91 -6 284 -17 430 -26 146 -9 299 -19 340 -24 l75 -7 -62 -2 c-35 0 -158
-7 -275 -15 -117 -8 -303 -20 -413 -26 -110 -6 -310 -17 -445 -25 -135 -8
-328 -19 -430 -25 -102 -6 -259 -15 -350 -20 -91 -5 -250 -14 -355 -20 -174
-10 -413 -23 -1390 -80 -192 -11 -503 -29 -690 -40 -187 -11 -419 -24 -515
-30 -96 -5 -256 -15 -355 -20 -99 -6 -241 -15 -315 -20 -74 -5 -208 -12 -297
-16 l-163 -7 0 350 0 349 88 -3 c48 -2 170 -8 272 -13z m30 -730 c217 -13 637
-37 1035 -60 94 -5 247 -14 340 -20 94 -5 253 -14 355 -20 102 -6 259 -15 350
-20 91 -6 246 -15 345 -20 99 -6 252 -15 340 -20 88 -5 239 -14 335 -20 96 -5
254 -14 350 -20 96 -6 254 -14 350 -20 96 -5 254 -14 350 -20 96 -6 254 -15
350 -20 165 -9 307 -18 685 -41 88 -5 240 -12 338 -16 97 -3 176 -7 174 -9 -4
-4 -239 -20 -652 -44 -192 -11 -424 -25 -515 -30 -91 -6 -327 -19 -525 -30
-198 -11 -475 -27 -615 -35 -555 -33 -929 -54 -2160 -125 -289 -17 -637 -37
-775 -45 -137 -8 -324 -20 -415 -25 -91 -5 -225 -13 -297 -17 l-133 -6 0 353
0 353 118 -7 c64 -4 187 -11 272 -16z m35 -730 c188 -12 447 -27 675 -40 215
-12 483 -27 695 -40 88 -5 243 -14 345 -20 222 -12 461 -26 705 -40 99 -6 257
-15 350 -20 292 -17 506 -30 603 -36 l92 -6 2 -94 c1 -52 2 -109 2 -126 l1
-33 -90 -7 c-49 -3 -182 -11 -295 -17 -113 -7 -277 -16 -365 -21 -88 -6 -320
-19 -515 -30 -195 -11 -506 -29 -690 -40 -184 -11 -495 -29 -690 -40 -195 -11
-431 -25 -525 -30 -241 -15 -482 -28 -612 -36 l-113 -6 0 352 0 352 138 -7
c75 -3 205 -10 287 -15z m5467 -178 c333 -286 500 -463 536 -569 32 -96 -88
-252 -418 -541 -85 -74 -183 -163 -218 -196 l-63 -61 -907 1 -907 0 -3 757 -2
757 904 0 904 0 174 -148z m-5437 -552 c226 -14 469 -28 675 -40 102 -6 257
-15 345 -20 88 -5 243 -14 345 -20 272 -15 492 -28 695 -40 99 -6 261 -15 360
-20 99 -6 252 -15 340 -20 88 -5 243 -14 345 -20 102 -5 218 -13 258 -16 l72
-7 0 -126 0 -126 -307 -18 c-170 -10 -461 -27 -648 -38 -187 -10 -416 -24
-510 -29 -93 -6 -404 -24 -690 -40 -286 -17 -637 -37 -780 -45 -143 -8 -327
-19 -410 -25 -82 -5 -206 -12 -275 -15 -69 -3 -158 -8 -197 -11 l-73 -6 0 352
0 353 153 -7 c83 -3 220 -11 302 -16z m20 -730 c99 -6 252 -15 340 -20 88 -5
243 -14 345 -20 102 -6 257 -15 345 -20 226 -13 480 -28 695 -40 102 -6 259
-15 350 -20 91 -5 246 -14 345 -20 99 -6 254 -15 345 -20 91 -5 248 -14 350
-20 102 -6 255 -15 340 -20 85 -5 241 -14 345 -20 105 -6 262 -15 350 -20 88
-6 320 -19 515 -30 195 -11 427 -25 515 -30 88 -6 201 -10 252 -10 50 0 94 -4
97 -9 3 -4 -32 -11 -77 -14 -100 -8 -498 -33 -742 -47 -99 -6 -250 -15 -335
-20 -85 -5 -240 -14 -345 -20 -104 -6 -264 -15 -355 -21 -103 -7 -909 -13
-2157 -16 l-1993 -5 0 243 0 244 148 -7 c81 -4 228 -12 327 -18z"/>
<path d="M7391 7228 c-132 -342 -215 -557 -219 -571 -4 -16 1 -18 38 -15 l42
3 34 85 c18 47 34 86 34 88 0 1 57 2 128 2 l127 0 35 -90 35 -90 46 0 47 0
-60 148 c-33 81 -89 217 -123 302 l-63 155 -46 3 c-40 3 -47 0 -55 -20z m149
-329 c0 -5 -43 -9 -95 -9 -52 0 -95 4 -95 9 0 6 13 45 30 87 16 43 37 103 46
133 l16 56 49 -134 c27 -73 49 -137 49 -142z"/>
<path d="M7855 6924 c-17 -15 -40 -33 -52 -41 -13 -9 -23 -22 -23 -29 0 -17 8
-17 40 1 14 8 28 14 33 15 4 0 7 -52 7 -115 0 -94 3 -115 14 -115 12 0 16 27
18 148 2 81 1 150 -2 154 -3 4 -19 -4 -35 -18z"/>
<path d="M8050 6932 c-24 -11 -39 -28 -47 -52 -27 -78 -6 -207 38 -230 37 -20
86 -12 113 20 41 50 47 161 11 230 -11 21 -57 50 -79 50 -1 0 -17 -8 -36 -18z
m88 -63 c8 -15 12 -49 10 -92 -4 -79 -28 -114 -71 -103 -35 9 -50 53 -45 137
3 60 7 74 27 90 21 17 26 18 45 6 12 -8 27 -25 34 -38z"/>
<path d="M981 4350 c-70 -55 -69 -84 2 -55 15 6 17 -1 17 -84 0 -90 0 -91 25
-91 l25 0 0 135 c0 74 -4 135 -9 135 -5 0 -32 -18 -60 -40z"/>
<path d="M3931 4354 c-12 -15 -21 -33 -21 -40 0 -21 38 -17 50 6 12 23 58 27
66 6 8 -20 -9 -47 -71 -117 -30 -34 -55 -68 -55 -75 0 -11 20 -14 90 -14 89 0
90 0 90 25 0 23 -3 25 -52 25 l-52 0 47 48 c84 85 71 162 -27 162 -36 0 -48
-5 -65 -26z"/>
<path d="M7061 4354 c-11 -15 -18 -30 -15 -35 8 -14 30 -11 44 6 14 17 46 20
54 6 10 -16 -6 -42 -30 -52 -32 -12 -30 -23 8 -40 36 -15 47 -41 28 -64 -18
-21 -47 -18 -64 6 -9 13 -21 19 -30 16 -41 -16 6 -77 59 -77 47 0 64 8 80 41
20 38 19 63 -5 84 -17 16 -18 20 -5 38 21 30 19 50 -8 75 -34 32 -89 30 -116
-4z"/>
<path d="M202 3275 l3 -776 905 -1 c812 -1 909 1 937 15 17 9 73 56 124 104
52 48 137 124 189 168 142 119 279 260 338 348 47 72 52 84 52 136 0 47 -6 67
-37 121 -63 108 -445 478 -638 616 -26 19 -61 34 -87 37 -24 3 -436 6 -916 7
l-872 1 2 -776z m1854 723 c52 -37 99 -76 94 -80 -3 -2 -438 -2 -967 0 l-963
2 0 55 0 55 898 -2 898 -3 40 -27z m531 -475 c97 -103 159 -218 151 -275 l-3
-23 -1257 -3 -1258 -2 0 170 0 170 1166 0 1166 0 35 -37z m-167 -657 c0 -5
-273 -247 -347 -308 l-45 -38 -889 -1 c-489 -1 -895 -2 -901 -3 -10 -1 -14 42
-16 177 l-2 177 1100 0 c605 0 1100 -2 1100 -4z"/>
<path d="M3200 3270 l0 -780 918 0 919 0 79 70 c534 476 657 617 639 735 -13
92 -136 237 -400 473 -71 64 -172 154 -223 199 l-92 83 -920 0 -920 0 0 -780z
m310 743 c0 -10 -38 -261 -85 -558 -47 -297 -88 -557 -91 -577 l-6 -38 -54 0
-54 0 0 595 0 595 145 0 c131 0 145 -2 145 -17z m743 -3 c-1 -8 -41 -258 -88
-555 -47 -297 -88 -557 -91 -577 l-6 -38 -93 0 -92 0 -7 30 c-3 17 -28 173
-56 348 -28 174 -66 413 -85 530 -19 117 -35 228 -35 248 l0 34 278 -2 c239
-3 277 -5 275 -18z m743 3 c-3 -10 -14 -74 -25 -143 -24 -154 -149 -953 -157
-997 l-5 -33 -93 0 -93 0 -6 28 c-5 25 -45 274 -151 937 -18 116 -31 213 -29
218 2 4 130 7 284 7 262 0 280 -1 275 -17z m451 -352 c193 -177 292 -308 293
-387 0 -63 -88 -190 -222 -320 -92 -89 -137 -126 -148 -119 -4 3 -13 33 -19
67 -16 90 -139 862 -147 928 l-7 55 60 -53 c34 -29 119 -106 190 -171z"/>
<path d="M6200 3270 l0 -780 920 0 921 0 62 58 c35 31 103 92 153 135 262 229
432 405 482 498 80 151 -28 293 -575 762 -56 48 -105 92 -108 97 -4 7 -330 10
-931 10 l-924 0 0 -780z m295 570 c105 -6 271 -15 370 -21 99 -5 252 -14 340
-19 88 -5 284 -16 435 -25 151 -8 339 -20 416 -25 78 -6 174 -10 212 -10 128
0 84 -17 -61 -24 -78 -3 -212 -10 -297 -16 -85 -5 -236 -14 -335 -19 -99 -6
-335 -20 -525 -31 -190 -11 -428 -24 -530 -30 -102 -5 -211 -13 -242 -16 l-58
-6 0 132 0 131 43 -5 c23 -3 128 -11 232 -16z m45 -730 c102 -6 259 -15 350
-20 91 -5 246 -14 345 -20 252 -14 503 -29 685 -40 85 -5 214 -13 285 -17 168
-9 126 -16 -235 -37 -146 -9 -339 -21 -430 -26 -181 -11 -757 -44 -1055 -60
-104 -6 -207 -12 -227 -14 l-38 -4 0 127 0 127 68 -3 c37 -2 150 -8 252 -13z"/>
<path d="M1028 2118 c-26 -21 -118 -160 -118 -178 0 -22 20 -30 70 -30 32 0
39 -4 42 -22 4 -30 48 -39 48 -10 0 11 7 25 15 32 19 16 19 37 0 47 -10 6 -15
31 -17 87 -3 81 -11 96 -40 74z m-8 -118 c0 -38 -2 -40 -30 -40 l-30 0 26 40
c15 22 28 40 30 40 2 0 4 -18 4 -40z"/>
<path d="M3931 2070 c-20 -91 -18 -93 39 -85 46 6 51 5 59 -17 10 -28 -6 -68
-27 -68 -9 0 -26 9 -38 21 -24 23 -44 18 -44 -10 0 -52 92 -70 135 -26 36 35
35 105 -1 134 -15 12 -40 21 -55 21 -19 0 -29 5 -29 14 0 11 15 16 53 18 44 3
52 6 52 23 0 18 -8 20 -67 23 l-66 3 -11 -51z"/>
<path d="M7066 2089 c-22 -26 -26 -40 -26 -99 0 -59 4 -73 26 -99 74 -89 194
23 123 114 -18 22 -28 26 -60 23 -42 -4 -48 6 -24 38 13 18 15 18 45 1 35 -19
50 -15 50 13 0 24 -29 40 -73 40 -27 0 -41 -7 -61 -31z m89 -144 c0 -34 -3
-40 -22 -43 -17 -3 -26 3 -33 23 -13 35 4 67 33 63 18 -2 22 -10 22 -43z"/>
<path d="M200 1015 l0 -775 68 -1 c37 -1 449 -1 915 -1 l848 0 37 28 c20 15
71 60 112 99 41 39 120 110 176 158 117 99 292 283 346 363 97 143 68 215
-181 465 -136 135 -402 369 -480 421 -24 17 -87 18 -933 18 l-908 0 0 -775z
m125 -2 c0 -413 -2 -753 -5 -755 -3 -3 -26 -3 -52 0 l-48 4 0 755 0 754 53 -3
52 -3 0 -752z m513 0 l2 -753 -180 0 -180 0 0 755 0 755 178 -2 177 -3 3 -752z
m510 97 c2 -360 0 -700 -3 -755 l-7 -100 -174 3 -174 3 0 755 0 754 178 -2
177 -3 3 -655z m510 -97 l2 -753 -180 0 -180 0 0 755 0 755 178 -2 177 -3 3
-752z m365 587 l136 -115 7 -63 c3 -34 5 -242 2 -463 l-3 -401 -45 -40 c-25
-22 -88 -79 -140 -127 -52 -48 -112 -100 -132 -115 l-38 -28 0 761 0 762 39
-28 c21 -15 100 -80 174 -143z m471 -473 c50 -86 54 -115 22 -180 -25 -51 -62
-100 -150 -198 l-46 -51 0 313 0 313 69 -68 c38 -37 85 -96 105 -129z"/>
<path d="M3200 1015 l0 -775 921 0 921 0 110 98 c61 53 173 153 250 221 154
137 280 275 324 354 37 68 38 133 2 202 -46 89 -274 323 -472 485 -38 30 -96
79 -129 109 -34 30 -76 60 -94 67 -27 12 -195 14 -933 14 l-900 0 0 -775z
m1838 741 c31 -16 121 -106 107 -106 -6 0 -82 4 -170 10 -88 5 -250 14 -360
20 -271 14 -1314 79 -1345 84 -14 1 372 4 858 5 745 1 887 -1 910 -13z m675
-655 c15 -30 27 -68 27 -85 0 -33 -31 -109 -48 -120 -6 -3 -84 -2 -174 4 -89
5 -482 28 -873 50 -390 23 -827 49 -970 59 l-260 17 125 7 c69 4 197 12 285
17 156 10 464 27 1220 70 204 12 420 25 480 29 163 12 156 14 188 -48z m-599
-771 l-72 -70 -911 0 c-745 0 -911 2 -911 13 0 10 68 17 298 31 163 9 369 21
457 26 88 5 320 19 515 30 195 11 414 24 485 29 72 4 148 9 170 9 l40 2 -71
-70z"/>
<path d="M6200 1015 l0 -775 925 0 925 0 87 83 c49 45 149 135 223 199 147
126 205 184 298 297 111 133 127 202 70 301 -28 49 -185 219 -323 350 -78 74
-296 259 -339 288 l-40 27 -913 3 -913 2 0 -775z m1833 741 c18 -7 67 -44 111
-82 43 -38 98 -85 122 -103 24 -19 42 -36 41 -36 -2 -2 -89 3 -632 34 -1143
67 -1392 81 -1422 81 l-33 0 0 60 0 60 890 0 c733 0 896 -2 923 -14z m529
-465 c62 -65 126 -142 141 -170 l29 -51 -39 4 c-21 3 -96 8 -168 11 -71 3
-200 10 -285 15 -85 5 -315 19 -510 30 -195 11 -510 29 -700 40 -190 11 -426
25 -525 30 -99 5 -204 12 -232 16 -52 5 -53 6 -53 40 0 32 2 34 35 34 29 0
420 22 1615 91 107 6 249 14 315 19 66 4 152 8 191 8 l72 2 114 -119z m178
-306 c0 -37 -111 -185 -209 -279 l-61 -57 -85 5 c-216 14 -465 29 -940 56
-512 29 -856 49 -1034 60 -85 6 -162 10 -173 10 -14 0 -18 8 -18 34 0 34 0 35
53 40 28 2 232 14 452 26 220 12 546 30 725 40 179 11 492 28 695 40 204 11
386 22 405 24 66 5 190 6 190 1z m-400 -454 c0 -5 -12 -17 -26 -26 -15 -10
-63 -52 -108 -94 -45 -42 -100 -93 -124 -114 l-42 -37 -910 0 -910 0 0 78 0
79 148 6 c129 6 337 17 1012 57 91 5 332 19 535 30 204 11 379 22 390 24 11 2
23 4 28 5 4 0 7 -3 7 -8z"/>
</g>
</svg>
