<?xml version="1.0" standalone="no"?>
<!DOCTYPE svg PUBLIC "-//W3C//DTD SVG 20010904//EN"
 "http://www.w3.org/TR/2001/REC-SVG-20010904/DTD/svg10.dtd">
<svg version="1.0" xmlns="http://www.w3.org/2000/svg"
 width="900.000000pt" height="922.000000pt" viewBox="0 0 900.000000 922.000000"
 preserveAspectRatio="xMidYMid meet">
<metadata>
Created by potrace 1.16, written by Peter Selinger 2001-2019
</metadata>
<g transform="translate(0.000000,922.000000) scale(0.100000,-0.100000)"
fill="#FFFFFF" stroke="none">
<path d="M215 8688 c-3 -172 -5 -1150 -3 -2173 l3 -1860 3393 -3 3392 -2 0
2175 0 2175 -3389 0 -3389 0 -7 -312z m1974 255 c18 -67 31 -165 37 -285 l7
-117 -39 -6 c-259 -44 -460 -97 -844 -220 -242 -78 -335 -102 -571 -150 -225
-45 -364 -65 -460 -65 l-76 0 -7 225 c-4 123 -4 321 0 440 l7 215 968 0 968 0
10 -37z m347 15 c-17 -61 -36 -223 -36 -310 l0 -98 -60 0 c-44 0 -60 4 -60 14
0 57 -23 281 -35 338 -8 38 -15 71 -15 74 0 2 48 4 106 4 105 0 106 0 100 -22z
m2353 -25 c25 -114 31 -210 31 -504 l0 -312 -116 7 c-294 16 -701 104 -1252
271 -388 116 -545 145 -799 145 -88 0 -105 3 -110 17 -12 30 21 343 42 411 4
9 232 12 1099 12 l1094 0 11 -47z m335 -10 c-25 -104 -37 -329 -31 -575 l5
-238 -66 0 -67 0 0 332 c0 275 -3 349 -17 426 -10 50 -18 97 -18 102 0 6 41
10 104 10 l103 0 -13 -57z m1756 -192 l0 -249 -227 -5 c-302 -7 -389 -26 -698
-157 -313 -132 -438 -172 -603 -192 -79 -10 -95 -9 -103 3 -12 19 -11 555 1
659 6 47 15 109 21 138 l10 52 800 0 799 0 0 -249z m-4485 -256 l0 -50 -57 -3
-58 -3 0 56 0 56 58 -3 57 -3 0 -50z m-265 -9 l0 -53 -112 -17 c-62 -10 -180
-35 -263 -56 -153 -39 -215 -58 -575 -173 -316 -101 -748 -187 -936 -187
l-104 0 0 50 0 50 73 0 c104 0 252 22 508 74 229 47 272 59 673 185 302 94
587 165 729 180 4 1 7 -23 7 -53z m731 44 c183 -18 281 -42 638 -151 453 -139
929 -240 1204 -256 l108 -6 -6 -51 c-4 -28 -9 -53 -11 -55 -8 -9 -277 22 -429
50 -308 55 -610 131 -970 244 -295 92 -427 116 -722 131 l-133 7 0 48 0 49
109 0 c60 0 155 -5 212 -10z m4019 -100 l0 -50 -145 0 c-168 0 -306 -13 -420
-40 -111 -26 -150 -39 -395 -140 -297 -122 -437 -164 -612 -184 -45 -5 -48 -4
-48 18 0 13 -3 37 -6 53 l-6 30 74 7 c159 16 308 59 555 162 416 174 490 191
811 193 l192 1 0 -50z m-4480 -133 c0 -195 39 -464 115 -785 26 -111 31 -148
22 -154 -15 -9 -236 -10 -341 -1 -73 6 -77 7 -72 27 25 87 91 402 111 532 21
137 45 386 45 477 0 26 1 27 60 27 l60 0 0 -123z m375 113 c231 -17 356 -43
635 -132 455 -144 986 -261 1296 -284 l91 -6 -18 -100 c-10 -55 -19 -101 -21
-102 -2 -2 -59 -8 -128 -15 -324 -33 -807 -142 -1235 -281 -240 -78 -505 -130
-657 -130 -35 0 -38 3 -47 38 -90 343 -151 725 -151 943 l0 79 48 0 c26 0 110
-5 187 -10z m-649 -137 c-9 -170 -27 -311 -67 -518 -28 -148 -75 -350 -85
-366 -9 -15 -318 68 -689 186 -411 130 -860 225 -1069 225 l-76 0 0 89 0 88
143 6 c200 8 599 90 897 183 442 138 498 155 615 184 107 27 266 56 319 59 18
1 19 -6 12 -136z m4754 -384 l0 -471 -232 4 c-221 5 -239 7 -351 37 -65 17
-168 52 -230 77 -428 175 -502 200 -670 229 -50 9 -93 18 -95 19 -7 8 -33 188
-29 200 3 8 32 15 79 20 150 14 272 53 693 224 255 104 381 128 678 131 l157
1 0 -471z m-1768 174 c3 -27 3 -51 1 -55 -5 -9 -108 -10 -140 -2 -18 5 -23 14
-23 39 0 61 5 65 85 65 l73 0 4 -47z m14 -137 c7 -31 15 -76 18 -99 l7 -42
-118 3 c-65 2 -119 5 -119 5 -1 1 5 43 14 94 l15 92 76 3 c42 2 81 3 86 3 6
-1 15 -27 21 -59z m-4731 -161 c154 -23 495 -93 609 -125 55 -16 209 -63 341
-105 132 -42 326 -99 430 -125 105 -26 190 -52 190 -56 -1 -38 -18 -84 -31
-84 -43 0 -331 79 -599 163 -350 111 -360 114 -614 167 -237 49 -370 70 -455
70 -35 0 -78 3 -95 6 -30 6 -31 9 -31 55 l0 49 78 0 c42 0 122 -7 177 -15z
m4765 -25 c4 -14 10 -37 14 -52 l6 -28 -146 0 -146 0 7 48 c4 26 9 51 12 55 2
4 59 6 126 5 119 -3 121 -3 127 -28z m-406 -7 c-21 -84 -13 -77 -100 -85 -308
-29 -718 -119 -1184 -262 -135 -41 -283 -84 -330 -96 -99 -25 -271 -50 -352
-50 l-57 0 -10 38 c-17 59 -18 59 77 66 199 16 347 48 632 136 501 156 1045
274 1278 279 52 1 52 1 46 -26z m649 12 c159 -28 272 -67 611 -210 255 -107
396 -135 673 -135 l194 0 -3 -52 -3 -53 -135 -3 c-290 -7 -467 29 -765 156
-278 118 -492 186 -608 194 -31 2 -39 6 -43 28 -3 14 -10 40 -14 58 -5 17 -5
32 -2 32 4 0 46 -7 95 -15z m-5085 -100 c94 -5 480 -77 646 -120 50 -13 217
-64 372 -113 154 -49 352 -107 440 -127 87 -21 160 -40 162 -41 3 -2 -22 -87
-95 -324 -25 -80 -60 -203 -78 -275 l-33 -130 -104 -28 c-56 -15 -193 -56
-303 -92 -289 -92 -387 -119 -605 -164 -271 -56 -370 -71 -481 -71 l-96 0 -6
227 c-9 290 -9 878 0 1100 l6 172 41 -4 c23 -2 83 -7 134 -10z m4866 -22 c2
-10 30 -119 60 -243 31 -124 89 -335 131 -470 41 -134 78 -259 81 -277 l6 -33
-431 0 c-341 0 -431 3 -431 13 0 7 25 95 56 197 92 304 149 506 189 673 l37
157 149 0 c132 0 148 -2 153 -17z m-459 -15 c-39 -172 -103 -420 -135 -523
-22 -71 -63 -210 -92 -307 l-52 -178 -208 0 -208 0 0 -156 c0 -136 -2 -155
-15 -150 -9 3 -79 22 -158 41 -78 20 -243 67 -367 104 -286 88 -359 107 -466
126 -48 8 -90 15 -95 15 -4 0 -11 15 -14 33 -4 17 -45 158 -91 312 -46 154
-84 283 -84 286 0 3 44 9 98 13 189 13 293 36 632 141 351 108 710 196 985
239 134 21 150 23 218 25 55 1 57 0 52 -21z m808 -18 c92 -24 225 -74 459
-171 279 -116 440 -149 731 -149 l157 0 0 -365 0 -365 -164 0 c-168 0 -269 -9
-388 -35 -79 -18 -229 -64 -243 -75 -6 -5 -55 30 -115 81 l-105 88 -122 1
c-72 0 -124 4 -128 10 -4 6 -17 47 -30 93 -12 45 -53 181 -89 302 -53 175
-124 440 -161 599 -4 17 1 18 58 13 34 -4 97 -16 140 -27z m-2964 -298 c6 -23
11 -47 11 -53 0 -11 -473 -9 -485 2 -3 4 -1 27 5 51 l11 44 223 0 223 -1 12
-43z m0 -85 c21 -2 27 -13 51 -97 15 -52 53 -180 84 -285 32 -104 60 -198 62
-207 5 -17 -14 -18 -296 -18 -254 0 -323 -3 -437 -21 -74 -11 -137 -18 -139
-16 -5 4 48 190 131 462 l58 191 231 -4 c127 -1 242 -4 255 -5z m216 -685 l12
-52 -266 6 c-272 7 -375 1 -564 -33 -48 -9 -90 -13 -93 -11 -3 3 -1 27 3 54 8
47 10 49 48 56 158 31 231 36 534 35 l314 -2 12 -53z m3208 -54 c160 -137 418
-376 470 -437 52 -59 86 -115 104 -167 14 -41 13 -46 -10 -96 -49 -108 -179
-250 -412 -452 -77 -66 -171 -150 -208 -186 l-69 -65 -881 0 c-485 -1 -894 1
-909 3 l-28 4 0 754 0 754 906 0 906 0 131 -112z m-2858 52 c66 -16 224 -61
350 -100 223 -69 490 -140 527 -140 15 0 18 -9 18 -59 l0 -59 -147 39 c-161
42 -288 79 -546 158 -92 28 -216 60 -275 72 -59 12 -110 24 -113 28 -4 3 -10
27 -13 54 l-7 47 43 -6 c24 -3 97 -19 163 -34z m3740 -55 l0 -50 -225 -6
c-225 -6 -298 -15 -428 -56 l-52 -17 -40 39 -41 40 53 18 c84 28 240 66 315
76 37 5 147 8 243 7 l175 -1 0 -50z m-5151 -22 c-4 -27 -9 -51 -13 -54 -3 -3
-51 -18 -106 -34 -55 -15 -203 -61 -329 -102 -388 -126 -853 -222 -1078 -223
l-58 0 0 53 0 54 138 6 c106 5 193 18 387 57 275 55 328 69 650 172 219 69
379 116 402 117 9 1 11 -12 7 -46z m1068 -1 c19 -19 30 -194 31 -502 2 -274
-1 -341 -16 -425 -10 -55 -22 -104 -27 -109 -5 -5 -130 -11 -277 -14 -271 -5
-443 7 -579 41 l-49 12 -14 70 c-16 81 -19 661 -5 805 l9 84 65 13 c180 37
262 43 559 38 162 -2 298 -8 303 -13z m272 -32 c103 -21 177 -42 406 -113 80
-25 215 -64 300 -87 85 -23 179 -48 208 -56 l52 -15 0 -218 0 -219 -35 -6
c-65 -13 -439 -117 -595 -168 -236 -75 -460 -124 -460 -101 0 5 7 54 15 109 8
54 18 150 21 214 6 108 -9 545 -22 638 -4 25 -2 42 4 42 5 0 53 -9 106 -20z
m3816 -485 c0 -365 -3 -465 -12 -466 -7 -1 -24 -3 -38 -5 -38 -5 -433 13 -452
21 -14 5 -3 22 59 93 117 136 146 183 151 250 5 89 -38 153 -230 343 -87 85
-158 158 -158 161 0 8 108 36 200 53 45 8 156 14 278 14 l202 1 0 -465z
m-5178 81 c-3 -227 0 -383 7 -436 6 -46 9 -85 8 -87 -5 -4 -190 51 -424 127
-372 121 -778 208 -1052 226 l-101 7 0 84 0 83 58 0 c103 0 241 19 472 65 258
51 395 87 660 173 249 81 342 110 360 111 14 1 15 -40 12 -353z m-1232 -216
c196 -32 485 -97 620 -138 69 -22 213 -66 320 -100 107 -34 221 -69 253 -77
45 -13 60 -22 68 -42 8 -22 13 -83 6 -83 -11 0 -184 51 -337 100 -365 116
-457 141 -675 186 -270 55 -395 74 -502 74 l-83 0 0 56 0 57 104 -7 c57 -3
159 -15 226 -26z m-105 -110 c92 -11 426 -76 570 -111 44 -11 215 -62 380
-114 165 -52 331 -102 368 -111 38 -9 70 -22 72 -28 1 -6 17 -67 35 -136 18
-69 57 -200 86 -291 30 -92 54 -174 54 -183 0 -15 -68 -16 -894 -16 l-893 1
-7 106 c-8 136 -8 499 1 721 l6 172 66 0 c36 0 107 -5 156 -10z m3665 -53 l0
-52 -154 -37 c-85 -21 -258 -70 -383 -108 -269 -83 -397 -117 -505 -135 l-79
-12 6 41 c11 64 19 73 77 80 88 11 213 43 403 103 203 63 591 172 618 172 14
1 17 -8 17 -52z m2 -329 l3 -253 50 0 c28 0 138 -2 245 -3 l195 -2 49 -157
c27 -87 51 -166 54 -177 5 -18 -23 -18 -939 -15 -519 1 -947 4 -951 6 -3 2 8
45 25 96 17 50 56 178 87 282 55 189 55 190 85 193 89 9 269 53 500 124 254
77 543 156 577 157 16 1 18 -19 20 -251z m2608 143 l235 -6 3 -54 3 -53 -228
5 c-184 4 -243 8 -306 24 -43 11 -80 23 -83 26 -3 3 12 22 33 41 34 32 42 36
73 30 19 -4 141 -10 270 -13z m-4620 -48 c87 -15 163 -18 433 -18 l328 1 -7
-31 c-17 -78 -1 -72 -219 -80 -216 -8 -350 -2 -530 23 -131 19 -121 12 -138
100 -6 29 -4 33 11 28 9 -3 64 -13 122 -23z m4316 -54 c71 -17 134 -22 317
-26 l227 -5 0 -310 0 -310 -725 4 c-399 1 -725 4 -725 6 0 6 91 295 100 318
10 26 64 34 229 34 l114 0 74 68 c139 125 278 242 289 242 5 0 50 -9 100 -21z
m-4283 -76 c83 -14 158 -17 399 -16 l298 1 -6 -26 c-14 -58 -124 -422 -144
-476 l-22 -56 -246 2 -247 3 -58 185 c-32 102 -71 233 -87 293 -33 125 -45
116 113 90z m3322 -261 c-4 -20 -27 -99 -52 -174 l-45 -138 -244 0 c-227 0
-244 1 -253 19 -15 28 -101 299 -101 319 0 16 24 17 351 14 l351 -3 -7 -37z"/>
<path d="M7411 7228 c-92 -235 -221 -575 -221 -581 0 -4 19 -7 43 -5 l42 3 28
80 c15 44 31 83 35 87 4 4 63 8 131 9 l125 2 35 -91 34 -92 48 0 47 0 -73 178
c-39 97 -96 234 -125 305 l-52 127 -44 0 c-37 0 -46 -4 -53 -22z m108 -206
c23 -62 41 -117 41 -122 0 -6 -41 -10 -95 -10 -52 0 -95 3 -95 7 0 4 21 68 47
142 34 97 49 129 54 115 4 -10 26 -70 48 -132z"/>
<path d="M7848 6907 c-62 -56 -66 -85 -8 -52 14 8 28 14 33 15 4 0 7 -52 7
-116 0 -103 2 -115 17 -112 9 2 16 6 15 11 -1 4 -2 72 -2 152 0 80 -3 145 -7
145 -5 -1 -29 -20 -55 -43z"/>
<path d="M8052 6902 c-55 -50 -60 -72 -11 -47 15 8 30 15 34 15 3 0 5 -52 5
-115 0 -108 1 -115 20 -115 19 0 20 7 20 155 0 85 -3 155 -7 155 -5 -1 -32
-22 -61 -48z"/>
<path d="M1000 4349 c-62 -49 -61 -80 3 -54 15 6 17 -1 17 -84 0 -90 0 -91 25
-91 l25 0 0 135 c0 74 -4 135 -9 135 -5 0 -32 -18 -61 -41z"/>
<path d="M3951 4354 c-12 -15 -21 -33 -21 -40 0 -22 38 -16 50 7 14 25 63 23
68 -2 2 -9 -26 -52 -62 -95 -37 -43 -66 -84 -66 -91 0 -10 24 -13 91 -13 88 0
90 1 87 23 -3 19 -9 22 -51 22 -26 0 -47 1 -47 3 0 1 18 22 41 45 42 43 59 74
59 108 0 59 -109 83 -149 33z"/>
<path d="M7083 4354 c-36 -36 -17 -55 32 -29 24 14 38 16 45 9 14 -14 3 -42
-21 -49 -27 -9 -23 -32 8 -47 31 -15 41 -42 23 -63 -18 -21 -48 -18 -62 5 -7
11 -19 20 -26 20 -24 0 -25 -31 -2 -56 68 -72 193 20 132 97 -17 20 -17 25 -5
50 37 74 -62 125 -124 63z"/>
<path d="M439 4052 l-217 -2 -7 -143 c-4 -78 -5 -425 -3 -772 l3 -630 921 0
920 0 160 140 c538 471 609 573 522 739 -36 67 -269 313 -400 422 -39 32 -112
94 -162 137 -50 44 -103 85 -117 92 -21 11 -162 14 -715 17 -379 2 -786 2
-905 0z m177 -64 c-17 -121 -25 -180 -31 -252 l-7 -78 -41 6 c-23 4 -99 21
-169 37 l-128 31 0 149 0 149 191 0 192 0 -7 -42z m1051 -28 c6 -36 15 -97 18
-137 l7 -71 -94 47 c-143 72 -227 96 -328 96 -101 -1 -135 -14 -288 -112 -57
-36 -136 -78 -175 -94 -70 -27 -72 -27 -75 -7 -4 23 14 195 29 286 l11 62 441
-2 442 -3 12 -65z m420 33 c67 -51 223 -187 223 -194 0 -9 -209 -106 -255
-118 -50 -14 -155 -14 -189 -1 -23 8 -26 15 -27 62 0 29 -8 106 -18 171 l-17
117 117 0 117 0 49 -37z m-647 -148 c41 -14 116 -47 165 -73 l90 -47 3 -47 3
-47 -108 49 c-167 74 -239 93 -336 88 -97 -5 -142 -23 -276 -110 -94 -61 -210
-117 -243 -118 -15 0 -18 9 -18 44 0 49 8 58 65 76 59 19 108 44 222 117 57
36 129 74 160 84 75 25 172 19 273 -16z m933 -101 c21 -20 37 -37 35 -39 -2
-1 -66 -32 -143 -68 -188 -88 -296 -109 -397 -81 -14 4 -18 16 -18 53 l0 48
80 -5 c69 -4 93 -1 163 22 45 15 114 44 152 65 39 21 75 39 80 40 6 0 27 -16
48 -35z m-898 -37 c50 -19 120 -48 156 -65 l67 -30 7 -185 c7 -181 0 -372 -15
-412 -5 -13 -42 -35 -106 -62 -172 -74 -211 -85 -304 -86 -103 -1 -150 16
-274 97 -102 66 -162 97 -233 120 l-53 18 0 208 0 208 33 6 c45 8 164 67 234
114 135 91 196 113 308 108 74 -3 106 -10 180 -39z m-1085 -32 c52 -13 116
-27 143 -30 l47 -7 0 -55 c0 -52 -1 -55 -22 -50 -13 3 -89 20 -170 38 l-148
33 0 53 c0 61 -20 59 150 18z m2334 -304 c58 -109 31 -183 -128 -349 -55 -57
-107 -107 -115 -112 -11 -5 -61 15 -162 65 -184 91 -285 120 -389 112 l-75 -6
-1 230 -2 230 22 -7 c37 -13 142 -7 216 11 39 9 130 47 203 84 l132 67 135
-136 c88 -87 146 -154 164 -189z m-2359 185 c55 -13 125 -29 155 -35 l55 -11
-1 -203 -2 -202 -38 -8 c-46 -10 -252 -57 -276 -64 -17 -4 -18 14 -18 271 0
214 3 276 13 276 6 0 57 -11 112 -24z m219 -507 c12 -60 9 -68 -31 -74 -49 -8
-273 -62 -295 -70 -16 -6 -18 0 -18 49 0 49 2 56 23 61 12 3 76 18 142 34 159
39 171 39 179 0z m343 -58 c37 -23 93 -57 123 -77 63 -39 165 -74 219 -74 66
0 167 28 277 75 60 26 115 49 122 52 8 4 12 -7 12 -34 0 -22 -6 -46 -12 -54
-18 -22 -203 -105 -273 -124 -80 -20 -174 -19 -239 4 -29 10 -100 48 -157 83
-124 78 -161 98 -214 113 -42 13 -52 30 -54 92 l-1 33 65 -24 c35 -13 95 -42
132 -65z m1196 50 c31 -11 118 -50 193 -87 l136 -67 -40 -40 -40 -40 -73 41
c-168 93 -293 128 -399 113 -36 -5 -66 -8 -68 -6 -2 1 1 24 5 51 7 39 13 50
33 56 44 13 191 1 253 -21z m-1513 -153 c12 -75 72 -319 85 -350 7 -17 -8 -18
-224 -18 l-231 0 0 180 0 179 53 16 c76 22 258 63 283 64 18 1 22 -8 34 -71z
m1482 33 c72 -25 260 -120 256 -130 -5 -12 -272 -247 -295 -260 -14 -7 -78
-11 -174 -11 l-151 0 6 23 c23 77 76 294 82 332 7 52 9 53 66 65 56 12 145 4
210 -19z m-1274 1 c27 -11 98 -50 158 -87 147 -93 201 -114 289 -115 90 0 164
19 289 75 55 25 101 43 103 41 4 -4 -34 -165 -62 -258 l-16 -58 -368 0 -368 0
-41 168 c-50 201 -59 252 -43 252 6 0 33 -8 59 -18z"/>
<path d="M3220 3276 c0 -610 3 -775 13 -778 6 -2 417 -4 912 -4 859 1 902 2
929 19 16 11 63 51 105 91 42 40 134 121 204 181 193 163 354 349 387 446 31
87 -33 191 -247 399 -143 140 -411 372 -463 401 -21 12 -180 14 -932 17 l-908
3 0 -775z m798 519 c-2 -141 -8 -239 -14 -245 -20 -20 -386 29 -641 85 -62 14
-115 25 -118 25 -3 0 -5 83 -5 185 l0 185 391 0 392 0 -5 -235z m265 8 c3
-126 7 -235 9 -243 2 -12 -11 -16 -67 -18 l-70 -3 3 233 c1 128 4 239 7 246 3
7 24 12 58 12 l54 0 6 -227z m748 217 c42 -12 265 -198 252 -210 -16 -16 -430
-179 -529 -209 -101 -29 -298 -60 -310 -48 -4 4 -9 112 -12 242 l-5 235 284 0
c157 0 300 -5 320 -10z m333 -269 c27 -28 28 -31 10 -37 -45 -16 -172 -66
-344 -137 -103 -42 -226 -88 -275 -102 -97 -28 -281 -59 -296 -50 -5 4 -9 28
-9 54 l0 47 101 13 c55 7 147 25 203 42 94 26 453 166 523 202 32 17 45 12 87
-32z m227 -213 c157 -163 193 -242 149 -334 -26 -53 -138 -190 -226 -276 l-59
-57 -125 48 c-69 26 -204 81 -300 120 -193 79 -348 127 -446 137 -35 4 -70 12
-78 18 -14 10 -52 193 -43 202 2 3 50 12 106 20 143 21 246 53 476 146 110 44
238 96 285 113 l85 33 40 -36 c22 -19 83 -80 136 -134z m-2213 72 c139 -30
376 -67 477 -75 150 -11 147 -9 143 -63 l-3 -47 -85 2 c-109 3 -277 26 -460
64 -222 45 -204 37 -208 97 -3 50 -2 52 20 47 13 -3 65 -14 116 -25z m925
-137 c3 -27 3 -50 1 -53 -6 -5 -157 0 -163 5 -2 2 0 25 3 50 l7 45 73 0 73 0
6 -47z m-952 17 c156 -35 359 -68 501 -81 l136 -13 -5 -36 c-3 -19 -11 -64
-17 -100 l-11 -65 -75 -7 c-169 -16 -536 -77 -622 -104 -17 -5 -18 10 -18 210
0 139 4 216 10 216 6 0 51 -9 101 -20z m976 -175 c19 -127 30 -115 -102 -115
-131 0 -121 -10 -104 103 15 105 7 98 106 95 l88 -3 12 -80z m28 -172 c4 -21
9 -46 12 -55 4 -17 -7 -18 -141 -18 -80 0 -146 2 -146 5 0 2 5 27 11 55 l11
50 123 0 124 0 6 -37z m-408 10 c-3 -10 -8 -35 -12 -55 -6 -38 -6 -38 -53 -38
-64 0 -295 -35 -472 -70 -80 -17 -151 -30 -157 -30 -9 0 -13 16 -13 49 0 59
-21 49 210 96 187 37 361 62 448 64 46 1 53 -1 49 -16z m683 -4 c100 -18 245
-68 477 -163 125 -51 246 -99 268 -106 22 -7 44 -16 48 -20 5 -4 -11 -24 -35
-43 l-44 -36 -175 75 c-220 96 -426 166 -551 189 l-96 17 -11 43 c-18 71 -24
69 119 44z m-236 -183 c9 -47 37 -159 61 -250 24 -90 45 -172 47 -181 3 -14
-25 -16 -275 -16 -154 0 -280 1 -282 3 -2 2 14 67 35 145 21 78 51 196 66 262
l28 121 151 0 152 0 17 -84z m-474 60 c0 -26 -120 -490 -129 -499 -5 -5 -130
-9 -277 -10 l-269 -1 -3 210 -2 211 167 33 c335 66 513 85 513 56z m721 -6
c118 -24 277 -79 494 -170 88 -37 169 -70 180 -74 18 -7 13 -13 -40 -59 -32
-29 -95 -84 -138 -124 l-79 -72 -181 -3 c-100 -2 -192 0 -203 4 -17 5 -27 28
-52 120 -39 139 -92 361 -92 382 0 20 -8 20 111 -4z"/>
<path d="M6220 3277 l0 -774 293 -6 c376 -9 1381 -9 1481 -1 l77 7 146 131
c81 72 188 167 237 212 101 90 241 243 288 317 58 91 45 170 -49 295 -45 58
-268 273 -412 397 -52 44 -120 103 -152 131 -32 28 -73 54 -90 58 -17 3 -434
6 -925 6 l-894 0 0 -773z m1832 744 c13 -5 53 -35 89 -67 35 -33 87 -77 113
-100 l49 -40 -189 -78 c-428 -176 -499 -190 -919 -191 -197 0 -331 5 -390 13
-188 28 -393 63 -477 83 l-88 21 0 184 0 184 894 0 c500 0 905 -4 918 -9z
m304 -259 l42 -38 -292 -117 c-449 -180 -514 -192 -983 -184 -266 4 -329 8
-463 30 -169 28 -396 73 -411 82 -5 4 -9 29 -9 57 0 42 3 49 16 44 28 -11 372
-73 509 -93 102 -14 193 -18 420 -18 416 0 487 13 860 162 132 52 244 99 250
104 13 13 16 12 61 -29z m225 -209 c166 -171 206 -260 159 -352 -27 -55 -125
-173 -212 -259 l-74 -72 -49 20 c-28 10 -95 37 -150 59 -55 22 -167 67 -250
101 -283 116 -398 139 -730 147 -255 6 -413 -4 -650 -42 -143 -23 -330 -59
-367 -71 -17 -5 -18 10 -18 210 0 119 2 216 4 216 2 0 82 -15 178 -34 344 -68
379 -71 768 -71 336 0 361 1 460 23 134 30 240 67 529 185 l234 96 26 -19 c15
-10 78 -72 142 -137z m-1105 -384 c204 -20 344 -61 646 -187 90 -38 196 -81
236 -96 39 -15 72 -29 72 -31 0 -2 -20 -20 -45 -41 -32 -26 -49 -34 -58 -26
-20 16 -394 167 -510 206 -193 65 -250 71 -632 71 -370 0 -431 -6 -775 -76
-80 -16 -151 -29 -157 -29 -9 0 -13 17 -13 50 0 49 1 49 38 59 122 32 453 86
610 100 134 12 466 12 588 0z m165 -148 c53 -11 148 -39 210 -60 155 -54 464
-184 466 -196 2 -10 -203 -206 -241 -230 -12 -7 -32 -14 -46 -15 -14 -1 -422
-2 -907 -1 l-883 1 0 208 0 208 163 32 c160 32 380 67 467 75 25 3 187 3 360
2 275 -3 327 -6 411 -24z"/>
<path d="M1038 2103 c-42 -45 -108 -145 -108 -164 0 -21 20 -29 70 -29 32 0
39 -4 42 -22 5 -39 34 -33 58 14 19 37 20 43 6 53 -11 8 -16 33 -18 90 -2 43
-8 80 -13 82 -6 2 -23 -9 -37 -24z m2 -103 c0 -38 -2 -40 -30 -40 l-30 0 26
40 c15 22 28 40 30 40 2 0 4 -18 4 -40z"/>
<path d="M3951 2070 c-16 -75 -14 -90 10 -90 11 0 29 5 40 11 26 13 49 -4 49
-36 0 -57 -27 -71 -65 -35 -13 12 -29 18 -38 14 -22 -8 -21 -16 4 -48 18 -23
27 -27 67 -24 36 2 49 9 65 31 45 60 8 147 -64 147 -19 0 -29 5 -29 14 0 11
15 16 53 18 44 3 52 6 52 23 0 18 -8 20 -67 23 l-66 3 -11 -51z"/>
<path d="M7086 2089 c-21 -25 -26 -41 -26 -88 0 -104 24 -141 93 -141 72 0
105 93 51 146 -20 20 -33 25 -60 22 -37 -4 -43 6 -19 38 13 18 15 18 45 2 40
-23 50 -23 50 1 0 31 -28 51 -70 51 -30 0 -43 -6 -64 -31z m89 -144 c0 -34 -3
-40 -22 -43 -26 -4 -45 32 -36 67 4 17 12 21 32 19 23 -3 26 -7 26 -43z"/>
<path d="M215 1663 c-8 -123 2 -1413 10 -1421 2 -2 411 -4 910 -4 776 0 909 2
928 15 28 18 80 63 294 254 230 205 344 328 390 420 33 66 35 76 25 113 -20
82 -74 153 -247 324 -93 93 -201 194 -240 225 -38 31 -105 86 -147 122 -45 38
-91 69 -109 73 -17 3 -431 6 -919 6 l-888 0 -7 -127z m401 65 c-3 -24 -13
-104 -21 -178 -9 -74 -17 -137 -18 -140 -1 -3 -77 10 -169 29 l-168 34 0 149
0 148 191 0 192 0 -7 -42z m1046 2 c20 -94 40 -312 30 -322 -25 -25 -164 -39
-431 -45 -244 -5 -514 7 -530 23 -7 6 16 243 30 322 l11 62 441 -2 441 -3 8
-35z m397 19 c19 -11 65 -48 103 -82 l68 -61 -33 -14 c-25 -11 -280 -114 -343
-139 -7 -3 -14 23 -18 74 -6 73 -20 168 -31 221 -5 22 -4 22 107 22 97 0 118
-3 147 -21z m234 -193 l38 -34 -73 -30 c-250 -104 -366 -151 -386 -157 -22 -6
-23 -5 -20 46 l3 53 120 46 c66 26 154 61 195 78 41 17 77 31 80 31 3 0 22
-15 43 -33z m243 -228 c125 -127 167 -177 192 -227 18 -35 32 -74 32 -86 0
-49 -63 -148 -157 -246 -82 -85 -97 -97 -116 -89 -12 4 -66 22 -120 39 -54 18
-171 62 -260 100 -89 38 -179 74 -199 80 -21 7 -39 16 -42 19 -2 4 -7 93 -11
198 l-7 191 89 32 c48 18 160 63 248 100 100 42 166 65 175 60 8 -4 87 -81
176 -171z m-2121 89 l160 -32 3 -53 3 -53 -38 7 c-21 4 -96 19 -168 33 l-130
27 -3 52 c-2 29 1 52 5 51 4 0 80 -14 168 -32z m1285 -87 c0 -49 -1 -49 -37
-59 -134 -34 -390 -47 -670 -32 -116 6 -226 14 -243 17 -30 6 -31 8 -28 53 l3
46 85 -5 c47 -3 227 -5 400 -4 242 1 331 5 385 16 109 24 105 25 105 -32z
m-1122 -75 c2 -2 0 -68 -4 -147 l-7 -144 -146 -28 c-80 -16 -154 -31 -163 -33
-17 -4 -18 11 -18 210 l0 214 168 -34 c92 -19 168 -36 170 -38z m1126 -32 c3
-21 6 -87 6 -147 l0 -108 -27 6 c-77 16 -243 35 -368 41 -130 6 -488 -7 -562
-21 l-33 -6 0 127 c0 127 0 127 23 121 12 -3 128 -11 257 -18 250 -12 502 -2
625 26 33 7 63 14 66 15 4 0 9 -16 13 -36z m-314 -233 c148 -9 297 -33 313
-49 5 -5 6 -29 2 -53 l-7 -45 -56 13 c-86 20 -279 34 -457 34 -163 -1 -392
-14 -439 -26 -26 -6 -26 -5 -26 49 l0 55 38 7 c32 7 257 19 432 23 30 1 120
-3 200 -8z m-815 -91 c4 -22 3 -45 -2 -50 -8 -8 -290 -69 -320 -69 -9 0 -13
15 -13 50 0 43 3 50 23 55 73 18 256 53 279 54 23 1 27 -4 33 -40z m1547 -107
c91 -39 212 -85 268 -103 l102 -31 -48 -43 c-35 -31 -53 -40 -64 -34 -8 5 -53
25 -100 43 -47 19 -161 66 -255 104 l-170 70 -3 50 -3 51 53 -18 c29 -10 128
-50 220 -89z m-667 68 c125 -10 210 -25 233 -39 12 -7 11 -26 -3 -112 -18
-114 -54 -276 -86 -382 l-20 -67 -367 2 -367 3 -23 80 c-32 112 -71 293 -86
403 -13 92 -13 92 9 98 83 21 521 29 710 14z m-860 -152 c15 -101 81 -384 100
-431 7 -16 -8 -17 -224 -17 l-231 0 0 248 0 247 148 31 c81 18 157 32 168 33
20 1 23 -8 39 -111z m1447 -9 c106 -44 226 -93 265 -107 40 -15 73 -30 73 -33
0 -9 -296 -271 -323 -286 -15 -8 -74 -12 -176 -13 l-153 0 6 23 c30 102 78
306 93 392 9 58 18 105 19 105 1 0 89 -36 196 -81z"/>
<path d="M3220 1015 l0 -775 193 -1 c105 -1 518 -1 916 0 591 1 728 4 745 15
12 7 62 51 112 97 50 46 148 133 217 192 133 113 277 269 337 364 43 68 46
133 12 200 -49 95 -225 278 -447 466 -82 69 -172 146 -199 169 l-49 43 -919 3
-918 2 0 -775z m340 740 c0 -9 -7 -45 -16 -80 -16 -63 -17 -65 -58 -76 -22 -5
-79 -21 -126 -35 -47 -14 -93 -27 -102 -30 -16 -5 -18 5 -18 115 l0 121 160 0
c138 0 160 -2 160 -15z m990 -11 c21 -54 34 -52 -302 -51 -280 1 -326 -1 -433
-20 -65 -12 -121 -20 -123 -18 -2 2 1 29 8 59 l11 56 415 0 414 0 10 -26z
m506 13 c20 -12 284 -237 284 -243 0 -1 -46 13 -102 32 -120 41 -380 109 -453
119 -67 8 -73 13 -81 63 l-7 42 169 0 c114 -1 176 -5 190 -13z m-643 -84 c174
-7 158 1 171 -78 l5 -30 -342 0 c-311 0 -353 -2 -461 -22 -66 -12 -121 -21
-122 -20 -1 1 2 25 8 54 l10 51 93 17 c193 34 336 41 638 28z m469 -49 c68
-14 209 -53 313 -85 181 -57 192 -62 239 -107 27 -26 54 -52 60 -57 6 -6 17
-18 24 -27 15 -19 20 -20 -328 87 -190 58 -381 105 -429 105 -15 0 -21 9 -26
38 -3 20 -8 45 -10 55 -4 23 10 22 157 -9z m-1369 -134 c-4 -4 -61 -24 -125
-44 -65 -20 -124 -39 -133 -42 -12 -5 -15 4 -15 49 l0 56 58 17 c31 9 93 26
137 38 l80 22 3 -44 c2 -25 0 -48 -5 -52z m1082 48 c2 -1 9 -79 15 -173 22
-310 1 -837 -34 -873 -3 -3 -151 -6 -328 -6 -294 0 -334 2 -443 22 -73 14
-124 28 -131 37 -28 38 -43 303 -33 606 4 134 10 267 14 296 l7 52 54 11 c162
34 251 39 562 36 173 -3 315 -6 317 -8z m281 -38 c55 -11 209 -54 344 -95 135
-41 267 -80 293 -87 40 -10 61 -26 121 -89 89 -93 131 -171 123 -231 -6 -48
-74 -152 -146 -225 -42 -42 -57 -50 -122 -65 -41 -10 -162 -45 -269 -78 -196
-62 -354 -102 -444 -116 -44 -6 -48 -5 -42 12 17 58 36 276 36 427 0 179 -16
519 -26 550 -7 22 9 22 132 -3z m-1369 -62 c-14 -55 -20 -616 -8 -731 7 -65
10 -121 7 -124 -3 -4 -63 10 -133 29 l-128 35 -3 366 -2 366 117 37 c65 19
123 37 128 39 22 8 27 4 22 -17z m2018 -757 c-70 -67 -162 -141 -175 -141 -8
0 -93 -25 -189 -55 -160 -50 -389 -105 -440 -105 -23 0 -23 -1 -1 80 6 22 16
26 122 47 116 23 219 52 513 143 181 56 199 59 170 31z m-2055 -115 c43 -12
46 -14 59 -64 8 -29 12 -55 9 -57 -3 -3 -70 14 -149 38 l-144 42 -3 52 -3 52
93 -26 c51 -14 113 -31 138 -37z m1840 -77 c-19 -17 -75 -68 -124 -113 -137
-125 -112 -116 -329 -116 l-187 0 6 28 c16 66 20 70 76 77 101 13 274 55 423
104 83 27 155 49 160 50 6 0 -6 -13 -25 -30z m-1544 6 c174 -31 285 -38 547
-31 288 7 268 13 246 -66 l-10 -38 -287 0 c-274 1 -351 5 -497 31 -63 11 -65
12 -75 47 -10 38 -13 72 -6 72 2 0 39 -7 82 -15z m-355 -40 l137 -39 19 -78
19 -78 -173 0 -173 0 0 121 c0 111 2 121 18 117 9 -3 78 -22 153 -43z m452
-100 c70 -10 193 -15 390 -15 311 0 299 2 277 -54 l-10 -26 -393 0 -393 0 -12
45 c-18 69 -16 78 13 71 15 -4 72 -13 128 -21z"/>
<path d="M6220 1015 l0 -775 213 -1 c248 -1 1179 -1 1449 0 l186 1 129 117
c71 65 175 158 232 207 102 88 248 244 300 320 62 91 64 170 5 257 -100 149
-605 614 -693 639 -23 6 -368 10 -928 10 l-893 0 0 -775z m380 626 c0 -72 -4
-132 -8 -135 -5 -3 -86 -2 -180 1 l-172 6 0 129 0 128 180 0 180 0 0 -129z
m870 0 c0 -72 -4 -132 -9 -135 -4 -3 -164 -3 -355 1 l-346 6 0 129 0 128 355
0 355 0 0 -129z m583 115 c18 -7 73 -49 123 -92 50 -44 113 -98 140 -121 l49
-42 -345 0 c-190 -1 -355 2 -367 5 -22 6 -23 10 -23 135 l0 129 195 0 c143 0
204 -4 228 -14z m-1455 -331 l3 -55 -181 0 -180 0 0 53 c0 30 2 56 4 58 2 2
82 3 178 2 l173 -3 3 -55z m1840 3 l61 -63 -434 3 -435 2 0 55 0 54 78 4 c42
1 210 4 372 5 l296 2 62 -62z m-968 -3 l0 -55 -355 0 -355 0 0 55 0 55 355 0
355 0 0 -55z m-870 -430 l0 -355 -180 0 -180 0 0 355 0 355 180 0 180 0 0
-355z m870 0 l0 -355 -355 0 -355 0 0 355 0 355 355 0 355 0 0 -355z m1141
266 c93 -98 149 -189 149 -242 -1 -72 -78 -186 -213 -317 l-65 -62 -426 0
-426 0 0 355 0 355 448 0 447 0 86 -89z m-2011 -701 l0 -60 -177 2 -178 3 -3
58 -3 57 181 0 180 0 0 -60z m870 0 l0 -60 -355 0 -355 0 0 60 0 60 355 0 355
0 0 -60z m920 0 l-65 -60 -347 0 -348 0 0 60 0 60 413 0 412 -1 -65 -59z
m-1790 -190 l0 -110 -180 0 -180 0 0 110 0 110 180 0 180 0 0 -110z m870 0 l0
-110 -355 0 -355 0 0 110 0 110 355 0 355 0 0 -110z m785 69 c-22 -23 -75 -72
-118 -110 l-77 -69 -215 0 -215 0 0 110 0 110 332 0 332 0 -39 -41z"/>
</g>
</svg>
