<?xml version="1.0" standalone="no"?>
<!DOCTYPE svg PUBLIC "-//W3C//DTD SVG 20010904//EN"
 "http://www.w3.org/TR/2001/REC-SVG-20010904/DTD/svg10.dtd">
<svg version="1.0" xmlns="http://www.w3.org/2000/svg"
 width="900.000000pt" height="922.000000pt" viewBox="0 0 900.000000 922.000000"
 preserveAspectRatio="xMidYMid meet">
<metadata>
Created by potrace 1.16, written by Peter Selinger 2001-2019
</metadata>
<g transform="translate(0.000000,922.000000) scale(0.100000,-0.100000)"
fill="#FFFFFF" stroke="none">
<path d="M217 8773 c-9 -291 -9 -3932 0 -4040 l6 -83 3388 0 3389 0 0 2175 0
2175 -3388 0 -3389 0 -6 -227z m1813 197 c0 -26 -25 -232 -66 -550 -25 -190
-51 -400 -59 -467 -7 -68 -16 -127 -19 -132 -3 -5 -45 -12 -93 -15 -49 -4
-128 -11 -178 -16 -49 -5 -141 -14 -202 -20 -62 -5 -161 -15 -220 -20 -114
-11 -394 -35 -578 -50 -60 -5 -169 -13 -241 -16 l-131 -7 -6 243 c-9 309 -9
646 0 878 l6 182 894 0 c611 0 893 -3 893 -10z m2966 -22 c-5 -29 -43 -327
-92 -728 -9 -69 -19 -128 -22 -132 -4 -4 -207 -25 -452 -47 -1143 -104 -1763
-159 -1965 -176 -104 -8 -202 -18 -217 -21 -28 -6 -30 -3 -42 91 -29 212 -73
535 -101 738 -19 136 -35 261 -35 277 l0 30 1466 0 1466 0 -6 -32z m1984 -328
l0 -360 -41 0 c-36 0 -236 -17 -594 -50 -60 -5 -162 -14 -225 -20 -63 -6 -164
-15 -225 -20 -234 -21 -564 -50 -656 -56 l-96 -7 -6 71 c-4 39 -14 113 -22
164 -34 213 -75 532 -75 583 l0 55 970 0 970 0 0 -360z m-4950 -324 c13 -94
20 -207 20 -308 0 -145 -1 -158 -18 -158 -16 0 -18 16 -17 218 0 119 -3 273
-7 342 -3 69 -4 109 -2 90 3 -19 14 -102 24 -184z m2992 -53 c-5 -130 -7 -143
-24 -143 -10 0 -18 3 -18 8 0 4 7 66 15 137 8 72 16 159 16 195 l2 65 7 -60
c4 -33 5 -124 2 -202z m-2937 55 c0 -101 4 -245 9 -320 7 -119 6 -138 -7 -138
-12 0 -16 41 -22 259 -7 258 -1 381 18 381 2 0 3 -82 2 -182z m2887 -96 c-8
-94 -15 -122 -26 -111 -3 2 -6 47 -9 99 -2 52 -2 71 0 42 8 -104 23 -39 24
106 l2 147 8 -90 c5 -50 5 -135 1 -193z m118 -76 c7 -7 10 11 11 50 0 46 2 54
10 36 5 -13 8 -41 7 -62 -1 -35 -4 -39 -36 -45 -19 -3 -35 -5 -37 -3 -1 2 1
30 6 63 5 33 12 101 16 150 l8 90 3 -135 c1 -74 7 -139 12 -144z m-2951 -141
c7 -55 13 -110 15 -122 2 -17 -2 -23 -15 -23 -17 0 -19 8 -19 63 0 34 -5 121
-11 192 -8 82 -9 156 -3 200 8 69 8 69 15 -70 3 -77 12 -185 18 -240z m-145
254 c8 -78 8 -187 -1 -311 -5 -81 -9 -98 -22 -98 -15 0 -15 12 -8 108 5 59 9
164 10 234 1 71 5 128 8 128 3 0 9 -28 13 -61z m4986 -69 c0 -70 0 -70 -27
-70 -16 0 -203 -11 -418 -25 -364 -23 -466 -30 -845 -55 -573 -37 -530 -40
-530 31 l0 36 88 7 c126 10 1476 130 1562 139 19 2 65 5 103 5 l67 2 0 -70z
m-4833 28 c-3 -7 -5 -2 -5 12 0 14 2 19 5 13 2 -7 2 -19 0 -25z m28 -184 c17
-114 19 -178 6 -170 -4 3 -11 43 -15 88 -9 109 -16 263 -10 218 3 -19 11 -81
19 -136z m2741 78 c-11 -10 -14 3 -8 33 l7 30 3 -28 c2 -16 1 -31 -2 -35z
m-2971 -104 c-7 -134 -15 -182 -29 -167 -2 2 2 63 10 134 7 72 13 142 13 158
1 15 4 27 7 27 3 0 2 -69 -1 -152z m5035 3 l0 -89 -102 -6 c-57 -3 -193 -8
-303 -11 -110 -3 -310 -10 -445 -15 -767 -29 -932 -33 -941 -19 -5 8 -9 38 -9
67 0 47 2 52 23 52 21 0 615 38 937 59 219 15 471 32 600 40 63 5 143 9 178
10 l62 1 0 -89z m-2105 27 c-4 -24 -10 -46 -14 -49 -3 -3 -103 -11 -221 -18
-118 -6 -273 -16 -345 -21 -71 -6 -272 -19 -445 -30 -173 -11 -452 -29 -620
-40 -346 -23 -956 -60 -982 -60 -10 0 -18 6 -18 14 0 10 26 15 97 20 54 3 397
33 763 66 366 33 890 81 1165 105 275 25 516 46 535 48 96 10 93 12 85 -35z
m-18 -128 c-3 -28 -8 -54 -11 -59 -3 -4 -117 -11 -253 -14 -136 -4 -358 -11
-493 -17 -461 -17 -1109 -40 -1642 -56 -216 -7 -218 -7 -218 13 0 24 -33 20
420 48 129 8 447 29 705 45 259 17 544 35 635 40 91 6 260 17 375 25 296 21
300 21 399 23 l89 2 -6 -50z m2123 -94 l0 -84 -772 -7 c-425 -3 -825 -5 -888
-3 l-115 3 -5 56 -5 57 195 6 c107 4 312 11 455 16 143 5 404 14 580 20 176 6
345 12 375 13 30 2 83 4 118 5 l62 2 0 -84z m-2142 -43 l-3 -48 -295 -6 c-162
-4 -743 -10 -1291 -14 -983 -8 -996 -7 -1001 12 -6 21 -92 17 982 53 661 22
937 32 1115 39 105 5 259 9 343 9 l153 2 -3 -47z m-2963 28 c-9 -8 -277 -31
-430 -37 -69 -2 -69 -2 15 7 47 5 144 15 215 23 161 17 212 19 200 7z m-5 -46
c0 -12 -20 -15 -117 -16 -65 -1 -147 -5 -183 -9 -61 -6 -62 -7 -20 -10 25 -1
107 -1 184 0 108 2 137 -1 131 -10 -6 -10 -52 -11 -199 -7 -236 8 -451 23
-470 34 -8 4 67 9 167 9 100 0 232 5 292 11 173 16 215 16 215 -2z m-767 -32
c-7 -2 -19 -2 -25 0 -7 3 -2 5 12 5 14 0 19 -2 13 -5z m5877 -119 l0 -106
-127 6 c-71 4 -297 11 -503 16 -656 17 -1114 31 -1118 34 -1 2 -6 36 -11 75
l-7 71 500 3 c276 1 673 3 884 5 l382 2 0 -106z m-2157 39 c-8 -93 6 -86 -166
-79 -151 7 -534 17 -1302 36 -871 22 -1086 28 -1089 32 -2 1 -7 13 -10 26 l-7
22 433 1 c238 1 714 5 1058 8 344 4 729 8 857 9 l232 2 -6 -57z m-3115 37
c145 0 152 -1 152 -20 0 -25 -20 -25 -352 -5 -130 7 -331 12 -445 10 -114 -2
-194 -1 -178 1 105 16 268 22 455 18 118 -2 284 -4 368 -4z m-1175 -41 c73 -5
215 -16 317 -25 102 -8 266 -21 365 -29 99 -8 227 -19 285 -25 58 -5 158 -13
223 -16 l117 -7 0 -41 c0 -23 -5 -72 -10 -111 -25 -187 -94 -721 -140 -1075
-28 -217 -52 -395 -53 -396 -1 -1 -58 -7 -127 -13 -69 -6 -278 -24 -465 -41
-430 -38 -553 -48 -691 -56 l-111 -7 -5 39 c-8 62 -10 1428 -2 1637 l7 190 79
-7 c44 -4 139 -11 211 -17z m1185 -15 c97 -5 141 -11 139 -18 -4 -13 -180 -10
-317 5 -47 5 -173 10 -280 11 -150 1 -178 3 -120 9 78 7 333 4 578 -7z m1287
-34 c1210 -33 1799 -50 1802 -54 3 -3 -13 -116 -18 -120 -2 -2 -62 0 -134 5
-71 4 -323 19 -560 33 -236 14 -504 30 -595 36 -91 5 -280 17 -420 25 -140 8
-329 20 -420 25 -91 6 -218 13 -282 17 -115 6 -118 7 -118 29 l0 24 193 -5
c105 -3 354 -10 552 -15z m-1557 3 c-10 -2 -28 -2 -40 0 -13 2 -5 4 17 4 22 1
32 -1 23 -4z m85 -10 c-7 -2 -21 -2 -30 0 -10 3 -4 5 12 5 17 0 24 -2 18 -5z
m282 -12 c33 -7 25 -9 -45 -9 -47 0 -114 4 -150 8 -60 6 -57 7 45 8 61 0 128
-3 150 -7z m865 -51 c96 -6 324 -19 505 -30 182 -11 404 -25 495 -30 179 -10
418 -25 655 -40 83 -5 219 -13 303 -16 149 -7 153 -8 148 -28 -3 -12 -6 -31
-6 -44 0 -22 -3 -22 -62 -17 -35 3 -283 23 -553 45 -269 22 -571 47 -670 55
-353 30 -535 45 -970 81 -232 19 -255 22 -255 36 0 11 50 10 410 -12z m3010
-5 c456 -9 1002 -24 1148 -31 l142 -6 0 -100 0 -100 -62 6 c-66 7 -1054 67
-1433 87 -121 7 -223 15 -228 19 -4 3 -10 36 -14 73 l-6 66 99 -4 c54 -3 214
-7 354 -10z m-3794 -37 c-3 -24 -15 -146 -27 -273 -63 -709 -116 -1265 -120
-1269 -2 -2 -24 -7 -48 -11 l-44 -7 6 38 c4 22 25 181 47 354 22 173 56 439
76 590 19 151 44 339 54 417 11 79 20 156 20 173 0 24 4 30 21 30 18 0 20 -4
15 -42z m80 -25 c-3 -38 -11 -174 -16 -303 -5 -129 -14 -338 -20 -465 -8 -175
-28 -684 -30 -737 0 -5 -30 -8 -68 -8 l-67 0 3 48 c2 26 16 187 32 357 16 171
45 490 65 710 46 508 39 465 77 465 l31 0 -7 -67z m80 53 c1 -1 4 -348 7 -773
l6 -771 -65 -7 c-36 -4 -67 -6 -69 -3 -5 4 7 350 25 733 5 121 14 335 20 475
5 140 13 279 16 307 6 51 7 53 33 46 14 -3 27 -6 27 -7z m68 -84 c3 -48 11
-173 16 -277 6 -105 15 -271 20 -370 13 -219 27 -484 36 -666 l7 -136 -53 -6
c-30 -4 -55 -5 -57 -3 -2 2 -7 351 -10 775 -6 769 -6 771 14 771 18 0 21 -9
27 -88z m76 36 c0 -23 5 -80 10 -127 6 -47 24 -223 40 -391 17 -168 43 -435
60 -595 16 -159 30 -307 30 -327 l0 -38 -58 0 -58 0 -12 223 c-26 466 -42 759
-52 962 -6 116 -13 238 -17 273 l-6 62 32 0 c30 0 31 -2 31 -42z m54 20 c2
-13 18 -124 35 -248 43 -321 107 -781 141 -1019 16 -112 27 -208 24 -213 -3
-4 -24 -8 -48 -8 l-42 0 -12 128 c-6 70 -30 305 -52 522 -47 459 -67 662 -76
778 -6 72 -5 82 9 82 9 0 19 -10 21 -22z m221 2 c72 -5 261 -21 420 -35 160
-14 427 -36 595 -50 168 -13 499 -40 735 -60 237 -19 458 -37 493 -41 l63 -6
-5 -36 c-16 -97 -76 -591 -76 -619 l0 -33 -282 -2 -283 -3 -3 -227 c-2 -226
-3 -228 -25 -233 -12 -2 -98 -11 -192 -20 -93 -8 -276 -24 -405 -35 -129 -11
-302 -27 -385 -35 -337 -33 -629 -55 -636 -48 -8 9 -39 197 -68 418 -11 83
-47 345 -81 583 -33 239 -60 448 -60 466 0 30 2 32 33 29 17 -1 91 -7 162 -13z
m3295 -145 c140 -8 334 -19 430 -25 96 -6 238 -15 315 -20 77 -5 190 -12 250
-15 61 -3 134 -8 163 -11 l52 -5 0 -65 c0 -45 -4 -64 -12 -64 -43 0 -1692 140
-1695 144 -3 2 -7 23 -10 47 l-6 42 129 -6 c71 -4 244 -13 384 -22z m-930 -62
c0 -5 -14 -150 -30 -323 -16 -173 -30 -323 -30 -332 0 -13 -8 -18 -30 -18 -28
0 -30 2 -30 38 0 22 18 173 40 338 22 164 40 300 40 302 0 1 9 2 20 2 11 0 20
-3 20 -7z m81 -163 c-1 -91 -6 -228 -11 -305 -6 -77 -10 -155 -10 -172 0 -33
0 -33 -50 -33 -41 0 -50 3 -50 18 0 16 27 303 51 545 l12 118 30 -3 31 -3 -3
-165z m101 -148 c3 -170 4 -321 1 -335 -5 -25 -9 -27 -56 -27 l-50 0 6 98 c4
53 9 189 12 302 8 272 8 270 49 270 l33 0 5 -308z m78 241 c0 -32 4 -107 9
-168 5 -60 13 -183 16 -272 l7 -163 -39 0 -40 0 -6 152 c-4 83 -7 231 -7 330
l0 178 30 0 c30 0 30 0 30 -57z m84 15 c11 -82 56 -542 56 -580 l0 -39 -42 3
-43 3 -17 275 c-9 151 -17 299 -17 328 -1 51 0 52 28 52 26 0 29 -4 35 -42z
m69 0 c4 -18 16 -103 27 -188 31 -229 50 -361 56 -397 6 -33 6 -33 -35 -33
l-41 0 0 40 c0 42 -46 521 -55 578 -5 29 -3 32 18 32 20 0 26 -6 30 -32z m312
7 c94 -8 339 -28 545 -45 206 -17 476 -40 600 -50 124 -11 235 -20 248 -20
l22 0 -2 -362 -3 -363 -160 -12 c-88 -6 -207 -16 -265 -22 -58 -6 -138 -13
-177 -17 -40 -3 -70 -10 -67 -15 3 -5 29 -7 57 -4 54 5 487 42 570 48 l47 4 0
-72 0 -71 -212 -13 c-117 -6 -241 -15 -274 -18 l-62 -6 -83 80 c-76 72 -290
255 -363 311 -28 22 -35 22 -327 22 -165 0 -299 3 -299 8 0 4 -5 34 -10 67 -5
33 -23 159 -39 280 -17 121 -33 237 -36 258 l-5 38 62 -6 c35 -3 140 -12 233
-20z m427 -672 c88 -73 305 -262 318 -278 8 -10 40 -39 70 -64 111 -93 226
-225 265 -305 l38 -76 -18 -46 c-39 -102 -245 -327 -475 -518 -47 -38 -116
-100 -153 -136 l-69 -65 -741 -1 c-408 0 -817 1 -909 4 l-168 5 0 753 0 754
904 0 904 0 34 -27z m988 -443 l0 -90 -97 -1 c-54 0 -136 -4 -183 -7 l-86 -7
-83 88 -83 87 88 1 c49 1 134 5 189 9 55 3 135 7 178 8 l77 2 0 -90z m-2850
-29 l0 -39 -72 -6 c-129 -11 -1477 -96 -1518 -96 -28 0 -40 4 -40 15 0 18 5
18 320 45 140 12 374 33 520 46 146 13 373 33 505 44 216 18 275 24 283 29 1
0 2 -17 2 -38z m0 -111 l0 -50 -53 0 c-29 0 -298 -9 -597 -20 -300 -10 -633
-22 -740 -25 -107 -4 -203 -9 -212 -11 -14 -4 -18 1 -18 24 l0 30 98 6 c53 4
203 13 332 21 210 13 666 43 995 64 66 5 137 9 158 10 l37 1 0 -50z m2850 -55
l0 -85 -145 0 c-135 0 -145 1 -145 19 0 10 -13 43 -30 74 -16 31 -30 59 -30
61 0 5 96 10 258 14 l92 2 0 -85z m-5350 -25 c0 -5 -19 -10 -42 -9 -37 1 -39
2 -18 9 36 12 60 12 60 0z m2500 -35 l0 -45 -377 0 c-208 0 -570 -3 -805 -7
l-428 -6 0 25 0 25 173 7 c94 3 384 13 642 21 259 9 488 17 510 19 22 1 95 3
163 4 l122 2 0 -45z m-2592 9 c51 -4 92 -11 92 -16 0 -6 -25 -7 -62 -3 -35 5
-101 11 -148 15 -72 6 -77 7 -29 9 31 0 97 -2 147 -5z m-114 -33 c172 -10 207
-14 195 -25 -2 -2 -71 0 -154 5 -82 4 -210 8 -284 8 -142 1 -164 6 -68 14 32
3 61 8 64 11 3 3 18 4 32 1 14 -2 111 -9 215 -14z m5556 -124 l0 -104 -157 4
c-87 2 -177 6 -201 9 l-42 5 34 41 c33 38 76 116 76 138 0 6 54 10 145 10
l145 0 0 -103z m-2850 32 l0 -61 -142 6 c-79 4 -323 11 -543 16 -220 6 -516
13 -657 17 l-258 6 0 29 0 28 128 1 c70 1 420 5 777 8 358 4 660 8 673 9 21 2
22 -2 22 -59z m-2618 41 c93 0 108 -2 108 -16 0 -14 -7 -15 -37 -10 -21 3
-191 6 -377 6 -187 0 -337 3 -334 6 10 9 317 23 427 18 57 -2 153 -4 213 -4z
m-1027 -35 c487 -39 570 -46 700 -55 77 -6 176 -15 220 -20 44 -6 105 -10 137
-10 57 0 58 0 58 -29 0 -16 -13 -130 -30 -253 -16 -122 -41 -313 -55 -423 -14
-110 -28 -215 -31 -232 l-6 -33 -618 0 -617 0 -6 107 c-9 137 -9 569 0 791 l6
172 31 0 c17 0 112 -7 211 -15z m1131 -18 c20 -19 -22 -32 -109 -33 l-92 -1
80 6 c72 5 76 7 40 13 -22 4 -130 9 -240 10 -150 1 -181 3 -125 9 98 9 436 6
446 -4z m1839 -47 c198 -5 431 -12 518 -16 l157 -7 0 -48 0 -49 -53 0 c-29 0
-160 7 -292 15 -132 8 -319 19 -415 25 -96 5 -256 15 -355 21 -99 6 -245 14
-325 17 l-145 7 -3 29 -4 29 279 -6 c153 -4 440 -11 638 -17z m-1738 -44 c5
-5 -45 -589 -76 -881 l-6 -60 -69 -3 -69 -3 6 27 c2 15 31 231 63 481 l59 455
43 -5 c24 -2 46 -7 49 -11z m131 -3 l54 -6 -6 -51 c-3 -28 -11 -168 -17 -311
-6 -143 -14 -329 -17 -414 l-7 -153 -97 -5 -98 -4 0 36 c0 20 4 78 10 128 12
115 23 236 52 545 l22 242 25 0 c15 0 50 -3 79 -7z m230 -480 l2 -463 -101 0
-102 0 6 173 c13 377 28 733 32 745 4 9 26 12 82 10 l78 -3 3 -462z m971 447
c180 -11 407 -24 506 -30 99 -6 241 -15 315 -21 74 -5 163 -9 198 -9 l62 0 0
-39 c0 -34 -2 -38 -22 -35 -13 2 -189 17 -393 34 -203 16 -424 34 -490 40
-218 18 -479 39 -567 45 -49 4 -94 13 -105 21 -16 12 -6 13 76 14 52 0 241 -9
420 -20z m-833 -2 c6 -7 19 -184 34 -463 5 -110 13 -252 16 -317 l7 -116 -76
-7 c-41 -4 -80 -4 -86 -1 -8 5 -11 147 -11 463 l0 455 55 -4 c30 -3 57 -7 61
-10z m166 -16 c3 -4 16 -99 27 -212 11 -113 29 -295 41 -405 11 -110 22 -217
26 -237 l6 -37 -92 1 c-60 0 -93 4 -95 11 -3 10 -23 347 -40 687 -3 58 -8 129
-11 159 l-6 54 69 -7 c37 -4 71 -10 75 -14z m4536 2 l62 -6 0 -99 0 -100 -32
5 c-18 3 -118 10 -223 16 -104 6 -220 13 -257 16 l-68 7 83 87 82 87 145 -4
c80 -2 173 -6 208 -9z m-4398 -14 c0 -5 9 -71 20 -147 42 -296 100 -717 100
-725 0 -4 -31 -8 -69 -8 l-69 0 -6 33 c-6 36 -86 811 -86 839 0 15 9 18 55 18
30 0 55 -4 55 -10z m580 -40 c267 -22 598 -49 735 -60 138 -11 260 -23 273
-25 22 -5 22 -6 22 -200 l0 -195 63 -1 c73 0 291 -10 294 -13 7 -7 -41 -332
-50 -338 -17 -11 -1765 -9 -1772 2 -4 7 -97 650 -119 828 l-7 54 38 -6 c21 -3
256 -24 523 -46z m3625 -150 c116 -6 220 -13 233 -16 20 -4 22 -10 22 -70 l0
-65 -57 6 c-32 3 -195 17 -362 30 -168 14 -306 27 -308 29 -2 1 26 27 62 57
l65 55 67 -7 c38 -4 163 -12 278 -19z m-115 -140 c146 -11 289 -23 318 -26
l52 -5 0 -261 0 -260 -677 4 -678 4 -22 150 c-12 82 -22 160 -22 174 l-1 25
194 0 193 0 77 70 c43 39 102 91 132 116 l55 46 57 -8 c31 -4 176 -17 322 -29z
m-1573 -204 c0 0 3 -77 5 -170 l3 -170 -104 -3 -104 -2 7 157 c10 219 0 201
104 195 48 -3 88 -6 89 -7z m-407 -10 c0 -34 -31 -320 -36 -327 -3 -5 -32 -9
-65 -9 -70 0 -67 -17 -39 195 11 83 20 151 20 153 0 1 27 2 60 2 44 0 60 -4
60 -14z m207 -8 c-3 -13 -9 -92 -13 -175 l-7 -153 -98 0 c-73 0 -99 3 -99 13
0 6 7 80 15 162 8 83 15 156 15 163 0 9 26 12 96 12 95 0 96 0 91 -22z m387
-100 c4 -68 9 -147 13 -175 l6 -53 -87 0 -86 0 0 48 c0 26 -3 104 -7 175 l-6
127 80 0 80 0 7 -122z m191 40 c4 -46 11 -112 16 -148 5 -36 9 -77 9 -92 l0
-28 -89 0 -88 0 -6 48 c-4 26 -9 104 -13 175 l-7 127 85 0 86 0 7 -82z m145
70 c0 -6 9 -76 21 -155 11 -79 19 -151 17 -159 -2 -12 -20 -17 -65 -20 -34 -2
-64 0 -67 5 -6 10 -36 268 -36 312 l0 29 65 0 c43 0 65 -4 65 -12z"/>
<path d="M7413 7233 c-4 -10 -55 -144 -115 -298 -59 -153 -108 -283 -108 -288
0 -4 19 -7 42 -5 l43 3 30 85 30 85 130 3 130 3 34 -91 33 -90 48 0 48 0 -28
68 c-15 37 -62 153 -105 257 -129 318 -111 285 -162 285 -32 0 -45 -4 -50 -17z
m106 -208 c23 -61 41 -116 41 -123 0 -9 -26 -12 -95 -12 -52 0 -95 4 -95 9 0
5 14 47 31 93 17 46 38 106 46 133 13 41 17 46 23 30 5 -11 26 -70 49 -130z"/>
<path d="M7848 6905 c-62 -56 -66 -83 -8 -50 14 8 28 14 33 15 4 0 7 -52 7
-115 0 -96 3 -115 15 -115 13 0 15 24 15 155 0 85 -3 155 -7 155 -5 -1 -29
-20 -55 -45z"/>
<path d="M8085 6943 c-26 -6 -62 -40 -68 -64 -9 -34 12 -31 47 5 31 33 36 35
64 25 62 -21 47 -78 -38 -150 -45 -38 -90 -94 -90 -113 0 -4 46 -5 102 -4 89
3 103 5 106 21 3 15 -6 17 -75 17 l-78 0 61 55 c34 30 69 70 78 89 15 31 15
39 2 70 -16 39 -64 60 -111 49z"/>
<path d="M1001 4350 c-70 -55 -69 -84 2 -55 15 6 17 -1 17 -84 0 -90 0 -91 25
-91 l25 0 0 135 c0 74 -4 135 -9 135 -5 0 -32 -18 -60 -40z"/>
<path d="M3951 4354 c-12 -15 -21 -33 -21 -40 0 -21 38 -17 50 6 12 23 58 27
66 6 8 -20 -9 -47 -71 -117 -30 -34 -55 -68 -55 -75 0 -11 20 -14 90 -14 89 0
90 0 90 25 0 23 -3 25 -51 25 l-51 0 45 46 c50 51 65 91 46 126 -17 32 -28 38
-76 38 -33 0 -46 -5 -62 -26z"/>
<path d="M7083 4356 c-22 -20 -25 -27 -16 -37 10 -10 20 -9 48 6 24 14 38 16
45 9 15 -15 1 -44 -27 -55 -29 -11 -26 -31 7 -39 32 -8 48 -35 34 -57 -16 -26
-51 -28 -64 -4 -6 12 -17 21 -26 21 -26 0 -28 -30 -4 -56 33 -34 92 -33 125 2
30 32 32 63 6 95 -17 22 -17 27 -5 44 51 69 -55 130 -123 71z"/>
<path d="M217 3918 c-4 -73 -6 -422 -7 -775 l0 -643 398 0 c218 -1 629 -2 912
-3 442 -2 519 0 542 13 57 32 504 444 595 549 64 73 123 177 123 216 0 41 -60
143 -132 225 -102 116 -517 490 -591 532 -17 10 -213 14 -928 16 l-906 3 -6
-133z m582 80 c0 -18 -10 -107 -22 -198 l-22 -165 -180 -16 c-99 -9 -215 -19
-257 -22 l-78 -7 0 220 0 220 280 0 280 0 -1 -32z m85 -50 c-3 -46 -12 -132
-18 -193 l-11 -110 -37 -3 c-26 -2 -38 1 -38 10 0 7 10 95 22 196 l22 182 34
0 33 0 -7 -82z m132 15 c-3 -38 -8 -120 -12 -185 -7 -129 -5 -128 -86 -128
-45 0 -44 -11 -23 200 8 80 15 153 15 163 0 14 9 17 56 17 l56 0 -6 -67z m132
-115 c2 -169 1 -178 -16 -178 -11 0 -41 -3 -67 -7 l-48 -6 7 139 c4 76 9 161
12 187 l6 48 52 -3 51 -3 3 -177z m106 170 c3 -7 7 -86 10 -175 l5 -161 -48
-4 -49 -3 -4 165 c-3 91 -3 171 0 178 2 7 21 12 43 12 23 0 41 -5 43 -12z
m120 -40 c3 -29 10 -99 16 -156 5 -56 10 -109 10 -117 0 -11 -13 -15 -54 -15
l-53 0 -6 83 c-4 45 -7 121 -7 170 l0 87 44 0 45 0 5 -52z m94 -15 c43 -281
43 -263 -8 -263 -22 0 -40 3 -40 8 0 4 -7 70 -15 147 -19 189 -21 175 19 175
l34 0 10 -67z m570 54 c42 -15 294 -230 280 -238 -6 -4 -49 -10 -97 -14 -47
-3 -178 -15 -291 -25 -246 -22 -381 -34 -395 -35 -10 0 -56 303 -48 318 7 12
514 7 551 -6z m383 -316 l64 -58 -75 -7 c-41 -3 -149 -11 -240 -16 -91 -6
-268 -17 -394 -25 -126 -9 -230 -14 -231 -13 -2 2 -5 26 -6 53 l-4 50 250 22
c138 12 311 29 385 36 74 8 147 15 161 16 19 1 44 -15 90 -58z m-907 -43 c3
-13 6 -35 6 -49 0 -24 -4 -27 -41 -31 -22 -2 -42 -2 -45 1 -2 2 -4 26 -4 53
l0 48 39 0 c32 0 40 -4 45 -22z m-110 -4 c3 -9 6 -31 6 -50 l0 -34 -55 0 -55
0 0 50 0 50 49 0 c35 0 51 -4 55 -16z m-129 -44 l0 -45 -52 -3 -53 -3 0 44 c0
24 3 47 7 51 4 4 28 6 53 4 l45 -3 0 -45z m-125 -10 l0 -50 -65 0 -65 0 0 44
c0 49 3 51 93 55 l37 1 0 -50z m-152 -7 l-3 -48 -63 -3 -63 -3 3 43 c3 43 3
43 48 49 87 12 81 14 78 -38z m1607 -71 l55 -59 -148 -7 c-188 -8 -683 -25
-832 -28 l-115 -2 -8 63 c-5 34 -7 65 -4 67 3 3 182 16 398 30 217 13 428 28
469 32 86 9 89 8 185 -96z m-1863 36 l-8 -33 -105 -6 c-57 -4 -168 -10 -246
-14 l-143 -8 0 36 c0 42 -9 39 220 58 74 5 169 13 210 17 83 8 87 5 72 -50z
m108 23 c0 -42 -11 -51 -61 -51 -31 0 -33 6 -23 59 6 28 10 31 45 31 39 0 39
0 39 -39z m674 -29 c2 -4 8 -36 12 -70 l7 -62 -45 0 c-43 0 -46 2 -52 31 -10
51 -7 97 7 102 20 8 65 8 71 -1z m-104 -51 c0 -27 3 -56 6 -65 5 -14 -4 -16
-60 -16 l-66 0 0 58 c0 32 3 62 7 65 3 4 30 7 60 7 l53 0 0 -49z m-140 -27 l0
-65 -52 3 -52 3 -4 39 c-2 21 -1 49 2 62 6 21 12 24 56 24 l50 0 0 -66z m-130
-4 l0 -60 -70 0 c-78 0 -77 -1 -64 83 l7 37 63 0 64 0 0 -60z m-154 34 c-3 -9
-6 -36 -6 -60 l0 -44 -65 0 -65 0 0 53 c0 30 3 57 7 60 3 4 35 7 71 7 54 0 63
-2 58 -16z m-156 -49 l0 -55 -45 0 c-49 0 -53 8 -39 79 6 28 10 31 45 31 l39
0 0 -55z m-110 -5 c-3 -27 -8 -52 -11 -54 -2 -2 -111 -7 -241 -11 l-238 -8 0
52 0 51 53 1 c28 1 95 5 147 9 52 3 140 7 196 8 l100 2 -6 -50z m1982 -61 c15
-25 31 -60 34 -78 l7 -31 -585 0 -585 0 -6 57 c-3 32 -4 60 -1 62 3 3 116 9
252 13 136 5 344 12 462 17 118 4 255 8 304 7 l89 -1 29 -46z m-1278 -11 c3
-13 6 -40 6 -60 l0 -38 -65 0 -65 0 0 60 0 60 59 0 c52 0 59 -2 65 -22z m120
-15 c13 -80 11 -83 -43 -83 l-49 0 -4 60 -3 60 46 0 c46 0 46 0 53 -37z m-404
-27 c0 -38 -4 -56 -15 -59 -14 -6 -125 -1 -129 5 -2 2 -1 24 2 50 4 51 4 51
110 56 l32 2 0 -54z m140 -1 l0 -55 -54 0 -54 0 -4 38 c-6 68 -3 72 58 72 l54
0 0 -55z m-460 28 c0 -10 -3 -35 -6 -55 -7 -37 -7 -38 -52 -38 l-45 0 7 38 c3
20 6 45 6 55 0 14 9 17 45 17 36 0 45 -3 45 -17z m155 -30 c-4 -27 -9 -51 -12
-55 -2 -5 -31 -8 -63 -8 -32 0 -61 3 -63 8 -2 4 -2 28 1 55 l4 47 70 0 70 0
-7 -47z m-269 6 c-3 -17 -6 -40 -6 -50 0 -18 -12 -19 -235 -19 l-235 0 0 45 0
44 128 4 c70 1 178 4 241 5 l114 2 -7 -31z m262 -153 l3 -66 -77 0 -77 0 7 62
c4 34 9 65 11 68 2 3 32 4 67 4 l63 -2 3 -66z m176 52 c3 -13 6 -45 6 -71 0
-58 -7 -62 -95 -52 l-65 7 0 62 c0 35 2 65 5 68 3 3 36 6 74 7 64 2 69 0 75
-21z m144 -55 l3 -73 -61 0 -60 0 0 75 0 76 58 -3 57 -3 3 -72z m156 4 c6 -45
5 -72 -2 -79 -6 -6 -33 -8 -71 -3 l-61 7 0 74 0 75 63 -3 62 -3 9 -68z m121
16 c3 -32 7 -67 8 -78 2 -17 -5 -20 -49 -23 l-51 -3 -6 53 c-13 108 -13 108
42 108 l50 0 6 -57z m1174 30 c-17 -46 -55 -106 -86 -135 l-28 -27 -330 9
c-182 5 -412 12 -512 16 l-183 6 -4 32 c-3 17 -8 52 -11 79 l-6 47 585 0 586
0 -11 -27z m-2049 -5 c0 -13 -3 -40 -6 -60 l-7 -38 -171 0 c-94 0 -195 3 -223
6 l-53 7 0 53 0 54 230 0 230 0 0 -22z m116 -15 c-3 -21 -6 -50 -6 -65 0 -27
-2 -28 -51 -28 l-51 0 6 31 c3 17 6 47 6 65 l0 34 51 0 52 0 -7 -37z m-147
-109 c10 -3 12 -18 8 -60 -3 -31 -7 -57 -9 -58 -4 -3 -314 14 -375 20 l-53 5
0 52 0 52 208 -3 c114 -2 213 -5 221 -8z m131 -64 l0 -60 -48 0 c-27 0 -51 2
-53 4 -2 2 -2 29 -1 60 l4 56 49 0 49 0 0 -60z m176 23 c-3 -21 -6 -50 -6 -65
l0 -28 -75 0 -75 0 0 58 c0 32 3 62 7 65 3 4 40 7 81 7 l75 0 -7 -37z m150 27
l34 0 0 -65 0 -65 -78 0 c-43 0 -81 2 -83 4 -2 2 -2 34 -1 71 l4 67 45 -6 c25
-3 61 -6 79 -6z m178 -37 c3 -21 6 -53 6 -70 l0 -33 -65 0 -65 0 0 70 0 70 59
0 58 0 7 -37z m161 -9 c3 -19 7 -50 10 -69 l6 -35 -75 0 -74 0 -4 59 c-5 89
-6 86 67 83 l64 -4 6 -34z m135 -8 c0 -24 3 -58 6 -75 l7 -31 -52 0 c-46 0
-53 3 -61 26 -6 14 -10 48 -10 75 l0 49 55 0 55 0 0 -44z m595 28 c182 -3 352
-9 378 -13 l48 -6 -79 -78 c-43 -43 -83 -82 -90 -86 -6 -4 -49 -4 -94 1 -90 8
-375 25 -586 35 -73 3 -135 9 -137 13 -3 4 -8 40 -11 80 l-7 73 124 -6 c68 -4
273 -10 454 -13z m-1720 -89 c194 -8 192 -8 187 -51 -5 -40 -3 -40 -197 -24
-237 19 -225 16 -225 56 l0 35 43 -5 c23 -3 110 -8 192 -11z m313 -52 l-3 -38
-52 -3 -53 -3 0 40 0 41 56 0 55 0 -3 -37z m182 -13 c0 -21 -4 -41 -9 -45 -5
-3 -41 -2 -80 1 l-71 7 0 37 c0 20 2 39 4 41 2 2 38 3 80 1 l76 -4 0 -38z
m188 -17 l3 -43 -63 0 c-97 0 -108 5 -108 52 l0 39 83 -3 82 -3 3 -42z m157
-13 c0 -37 -3 -45 -17 -44 -10 0 -40 1 -68 2 l-50 2 0 45 0 46 68 -3 67 -3 0
-45z m165 13 c0 -16 3 -38 6 -50 6 -21 3 -23 -32 -23 -22 0 -56 3 -76 6 -37 6
-38 8 -38 50 l0 44 70 0 c70 0 70 0 70 -27z m126 12 c7 -2 14 -24 16 -49 l3
-46 -56 0 -56 0 -7 38 c-11 70 -11 70 42 65 26 -3 52 -6 58 -8z m474 -25 c113
-6 238 -15 278 -18 l74 -7 -66 -56 -65 -56 -48 8 c-44 7 -278 28 -509 45 l-92
6 -6 30 c-3 17 -6 40 -6 52 0 24 -49 24 440 -4z m-1585 -1 c83 -6 152 -13 154
-15 4 -4 -28 -299 -35 -326 -5 -16 -23 -18 -190 -18 l-184 0 0 191 0 192 53
-6 c28 -4 120 -12 202 -18z m281 -81 c-3 -35 -9 -111 -13 -170 l-6 -108 -65 0
c-61 0 -64 1 -59 23 3 12 13 88 23 170 l18 147 55 0 54 0 -7 -62z m147 46 l37
-7 0 -158 0 -159 -93 0 -94 0 3 28 c2 15 8 89 15 165 l12 137 41 0 c23 0 58
-3 79 -6z m225 -20 c9 -2 12 -42 12 -154 l0 -150 -92 0 -93 0 3 147 c1 82 4
153 7 160 3 8 25 10 77 7 40 -3 79 -7 86 -10z m166 -14 c2 -3 7 -69 11 -147
l7 -143 -76 0 -76 0 0 151 0 151 65 -4 c35 -2 66 -6 69 -8z m172 -15 c6 -2 14
-40 17 -87 4 -45 9 -107 13 -135 l7 -53 -81 0 c-68 0 -81 3 -86 18 -3 9 -8 74
-12 143 l-7 127 69 -5 c38 -2 74 -6 80 -8z m160 -95 c6 -47 14 -106 17 -132
l5 -48 -63 0 -62 0 -6 38 c-4 20 -9 81 -13 135 l-7 98 58 -3 59 -3 12 -85z
m299 60 c121 -11 249 -20 285 -20 l65 -1 -65 -60 c-36 -33 -91 -83 -123 -110
l-58 -49 -180 0 c-98 0 -179 3 -179 8 0 4 -7 50 -15 102 -8 52 -15 107 -15
123 0 33 -9 33 285 7z"/>
<path d="M3220 3275 l0 -775 273 -1 c149 0 562 0 917 0 567 1 647 3 668 17 13
9 59 48 101 88 42 40 119 108 171 151 52 44 140 125 195 180 156 157 234 270
235 341 1 109 -191 319 -610 670 -47 39 -96 77 -110 85 -21 12 -180 14 -932
17 l-908 3 0 -776z m410 566 c0 -105 -4 -192 -9 -196 -8 -5 -319 -35 -363 -35
-17 0 -18 17 -18 210 l0 210 195 0 195 0 0 -189z m100 9 c0 -99 1 -183 3 -187
1 -5 -17 -11 -40 -14 l-43 -5 0 193 0 193 40 0 40 0 0 -180z m110 -4 l0 -184
-41 -4 c-22 -2 -42 -1 -44 3 -3 4 1 352 4 367 1 1 19 2 41 2 l40 0 0 -184z
m100 5 c0 -177 0 -179 -22 -185 -60 -16 -58 -23 -58 179 l0 185 40 0 40 0 0
-179z m107 3 l1 -172 -30 -6 c-61 -12 -58 -21 -58 175 l0 180 43 -3 42 -3 2
-171z m103 6 l0 -169 -34 -7 c-19 -3 -38 -4 -43 -1 -4 3 -7 82 -5 176 l3 171
39 0 40 0 0 -170z m110 6 c0 -161 0 -164 -22 -170 -13 -3 -34 -6 -47 -6 l-24
0 6 113 c4 61 7 138 7 170 l0 57 40 0 40 0 0 -164z m98 2 l-3 -163 -37 -3 -38
-3 0 165 0 166 40 0 40 0 -2 -162z m700 140 c36 -21 265 -209 259 -214 -1 -1
-83 -10 -182 -18 -99 -9 -225 -21 -280 -26 -113 -12 -443 -40 -462 -40 -10 0
-13 39 -13 160 l0 160 318 0 c312 0 320 0 360 -22z m341 -284 c42 -39 58 -59
50 -64 -6 -5 -66 -11 -133 -15 -67 -3 -289 -17 -494 -31 -205 -13 -389 -24
-408 -24 l-34 0 0 50 c0 35 4 50 13 50 8 0 60 4 118 10 57 5 235 21 394 35
242 21 396 37 426 44 3 0 34 -24 68 -55z m-1139 -100 c0 -44 0 -44 -35 -44
-19 0 -38 -1 -42 -2 -5 -2 -8 17 -8 42 0 44 1 45 35 51 19 3 38 3 43 1 4 -2 7
-23 7 -48z m98 9 c-3 -48 -3 -48 -40 -51 l-38 -3 0 50 0 51 41 0 40 0 -3 -47z
m-208 -13 l0 -50 -42 0 c-46 0 -46 0 -39 74 0 9 15 16 34 19 17 2 35 5 40 5 4
1 7 -20 7 -48z m-108 -6 c2 -25 1 -47 -1 -50 -2 -2 -22 -4 -43 -4 l-38 0 0 44
c0 46 6 52 56 55 19 1 22 -5 26 -45z m-102 -8 c0 -37 -4 -45 -22 -50 -51 -13
-58 -9 -58 38 0 46 6 52 58 55 20 1 22 -4 22 -43z m-100 -10 c0 -43 -1 -44
-37 -48 -21 -3 -39 -5 -39 -4 -1 1 -5 15 -8 32 -9 39 13 64 55 64 28 0 29 -2
29 -44z m1730 -31 c41 -41 71 -78 67 -81 -4 -4 -105 -11 -224 -15 -648 -24
-828 -29 -925 -29 l-108 0 0 65 c0 63 1 65 26 65 41 0 977 60 999 64 77 13 87
9 165 -69z m-1838 24 c2 -22 2 -42 -1 -45 -2 -2 -22 -4 -43 -4 -38 0 -38 0
-38 39 0 41 8 49 51 50 24 1 27 -3 31 -40z m-102 -8 c0 -48 2 -48 -195 -56
-82 -3 -160 -8 -172 -11 -21 -4 -23 -1 -23 36 0 35 3 40 23 41 12 0 85 7 162
14 221 20 205 22 205 -24z m630 -86 l0 -65 -42 0 -43 0 -3 45 c-3 63 10 85 53
85 l35 0 0 -65z m98 3 l-3 -63 -37 -3 -38 -3 0 65 0 66 40 0 41 0 -3 -62z
m-208 -13 l0 -65 -40 0 -40 0 0 58 c0 32 3 62 7 65 3 4 21 7 40 7 l33 0 0 -65z
m-210 -5 l0 -60 -40 0 -40 0 0 54 c0 58 5 64 53 65 27 1 27 0 27 -59z m100 10
c0 -27 1 -53 3 -57 1 -5 -17 -9 -40 -11 l-43 -3 0 60 0 61 40 0 40 0 0 -50z
m-200 -15 c0 -37 -4 -55 -12 -56 -71 -8 -68 -10 -68 53 l0 58 40 0 40 0 0 -55z
m-220 -15 l0 -60 -190 0 -190 0 0 49 0 48 183 10 c100 5 185 10 190 11 4 1 7
-25 7 -58z m110 4 l0 -55 -42 3 c-38 3 -42 5 -43 33 -5 62 4 75 46 75 l39 0 0
-56z m1973 -56 c18 -29 38 -65 45 -80 l12 -28 -690 0 -690 0 0 60 0 60 107 0
c102 0 941 27 1033 33 25 2 69 4 98 5 l52 2 33 -52z m-1448 -58 l0 -55 -40 0
c-39 0 -39 0 -43 43 -5 63 1 74 45 70 l38 -3 0 -55z m103 3 l-3 -58 -37 -3
-38 -3 0 60 0 61 40 0 41 0 -3 -57z m-520 -10 l3 -53 -40 0 c-32 0 -41 4 -41
18 0 9 -3 26 -6 38 -8 28 21 56 55 52 24 -3 26 -7 29 -55z m102 2 l0 -55 -40
0 -40 0 0 55 0 55 40 0 40 0 0 -55z m104 3 l-1 -53 -42 -3 -41 -3 0 55 0 56
43 0 42 0 -1 -52z m106 -3 l0 -55 -40 0 -40 0 0 55 0 55 40 0 40 0 0 -55z
m-420 -5 l0 -50 -39 0 c-35 0 -39 3 -42 28 -8 59 -1 72 42 72 l39 0 0 -50z
m-104 24 c-3 -9 -6 -29 -6 -45 l0 -29 -190 0 -190 0 0 45 0 45 196 0 c175 0
195 -2 190 -16z m2134 -100 c0 -20 -53 -120 -83 -155 l-22 -25 -145 7 c-80 4
-367 13 -637 20 l-493 12 0 72 c0 39 2 74 6 77 3 3 313 6 690 7 632 2 684 1
684 -15z m-2138 -59 c-2 -33 -4 -60 -5 -61 -1 0 -86 2 -189 4 l-188 4 0 59 0
59 193 -2 192 -3 -3 -60z m108 0 l0 -65 -39 0 c-38 0 -39 1 -42 38 -2 20 -3
49 -1 65 3 24 7 27 43 27 l39 0 0 -65z m108 -3 l3 -63 -43 3 -43 3 -3 49 c-4
69 1 78 45 74 l38 -3 3 -63z m102 3 l0 -65 -40 0 -40 0 0 65 0 65 40 0 40 0 0
-65z m100 -5 l0 -70 -40 0 -40 0 0 70 0 70 40 0 40 0 0 -70z m110 -1 l0 -70
-42 3 c-24 2 -42 6 -40 11 1 4 2 34 2 67 l0 60 40 0 40 0 0 -71z m110 1 l0
-70 -45 0 -45 0 0 63 c0 35 3 67 7 70 3 4 24 7 45 7 l38 0 0 -70z m100 -5 l0
-75 -40 0 -40 0 0 75 0 75 40 0 40 0 0 -75z m-736 -76 c3 -3 2 -29 -1 -59 l-5
-55 -102 6 c-55 4 -140 7 -188 8 l-88 1 0 56 0 57 190 -5 c104 -2 192 -7 194
-9z m106 -60 l0 -60 -42 3 c-48 3 -56 19 -43 84 5 32 8 34 45 34 l40 0 0 -61z
m110 -4 l0 -65 -29 0 c-39 0 -61 24 -61 65 0 55 8 65 51 65 l39 0 0 -65z m100
0 l0 -65 -40 0 -40 0 0 65 0 65 40 0 40 0 0 -65z m100 -11 l0 -65 -37 3 -38 3
-3 63 -3 62 41 0 40 0 0 -66z m110 -5 c0 -69 -1 -71 -22 -65 -13 3 -31 6 -40
6 -15 0 -18 10 -18 65 l0 65 40 0 40 0 0 -71z m108 -1 l3 -68 -39 0 c-44 0
-52 12 -52 86 0 50 5 56 50 52 l35 -3 3 -67z m102 -8 l0 -70 -40 0 -40 0 0 70
0 70 40 0 40 0 0 -70z m870 49 c223 -6 406 -12 408 -14 7 -6 -68 -83 -191
-196 -102 -94 -132 -116 -145 -109 -17 9 -155 23 -644 62 l-278 22 0 49 0 49
73 -6 c39 -3 191 -13 337 -21 146 -9 326 -20 401 -25 164 -12 259 -13 259 -2
0 4 -96 13 -212 20 -466 27 -716 42 -785 48 l-73 6 0 70 0 71 223 -6 c122 -4
404 -12 627 -18z m-1677 -88 l67 -1 0 -40 c0 -47 14 -45 -181 -30 -200 15
-199 15 -199 53 l0 32 122 -7 c68 -3 153 -7 191 -7z m177 -51 l0 -40 -40 0
-40 0 0 40 0 40 40 0 40 0 0 -40z m93 30 c13 0 17 -9 17 -40 0 -40 0 -40 -39
-40 -35 0 -39 3 -44 30 -9 42 1 63 27 56 11 -3 29 -6 39 -6z m115 -48 l3 -43
-38 3 c-37 3 -38 4 -41 46 l-3 43 38 -3 c37 -3 38 -4 41 -46z m108 22 c-3 -9
-6 -29 -6 -45 0 -24 -4 -29 -24 -29 -45 0 -56 10 -56 51 l0 39 46 0 c38 0 45
-3 40 -16z m82 10 c19 -5 22 -13 22 -51 0 -37 -3 -44 -16 -39 -9 3 -27 6 -40
6 -22 0 -24 4 -24 45 0 48 7 52 58 39z m130 -52 l3 -43 -43 3 c-39 3 -43 6
-46 31 -6 47 4 59 45 55 37 -3 38 -4 41 -46z m102 -7 l0 -45 -40 0 -40 0 0 45
0 45 40 0 40 0 0 -45z m-900 5 c85 -7 159 -15 163 -19 9 -9 6 -346 -3 -354 -3
-3 -88 -7 -190 -8 l-185 -3 -3 203 -2 203 32 -6 c18 -3 103 -10 188 -16z m270
-200 l0 -180 -42 0 -43 0 3 180 3 180 39 0 40 0 0 -180z m110 -5 l0 -175 -46
0 -46 0 6 173 c3 94 5 173 6 175 0 1 18 2 40 2 l40 0 0 -175z m100 -5 l0 -170
-40 0 -40 0 0 170 0 170 40 0 40 0 0 -170z m76 164 l29 -6 2 -131 c2 -73 -1
-147 -5 -166 -7 -31 -11 -35 -42 -35 l-35 -1 -3 173 c-3 187 -5 178 54 166z
m103 -10 l31 -6 0 -158 0 -158 -37 -5 c-21 -2 -40 -3 -43 -2 -9 5 0 335 9 335
5 0 23 -3 40 -6z m136 -169 l0 -159 -40 0 -40 0 -3 149 c-1 82 0 155 3 163 3
9 18 12 42 10 l38 -3 0 -160z m103 -2 l3 -153 -41 0 -40 0 0 156 0 155 38 -3
37 -3 3 -152z m498 112 c230 -19 425 -38 433 -41 10 -3 3 -14 -25 -37 -21 -17
-68 -59 -104 -93 -109 -102 -70 -94 -447 -94 l-333 0 0 150 0 150 28 0 c16 0
217 -16 448 -35z"/>
<path d="M6220 3276 l0 -774 113 -5 c89 -5 1553 -3 1699 2 31 1 52 16 161 114
68 61 184 166 257 232 142 127 276 279 311 352 32 67 23 122 -34 211 -49 76
-99 129 -292 308 -223 207 -363 321 -403 328 -20 3 -436 6 -924 6 l-888 0 0
-774z m400 744 c0 -5 9 -82 20 -171 22 -173 22 -179 -26 -179 -34 0 -274 -19
-326 -26 l-48 -6 0 196 0 196 190 0 c118 0 190 -4 190 -10z m149 -122 c6 -73
14 -149 16 -169 5 -34 3 -37 -26 -43 -44 -9 -79 -8 -79 3 0 4 -9 75 -20 156
-27 202 -31 185 39 185 l59 0 11 -132z m196 -25 c4 -87 8 -160 9 -163 1 -5
-155 -18 -162 -14 -4 2 -31 274 -32 312 0 21 3 22 89 22 l89 0 7 -157z m205
33 c0 -68 -3 -137 -6 -154 -6 -30 -7 -30 -86 -37 -43 -4 -81 -6 -83 -4 -1 2
-6 75 -10 162 l-7 157 96 0 96 0 0 -124z m165 -18 c-4 -79 -10 -146 -14 -149
-3 -4 -34 -9 -68 -11 l-63 -4 0 153 0 153 76 0 76 0 -7 -142z m181 40 c-10
-152 -15 -175 -40 -182 -11 -3 -45 -6 -73 -6 l-53 0 0 38 c0 22 3 87 7 145 l6
107 80 0 80 0 -7 -102z m164 95 c-2 -27 -38 -255 -41 -257 -2 -2 -31 -7 -63
-11 l-59 -7 6 39 c3 21 9 74 12 118 10 132 6 125 80 125 36 0 65 -3 65 -7z
m372 -1 c18 -7 250 -204 245 -208 -1 -1 -87 -9 -192 -18 -104 -9 -245 -21
-313 -27 -68 -6 -125 -9 -127 -7 -3 2 4 62 15 132 11 71 20 130 20 132 0 7
335 3 352 -4z m350 -299 l38 -39 -308 -17 c-169 -10 -347 -21 -395 -24 l-89
-6 7 49 c4 27 9 51 11 53 1 1 92 10 201 18 109 8 254 20 323 27 141 13 140 14
212 -61z m152 -142 l88 -89 -193 -6 c-523 -16 -814 -23 -818 -20 -1 1 1 36 5
76 l9 73 110 8 c61 4 243 16 405 26 162 10 297 19 300 20 3 0 45 -39 94 -88z
m-1894 70 c0 -5 3 -22 6 -39 6 -30 6 -30 -47 -37 -30 -3 -127 -9 -217 -13
l-162 -7 0 32 c0 39 -2 38 225 54 94 6 172 13 174 15 8 7 21 4 21 -5z m23
-148 c2 -32 3 -59 2 -61 -1 -1 -102 -6 -224 -9 l-221 -6 0 55 0 55 183 10
c100 5 198 10 218 11 l37 2 5 -57z m2003 -65 c28 -34 74 -123 74 -145 0 -10
-123 -13 -580 -13 -401 0 -580 3 -580 11 0 5 5 41 11 79 l12 69 41 6 c34 4
527 17 898 23 l96 2 28 -32z m-1991 -30 c2 -7 5 -37 8 -65 l4 -53 -202 0
c-111 0 -217 3 -234 6 -30 6 -31 8 -31 60 l0 53 153 4 c83 1 185 4 225 5 51 1
74 -2 77 -10z m19 -160 c3 -13 6 -36 6 -52 l0 -29 -97 6 c-54 4 -162 7 -240 7
l-143 0 0 45 0 45 234 0 234 0 6 -22z m2046 2 c0 -18 -38 -86 -66 -120 l-28
-32 -100 6 c-79 5 -914 36 -974 36 -13 0 -11 48 4 103 5 16 41 17 585 17 394
0 579 -3 579 -10z m-2138 -96 l106 -7 6 -50 c4 -27 5 -52 2 -55 -6 -5 -373 14
-453 24 l-43 5 0 45 0 44 138 0 c77 0 186 -3 244 -6z m1543 -55 c187 -6 374
-14 415 -18 l75 -7 -80 -81 -80 -82 -50 9 c-42 8 -791 60 -863 60 -23 0 -24 2
-17 63 4 34 10 66 13 71 3 5 58 6 126 3 67 -4 274 -12 461 -18z m-1637 -70
l213 -13 5 -25 c3 -14 7 -34 9 -43 4 -22 20 -22 -255 2 -123 11 -233 20 -242
20 -14 0 -18 8 -18 40 l0 40 38 -4 c20 -3 133 -11 250 -17z m1537 -98 c370
-25 417 -30 409 -42 -3 -5 -32 -32 -65 -59 -48 -40 -65 -48 -87 -44 -15 2
-195 20 -400 38 -205 19 -376 36 -378 39 -3 3 -2 26 2 53 l7 47 101 -6 c55 -3
241 -15 411 -26z m-1506 -7 c85 -8 164 -14 177 -14 20 0 23 -7 33 -67 12 -74
41 -317 38 -319 -1 -1 -128 -3 -282 -5 l-280 -4 -3 219 -2 218 82 -7 c46 -3
152 -13 237 -21z m305 -51 c3 -16 10 -78 16 -139 5 -62 12 -135 16 -163 l7
-51 -36 0 c-41 0 -37 -14 -62 210 -9 74 -18 143 -21 153 -4 14 1 17 35 17 35
0 40 -3 45 -27z m143 3 c2 -1 6 -82 9 -179 l7 -177 -51 0 c-35 0 -52 4 -53 13
0 6 -8 90 -18 186 l-17 173 60 -7 c34 -3 62 -8 63 -9z m126 -6 l27 0 0 -175 0
-175 -60 0 -60 0 0 88 c0 49 -3 131 -7 182 l-6 93 39 -6 c21 -4 51 -7 67 -7z
m141 -117 c-10 -168 -18 -238 -26 -235 -5 1 -21 2 -38 2 l-30 0 0 170 0 170
50 0 51 0 -7 -107z m126 55 c0 -24 -5 -98 -12 -165 -10 -105 -14 -123 -28
-123 -10 0 -32 -3 -50 -7 l-33 -6 7 119 c3 65 9 143 12 172 l6 52 49 0 49 0 0
-42z m110 19 c0 -14 -27 -221 -36 -274 -4 -30 -8 -33 -41 -33 l-36 0 7 63 c3
34 9 106 12 160 l7 97 44 0 c28 0 43 -4 43 -13z m455 -27 c187 -17 346 -32
353 -33 13 -2 -218 -220 -254 -240 -15 -9 -563 -11 -571 -3 -2 2 7 74 19 160
l21 158 46 -6 c25 -3 199 -19 386 -36z"/>
<path d="M1048 2118 c-26 -20 -118 -160 -118 -179 0 -21 20 -29 71 -29 35 0
39 -3 39 -25 0 -20 5 -25 25 -25 20 0 25 5 25 24 0 13 7 26 15 30 19 7 19 33
0 43 -10 6 -15 31 -17 87 -3 81 -11 96 -40 74z m-8 -118 c0 -38 -2 -40 -30
-40 l-30 0 26 40 c15 22 28 40 30 40 2 0 4 -18 4 -40z"/>
<path d="M3952 2070 c-21 -90 -20 -93 38 -85 46 6 51 5 59 -17 19 -51 -27 -89
-63 -50 -18 21 -56 19 -56 -2 0 -25 46 -56 81 -56 45 0 75 22 89 64 19 59 -21
116 -82 116 -18 0 -28 5 -28 14 0 11 15 16 53 18 44 3 52 6 52 23 0 18 -8 20
-66 23 l-65 3 -12 -51z"/>
<path d="M7086 2089 c-21 -25 -26 -41 -26 -88 0 -104 24 -141 93 -141 72 0
105 93 51 146 -20 20 -33 25 -60 22 -37 -4 -43 6 -19 38 13 18 15 18 45 2 42
-24 50 -23 50 7 0 29 -26 45 -73 45 -27 0 -41 -7 -61 -31z m89 -144 c0 -36 -3
-40 -25 -40 -17 0 -26 7 -30 25 -10 42 -1 61 29 58 23 -3 26 -7 26 -43z"/>
<path d="M215 1648 c-3 -79 -5 -428 -3 -775 l3 -633 917 0 916 0 49 38 c93 74
379 336 493 452 218 221 231 298 85 481 -55 68 -284 289 -395 380 -36 30 -100
84 -142 120 -45 39 -91 69 -109 73 -17 3 -431 6 -919 6 l-888 0 -7 -142z m811
90 c-6 -38 -25 -197 -29 -248 -4 -45 1 -44 -322 -70 -143 -11 -296 -25 -339
-30 -44 -6 -83 -10 -88 -10 -4 0 -8 88 -8 195 l0 195 395 0 396 0 -5 -32z m46
-126 l3 -152 -25 0 c-25 0 -25 0 -20 77 l4 78 6 -65 c5 -63 5 -64 12 -25 4 22
8 87 8 144 0 158 9 115 12 -57z m48 8 c0 -117 -3 -150 -13 -150 -10 0 -13 25
-10 118 7 226 23 248 23 32z m53 -5 c-8 -77 -17 -142 -19 -144 -11 -11 -12 13
-3 119 10 139 18 185 28 174 4 -5 1 -72 -6 -149z m884 133 c23 -13 83 -59 134
-103 l92 -80 -129 -12 c-71 -6 -181 -16 -244 -22 -327 -31 -564 -51 -613 -51
l-53 0 -13 128 c-7 70 -15 135 -18 145 -4 16 20 17 399 17 400 0 404 0 445
-22z m-856 -271 c-21 -21 -23 3 -10 90 l14 88 3 -84 c2 -48 -2 -89 -7 -94z
m1146 34 c45 -36 91 -81 82 -81 -2 0 -168 -11 -369 -25 -554 -37 -779 -49
-785 -43 -3 3 -7 25 -8 49 l-2 43 370 32 c310 28 630 58 657 63 3 0 28 -16 55
-38z m-1367 -120 c0 -54 -7 -56 -291 -74 -145 -10 -306 -20 -356 -24 l-93 -6
0 36 c0 43 -13 40 255 63 105 9 226 20 270 24 44 4 110 8 148 9 l67 1 0 -29z
m1554 -60 l78 -78 -149 -7 c-81 -3 -287 -11 -458 -17 -170 -5 -399 -13 -508
-17 -110 -4 -201 -3 -204 1 -3 5 -7 34 -10 66 l-5 58 208 12 c115 7 268 16
339 21 72 5 220 14 330 21 110 6 202 13 204 15 2 2 25 4 50 4 45 0 50 -3 125
-79z m-1574 -78 l-5 -58 -175 -6 c-96 -4 -257 -9 -357 -12 l-183 -5 0 48 0 48
103 7 c56 4 183 12 282 19 99 7 216 14 260 15 l80 1 -5 -57z m1759 -133 l20
-37 -316 -6 c-174 -4 -495 -7 -713 -7 l-398 0 -6 23 c-10 38 -7 87 7 91 6 3
302 14 657 26 354 11 647 23 650 26 7 8 73 -70 99 -116z m-1776 8 c-2 -24 -6
-49 -9 -55 -3 -10 -81 -13 -349 -13 l-345 0 0 45 0 45 68 1 c37 1 141 5 232 9
91 3 220 7 287 8 l121 2 -5 -42z m1813 -92 c8 -32 -1 -59 -39 -125 l-32 -53
-150 6 c-82 4 -332 11 -555 16 -223 5 -460 12 -526 16 l-122 6 -6 46 c-3 24
-6 58 -6 73 l0 29 518 3 c284 1 606 3 714 5 l198 2 6 -24z m-1830 -33 c-3 -21
-6 -51 -6 -66 l0 -28 -247 6 c-137 3 -290 8 -340 11 l-93 6 0 54 0 54 346 0
347 0 -7 -37z m-182 -110 l168 -6 -7 -61 c-4 -34 -8 -62 -10 -64 -1 -1 -145 7
-319 18 -174 11 -321 20 -326 20 -6 0 -10 23 -10 50 l0 50 168 0 c93 0 244 -3
336 -7z m1211 -33 c520 -12 707 -20 703 -31 -2 -5 -41 -47 -86 -93 -73 -73
-87 -83 -105 -76 -12 5 -182 19 -377 30 -195 12 -418 25 -495 30 -77 5 -158
10 -180 10 -22 0 -45 4 -51 8 -6 4 -14 38 -18 76 l-7 68 103 -6 c57 -3 288
-11 513 -16z m-1380 -100 c94 -5 203 -13 244 -16 l73 -7 -5 -35 c-4 -19 -8
-37 -11 -40 -5 -4 -444 29 -583 44 -53 6 -53 6 -53 42 l0 35 83 -7 c45 -3 159
-11 252 -16z m1005 -60 c85 -5 229 -14 320 -19 475 -29 546 -34 558 -40 10 -6
-4 -22 -45 -58 -45 -39 -64 -50 -83 -47 -14 3 -233 22 -488 43 -254 21 -465
40 -467 43 -2 2 -7 23 -11 46 l-7 42 34 0 c19 0 104 -4 189 -10z m-970 -41
c146 -12 266 -23 268 -24 2 -2 -6 -87 -19 -189 l-22 -186 -299 0 -298 0 0 216
0 215 53 -5 c28 -3 171 -15 317 -27z m326 -101 c-3 -40 -9 -124 -13 -185 l-6
-113 -30 0 -30 0 6 60 c4 33 14 116 23 185 15 113 19 125 37 125 19 0 19 -5
13 -72z m91 -45 c-4 -58 -7 -139 -7 -180 l0 -73 -40 0 -40 0 0 53 c0 28 5 109
12 180 l12 127 35 0 34 0 -6 -107z m95 -10 c2 -65 2 -146 0 -180 l-3 -63 -39
0 -40 0 0 68 c0 37 3 118 7 180 l6 112 33 0 33 0 3 -117z m81 35 c4 -40 10
-119 13 -175 l7 -103 -35 0 c-32 0 -36 3 -42 31 -3 17 -6 96 -6 175 l0 144 29
0 c28 0 28 -1 34 -72z m81 38 c3 -14 11 -71 16 -128 5 -57 12 -122 16 -145 l5
-43 -39 0 -40 0 -6 108 c-4 59 -9 135 -12 170 l-6 62 30 0 c23 0 31 -5 36 -24z
m87 -106 c9 -69 20 -144 24 -167 7 -43 7 -43 -23 -43 -34 0 -29 -23 -55 223
l-13 118 25 -3 c25 -3 26 -7 42 -128z m329 100 c475 -40 605 -50 618 -50 8 0
12 -4 10 -8 -3 -8 -157 -147 -237 -215 l-45 -37 -313 0 c-172 0 -313 2 -313 4
0 2 -9 64 -20 138 -11 73 -20 148 -20 166 0 33 0 34 38 28 20 -3 147 -15 282
-26z"/>
<path d="M3220 1015 l0 -775 919 0 920 0 58 48 c32 27 65 57 73 67 8 10 91 83
184 163 249 215 406 407 406 497 0 18 -14 60 -32 95 -39 78 -256 306 -428 448
-63 53 -142 120 -175 150 -32 30 -74 61 -92 68 -26 12 -195 14 -933 14 l-900
0 0 -775z m580 717 c0 -72 -41 -347 -53 -354 -7 -4 -22 -8 -34 -8 -28 0 -362
-28 -425 -35 l-48 -6 0 221 0 220 280 0 280 0 0 -38z m94 30 c2 -4 1 -41 -4
-82 -5 -41 -14 -122 -20 -180 -6 -60 -16 -107 -23 -112 -6 -4 -25 -8 -41 -8
-27 0 -28 2 -23 33 2 17 13 100 22 182 10 83 19 156 21 163 4 13 60 17 68 4z
m122 -139 c-4 -82 -9 -164 -12 -184 -5 -36 -6 -37 -62 -42 -31 -2 -58 -3 -60
-2 -3 3 25 292 34 343 5 31 6 32 56 32 l50 0 -6 -147z m134 -27 c0 -96 -3
-177 -8 -180 -4 -2 -32 -5 -62 -7 l-55 -3 2 35 c0 19 4 100 8 182 l7 147 54 0
54 0 0 -174z m111 92 c0 -46 4 -121 8 -168 5 -57 4 -87 -3 -92 -21 -14 -84 -9
-90 8 -3 9 -6 87 -6 175 l0 159 45 0 45 0 1 -82z m120 2 c3 -41 10 -114 14
-162 l8 -86 -47 -7 c-26 -4 -50 -5 -53 -1 -8 7 -22 177 -23 269 l0 68 48 -3
47 -3 6 -75z m90 30 c10 -66 28 -210 31 -245 3 -28 1 -30 -38 -33 l-41 -3 -12
128 c-6 70 -11 145 -11 166 0 37 1 38 32 35 30 -3 33 -6 39 -48z m576 39 c15
-5 61 -40 103 -77 41 -37 99 -87 129 -112 63 -52 61 -54 -69 -64 -47 -4 -177
-16 -290 -26 -113 -10 -246 -22 -296 -26 l-92 -6 -6 28 c-9 46 -36 245 -36
271 l0 23 264 0 c162 0 275 -4 293 -11z m376 -315 c32 -31 56 -58 55 -60 -2
-1 -77 -8 -168 -14 -596 -39 -755 -49 -757 -46 -2 2 -6 26 -10 53 l-5 50 138
12 c413 35 600 53 609 56 6 2 26 4 45 4 29 1 44 -9 93 -55z m165 -163 l71 -78
-167 -6 c-92 -4 -306 -11 -477 -17 -170 -5 -340 -12 -376 -15 l-66 -5 -7 38
c-3 20 -6 51 -6 69 0 30 2 31 48 37 26 3 200 15 387 26 187 12 376 24 420 29
44 4 85 5 91 3 6 -1 43 -38 82 -81z m-1843 32 c-4 -21 -9 -40 -12 -43 -5 -5
-347 -28 -440 -29 l-53 -1 0 35 c0 19 1 36 3 36 6 3 409 36 456 38 l53 1 -7
-37z m-13 -114 c-4 -60 -20 -69 -121 -69 -47 0 -150 -3 -228 -7 l-143 -6 0 51
0 52 43 1 c23 0 130 6 237 13 107 7 200 12 205 11 6 -1 9 -22 7 -46z m1990
-79 c14 -30 30 -65 33 -77 l6 -23 -585 0 -585 0 -6 55 c-4 31 -4 59 0 63 5 6
219 15 790 35 55 2 149 3 210 3 l109 -1 28 -55z m-2006 -46 c-3 -25 -8 -50
-12 -55 -3 -5 -106 -9 -235 -9 l-229 0 0 45 0 45 78 1 c79 2 366 14 391 17 11
2 12 -8 7 -44z m2039 -96 c-9 -28 -57 -103 -89 -140 l-24 -27 -308 9 c-662 19
-712 21 -718 36 -3 8 -8 43 -12 79 l-7 65 582 0 582 0 -6 -22z m-2055 -15 c0
-16 -3 -45 -6 -65 l-6 -37 -77 4 c-42 3 -142 8 -223 11 l-148 6 0 54 0 54 230
0 230 0 0 -27z m-141 -113 l123 0 -4 -60 c-2 -33 -6 -61 -9 -64 -2 -2 -51 0
-109 5 -58 4 -153 11 -212 14 l-108 7 0 55 0 56 98 -6 c53 -4 153 -7 221 -7z
m1431 -40 c129 -5 326 -10 437 -11 l202 -3 -19 -26 c-10 -15 -50 -56 -88 -92
l-69 -65 -69 8 c-71 8 -365 26 -579 35 -165 7 -161 6 -169 56 -4 24 -9 58 -12
76 l-6 32 68 0 c38 0 175 -5 304 -10z m-1474 -96 c73 -4 136 -9 142 -13 5 -3
7 -21 5 -38 -6 -39 9 -38 -238 -18 -99 8 -181 15 -182 15 -2 0 -3 16 -3 36 l0
36 73 -6 c39 -3 131 -8 203 -12z m1579 -93 c99 -6 216 -14 260 -18 l79 -6 -59
-54 c-57 -52 -62 -54 -105 -49 -25 2 -169 14 -320 27 -302 24 -300 23 -300 88
l0 36 132 -7 c73 -3 214 -11 313 -17z m-1595 -2 c80 -6 148 -14 151 -17 4 -4
-3 -82 -14 -174 l-21 -168 -188 0 -188 0 0 191 0 192 58 -7 c31 -3 122 -11
202 -17z m277 -35 c3 -8 0 -85 -7 -170 l-13 -154 -58 0 c-70 0 -66 -13 -43
170 23 184 17 170 70 170 31 0 46 -5 51 -16z m189 -8 c0 0 -1 -72 -4 -158 l-4
-158 -89 0 c-104 0 -95 -23 -77 188 l12 142 81 -6 c44 -4 80 -7 81 -8z m152
-12 l42 -5 0 -150 0 -149 -90 0 -90 0 0 123 c0 67 3 138 6 158 7 41 -2 39 132
23z m148 -10 l52 -7 5 -66 c4 -36 9 -101 13 -143 l6 -78 -81 0 -81 0 0 150 c0
169 -8 155 86 144z m242 -122 c7 -59 12 -122 12 -140 l0 -32 -79 0 -79 0 -6
73 c-4 39 -9 102 -12 140 l-6 67 79 0 79 0 12 -108z m109 92 c18 -5 23 -17 33
-92 6 -48 15 -106 20 -129 l8 -43 -68 0 -67 0 -11 123 c-7 67 -12 128 -12 135
0 13 57 16 97 6z m343 -24 c118 -11 242 -20 275 -20 l60 -1 -75 -70 c-41 -38
-97 -88 -123 -109 l-49 -40 -173 0 c-157 0 -174 2 -179 18 -6 17 -36 214 -36
232 0 14 56 12 300 -10z"/>
<path d="M6220 1015 l0 -775 925 0 925 0 83 78 c45 43 152 139 237 214 142
124 292 281 345 361 57 86 58 153 4 243 -57 95 -504 521 -653 622 l-40 27
-913 3 -913 2 0 -775z m490 745 c0 -18 -81 -634 -84 -637 -3 -4 -323 -33 -358
-33 l-28 0 0 340 0 340 235 0 c149 0 235 -4 235 -10z m90 3 c0 -17 -51 -541
-56 -585 l-7 -48 -44 0 -45 0 6 33 c6 34 76 585 76 599 0 4 16 8 35 8 19 0 35
-3 35 -7z m119 -105 c0 -62 -6 -203 -12 -313 l-12 -200 -69 -3 -68 -3 6 48 c3
26 15 147 26 268 11 121 22 241 26 268 l6 47 49 0 49 0 -1 -112z m141 -193 l0
-305 -32 0 c-18 0 -51 -3 -72 -7 l-39 -6 6 139 c4 76 10 217 14 312 l6 172 59
0 58 0 0 -305z m103 230 c16 -180 28 -507 21 -515 -5 -4 -30 -10 -56 -13 l-48
-5 0 304 0 304 39 0 38 0 6 -75z m125 -42 c25 -238 33 -310 42 -381 6 -41 8
-78 4 -83 -3 -5 -32 -9 -65 -9 l-59 0 0 48 c0 26 -7 151 -15 277 -8 127 -15
238 -15 248 0 14 9 17 48 17 l48 0 12 -117z m90 77 c1 -19 16 -132 32 -250 17
-118 32 -229 34 -247 4 -25 0 -32 -17 -37 -47 -12 -65 -7 -71 22 -7 30 -56
503 -56 534 0 16 6 19 38 16 34 -3 37 -5 40 -38z m675 26 c67 -29 527 -445
505 -457 -7 -4 -71 -12 -143 -18 -71 -7 -195 -18 -275 -26 -307 -30 -660 -58
-665 -53 -11 10 -81 527 -76 561 1 4 141 7 311 7 242 0 318 -3 343 -14z m571
-505 l27 -29 -33 -5 c-18 -3 -78 -9 -133 -12 -55 -3 -201 -12 -325 -20 -124
-8 -301 -19 -395 -25 -93 -5 -196 -13 -227 -16 -54 -6 -58 -5 -58 14 0 18 8
21 73 26 326 27 970 86 987 90 38 9 58 4 84 -23z m70 -82 c32 -37 32 -47 4
-53 -23 -5 -557 -23 -975 -33 -231 -6 -233 -5 -233 15 0 26 13 28 330 47 377
23 586 36 690 45 161 13 156 13 184 -21z m-2091 -76 c-13 -2 -35 -2 -50 0 -16
2 -5 4 22 4 28 0 40 -2 28 -4z m2145 -18 c25 -54 38 -51 -350 -58 -199 -4
-482 -7 -630 -7 l-268 0 0 25 c0 25 0 25 93 25 84 0 297 7 877 29 113 4 219 9
236 9 24 2 33 -4 42 -23z m-2201 -15 c39 0 63 -4 63 -11 0 -11 -182 -5 -310
12 -49 6 -35 7 59 4 68 -3 153 -5 188 -5z m62 -46 c2 -2 2 -7 -1 -10 -8 -7
-368 7 -368 15 0 7 362 2 369 -5z m2151 -24 c0 -6 -9 -29 -21 -52 l-21 -41
-186 7 c-142 5 -883 24 -1004 26 -13 0 -18 8 -18 30 l0 30 363 3 c199 1 480 3
625 5 176 1 262 -1 262 -8z m-2160 -20 c0 -6 -67 -10 -180 -10 -113 0 -180 4
-180 10 0 6 67 10 180 10 113 0 180 -4 180 -10z m0 -40 c0 -6 -66 -9 -182 -8
-150 1 -167 3 -93 8 155 11 275 11 275 0z m1740 -41 c195 -6 357 -13 358 -14
2 -2 -13 -22 -35 -45 l-38 -41 -250 15 c-234 15 -465 28 -700 42 -143 7 -155
11 -155 41 l0 25 233 -6 c127 -4 392 -11 587 -17z m-1750 1 c0 -6 -33 -11 -77
-11 l-78 -2 78 -10 c69 -8 77 -12 77 -31 0 -18 -44 -373 -66 -528 l-7 -48
-138 0 -139 0 0 310 0 310 88 1 c74 1 252 13 260 17 1 1 2 -2 2 -8z m120 -64
c0 -23 -35 -405 -46 -508 l-7 -58 -58 0 c-34 0 -59 4 -59 10 0 17 71 564 74
575 2 6 24 9 50 7 40 -4 46 -7 46 -26z m165 -141 c-1 -82 -5 -212 -9 -287 l-8
-138 -90 0 -91 0 7 63 c15 149 46 484 46 500 0 16 8 18 73 15 l72 -3 0 -150z
m909 135 c392 -20 563 -30 611 -35 28 -3 87 -5 133 -6 88 -2 95 -8 49 -42 -25
-20 -29 -20 -224 -3 -109 9 -277 24 -373 32 -385 32 -435 37 -447 46 -26 21
-13 31 29 24 23 -4 123 -11 222 -16z m-726 -5 c1 -1 5 -126 9 -278 l6 -277
-98 0 -98 0 7 113 c3 61 9 190 13 285 l6 173 76 -7 c42 -4 77 -8 79 -9z m148
-10 c7 -2 13 -61 17 -162 4 -87 10 -209 13 -270 l7 -113 -77 0 -76 0 0 123 c0
67 -3 193 -7 280 l-6 158 59 -7 c32 -3 64 -7 70 -9z m176 -70 c3 -33 14 -134
22 -225 9 -91 18 -184 21 -208 l5 -42 -84 0 -83 0 -6 98 c-4 53 -10 175 -14
270 l-6 173 69 -3 69 -3 7 -60z m90 49 c35 -6 38 -9 43 -48 3 -22 19 -135 35
-251 17 -115 30 -213 30 -217 0 -4 -29 -8 -64 -8 l-64 0 -6 47 c-11 79 -46
435 -46 460 0 25 9 27 72 17z m398 -29 c162 -13 376 -31 475 -40 98 -8 184
-15 189 -15 19 0 -12 -29 -410 -382 l-65 -58 -229 0 c-127 0 -230 3 -230 8 0
4 -16 115 -35 247 -19 132 -35 246 -35 253 0 16 -3 16 340 -13z"/>
</g>
</svg>
