<?xml version="1.0" standalone="no"?>
<!DOCTYPE svg PUBLIC "-//W3C//DTD SVG 20010904//EN"
 "http://www.w3.org/TR/2001/REC-SVG-20010904/DTD/svg10.dtd">
<svg version="1.0" xmlns="http://www.w3.org/2000/svg"
 width="900.000000pt" height="922.000000pt" viewBox="0 0 900.000000 922.000000"
 preserveAspectRatio="xMidYMid meet">
<metadata>
Created by potrace 1.16, written by Peter Selinger 2001-2019
</metadata>
<g transform="translate(0.000000,922.000000) scale(0.100000,-0.100000)"
fill="#FFFFFF" stroke="none">
<path d="M222 6828 l3 -2173 3385 0 3385 0 3 2173 2 2172 -3390 0 -3390 0 2
-2172z m6758 -3 l0 -2155 -3370 0 -3370 0 0 2155 0 2155 3370 0 3370 0 0
-2155z"/>
<path d="M1421 8561 c-12 -16 -38 -64 -58 -106 -31 -66 -36 -89 -41 -171 -3
-52 -8 -97 -13 -100 -4 -2 -54 5 -110 16 -112 23 -142 21 -206 -16 -48 -28
-93 -107 -93 -165 0 -42 20 -139 29 -139 3 0 19 19 35 41 34 49 109 99 146 99
34 0 105 -50 124 -87 7 -16 24 -61 35 -101 18 -58 32 -83 71 -124 34 -36 48
-58 45 -72 -2 -12 -6 -40 -10 -64 -8 -62 -44 -126 -119 -211 -36 -41 -63 -78
-60 -82 4 -7 504 -9 504 -2 0 2 -32 43 -72 91 -79 97 -113 163 -121 235 -4 46
-3 51 44 104 39 44 54 73 74 138 20 66 33 91 66 124 45 45 75 57 116 46 37 -9
97 -59 124 -102 l22 -35 14 26 c8 14 16 54 19 89 5 55 3 68 -23 117 -24 46
-38 60 -87 84 l-58 30 -109 -18 c-59 -10 -115 -16 -124 -12 -11 4 -15 22 -15
74 0 38 -7 93 -16 123 -16 56 -92 199 -105 199 -4 0 -17 -13 -28 -29z"/>
<path d="M5368 8527 c-51 -86 -68 -137 -78 -246 -5 -51 -11 -95 -13 -98 -3 -2
-50 5 -105 16 -59 12 -114 18 -134 14 -96 -18 -158 -85 -166 -179 -4 -52 12
-139 28 -149 4 -3 19 13 34 35 35 54 101 100 141 100 62 0 146 -90 159 -171 9
-56 31 -96 79 -146 40 -42 40 -42 35 -106 -7 -80 -36 -135 -123 -236 -36 -41
-65 -78 -65 -82 0 -4 113 -7 250 -6 179 0 250 3 250 11 0 7 -27 42 -60 80 -72
81 -108 147 -122 227 l-10 59 51 55 c32 35 55 72 62 98 26 98 44 134 86 175
33 32 51 42 76 42 44 0 105 -37 142 -85 16 -22 34 -42 40 -45 15 -8 36 99 30
149 -12 101 -91 174 -190 175 -27 1 -85 -6 -127 -13 -43 -8 -81 -11 -85 -7 -4
4 -10 45 -14 90 -4 46 -14 106 -23 134 -18 52 -90 172 -103 172 -5 0 -25 -28
-45 -63z"/>
<path d="M4136 6549 c-3 -17 -6 -366 -6 -774 l0 -743 473 -7 c259 -4 673 -6
918 -4 l447 4 88 80 c49 44 123 109 164 145 239 207 395 371 445 470 44 87 28
154 -68 278 -70 92 -581 552 -635 573 -13 5 -422 9 -921 9 l-898 0 -7 -31z
m1850 -11 c61 -47 305 -261 421 -370 173 -162 233 -238 260 -327 12 -41 11
-48 -12 -99 -47 -103 -211 -278 -460 -492 -66 -57 -144 -126 -173 -154 l-53
-51 -867 -3 c-477 -1 -886 0 -909 4 l-43 5 0 755 0 754 904 0 903 0 29 -22z"/>
<path d="M1411 6451 c-57 -88 -83 -166 -89 -263 -3 -48 -10 -92 -16 -97 -7 -5
-41 -1 -86 10 -96 23 -155 23 -205 0 -69 -32 -115 -102 -115 -175 0 -46 20
-136 29 -136 5 0 21 18 35 39 31 44 87 86 127 96 59 14 149 -70 170 -158 18
-80 48 -134 90 -168 39 -31 39 -32 33 -83 -12 -89 -40 -146 -114 -231 -38 -44
-70 -86 -70 -92 0 -10 57 -13 251 -13 l250 0 -19 28 c-11 15 -45 56 -76 91
-59 68 -90 135 -99 215 -5 47 -3 51 39 95 38 40 84 128 84 162 0 23 41 88 75
117 48 43 74 48 122 24 38 -20 105 -85 115 -113 10 -27 29 7 41 74 13 77 1
128 -40 178 -56 67 -139 83 -272 53 -91 -21 -101 -14 -101 70 0 33 -5 81 -11
106 -12 53 -60 153 -92 194 l-23 29 -33 -52z"/>
<path d="M7250 6946 l0 -306 143 0 c194 1 239 13 290 82 27 36 34 116 13 156
-20 38 -65 82 -86 82 -9 0 -3 10 16 25 41 32 58 75 51 127 -7 49 -32 86 -78
113 -29 17 -56 20 -191 24 l-158 3 0 -306z m275 224 c22 -5 48 -19 58 -31 25
-31 22 -85 -8 -114 -21 -22 -34 -25 -107 -27 -46 -1 -94 -2 -108 -2 -25 -1
-25 0 -28 92 l-3 92 78 0 c43 0 96 -5 118 -10z m61 -276 c34 -25 45 -63 33
-109 -16 -55 -43 -67 -174 -73 l-115 -5 0 107 0 108 114 -4 c97 -2 119 -6 142
-24z"/>
<path d="M7848 6905 c-62 -56 -66 -83 -8 -50 14 8 28 14 33 15 4 0 7 -52 7
-115 0 -96 3 -115 15 -115 13 0 15 24 15 155 0 85 -3 155 -7 155 -5 -1 -29
-20 -55 -45z"/>
<path d="M1001 4350 c-70 -55 -69 -84 2 -55 15 6 17 -1 17 -84 0 -90 0 -91 25
-91 l25 0 0 135 c0 74 -4 135 -9 135 -5 0 -32 -18 -60 -40z"/>
<path d="M3951 4354 c-12 -15 -21 -33 -21 -40 0 -22 38 -16 50 7 14 25 63 23
68 -2 2 -9 -26 -52 -62 -95 -37 -43 -66 -84 -66 -91 0 -10 24 -13 91 -13 88 0
90 1 87 23 -3 19 -10 22 -51 25 l-49 3 51 54 c57 60 66 100 31 135 -31 31
-102 28 -129 -6z"/>
<path d="M7086 4359 c-49 -38 -23 -67 29 -33 14 9 31 14 39 11 21 -8 9 -43
-20 -56 -32 -14 -30 -25 8 -42 36 -15 47 -41 28 -64 -18 -21 -47 -18 -64 6
-16 24 -46 20 -46 -6 0 -50 100 -75 140 -35 31 31 36 67 12 99 -17 24 -18 29
-6 46 49 66 -51 128 -120 74z"/>
<path d="M217 3908 c-9 -185 -9 -1149 0 -1295 l6 -113 911 0 c856 0 913 1 938
18 79 52 527 469 601 559 72 89 111 171 102 216 -18 80 -90 180 -227 313 -107
105 -421 379 -472 413 l-40 26 -906 3 -907 3 -6 -143z m1856 92 c79 -56 389
-335 503 -452 120 -124 184 -218 184 -274 0 -29 -52 -128 -98 -184 -20 -24
-71 -79 -112 -120 -82 -82 -452 -414 -487 -437 -18 -12 -153 -14 -919 -13
-494 0 -900 2 -902 5 -8 8 -14 1006 -7 1248 l7 257 898 -2 897 -3 36 -25z"/>
<path d="M1180 3565 l0 -235 -240 0 -240 0 0 -55 0 -55 238 -2 237 -3 3 -237
2 -238 55 0 55 0 2 238 3 237 233 3 232 2 0 55 0 55 -235 0 -235 0 0 235 0
235 -55 0 -55 0 0 -235z"/>
<path d="M3220 3275 l0 -775 920 0 920 0 92 83 c50 45 126 111 167 146 115 98
229 206 304 290 132 147 169 221 147 295 -22 73 -97 171 -235 304 -152 147
-425 385 -470 410 -27 16 -110 17 -937 20 l-908 3 0 -776z m1835 736 c49 -23
324 -261 490 -425 168 -166 226 -259 211 -339 -16 -86 -181 -274 -421 -480
-77 -67 -170 -149 -208 -184 -47 -44 -76 -63 -95 -64 -15 0 -423 0 -907 0
l-880 1 -3 755 -2 755 887 0 c847 0 890 -1 928 -19z"/>
<path d="M4192 3916 c-51 -83 -73 -153 -82 -254 -5 -52 -10 -96 -13 -98 -2 -3
-45 4 -96 16 -50 11 -105 20 -123 20 -75 -1 -154 -61 -178 -136 -14 -41 -9
-132 10 -178 l11 -30 18 30 c47 75 139 132 184 115 67 -26 109 -86 142 -204
11 -42 28 -70 60 -104 41 -42 45 -51 45 -94 0 -77 -32 -145 -115 -242 -41 -49
-75 -91 -75 -95 0 -4 112 -7 250 -7 175 0 250 3 250 11 0 6 -27 42 -60 79 -70
80 -117 169 -126 241 -6 51 -6 52 45 107 41 46 55 71 72 132 36 121 119 200
186 174 41 -15 91 -56 123 -100 l28 -40 13 38 c20 61 17 152 -7 198 -26 51
-93 96 -150 103 -24 2 -85 -3 -135 -13 -71 -14 -93 -15 -99 -6 -4 7 -10 50
-13 94 -3 46 -14 105 -25 136 -26 66 -83 161 -97 161 -6 0 -25 -24 -43 -54z"/>
<path d="M6220 3275 l0 -775 924 0 925 0 73 68 c40 37 145 130 233 208 280
247 405 400 405 497 0 48 -45 135 -105 206 -62 73 -279 277 -454 428 -118 102
-160 132 -189 137 -20 3 -436 6 -924 6 l-888 0 0 -775z m1832 746 c36 -14 358
-299 508 -450 190 -191 231 -278 179 -376 -50 -93 -188 -239 -417 -443 -252
-224 -261 -232 -290 -232 -15 0 -423 -1 -907 -1 l-880 1 -3 742 c-1 409 0 749
3 756 3 9 192 12 894 12 498 0 900 -4 913 -9z"/>
<path d="M6430 3275 l0 -535 715 -1 c393 -1 720 -2 726 -3 7 -1 11 159 12 536
l2 538 -727 0 -728 0 0 -535z m1345 505 c-3 -5 -126 -97 -273 -204 -147 -107
-285 -208 -307 -225 l-41 -30 -179 130 c-275 198 -455 331 -455 335 0 2 284 4
631 4 413 0 628 -3 624 -10z m89 -508 c-1 -251 -4 -457 -7 -457 -4 0 -159 111
-489 350 -76 55 -138 102 -138 105 0 3 75 59 167 125 334 241 465 335 466 335
1 0 1 -206 1 -458z m-1337 400 c38 -27 138 -100 223 -162 85 -62 192 -140 238
-172 45 -33 82 -63 82 -68 0 -4 -21 -24 -47 -42 -27 -19 -164 -119 -306 -221
-141 -103 -259 -187 -262 -187 -3 0 -5 203 -5 450 0 248 2 450 5 450 3 0 35
-22 72 -48z m948 -688 c144 -104 272 -197 285 -206 24 -16 -9 -17 -604 -17
-346 -1 -627 1 -625 4 3 2 144 105 314 229 l309 225 31 -23 c16 -13 147 -108
290 -212z"/>
<path d="M1053 2122 c-21 -13 -123 -165 -123 -183 0 -21 20 -29 70 -29 32 0
39 -4 42 -22 5 -36 36 -28 60 14 20 35 20 39 5 55 -11 13 -17 41 -19 92 -3 73
-11 89 -35 73z m-21 -164 c-6 -6 -19 -7 -31 -3 -20 6 -20 7 7 48 l27 41 3 -38
c2 -21 -1 -43 -6 -48z"/>
<path d="M3951 2070 c-16 -75 -14 -90 10 -90 11 0 28 4 38 10 37 19 76 -44 46
-74 -22 -21 -38 -20 -60 4 -24 27 -45 25 -45 -3 0 -61 103 -79 143 -24 45 60
8 147 -64 147 -19 0 -29 5 -29 14 0 11 15 16 53 18 45 3 52 6 55 26 3 21 0 22
-66 22 l-70 0 -11 -50z"/>
<path d="M7089 2091 c-26 -27 -29 -36 -29 -96 0 -69 17 -118 45 -129 9 -3 31
-6 49 -6 68 0 101 86 54 145 -18 23 -26 26 -60 22 -42 -6 -48 5 -24 38 14 19
15 19 50 2 46 -22 46 -22 46 8 0 52 -84 62 -131 16z m89 -142 c2 -26 -2 -38
-12 -42 -36 -14 -61 16 -50 59 5 20 12 24 33 22 22 -3 26 -8 29 -39z"/>
<path d="M216 1729 c-3 -34 -6 -383 -6 -775 l0 -714 919 0 919 0 49 38 c26 21
80 68 119 103 39 35 135 123 214 194 178 161 284 281 323 363 26 56 28 67 19
103 -19 75 -76 152 -212 289 -179 180 -490 445 -531 454 -17 3 -431 6 -919 6
l-887 0 -7 -61z m1862 11 c250 -204 558 -497 623 -593 56 -85 66 -125 45 -182
-40 -103 -160 -232 -478 -513 -104 -92 -199 -172 -211 -179 -17 -9 -235 -12
-919 -13 l-897 0 -4 108 c-6 188 -7 959 0 1185 l6 217 902 -2 902 -3 31 -25z"/>
<path d="M440 1015 l0 -535 720 0 c396 0 722 -1 725 -2 3 -2 6 238 5 532 l0
535 -725 3 -725 2 0 -535z m680 300 c0 -118 -3 -215 -6 -215 -7 0 -530 377
-564 407 l-25 22 298 1 297 0 0 -215z m670 211 c0 -2 -21 -20 -47 -39 -27 -18
-154 -111 -285 -205 -130 -95 -239 -172 -242 -172 -3 0 -6 95 -6 210 l0 210
290 0 c160 0 290 -2 290 -4z m80 -261 l0 -205 -287 0 -287 0 40 29 c21 15 149
108 283 205 134 97 245 176 247 176 2 0 4 -92 4 -205z m-1230 70 c69 -50 170
-123 225 -163 55 -39 113 -82 128 -94 l28 -23 -280 3 -281 3 0 200 0 201 28
-18 c15 -9 83 -59 152 -109z m339 -400 c-36 -28 -351 -257 -486 -353 l-33 -23
0 205 0 206 281 0 282 0 -44 -35z m891 -176 l0 -210 -32 22 c-57 40 -502 361
-527 381 -23 18 -17 18 268 18 l291 0 0 -211z m-750 -49 l0 -210 -295 0 c-162
0 -295 2 -295 4 0 2 19 16 43 31 23 16 152 109 286 207 134 98 247 178 252
178 5 0 9 -94 9 -210z m367 10 c137 -99 259 -189 273 -200 25 -20 25 -20 -262
-20 l-288 0 0 206 c0 178 2 205 15 200 8 -3 126 -86 262 -186z"/>
<path d="M3220 1015 l0 -775 913 0 c1046 0 918 -13 1052 111 44 41 127 116
185 166 125 108 280 266 338 344 51 68 76 137 68 183 -17 90 -213 309 -471
526 -77 65 -161 137 -187 160 -26 23 -62 46 -80 51 -19 5 -402 9 -925 9 l-893
0 0 -775z m1833 744 c12 -7 54 -40 92 -74 39 -34 113 -97 165 -141 133 -110
368 -351 410 -420 28 -47 35 -69 35 -110 0 -46 -6 -61 -50 -125 -61 -90 -187
-223 -320 -337 -55 -48 -143 -125 -195 -172 -52 -47 -106 -94 -120 -103 -22
-16 -96 -17 -927 -17 l-903 0 0 755 0 755 896 0 c651 0 901 -3 917 -11z"/>
<path d="M4206 1675 c-53 -81 -58 -165 -16 -285 27 -78 30 -96 30 -218 l0
-134 -36 22 c-89 56 -117 65 -199 65 -67 0 -90 -5 -140 -28 -33 -16 -87 -37
-120 -48 -42 -13 -73 -31 -102 -60 -46 -45 -93 -129 -93 -165 l0 -23 62 21
c80 27 137 80 172 158 24 53 34 64 79 87 60 30 160 41 222 24 22 -6 65 -25 95
-43 l55 -33 5 -285 c7 -383 23 -380 30 5 l5 290 55 33 c30 18 73 37 95 43 58
16 156 6 212 -22 41 -21 53 -33 80 -89 39 -79 97 -133 166 -156 29 -9 58 -19
65 -22 21 -7 14 22 -24 96 -42 86 -87 126 -169 151 -33 11 -85 31 -115 44
-109 50 -211 44 -314 -18 l-56 -34 0 137 c0 123 3 143 25 197 36 87 35 182 -2
255 -16 30 -33 56 -39 57 -6 2 -19 -8 -28 -22z"/>
<path d="M6220 1015 l0 -775 920 0 919 0 50 43 c71 60 267 236 382 342 126
117 235 245 267 313 28 63 27 105 -9 179 -49 102 -622 639 -709 663 -22 6
-372 10 -927 10 l-893 0 0 -775z m1856 729 c63 -43 206 -168 381 -333 343
-323 365 -384 213 -576 -72 -90 -379 -381 -567 -538 l-45 -37 -378 0 -378 0
43 75 c67 118 90 201 89 320 0 79 -6 115 -25 172 l-25 73 185 -183 c102 -100
185 -186 185 -192 -1 -5 -5 -17 -8 -26 -8 -20 29 -64 61 -74 30 -8 76 33 76
68 0 44 -31 69 -76 65 -38 -4 -42 -1 -220 174 -109 107 -168 171 -147 159 86
-46 242 -58 360 -26 74 19 165 62 222 104 l40 29 -44 33 c-144 106 -340 145
-510 100 -38 -9 -68 -16 -68 -14 0 2 71 79 159 171 157 166 159 167 201 167
39 0 46 4 63 33 18 31 18 33 0 65 -25 42 -76 49 -112 16 -19 -18 -22 -28 -17
-61 l6 -39 -138 -147 c-77 -81 -156 -166 -177 -190 -21 -23 -39 -41 -42 -39
-2 2 9 31 24 63 24 51 28 75 31 172 4 100 1 122 -22 195 -22 70 -110 236 -126
237 -3 0 -10 -8 -15 -19 -6 -10 -29 -52 -53 -92 -58 -101 -74 -157 -79 -275
-5 -96 3 -148 34 -231 4 -10 -18 11 -47 47 -30 36 -90 105 -132 153 -124 140
-128 147 -121 190 15 96 -120 120 -142 26 -5 -19 0 -34 21 -58 23 -28 31 -32
63 -27 36 6 36 6 175 -158 76 -90 155 -181 175 -202 l36 -37 -50 25 c-144 72
-324 71 -482 -2 -70 -32 -153 -86 -153 -100 0 -15 142 -98 210 -121 54 -19 86
-23 185 -24 80 0 131 5 153 14 18 7 34 12 37 10 2 -3 -74 -63 -169 -135 -165
-125 -174 -130 -198 -118 -21 11 -30 10 -59 -4 -29 -14 -34 -23 -37 -56 -4
-50 27 -86 74 -86 40 0 76 41 72 81 -2 25 15 41 189 173 106 80 194 146 196
146 2 0 -4 -24 -14 -54 -28 -81 -34 -206 -15 -295 16 -78 75 -208 107 -237 10
-9 19 -21 19 -26 0 -4 -232 -8 -515 -8 l-515 0 0 755 0 755 899 0 898 0 39
-26z"/>
</g>
</svg>
