<?xml version="1.0" standalone="no"?>
<!DOCTYPE svg PUBLIC "-//W3C//DTD SVG 20010904//EN"
 "http://www.w3.org/TR/2001/REC-SVG-20010904/DTD/svg10.dtd">
<svg version="1.0" xmlns="http://www.w3.org/2000/svg"
 width="900.000000pt" height="922.000000pt" viewBox="0 0 900.000000 922.000000"
 preserveAspectRatio="xMidYMid meet">
<metadata>
Created by potrace 1.16, written by Peter Selinger 2001-2019
</metadata>
<g transform="translate(0.000000,922.000000) scale(0.100000,-0.100000)"
fill="#FFFFFF" stroke="none">
<path d="M216 8788 c-8 -270 -8 -3874 1 -4025 l6 -113 3389 0 3388 0 0 2175 0
2175 -3388 0 -3389 0 -7 -212z m6764 -1963 l0 -2155 -3368 0 -3369 0 -6 113
c-9 149 -9 3826 -1 4035 l7 162 3369 0 3368 0 0 -2155z"/>
<path d="M1403 8453 l-63 -4 0 -589 0 -590 810 0 810 0 -2 593 -3 592 -745 1
c-410 0 -773 -1 -807 -3z m667 -263 l0 -250 -352 2 -353 3 -3 210 c-2 116 0
225 3 242 l6 33 232 3 c128 1 285 3 350 5 l117 2 0 -250z m818 244 l52 -7 0
-243 0 -244 -355 0 -355 0 0 243 c0 134 3 247 7 250 8 9 580 9 651 1z m-815
-841 c3 -104 4 -214 0 -246 l-6 -57 -351 2 -351 3 -3 243 -2 242 353 0 354 0
6 -187z m867 -58 l0 -245 -355 0 -355 0 0 245 0 245 355 0 355 0 0 -245z"/>
<path d="M4253 8453 c-10 -4 -13 -132 -13 -594 l0 -589 810 0 810 0 0 588 0
589 -207 7 c-223 7 -1380 7 -1400 -1z m717 -263 l0 -250 -355 0 -355 0 0 245
0 244 83 4 c45 1 205 4 355 5 l272 2 0 -250z m728 243 l142 -6 0 -244 0 -243
-355 0 -355 0 0 250 0 250 213 0 c116 0 276 -3 355 -7z m-728 -898 l0 -245
-352 2 -353 3 -3 243 -2 242 355 0 355 0 0 -245z m870 0 l0 -245 -355 0 -355
0 0 245 0 245 355 0 355 0 0 -245z"/>
<path d="M4137 6573 c-4 -3 -7 -352 -7 -774 l0 -767 283 -7 c155 -3 568 -5
918 -3 l637 3 88 80 c49 44 154 137 234 207 149 128 244 224 319 322 96 124
104 181 41 287 -22 37 -63 93 -91 123 -78 86 -390 367 -542 489 l-58 47 -908
0 c-499 0 -911 -3 -914 -7z m1945 -115 c153 -128 430 -386 482 -447 52 -61 85
-114 102 -165 13 -36 13 -46 -1 -84 -38 -99 -194 -271 -430 -475 -77 -67 -169
-148 -203 -182 l-64 -60 -906 0 -907 0 -3 745 c-1 410 0 751 3 758 3 9 194 12
905 12 l900 0 122 -102z"/>
<path d="M1377 6393 l-37 -4 2 -587 3 -587 808 -3 807 -2 0 588 0 589 -212 6
c-218 7 -1304 7 -1371 0z m698 -235 c3 -123 4 -235 0 -251 l-7 -27 -352 2
-351 3 -3 242 -2 242 147 4 c82 1 241 4 354 5 l206 2 8 -222z m583 212 l282 0
0 -245 0 -245 -352 2 -353 3 -3 235 c-1 129 0 241 3 249 4 11 20 13 73 7 37
-3 194 -6 350 -6z m-584 -827 c4 -98 4 -208 0 -246 l-7 -67 -351 2 -351 3 -3
243 -2 242 353 0 354 0 7 -177z m866 -68 l0 -245 -352 2 -353 3 -3 243 -2 242
355 0 355 0 0 -245z"/>
<path d="M7250 6946 l0 -306 143 0 c78 0 160 5 181 10 70 16 122 68 132 132
12 74 -10 125 -75 170 l-25 17 26 20 c52 42 62 134 20 190 -42 57 -73 66 -244
69 l-158 4 0 -306z m282 224 c44 -13 68 -43 68 -86 0 -60 -24 -75 -137 -87
-56 -5 -109 -7 -117 -4 -13 5 -16 24 -16 97 l0 90 83 0 c45 0 99 -5 119 -10z
m34 -265 c46 -19 67 -67 53 -119 -16 -59 -45 -70 -173 -71 l-111 0 -3 103 -3
102 101 0 c66 0 113 -5 136 -15z"/>
<path d="M7822 6930 c-36 -22 -47 -42 -38 -67 6 -13 12 -10 40 20 38 42 57 46
86 17 34 -34 24 -57 -60 -145 -44 -46 -80 -91 -80 -99 0 -13 15 -16 94 -16 67
0 97 4 105 14 16 19 -6 26 -81 26 l-61 0 66 68 c36 38 69 81 73 96 9 39 -10
75 -51 92 -45 18 -54 18 -93 -6z"/>
<path d="M998 4349 c-67 -57 -64 -82 5 -54 15 6 17 -1 17 -84 0 -90 0 -91 25
-91 l25 0 0 135 c0 102 -3 135 -12 135 -7 -1 -34 -19 -60 -41z"/>
<path d="M3951 4354 c-12 -15 -21 -33 -21 -40 0 -21 38 -17 50 6 12 23 58 27
66 6 8 -21 -12 -53 -73 -119 -75 -82 -72 -87 37 -87 89 0 90 0 90 25 0 23 -3
25 -51 25 l-52 0 52 54 c57 61 66 101 31 136 -31 31 -102 28 -129 -6z"/>
<path d="M7080 4353 c-29 -37 -11 -52 35 -28 24 14 38 16 45 9 15 -15 1 -44
-26 -55 -32 -12 -30 -23 8 -40 36 -15 47 -41 28 -64 -18 -21 -47 -18 -64 6 -9
13 -21 19 -30 16 -41 -16 6 -77 59 -77 47 0 64 8 80 41 20 38 19 63 -5 84 -17
16 -18 20 -5 38 34 48 1 97 -64 97 -31 0 -44 -6 -61 -27z"/>
<path d="M216 3967 c-4 -46 -6 -395 -6 -775 l2 -692 916 0 c700 1 922 4 938
13 12 7 80 64 150 127 383 344 487 451 537 557 26 57 28 68 19 104 -25 98
-132 227 -349 421 -245 218 -355 308 -392 318 -23 6 -361 10 -922 10 l-886 0
-7 -83z m1814 53 c74 -20 590 -492 670 -612 53 -80 66 -130 47 -179 -25 -64
-85 -145 -175 -236 -83 -85 -399 -373 -483 -440 l-41 -33 -904 0 -904 0 0 755
0 755 878 0 c538 0 891 -4 912 -10z"/>
<path d="M436 3859 c-8 -79 -8 -340 1 -842 l6 -398 756 2 756 2 56 51 c31 28
114 103 185 166 151 134 239 223 300 302 74 96 80 134 33 216 -49 86 -169 206
-492 489 l-82 73 -756 0 -756 0 -7 -61z m1444 -234 l0 -275 -712 2 -713 3 -3
160 c-2 88 0 211 3 273 l7 112 709 0 709 0 0 -275z m310 61 c81 -69 285 -274
303 -305 l18 -31 -235 0 -236 0 0 237 0 237 53 -50 c28 -28 72 -67 97 -88z
m-310 -766 l0 -270 -710 0 -710 0 0 270 0 270 710 0 710 0 0 -270z m586 213
c-66 -85 -392 -393 -416 -393 -6 0 -10 80 -10 225 l0 225 236 0 235 0 -45 -57z"/>
<path d="M3222 3274 l3 -776 912 -1 c833 0 914 2 938 17 13 9 62 51 108 94 46
42 145 130 221 195 152 131 311 308 352 393 50 102 15 179 -161 362 -104 109
-417 390 -507 456 l-42 31 -913 3 -913 3 2 -777z m1821 742 c65 -27 475 -390
593 -524 92 -105 129 -176 121 -234 -12 -93 -171 -275 -450 -517 -93 -80 -188
-163 -212 -184 l-43 -38 -903 0 -904 0 -3 756 -2 755 885 0 c726 0 892 -2 918
-14z"/>
<path d="M3760 3270 l0 -590 419 0 420 0 3 295 c2 162 2 428 0 590 l-3 295
-420 0 -419 0 0 -590z m340 325 l0 -245 -160 0 -160 0 0 245 0 245 160 0 160
0 0 -245z m480 0 l0 -245 -160 0 -160 0 0 245 0 245 160 0 160 0 0 -245z
m-480 -650 l0 -245 -160 0 -160 0 0 245 0 245 160 0 160 0 0 -245z m480 0 l0
-245 -160 0 -160 0 0 245 0 245 160 0 160 0 0 -245z"/>
<path d="M6220 3275 c0 -426 1 -775 3 -776 12 -5 1667 -9 1745 -4 l102 7 108
97 c59 54 170 154 247 222 217 193 343 348 353 434 6 57 -34 143 -105 226 -65
76 -269 268 -453 426 -117 102 -159 132 -188 137 -20 3 -436 6 -924 6 l-888 0
0 -775z m1872 720 c163 -135 336 -292 458 -415 201 -200 240 -281 189 -383
-43 -86 -190 -245 -379 -410 -63 -56 -147 -131 -187 -168 -39 -37 -83 -75 -97
-84 -23 -15 -105 -17 -928 -16 l-903 0 -3 756 -2 755 908 -2 908 -3 36 -30z"/>
<path d="M6669 3548 c-2 -145 -2 -388 0 -540 l3 -278 532 0 533 0 6 263 c3
144 3 386 1 537 l-6 275 -533 3 -533 2 -3 -262z m461 22 l0 -220 -220 0 -220
0 0 220 0 220 220 0 220 0 0 -220z m592 4 c2 -119 1 -218 -1 -220 -2 -2 -100
-4 -218 -4 l-213 0 0 220 0 220 215 0 214 0 3 -216z m-592 -604 l0 -220 -220
0 -220 0 0 220 0 220 220 0 220 0 0 -220z m590 0 l0 -220 -215 0 -215 0 0 220
0 220 215 0 215 0 0 -220z"/>
<path d="M1048 2118 c-26 -21 -118 -160 -118 -178 0 -22 20 -30 70 -30 32 0
39 -4 42 -22 5 -40 35 -33 59 13 19 38 20 44 6 54 -12 8 -17 33 -19 90 -3 80
-11 95 -40 73z m-11 -152 c-4 -10 -33 -14 -55 -7 -1 1 10 20 25 43 l28 42 3
-33 c2 -18 1 -39 -1 -45z"/>
<path d="M3951 2070 c-16 -76 -15 -90 12 -90 12 0 29 4 36 9 19 12 47 -2 53
-27 13 -47 -33 -82 -62 -47 -14 16 -46 20 -54 6 -3 -5 4 -20 15 -35 15 -19 30
-26 55 -26 48 0 73 16 90 57 25 59 -4 109 -68 119 -61 10 -49 34 18 34 52 0
55 1 52 23 -3 20 -9 22 -70 25 l-66 3 -11 -51z"/>
<path d="M7086 2089 c-21 -25 -26 -41 -26 -88 0 -105 24 -141 94 -141 67 0
100 87 54 145 -18 23 -26 26 -60 22 -42 -6 -48 5 -23 39 13 18 15 18 45 1 35
-19 50 -15 50 13 0 24 -29 40 -73 40 -27 0 -41 -7 -61 -31z m89 -144 c0 -33
-4 -41 -22 -43 -27 -4 -46 28 -37 63 5 21 12 25 33 23 23 -3 26 -7 26 -43z"/>
<path d="M216 1643 c-4 -82 -6 -430 -5 -775 l2 -628 917 0 916 0 33 25 c19 13
88 73 155 132 363 325 468 434 518 537 33 69 32 100 -7 175 -56 111 -315 365
-642 631 l-55 45 -913 3 -912 2 -7 -147z m1828 113 c50 -21 362 -294 516 -452
102 -105 144 -155 168 -203 18 -35 32 -74 32 -86 0 -66 -109 -210 -280 -371
-118 -112 -385 -346 -415 -365 -29 -18 -66 -19 -926 -19 l-896 0 -6 107 c-9
138 -9 1110 0 1276 l6 127 884 0 c734 0 889 -2 917 -14z"/>
<path d="M843 1603 l-173 -3 0 -590 0 -590 425 0 425 0 0 590 0 590 -127 0
c-71 0 -184 2 -253 3 -69 2 -203 2 -297 0z m177 -593 l0 -570 -162 2 -163 3
-3 475 c-2 261 0 517 3 568 l7 92 159 0 159 0 0 -570z m480 0 l0 -570 -160 0
-160 0 0 570 0 570 160 0 160 0 0 -570z"/>
<path d="M3220 1015 l0 -775 917 0 916 0 36 27 c20 15 70 59 111 98 42 38 141
127 221 196 144 126 258 249 317 343 77 121 48 197 -152 403 -72 75 -187 183
-256 242 -69 58 -152 130 -185 159 -33 30 -74 61 -92 68 -27 12 -190 14 -933
14 l-900 0 0 -775z m1827 744 c15 -5 61 -40 103 -77 41 -37 118 -104 170 -147
137 -115 359 -344 400 -411 28 -47 35 -69 35 -110 0 -46 -6 -61 -49 -125 -76
-113 -263 -294 -607 -586 l-50 -43 -904 0 -905 0 0 755 0 755 889 0 c603 0
899 -3 918 -11z"/>
<path d="M3340 1420 c0 -99 0 -363 0 -587 l0 -408 805 -3 805 -2 0 590 0 590
-805 0 -805 0 0 -180z m1590 -410 l0 -570 -787 2 -788 3 -2 568 -2 567 790 0
789 0 0 -570z"/>
<path d="M6220 1015 l0 -775 925 0 925 0 83 78 c45 43 152 140 238 215 200
174 337 327 375 416 21 49 12 118 -22 178 -60 103 -561 578 -676 641 l-41 22
-904 0 -903 0 0 -775z m1855 729 c100 -68 501 -436 587 -538 146 -175 133
-245 -92 -480 -65 -69 -136 -134 -446 -408 l-65 -58 -909 0 -910 0 0 755 0
755 899 0 898 0 38 -26z"/>
<path d="M6748 1602 l-368 -2 0 -590 0 -590 808 0 807 0 0 588 c0 580 0 587
-20 589 -42 4 -876 8 -1227 5z m360 -264 l-3 -243 -352 -3 -353 -2 0 245 0
245 355 0 355 0 -2 -242z m864 1 c2 -132 1 -243 -1 -245 -2 -2 -161 -4 -352
-4 l-348 0 -3 213 c-2 116 -1 227 1 245 l3 32 349 0 348 0 3 -241z m-862 -616
c0 -115 -3 -225 -6 -245 l-7 -38 -348 0 -349 0 0 245 0 245 355 0 355 0 0
-207z m866 170 c-3 -21 -6 -131 -6 -245 l0 -208 -349 0 -348 0 -6 83 c-9 105
-9 335 -1 376 l7 31 355 0 355 0 -7 -37z"/>
</g>
</svg>
