<?xml version="1.0" standalone="no"?>
<!DOCTYPE svg PUBLIC "-//W3C//DTD SVG 20010904//EN"
 "http://www.w3.org/TR/2001/REC-SVG-20010904/DTD/svg10.dtd">
<svg version="1.0" xmlns="http://www.w3.org/2000/svg"
 width="900.000000pt" height="922.000000pt" viewBox="0 0 900.000000 922.000000"
 preserveAspectRatio="xMidYMid meet">
<metadata>
Created by potrace 1.16, written by Peter Selinger 2001-2019
</metadata>
<g transform="translate(0.000000,922.000000) scale(0.100000,-0.100000)"
fill="#FFFFFF" stroke="none">
<path d="M217 8888 c-9 -148 -9 -4027 -1 -4146 l7 -92 3383 0 3384 0 0 2175 0
2175 -3383 0 -3384 0 -6 -112z m6753 -2063 l0 -2155 -3363 0 -3364 0 -6 113
c-9 149 -9 3865 -1 4052 l7 145 3364 0 3363 0 0 -2155z"/>
<path d="M2490 8324 c-212 -74 -502 -175 -645 -224 -528 -183 -619 -216 -622
-226 -2 -8 332 -126 1470 -519 l187 -65 0 585 c0 322 -1 585 -2 584 -2 0 -176
-61 -388 -135z"/>
<path d="M4279 8367 c-3 -594 -3 -1077 1 -1077 2 0 34 11 70 25 36 13 346 121
690 240 819 283 883 306 893 315 13 12 5 15 -1153 415 -201 69 -395 137 -432
150 l-68 25 -1 -93z"/>
<path d="M4130 5806 l0 -774 303 -7 c166 -4 575 -5 908 -3 l606 3 36 25 c20
14 89 73 153 130 395 352 521 490 548 604 18 73 -60 191 -240 365 -139 134
-438 396 -477 418 -17 9 -237 12 -929 13 l-908 0 0 -774z m1836 741 c51 -30
315 -266 470 -421 236 -235 265 -297 196 -417 -58 -101 -150 -195 -461 -474
-193 -174 -206 -183 -259 -191 -33 -5 -1737 0 -1759 5 -2 1 -3 341 -3 756 l0
755 898 0 c685 -1 902 -4 918 -13z"/>
<path d="M2555 6275 c-165 -58 -529 -184 -810 -282 -280 -97 -514 -179 -519
-184 -4 -4 0 -12 10 -17 11 -6 294 -105 629 -222 336 -116 684 -237 775 -269
91 -32 174 -60 185 -63 11 -3 28 -9 38 -13 16 -7 17 24 17 574 0 458 -3 581
-12 581 -7 -1 -148 -48 -313 -105z"/>
<path d="M7240 6944 l0 -306 168 4 c195 4 227 13 267 83 46 78 29 171 -40 218
l-35 24 21 19 c88 80 52 221 -66 253 -22 6 -102 11 -177 11 l-138 0 0 -306z
m282 226 c69 -19 92 -97 43 -145 -20 -21 -34 -25 -85 -26 -168 -3 -155 -8
-158 59 -2 31 0 72 3 90 l6 32 77 0 c42 0 94 -5 114 -10z m55 -276 c37 -28 50
-73 33 -114 -22 -54 -50 -64 -174 -65 l-111 0 -3 80 c-5 133 -10 127 118 123
91 -2 113 -6 137 -24z"/>
<path d="M7818 6935 c-41 -23 -64 -75 -34 -75 7 0 21 12 30 26 14 19 24 24 48
22 60 -6 63 -57 5 -86 -33 -16 -35 -32 -4 -32 50 0 76 -70 39 -103 -28 -25
-60 -20 -91 13 -15 17 -30 27 -34 24 -13 -14 -7 -35 18 -59 34 -35 101 -35
139 0 34 31 37 94 5 126 -19 19 -19 22 -5 38 22 25 20 55 -6 85 -29 32 -74 41
-110 21z"/>
<path d="M1001 4350 c-70 -55 -69 -84 2 -55 15 6 17 -1 17 -84 0 -90 0 -91 25
-91 l25 0 0 135 c0 74 -4 135 -9 135 -5 0 -32 -18 -60 -40z"/>
<path d="M3950 4360 c-26 -26 -26 -60 0 -60 10 0 24 9 30 20 6 12 21 20 35 20
21 0 25 -5 25 -28 0 -20 -13 -40 -46 -72 -44 -44 -74 -88 -74 -110 0 -7 29
-10 88 -8 79 3 87 5 87 23 0 17 -6 20 -47 19 -27 0 -48 2 -48 4 0 3 20 27 45
53 37 40 45 55 45 87 0 50 -24 72 -78 72 -29 0 -48 -6 -62 -20z"/>
<path d="M7077 4362 c-10 -10 -17 -26 -17 -35 0 -21 33 -22 50 -2 7 8 21 15
31 15 28 0 24 -36 -6 -56 -32 -21 -31 -27 5 -41 22 -8 30 -18 30 -35 0 -48
-36 -62 -69 -27 -12 13 -26 19 -35 16 -21 -8 -20 -19 5 -51 16 -20 29 -26 60
-26 74 0 116 77 69 127 -17 18 -17 23 -5 33 21 18 18 57 -5 80 -26 26 -90 27
-113 2z"/>
<path d="M216 3984 c-4 -37 -6 -385 -5 -774 l1 -707 471 -6 c614 -9 1270 -8
1329 2 51 8 56 12 353 275 177 157 340 334 379 410 45 90 30 152 -70 285 -62
83 -508 491 -609 557 -28 18 -58 19 -936 22 l-906 3 -7 -67z m1814 36 c46 -13
320 -249 510 -439 107 -107 154 -162 177 -206 45 -89 46 -103 14 -171 -26 -55
-194 -262 -239 -295 -11 -8 -110 -94 -220 -191 -111 -97 -210 -182 -221 -187
-28 -15 -49 -16 -968 -13 l-843 2 0 755 0 755 878 0 c545 0 890 -4 912 -10z"/>
<path d="M360 3275 l0 -587 23 5 c19 5 333 114 1405 488 127 45 232 85 232 89
0 11 29 0 -855 309 -424 148 -778 272 -787 276 -17 7 -18 -25 -18 -580z"/>
<path d="M3220 3276 c0 -611 3 -775 13 -777 6 -2 415 -4 907 -4 839 0 897 1
928 18 17 10 76 59 131 110 54 50 154 141 222 202 265 234 375 389 348 488
-26 95 -133 217 -384 441 -245 219 -314 275 -354 286 -23 6 -370 10 -923 10
l-888 0 0 -774z m1810 744 c72 -20 579 -482 662 -603 21 -31 46 -76 54 -99 13
-38 13 -47 -3 -90 -37 -104 -169 -252 -403 -453 -57 -49 -139 -122 -181 -161
-42 -40 -87 -77 -99 -84 -19 -10 -221 -12 -919 -11 l-896 2 -3 754 -2 755 877
0 c539 0 892 -4 913 -10z"/>
<path d="M3670 3271 l0 -594 137 144 c75 79 204 212 287 296 l149 152 -214
223 c-118 123 -247 257 -286 298 l-73 75 0 -594z"/>
<path d="M6220 3277 l0 -774 443 -6 c566 -9 1266 -9 1347 0 59 6 65 9 134 72
39 36 142 128 228 204 179 156 341 331 381 409 46 90 31 153 -62 278 -56 74
-444 437 -585 547 l-49 38 -918 3 -919 3 0 -774z m1848 731 c55 -30 301 -248
478 -423 155 -153 214 -239 214 -310 0 -72 -53 -148 -220 -315 -85 -86 -206
-201 -269 -255 -62 -55 -133 -117 -157 -139 -24 -21 -59 -41 -77 -45 -17 -3
-429 -5 -914 -3 l-883 3 0 748 c0 411 3 751 7 754 3 4 405 7 893 7 l887 0 41
-22z"/>
<path d="M6370 3270 c0 -319 3 -580 7 -580 9 0 331 111 1028 355 325 114 600
209 613 212 33 8 27 16 -26 34 -26 9 -85 30 -132 48 -81 29 -193 68 -1093 380
-208 72 -382 131 -387 131 -6 0 -10 -210 -10 -580z m710 318 c349 -121 695
-240 768 -265 72 -25 132 -49 132 -52 0 -3 -55 -25 -123 -48 -126 -43 -579
-200 -1130 -392 -175 -61 -322 -111 -327 -111 -6 0 -10 207 -10 551 l0 551 28
-7 c15 -3 313 -105 662 -227z"/>
<path d="M1048 2118 c-26 -21 -118 -160 -118 -178 0 -22 20 -30 70 -30 32 0
39 -4 42 -22 5 -38 31 -31 57 14 21 38 22 42 7 53 -11 9 -16 28 -16 62 0 58
-9 113 -19 113 -4 0 -14 -6 -23 -12z m-16 -160 c-5 -5 -18 -5 -30 -1 l-22 8
28 39 27 39 3 -38 c2 -21 -1 -42 -6 -47z"/>
<path d="M3955 2108 c-3 -7 -8 -39 -13 -70 -10 -64 -4 -70 52 -48 30 11 56 -9
56 -44 0 -44 -50 -63 -70 -27 -6 13 -17 17 -30 14 -49 -13 -1 -73 59 -73 67 0
110 68 85 135 -8 19 -55 45 -84 45 -11 0 -20 7 -20 15 0 11 12 15 49 15 48 0
70 17 55 41 -8 14 -134 11 -139 -3z"/>
<path d="M7083 2096 c-26 -23 -28 -29 -28 -99 0 -96 21 -130 83 -135 54 -4 82
25 82 84 0 59 -30 88 -82 81 -40 -5 -45 1 -28 34 13 23 43 25 60 4 29 -35 61
-8 36 30 -23 34 -84 35 -123 1z m87 -122 c10 -11 11 -23 4 -42 -10 -30 -42
-41 -55 -20 -10 16 -12 62 -2 71 12 12 40 7 53 -9z"/>
<path d="M215 1698 c-4 -51 -5 -399 -3 -773 l3 -680 917 -3 918 -2 132 116
c291 254 343 303 426 394 47 52 101 120 121 150 31 48 36 63 36 116 0 54 -4
67 -39 120 -21 32 -62 85 -89 117 -82 95 -347 334 -558 505 l-41 32 -908 0
-908 0 -7 -92z m1851 46 c21 -15 62 -47 89 -73 28 -25 95 -83 150 -128 128
-104 363 -344 400 -406 15 -27 34 -67 42 -90 13 -39 13 -43 -16 -102 -36 -73
-123 -176 -252 -300 -84 -81 -138 -128 -368 -327 l-66 -58 -901 0 -902 0 -6
173 c-5 139 -4 724 3 1245 l1 92 894 0 893 0 39 -26z"/>
<path d="M1545 1432 c-1217 -425 -1185 -413 -1185 -423 0 -4 10 -9 23 -12 12
-3 92 -30 177 -60 85 -30 423 -148 750 -261 327 -114 619 -215 649 -226 30
-11 55 -19 57 -17 4 4 6 1159 2 1161 -2 1 -214 -72 -473 -162z m455 -422 c0
-302 -2 -550 -4 -550 -3 0 -596 205 -1248 432 -180 63 -330 116 -333 119 -2 3
82 35 188 71 166 58 768 267 1227 426 80 28 151 51 158 51 9 1 12 -115 12
-549z"/>
<path d="M3212 1013 l3 -778 910 -3 911 -2 32 24 c38 27 195 166 360 316 64
58 154 149 202 203 206 231 198 290 -85 573 -88 88 -225 215 -305 281 -80 66
-154 130 -164 142 l-19 21 -924 0 -923 0 2 -777z m1910 684 c40 -34 113 -96
162 -137 144 -120 370 -349 415 -419 47 -74 58 -118 42 -170 -24 -82 -192
-271 -397 -447 -70 -60 -166 -144 -213 -186 l-86 -78 -902 0 -903 0 0 750 0
750 905 0 904 0 73 -63z"/>
<path d="M4925 1564 c-118 -42 -419 -147 -960 -334 -545 -189 -605 -210 -605
-219 0 -3 141 -55 313 -115 641 -222 977 -339 1156 -402 100 -35 187 -61 192
-58 11 6 12 1151 2 1156 -5 3 -48 -10 -98 -28z"/>
<path d="M6220 1015 l0 -775 915 0 915 0 107 93 c354 305 539 493 597 604 55
107 -23 238 -284 482 -164 152 -380 337 -418 357 -23 12 -167 14 -929 14
l-903 0 0 -775z m1864 720 c236 -200 361 -313 462 -416 171 -174 225 -265 203
-343 -24 -86 -214 -290 -528 -564 l-174 -152 -902 0 -903 0 -4 113 c-2 61 -2
401 0 755 l4 642 903 -2 903 -3 36 -30z"/>
<path d="M6718 1199 c-197 -98 -358 -182 -358 -187 0 -6 722 -372 735 -372 3
0 5 166 5 370 0 290 -3 370 -12 369 -7 0 -174 -81 -370 -180z"/>
<path d="M7320 1010 c0 -204 3 -370 6 -370 12 0 733 365 734 372 0 8 -713 368
-729 368 -8 0 -11 -113 -11 -370z"/>
</g>
</svg>
