<?xml version="1.0" standalone="no"?>
<!DOCTYPE svg PUBLIC "-//W3C//DTD SVG 20010904//EN"
 "http://www.w3.org/TR/2001/REC-SVG-20010904/DTD/svg10.dtd">
<svg version="1.0" xmlns="http://www.w3.org/2000/svg"
 width="900.000000pt" height="922.000000pt" viewBox="0 0 900.000000 922.000000"
 preserveAspectRatio="xMidYMid meet">
<metadata>
Created by potrace 1.16, written by Peter Selinger 2001-2019
</metadata>
<g transform="translate(0.000000,922.000000) scale(0.100000,-0.100000)"
fill="#FFFFFF" stroke="none">
<path d="M215 8818 c-3 -101 -5 -1078 -3 -2173 l3 -1990 3393 -3 3392 -2 0
2175 0 2175 -3389 0 -3389 0 -7 -182z m6765 -1993 l0 -2155 -3368 0 -3369 0
-6 98 c-9 128 -9 3933 0 4090 l6 122 3369 0 3368 0 0 -2155z"/>
<path d="M1380 7866 l0 -564 623 -7 c342 -3 690 -5 772 -3 l150 3 3 568 2 567
-775 0 -775 0 0 -564z m1530 476 l0 -68 -99 -12 c-328 -38 -599 -226 -750
-520 -61 -119 -90 -219 -98 -334 l-6 -88 -278 0 -279 0 0 545 0 545 755 0 755
0 0 -68z"/>
<path d="M4270 7865 l0 -564 37 -7 c20 -4 320 -4 667 -1 347 4 679 7 739 7
l107 0 0 565 0 565 -775 0 -775 0 0 -565z m1530 0 l0 -545 -277 2 -278 3 -7
75 c-20 214 -112 413 -261 568 -94 97 -154 141 -262 195 -116 58 -206 85 -327
99 l-98 12 0 68 0 68 755 0 755 0 0 -545z"/>
<path d="M4130 5806 l0 -774 383 -7 c210 -4 623 -5 918 -3 l537 3 88 80 c49
44 154 137 234 207 195 168 331 316 381 415 39 76 16 158 -76 275 -62 79 -383
374 -578 531 l-58 47 -914 0 -915 0 0 -774z m1949 654 c142 -119 429 -385 484
-448 91 -105 123 -184 102 -246 -34 -98 -192 -274 -430 -479 -77 -67 -169
-148 -203 -182 l-64 -60 -446 -2 c-246 -1 -655 0 -909 4 l-463 6 0 754 0 753
905 0 905 0 119 -100z"/>
<path d="M1396 6373 c-3 -3 -6 -260 -6 -570 l0 -563 775 0 775 0 0 570 0 570
-769 0 c-422 0 -771 -3 -775 -7z m564 -25 c0 -7 7 -56 15 -108 35 -237 126
-412 295 -574 164 -155 349 -239 582 -262 l68 -7 0 -68 0 -69 -755 0 -755 0 0
545 0 544 103 4 c289 9 447 7 447 -5z"/>
<path d="M7250 6946 l0 -306 143 0 c195 1 238 13 291 84 16 21 21 42 21 92 0
65 0 66 -48 110 l-48 46 24 18 c51 41 61 133 19 189 -42 57 -73 66 -244 69
l-158 4 0 -306z m275 224 c49 -11 75 -41 75 -87 0 -61 -30 -79 -148 -88 -55
-4 -105 -4 -111 0 -7 3 -11 43 -11 96 l0 89 78 0 c42 0 95 -5 117 -10z m41
-265 c47 -19 70 -72 54 -121 -19 -57 -47 -68 -174 -69 l-111 0 -3 103 -3 102
101 0 c66 0 113 -5 136 -15z"/>
<path d="M7893 6928 c-44 -48 -133 -181 -133 -199 0 -17 8 -19 71 -19 61 0 70
-2 68 -17 -3 -37 1 -53 16 -53 10 0 15 10 15 34 0 25 5 35 20 39 11 3 20 10
20 17 0 7 -9 14 -20 17 -18 5 -20 14 -20 104 0 55 -4 99 -8 99 -5 0 -18 -10
-29 -22z m4 -175 c-3 -2 -26 -3 -51 -1 l-47 3 48 65 48 65 3 -64 c2 -35 1 -65
-1 -68z"/>
<path d="M1030 4373 c-43 -28 -80 -66 -80 -81 0 -14 13 -13 53 3 15 6 17 -1
17 -84 0 -90 0 -91 25 -91 l25 0 0 135 c0 74 -3 135 -8 135 -4 0 -19 -7 -32
-17z"/>
<path d="M3951 4354 c-12 -15 -21 -33 -21 -40 0 -22 38 -16 50 7 14 25 63 23
68 -2 2 -9 -26 -52 -62 -95 -37 -43 -66 -84 -66 -91 0 -10 24 -13 91 -13 88 0
90 1 87 23 -3 18 -11 23 -53 28 -34 3 -45 7 -33 13 29 13 88 98 88 126 0 66
-107 98 -149 44z"/>
<path d="M7081 4354 c-37 -46 -19 -59 38 -27 21 13 33 15 41 7 16 -16 1 -44
-28 -55 -28 -11 -22 -22 20 -43 27 -14 31 -54 6 -70 -13 -8 -24 -5 -48 12 -48
36 -71 5 -27 -36 33 -31 90 -30 122 3 30 29 33 75 6 99 -17 16 -18 20 -5 45
16 33 6 74 -21 85 -39 15 -83 6 -104 -20z"/>
<path d="M217 3938 c-9 -147 -9 -853 0 -1181 l6 -257 911 0 c696 1 916 4 932
13 12 7 79 64 150 127 384 345 486 451 537 558 26 56 28 67 19 103 -15 60 -69
142 -150 230 -95 102 -484 448 -557 495 -28 18 -64 19 -936 22 l-906 3 -6
-113z m1813 82 c72 -20 589 -491 665 -606 51 -77 70 -135 56 -177 -32 -96
-163 -240 -461 -506 -96 -86 -190 -168 -208 -183 l-34 -28 -904 0 -904 0 0
755 0 755 878 0 c541 0 890 -4 912 -10z"/>
<path d="M380 3270 l0 -570 775 0 775 0 0 570 0 570 -775 0 -775 0 0 -570z
m953 543 c8 -13 -21 -190 -43 -263 -49 -166 -155 -325 -292 -440 -82 -69 -230
-152 -322 -179 -61 -19 -228 -51 -263 -51 -10 0 -13 99 -13 463 0 255 3 467 7
470 9 10 921 9 926 0z m577 -544 l0 -551 -752 5 -753 4 -3 66 -3 66 33 5 c18
3 56 8 83 11 137 17 287 75 409 156 73 49 193 164 247 236 80 106 147 272 168
413 7 41 14 90 17 108 l5 32 274 0 275 0 0 -551z"/>
<path d="M3220 3275 l0 -775 278 -1 c152 -1 563 -2 913 -2 585 -1 639 1 663
16 14 10 63 52 109 95 46 42 145 130 221 195 151 131 311 308 352 393 22 44
25 62 20 99 -11 72 -89 175 -242 324 -149 145 -421 383 -469 409 -27 16 -109
17 -937 20 l-908 3 0 -776z m1831 737 c76 -39 480 -398 589 -524 74 -86 120
-168 120 -216 0 -90 -173 -292 -450 -527 -58 -49 -138 -120 -179 -157 l-73
-68 -909 0 -909 0 0 755 0 755 888 0 c835 0 890 -1 923 -18z"/>
<path d="M3342 3273 l3 -568 778 -3 777 -2 0 570 0 570 -780 0 -780 0 2 -567z
m1538 -3 l0 -550 -757 2 -758 3 -3 67 -3 67 33 5 c18 2 70 10 115 16 142 19
284 77 408 165 70 50 197 179 244 248 82 121 145 299 157 448 l7 79 278 0 279
0 0 -550z"/>
<path d="M6220 3275 l0 -775 924 0 924 0 109 99 c59 54 173 156 253 228 233
208 350 356 350 443 0 48 -47 141 -109 213 -55 66 -261 262 -396 376 -49 42
-112 98 -141 124 -28 26 -67 52 -85 57 -21 6 -386 10 -931 10 l-898 0 0 -775z
m1833 746 c38 -15 452 -385 562 -504 88 -93 145 -190 145 -244 0 -72 -76 -177
-247 -343 -99 -97 -282 -262 -405 -367 l-50 -43 -909 0 -909 0 0 748 c0 412 3
752 7 755 9 9 1783 7 1806 -2z"/>
<path d="M6402 3273 l3 -568 775 0 774 0 1 565 0 565 -778 3 -777 2 2 -567z
m1536 0 l-3 -548 -755 0 -755 0 0 25 c0 24 3 25 77 31 193 16 372 170 423 364
65 250 -84 522 -324 595 -36 11 -92 22 -123 26 -53 5 -58 8 -58 30 l0 24 761
0 760 0 -3 -547z"/>
<path d="M1048 2118 c-26 -20 -118 -160 -118 -179 0 -18 27 -29 77 -29 25 0
32 -5 35 -22 5 -36 36 -28 61 15 21 36 21 39 4 51 -13 10 -17 28 -17 79 0 93
-9 111 -42 85z m-12 -154 c-6 -15 -42 -19 -50 -6 -3 5 7 26 22 47 l27 38 3
-33 c2 -17 1 -38 -2 -46z"/>
<path d="M3951 2070 c-16 -76 -15 -90 12 -90 12 0 28 4 36 9 33 21 67 -21 51
-63 -11 -29 -41 -34 -60 -11 -14 16 -46 20 -54 6 -3 -5 4 -20 15 -35 16 -21
29 -26 63 -26 61 0 99 51 88 118 -4 28 -59 64 -89 59 -17 -3 -23 1 -23 14 0
15 10 19 53 21 44 3 52 6 52 23 0 18 -8 20 -67 23 l-66 3 -11 -51z"/>
<path d="M7086 2089 c-22 -26 -26 -40 -26 -95 0 -68 17 -117 45 -128 66 -25
125 13 125 80 0 56 -35 89 -85 81 -39 -6 -45 5 -20 39 13 18 15 18 45 1 35
-19 50 -15 50 13 0 24 -29 40 -73 40 -27 0 -41 -7 -61 -31z m89 -144 c0 -34
-3 -40 -22 -43 -16 -2 -26 4 -34 21 -15 33 4 69 34 65 18 -2 22 -10 22 -43z"/>
<path d="M216 1734 c-4 -31 -6 -380 -6 -775 l1 -719 915 0 c650 0 921 3 936
11 20 11 83 66 377 333 166 150 271 269 312 352 28 57 31 68 21 104 -5 23 -25
67 -44 98 -55 95 -348 377 -625 602 l-55 45 -913 3 -912 2 -7 -56z m1834 18
c56 -28 373 -308 516 -453 97 -100 138 -151 162 -198 18 -35 32 -74 32 -85 0
-30 -42 -114 -79 -160 -84 -105 -360 -365 -590 -559 l-45 -37 -903 0 -903 0 0
755 0 755 888 0 c829 0 890 -1 922 -18z"/>
<path d="M360 1010 l0 -570 775 0 775 0 0 570 0 570 -775 0 -775 0 0 -570z
m1530 0 l0 -550 -275 0 c-213 0 -275 3 -275 13 0 40 -32 213 -51 272 -79 257
-289 489 -538 595 -83 36 -206 66 -302 76 l-69 7 0 68 0 69 755 0 755 0 0
-550z"/>
<path d="M3220 1015 l0 -775 913 0 c1049 0 918 -14 1059 117 47 43 146 132
221 197 139 121 269 261 325 350 77 122 49 195 -156 408 -75 77 -191 186 -257
242 -66 55 -149 126 -184 158 -36 32 -80 62 -100 68 -23 6 -362 10 -928 10
l-893 0 0 -775z m1826 745 c15 -6 61 -41 103 -78 42 -37 101 -88 131 -112 90
-74 229 -206 334 -319 114 -122 152 -188 143 -253 -12 -92 -192 -295 -467
-530 -74 -63 -142 -123 -150 -133 -8 -10 -33 -31 -54 -47 l-39 -28 -904 0
-903 0 0 755 0 755 889 0 c589 0 899 -3 917 -10z"/>
<path d="M3349 1573 c-1 -5 -2 -259 -3 -565 -1 -549 -1 -557 19 -562 11 -3
361 -6 778 -6 l757 0 0 570 0 570 -775 0 c-426 0 -776 -3 -776 -7z m1531 -563
l0 -550 -755 0 -755 0 0 550 0 550 755 0 755 0 0 -550z"/>
<path d="M4010 1460 c-216 -27 -407 -145 -482 -298 -30 -60 -33 -75 -33 -152
1 -101 18 -146 90 -233 125 -151 320 -224 574 -215 108 4 139 9 218 36 226 77
360 220 371 394 5 90 -9 141 -63 223 -118 176 -401 280 -675 245z"/>
<path d="M6220 1015 l0 -775 925 0 925 0 78 73 c42 40 155 142 251 227 177
157 324 318 362 398 26 53 22 107 -12 178 -42 88 -545 571 -680 653 -34 21
-39 21 -941 21 l-908 0 0 -775z m1855 729 c100 -68 501 -435 588 -539 57 -69
97 -146 97 -190 -1 -94 -122 -241 -418 -504 -84 -75 -183 -162 -218 -193 l-65
-58 -909 0 -910 0 0 755 0 755 899 0 898 0 38 -26z"/>
<path d="M6405 1568 c-3 -7 -4 -263 -3 -568 l3 -555 769 -3 c609 -2 771 0 778
10 4 7 8 264 8 571 l0 557 -775 0 c-611 0 -777 -3 -780 -12z m584 -113 c54
-439 409 -796 836 -840 123 -13 116 -8 113 -83 l-3 -67 -755 0 -755 0 -3 548
-2 547 278 0 278 0 13 -105z"/>
</g>
</svg>
