<?xml version="1.0" standalone="no"?>
<!DOCTYPE svg PUBLIC "-//W3C//DTD SVG 20010904//EN"
 "http://www.w3.org/TR/2001/REC-SVG-20010904/DTD/svg10.dtd">
<svg version="1.0" xmlns="http://www.w3.org/2000/svg"
 width="900.000000pt" height="922.000000pt" viewBox="0 0 900.000000 922.000000"
 preserveAspectRatio="xMidYMid meet">
<metadata>
Created by potrace 1.16, written by Peter Selinger 2001-2019
</metadata>
<g transform="translate(0.000000,922.000000) scale(0.100000,-0.100000)"
fill="#FFFFFF" stroke="none">
<path d="M217 8888 c-9 -148 -9 -4027 -1 -4146 l7 -92 3388 0 3389 0 0 2175 0
2175 -3388 0 -3389 0 -6 -112z m6763 -2063 l0 -2155 -3368 0 -3369 0 -6 113
c-9 149 -9 3865 -1 4052 l7 145 3369 0 3368 0 0 -2155z"/>
<path d="M1380 7865 l0 -565 775 0 775 0 0 565 0 565 -775 0 -775 0 0 -565z
m1530 480 l0 -65 -196 0 c-292 0 -433 -34 -620 -149 -261 -161 -428 -432 -459
-743 l-7 -68 -114 0 -114 0 0 545 0 545 755 0 755 0 0 -65z m0 -625 l0 -400
-536 0 -536 0 7 57 c41 333 247 590 554 693 112 38 184 47 364 49 l147 1 0
-400z"/>
<path d="M4270 7865 l0 -565 638 -2 c350 -1 657 -1 682 -1 25 1 87 2 138 2
l92 1 0 565 0 565 -775 0 -775 0 0 -565z m1530 0 l0 -545 -115 0 -115 0 0 480
0 480 -640 0 -640 0 0 65 0 65 755 0 755 0 0 -545z m-442 -147 l2 -398 -535 0
-535 0 0 400 0 400 533 -2 532 -3 3 -397z"/>
<path d="M4137 6573 c-4 -3 -7 -352 -7 -773 l0 -768 493 -7 c270 -4 684 -5
918 -3 l425 3 120 106 c65 58 174 154 242 213 169 149 313 312 348 394 31 74
7 152 -81 264 -62 79 -383 374 -578 531 l-58 47 -908 0 c-499 0 -911 -3 -914
-7z m1942 -113 c131 -110 387 -346 467 -431 101 -108 141 -197 119 -263 -35
-100 -189 -272 -430 -479 -77 -66 -168 -148 -203 -181 l-63 -61 -877 -1 c-482
0 -892 2 -909 4 l-33 4 0 747 c0 411 3 751 7 754 3 4 411 7 905 7 l898 0 119
-100z"/>
<path d="M1396 6373 c-3 -3 -6 -260 -6 -570 l0 -563 775 0 775 0 0 563 0 564
-125 7 c-158 8 -1410 8 -1419 -1z m255 -129 c29 -197 85 -325 213 -493 88
-116 270 -245 426 -302 125 -45 228 -59 441 -59 l189 0 0 -65 0 -65 -755 0
-755 0 0 543 c0 299 2 546 5 549 3 3 53 4 112 4 l107 -1 17 -111z m1073 109
l196 -6 -2 -396 -3 -396 -181 3 c-142 2 -198 7 -260 22 -239 61 -427 214 -535
435 -54 111 -79 201 -79 288 l0 57 333 0 c184 0 422 -3 531 -7z"/>
<path d="M7250 6946 l0 -306 143 0 c78 0 162 5 187 11 108 25 162 145 108 240
-12 22 -24 39 -27 39 -3 1 -17 10 -30 20 l-23 20 24 20 c52 41 62 133 20 189
-42 57 -73 66 -244 70 l-158 3 0 -306z m275 224 c22 -5 48 -19 58 -31 22 -28
22 -81 -2 -110 -17 -21 -30 -24 -127 -30 -60 -4 -112 -5 -116 -2 -10 5 -11
167 -1 176 9 10 142 8 188 -3z m41 -265 c46 -19 67 -67 53 -119 -16 -58 -43
-69 -172 -70 l-112 -1 -3 103 -3 102 101 0 c66 0 113 -5 136 -15z"/>
<path d="M7800 6908 c0 -18 -5 -53 -11 -77 -5 -24 -8 -46 -5 -48 3 -3 25 3 49
12 36 13 49 14 66 5 26 -13 43 -53 34 -77 -20 -56 -69 -69 -107 -28 -27 29
-46 32 -46 7 0 -34 47 -67 93 -66 57 2 97 46 97 108 0 65 -25 91 -89 91 -50 0
-51 0 -51 31 0 27 4 32 31 38 17 3 47 6 65 6 24 0 34 5 34 15 0 12 -16 15 -80
15 l-80 0 0 -32z"/>
<path d="M1001 4350 c-70 -55 -69 -84 2 -55 15 6 17 -1 17 -84 0 -90 0 -91 25
-91 l25 0 0 135 c0 74 -4 135 -9 135 -5 0 -32 -18 -60 -40z"/>
<path d="M3950 4356 c-24 -26 -22 -56 4 -56 9 0 20 9 26 20 12 23 58 27 66 6
8 -20 -9 -47 -71 -117 -30 -34 -55 -68 -55 -75 0 -11 20 -14 90 -14 89 0 90 0
90 25 0 23 -3 25 -52 25 l-52 0 47 48 c58 59 70 105 37 140 -30 32 -98 31
-130 -2z"/>
<path d="M7083 4356 c-23 -20 -26 -27 -15 -37 10 -11 18 -10 43 5 53 31 79 4
34 -36 -32 -27 -31 -34 2 -50 31 -15 41 -42 23 -63 -17 -21 -44 -19 -65 5 -22
24 -34 25 -42 4 -9 -24 35 -64 73 -64 46 0 63 9 79 41 20 38 19 62 -5 84 -17
16 -18 19 -4 41 46 69 -57 127 -123 70z"/>
<path d="M217 3983 c-9 -89 -9 -1225 0 -1370 l6 -113 917 0 916 0 61 53 c422
368 586 535 639 651 23 50 25 63 16 97 -26 104 -128 223 -386 453 -249 221
-315 275 -355 286 -23 6 -362 10 -922 10 l-886 0 -6 -67z m1813 37 c48 -13
305 -234 506 -434 129 -129 167 -174 192 -225 18 -35 32 -74 32 -86 0 -75
-134 -242 -351 -437 -253 -228 -293 -264 -327 -290 l-35 -28 -902 0 -902 0 -8
505 c-4 278 -4 617 0 755 l8 250 876 0 c541 0 889 -4 911 -10z"/>
<path d="M380 3270 l0 -570 775 0 775 0 0 570 0 570 -775 0 -775 0 0 -570z
m1080 150 l0 -400 -530 0 -530 0 0 400 0 400 530 0 530 0 0 -400z m450 -150
l0 -550 -752 2 -753 3 -3 63 -3 62 641 0 640 0 0 485 0 485 115 0 115 0 0
-550z"/>
<path d="M3220 3277 l0 -774 93 -5 c50 -3 461 -4 912 -4 940 1 824 -12 954
110 42 39 138 125 214 190 196 169 344 339 377 437 19 52 6 99 -50 182 -71
106 -438 454 -634 602 l-39 30 -914 3 -913 3 0 -774z m1811 743 c60 -17 471
-375 603 -526 75 -85 126 -174 126 -219 0 -93 -175 -299 -450 -530 -52 -43
-130 -112 -172 -151 -63 -58 -84 -73 -115 -75 -21 -2 -431 -3 -910 -1 l-873 3
0 754 0 755 878 0 c552 0 890 -4 913 -10z"/>
<path d="M3344 3270 l1 -570 778 0 777 0 -2 568 -3 567 -776 3 -776 2 1 -570z
m1536 5 c0 -427 -3 -547 -12 -550 -7 -3 -293 -4 -635 -3 l-621 3 171 96 c95
54 308 174 475 268 167 94 308 171 313 171 14 0 11 18 -3 22 -7 2 -107 56
-223 122 -115 65 -318 180 -450 254 -132 74 -249 141 -260 149 -16 11 81 13
613 13 l632 0 0 -545z m-1285 300 c320 -179 529 -298 535 -303 3 -3 0 -7 -7
-9 -6 -2 -179 -98 -383 -214 -205 -115 -373 -209 -374 -209 -1 0 0 194 2 430
1 237 6 429 10 427 4 -3 102 -57 217 -122z"/>
<path d="M6220 3276 c0 -692 2 -774 16 -780 8 -3 421 -5 918 -3 l903 2 34 28
c116 94 485 436 547 507 148 172 166 226 114 333 -39 78 -84 131 -247 287
-202 193 -431 387 -467 394 -17 3 -433 6 -924 6 l-894 0 0 -774z m1832 745
c13 -5 50 -33 84 -62 433 -381 543 -491 593 -589 17 -35 31 -78 31 -97 0 -66
-55 -147 -199 -296 -74 -76 -159 -154 -442 -406 -27 -24 -64 -46 -82 -50 -17
-3 -429 -5 -914 -3 l-883 3 0 754 0 755 894 0 c494 0 905 -4 918 -9z"/>
<path d="M6405 3828 c-3 -7 -4 -263 -3 -568 l3 -555 772 -3 773 -2 5 22 c4 19
1 1107 -4 1116 0 1 -348 2 -771 2 -607 0 -772 -3 -775 -12z m258 -90 c23 -319
237 -628 542 -781 156 -78 246 -96 518 -104 l218 -6 -3 -61 -3 -61 -755 0
-755 0 -3 535 c-1 294 0 541 3 548 3 8 36 12 118 12 l114 0 6 -82z m1273 -318
l-1 -400 -163 0 c-231 0 -362 31 -513 120 -211 125 -359 361 -385 613 l-7 67
535 0 535 0 -1 -400z"/>
<path d="M1048 2118 c-26 -20 -118 -160 -118 -179 0 -21 20 -29 70 -29 32 0
39 -4 42 -22 4 -31 35 -35 48 -6 5 13 16 31 22 41 11 15 10 20 -4 31 -13 10
-18 31 -20 91 -3 80 -11 95 -40 73z m-16 -160 c-6 -6 -19 -7 -31 -3 -20 6 -20
7 7 48 l27 41 3 -38 c2 -21 -1 -43 -6 -48z"/>
<path d="M3951 2070 c-16 -76 -15 -90 12 -90 12 0 29 4 36 9 33 21 66 -23 50
-67 -10 -27 -40 -29 -63 -3 -10 11 -25 17 -37 14 -24 -7 -24 -14 2 -47 36 -46
114 -33 145 25 30 58 -12 129 -77 129 -19 0 -29 5 -29 14 0 11 15 16 53 18 44
3 52 6 52 23 0 18 -8 20 -67 23 l-66 3 -11 -51z"/>
<path d="M7088 2090 c-29 -29 -30 -33 -26 -105 3 -61 7 -78 27 -99 55 -59 141
-19 141 65 0 49 -38 83 -87 77 -36 -4 -42 7 -18 38 13 18 15 18 45 2 42 -24
50 -23 50 7 0 53 -84 62 -132 15z m87 -145 c0 -33 -4 -41 -22 -43 -27 -4 -46
28 -37 63 5 21 12 25 33 23 23 -3 26 -7 26 -43z"/>
<path d="M216 1713 c-3 -43 -5 -392 -4 -776 l3 -697 915 0 c847 0 917 1 940
17 48 33 387 339 501 453 118 117 176 194 198 262 16 49 3 97 -50 179 -45 70
-272 300 -414 419 -50 41 -125 105 -167 141 -45 38 -91 69 -109 73 -17 3 -431
6 -919 6 l-888 0 -6 -77z m1851 30 c141 -94 564 -492 634 -596 56 -85 66 -125
45 -182 -22 -56 -84 -140 -167 -225 -105 -107 -482 -445 -522 -467 -17 -9
-235 -12 -919 -13 l-898 0 0 755 0 755 893 0 893 0 41 -27z"/>
<path d="M362 1013 l3 -568 773 -3 772 -2 0 570 0 570 -775 0 -775 0 2 -567z
m1528 483 l0 -64 -227 -5 c-190 -4 -241 -8 -306 -26 -278 -74 -515 -268 -645
-526 -44 -88 -83 -220 -88 -300 -9 -126 2 -116 -127 -113 l-112 3 -3 548 -2
547 755 0 755 0 0 -64z m0 -636 l0 -400 -531 0 -532 0 6 78 c21 274 210 534
474 654 124 56 189 67 396 67 l187 1 0 -400z"/>
<path d="M3220 1015 l0 -775 920 0 919 0 38 32 c21 18 70 62 108 98 39 36 133
119 209 185 216 187 366 376 366 460 0 18 -14 60 -31 95 -39 78 -236 284 -419
439 -69 58 -154 131 -189 163 -36 32 -80 62 -100 68 -23 6 -362 10 -928 10
l-893 0 0 -775z m1827 744 c15 -5 61 -40 103 -77 41 -37 117 -103 169 -147
137 -115 361 -345 401 -411 28 -47 35 -69 35 -110 0 -46 -6 -61 -50 -125 -79
-116 -271 -302 -606 -586 l-50 -43 -904 0 -905 0 0 755 0 755 889 0 c603 0
899 -3 918 -11z"/>
<path d="M3344 1534 c-9 -62 4 -1076 14 -1086 5 -5 352 -7 773 -6 l764 3 3
568 2 567 -774 0 -775 0 -7 -46z m1534 -521 l-3 -548 -117 -3 -118 -3 0 486 0
485 -637 2 -638 3 -3 29 c-2 16 -1 44 3 63 l6 33 755 0 754 0 -2 -547z m-448
-153 l0 -400 -530 0 -530 0 0 138 c0 75 -3 255 -7 400 l-6 262 536 0 537 0 0
-400z"/>
<path d="M6220 1015 l0 -775 925 0 925 0 83 78 c45 43 153 140 240 216 160
140 242 224 321 331 79 105 83 182 16 283 -75 111 -569 573 -669 624 -33 17
-85 18 -938 18 l-903 0 0 -775z m1833 742 c61 -27 498 -422 604 -545 152 -180
139 -250 -87 -486 -65 -68 -158 -153 -446 -408 l-65 -58 -909 0 -910 0 0 755
0 755 893 0 c673 -1 899 -4 920 -13z"/>
<path d="M6405 1568 c-3 -7 -4 -263 -3 -568 l3 -555 775 0 775 0 0 565 0 565
-773 3 c-613 2 -774 0 -777 -10z m265 -113 l0 -105 -125 0 -125 0 0 105 0 105
125 0 125 0 0 -105z m1270 0 l0 -105 -550 0 -550 0 0 105 0 105 550 0 550 0 0
-105z m-1307 -274 l37 -1 0 -360 0 -361 -122 3 -123 3 -3 357 c-2 333 -1 357
15 361 16 4 58 3 196 -2z m1302 -3 c4 -4 4 -167 0 -362 l-8 -356 -543 0 -544
0 0 366 0 366 544 -4 c300 -2 548 -6 551 -10z"/>
</g>
</svg>
