<?xml version="1.0" standalone="no"?>
<!DOCTYPE svg PUBLIC "-//W3C//DTD SVG 20010904//EN"
 "http://www.w3.org/TR/2001/REC-SVG-20010904/DTD/svg10.dtd">
<svg version="1.0" xmlns="http://www.w3.org/2000/svg"
 width="900.000000pt" height="922.000000pt" viewBox="0 0 900.000000 922.000000"
 preserveAspectRatio="xMidYMid meet">
<metadata>
Created by potrace 1.16, written by Peter Selinger 2001-2019
</metadata>
<g transform="translate(0.000000,922.000000) scale(0.100000,-0.100000)"
fill="#FFFFFF" stroke="none">
<path d="M215 8748 c-3 -139 -5 -1117 -3 -2173 l3 -1920 3393 -3 3392 -2 0
2175 0 2175 -3389 0 -3389 0 -7 -252z m6765 -1923 l0 -2155 -3368 0 -3369 0
-6 148 c-9 199 -9 3693 -1 3955 l7 207 3369 0 3368 0 0 -2155z"/>
<path d="M1380 7870 l0 -570 773 0 772 0 1 570 2 570 -774 0 -774 0 0 -570z
m1530 -15 l-2 -535 -741 0 c-414 0 -737 4 -731 9 5 4 110 82 234 171 322 234
351 255 809 589 228 165 418 301 423 301 5 0 8 -233 8 -535z"/>
<path d="M4270 7865 l0 -565 775 0 775 0 0 565 0 565 -775 0 -775 0 0 -565z
m280 530 c7 -9 148 -115 314 -237 166 -122 333 -245 371 -273 263 -195 542
-398 553 -402 8 -4 12 -29 12 -79 0 -41 -2 -74 -4 -74 -2 0 -60 42 -128 93
-69 50 -181 133 -249 183 -68 50 -212 155 -319 234 -107 79 -271 200 -365 269
-330 242 -395 291 -395 296 0 3 44 5 99 5 76 0 101 -3 111 -15z m265 -33 c33
-26 125 -95 204 -152 154 -113 327 -240 605 -444 l176 -130 0 -69 0 -69 -27
17 c-16 10 -127 91 -248 180 -121 89 -384 282 -585 429 -201 148 -369 272
-374 277 -6 5 31 9 90 9 l99 0 60 -48z m360 -99 c110 -80 286 -210 390 -287
105 -78 201 -148 213 -156 21 -14 23 -22 20 -86 l-3 -71 -226 166 c-124 91
-340 250 -480 353 -140 103 -265 197 -279 208 l-25 20 95 0 96 0 199 -147z
m108 90 c41 -32 173 -130 295 -218 l221 -160 0 -74 c1 -57 -2 -71 -11 -64 -7
5 -181 132 -386 282 -204 150 -375 277 -378 282 -3 5 36 9 91 9 l95 0 73 -57z
m325 -73 c96 -72 178 -130 183 -130 5 0 9 -34 9 -76 l0 -75 -27 16 c-16 9
-143 102 -283 206 l-254 189 99 0 100 0 173 -130z m121 78 l71 -53 0 -73 0
-73 -57 43 c-96 70 -257 190 -267 199 -6 5 33 9 86 9 l97 0 70 -52z m71 12 c0
-46 -6 -45 -70 9 l-35 30 53 1 52 0 0 -40z m-973 -352 c285 -209 610 -448 723
-531 113 -82 209 -154 215 -158 5 -5 -318 -9 -733 -9 l-742 0 0 540 c0 327 4
540 9 540 5 0 243 -172 528 -382z"/>
<path d="M4135 6568 c-3 -7 -4 -357 -3 -778 l3 -765 916 0 915 0 120 106 c65
58 175 155 244 215 129 113 268 263 322 347 85 133 32 242 -244 497 -147 137
-289 261 -391 343 l-58 47 -910 0 c-718 0 -911 -3 -914 -12z m1947 -110 c226
-190 481 -436 534 -515 19 -29 41 -72 50 -95 13 -39 13 -47 -2 -86 -38 -101
-213 -293 -459 -502 -60 -51 -138 -121 -173 -154 l-63 -61 -882 0 c-485 0
-894 1 -909 4 l-28 3 0 747 c0 411 3 751 7 754 3 4 410 7 904 7 l898 0 123
-102z"/>
<path d="M1380 5810 l0 -570 775 0 775 0 -2 568 -3 567 -772 3 -773 3 0 -571z
m1303 544 l227 -7 0 -538 0 -539 -67 48 c-38 27 -302 219 -588 427 -286 208
-583 425 -661 481 -77 57 -145 109 -151 116 -10 11 75 14 500 16 282 2 614 0
740 -4z"/>
<path d="M7250 6946 l0 -306 143 0 c78 0 162 5 187 11 75 17 130 86 130 163 0
58 -24 100 -81 140 l-23 15 26 20 c52 42 62 134 20 190 -42 57 -73 66 -244 70
l-158 3 0 -306z m275 224 c49 -11 75 -41 75 -87 0 -61 -30 -79 -148 -88 -55
-4 -105 -4 -111 0 -12 7 -16 167 -4 178 9 10 142 8 188 -3z m46 -266 c41 -21
61 -70 48 -118 -16 -59 -45 -70 -173 -71 l-111 0 -3 103 -3 102 106 0 c77 0
114 -4 136 -16z"/>
<path d="M7843 6936 c-39 -18 -59 -48 -68 -104 -10 -63 2 -127 31 -162 21 -25
33 -30 69 -30 36 0 48 5 69 31 37 44 36 101 -3 140 -33 33 -58 36 -101 14 -29
-15 -30 -15 -30 8 0 34 37 77 66 77 13 0 34 -11 46 -25 27 -31 38 -32 38 -2 0
48 -63 76 -117 53z m81 -168 c8 -18 11 -39 8 -47 -26 -77 -112 -61 -112 20 0
42 17 58 63 59 22 0 31 -7 41 -32z"/>
<path d="M1001 4350 c-70 -55 -69 -84 2 -55 15 6 17 -1 17 -84 0 -90 0 -91 25
-91 l25 0 0 135 c0 74 -4 135 -9 135 -5 0 -32 -18 -60 -40z"/>
<path d="M3951 4354 c-25 -32 -26 -43 -4 -51 11 -4 22 1 31 15 16 25 60 30 68
8 8 -20 -9 -47 -71 -117 -30 -34 -55 -68 -55 -75 0 -11 20 -14 91 -14 88 0 90
1 87 23 -3 19 -10 22 -51 25 l-48 3 43 45 c50 52 61 77 53 116 -8 35 -31 48
-84 48 -31 0 -44 -6 -60 -26z"/>
<path d="M7083 4356 c-22 -20 -25 -27 -16 -37 10 -10 20 -9 48 6 24 14 38 16
45 9 14 -14 3 -42 -21 -49 -27 -9 -23 -32 8 -47 31 -15 41 -42 23 -63 -18 -21
-47 -18 -64 6 -16 23 -46 20 -46 -4 0 -29 40 -57 81 -57 71 0 117 81 70 124
-17 16 -18 20 -5 45 37 75 -56 125 -123 67z"/>
<path d="M220 3275 l0 -775 919 0 918 0 154 137 c376 334 490 452 542 561 26
56 28 67 19 103 -15 60 -69 142 -150 230 -95 102 -484 448 -557 495 -28 18
-64 19 -937 22 l-908 3 0 -776z m1853 725 c76 -55 387 -334 498 -446 118 -122
158 -177 180 -251 11 -40 10 -46 -19 -105 -35 -71 -145 -198 -272 -315 -109
-100 -308 -277 -367 -325 l-45 -38 -904 0 -904 0 0 755 0 755 899 -2 898 -3
36 -25z"/>
<path d="M380 3270 l0 -570 775 0 775 0 -2 568 -3 567 -772 3 -773 2 0 -570z
m1530 5 l0 -544 -63 47 c-34 26 -157 116 -272 199 -881 641 -1122 817 -1135
829 -12 12 92 14 728 14 l742 0 0 -545z"/>
<path d="M3220 3275 l0 -775 78 0 c1314 -3 1757 1 1780 16 13 9 59 48 101 88
42 39 138 125 214 190 196 169 344 339 377 437 8 21 10 51 6 72 -12 63 -98
176 -238 313 -144 141 -425 385 -473 412 -27 16 -109 17 -937 20 l-908 3 0
-776z m1811 745 c39 -11 168 -116 398 -324 225 -204 331 -339 331 -421 0 -93
-173 -297 -450 -531 -58 -48 -138 -119 -179 -156 l-73 -68 -909 0 -909 0 0
755 0 755 878 0 c552 0 890 -4 913 -10z"/>
<path d="M3348 3818 c-1 -13 -2 -269 -2 -570 l-1 -548 778 0 777 0 0 570 0
570 -775 0 -775 0 -2 -22z m1497 -7 c-8 -7 -292 -213 -1270 -924 -60 -44 -131
-96 -157 -115 l-48 -34 0 541 0 541 742 0 c431 0 738 -4 733 -9z"/>
<path d="M6220 3275 l0 -775 924 0 924 0 109 98 c59 55 171 155 248 223 216
192 343 348 352 433 6 53 -23 123 -85 205 -44 58 -269 274 -414 398 -51 43
-115 100 -144 126 -28 26 -67 52 -85 57 -21 6 -386 10 -931 10 l-898 0 0 -775z
m1833 746 c37 -14 449 -382 562 -502 89 -94 145 -191 145 -248 0 -45 -26 -95
-95 -180 -78 -97 -314 -321 -557 -528 l-50 -43 -909 0 -909 0 0 755 0 755 898
-1 c493 0 905 -4 915 -8z"/>
<path d="M6402 3273 l3 -568 775 0 775 0 0 565 0 565 -778 3 -777 2 2 -567z
m1503 539 c-6 -4 -35 -26 -65 -49 -30 -22 -125 -91 -210 -154 -85 -63 -243
-179 -350 -257 -107 -78 -341 -250 -520 -382 -179 -132 -328 -240 -332 -240
-5 0 -8 245 -8 545 l0 545 747 0 c411 0 743 -4 738 -8z m35 -75 c0 -64 -3 -74
-22 -86 -24 -15 -203 -145 -523 -381 -104 -77 -257 -190 -340 -250 -82 -60
-208 -153 -279 -205 l-130 -95 -95 0 c-56 0 -91 4 -85 9 8 8 367 272 1134 835
113 82 232 171 265 197 33 26 63 48 68 48 4 1 7 -32 7 -72z m0 -166 l0 -70
-87 -63 c-49 -34 -167 -121 -263 -192 -96 -71 -213 -156 -259 -190 -46 -34
-167 -123 -269 -198 l-186 -138 -95 0 c-56 0 -91 4 -85 9 13 13 208 157 564
418 173 127 394 290 490 361 96 72 178 131 183 131 4 1 7 -30 7 -68z m0 -168
l0 -68 -253 -185 c-138 -101 -302 -221 -363 -267 -235 -173 -215 -163 -316
-163 -80 0 -110 9 -75 23 8 3 90 61 183 130 517 383 810 597 817 597 4 0 7
-30 7 -67z m-12 -244 c-7 -4 -143 -103 -302 -220 l-289 -212 -101 -5 c-64 -3
-97 -1 -91 5 6 5 84 64 175 131 91 66 266 195 390 286 l225 166 3 -72 c2 -51
-1 -74 -10 -79z m12 -88 l0 -69 -192 -141 -192 -141 -96 0 -95 1 25 19 c72 55
542 400 546 400 2 0 4 -31 4 -69z m0 -170 l0 -68 -62 -44 c-35 -24 -69 -49
-76 -56 -9 -9 -45 -13 -110 -13 -68 0 -93 3 -85 11 19 19 318 238 326 239 4 0
7 -31 7 -69z m0 -136 c0 -42 -10 -47 -75 -43 l-47 3 53 37 c30 21 57 38 62 38
4 0 7 -16 7 -35z"/>
<path d="M1048 2117 c-26 -20 -118 -159 -118 -178 0 -18 27 -29 77 -29 25 0
32 -5 35 -22 4 -31 35 -35 48 -6 5 13 16 31 22 41 11 15 10 20 -4 31 -13 10
-18 31 -20 91 -3 80 -11 94 -40 72z m-8 -117 c0 -38 -2 -40 -30 -40 l-30 0 26
40 c15 22 28 40 30 40 2 0 4 -18 4 -40z"/>
<path d="M3951 2070 c-19 -89 -18 -91 41 -88 57 3 66 -7 54 -58 -8 -30 -36
-32 -61 -4 -37 41 -68 10 -34 -34 15 -19 30 -26 55 -26 48 0 73 15 89 54 25
60 -3 112 -67 122 -58 10 -49 32 15 36 44 3 52 6 52 23 0 18 -8 20 -67 23
l-66 3 -11 -51z"/>
<path d="M7089 2091 c-26 -26 -29 -36 -29 -90 0 -100 26 -141 90 -141 30 0 43
6 59 26 48 61 7 150 -65 142 -37 -4 -43 6 -19 38 13 18 15 18 45 2 42 -24 50
-23 50 7 0 52 -84 62 -131 16z m86 -146 c0 -33 -4 -41 -22 -43 -27 -4 -46 28
-37 63 5 21 12 25 33 23 23 -3 26 -7 26 -43z"/>
<path d="M218 1019 c-2 -424 -1 -773 1 -775 2 -2 414 -4 916 -4 l911 0 31 23
c40 29 241 208 408 364 153 141 234 237 271 317 31 68 26 102 -28 194 -56 96
-438 461 -656 627 -26 20 -44 20 -939 23 l-913 2 -2 -771z m1860 721 c301
-244 597 -535 650 -639 17 -35 32 -74 32 -86 0 -69 -110 -212 -297 -386 -131
-123 -387 -345 -410 -357 -16 -9 -259 -12 -917 -12 l-896 0 0 755 0 755 903
-2 904 -3 31 -25z"/>
<path d="M362 1013 l3 -568 773 -3 772 -2 0 570 0 570 -775 0 -775 0 2 -567z
m489 203 c239 -176 508 -374 599 -441 91 -67 223 -164 293 -216 l129 -94 -734
-3 c-403 -1 -739 0 -745 3 -10 3 -13 123 -13 551 0 534 0 546 19 533 10 -8
214 -158 452 -333z m-54 206 c104 -76 301 -221 438 -322 138 -101 335 -246
438 -322 103 -77 194 -142 202 -145 12 -4 15 -25 15 -87 0 -44 -4 -76 -8 -70
-4 6 -65 53 -137 105 -71 53 -328 241 -570 419 -242 178 -503 370 -581 426
-190 139 -187 134 -75 134 l91 0 187 -138z m140 64 c54 -40 196 -145 315 -232
119 -88 312 -229 427 -314 l211 -154 0 -69 c0 -41 -4 -67 -10 -65 -5 2 -99 69
-207 149 -263 194 -703 517 -880 646 -79 57 -143 106 -143 109 0 2 42 4 94 4
l94 0 99 -74z m162 51 c23 -21 573 -427 733 -541 l57 -41 1 -73 0 -73 -59 43
c-116 85 -271 198 -586 430 -176 129 -330 241 -342 249 -13 8 -23 17 -23 21 0
5 44 8 97 8 88 0 99 -2 122 -23z m456 -172 c146 -107 280 -205 300 -217 35
-23 35 -24 35 -96 0 -56 -3 -71 -12 -66 -7 4 -121 87 -253 184 -132 97 -301
221 -375 275 -74 54 -139 102 -144 106 -6 5 33 9 88 9 l98 0 263 -195z m-15
186 c0 -5 79 -67 175 -137 l175 -128 0 -68 c0 -38 -3 -68 -6 -68 -6 0 -520
375 -544 397 -12 11 3 13 93 13 59 0 107 -4 107 -9z m235 -11 c10 -11 40 -34
66 -51 l49 -31 0 -75 0 -75 -52 38 c-29 21 -98 72 -153 113 -55 40 -105 76
-112 78 -36 14 -3 23 85 23 86 0 101 -3 117 -20z m115 -20 c0 -31 -3 -39 -13
-33 -38 24 -97 66 -97 69 0 2 25 4 55 4 l55 0 0 -40z"/>
<path d="M3220 1015 l0 -775 917 0 916 0 36 27 c20 15 70 59 111 98 42 38 138
124 214 190 216 187 366 376 366 460 0 18 -14 60 -31 95 -39 78 -246 295 -424
443 -66 56 -149 127 -184 159 -36 32 -80 62 -100 68 -23 6 -362 10 -928 10
l-893 0 0 -775z m1827 744 c15 -5 61 -40 103 -77 41 -37 107 -94 145 -126 121
-100 389 -373 426 -433 27 -46 34 -68 34 -109 0 -46 -6 -61 -50 -125 -61 -91
-236 -268 -415 -421 -74 -63 -142 -123 -150 -133 -8 -10 -33 -31 -54 -47 l-39
-28 -904 0 -903 0 0 755 0 755 889 0 c603 0 899 -3 918 -11z"/>
<path d="M3340 1010 l0 -570 775 0 775 0 0 570 0 570 -775 0 -775 0 0 -570z
m135 542 c-6 -5 -34 -28 -62 -51 l-53 -43 0 51 0 51 62 0 c34 0 58 -4 53 -8z
m225 3 c0 -3 -75 -61 -167 -130 l-168 -124 -3 71 c-2 50 1 73 10 79 22 12 100
73 117 91 13 13 36 17 114 17 53 1 97 -1 97 -4z m220 -9 c-8 -7 -138 -104
-287 -214 l-273 -201 0 74 0 74 58 40 c31 22 118 85 192 140 l135 101 95 0
c80 0 92 -2 80 -14z m240 10 c0 -4 -23 -21 -244 -182 -60 -43 -209 -154 -332
-245 l-224 -167 0 78 c0 57 4 79 14 83 15 6 491 354 551 404 39 32 42 33 138
33 53 0 97 -2 97 -4z m225 -4 c-6 -5 -89 -67 -185 -137 -96 -71 -298 -219
-448 -329 -150 -111 -300 -220 -332 -244 l-60 -43 0 73 c0 66 2 74 24 88 22
14 637 465 746 548 25 19 47 38 48 43 2 5 51 9 110 9 59 0 102 -4 97 -8z m210
-11 c-11 -10 -200 -150 -420 -311 -220 -162 -449 -330 -510 -375 -219 -162
-293 -215 -299 -215 -3 0 -6 31 -6 70 0 65 2 71 28 87 27 18 727 531 932 684
l105 78 95 1 c93 0 94 0 75 -19z m245 15 c0 -3 -62 -50 -137 -105 -76 -56
-291 -213 -478 -351 -187 -138 -403 -296 -480 -352 -77 -56 -193 -142 -257
-190 -64 -48 -120 -88 -123 -88 -3 0 -5 33 -5 74 0 58 3 75 16 80 17 6 787
571 1088 797 l181 137 98 1 c53 1 97 -1 97 -3z m27 -1093 c-2 -2 -334 -2 -738
-1 l-734 3 141 105 c78 58 323 238 544 400 221 162 488 359 593 437 l192 142
3 -541 c1 -298 1 -543 -1 -545z"/>
<path d="M6220 1015 l0 -775 915 0 c984 0 943 -2 990 50 11 13 117 110 236
215 217 194 358 346 399 430 28 57 25 99 -11 175 -26 55 -58 92 -217 250 -215
213 -440 405 -492 420 -22 6 -372 10 -927 10 l-893 0 0 -775z m1833 741 c48
-20 300 -241 483 -422 262 -260 278 -321 129 -504 -79 -97 -221 -231 -547
-517 l-59 -53 -910 0 -909 0 0 755 0 755 890 0 c737 0 896 -2 923 -14z"/>
<path d="M6400 1010 l0 -570 780 0 780 0 0 570 0 570 -780 0 -780 0 0 -570z
m140 546 c0 -5 -108 -86 -115 -86 -3 0 -5 20 -5 45 l0 45 60 0 c33 0 60 -2 60
-4z m225 -5 c-6 -6 -84 -64 -175 -130 l-165 -119 -3 71 c-2 56 0 72 13 80 9 4
44 30 78 57 l62 48 100 1 c62 1 95 -3 90 -8z m234 5 c-2 -3 -121 -91 -264
-196 -143 -105 -271 -199 -285 -210 -14 -10 -22 -21 -19 -25 8 -7 580 408 587
427 2 4 49 8 105 8 l102 -1 -35 -28 c-19 -16 -174 -131 -345 -256 -170 -125
-336 -248 -367 -272 l-58 -44 0 158 0 158 148 107 c81 59 168 123 192 142 45
36 46 36 144 36 55 0 97 -2 95 -4z m451 0 c0 -4 -36 -31 -495 -368 -176 -129
-367 -269 -425 -312 l-105 -77 -3 73 c-2 40 1 74 6 76 5 1 160 114 343 249
184 135 363 267 398 292 35 25 69 51 75 58 10 11 206 20 206 9z m194 -27 c-22
-17 -115 -87 -209 -155 -93 -68 -255 -187 -360 -264 -104 -77 -285 -210 -402
-296 -116 -85 -217 -161 -223 -169 -23 -28 -30 -15 -30 59 l0 73 43 28 c51 35
665 485 872 641 l150 113 99 0 99 1 -39 -31z m235 8 c-14 -12 -64 -49 -110
-83 -46 -33 -176 -128 -289 -210 -113 -83 -324 -237 -470 -344 -146 -106 -287
-210 -315 -230 -27 -20 -95 -70 -150 -111 -55 -41 -105 -78 -112 -82 -10 -6
-13 8 -13 61 l0 69 48 33 c26 19 103 76 172 126 346 256 595 439 784 576 114
84 225 167 245 185 35 32 38 32 136 32 l100 0 -26 -22z"/>
</g>
</svg>
