<?xml version="1.0" standalone="no"?>
<!DOCTYPE svg PUBLIC "-//W3C//DTD SVG 20010904//EN"
 "http://www.w3.org/TR/2001/REC-SVG-20010904/DTD/svg10.dtd">
<svg version="1.0" xmlns="http://www.w3.org/2000/svg"
 width="900.000000pt" height="922.000000pt" viewBox="0 0 900.000000 922.000000"
 preserveAspectRatio="xMidYMid meet">
<metadata>
Created by potrace 1.16, written by Peter Selinger 2001-2019
</metadata>
<g transform="translate(0.000000,922.000000) scale(0.100000,-0.100000)"
fill="#FFFFFF" stroke="none">
<path d="M216 8798 c-8 -258 -8 -3885 1 -4035 l6 -113 3389 0 3388 0 0 2175 0
2175 -3388 0 -3389 0 -7 -202z m6764 -1973 l0 -2155 -3368 0 -3369 0 -6 113
c-9 149 -9 3831 0 4037 l6 160 3369 0 3368 0 0 -2155z"/>
<path d="M2225 7929 c-385 -281 -733 -534 -772 -562 -40 -29 -73 -55 -73 -59
0 -5 349 -8 775 -8 l775 0 0 570 c0 314 -1 570 -2 570 -2 -1 -318 -230 -703
-511z"/>
<path d="M4270 7871 l0 -571 775 0 c426 0 775 3 774 8 0 4 -91 73 -202 153
-271 196 -1274 926 -1314 957 l-33 24 0 -571z"/>
<path d="M4137 6573 c-4 -3 -7 -352 -7 -773 l0 -768 383 -7 c210 -4 623 -5
918 -3 l537 3 88 80 c49 45 138 123 199 175 173 150 233 208 317 309 131 158
147 220 82 326 -19 33 -51 79 -71 103 -60 73 -383 367 -566 515 l-58 47 -908
0 c-499 0 -911 -3 -914 -7z m1945 -115 c144 -121 402 -361 480 -447 101 -112
129 -201 88 -280 -50 -98 -229 -287 -450 -476 -58 -49 -134 -116 -168 -150
l-64 -60 -211 0 c-117 0 -526 1 -909 3 l-698 2 0 748 c0 412 3 752 7 755 3 4
410 7 904 7 l898 0 123 -102z"/>
<path d="M1380 6375 c0 -5 190 -146 670 -494 204 -148 319 -232 404 -296 78
-58 168 -122 374 -267 52 -38 99 -68 104 -68 4 0 8 254 8 565 l0 565 -780 0
c-429 0 -780 -2 -780 -5z m1540 -120 l0 -45 -647 0 -646 0 -54 40 c-29 23 -53
43 -53 45 0 3 315 5 700 5 l700 0 0 -45z m0 -170 l0 -45 -528 0 -528 0 -53 40
c-30 21 -56 42 -59 45 -3 3 259 5 581 5 l587 0 0 -45z m0 -170 l0 -45 -409 0
-409 0 -61 41 c-33 22 -61 43 -61 45 0 2 212 4 470 4 l470 0 0 -45z m-339
-125 l339 0 0 -45 0 -45 -286 0 c-235 0 -292 3 -317 15 -38 18 -120 89 -94 81
10 -3 171 -6 358 -6z m115 -170 l224 0 0 -40 c0 -52 -8 -53 -209 -48 l-159 4
-56 43 c-57 44 -69 58 -40 47 9 -3 117 -6 240 -6z m224 -211 l0 -52 -67 6
c-65 6 -86 16 -163 77 l-25 20 128 0 127 0 0 -51z"/>
<path d="M7250 6946 l0 -306 143 0 c195 1 238 13 291 84 16 21 21 42 21 92 0
65 0 66 -48 110 l-48 46 24 18 c51 41 61 133 19 189 -42 57 -73 66 -244 69
l-158 4 0 -306z m314 211 c30 -20 40 -48 31 -93 -9 -52 -36 -63 -156 -66
l-104 -3 -3 79 c-2 44 0 86 3 94 8 21 193 12 229 -11z m2 -252 c47 -19 70 -72
54 -121 -19 -57 -47 -68 -174 -69 l-111 0 -3 103 -3 102 101 0 c66 0 113 -5
136 -15z"/>
<path d="M7770 6925 c0 -11 17 -15 75 -17 l74 -3 -29 -47 c-33 -53 -70 -155
-70 -193 0 -18 5 -25 20 -25 14 0 20 7 20 23 0 41 41 145 81 207 21 33 39 63
39 65 0 3 -47 5 -105 5 -85 0 -105 -3 -105 -15z"/>
<path d="M1001 4350 c-70 -55 -69 -84 2 -55 15 6 17 -1 17 -84 0 -90 0 -91 25
-91 l25 0 0 135 c0 74 -4 135 -9 135 -5 0 -32 -18 -60 -40z"/>
<path d="M3950 4356 c-24 -26 -22 -56 4 -56 9 0 20 9 26 20 12 23 58 27 66 6
8 -21 -10 -50 -72 -117 -76 -83 -74 -89 36 -89 l90 0 0 26 c0 25 -2 26 -41 20
-62 -10 -65 2 -15 53 83 84 70 161 -27 161 -33 0 -49 -6 -67 -24z"/>
<path d="M7082 4357 c-42 -45 -20 -62 37 -30 21 13 33 15 41 7 15 -15 1 -44
-26 -55 -32 -12 -30 -25 6 -38 36 -12 46 -32 30 -60 -14 -27 -46 -27 -62 -1
-7 11 -19 20 -26 20 -24 0 -25 -31 -2 -56 68 -72 193 20 131 97 -16 20 -16 26
-5 48 19 35 17 48 -6 71 -29 29 -90 27 -118 -3z"/>
<path d="M217 3913 c-9 -168 -7 -1240 2 -1343 l6 -75 100 0 c55 0 467 1 916 3
l817 2 153 137 c376 333 485 447 541 560 27 56 30 67 20 103 -25 99 -126 222
-345 418 -243 218 -358 311 -396 322 -23 6 -357 10 -922 10 l-886 0 -6 -137z
m1813 107 c43 -12 298 -228 489 -414 133 -130 207 -226 231 -299 32 -99 -75
-233 -455 -572 -98 -88 -194 -172 -213 -187 l-35 -28 -902 0 -902 0 -6 122
c-9 156 -9 687 0 1081 l6 307 876 0 c541 0 889 -4 911 -10z"/>
<path d="M375 3849 c-4 -6 -5 -12 -4 -13 2 -2 56 -41 119 -87 312 -225 368
-266 406 -294 22 -16 87 -64 144 -105 57 -41 158 -114 224 -163 67 -48 172
-125 235 -170 62 -45 142 -103 177 -130 83 -62 233 -167 239 -167 3 0 5 257 5
570 l0 570 -769 0 c-535 0 -772 -3 -776 -11z m1525 -124 l0 -45 -631 0 c-691
0 -654 -3 -729 60 l-35 29 698 1 697 0 0 -45z m0 -170 l0 -46 -528 3 -528 3
-52 38 c-28 21 -52 41 -52 43 0 2 261 4 580 4 l580 0 0 -45z m0 -165 l0 -51
-408 3 -409 3 -39 28 c-105 74 -148 67 384 67 l472 0 0 -50z m-2 -167 l3 -43
-291 0 c-312 0 -303 -1 -378 56 l-43 33 353 -2 353 -2 3 -42z m2 -168 l0 -45
-178 0 -179 0 -56 41 c-32 22 -57 42 -57 45 0 2 106 4 235 4 l235 0 0 -45z m0
-171 l0 -46 -68 4 c-67 3 -92 15 -166 80 -6 4 45 8 112 8 l122 0 0 -46z"/>
<path d="M3220 3276 l0 -774 83 -6 c45 -3 457 -4 914 -2 783 3 834 4 860 21
16 10 64 53 108 94 44 42 143 129 218 194 153 131 311 308 353 393 33 68 29
113 -18 191 -46 78 -219 256 -430 440 -212 186 -235 203 -290 214 -24 4 -438
8 -920 9 l-878 0 0 -774z m1811 744 c41 -11 124 -78 363 -293 254 -228 366
-366 366 -452 0 -92 -184 -308 -450 -530 -52 -44 -130 -112 -173 -152 l-79
-73 -909 0 -909 0 0 755 0 755 878 0 c548 0 890 -4 913 -10z"/>
<path d="M3350 3271 l0 -571 775 0 c426 0 775 4 775 8 0 5 -30 30 -67 57 -38
27 -133 97 -213 155 -320 234 -1246 907 -1257 914 -10 6 -13 -110 -13 -563z"/>
<path d="M6220 3275 l0 -775 924 0 924 0 124 113 c68 61 166 149 218 194 109
94 182 167 268 272 72 86 102 143 102 193 0 48 -51 145 -113 215 -68 76 -332
325 -427 404 -41 34 -93 79 -116 100 -22 22 -56 44 -74 49 -22 6 -372 10 -932
10 l-898 0 0 -775z m1872 720 c329 -274 587 -528 636 -624 38 -75 40 -120 11
-176 -49 -91 -190 -241 -417 -443 -242 -215 -262 -232 -285 -232 -12 0 -420 0
-907 -1 l-885 0 -3 756 -2 755 908 -2 908 -3 36 -30z"/>
<path d="M6395 3831 c8 -8 601 -440 1268 -925 258 -188 282 -204 289 -200 4 3
6 258 5 567 l-2 562 -785 3 c-476 1 -780 -1 -775 -7z"/>
<path d="M1048 2118 c-26 -20 -118 -160 -118 -179 0 -18 27 -29 77 -29 25 0
32 -5 35 -22 5 -40 35 -33 59 13 19 38 20 44 6 54 -12 8 -17 33 -19 90 -3 80
-11 95 -40 73z m-11 -155 c-3 -2 -17 -3 -31 -1 l-26 3 27 39 28 39 3 -38 c2
-20 1 -39 -1 -42z"/>
<path d="M3951 2070 c-20 -91 -18 -93 39 -85 46 6 51 5 59 -17 10 -25 -2 -56
-24 -65 -8 -2 -26 5 -41 16 -34 27 -44 26 -44 -2 0 -51 78 -76 127 -42 29 21
46 75 34 108 -11 28 -57 57 -91 57 -11 0 -20 7 -20 14 0 11 15 16 53 18 44 3
52 6 52 23 0 18 -8 20 -67 23 l-66 3 -11 -51z"/>
<path d="M7089 2091 c-26 -26 -29 -36 -29 -90 0 -100 26 -141 90 -141 30 0 43
6 59 26 49 63 10 151 -63 142 -39 -4 -45 6 -21 38 13 18 15 18 45 2 42 -24 50
-23 50 7 0 52 -84 62 -131 16z m86 -146 c0 -34 -3 -40 -22 -43 -16 -2 -26 4
-34 21 -15 33 4 69 34 65 18 -2 22 -10 22 -43z"/>
<path d="M220 1668 c0 -68 -3 -417 -7 -775 l-6 -653 920 0 919 0 34 25 c18 14
88 73 154 132 368 330 473 440 522 547 31 68 26 102 -28 194 -37 64 -280 312
-423 432 -50 41 -125 105 -167 141 -45 38 -91 69 -109 73 -17 3 -431 6 -920 6
l-889 0 0 -122z m1839 81 c62 -38 375 -315 502 -445 128 -131 168 -186 190
-261 11 -40 10 -46 -19 -106 -32 -64 -129 -177 -252 -293 -118 -112 -385 -346
-415 -365 -29 -18 -66 -19 -927 -19 l-898 0 0 755 0 755 893 0 c882 0 892 0
926 -21z"/>
<path d="M370 1029 c0 -453 3 -569 13 -563 6 4 198 143 425 308 228 166 518
377 645 469 392 284 467 340 467 349 0 4 -349 8 -775 8 l-775 0 0 -571z"/>
<path d="M3220 1015 l0 -775 920 0 919 0 38 32 c21 18 70 62 109 98 38 36 136
123 217 194 218 190 357 366 357 451 0 18 -14 60 -31 95 -41 81 -247 294 -453
469 -81 69 -166 141 -187 159 -21 18 -53 37 -71 43 -19 5 -400 9 -925 9 l-893
0 0 -775z m1826 745 c15 -6 61 -41 103 -78 42 -37 116 -101 165 -142 132 -110
366 -351 406 -417 28 -46 35 -68 35 -109 0 -46 -6 -60 -49 -124 -63 -92 -165
-200 -302 -320 -59 -52 -148 -131 -196 -175 -49 -44 -105 -92 -125 -108 l-36
-27 -903 0 -904 0 0 755 0 755 889 0 c589 0 899 -3 917 -10z"/>
<path d="M3350 1010 c0 -314 3 -570 6 -570 8 0 85 53 215 149 64 47 159 118
212 156 54 39 153 111 220 160 68 50 170 124 227 165 57 41 159 116 226 165
68 50 174 126 235 170 157 113 209 154 209 165 0 7 -277 10 -775 10 l-775 0 0
-570z m1409 474 c-7 -9 -33 -30 -58 -47 l-46 -32 -642 -3 -643 -3 0 44 c0 24
3 47 7 50 3 4 319 7 701 7 633 0 693 -1 681 -16z m-230 -170 c-6 -7 -32 -27
-58 -43 l-48 -31 -526 0 -527 0 0 38 c0 21 3 42 7 46 4 3 267 6 585 5 479 -1
577 -4 567 -15z m-219 -158 c0 -3 -26 -23 -57 -45 l-58 -41 -412 0 -413 0 0
45 0 45 470 0 c259 0 470 -2 470 -4z m-271 -199 c-76 -58 -67 -57 -378 -57
l-291 0 0 45 0 45 356 0 357 0 -44 -33z m-199 -141 c0 -3 -25 -23 -57 -45
l-56 -41 -179 0 -178 0 0 45 0 45 235 0 c129 0 235 -2 235 -4z m-235 -174
c-75 -65 -100 -77 -167 -80 l-68 -4 0 46 0 46 122 0 c67 0 118 -4 113 -8z"/>
<path d="M6220 1015 l0 -775 925 0 924 0 83 78 c46 42 155 141 243 218 88 77
187 172 221 210 228 258 224 301 -46 577 -85 88 -193 191 -239 230 -46 40
-120 103 -164 141 -44 37 -95 75 -113 82 -28 12 -190 14 -934 14 l-900 0 0
-775z m1833 741 c48 -21 301 -242 482 -422 291 -288 293 -338 35 -608 -65 -69
-136 -134 -446 -408 l-65 -58 -909 0 -910 0 0 755 0 755 890 0 c737 0 896 -2
923 -14z"/>
<path d="M7824 1497 c-116 -86 -356 -260 -411 -299 -18 -13 -83 -60 -145 -105
-62 -46 -151 -111 -198 -145 -47 -34 -150 -110 -230 -168 -80 -59 -199 -145
-265 -193 -160 -115 -175 -127 -175 -138 0 -5 308 -9 775 -9 l775 0 0 570 c0
314 -3 570 -7 570 -5 -1 -58 -38 -119 -83z m106 -87 l0 -50 -127 0 -128 1 35
29 c57 48 110 70 168 70 l52 0 0 -50z m0 -165 l0 -45 -235 0 c-129 0 -235 2
-235 4 0 9 96 74 115 79 11 2 95 5 188 6 l167 1 0 -45z m0 -170 l0 -45 -355
-2 c-195 -2 -355 -1 -355 2 0 5 31 27 99 72 23 16 57 18 319 18 l292 0 0 -45z
m0 -170 l0 -45 -472 0 c-259 0 -469 2 -466 5 3 3 29 24 59 45 l53 40 413 0
413 0 0 -45z m0 -170 l0 -45 -587 0 c-336 0 -583 4 -577 9 5 5 31 25 57 45
l49 36 529 0 529 0 0 -45z m-2 -170 l3 -45 -700 0 c-386 0 -701 2 -701 5 0 12
108 84 130 87 14 1 304 2 645 0 l620 -3 3 -44z"/>
</g>
</svg>
