<?xml version="1.0" standalone="no"?>
<!DOCTYPE svg PUBLIC "-//W3C//DTD SVG 20010904//EN"
 "http://www.w3.org/TR/2001/REC-SVG-20010904/DTD/svg10.dtd">
<svg version="1.0" xmlns="http://www.w3.org/2000/svg"
 width="900.000000pt" height="922.000000pt" viewBox="0 0 900.000000 922.000000"
 preserveAspectRatio="xMidYMid meet">
<metadata>
Created by potrace 1.16, written by Peter Selinger 2001-2019
</metadata>
<g transform="translate(0.000000,922.000000) scale(0.100000,-0.100000)"
fill="#FFFFFF" stroke="none">
<path d="M218 8958 c-2 -24 -3 -1001 -1 -2173 l3 -2130 3388 0 3387 0 3 2173
2 2172 -3389 0 -3388 0 -5 -42z m492 19 c0 -1 -51 -53 -113 -115 l-112 -112
-115 115 -115 115 228 0 c125 0 227 -1 227 -3z m390 -112 l-114 -115 -112 108
c-61 59 -112 110 -113 115 0 4 101 7 226 7 l228 0 -115 -115z m610 112 c0 -1
-51 -53 -113 -115 l-112 -112 -115 115 -115 115 228 0 c125 0 227 -1 227 -3z
m390 -112 l-116 -115 -112 112 c-61 61 -112 113 -112 115 0 2 102 3 227 3
l228 0 -115 -115z m500 0 l-116 -115 -112 112 c-61 61 -112 113 -112 115 0 2
102 3 227 3 l228 0 -115 -115z m498 -2 c-65 -64 -119 -115 -120 -112 -2 2 -52
55 -113 117 l-110 112 230 0 230 0 -117 -117z m612 114 c0 -1 -51 -53 -113
-115 l-112 -112 -115 115 -115 115 228 0 c125 0 227 -1 227 -3z m142 -360
l-117 -117 -120 120 -120 120 118 118 118 118 119 -121 120 -120 -118 -118z
m248 248 l-116 -115 -112 112 c-61 61 -112 113 -112 115 0 2 102 3 227 3 l228
0 -115 -115z m600 107 c0 -4 -49 -56 -108 -115 l-108 -107 -112 112 c-62 62
-112 113 -112 115 0 2 99 3 220 3 121 0 220 -3 220 -8z m150 -356 c-67 -65
-122 -117 -123 -115 -1 3 -54 57 -117 122 l-115 117 118 118 118 118 119 -121
120 -120 -120 -119z m248 247 c-65 -64 -119 -115 -120 -112 -2 2 -52 55 -113
117 l-110 112 230 0 230 0 -117 -117z m250 -245 c-67 -65 -121 -117 -122 -115
-1 1 -53 55 -116 120 l-115 117 118 118 118 118 119 -120 118 -120 -120 -118z
m352 354 c0 -10 -219 -227 -223 -221 -1 3 -51 55 -112 117 l-110 112 223 0
c122 0 222 -4 222 -8z m260 -236 c0 -8 -231 -240 -233 -234 -1 2 -54 56 -117
121 l-115 117 118 118 118 118 114 -116 c63 -64 115 -119 115 -124z m240 237
c0 -9 -209 -213 -218 -213 -4 0 -57 50 -117 110 l-110 110 223 0 c122 0 222
-3 222 -7z m260 -235 c0 -6 -232 -240 -234 -235 -1 1 -53 55 -116 120 l-115
117 118 118 118 118 114 -116 c63 -64 115 -118 115 -122z m240 237 c0 -3 -49
-54 -109 -114 l-109 -109 -113 114 -114 114 223 0 c122 0 222 -2 222 -5z m141
-111 c63 -63 114 -119 114 -124 0 -5 -51 -61 -113 -123 l-112 -114 -117 119
-117 118 114 119 c63 65 115 119 116 120 1 0 52 -51 115 -115z m139 6 c0 -60
-1 -110 -3 -110 -1 0 -52 50 -112 110 l-110 110 113 0 112 0 0 -110z m-6624
-249 l-116 -116 0 234 0 234 116 -118 115 -119 -115 -115z m516 214 l98 -100
-117 -117 -118 -118 -118 118 -118 118 118 116 c114 113 118 116 138 100 11
-9 64 -62 117 -117z m482 18 l115 -118 -117 -118 -117 -117 -119 119 -119 119
114 115 c63 63 117 115 121 116 4 1 59 -52 122 -116z m499 -1 l117 -117 -118
-118 -117 -117 -120 120 -120 120 115 115 c63 63 117 115 120 115 3 0 58 -53
123 -118z m501 1 l115 -118 -117 -118 -117 -117 -120 120 -120 120 115 115
c63 63 118 115 122 115 3 0 59 -53 122 -117z m499 -1 l117 -117 -118 -118
-117 -117 -120 120 -120 120 115 115 c63 63 117 115 120 115 3 0 58 -53 123
-118z m500 0 l117 -117 -120 -120 c-65 -65 -121 -117 -122 -114 -2 2 -55 57
-118 122 l-115 117 115 115 c63 63 117 115 120 115 3 0 58 -53 123 -118z
m1000 0 l117 -117 -118 -118 -117 -117 -120 120 -120 120 115 115 c63 63 117
115 120 115 3 0 58 -53 123 -118z m-3747 -248 l117 -116 -119 -119 -119 -119
-119 119 -119 119 114 115 c63 63 117 116 121 116 3 1 59 -51 124 -115z m498
-1 l117 -117 -118 -118 -118 -118 -120 120 -120 120 115 115 c63 63 118 115
121 115 4 0 59 -53 123 -117z m501 0 l115 -118 -118 -118 -117 -117 -120 120
-120 120 115 115 c63 63 118 115 123 115 4 0 59 -53 122 -117z m500 -2 l117
-114 -119 -119 -118 -118 -120 120 -120 120 115 115 c63 63 118 114 122 113 3
-2 59 -54 123 -117z m498 1 l117 -117 -118 -118 -117 -117 -120 120 -120 120
115 115 c63 63 117 115 120 115 3 0 58 -53 123 -118z m500 0 l117 -117 -118
-118 -117 -117 -120 120 -120 120 115 115 c63 63 117 115 120 115 3 0 58 -53
123 -118z m500 0 l117 -117 -118 -117 -118 -117 -119 119 -120 120 115 115
c63 63 117 115 120 115 3 0 58 -53 123 -118z m500 0 l118 -118 -115 -112 c-63
-62 -118 -112 -123 -112 -5 0 -60 52 -123 115 l-115 115 115 115 c63 63 117
115 120 115 3 0 58 -53 123 -118z m622 -122 c129 -129 235 -238 235 -242 0 -8
-232 -241 -234 -235 -1 1 -53 55 -116 120 l-115 117 115 115 c63 63 112 116
109 119 -2 3 -56 -46 -120 -109 l-115 -114 -119 119 -120 120 115 115 c63 63
118 114 122 113 5 -2 114 -109 243 -238z m378 122 l117 -118 -120 -118 c-66
-66 -121 -117 -123 -115 -1 3 -54 57 -117 122 l-115 117 115 115 c63 63 117
115 120 115 3 0 58 -53 123 -118z m619 -119 c131 -131 238 -241 238 -244 0 -4
-52 -58 -116 -121 l-115 -114 -117 118 -116 118 114 115 c63 63 111 117 108
120 -3 3 -58 -45 -123 -107 l-117 -113 -116 118 -116 117 114 115 c63 63 117
115 120 115 3 0 112 -107 242 -237z m503 -3 l240 -240 -118 -118 -118 -118
-117 118 -116 118 114 115 c63 63 111 117 107 121 -4 4 -57 -43 -118 -104 -61
-62 -114 -112 -118 -112 -3 0 -58 52 -121 115 l-115 115 115 115 c63 63 117
115 120 115 3 0 113 -108 245 -240z m500 0 l240 -240 -118 -118 -118 -118
-117 118 -116 118 114 115 c63 63 111 117 107 121 -3 3 -56 -43 -117 -102 -61
-60 -115 -110 -118 -112 -4 -1 -59 50 -122 113 l-115 115 115 115 c63 63 117
115 120 115 3 0 113 -108 245 -240z m255 10 c0 -126 -2 -230 -4 -230 -7 0
-221 222 -221 230 0 10 206 227 218 229 4 0 7 -102 7 -229z m-6126 -371 l-119
-119 -120 120 -119 119 119 121 120 120 119 -120 120 -121 -120 -120z m998 -2
l-117 -117 -120 120 -120 120 120 120 119 120 118 -123 117 -122 -117 -118z
m501 1 l-118 -118 -120 120 -120 120 119 119 119 119 119 -121 118 -122 -117
-117z m499 -1 l-117 -117 -120 120 -120 120 119 119 119 119 118 -122 118
-121 -117 -118z m1500 2 l-117 -116 -120 118 -120 119 118 118 118 119 119
-121 119 -121 -117 -116z m-3995 4 l-117 -118 0 235 0 235 117 -118 118 -117
-118 -117z m998 230 l116 -117 -118 -118 -118 -118 -120 120 -120 120 115 115
c63 63 118 115 122 115 5 0 60 -53 123 -117z m2000 -2 l117 -115 -119 -117
-120 -118 -119 120 -119 119 115 115 c63 63 118 114 122 113 3 -2 59 -54 123
-117z m498 1 l117 -117 -118 -118 -117 -117 -120 120 -120 120 115 115 c63 63
117 115 120 115 3 0 58 -53 123 -118z m1497 3 l114 -114 -89 -93 c-106 -110
-147 -150 -149 -145 0 1 -53 55 -116 120 l-115 117 115 115 c63 63 117 115
120 115 3 0 57 -52 120 -115z m-4245 -485 l-120 -120 -120 120 -120 120 120
120 120 120 120 -120 120 -120 -120 -120z m999 -1 l-120 -118 -119 119 -120
120 120 120 120 120 119 -121 120 -121 -120 -119z m498 -1 l-118 -117 -119
119 -120 120 119 119 119 120 118 -122 119 -122 -118 -117z m500 0 l-118 -117
-119 119 -120 120 118 118 118 119 120 -121 119 -121 -118 -117z m1000 5 c-65
-62 -119 -113 -122 -113 -3 0 -57 52 -120 115 l-115 115 118 118 118 118 118
-120 119 -120 -116 -113z m502 0 c-63 -62 -118 -113 -122 -113 -4 0 -59 52
-122 115 l-115 115 118 118 118 118 118 -120 119 -120 -114 -113z m-3994 232
l115 -115 -120 -120 -120 -120 -119 119 -118 118 113 116 c63 64 119 116 124
117 6 0 62 -52 125 -115z m996 -2 l115 -118 -114 -112 c-62 -62 -118 -113
-123 -113 -5 0 -61 52 -124 115 l-115 115 115 115 c63 63 118 115 123 115 5 0
60 -53 123 -117z m1997 -1 l117 -118 -118 -116 -118 -117 -119 119 -120 120
115 115 c63 63 117 115 120 115 3 0 58 -53 123 -118z m1622 -122 l240 -240
-118 -117 -117 -118 -117 117 -118 118 115 115 c63 63 111 117 108 121 -4 3
-57 -44 -118 -105 -61 -61 -114 -111 -118 -111 -4 0 -59 52 -122 115 l-115
115 115 115 c63 63 117 115 120 115 3 0 113 -108 245 -240z m500 0 l240 -240
-118 -117 -117 -118 -117 117 -118 118 115 115 c63 63 111 117 107 121 -4 4
-57 -42 -117 -102 -61 -60 -114 -110 -118 -112 -4 -1 -59 50 -122 113 l-115
115 115 115 c63 63 117 115 120 115 3 0 113 -108 245 -240z m500 0 l240 -240
-118 -118 -118 -118 -117 118 -116 118 114 115 c63 63 111 118 107 122 -4 4
-59 -44 -122 -107 l-115 -115 -117 118 -118 117 115 115 c63 63 117 115 120
115 3 0 113 -108 245 -240z m500 0 l240 -240 -118 -118 -118 -118 -117 118
-116 118 114 115 c63 63 111 118 107 122 -4 4 -60 -45 -123 -108 l-115 -115
-117 118 -116 118 114 115 c63 63 117 115 120 115 3 0 113 -108 245 -240z
m255 8 l0 -233 -117 117 -117 118 109 113 c61 63 113 115 118 116 4 0 7 -104
7 -231z m-6120 -363 c-63 -63 -119 -115 -125 -115 -6 0 -62 52 -125 115 l-115
115 120 120 120 120 120 -120 120 -120 -115 -115z m494 -6 l-119 -119 -120
120 -120 120 120 120 120 120 119 -121 119 -120 -119 -120z m499 -1 l-118
-118 -120 120 -120 120 119 119 120 120 118 -122 119 -121 -118 -118z m505 5
c-62 -62 -118 -113 -123 -113 -6 0 -62 52 -125 115 l-115 115 119 119 119 119
119 -121 118 -122 -112 -112z m581 147 l33 -28 -121 -123 c-66 -67 -122 -120
-123 -118 -2 3 -55 57 -118 122 l-115 117 119 119 119 119 86 -90 c47 -50 101
-103 120 -118z m414 -152 l-119 -117 -119 119 -120 120 119 119 119 119 119
-121 119 -121 -118 -118z m567 169 l49 -44 -116 -116 c-63 -65 -118 -117 -122
-117 -3 0 -58 52 -121 115 l-115 115 119 119 119 120 69 -74 c38 -41 91 -94
118 -118z m535 -51 c0 -6 -51 -60 -113 -121 l-113 -109 -117 117 -117 117 119
119 118 119 112 -115 c61 -64 111 -120 111 -127z m504 -3 c-2 -4 -55 -57 -117
-118 l-113 -109 -117 117 -117 117 118 118 118 118 116 -117 c63 -65 114 -121
112 -126z m-4602 -110 l-117 -118 0 235 0 235 117 -118 118 -117 -118 -117z
m248 -253 l-120 -120 -119 120 -119 120 119 120 118 120 121 -120 120 -120
-120 -120z m500 0 l-120 -120 -119 120 -120 121 120 120 119 119 120 -120 120
-120 -120 -120z m500 0 l-120 -120 -120 120 -120 120 120 120 120 120 120
-120 120 -120 -120 -120z m498 -1 l-119 -118 -119 119 -120 120 120 120 120
120 119 -122 118 -121 -119 -118z m503 4 c-63 -62 -118 -113 -123 -113 -4 0
-60 52 -123 115 l-115 115 120 120 119 120 118 -123 118 -122 -114 -112z m498
2 c-63 -63 -118 -115 -122 -115 -4 0 -59 52 -122 115 l-115 115 120 120 119
120 117 -120 117 -120 -114 -115z m834 -104 l33 -28 -121 -119 -121 -119 -117
117 -116 118 114 115 c63 63 111 117 107 121 -3 3 -113 -100 -243 -230 -131
-130 -240 -236 -244 -236 -3 0 -57 52 -120 115 l-115 115 120 120 120 120 114
-115 c63 -63 117 -113 120 -110 3 3 -46 57 -109 120 l-115 115 119 119 118
118 212 -214 c116 -118 226 -227 244 -242z m522 -36 c-3 -5 -56 -59 -118 -120
l-113 -109 -117 117 -117 117 115 115 c63 63 111 117 108 120 -3 3 -58 -44
-123 -106 l-116 -113 -117 117 -117 117 118 118 118 119 242 -241 c133 -133
240 -245 237 -251z m388 -110 l-118 -120 -117 117 -118 118 115 115 c63 63
111 118 107 122 -4 4 -59 -44 -122 -107 l-115 -115 -117 118 -118 117 118 118
117 118 243 -241 242 -240 -117 -120z m619 128 c4 4 -44 59 -107 122 l-115
115 118 118 118 118 117 -118 117 -119 -243 -242 -242 -242 -118 118 -117 117
115 115 c63 63 111 118 107 122 -4 4 -59 -44 -122 -107 l-115 -115 -117 118
-118 117 118 118 117 118 240 -240 c131 -132 242 -237 247 -233z m880 -131
l-117 -117 -117 117 -118 118 115 115 c63 63 111 118 107 122 -4 4 -59 -44
-122 -107 l-115 -115 -117 118 -118 117 118 118 117 118 242 -243 243 -243
-118 -118z m378 358 l240 -240 -118 -117 -117 -118 -117 117 -118 118 115 115
c63 63 111 118 107 122 -4 4 -59 -44 -122 -107 l-115 -114 -118 116 -118 117
115 116 c64 63 118 115 121 115 3 0 113 -108 245 -240z m255 10 c0 -126 -1
-230 -3 -230 -2 0 -55 52 -118 115 l-116 116 111 113 c61 62 114 113 119 114
4 1 7 -101 7 -228z m-6120 -365 c-63 -63 -119 -115 -125 -115 -6 0 -62 52
-125 115 l-115 115 120 120 120 120 120 -120 120 -120 -115 -115z m498 0 c-64
-63 -121 -115 -125 -115 -5 0 -60 52 -123 115 l-115 115 120 120 120 120 120
-120 120 -120 -117 -115z m612 117 c0 -5 -234 -232 -240 -232 -3 0 -57 52
-120 115 l-115 115 120 120 120 120 117 -117 c65 -65 118 -119 118 -121z m383
118 l117 -121 -116 -114 c-64 -63 -119 -115 -123 -115 -3 0 -58 52 -121 115
l-115 115 120 120 c66 66 120 120 121 120 0 0 53 -54 117 -120z m607 -120 c-2
-9 -222 -230 -229 -230 -3 0 -58 52 -121 115 l-115 115 120 120 119 119 114
-117 c62 -64 113 -119 112 -122z m2895 112 l109 -112 -117 -118 -118 -118
-117 118 -116 118 119 120 c66 66 122 116 125 112 3 -4 55 -58 115 -120z
m-5498 -229 l-117 -118 0 235 0 235 117 -118 118 -117 -118 -117z m250 -250
l-118 -117 -119 119 -120 120 117 117 118 118 120 -120 120 -120 -118 -117z
m501 2 c-64 -63 -120 -115 -125 -115 -4 0 -60 52 -123 115 l-115 115 120 120
120 120 120 -120 120 -121 -117 -114z m499 1 c-64 -64 -120 -116 -125 -116 -5
0 -60 52 -122 116 l-112 116 118 119 119 119 119 -119 118 -118 -115 -117z
m501 0 c-64 -64 -120 -116 -125 -116 -5 0 -60 52 -122 116 l-114 115 119 120
119 119 119 -119 119 -120 -115 -115z m496 3 c-63 -63 -118 -115 -122 -117 -4
-1 -59 50 -122 113 l-115 115 120 120 120 120 117 -118 118 -119 -116 -114z
m501 0 c-64 -63 -119 -115 -123 -117 -4 -1 -59 50 -122 113 l-115 115 120 120
120 120 118 -118 117 -119 -115 -114z m499 -1 c-63 -62 -118 -114 -122 -116
-4 -1 -59 50 -122 113 l-115 115 120 120 120 120 116 -119 117 -120 -114 -113z
m374 -125 c-131 -131 -242 -239 -246 -241 -4 -1 -59 50 -122 113 l-115 115
115 117 c63 65 117 120 119 123 2 3 54 -49 117 -114 62 -66 117 -116 121 -113
4 4 -44 59 -107 122 l-115 115 119 119 120 120 116 -119 117 -119 -239 -238z
m908 -90 l-81 -83 -75 0 -75 0 -80 80 -80 80 115 115 c63 63 111 118 107 122
-4 4 -59 -44 -122 -107 l-115 -115 -117 118 -118 117 119 119 118 119 242
-242 242 -241 -80 -82z m499 0 l-80 -83 -75 0 -75 0 -80 80 -80 80 115 115
c63 63 111 118 107 122 -4 4 -59 -44 -122 -107 l-115 -115 -117 118 -118 117
118 118 118 119 242 -241 242 -241 -80 -82z m1304 -197 l-277 -279 -124 112
-125 113 33 33 33 34 115 -117 c63 -64 118 -113 122 -109 5 4 -43 59 -106 122
l-115 115 118 118 118 118 114 -115 c63 -64 117 -112 121 -108 5 4 -43 59
-106 122 l-115 115 115 115 c63 63 111 118 107 122 -4 4 -59 -44 -122 -107
l-115 -115 -117 118 -118 117 118 118 117 118 243 -241 242 -240 -276 -279z
m-961 512 l238 -237 -81 -81 -80 -80 -75 0 -75 0 -80 80 -80 80 115 115 c63
63 111 118 107 122 -4 4 -59 -44 -122 -107 l-115 -115 -117 118 -118 117 115
115 c63 63 118 114 122 113 5 -2 115 -110 246 -240z m372 127 l115 -115 -118
-118 -117 -117 -117 117 -118 118 115 115 c63 63 117 115 120 115 3 0 57 -52
120 -115z m880 -117 l0 -233 -117 117 -117 118 109 113 c61 63 113 115 118
116 4 0 7 -104 7 -231z m-6124 -364 l-119 -116 -118 118 -119 119 117 117 118
118 120 -120 120 -120 -119 -116z m601 107 c-7 -9 -59 -62 -117 -118 l-106
-102 -119 115 -119 114 119 120 120 120 117 -117 c99 -98 115 -119 105 -132z
m500 0 c-6 -9 -60 -63 -119 -121 l-108 -104 -118 117 -117 117 120 120 120
120 116 -116 c98 -98 115 -120 106 -133z m500 0 c-21 -26 -221 -221 -227 -221
-3 0 -57 52 -120 115 l-115 115 120 120 120 120 117 -117 c98 -97 115 -119
105 -132z m392 -106 l-119 -120 -117 118 -118 117 120 120 120 121 116 -118
116 -118 -118 -120z m608 106 c-6 -9 -60 -63 -119 -121 l-108 -104 -118 117
-117 117 120 120 120 120 116 -117 c96 -96 115 -120 106 -132z m893 130 l117
-120 -81 -80 -81 -81 -75 0 -75 0 -80 80 -79 80 114 118 c63 66 117 120 119
121 2 0 56 -53 121 -118z m1998 -236 l-118 -120 -117 117 -117 118 114 117
115 118 120 -115 121 -115 -118 -120z m-5888 106 c-5 -9 -56 -63 -114 -121
l-106 -105 0 235 0 235 114 -114 c89 -89 113 -118 106 -130z m179 -326 c-46
-48 -100 -100 -120 -116 l-36 -28 -116 117 -117 117 118 118 117 117 119 -119
119 -119 -84 -87z m465 -29 l-116 -119 -119 119 -119 119 117 117 118 118 118
-118 117 -117 -116 -119z m615 112 c-2 -2 -57 -54 -120 -116 l-116 -114 -116
119 -117 118 118 118 117 117 119 -120 c66 -65 118 -121 115 -122z m386 -109
c-64 -62 -119 -115 -123 -117 -4 -1 -59 50 -122 113 l-115 115 120 120 120
120 118 -118 118 -118 -116 -115z m500 0 c-64 -62 -119 -115 -123 -117 -4 -1
-59 50 -122 113 l-115 115 120 120 120 120 118 -118 118 -118 -116 -115z m614
109 c-2 -2 -57 -55 -122 -118 l-116 -114 -115 119 -115 120 117 118 117 117
119 -120 c66 -65 118 -121 115 -122z m386 -109 c-64 -62 -119 -115 -123 -117
-4 -1 -59 50 -122 113 l-115 115 120 120 120 120 118 -118 118 -118 -116 -115z
m524 111 l-1 -95 -75 -70 -74 -69 -117 117 -117 117 120 120 120 120 72 -72
73 -72 -1 -96z m491 98 c0 -5 -63 -8 -140 -8 -77 0 -140 2 -140 4 0 2 33 36
73 74 l72 71 68 -67 c37 -36 67 -70 67 -74z m435 67 l67 -75 -141 0 c-78 0
-141 2 -141 3 0 6 134 144 141 146 4 0 37 -33 74 -74z m430 -73 c-76 -1 -139
-1 -142 1 -2 2 29 36 69 76 l73 72 69 -73 69 -73 -138 -3z m696 -124 l-34 -37
-89 79 -88 80 -65 0 c-36 0 -65 2 -65 4 0 2 32 35 72 74 l71 69 116 -116 116
-116 -34 -37z m799 30 l0 -233 -117 117 -117 118 109 113 c61 63 113 115 118
116 4 0 7 -104 7 -231z m-851 -72 c223 -192 472 -438 504 -499 44 -81 49 -114
27 -165 -48 -108 -173 -244 -455 -492 -104 -92 -200 -179 -213 -192 l-23 -25
-902 2 c-496 2 -905 3 -909 4 -5 0 -8 341 -8 756 l0 755 906 0 906 0 167 -144z
m-5669 -185 c-5 -9 -56 -63 -114 -121 l-106 -105 0 236 0 235 115 -115 c89
-89 112 -118 105 -130z m509 16 c0 -4 -52 -59 -116 -122 l-118 -114 -118 117
-117 117 117 117 117 118 117 -113 c64 -61 117 -115 118 -120z m384 -119
l-118 -118 -117 117 -118 118 117 117 118 118 117 -117 118 -118 -117 -117z
m500 0 c-64 -65 -118 -116 -119 -115 -2 1 -55 53 -119 116 l-116 115 118 118
118 118 117 -117 118 -118 -117 -117z m498 -1 l-118 -119 -119 115 -119 116
120 120 120 121 117 -117 118 -118 -119 -118z m499 -2 l-120 -120 -117 118
-118 117 120 120 120 120 117 -117 118 -118 -120 -120z m499 0 l-119 -120
-117 118 -117 117 119 120 120 121 117 -118 116 -118 -119 -120z m501 0 l-120
-120 -117 118 -118 117 120 120 120 120 117 -117 118 -118 -120 -120z m2998
233 l118 -118 -118 -117 -118 -118 -117 117 -117 118 114 117 c63 65 116 118
117 118 1 0 56 -53 121 -117z m-2718 -120 l0 -133 -67 67 -68 68 65 65 c35 36
66 65 67 65 2 0 3 -60 3 -132z m-3526 -361 l-119 -116 -118 117 -117 117 117
117 118 118 119 -119 119 -119 -119 -115z m499 0 l-118 -117 -118 118 -117
117 117 117 118 118 118 -118 118 -118 -118 -117z m616 111 c-2 -2 -56 -54
-120 -116 l-115 -113 -117 118 -117 118 118 118 117 117 119 -120 c66 -65 118
-121 115 -122z m384 -111 l-118 -117 -118 118 -117 117 117 117 118 118 118
-118 118 -118 -118 -117z m616 111 c-2 -2 -56 -54 -120 -116 l-115 -113 -117
118 -117 118 118 118 117 117 119 -120 c66 -65 118 -121 115 -122z m386 -109
c-64 -62 -119 -115 -124 -117 -4 -1 -58 50 -121 114 l-113 116 119 119 119
119 118 -118 118 -118 -116 -115z m500 0 c-64 -62 -119 -115 -124 -117 -4 -1
-59 50 -121 114 l-112 116 118 119 119 119 118 -118 118 -118 -116 -115z m524
111 l-1 -95 -74 -69 -75 -70 -117 117 -117 117 120 120 120 120 72 -72 73 -72
-1 -96z m2557 -27 c-17 -18 -32 -33 -35 -33 -4 0 -20 22 -38 48 -18 26 -66 81
-107 122 l-76 74 25 27 26 26 117 -116 117 -116 -29 -32z m294 25 l0 -233
-115 115 c-63 63 -114 118 -112 123 3 11 211 224 220 226 4 0 7 -104 7 -231z
m-6510 -246 c0 -4 -28 -33 -62 -65 -35 -33 -87 -82 -115 -110 l-53 -51 0 229
0 230 115 -113 c63 -62 115 -116 115 -120z m383 121 c97 -97 114 -119 104
-131 -6 -9 -59 -62 -117 -118 l-105 -103 -118 117 -117 117 117 117 c65 65
118 118 118 118 1 0 54 -53 118 -117z m500 0 l117 -117 -117 -118 -118 -118
-117 117 -118 118 117 117 c65 65 118 118 118 118 1 0 54 -53 118 -117z m616
-111 c3 -1 -49 -57 -114 -122 l-120 -120 -117 117 -118 118 117 117 118 118
115 -113 c63 -61 117 -113 119 -115z m500 0 c3 -1 -49 -57 -115 -123 l-120
-120 -117 118 -117 118 118 117 117 118 115 -113 c63 -61 117 -113 119 -115z
m382 -126 l-120 -120 -115 120 -116 119 117 118 118 117 117 -117 118 -118
-119 -119z m502 236 l117 -117 -119 -119 -119 -119 -118 116 -118 117 114 118
c63 66 117 120 120 121 3 0 58 -52 123 -117z m500 0 l117 -117 -120 -120 -120
-120 -117 118 -117 117 115 119 c62 65 116 119 119 120 3 0 58 -52 123 -117z
m2994 -2 l119 -120 -118 -117 -118 -118 -61 61 -61 61 37 57 c45 67 56 131 31
189 -15 38 -15 38 17 71 17 19 33 34 34 35 0 0 55 -53 120 -119z m-2717 -122
l0 -133 -67 67 -68 68 65 65 c35 36 66 65 67 65 2 0 3 -60 3 -132z m-3418
-233 c5 -8 -37 -57 -110 -128 l-117 -117 -118 118 -117 117 117 117 117 117
110 -106 c61 -59 114 -112 118 -118z m391 -128 l-118 -116 -118 117 -117 117
117 117 118 118 118 -118 119 -119 -119 -116z m609 128 c4 -6 -43 -61 -110
-128 l-118 -118 -117 118 -117 118 118 117 117 118 109 -108 c61 -59 114 -111
118 -117z m391 -127 l-118 -118 -117 117 -118 118 117 117 118 118 117 -117
118 -118 -117 -117z m499 -1 l-119 -119 -116 119 -117 118 118 118 117 117
117 -117 118 -118 -118 -118z m500 0 l-118 -118 -55 53 c-30 29 -83 83 -117
119 l-62 66 118 116 117 117 118 -118 117 -117 -118 -118z m497 -2 l-120 -120
-114 120 -114 120 117 118 117 117 117 -117 118 -118 -121 -120z m530 115 l-1
-95 -74 -69 -75 -70 -117 117 -117 117 120 120 120 120 72 -72 73 -72 -1 -96z
m2851 -2 l0 -233 -117 117 -117 118 109 113 c61 63 113 115 118 116 4 0 7
-104 7 -231z m-195 -63 l180 -185 -118 -118 -117 -117 -117 118 -118 117 115
115 c63 63 111 118 107 122 -4 4 -59 -44 -122 -107 l-115 -115 -57 57 -56 56
114 121 c63 66 116 121 119 121 3 0 86 -83 185 -185z m-6393 -260 c-42 -44
-94 -95 -114 -114 l-38 -33 0 230 0 230 115 -116 115 -116 -78 -81z m466 200
l116 -116 -119 -119 -120 -120 -117 117 -118 118 117 117 c65 65 119 118 121
118 3 0 56 -52 120 -115z m496 -2 l118 -116 -119 -119 -118 -118 -117 117
-118 118 117 117 c65 65 118 118 118 118 1 0 54 -52 119 -117z m499 0 l117
-117 -117 -118 -118 -118 -117 117 -118 118 117 117 c65 65 118 118 118 118 1
0 54 -53 118 -117z m500 0 l117 -117 -117 -118 -118 -118 -117 117 -118 118
117 117 c65 65 118 118 118 118 1 0 54 -53 118 -117z m616 -111 c3 -1 -49 -57
-116 -123 l-120 -121 -117 118 -116 119 117 117 118 118 115 -113 c63 -61 117
-113 119 -115z m500 0 c3 -1 -49 -57 -115 -123 l-120 -120 -117 118 -117 118
118 117 117 118 115 -113 c63 -61 117 -113 119 -115z m383 -125 l-118 -118
-117 118 -117 118 118 118 117 117 117 -117 118 -118 -118 -118z m278 111 l0
-133 -67 67 -68 68 65 65 c35 36 66 65 67 65 2 0 3 -60 3 -132z m2283 64 l57
-57 -120 -120 -120 -120 -65 65 c-36 36 -64 68 -62 73 3 9 239 216 247 216 3
1 31 -25 63 -57z m-5808 -188 c63 -64 115 -117 115 -118 0 -2 -53 -55 -117
-119 l-118 -117 -118 118 -117 117 117 117 c65 65 119 118 121 118 1 0 54 -52
117 -116z m501 -2 l117 -114 -119 -119 -119 -119 -117 117 -118 118 117 117
c64 65 118 116 119 115 1 -1 55 -53 120 -115z m609 -104 c5 -5 -41 -58 -110
-128 l-120 -120 -117 117 -118 118 117 117 117 118 111 -107 c60 -59 114 -111
120 -115z m388 -131 l-118 -117 -118 118 -117 117 117 117 118 118 118 -118
118 -118 -118 -117z m609 128 c4 -6 -43 -61 -110 -128 l-117 -117 -117 117
-118 118 117 117 118 118 109 -108 c61 -59 114 -111 118 -117z m508 -3 c2 -1
-50 -57 -115 -122 l-120 -120 -117 117 -118 118 117 117 117 118 116 -113 c63
-61 117 -113 120 -115z m382 -125 l-118 -118 -117 118 -117 118 118 118 117
117 117 -117 118 -118 -118 -118z m528 181 c0 -33 7 -38 65 -40 l46 -2 -129
-129 -128 -128 -117 118 -117 118 118 117 117 118 72 -72 c55 -55 73 -79 73
-100z m2470 -183 l-120 -120 -117 118 -118 117 120 120 120 120 117 -118 117
-117 -119 -120z m380 113 l0 -233 -117 117 -117 118 109 113 c61 63 113 115
118 116 4 0 7 -104 7 -231z m-880 -113 l-120 -120 -116 117 c-83 82 -115 121
-111 132 5 13 24 16 108 16 l101 0 61 55 62 55 68 -68 67 -67 -120 -120z
m-1465 146 l100 -6 -125 -128 -126 -128 -118 114 c-66 65 -116 121 -114 129 8
24 177 32 383 19z m594 -7 c3 -2 -52 -62 -122 -132 l-128 -127 -115 118 c-64
65 -114 123 -111 130 2 7 21 15 43 19 43 7 425 1 433 -8z m500 0 c2 -2 -53
-61 -123 -132 l-127 -127 -115 119 c-62 65 -114 124 -114 132 0 10 22 14 88
16 99 3 385 -3 391 -8z m-5259 -264 c0 -3 -16 -22 -36 -42 -35 -38 -36 -38
-115 -38 l-79 0 0 157 0 158 115 -115 c63 -63 115 -117 115 -120z m387 114
l114 -116 -28 -32 c-15 -17 -29 -33 -31 -36 -2 -3 -78 -6 -169 -6 l-166 -1
-39 35 -39 35 118 119 c65 65 120 118 122 118 2 0 55 -52 118 -116z m499 1
l117 -114 -29 -35 c-37 -44 -59 -48 -232 -44 l-141 3 -36 35 -35 34 117 118
c65 65 119 118 120 118 1 0 55 -52 119 -115z m500 -1 l116 -116 -28 -31 c-16
-18 -30 -34 -32 -36 -1 -3 -80 -4 -175 -2 l-172 2 -33 32 -32 31 117 118 c65
65 119 118 120 118 1 0 55 -52 119 -116z m497 -1 l116 -117 -27 -32 c-15 -17
-38 -34 -52 -36 -14 -3 -92 -4 -173 -3 l-149 3 -34 33 -34 33 117 118 c65 65
118 118 119 118 1 0 54 -53 117 -117z m615 -113 c1 -3 -13 -21 -30 -40 l-32
-34 -165 -2 -166 -1 -38 36 -37 35 117 118 117 118 117 -113 c64 -61 117 -114
117 -117z m474 -35 c-15 -16 -28 -31 -28 -33 -1 -2 -78 -5 -170 -7 l-169 -4
-38 37 -37 36 117 118 118 118 117 -117 118 -117 -28 -31z m500 -1 c-15 -18
-34 -34 -42 -36 -8 -3 -89 -3 -180 0 l-165 4 -28 31 -29 30 119 119 118 118
117 -117 117 -117 -27 -32z m500 1 c-15 -16 -29 -32 -30 -35 -2 -3 -82 -3
-178 -2 l-174 4 -32 29 -31 30 119 120 119 119 117 -117 118 -117 -28 -31z
m410 148 l117 -118 -32 -35 -31 -35 -173 3 -173 2 -29 32 -30 33 112 116 c62
64 114 117 117 118 3 0 58 -52 122 -116z m590 -147 c-15 -17 -31 -34 -36 -37
-5 -4 -84 -6 -177 -5 l-169 1 -32 33 -33 32 120 120 120 120 117 -117 118
-117 -28 -30z m410 147 l117 -118 -31 -34 -31 -35 -173 -1 -173 -2 -33 34 -32
33 115 119 c62 65 116 119 119 120 3 0 58 -52 122 -116z m590 -147 c-15 -17
-31 -34 -37 -38 -5 -4 -83 -8 -173 -8 l-162 0 -38 35 -37 34 120 121 120 120
117 -117 118 -117 -28 -30z m411 145 l118 -118 -34 -36 -34 -37 -174 5 -174 5
-30 30 -29 30 114 118 c63 66 117 120 120 120 3 1 58 -52 123 -117z m-6341
-148 c34 -40 32 -43 -28 -43 l-58 0 29 30 c34 35 37 36 57 13z m505 -5 c13
-12 23 -25 23 -30 0 -4 -26 -8 -57 -8 l-57 0 29 30 c16 17 31 30 34 30 2 0 15
-10 28 -22z m494 0 c27 -34 24 -38 -33 -38 l-52 0 29 30 c16 17 31 30 33 30 2
0 12 -10 23 -22z m500 0 c27 -34 24 -38 -33 -38 l-52 0 29 30 c16 17 31 30 33
30 2 0 12 -10 23 -22z m507 -9 l24 -29 -58 0 -58 0 29 30 c16 17 31 30 34 29
3 0 16 -13 29 -30z m512 -21 c0 -4 -23 -8 -52 -8 l-52 0 29 30 29 30 23 -22
c13 -12 23 -25 23 -30z m500 0 c0 -4 -23 -8 -52 -8 l-52 0 29 30 29 30 23 -22
c13 -12 23 -25 23 -30z m500 0 c0 -4 -23 -8 -52 -8 l-52 0 29 30 29 30 23 -22
c13 -12 23 -25 23 -30z m500 0 c0 -4 -23 -8 -52 -8 l-52 0 29 30 29 30 23 -22
c13 -12 23 -25 23 -30z m500 0 c0 -4 -23 -8 -52 -8 l-52 0 29 30 29 30 23 -22
c13 -12 23 -25 23 -30z m491 10 c9 -16 5 -18 -43 -18 l-52 0 29 30 c30 31 44
29 66 -12z m486 20 c34 -31 29 -38 -28 -38 l-51 0 24 29 c13 17 25 30 27 30 3
1 15 -9 28 -21z m500 0 c34 -31 29 -38 -28 -38 l-51 0 24 29 c13 17 25 30 27
30 3 1 15 -9 28 -21z m473 -13 c0 -18 -5 -25 -20 -25 -24 0 -25 8 -3 32 21 23
23 23 23 -7z"/>
<path d="M7411 7228 c-92 -235 -221 -575 -221 -581 0 -4 19 -7 42 -5 l42 3 32
85 31 85 129 3 129 3 34 -91 33 -90 44 0 c51 0 54 8 24 72 -11 24 -52 122 -91
218 -39 96 -84 208 -101 248 l-30 72 -44 0 c-37 0 -46 -4 -53 -22z m103 -193
c25 -71 46 -133 46 -137 0 -4 -43 -8 -95 -8 -52 0 -95 3 -95 6 0 12 93 275 96
272 1 -2 23 -62 48 -133z"/>
<path d="M7844 6939 c-37 -10 -67 -41 -62 -65 5 -28 22 -26 40 6 14 24 24 30
52 30 36 0 56 -20 56 -55 0 -9 -36 -54 -80 -100 -44 -46 -80 -91 -80 -99 0
-14 16 -16 100 -16 93 0 100 1 100 20 0 18 -7 20 -72 20 l-72 0 61 63 c65 66
83 94 83 125 0 49 -67 86 -126 71z"/>
<path d="M1001 4350 c-28 -22 -51 -47 -51 -56 0 -15 10 -14 58 3 9 4 12 -17
12 -86 0 -90 0 -91 25 -91 l25 0 0 135 c0 74 -4 135 -9 135 -5 0 -32 -18 -60
-40z"/>
<path d="M3951 4354 c-25 -32 -26 -43 -4 -51 11 -4 22 1 31 15 16 25 60 30 68
8 8 -20 -9 -47 -71 -117 -30 -34 -55 -68 -55 -75 0 -11 20 -14 91 -14 88 0 90
1 87 23 -3 19 -10 22 -51 25 l-49 3 51 54 c57 60 66 100 31 135 -31 31 -102
28 -129 -6z"/>
<path d="M7080 4355 c-18 -19 -21 -28 -12 -37 9 -9 20 -7 47 7 25 14 38 16 46
8 14 -14 -5 -53 -26 -53 -25 0 -16 -24 15 -42 31 -18 39 -45 18 -66 -19 -19
-46 -14 -64 13 -13 20 -19 23 -30 14 -20 -16 -17 -32 9 -57 69 -65 185 21 130
96 -17 24 -17 30 -6 54 14 28 5 63 -21 80 -26 17 -82 8 -106 -17z"/>
<path d="M216 3893 c-4 -87 -6 -436 -5 -775 2 -519 5 -618 17 -623 20 -7 1683
-6 1764 2 l68 6 157 140 c370 328 488 451 539 561 23 50 25 63 16 97 -15 59
-68 141 -145 225 -100 108 -504 469 -562 502 -27 16 -107 17 -936 20 l-906 2
-7 -157z m1814 127 c69 -19 559 -462 656 -592 60 -82 80 -138 66 -186 -19 -61
-84 -151 -184 -252 -92 -94 -462 -429 -506 -458 -19 -13 -137 -14 -919 -13
-493 1 -899 3 -901 6 -8 8 -14 989 -7 1238 l7 267 877 0 c541 0 889 -4 911
-10z"/>
<path d="M3220 3276 c0 -686 2 -775 15 -780 9 -3 420 -5 913 -3 839 2 900 3
925 20 15 9 64 52 110 95 46 42 142 128 215 191 139 120 284 276 341 368 28
43 35 65 35 107 1 79 -44 145 -214 317 -148 149 -441 408 -495 437 -27 15
-116 17 -937 20 l-908 3 0 -775z m1813 743 c40 -11 144 -95 391 -318 223 -202
336 -344 336 -424 0 -98 -161 -285 -485 -563 -77 -67 -146 -128 -154 -137 -7
-9 -28 -26 -47 -37 -33 -21 -40 -21 -931 -21 l-898 1 -3 755 -2 755 877 0
c586 0 891 -4 916 -11z"/>
<path d="M6220 3276 c0 -697 2 -774 16 -780 9 -3 422 -5 918 -4 l903 3 31 25
c115 94 495 445 549 508 174 204 181 265 50 437 -44 57 -286 288 -431 412 -38
32 -95 81 -127 109 -32 28 -73 54 -90 58 -17 3 -434 6 -925 6 l-894 0 0 -774z
m1833 745 c38 -14 449 -382 564 -504 88 -93 143 -187 143 -244 0 -19 -10 -53
-21 -76 -45 -88 -209 -263 -409 -437 -47 -41 -117 -105 -157 -142 -39 -36 -83
-74 -97 -83 -24 -16 -99 -17 -918 -16 -491 1 -899 1 -905 1 -10 0 -13 158 -13
755 l0 755 898 -1 c493 0 905 -4 915 -8z"/>
<path d="M1048 2118 c-26 -20 -118 -160 -118 -179 0 -21 20 -29 70 -29 32 0
39 -4 42 -22 5 -40 35 -33 59 13 19 38 20 44 6 54 -12 8 -17 33 -19 90 -3 80
-11 95 -40 73z m-8 -118 c0 -38 -2 -40 -30 -40 l-30 0 26 40 c15 22 28 40 30
40 2 0 4 -18 4 -40z"/>
<path d="M3951 2070 c-20 -91 -18 -93 39 -85 46 6 51 5 58 -16 21 -55 -22 -87
-63 -49 -14 13 -31 20 -39 17 -21 -8 -20 -19 5 -51 27 -35 86 -36 125 -3 21
19 27 32 27 67 0 35 -6 48 -27 67 -15 13 -40 23 -57 23 -19 0 -29 5 -29 14 0
11 15 16 53 18 44 3 52 6 52 23 0 18 -8 20 -67 23 l-66 3 -11 -51z"/>
<path d="M7089 2091 c-26 -26 -29 -36 -29 -90 0 -100 26 -141 90 -141 71 0
105 85 59 145 -18 22 -28 26 -60 23 -31 -3 -39 0 -39 13 0 9 7 23 16 30 14 11
21 10 46 -4 33 -19 48 -15 48 13 0 47 -87 54 -131 11z m86 -146 c0 -33 -4 -41
-22 -43 -27 -4 -46 28 -37 63 5 21 12 25 33 23 23 -3 26 -7 26 -43z"/>
<path d="M217 1558 c-8 -360 -9 -986 -1 -1160 l7 -158 911 0 c849 0 913 1 937
18 15 9 84 69 155 132 387 348 477 442 527 548 26 56 28 67 19 103 -20 78 -75
152 -228 304 -135 135 -275 260 -441 395 l-55 45 -913 3 -912 2 -6 -232z
m1835 196 c18 -9 68 -49 113 -88 45 -39 119 -103 166 -143 46 -39 148 -136
225 -215 106 -108 148 -158 172 -207 38 -77 39 -91 8 -156 -33 -69 -61 -104
-174 -219 -104 -105 -469 -433 -505 -453 -17 -9 -234 -12 -918 -13 l-896 0 -7
92 c-8 119 -8 1071 1 1266 l6 152 889 0 c801 0 892 -2 920 -16z"/>
<path d="M3220 1015 l0 -775 798 -2 c955 -2 1031 0 1057 17 11 7 59 48 106 91
47 44 150 136 230 206 149 130 269 259 327 352 78 124 50 195 -158 409 -76 79
-192 188 -257 243 -64 54 -138 118 -163 140 -25 23 -63 53 -84 68 l-39 26
-908 0 -909 0 0 -775z m58 718 l23 -36 -30 -31 -31 -31 0 68 c0 37 3 67 8 67
4 -1 17 -17 30 -37z m71 10 c-13 -16 -25 -30 -26 -32 -3 -5 -42 42 -43 52 0 4
21 7 47 7 l46 0 -24 -27z m425 -9 l29 -36 -117 -117 -117 -117 -116 117 -115
117 28 36 29 36 175 0 175 0 29 -36z m73 9 l-27 -28 -27 28 -28 27 55 0 55 0
-28 -27z m427 -9 l29 -36 -117 -117 -116 -116 -116 116 -117 117 28 36 27 36
177 0 176 0 29 -36z m73 9 l-27 -28 -27 28 -28 27 55 0 55 0 -28 -27z m427 -9
l29 -36 -117 -117 -116 -116 -116 116 -117 117 28 36 27 36 177 0 176 0 29
-36z m73 9 l-27 -28 -27 28 -28 27 55 0 55 0 -28 -27z m218 8 c17 -10 58 -45
93 -77 l63 -59 -75 -75 -76 -75 -115 115 c-63 63 -115 117 -115 120 0 3 14 20
31 38 28 30 34 32 97 32 48 0 75 -5 97 -19z m-1258 -538 c4 5 -44 59 -108 122
l-115 114 118 118 118 118 243 -243 242 -242 -118 -117 -117 -118 -117 117
-118 118 115 115 c63 63 111 118 107 122 -4 4 -116 -101 -247 -232 l-240 -240
-117 118 -118 117 115 115 c63 63 111 118 107 122 -4 4 -59 -44 -122 -107
l-114 -113 -40 34 -39 34 -1 164 -1 163 41 37 41 36 238 -240 c131 -132 242
-236 247 -232z m880 -130 l-117 -118 -117 117 -118 118 115 115 c63 63 111
118 107 122 -4 4 -59 -44 -122 -107 l-115 -115 -117 117 -117 118 114 118 115
118 245 -243 245 -243 -118 -117z m500 -1 l-117 -117 -117 117 -118 118 115
115 c63 63 111 118 107 122 -4 4 -59 -44 -122 -107 l-115 -114 -118 116 -118
117 118 118 118 119 243 -243 242 -243 -118 -118z m200 395 c50 -45 92 -87 92
-92 1 -6 -35 -46 -79 -90 l-80 -80 -118 118 -118 117 76 78 75 78 30 -24 c17
-13 71 -60 122 -105z m222 -220 c116 -124 157 -195 148 -258 -5 -37 -61 -139
-76 -139 -4 0 -28 22 -54 48 l-48 49 70 62 c39 35 71 70 71 79 0 10 -30 -13
-75 -58 l-75 -75 -118 118 -117 117 80 84 c44 46 83 83 87 83 4 -1 52 -51 107
-110z m-2306 -47 c4 -3 -9 -21 -28 -40 l-35 -34 0 64 0 63 28 -24 c15 -13 30
-26 35 -29z m245 -259 c1 -3 -49 -58 -112 -120 l-115 -114 -40 34 -39 34 -1
164 -1 163 42 37 41 37 111 -114 c61 -63 112 -117 114 -121z m2100 -141 c-45
-52 -203 -210 -210 -210 -3 0 -29 24 -57 53 l-51 52 118 111 c64 62 113 115
109 120 -4 4 -59 -43 -122 -106 l-115 -115 -118 118 -117 117 115 119 115 119
177 -176 177 -176 -21 -26z m-1708 255 l115 -115 -118 -118 -117 -117 -117
117 -118 118 115 115 c63 63 117 115 120 115 3 0 57 -52 120 -115z m500 0
l115 -115 -118 -117 -117 -118 -115 115 c-63 63 -118 111 -122 106 -4 -4 44
-58 108 -121 l115 -114 -118 -118 -118 -118 -115 115 c-63 63 -114 118 -113
122 4 11 471 478 478 478 3 0 57 -52 120 -115z m625 -125 l240 -240 -118 -117
-117 -118 -118 118 -118 117 115 115 c63 63 111 118 108 122 -4 4 -59 -44
-122 -107 l-115 -115 -117 118 -118 117 115 115 c63 63 117 115 120 115 3 0
113 -108 245 -240z m-1375 -122 l114 -118 -117 -118 -117 -117 -117 117 -117
118 114 118 c63 66 117 119 120 119 3 0 57 -53 120 -119z m997 -235 l-117
-118 -117 117 -118 118 101 102 c56 57 107 111 115 120 13 15 25 6 134 -103
l120 -119 -118 -117z m-1384 127 c4 -3 -9 -21 -28 -40 l-35 -34 0 64 0 63 28
-24 c15 -13 30 -26 35 -29z m137 -143 l114 -117 -94 -95 -95 -95 -56 0 c-70 0
-69 -5 -69 199 l0 153 43 38 c23 21 42 37 42 37 0 -1 52 -55 115 -120z m634
-305 c-92 -1 -169 -1 -171 2 -2 2 33 40 79 84 45 45 79 85 74 89 -4 4 -48 -34
-98 -85 l-91 -92 -51 1 c-51 2 -51 2 -141 96 l-89 93 117 118 117 118 211
-211 210 -210 -167 -3z m461 211 l209 -213 -175 0 -176 0 83 87 c46 48 81 89
78 92 -2 3 -46 -36 -97 -87 -90 -89 -94 -92 -138 -92 -45 0 -48 2 -141 96
l-95 97 116 117 c64 64 118 117 121 117 3 0 99 -96 215 -214z m425 -118 c-92
-93 -96 -95 -141 -95 -45 0 -48 2 -141 97 l-95 96 116 116 116 117 120 -118
120 -118 -95 -95z m409 281 l53 -54 -134 -114 c-73 -63 -140 -123 -148 -133
-8 -10 -33 -31 -54 -47 -34 -25 -48 -28 -113 -28 -40 0 -73 2 -73 4 0 2 37 42
83 89 l84 86 41 -42 c23 -22 45 -38 49 -34 4 4 -12 26 -34 49 l-41 41 116 119
c64 65 116 118 117 118 0 0 25 -24 54 -54z m-1715 -283 l85 -88 -166 -3 c-91
-1 -167 -1 -169 1 -3 3 146 162 163 175 1 1 40 -37 87 -85z"/>
<path d="M6220 1015 l0 -775 916 0 c661 0 921 3 937 11 12 7 56 44 97 83 41
39 150 137 241 217 93 83 200 188 246 243 184 221 175 265 -111 552 -175 175
-379 358 -460 413 l-40 26 -913 3 -913 2 0 -775z m1833 741 c64 -27 487 -409
603 -544 154 -180 142 -248 -86 -486 -65 -69 -151 -147 -446 -408 l-64 -58
-910 0 -910 0 0 755 0 755 890 0 c735 0 896 -2 923 -14z"/>
</g>
</svg>
