<?xml version="1.0" standalone="no"?>
<!DOCTYPE svg PUBLIC "-//W3C//DTD SVG 20010904//EN"
 "http://www.w3.org/TR/2001/REC-SVG-20010904/DTD/svg10.dtd">
<svg version="1.0" xmlns="http://www.w3.org/2000/svg"
 width="900.000000pt" height="922.000000pt" viewBox="0 0 900.000000 922.000000"
 preserveAspectRatio="xMidYMid meet">
<metadata>
Created by potrace 1.16, written by Peter Selinger 2001-2019
</metadata>
<g transform="translate(0.000000,922.000000) scale(0.100000,-0.100000)"
fill="#FFFFFF" stroke="none">
<path d="M217 8888 c-9 -148 -9 -4027 -1 -4146 l7 -92 3388 0 3389 0 0 2175 0
2175 -3388 0 -3389 0 -6 -112z m6763 -2063 l0 -2155 -3368 0 -3369 0 -6 113
c-9 149 -9 3865 -1 4052 l7 145 3369 0 3368 0 0 -2155z"/>
<path d="M2022 8416 c-197 -48 -368 -213 -415 -401 -39 -155 -30 -256 34 -392
122 -256 396 -382 669 -306 153 42 276 147 355 303 39 76 55 143 55 226 0 104
-15 169 -60 262 -48 96 -143 200 -231 250 -112 64 -282 88 -407 58z m257 -21
c192 -46 353 -207 406 -405 8 -30 15 -70 15 -87 l0 -33 -550 0 -551 0 6 38
c27 160 67 244 160 337 137 138 328 193 514 150z m391 -723 c0 -11 -79 -144
-97 -164 -15 -17 -48 -18 -419 -18 l-402 0 -26 31 c-31 36 -71 105 -81 137
l-6 22 515 0 c284 0 516 -3 516 -8z"/>
<path d="M4480 7860 l0 -570 571 0 570 0 -3 568 -4 567 -567 3 -567 2 0 -570z
m1113 280 l-1 -265 -546 -3 -546 -2 0 270 0 270 547 -2 548 -3 -2 -265z m7
-555 l0 -95 -550 0 -550 0 0 95 0 95 550 0 550 0 0 -95z"/>
<path d="M4137 6573 c-4 -3 -7 -352 -7 -773 l0 -768 483 -7 c265 -4 678 -5
918 -3 l435 3 120 106 c65 58 175 155 244 215 129 113 268 263 322 347 61 96
46 179 -56 308 -63 81 -384 375 -579 532 l-58 47 -908 0 c-499 0 -911 -3 -914
-7z m1945 -115 c130 -109 391 -351 469 -435 57 -60 97 -122 116 -179 13 -40
13 -46 -6 -89 -48 -107 -194 -268 -426 -468 -77 -66 -168 -148 -203 -181 l-63
-61 -882 0 c-485 0 -894 1 -909 4 l-28 4 0 747 c0 410 3 750 7 753 3 4 411 7
905 7 l898 0 122 -102z"/>
<path d="M2082 6369 c-30 -5 -84 -21 -120 -36 -229 -90 -366 -295 -364 -543 1
-244 180 -473 417 -535 78 -20 222 -19 293 1 104 30 187 81 265 164 78 82 118
152 144 252 58 220 -47 479 -247 611 -106 70 -272 107 -388 86z m227 -36 c123
-34 245 -121 310 -221 40 -63 77 -164 86 -234 l7 -58 -546 0 -546 0 0 31 c0
46 28 146 58 209 33 69 150 189 217 222 145 73 277 89 414 51z"/>
<path d="M7250 6945 l0 -307 168 4 c183 4 207 10 255 68 28 33 43 101 32 148
-7 34 -70 102 -94 102 -11 0 -5 9 15 25 41 32 58 75 51 127 -7 49 -32 86 -78
113 -29 17 -56 20 -191 24 l-158 3 0 -307z m275 225 c49 -11 75 -41 75 -87 0
-61 -29 -79 -149 -86 -56 -4 -107 -5 -112 -2 -5 4 -9 46 -9 96 l0 89 78 0 c42
0 95 -5 117 -10z m45 -268 c49 -24 67 -75 46 -126 -20 -47 -46 -57 -178 -63
l-108 -6 0 107 0 106 103 0 c77 0 110 -4 137 -18z"/>
<path d="M7832 6935 c-51 -22 -62 -73 -24 -117 13 -16 13 -18 -1 -24 -20 -7
-40 -65 -31 -90 16 -44 46 -64 96 -64 39 0 54 5 73 25 32 31 33 82 4 119 -20
25 -20 28 -5 45 33 36 15 92 -35 110 -39 13 -36 13 -77 -4z m76 -37 c7 -7 12
-21 12 -33 0 -45 -53 -61 -85 -25 -15 17 -16 24 -7 45 13 27 58 35 80 13z m-7
-119 c39 -20 41 -77 5 -101 -34 -23 -96 10 -96 52 0 24 34 60 56 60 8 0 24 -5
35 -11z"/>
<path d="M1030 4373 c-42 -27 -80 -66 -80 -81 0 -13 12 -12 58 5 9 4 12 -17
12 -86 0 -90 0 -91 25 -91 l25 0 0 135 c0 74 -3 135 -8 135 -4 0 -19 -7 -32
-17z"/>
<path d="M3951 4354 c-12 -15 -21 -33 -21 -40 0 -21 38 -17 50 6 12 23 58 27
66 6 8 -20 -9 -47 -71 -117 -30 -34 -55 -68 -55 -75 0 -11 20 -14 91 -14 88 0
90 1 87 23 -3 19 -9 22 -50 21 -27 0 -48 3 -48 6 0 3 16 22 36 41 41 39 64 78
64 109 0 60 -109 85 -149 34z"/>
<path d="M7081 4356 c-23 -25 -21 -46 3 -46 8 0 19 7 26 15 14 17 46 20 55 5
9 -14 -13 -50 -30 -50 -24 0 -18 -38 6 -42 30 -4 47 -33 33 -55 -17 -27 -43
-28 -69 -3 -40 38 -64 -1 -25 -40 27 -27 93 -27 120 0 31 31 36 67 12 99 -17
24 -18 29 -6 46 51 69 -66 134 -125 71z"/>
<path d="M216 3948 c-9 -123 -6 -1448 3 -1448 1141 -6 1819 -3 1840 9 13 7 87
70 165 139 373 333 477 441 528 550 27 56 29 67 20 103 -18 71 -75 150 -197
274 -124 126 -430 398 -499 444 l-40 26 -906 3 -907 2 -7 -102z m1814 72 c48
-13 306 -235 506 -434 132 -133 166 -173 192 -227 18 -37 32 -75 32 -86 0 -73
-136 -240 -355 -439 -179 -162 -335 -298 -351 -307 -17 -9 -1805 -10 -1814 -1
-8 9 -13 1121 -5 1322 l7 182 877 0 c538 0 890 -4 911 -10z"/>
<path d="M1005 3821 c-114 -33 -154 -58 -244 -149 -100 -100 -143 -177 -168
-299 -18 -88 -9 -184 28 -290 70 -205 261 -353 488 -379 80 -9 207 18 301 64
140 68 259 220 296 378 24 101 15 249 -19 332 -69 168 -221 300 -397 347 -74
20 -210 18 -285 -4z m695 -592 c0 -99 -62 -236 -152 -334 -102 -111 -290 -185
-434 -171 -174 17 -347 122 -426 257 -42 72 -96 257 -80 274 3 3 250 5 549 5
l543 0 0 -31z"/>
<path d="M3220 3275 c0 -426 3 -776 8 -776 26 -5 1665 -8 1740 -3 l94 6 66 59
c37 32 143 125 236 206 172 149 313 300 376 400 49 78 49 136 0 218 -58 99
-450 477 -654 630 l-39 30 -914 3 -913 3 0 -776z m1838 733 c58 -32 331 -268
483 -418 172 -170 230 -262 215 -343 -16 -88 -183 -276 -449 -506 -93 -80
-188 -163 -212 -184 l-43 -38 -903 0 -904 1 -3 755 -2 755 888 0 889 0 41 -22z"/>
<path d="M3552 3273 l5 -568 567 -3 566 -2 0 570 0 570 -571 0 -571 0 4 -567z
m1118 -283 l0 -270 -544 0 c-487 0 -544 2 -550 16 -3 9 -6 130 -6 270 l0 254
550 0 550 0 0 -270z"/>
<path d="M6220 3275 c0 -613 3 -775 13 -776 6 0 421 0 920 -1 l909 0 33 28
c140 120 475 427 525 482 96 105 151 193 157 246 7 58 -32 144 -104 227 -123
144 -584 553 -635 563 -17 3 -433 6 -924 6 l-894 0 0 -775z m1832 746 c13 -5
50 -33 84 -62 435 -383 545 -493 595 -594 41 -83 37 -129 -16 -209 -50 -76
-204 -236 -350 -364 -66 -58 -152 -136 -192 -173 -39 -37 -83 -75 -97 -84 -23
-16 -104 -17 -931 -18 l-905 -2 0 758 0 757 894 0 c494 0 905 -4 918 -9z"/>
<path d="M7056 3824 c-134 -32 -278 -130 -349 -237 -74 -112 -113 -297 -87
-422 19 -98 85 -220 160 -296 79 -80 153 -123 256 -149 285 -73 566 74 675
355 55 142 46 301 -27 450 -112 228 -384 358 -628 299z m237 -20 c235 -52 399
-232 426 -465 l7 -59 -548 0 -548 0 0 23 c0 46 40 179 71 237 40 74 137 169
214 207 141 71 245 87 378 57z m397 -729 c0 -12 -55 -112 -78 -142 l-24 -33
-408 0 c-375 0 -408 1 -422 18 -17 18 -88 144 -88 155 0 4 230 7 510 7 281 0
510 -2 510 -5z"/>
<path d="M1048 2118 c-26 -21 -118 -160 -118 -178 0 -22 20 -30 70 -30 32 0
39 -4 42 -22 5 -40 35 -33 59 13 19 38 20 44 6 54 -12 8 -17 33 -19 90 -3 80
-11 95 -40 73z m-8 -118 c0 -38 -2 -40 -30 -40 l-30 0 26 40 c15 22 28 40 30
40 2 0 4 -18 4 -40z"/>
<path d="M3952 2070 c-21 -90 -20 -93 38 -85 46 6 50 5 61 -18 24 -52 -31 -90
-68 -47 -21 24 -41 26 -50 4 -10 -26 35 -64 78 -64 56 0 94 36 94 88 0 51 -26
80 -77 88 -58 10 -49 32 15 36 44 3 52 6 52 23 0 18 -8 20 -66 23 l-65 3 -12
-51z"/>
<path d="M7089 2091 c-26 -27 -29 -36 -29 -96 0 -69 17 -118 45 -129 67 -25
125 14 125 85 0 49 -38 83 -87 77 -26 -3 -33 0 -33 13 0 9 7 23 16 30 14 11
21 10 46 -4 33 -19 48 -15 48 13 0 47 -87 54 -131 11z m86 -146 c0 -33 -4 -41
-22 -43 -27 -4 -46 28 -37 63 5 21 12 25 33 23 23 -3 26 -7 26 -43z"/>
<path d="M216 1720 c-4 -38 -6 -387 -5 -775 l2 -705 916 0 c848 0 918 1 941
17 50 35 388 341 500 453 243 242 257 312 104 501 -123 151 -585 561 -645 573
-18 3 -431 6 -919 6 l-887 0 -7 -70z m1856 20 c151 -105 562 -493 629 -593 56
-85 66 -125 45 -180 -42 -110 -168 -243 -560 -587 -59 -52 -117 -100 -129
-107 -17 -9 -235 -12 -919 -13 l-898 0 0 755 0 755 898 -2 899 -3 35 -25z"/>
<path d="M362 1013 l3 -568 773 -3 772 -2 0 570 0 570 -775 0 -775 0 2 -567z
m530 510 c-46 -22 -102 -63 -148 -106 -92 -86 -136 -168 -165 -310 -18 -92
-19 -105 -5 -182 22 -127 72 -223 165 -315 54 -54 97 -86 151 -113 l75 -37
-290 3 -290 2 -3 548 -2 547 292 0 293 0 -73 -37z m449 -3 c129 -53 219 -139
285 -269 31 -63 54 -142 54 -188 l0 -33 -545 0 -545 0 0 27 c0 50 42 182 74
233 82 129 233 237 366 260 98 16 228 4 311 -30z m549 -510 l0 -550 -297 1
-298 0 49 20 c120 48 233 149 289 257 50 96 67 162 67 265 0 157 -47 279 -150
391 -60 65 -154 131 -200 141 -85 19 -21 25 249 25 l291 0 0 -550z"/>
<path d="M3220 1015 l0 -775 913 0 c1049 0 918 -14 1059 117 46 43 145 131
219 195 142 124 272 264 327 352 77 123 49 196 -152 403 -72 75 -187 183 -256
242 -69 58 -152 130 -185 159 -32 30 -74 61 -92 68 -26 12 -195 14 -933 14
l-900 0 0 -775z m1827 744 c15 -5 61 -40 103 -77 41 -37 104 -92 140 -122 204
-171 406 -383 445 -467 37 -76 31 -115 -32 -207 -65 -95 -185 -219 -345 -357
-73 -63 -162 -141 -198 -175 -36 -33 -76 -68 -90 -77 -22 -16 -102 -17 -927
-17 l-903 0 0 755 0 755 889 0 c603 0 899 -3 918 -11z"/>
<path d="M3557 1173 c-4 -223 -7 -480 -7 -570 l0 -163 570 0 570 0 0 570 0
570 -563 0 -564 0 -6 -407z m1113 117 l0 -270 -544 0 c-426 0 -545 3 -548 13
-3 6 -3 128 0 270 l4 257 544 0 544 0 0 -270z m-32 -466 l32 -6 0 -89 0 -89
-547 2 -548 3 -3 79 c-2 44 -1 85 2 92 4 10 110 13 518 14 282 0 528 -2 546
-6z"/>
<path d="M6220 1015 l0 -775 925 0 924 0 83 78 c46 42 155 140 242 217 160
140 327 321 362 393 29 57 25 136 -11 197 -57 100 -564 581 -677 643 l-41 22
-904 0 -903 0 0 -775z m1833 742 c59 -26 508 -431 611 -552 53 -62 96 -147 96
-190 -1 -96 -147 -269 -463 -545 -60 -52 -138 -121 -173 -152 l-65 -58 -909 0
-910 0 0 755 0 755 893 0 c673 -1 899 -4 920 -13z"/>
<path d="M6610 1010 l0 -570 570 0 570 0 -2 568 -3 567 -567 3 -568 2 0 -570z
m1110 280 l0 -270 -545 0 -545 0 0 270 0 270 545 0 545 0 0 -270z"/>
</g>
</svg>
