<?xml version="1.0" standalone="no"?>
<!DOCTYPE svg PUBLIC "-//W3C//DTD SVG 20010904//EN"
 "http://www.w3.org/TR/2001/REC-SVG-20010904/DTD/svg10.dtd">
<svg version="1.0" xmlns="http://www.w3.org/2000/svg"
 width="900.000000pt" height="922.000000pt" viewBox="0 0 900.000000 922.000000"
 preserveAspectRatio="xMidYMid meet">
<metadata>
Created by potrace 1.16, written by Peter Selinger 2001-2019
</metadata>
<g transform="translate(0.000000,922.000000) scale(0.100000,-0.100000)"
fill="#FFFFFF" stroke="none">
<path d="M215 8848 c-3 -84 -5 -1062 -3 -2173 l3 -2020 3393 -3 3392 -2 0
2175 0 2175 -3389 0 -3389 0 -7 -152z m6765 -2023 l0 -2155 -3368 0 -3369 0
-6 113 c-9 149 -9 3865 -1 4052 l7 145 3369 0 3368 0 0 -2155z"/>
<path d="M1863 8145 l-282 -281 285 -284 284 -285 280 280 c154 154 280 284
280 290 0 11 -552 566 -560 563 -3 -1 -132 -128 -287 -283z m287 -284 l0 -539
-70 72 -70 73 0 397 0 398 67 69 c36 38 68 69 70 69 1 0 3 -243 3 -539z m160
5 l1 -390 -71 -70 -70 -71 0 530 0 530 70 -70 70 -70 0 -389z m-320 -8 l0
-372 -72 71 -73 72 5 241 5 241 62 60 c33 32 64 59 67 59 3 0 6 -168 6 -372z
m483 6 l-2 -227 -63 -64 c-34 -34 -66 -63 -70 -63 -4 0 -8 163 -8 362 l0 363
72 -72 72 -72 -1 -227z m-647 -4 l-1 -209 -72 72 -73 71 0 70 0 69 68 69 c38
37 71 68 73 68 3 0 5 -94 5 -210z m814 7 l0 -59 -67 -70 c-82 -85 -79 -91 -75
151 l3 175 69 -69 70 -69 0 -59z m-971 -9 l2 -53 -30 29 -31 30 22 23 c12 13
24 23 28 23 4 0 8 -24 9 -52z m1021 7 c0 -13 -28 -41 -34 -34 -2 2 -1 19 1 37
4 26 8 30 19 21 8 -6 14 -17 14 -24z"/>
<path d="M4762 8148 l-282 -282 72 -74 c177 -180 492 -492 497 -492 3 0 132
126 286 280 l280 280 -284 285 c-157 157 -285 285 -286 285 0 0 -127 -127
-283 -282z"/>
<path d="M4137 6573 c-4 -3 -7 -352 -7 -773 l0 -768 473 -7 c259 -4 673 -5
918 -3 l446 3 77 70 c43 39 119 105 169 149 243 207 410 384 456 482 40 83 20
158 -73 275 -63 81 -384 375 -579 532 l-58 47 -908 0 c-499 0 -911 -3 -914 -7z
m1942 -113 c131 -110 387 -346 467 -431 63 -67 103 -130 121 -188 11 -39 11
-48 -7 -88 -46 -105 -195 -268 -425 -466 -77 -66 -168 -148 -203 -181 l-63
-61 -882 0 c-485 0 -894 1 -909 4 l-28 4 0 747 c0 410 3 750 7 753 3 4 411 7
905 7 l898 0 119 -100z"/>
<path d="M1607 6374 c-4 -4 -7 -261 -7 -571 l0 -563 565 0 565 0 -2 568 -3
567 -555 3 c-306 2 -559 0 -563 -4z m69 -24 c12 0 14 -81 14 -545 l0 -545 -35
0 -35 0 0 543 c0 299 3 547 7 551 4 3 13 4 21 1 7 -3 20 -5 28 -5z m164 -540
l0 -550 -65 0 -65 0 0 550 0 550 65 0 65 0 0 -550z m160 0 l0 -550 -70 0 -70
0 0 550 0 550 70 0 70 0 0 -550z m148 3 l-3 -548 -62 -3 -63 -3 0 551 0 550
65 0 65 0 -2 -547z m152 -3 l0 -550 -65 0 -65 0 0 550 0 550 65 0 65 0 0 -550z
m158 -2 l2 -548 -70 0 -70 0 0 543 c0 299 3 547 7 551 4 4 34 6 68 4 l60 -3 3
-547z m115 546 l37 -7 0 -543 0 -544 -65 0 -65 0 0 550 0 550 28 0 c15 0 44
-3 65 -6z m137 -549 l0 -545 -40 0 -40 0 0 448 c0 246 3 491 7 545 l6 97 34 0
33 0 0 -545z"/>
<path d="M7250 6946 l0 -306 143 0 c78 0 162 5 187 11 108 25 162 145 108 240
-12 22 -24 39 -27 39 -3 1 -17 10 -30 20 l-23 20 24 20 c52 41 62 133 20 189
-42 57 -73 66 -244 70 l-158 3 0 -306z m313 211 c31 -20 41 -48 32 -93 -9 -51
-35 -62 -155 -66 l-105 -3 -3 94 -3 94 105 -5 c74 -3 112 -9 129 -21z m3 -252
c47 -19 70 -72 54 -121 -19 -57 -46 -67 -173 -68 l-112 -1 -3 103 -3 102 101
0 c66 0 113 -5 136 -15z"/>
<path d="M7824 6931 c-41 -25 -57 -71 -44 -122 6 -21 20 -44 32 -50 31 -17 87
-13 110 8 21 18 21 18 14 -12 -18 -78 -77 -108 -115 -59 -25 32 -51 21 -32
-13 26 -50 95 -62 136 -23 37 35 48 72 43 155 -3 64 -7 79 -28 100 -35 34 -78
40 -116 16z m88 -38 c10 -9 18 -30 18 -46 0 -56 -51 -85 -95 -53 -22 16 -26
76 -6 100 17 21 60 20 83 -1z"/>
<path d="M1030 4373 c-42 -27 -80 -66 -80 -81 0 -13 12 -12 58 5 9 4 12 -17
12 -86 0 -90 0 -91 25 -91 l25 0 0 135 c0 74 -3 135 -8 135 -4 0 -19 -7 -32
-17z"/>
<path d="M3950 4356 c-24 -26 -22 -56 4 -56 9 0 20 9 26 20 12 23 58 27 66 6
8 -20 -9 -47 -71 -117 -30 -34 -55 -68 -55 -75 0 -11 20 -14 90 -14 l90 0 0
26 c0 25 -2 26 -50 22 -28 -1 -50 -1 -50 2 0 2 20 25 45 50 82 83 68 160 -28
160 -33 0 -49 -6 -67 -24z"/>
<path d="M7082 4357 c-42 -45 -20 -62 37 -30 21 13 33 15 41 7 15 -15 1 -44
-27 -55 -29 -11 -26 -31 7 -39 32 -8 48 -35 34 -57 -16 -27 -50 -28 -67 -2
-10 13 -22 19 -31 16 -44 -17 7 -77 64 -77 70 0 111 67 73 118 -17 23 -17 30
-6 52 17 34 16 47 -7 70 -29 29 -90 27 -118 -3z"/>
<path d="M216 3948 c-9 -123 -6 -1448 3 -1448 99 -4 1735 -7 1778 -3 l62 6
153 135 c369 326 489 451 541 560 26 56 28 67 19 103 -18 72 -75 151 -197 274
-125 127 -431 399 -499 444 l-40 26 -906 3 -907 2 -7 -102z m1814 72 c75 -21
592 -494 670 -613 21 -32 43 -78 50 -103 12 -42 11 -48 -18 -107 -48 -96 -182
-236 -476 -497 -186 -166 -205 -180 -240 -181 -178 -3 -1772 3 -1776 7 -8 9
-13 1143 -5 1332 l7 172 877 0 c541 0 889 -4 911 -10z"/>
<path d="M864 3554 l-281 -283 286 -285 286 -286 285 285 285 285 -285 285
c-157 157 -287 284 -290 283 -3 0 -131 -128 -286 -284z"/>
<path d="M3222 3273 l3 -778 910 0 c854 0 913 1 938 18 15 9 64 52 110 95 46
42 145 130 220 196 153 131 312 309 353 392 53 109 17 181 -206 404 -156 157
-429 398 -485 429 -27 14 -117 16 -938 19 l-907 3 2 -778z m1810 747 c42 -12
111 -67 357 -289 260 -232 371 -370 371 -459 0 -92 -164 -281 -483 -558 -76
-65 -158 -136 -182 -158 l-44 -39 -903 2 -903 2 -3 754 -2 755 877 0 c570 0
891 -4 915 -10z"/>
<path d="M3840 3555 l-285 -285 285 -285 c156 -157 288 -285 292 -285 5 0 8 6
8 13 0 7 117 129 261 272 143 143 265 268 271 278 8 15 -32 61 -264 296 -150
153 -275 279 -278 280 -3 0 -133 -127 -290 -284z m300 254 c0 -6 118 -130 262
-275 l262 -264 -270 -273 -269 -273 -275 273 -275 273 275 275 c151 151 278
275 282 275 5 0 8 -5 8 -11z"/>
<path d="M6220 3275 c0 -613 3 -775 13 -776 6 0 421 0 921 0 l909 0 33 28 c36
31 223 198 377 337 106 96 207 208 265 294 89 133 42 233 -239 498 -69 66
-167 155 -219 199 -52 44 -117 102 -146 128 -28 26 -67 52 -85 57 -21 6 -386
10 -931 10 l-898 0 0 -775z m1872 720 c161 -134 336 -292 459 -415 200 -199
240 -280 188 -383 -45 -87 -213 -268 -404 -433 -44 -38 -116 -102 -159 -142
-44 -41 -90 -81 -102 -89 -19 -12 -151 -14 -926 -14 l-903 0 -3 755 -2 756
908 -2 908 -3 36 -30z"/>
<path d="M6610 3270 l0 -570 570 0 570 0 -2 568 -3 567 -567 3 -568 2 0 -570z
m1110 40 c1 -278 1 -524 1 -548 l-1 -42 -542 2 -543 3 -3 548 -2 547 544 -2
545 -3 1 -505z"/>
<path d="M1048 2118 c-26 -20 -118 -160 -118 -179 0 -18 27 -29 77 -29 25 0
32 -5 35 -22 5 -40 35 -33 59 13 19 39 20 44 5 54 -12 9 -16 29 -16 78 0 93
-9 111 -42 85z m-8 -118 c0 -38 -2 -40 -30 -40 l-30 0 26 40 c15 22 28 40 30
40 2 0 4 -18 4 -40z"/>
<path d="M3952 2070 c-18 -76 -16 -90 11 -90 12 0 29 4 36 9 34 22 72 -30 51
-69 -14 -26 -42 -26 -65 0 -37 41 -68 10 -34 -34 15 -19 30 -26 55 -26 48 0
73 15 89 54 25 60 -3 112 -67 122 -58 10 -49 32 15 36 44 3 52 6 52 23 0 18
-8 20 -66 23 l-65 3 -12 -51z"/>
<path d="M7088 2090 c-29 -29 -30 -33 -26 -105 4 -91 28 -125 89 -125 70 0
104 85 58 145 -18 22 -28 26 -60 23 -42 -4 -48 6 -24 38 13 18 15 18 45 2 42
-24 50 -23 50 7 0 53 -84 62 -132 15z m87 -145 c0 -34 -3 -40 -22 -43 -26 -4
-45 32 -36 67 4 17 12 21 32 19 23 -3 26 -7 26 -43z"/>
<path d="M216 1719 c-3 -39 -6 -388 -6 -775 l1 -704 917 0 918 0 31 23 c17 12
86 72 154 132 371 331 470 435 521 543 27 56 29 67 20 103 -20 78 -75 152
-227 304 -83 83 -191 184 -240 225 -49 41 -125 105 -167 141 -45 38 -91 69
-109 73 -17 3 -431 6 -919 6 l-887 0 -7 -71z m1834 33 c57 -28 375 -308 516
-453 101 -104 138 -150 164 -202 25 -51 31 -74 26 -98 -16 -80 -114 -203 -296
-374 -129 -120 -379 -338 -403 -352 -17 -9 -234 -12 -918 -13 l-896 0 -7 228
c-8 248 -8 698 1 1055 l6 227 886 0 c829 0 889 -1 921 -18z"/>
<path d="M572 1013 l3 -568 563 -3 562 -4 0 571 0 571 -565 0 -565 0 2 -567z"/>
<path d="M3220 1015 l0 -775 913 0 c1049 0 918 -14 1059 117 46 43 144 131
218 195 143 124 273 264 328 352 77 124 50 196 -157 408 -75 77 -188 184 -251
237 -63 53 -144 123 -180 155 -36 32 -79 65 -97 72 -26 12 -199 14 -933 14
l-900 0 0 -775z m1837 737 c69 -37 445 -375 563 -505 106 -117 145 -188 137
-249 -7 -51 -74 -151 -170 -255 -64 -67 -394 -366 -498 -450 l-41 -33 -904 0
-904 0 0 755 0 755 893 0 c830 0 894 -1 924 -18z"/>
<path d="M3558 1018 c-2 -310 -2 -566 0 -570 2 -5 257 -8 568 -8 l564 0 0 570
0 570 -565 0 -565 0 -2 -562z m90 -5 l-3 -548 -32 -3 -33 -3 0 550 0 551 35 0
35 0 -2 -547z m150 0 l-3 -548 -62 -3 -63 -3 0 551 0 550 65 0 65 0 -2 -547z
m160 0 l-3 -547 -65 0 -65 -1 -3 548 -2 547 70 0 70 0 -2 -547z m150 0 l-3
-548 -61 -3 -62 -3 -7 126 c-4 69 -5 302 -1 518 3 215 6 407 6 425 l0 32 65 0
65 0 -2 -547z m152 -3 l0 -551 -62 3 -63 3 -3 548 -2 547 65 0 65 0 0 -550z
m158 3 l-3 -547 -65 0 -65 -1 -3 548 -2 547 70 0 70 0 -2 -547z m152 2 l0
-545 -65 0 -65 0 0 545 0 545 65 0 65 0 0 -545z m100 0 l0 -545 -40 0 -40 0 0
545 0 545 40 0 40 0 0 -545z"/>
<path d="M6220 1015 l0 -775 925 0 925 0 83 78 c45 43 153 141 241 217 151
132 276 262 336 350 63 92 63 168 0 262 -74 111 -556 563 -662 621 l-41 22
-904 0 -903 0 0 -775z m1833 742 c63 -27 500 -424 608 -551 148 -175 135 -245
-91 -480 -65 -68 -158 -153 -446 -408 l-65 -58 -909 0 -910 0 0 755 0 755 893
0 c673 -1 899 -4 920 -13z"/>
<path d="M6908 1316 c-142 -144 -265 -272 -274 -285 -16 -23 -15 -24 248 -289
146 -147 270 -276 276 -287 10 -18 37 6 292 260 174 174 280 287 280 299 0 21
-538 567 -555 564 -6 0 -126 -119 -267 -262z m40 -73 c-256 -256 -273 -271
-290 -256 -10 9 -18 20 -18 25 0 5 120 130 267 278 l268 269 23 -22 23 -21
-273 -273z m335 209 l47 -47 -272 -273 -272 -272 -34 33 c-67 64 -81 42 209
337 145 147 266 268 269 268 3 1 27 -19 53 -46z m-103 -427 c-145 -145 -262
-267 -259 -269 3 -3 124 114 269 259 l264 265 108 -107 108 -108 -272 -273
-273 -273 -49 52 -49 51 268 268 c148 148 266 272 263 276 -4 3 -129 -115
-278 -262 l-270 -269 -105 105 -105 105 273 272 272 273 50 -50 50 -50 -265
-265z m525 5 c19 -21 16 -24 -251 -290 -149 -149 -274 -270 -280 -270 -5 0
-15 10 -22 21 -13 20 2 37 254 290 148 148 271 269 275 269 3 0 14 -9 24 -20z"/>
</g>
</svg>
