<?xml version="1.0" standalone="no"?>
<!DOCTYPE svg PUBLIC "-//W3C//DTD SVG 20010904//EN"
 "http://www.w3.org/TR/2001/REC-SVG-20010904/DTD/svg10.dtd">
<svg version="1.0" xmlns="http://www.w3.org/2000/svg"
 width="900.000000pt" height="922.000000pt" viewBox="0 0 900.000000 922.000000"
 preserveAspectRatio="xMidYMid meet">
<metadata>
Created by potrace 1.16, written by Peter Selinger 2001-2019
</metadata>
<g transform="translate(0.000000,922.000000) scale(0.100000,-0.100000)"
fill="#FFFFFF" stroke="none">
<path d="M216 8788 c-8 -270 -8 -3874 1 -4025 l6 -113 3389 0 3388 0 0 2175 0
2175 -3388 0 -3389 0 -7 -212z m6764 -1963 l0 -2155 -3368 0 -3369 0 -6 113
c-9 149 -9 3831 0 4037 l6 160 3369 0 3368 0 0 -2155z"/>
<path d="M4955 8279 c-49 -89 -103 -173 -120 -186 -16 -14 -102 -69 -190 -123
-88 -54 -160 -101 -160 -106 0 -5 64 -45 142 -89 79 -45 159 -96 178 -115 20
-19 65 -83 100 -141 93 -155 135 -219 143 -219 4 0 39 57 77 127 117 211 108
201 246 283 161 96 239 148 239 160 0 6 -4 10 -8 10 -24 0 -301 165 -327 194
-16 19 -75 109 -129 200 -55 91 -100 166 -100 166 -1 0 -41 -73 -91 -161z
m190 -39 c48 -80 97 -159 110 -176 14 -19 80 -62 174 -113 83 -46 151 -85 151
-86 0 -2 -73 -47 -161 -102 -89 -54 -173 -110 -188 -124 -14 -14 -59 -86 -100
-160 -40 -74 -77 -138 -81 -142 -4 -5 -50 61 -101 145 -52 84 -108 169 -126
189 -17 19 -78 61 -135 92 -57 31 -120 67 -141 80 l-39 23 144 87 c221 133
212 124 308 295 47 83 88 147 91 144 4 -4 46 -72 94 -152z"/>
<path d="M1868 8147 c-153 -154 -278 -283 -278 -286 0 -3 126 -132 280 -286
l280 -280 280 280 c154 154 280 284 280 290 0 11 -552 566 -560 563 -3 -1
-130 -127 -282 -281z m560 -10 l272 -272 -273 -273 -273 -273 -272 273 -271
273 267 271 c147 149 269 272 272 272 3 1 128 -121 278 -271z"/>
<path d="M4137 6573 c-4 -3 -7 -352 -7 -773 l0 -768 443 -7 c243 -4 656 -5
918 -3 l475 3 60 53 c32 29 138 122 234 206 305 268 430 420 430 523 0 49 -40
127 -105 206 -72 88 -404 390 -578 529 l-49 38 -907 0 c-499 0 -911 -3 -914
-7z m1945 -115 c130 -109 392 -351 469 -435 56 -59 95 -120 115 -177 13 -36
13 -46 -1 -84 -39 -99 -203 -281 -435 -480 -74 -63 -163 -143 -198 -176 l-63
-61 -97 0 c-53 0 -463 1 -909 3 l-813 2 0 748 c0 412 3 752 7 755 3 4 410 7
904 7 l898 0 123 -102z"/>
<path d="M1880 6095 l-285 -285 286 -286 286 -286 279 282 c154 155 279 285
279 288 0 4 -123 129 -274 277 -150 149 -269 261 -263 250 6 -11 126 -135 266
-275 l256 -254 -272 -273 -273 -273 -272 272 -273 273 276 276 c152 152 275
282 273 288 -2 6 -132 -117 -289 -274z"/>
<path d="M2069 5901 c-41 -40 -49 -54 -49 -85 0 -103 108 -182 194 -141 59 28
86 68 86 127 0 89 -58 148 -145 148 -32 0 -46 -8 -86 -49z"/>
<path d="M7250 6945 l0 -307 168 4 c186 4 210 11 257 72 61 80 42 178 -46 240
l-23 15 26 20 c52 42 62 134 20 190 -42 57 -73 66 -244 69 l-158 4 0 -307z
m282 225 c44 -13 68 -43 68 -86 0 -54 -26 -74 -108 -85 -40 -6 -92 -9 -115 -7
l-42 3 -3 93 -3 92 83 0 c46 0 100 -5 120 -10z m38 -268 c48 -23 64 -60 50
-112 -16 -60 -50 -74 -180 -75 l-105 0 -3 103 -3 102 103 0 c78 0 111 -4 138
-18z"/>
<path d="M7848 6907 c-62 -56 -66 -85 -8 -52 14 8 28 14 33 15 4 0 7 -52 7
-116 0 -103 2 -115 17 -112 9 2 16 6 15 11 -1 4 -2 72 -2 152 0 80 -3 145 -7
145 -5 -1 -29 -20 -55 -43z"/>
<path d="M8072 6935 c-41 -18 -62 -65 -62 -137 0 -111 30 -158 101 -158 29 0
43 7 63 30 56 68 41 231 -25 265 -34 18 -35 18 -77 0z m85 -62 c22 -53 14
-156 -14 -185 -31 -31 -68 -18 -83 28 -15 44 -9 156 9 178 7 9 27 16 43 16 24
0 32 -6 45 -37z"/>
<path d="M1030 4373 c-43 -28 -80 -66 -80 -81 0 -14 13 -13 53 3 15 6 17 -1
17 -84 0 -90 0 -91 25 -91 l25 0 0 135 c0 74 -3 135 -8 135 -4 0 -19 -7 -32
-17z"/>
<path d="M3951 4354 c-12 -15 -21 -33 -21 -40 0 -22 38 -16 50 7 14 25 63 23
68 -2 2 -9 -26 -52 -62 -95 -37 -43 -66 -84 -66 -91 0 -10 24 -13 91 -13 88 0
90 1 87 23 -3 19 -9 22 -50 21 -27 0 -48 2 -48 5 0 3 21 27 47 53 41 42 48 54
48 89 0 51 -22 69 -81 69 -34 0 -47 -5 -63 -26z"/>
<path d="M7081 4354 c-37 -46 -19 -59 38 -27 21 13 33 15 41 7 15 -15 1 -44
-26 -55 -32 -12 -30 -23 9 -40 36 -16 44 -54 15 -73 -13 -8 -24 -5 -48 12 -48
36 -71 5 -27 -36 34 -32 91 -30 122 4 30 32 32 63 7 95 -17 20 -17 25 -5 50
15 31 5 72 -22 83 -39 15 -83 6 -104 -20z"/>
<path d="M216 3915 c-12 -228 -5 -1415 8 -1415 6 0 417 0 914 -1 859 -1 904 0
931 18 16 10 85 68 152 128 370 331 476 441 530 551 28 57 31 68 21 104 -18
73 -75 152 -197 276 -124 125 -430 397 -499 443 l-40 26 -906 3 -907 3 -7
-136z m1814 105 c73 -20 589 -491 666 -608 56 -83 69 -125 56 -170 -19 -60
-84 -150 -184 -252 -85 -87 -404 -377 -486 -442 l-35 -28 -902 0 -902 0 -6
182 c-9 234 -9 912 0 1146 l6 182 876 0 c541 0 889 -4 911 -10z"/>
<path d="M1134 3817 c-29 -63 -158 -285 -177 -305 -12 -12 -78 -57 -147 -99
-69 -42 -149 -92 -178 -111 l-52 -34 35 -19 c55 -30 257 -144 283 -160 13 -8
44 -48 69 -89 26 -41 75 -121 110 -177 35 -56 63 -107 63 -112 0 -31 26 5 112
157 l95 167 99 62 c54 33 139 87 188 118 l89 56 -60 37 c-34 21 -103 60 -153
87 -51 28 -105 62 -119 76 -14 14 -72 103 -129 198 -57 94 -106 171 -110 171
-4 0 -12 -10 -18 -23z m164 -242 l80 -130 156 -85 c86 -47 156 -87 156 -90 0
-3 -24 -18 -53 -34 -28 -16 -109 -64 -179 -108 l-127 -79 -52 -92 c-88 -158
-123 -217 -129 -217 -3 0 -45 69 -95 153 -49 83 -102 166 -117 183 -15 17 -93
66 -172 110 -80 43 -145 81 -145 84 -1 3 74 50 165 105 92 55 176 112 188 126
13 15 58 90 102 168 l78 140 32 -52 c18 -28 68 -110 112 -182z"/>
<path d="M3222 3273 l3 -778 910 0 c672 0 915 3 930 12 10 6 69 56 130 111 60
55 166 149 235 209 69 60 164 156 212 213 195 229 186 282 -92 560 -158 158
-429 398 -485 428 -27 15 -112 17 -938 20 l-907 3 2 -778z m1811 746 c40 -11
144 -95 391 -318 223 -202 336 -344 336 -424 0 -36 -40 -118 -88 -177 -66 -83
-216 -231 -327 -325 -60 -50 -150 -129 -199 -174 -70 -64 -96 -81 -120 -82
-17 0 -425 0 -906 0 l-875 1 -3 755 -2 755 877 0 c586 0 891 -4 916 -11z"/>
<path d="M3840 3555 l-285 -285 288 -288 c262 -261 289 -285 299 -267 6 11
125 134 265 274 140 140 259 263 264 273 9 16 -26 55 -260 291 -149 150 -271
266 -271 258 0 -7 118 -132 262 -277 144 -145 260 -266 257 -268 -2 -3 -124
-126 -271 -274 l-266 -269 -274 274 -273 273 285 285 c157 157 280 285 275
285 -6 0 -138 -128 -295 -285z"/>
<path d="M4062 3395 c-40 -19 -56 -33 -67 -59 -28 -67 -15 -125 39 -175 19
-18 41 -26 81 -29 54 -4 56 -4 100 40 41 41 45 50 45 94 0 64 -28 110 -83 134
-53 25 -52 25 -115 -5z"/>
<path d="M6220 3276 l0 -774 83 -5 c113 -8 1582 -9 1686 -1 l84 7 71 66 c39
37 147 134 239 215 169 149 290 276 355 374 65 97 54 168 -47 302 -44 58 -244
251 -406 390 -54 47 -122 107 -151 133 -28 26 -67 52 -85 57 -21 6 -386 10
-931 10 l-898 0 0 -774z m1873 719 c189 -160 336 -293 458 -415 200 -199 242
-284 188 -385 -50 -93 -217 -269 -452 -476 -217 -191 -228 -199 -255 -200 -15
0 -423 0 -907 0 l-880 1 -3 755 -2 755 909 -2 909 -3 35 -30z"/>
<path d="M7101 3707 c-109 -195 -114 -201 -183 -243 -171 -102 -299 -187 -296
-196 2 -5 73 -49 158 -97 176 -99 167 -89 305 -320 50 -83 92 -150 95 -150 3
0 41 65 85 145 44 80 90 159 103 174 12 16 91 70 174 122 194 119 198 122 198
128 0 7 -114 76 -215 130 -44 24 -90 52 -101 62 -12 11 -71 100 -130 198 -60
99 -111 179 -114 180 -3 0 -38 -60 -79 -133z m179 -62 c123 -204 112 -192 279
-286 83 -46 151 -86 151 -89 -1 -3 -53 -36 -117 -75 -255 -154 -225 -124 -340
-330 -30 -55 -61 -106 -67 -113 -10 -10 -34 24 -117 159 -116 192 -104 181
-311 295 -60 32 -108 62 -108 65 0 4 72 50 160 104 88 53 172 109 188 124 15
15 47 66 71 112 24 46 60 108 78 138 40 63 26 74 133 -104z"/>
<path d="M7143 3409 c-18 -5 -49 -25 -68 -45 -30 -29 -35 -42 -35 -80 0 -54
18 -92 62 -129 28 -24 39 -27 85 -23 140 12 180 177 63 259 -33 23 -68 29
-107 18z"/>
<path d="M1048 2118 c-21 -17 -104 -141 -113 -169 -9 -28 8 -39 62 -39 35 0
42 -3 45 -22 5 -36 36 -28 60 14 20 35 20 39 5 55 -11 13 -17 41 -19 92 -3 76
-12 91 -40 69z m-8 -118 c0 -42 -15 -58 -45 -46 -13 5 -11 12 11 46 15 22 28
40 30 40 2 0 4 -18 4 -40z"/>
<path d="M3951 2070 c-16 -75 -14 -90 10 -90 11 0 29 5 39 10 15 8 24 6 40
-10 24 -24 25 -43 4 -64 -19 -20 -38 -20 -54 -1 -18 21 -50 19 -50 -3 0 -28
32 -52 69 -52 46 0 70 16 87 57 25 59 -4 109 -68 119 -58 10 -49 32 15 36 44
3 52 6 52 23 0 18 -8 20 -67 23 l-66 3 -11 -51z"/>
<path d="M7086 2089 c-22 -26 -26 -40 -26 -95 0 -68 17 -117 45 -128 9 -3 32
-6 50 -6 66 0 98 87 53 145 -18 23 -26 26 -60 22 -42 -6 -48 5 -24 38 14 19
15 19 50 2 46 -22 46 -22 46 8 0 29 -26 45 -73 45 -27 0 -41 -7 -61 -31z m89
-144 c0 -33 -4 -41 -22 -43 -27 -4 -46 28 -37 63 5 21 12 25 33 23 23 -3 26
-7 26 -43z"/>
<path d="M216 1658 c-4 -73 -6 -422 -5 -776 l2 -642 916 0 c854 0 918 1 942
18 29 18 209 179 402 357 208 191 300 314 300 401 0 52 -39 125 -118 217 -61
71 -254 256 -370 353 -33 28 -97 83 -142 121 -48 41 -95 73 -114 77 -17 3
-431 6 -919 6 l-887 0 -7 -132z m1831 97 c20 -9 57 -34 82 -58 26 -23 100 -88
166 -144 188 -159 395 -375 433 -452 18 -35 32 -74 32 -86 0 -66 -109 -210
-280 -371 -118 -112 -385 -346 -415 -365 -29 -18 -66 -19 -926 -19 l-896 0 -7
152 c-8 189 -8 940 1 1181 l6 177 884 0 c768 0 888 -2 920 -15z"/>
<path d="M1085 1145 c-92 -50 -115 -126 -64 -211 23 -38 73 -64 124 -64 29 0
45 8 82 43 37 35 46 51 50 87 4 36 0 52 -19 79 -48 70 -117 96 -173 66z"/>
<path d="M3220 1015 l0 -775 913 0 c1049 0 918 -14 1059 117 47 43 147 132
222 198 139 121 267 259 324 349 77 121 49 195 -151 402 -73 75 -188 185 -257
243 -69 58 -154 131 -189 163 -36 32 -80 62 -100 68 -23 6 -362 10 -928 10
l-893 0 0 -775z m1827 744 c15 -5 61 -40 103 -77 41 -37 118 -104 170 -147
136 -114 359 -343 400 -411 28 -47 35 -68 35 -110 0 -46 -6 -61 -50 -125 -78
-117 -257 -290 -606 -586 l-50 -43 -904 0 -905 0 0 755 0 755 889 0 c603 0
899 -3 918 -11z"/>
<path d="M4093 1550 c-9 -16 -20 -30 -23 -30 -4 0 -358 -349 -473 -467 l-41
-43 282 -282 282 -283 168 166 c92 91 218 218 281 282 l113 117 -40 47 c-22
27 -144 151 -271 277 -127 126 -231 233 -231 238 0 20 -30 5 -47 -22z m141
-182 c49 -82 102 -160 120 -175 17 -16 91 -61 164 -102 72 -41 132 -77 132
-80 0 -4 -71 -49 -157 -101 -86 -52 -167 -103 -180 -113 -12 -10 -59 -85 -104
-167 -62 -112 -86 -147 -95 -139 -7 5 -54 80 -104 165 -51 85 -105 165 -121
178 -30 26 -242 146 -257 146 -5 0 -17 9 -26 19 -17 18 -12 22 139 112 86 52
171 108 188 125 18 17 67 95 111 173 69 125 80 140 90 124 7 -10 52 -84 100
-165z m276 -197 l113 -114 -89 48 c-166 89 -174 96 -240 202 -131 211 -131
211 -8 88 61 -60 162 -161 224 -224z m-501 218 c-74 -135 -81 -143 -177 -202
-203 -125 -203 -126 18 96 112 114 206 205 208 203 2 -2 -20 -46 -49 -97z
m-122 -571 c6 -5 40 -57 74 -116 34 -59 69 -118 77 -132 16 -26 -236 215 -343
328 l-60 63 120 -67 c66 -36 125 -71 132 -76z m713 129 c0 -1 -97 -99 -216
-217 -168 -167 -211 -205 -191 -170 14 25 44 79 67 120 23 41 49 83 59 93 10
11 76 54 147 98 128 78 134 81 134 76z"/>
<path d="M6220 1015 l0 -775 918 0 919 0 39 29 c21 15 48 38 59 51 11 13 105
97 209 188 196 172 356 345 397 429 27 57 22 123 -17 190 -60 103 -561 578
-676 641 l-41 22 -904 0 -903 0 0 -775z m1833 742 c62 -27 509 -432 609 -551
146 -175 133 -245 -92 -480 -65 -69 -136 -134 -446 -408 l-65 -58 -909 0 -910
0 0 755 0 755 893 0 c673 -1 899 -4 920 -13z"/>
<path d="M7160 1572 c0 -4 -116 -125 -257 -268 -142 -142 -264 -267 -272 -277
-13 -17 8 -40 251 -285 146 -147 270 -276 276 -287 10 -18 37 6 292 260 171
171 280 287 280 299 0 21 -537 566 -558 566 -6 0 -12 -4 -12 -8z m325 -802
c-132 -133 -256 -254 -276 -270 l-36 -29 -264 265 c-145 145 -264 270 -264
276 0 6 119 131 265 277 l265 267 275 -273 275 -273 -240 -240z"/>
</g>
</svg>
