<?xml version="1.0" standalone="no"?>
<!DOCTYPE svg PUBLIC "-//W3C//DTD SVG 20010904//EN"
 "http://www.w3.org/TR/2001/REC-SVG-20010904/DTD/svg10.dtd">
<svg version="1.0" xmlns="http://www.w3.org/2000/svg"
 width="900.000000pt" height="922.000000pt" viewBox="0 0 900.000000 922.000000"
 preserveAspectRatio="xMidYMid meet">
<metadata>
Created by potrace 1.16, written by Peter Selinger 2001-2019
</metadata>
<g transform="translate(0.000000,922.000000) scale(0.100000,-0.100000)"
fill="#FFFFFF" stroke="none">
<path d="M216 8753 c-8 -313 -8 -3792 1 -3970 l6 -133 3389 0 3388 0 0 2175 0
2175 -3388 0 -3389 0 -7 -247z m6764 -1928 l0 -2155 -3368 0 -3369 0 -6 123
c-9 161 -9 3815 -1 4025 l7 162 3369 0 3368 0 0 -2155z"/>
<path d="M1920 8197 c-129 -131 -258 -257 -287 -280 -29 -23 -52 -44 -53 -47
0 -3 128 -134 285 -291 l285 -285 285 286 c157 157 285 285 285 285 0 0 -127
128 -283 285 l-283 285 -234 -238z m750 -309 c0 -4 -110 -6 -245 -5 l-245 2 0
250 0 250 245 -245 c135 -135 245 -248 245 -252z m-542 7 c-2 -1 -115 -5 -253
-8 l-249 -6 249 247 250 247 3 -239 c1 -131 1 -240 0 -241z m2 -300 c0 -135
-1 -245 -3 -245 -1 0 -112 110 -247 245 l-245 245 248 0 247 0 0 -245z m540
242 c0 -1 -110 -112 -245 -247 l-245 -245 0 248 0 247 245 0 c135 0 245 -1
245 -3z"/>
<path d="M4763 8148 l-283 -283 282 -282 c155 -156 285 -283 288 -283 7 0 560
553 560 560 0 4 -561 570 -565 570 0 0 -127 -127 -282 -282z m826 -276 c3 -1
-118 -126 -269 -277 l-275 -275 -272 272 -273 273 272 272 273 273 270 -268
c148 -147 271 -268 274 -270z"/>
<path d="M4130 5806 l0 -774 283 -7 c155 -3 568 -5 918 -3 l635 3 60 53 c32
29 136 120 229 201 224 194 363 345 416 448 39 76 16 158 -75 274 -66 84 -508
487 -616 562 -23 16 -91 17 -937 17 l-913 0 0 -774z m1856 732 c173 -133 575
-512 628 -592 20 -31 43 -75 52 -98 13 -39 13 -47 -2 -86 -38 -101 -212 -291
-459 -502 -60 -52 -137 -120 -171 -151 -34 -32 -72 -61 -85 -64 -13 -3 -422
-4 -909 -3 l-885 3 -3 758 -2 757 904 0 903 0 29 -22z"/>
<path d="M1607 6374 c-4 -4 -7 -261 -7 -571 l0 -563 565 0 564 0 3 278 c2 152
2 408 0 568 l-3 291 -557 2 c-307 1 -561 -1 -565 -5z m533 -279 l0 -265 -260
0 -260 0 0 260 0 259 98 4 c53 1 170 4 260 5 l162 2 0 -265z m438 255 l132 0
0 -260 0 -260 -260 0 -260 0 0 267 0 266 128 -6 c70 -4 187 -7 260 -7z m-438
-830 l0 -260 -260 0 -260 0 0 260 0 260 260 0 260 0 0 -260z m570 0 l0 -260
-260 0 -260 0 0 260 0 260 260 0 260 0 0 -260z"/>
<path d="M7250 6946 l0 -306 143 0 c78 0 160 5 181 10 138 31 183 199 77 287
-14 12 -33 22 -41 23 -9 0 -2 10 17 26 58 45 68 140 22 198 -41 52 -71 60
-241 64 l-158 4 0 -306z m270 225 c53 -11 80 -40 80 -86 0 -55 -25 -75 -108
-86 -40 -6 -92 -9 -115 -7 l-42 3 -3 93 -3 92 73 0 c40 -1 93 -5 118 -9z m46
-266 c47 -19 70 -72 54 -121 -19 -56 -44 -66 -172 -68 l-113 -1 -3 103 -3 102
101 0 c66 0 113 -5 136 -15z"/>
<path d="M7878 6932 c-7 -10 -28 -29 -45 -42 -18 -13 -33 -30 -33 -37 0 -16 9
-16 40 2 14 8 28 14 33 15 4 0 7 -52 7 -116 0 -103 2 -115 17 -112 9 2 16 6
15 11 -1 4 -2 72 -2 152 0 143 -5 164 -32 127z"/>
<path d="M8050 6901 c-58 -52 -63 -73 -11 -47 16 9 32 16 36 16 3 0 5 -52 5
-115 0 -108 1 -115 20 -115 19 0 20 7 20 155 0 85 -3 155 -7 155 -5 0 -33 -23
-63 -49z"/>
<path d="M998 4349 c-67 -57 -64 -82 5 -54 15 6 17 -1 17 -84 0 -90 0 -91 25
-91 l25 0 0 135 c0 102 -3 135 -12 135 -7 -1 -34 -19 -60 -41z"/>
<path d="M3993 4382 c-24 -4 -63 -46 -63 -68 0 -21 38 -17 50 6 12 23 58 27
66 6 8 -21 -12 -54 -72 -118 -77 -81 -74 -88 36 -88 l90 0 0 26 c0 26 -2 26
-49 22 l-49 -5 49 59 c51 62 61 97 35 131 -16 20 -61 34 -93 29z"/>
<path d="M7081 4354 c-37 -46 -19 -59 38 -27 21 13 33 15 41 7 15 -15 3 -39
-27 -53 -28 -13 -24 -24 19 -45 27 -13 35 -41 18 -61 -18 -21 -48 -18 -62 5
-15 24 -36 26 -45 4 -9 -24 35 -64 73 -64 46 0 63 9 79 41 20 38 19 63 -5 84
-17 16 -18 20 -5 38 34 48 1 97 -64 97 -31 0 -44 -6 -60 -26z"/>
<path d="M219 3285 c-1 -421 -2 -770 -3 -776 -2 -18 1814 -15 1847 3 14 7 80
63 148 123 372 333 486 452 541 562 27 56 30 67 20 103 -18 74 -75 153 -197
275 -126 127 -432 399 -499 444 l-40 26 -908 3 -908 2 -1 -765z m1811 735 c48
-13 305 -234 506 -434 129 -129 167 -174 192 -225 18 -35 32 -74 32 -86 0 -74
-136 -243 -356 -441 -225 -204 -319 -287 -341 -301 -19 -13 -150 -14 -919 -13
-494 0 -900 3 -903 6 -9 9 -14 984 -6 1249 l7 255 877 0 c538 0 890 -4 911
-10z"/>
<path d="M587 3833 c-4 -3 -7 -257 -7 -564 0 -499 2 -557 16 -563 9 -3 265 -6
570 -6 l554 0 0 570 0 570 -563 0 c-310 0 -567 -3 -570 -7z m288 -273 c-143
-143 -263 -260 -267 -260 -10 0 -11 504 -1 513 3 4 124 7 267 7 l261 0 -260
-260z m816 -290 c0 -3 -121 -126 -270 -274 l-270 -270 -273 272 -273 272 273
273 272 272 270 -270 c148 -148 270 -272 271 -275z m9 290 c0 -143 -1 -260 -3
-260 -1 0 -119 117 -262 260 l-260 260 263 0 262 0 0 -260z m-833 -572 c139
-139 253 -256 253 -260 0 -5 -114 -8 -254 -8 l-253 0 -7 52 c-8 60 -6 468 2
468 4 0 120 -114 259 -252z m833 -8 l0 -260 -260 0 c-143 0 -260 1 -260 3 0 3
514 517 518 517 1 0 2 -117 2 -260z"/>
<path d="M3220 3275 c0 -426 3 -775 8 -775 1639 -6 1818 -5 1845 13 15 9 64
52 110 95 46 42 147 132 225 200 145 125 270 260 332 360 28 44 35 65 35 107
0 78 -46 146 -215 316 -136 136 -388 363 -465 417 -19 13 -53 28 -77 33 -24 4
-438 8 -920 9 l-878 0 0 -775z m1811 745 c41 -11 155 -104 383 -310 236 -214
346 -352 346 -435 0 -96 -164 -286 -483 -561 -76 -65 -158 -136 -181 -157
l-43 -38 -904 1 -904 0 -3 755 -2 755 877 0 c551 0 891 -4 914 -10z"/>
<path d="M3555 3658 c-3 -101 -5 -356 -3 -568 l3 -385 568 -3 567 -2 0 570 0
570 -564 0 -564 0 -7 -182z m545 -98 c0 -143 -3 -260 -7 -260 -5 0 -123 -1
-263 -3 l-255 -2 -3 80 c-2 44 0 162 3 263 l7 182 259 0 259 0 0 -260z m568
-2 l-3 -263 -254 2 c-140 2 -257 5 -260 9 -7 7 -14 482 -7 500 4 11 56 14 266
14 l260 0 -2 -262z m-570 -576 l2 -262 -262 2 -263 3 0 255 c-1 140 1 258 3
263 2 4 119 6 260 5 l257 -3 3 -263z m572 3 l0 -265 -259 0 -258 0 -7 31 c-8
40 -8 447 0 477 l6 22 259 0 259 0 0 -265z"/>
<path d="M6220 3276 l0 -774 123 -7 c67 -4 480 -5 918 -3 l796 3 31 25 c115
94 495 445 549 508 149 174 167 228 115 335 -17 34 -53 87 -79 118 -123 144
-584 553 -635 563 -17 3 -433 6 -924 6 l-894 0 0 -774z m1872 719 c162 -135
336 -292 458 -415 201 -200 241 -280 190 -379 -46 -91 -209 -266 -410 -441
-47 -41 -117 -105 -157 -142 -39 -36 -83 -74 -97 -83 -24 -16 -100 -17 -928
-16 l-903 1 -3 755 -2 755 908 -2 908 -3 36 -30z"/>
<path d="M7160 3830 c0 -6 -119 -131 -265 -279 -146 -147 -265 -274 -265 -282
0 -7 114 -128 253 -269 140 -140 261 -266 271 -280 l16 -25 287 288 288 287
-285 285 c-157 157 -288 285 -292 285 -5 0 -8 -5 -8 -10z m295 -830 c-149
-149 -275 -269 -280 -268 -6 0 -129 122 -275 269 l-264 269 269 273 270 273
275 -273 275 -273 -270 -270z"/>
<path d="M1035 2104 c-42 -45 -107 -152 -103 -171 2 -14 14 -19 56 -21 48 -3
52 -5 52 -28 0 -32 37 -33 50 -1 6 12 16 30 22 40 11 15 10 20 -4 31 -14 10
-18 28 -18 79 0 102 -12 117 -55 71z m5 -104 c0 -38 -2 -40 -30 -40 l-30 0 26
40 c15 22 28 40 30 40 2 0 4 -18 4 -40z"/>
<path d="M3951 2070 c-18 -82 -16 -93 17 -88 15 3 35 8 44 12 11 5 21 0 33
-17 13 -20 14 -29 4 -51 -15 -31 -35 -33 -65 -5 -24 23 -44 18 -44 -10 0 -42
72 -66 121 -41 29 16 51 67 44 101 -8 36 -49 69 -86 69 -21 0 -27 4 -23 15 4
9 20 15 43 15 44 0 66 13 58 34 -5 12 -21 16 -71 16 l-64 0 -11 -50z"/>
<path d="M7089 2091 c-26 -27 -29 -36 -29 -96 0 -69 17 -118 45 -129 39 -15
83 -6 104 20 50 63 9 153 -64 141 -39 -6 -45 5 -20 39 13 18 15 18 45 2 42
-24 50 -23 50 7 0 52 -84 62 -131 16z m86 -146 c0 -34 -3 -40 -22 -43 -16 -2
-26 4 -34 21 -15 33 4 69 34 65 18 -2 22 -10 22 -43z"/>
<path d="M215 1618 c-3 -95 -5 -443 -3 -773 l3 -600 920 -3 921 -2 199 177
c110 97 257 234 327 305 104 105 134 143 164 203 34 68 36 78 26 115 -20 80
-75 153 -228 305 -84 83 -192 185 -240 225 -49 41 -124 105 -166 141 -45 38
-91 69 -109 73 -17 3 -431 6 -919 6 l-888 0 -7 -172z m1857 122 c89 -62 298
-248 454 -404 138 -138 177 -183 202 -235 18 -35 32 -74 32 -86 0 -43 -61
-143 -137 -226 -102 -111 -342 -332 -527 -487 l-51 -42 -901 0 -901 0 -7 178
c-8 216 -8 889 1 1145 l6 187 897 -2 897 -3 35 -25z"/>
<path d="M572 1013 l3 -568 563 -4 562 -3 0 571 0 571 -565 0 -565 0 2 -567z
m1108 0 l0 -548 -545 3 -545 2 0 545 0 545 545 0 545 0 0 -547z"/>
<path d="M3220 1015 l0 -775 913 0 c1049 0 918 -14 1059 117 46 43 145 131
219 195 229 200 368 374 369 464 0 17 -14 59 -31 94 -39 78 -247 295 -424 443
-66 56 -147 125 -180 155 -32 30 -74 61 -92 68 -26 12 -195 14 -933 14 l-900
0 0 -775z m1837 737 c69 -37 445 -375 563 -505 106 -117 145 -188 137 -249
-12 -91 -190 -293 -467 -529 -74 -64 -142 -124 -150 -134 -8 -10 -33 -31 -54
-47 l-39 -28 -904 0 -903 0 0 755 0 755 893 0 c830 0 894 -1 924 -18z"/>
<path d="M3558 1193 c-2 -214 -3 -469 -2 -568 l0 -179 567 -4 567 -4 0 571 0
571 -565 0 -565 0 -2 -387z m532 359 c0 -4 -114 -121 -254 -260 l-254 -253 -6
33 c-8 44 -8 248 0 381 l7 107 253 0 c140 0 254 -4 254 -8z m580 -252 c0 -143
-1 -260 -3 -260 -1 0 -119 117 -262 260 l-260 260 263 0 262 0 0 -260z m-570
-15 l0 -245 -247 0 -248 0 245 245 c135 135 246 245 247 245 2 0 3 -110 3
-245z m297 -243 c-186 -2 -242 1 -249 10 -4 7 -8 118 -8 246 l0 234 249 -244
249 -243 -241 -3z m-300 -577 c-1 0 -118 1 -259 3 l-258 3 0 258 0 257 259
-260 c143 -143 259 -261 258 -261z m1 278 c1 -134 1 -243 0 -243 -6 1 -405
396 -448 443 l-43 47 244 -2 244 -3 3 -242z m302 2 c-135 -135 -248 -245 -252
-245 -9 0 -11 435 -2 468 l6 22 247 0 246 0 -245 -245z m270 -14 l0 -259 -252
-4 c-139 -2 -257 -2 -262 0 -6 4 501 522 511 522 2 0 3 -117 3 -259z"/>
<path d="M6220 1015 l0 -775 925 0 925 0 88 83 c48 45 162 148 254 229 170
151 311 306 349 385 27 57 21 125 -17 192 -31 52 -289 318 -409 421 -44 38
-120 102 -169 144 -51 43 -104 80 -125 86 -23 6 -361 10 -928 10 l-893 0 0
-775z m1833 741 c37 -16 229 -179 413 -352 210 -196 294 -308 294 -386 -1 -98
-120 -242 -419 -507 -84 -75 -182 -162 -218 -194 l-64 -57 -910 0 -909 0 0
755 0 755 890 0 c741 0 896 -2 923 -14z"/>
<path d="M6891 1300 c-150 -153 -272 -283 -270 -289 2 -5 129 -136 281 -289
l277 -278 281 281 c154 154 280 285 280 290 0 13 -556 566 -567 563 -4 0 -131
-126 -282 -278z m269 -15 l0 -245 -247 0 -248 0 245 245 c135 135 246 245 247
245 2 0 3 -110 3 -245z m290 0 l245 -245 -248 0 -247 0 0 245 c0 135 1 245 3
245 1 0 112 -110 247 -245z m-292 -550 l2 -250 -235 235 c-130 129 -241 243
-246 253 -9 16 3 17 233 15 l243 -3 3 -250z m504 218 c-34 -43 -447 -453 -456
-453 -8 0 -7 475 1 483 3 4 114 7 246 7 l239 0 -30 -37z"/>
</g>
</svg>
