<?xml version="1.0" standalone="no"?>
<!DOCTYPE svg PUBLIC "-//W3C//DTD SVG 20010904//EN"
 "http://www.w3.org/TR/2001/REC-SVG-20010904/DTD/svg10.dtd">
<svg version="1.0" xmlns="http://www.w3.org/2000/svg"
 width="900.000000pt" height="922.000000pt" viewBox="0 0 900.000000 922.000000"
 preserveAspectRatio="xMidYMid meet">
<metadata>
Created by potrace 1.16, written by Peter Selinger 2001-2019
</metadata>
<g transform="translate(0.000000,922.000000) scale(0.100000,-0.100000)"
fill="#FFFFFF" stroke="none">
<path d="M216 8798 c-8 -258 -8 -3885 1 -4035 l6 -113 3389 0 3388 0 0 2175 0
2175 -3388 0 -3389 0 -7 -202z m6764 -1973 l0 -2155 -3368 0 -3369 0 -6 113
c-9 149 -9 3826 -1 4035 l7 162 3369 0 3368 0 0 -2155z"/>
<path d="M1580 7865 l0 -565 570 0 570 0 0 565 0 565 -570 0 -570 0 0 -565z
m540 538 c0 -10 -503 -513 -512 -513 -5 0 -8 117 -8 260 l0 260 260 0 c143 0
260 -3 260 -7z m570 -538 c0 -5 -120 -130 -267 -277 l-268 -268 -272 272 -273
273 272 272 273 273 267 -267 c148 -148 268 -272 268 -278z m10 285 c0 -143
-1 -260 -3 -260 -1 0 -119 117 -262 260 l-260 260 263 0 262 0 0 -260z m-835
-570 l260 -260 -263 0 -262 0 0 260 c0 143 1 260 3 260 1 0 119 -117 262 -260z
m835 0 l0 -260 -262 0 -263 0 260 260 c143 143 261 260 262 260 2 0 3 -117 3
-260z"/>
<path d="M2079 8104 c-27 -8 -68 -33 -97 -59 -113 -102 -109 -263 11 -372 97
-89 248 -81 344 19 126 131 64 361 -111 413 -60 18 -87 18 -147 -1z m147 -19
c57 -17 115 -70 139 -127 19 -46 20 -148 1 -191 -16 -39 -66 -92 -108 -113
-17 -9 -54 -18 -83 -21 -94 -10 -173 31 -222 115 -23 39 -28 59 -28 117 0 89
24 138 89 183 78 52 130 62 212 37z"/>
<path d="M4480 7865 l0 -565 570 0 570 0 0 565 0 565 -570 0 -570 0 0 -565z
m530 538 c0 -9 -493 -503 -502 -503 -4 0 -8 115 -8 255 l0 255 255 0 c140 0
255 -3 255 -7z m313 -805 c-148 -148 -272 -268 -278 -268 -5 0 -130 120 -277
267 l-268 268 272 272 273 273 272 -272 273 -273 -267 -267z m277 552 c0 -143
-3 -260 -7 -260 -5 0 -125 117 -268 260 l-259 260 267 0 267 0 0 -260z m-835
-570 l259 -260 -262 0 -262 0 0 260 c0 143 1 260 3 260 1 0 119 -117 262 -260z
m833 0 l-3 -260 -260 0 -260 0 260 260 c143 143 261 260 263 260 2 0 2 -117 0
-260z"/>
<path d="M4137 6573 c-4 -3 -7 -352 -7 -774 l0 -767 363 -7 c199 -4 612 -5
918 -3 l555 3 60 53 c32 29 138 122 234 206 303 264 430 420 430 526 0 47 -37
120 -102 203 -55 69 -382 367 -571 520 l-58 47 -908 0 c-499 0 -911 -3 -914
-7z m1945 -115 c168 -142 448 -403 496 -463 47 -61 87 -130 96 -168 20 -85
-142 -285 -439 -540 -77 -66 -168 -148 -203 -181 l-63 -61 -207 0 c-114 0
-523 1 -909 3 l-703 2 0 748 c0 412 3 752 7 755 3 4 410 7 904 7 l898 0 123
-102z"/>
<path d="M1600 5810 l0 -570 563 0 c310 0 566 2 568 4 2 2 3 258 1 569 l-2
565 -565 1 -565 2 0 -571z m756 540 l354 0 0 -545 0 -545 -545 0 -545 0 0 545
0 545 163 3 c89 2 175 2 191 0 16 -2 188 -3 382 -3z"/>
<path d="M2070 6039 c-65 -29 -127 -93 -146 -152 -39 -116 19 -252 130 -309
61 -31 156 -29 222 5 114 58 165 170 131 288 -43 147 -205 228 -337 168z m215
-33 c82 -48 132 -170 105 -259 -25 -85 -108 -159 -195 -172 -168 -25 -314 159
-250 313 21 48 80 110 130 134 56 27 148 20 210 -16z"/>
<path d="M7250 6945 l0 -307 168 4 c186 4 210 11 257 72 61 80 43 178 -44 238
l-25 17 26 20 c52 42 62 134 20 190 -42 57 -73 66 -244 69 l-158 4 0 -307z
m282 225 c45 -13 68 -43 68 -88 0 -60 -31 -78 -148 -87 -55 -4 -105 -4 -111 0
-7 3 -11 43 -11 96 l0 89 83 0 c45 0 99 -5 119 -10z m34 -265 c62 -26 77 -124
24 -167 -23 -19 -118 -31 -200 -26 l-55 3 -3 103 -3 102 101 0 c66 0 113 -5
136 -15z"/>
<path d="M7853 6908 c-66 -51 -75 -88 -13 -53 14 8 28 14 33 15 4 0 7 -52 7
-115 0 -103 2 -115 18 -115 15 0 17 11 14 122 -1 68 -3 137 -5 155 l-2 32 -52
-41z"/>
<path d="M8088 6941 c-39 -8 -68 -36 -68 -66 0 -33 11 -32 38 5 26 34 70 41
97 14 27 -27 10 -63 -66 -139 -69 -69 -89 -93 -89 -107 0 -5 47 -8 105 -8 98
0 105 1 105 20 0 18 -7 20 -77 20 l-77 0 72 68 c66 62 72 70 72 108 0 22 -6
48 -12 57 -16 22 -65 35 -100 28z"/>
<path d="M1000 4349 c-62 -49 -61 -80 3 -54 15 6 17 -1 17 -84 0 -90 0 -91 25
-91 l25 0 0 135 c0 74 -4 135 -9 135 -5 0 -32 -18 -61 -41z"/>
<path d="M3951 4354 c-12 -15 -21 -33 -21 -40 0 -21 38 -17 50 6 12 23 58 27
66 6 8 -20 -9 -47 -71 -117 -30 -34 -55 -68 -55 -75 0 -11 20 -14 91 -14 88 0
90 1 87 23 -3 19 -10 22 -51 25 l-48 3 43 45 c56 59 61 69 54 110 -8 40 -30
54 -85 54 -31 0 -44 -6 -60 -26z"/>
<path d="M7081 4354 c-37 -46 -19 -59 38 -27 21 13 33 15 41 7 16 -16 1 -44
-29 -56 -25 -9 -25 -10 -7 -24 11 -8 26 -14 33 -14 18 0 28 -47 13 -65 -18
-21 -46 -18 -64 6 -9 13 -21 19 -30 16 -43 -17 7 -77 62 -77 73 0 114 65 75
119 -17 22 -17 29 -6 51 25 49 -6 90 -68 90 -29 0 -42 -6 -58 -26z"/>
<path d="M216 3965 c-12 -149 -5 -1463 8 -1468 6 -2 417 -3 912 -2 871 1 903
2 932 21 34 21 201 169 396 349 161 150 250 252 288 333 27 56 29 67 20 103
-18 72 -75 151 -197 274 -125 127 -431 399 -499 444 l-40 26 -906 3 -907 2 -7
-85z m1859 33 c77 -55 384 -330 495 -444 119 -122 158 -177 180 -251 12 -41
11 -46 -19 -107 -36 -70 -144 -196 -261 -303 -144 -132 -385 -346 -407 -360
-18 -12 -154 -14 -919 -13 -494 0 -900 3 -903 6 -9 9 -14 1042 -6 1280 l7 224
898 -2 897 -3 38 -27z"/>
<path d="M1055 3501 c-102 -46 -149 -118 -150 -226 -1 -181 151 -294 329 -244
53 15 131 90 153 147 26 69 22 149 -10 205 -31 52 -87 104 -133 123 -47 20
-141 17 -189 -5z m201 -21 c50 -25 110 -98 125 -153 20 -75 -15 -186 -73 -230
-128 -98 -291 -68 -359 66 -63 122 -7 276 116 321 59 22 141 20 191 -4z"/>
<path d="M3220 3276 c0 -610 3 -775 13 -778 6 -2 417 -4 913 -3 857 0 901 1
928 19 16 10 63 50 105 90 42 39 138 125 214 190 134 115 268 255 329 343 41
61 60 120 52 166 -10 62 -94 174 -231 307 -144 142 -432 393 -478 418 -27 15
-116 17 -937 20 l-908 3 0 -775z m1811 744 c60 -17 471 -375 603 -526 70 -79
126 -174 126 -212 0 -99 -149 -278 -453 -541 -93 -80 -188 -163 -212 -185 -53
-46 67 -42 -1017 -38 l-838 2 0 755 0 755 878 0 c552 0 890 -4 913 -10z"/>
<path d="M3559 3688 c0 -84 -1 -340 -2 -568 l-2 -415 568 -3 567 -2 0 570 0
570 -565 0 -565 0 -1 -152z m541 129 c0 -1 -117 -119 -260 -262 l-260 -260 0
263 0 262 260 0 c143 0 260 -1 260 -3z m40 -9 c0 -7 118 -131 262 -275 l263
-263 -265 -268 c-146 -148 -270 -270 -275 -270 -6 -1 -132 120 -280 268 l-269
271 274 274 c151 151 278 274 283 275 4 0 7 -6 7 -12z m530 -255 c0 -146 -1
-264 -2 -262 -2 2 -120 122 -263 267 l-259 262 262 0 262 0 0 -267z m0 -568
l0 -265 -254 0 c-139 1 -256 4 -260 8 -5 5 500 520 512 522 1 0 2 -119 2 -265z
m-580 -257 c0 -12 -508 -10 -515 2 -3 5 -3 123 1 261 l7 251 254 -254 c139
-139 253 -256 253 -260z"/>
<path d="M6220 3275 l0 -775 818 -2 c897 -3 1006 -2 1037 14 11 6 70 57 131
112 60 56 167 152 237 213 200 178 325 334 335 418 4 37 -1 57 -26 108 -17 34
-50 85 -74 112 -56 66 -254 255 -393 375 -60 52 -130 114 -156 138 -26 23 -62
47 -80 52 -21 6 -388 10 -931 10 l-898 0 0 -775z m1832 746 c36 -14 358 -299
508 -450 190 -191 231 -278 179 -375 -48 -91 -222 -275 -414 -441 -44 -38
-112 -100 -152 -136 -39 -37 -83 -75 -97 -84 -23 -15 -106 -17 -928 -16 l-903
0 -3 756 -2 755 894 0 c502 0 905 -4 918 -9z"/>
<path d="M6610 3270 l0 -570 568 0 569 0 -2 568 -2 567 -566 3 -567 2 0 -570z
m1112 0 l3 -545 -545 0 -545 0 -3 548 -2 547 544 -2 545 -3 3 -545z"/>
<path d="M7075 3501 c-165 -77 -197 -295 -63 -417 53 -48 95 -64 165 -64 174
1 292 163 241 332 -15 51 -77 121 -131 147 -56 27 -156 28 -212 2z m237 -36
c59 -41 98 -119 98 -194 -1 -208 -255 -310 -397 -160 -112 118 -75 309 72 376
19 8 58 12 107 11 66 -3 82 -7 120 -33z"/>
<path d="M1049 2118 c-23 -19 -105 -139 -114 -167 -9 -30 7 -41 63 -41 38 0
42 -2 42 -26 0 -39 36 -28 63 19 20 36 21 40 5 51 -13 10 -18 31 -20 91 -3 80
-11 95 -39 73z m-13 -154 c-6 -15 -42 -19 -50 -6 -3 5 7 26 22 47 l27 38 3
-33 c2 -17 1 -38 -2 -46z"/>
<path d="M3951 2070 c-19 -90 -18 -93 38 -85 43 6 51 4 60 -14 25 -46 -27 -95
-59 -56 -14 16 -46 20 -54 6 -3 -5 4 -20 15 -35 37 -47 119 -32 144 27 26 62
-13 127 -76 127 -19 0 -29 5 -29 14 0 11 15 16 53 18 44 3 52 6 52 23 0 18 -8
20 -67 23 l-66 3 -11 -51z"/>
<path d="M7103 2108 c-59 -29 -57 -219 2 -242 9 -3 32 -6 50 -6 66 0 98 87 53
145 -18 23 -26 26 -60 22 -42 -6 -48 5 -24 38 14 19 15 19 50 2 20 -9 39 -17
41 -17 10 0 4 47 -7 58 -15 15 -75 15 -105 0z m75 -157 c3 -33 -9 -51 -35 -51
-19 0 -34 37 -27 65 5 21 12 25 33 23 22 -2 27 -9 29 -37z"/>
<path d="M216 1726 c-3 -35 -6 -384 -6 -775 l1 -711 917 0 918 0 34 25 c18 14
88 73 154 132 368 330 473 440 522 547 31 68 26 102 -28 194 -37 63 -280 311
-424 432 -49 41 -124 105 -166 141 -45 38 -91 69 -109 73 -17 3 -431 6 -919 6
l-887 0 -7 -64z m1841 22 c64 -35 352 -289 504 -445 106 -108 143 -153 169
-206 25 -51 31 -74 26 -98 -15 -78 -114 -204 -286 -364 -127 -119 -390 -349
-413 -362 -17 -9 -234 -12 -918 -13 l-896 0 -7 108 c-8 135 -8 1035 1 1245 l6
157 886 0 887 0 41 -22z"/>
<path d="M843 1291 l-282 -286 32 -22 c36 -25 481 -471 516 -517 l22 -30 287
287 287 287 -285 285 c-157 157 -287 284 -290 284 -3 -1 -132 -131 -287 -288z
m564 -549 l-273 -273 -272 273 -272 273 271 271 271 271 274 -271 274 -271
-273 -273z"/>
<path d="M3220 1015 l0 -775 918 0 919 0 71 63 c39 34 133 116 209 182 295
256 442 432 443 531 0 17 -14 59 -31 94 -39 78 -236 284 -419 439 -69 58 -152
130 -185 159 -32 30 -74 61 -92 68 -26 12 -195 14 -933 14 l-900 0 0 -775z
m1826 745 c15 -6 61 -41 103 -78 42 -37 116 -101 166 -142 131 -110 365 -350
405 -416 28 -47 35 -69 35 -110 0 -46 -6 -61 -50 -125 -78 -117 -257 -290
-606 -586 l-50 -43 -904 0 -905 0 0 755 0 755 889 0 c589 0 899 -3 917 -10z"/>
<path d="M3558 1218 c-2 -200 -2 -455 -1 -568 l2 -205 565 -3 566 -2 0 570 0
570 -565 0 -565 0 -2 -362z m1110 -205 l-3 -547 -540 3 c-297 1 -542 5 -545 8
-8 8 -12 847 -5 971 l7 112 544 0 544 0 -2 -547z"/>
<path d="M6220 1015 l0 -775 916 0 c661 0 921 3 937 11 12 7 56 44 97 83 41
39 150 137 241 217 93 83 200 188 246 243 185 221 176 263 -117 557 -195 196
-403 379 -472 417 l-41 22 -904 0 -903 0 0 -775z m1855 729 c106 -72 535 -468
602 -556 85 -111 99 -167 62 -247 -39 -88 -200 -258 -442 -471 -59 -52 -137
-121 -173 -152 l-64 -58 -910 0 -910 0 0 755 0 755 899 0 898 0 38 -26z"/>
<path d="M6612 1013 l3 -568 565 0 565 0 0 565 0 565 -568 3 -567 2 2 -567z
m373 375 c-94 -95 -212 -213 -262 -262 l-93 -90 0 262 0 262 262 0 262 0 -169
-172z m464 -102 l273 -274 -271 -273 -271 -274 -272 272 -272 272 262 264
c144 146 262 269 262 276 0 6 3 11 8 11 4 0 130 -123 281 -274z m271 13 l0
-261 -90 95 c-50 52 -167 170 -261 261 l-171 166 261 0 261 0 0 -261z m-570
-829 c0 -3 -117 -4 -260 -2 l-260 3 0 262 0 262 260 -260 c143 -143 260 -262
260 -265z m579 183 l1 -183 -262 0 -263 0 255 255 255 255 6 -72 c4 -40 7
-155 8 -255z"/>
<path d="M7135 1260 c-53 -8 -92 -30 -137 -77 -100 -103 -93 -250 15 -356 155
-150 417 -34 417 186 0 71 -20 120 -68 170 -64 66 -137 91 -227 77z m154 -40
c77 -39 121 -118 121 -216 -1 -122 -106 -224 -230 -224 -87 0 -158 43 -206
127 -20 32 -26 58 -26 101 -1 97 44 168 137 216 44 23 156 21 204 -4z"/>
</g>
</svg>
