<?xml version="1.0" standalone="no"?>
<!DOCTYPE svg PUBLIC "-//W3C//DTD SVG 20010904//EN"
 "http://www.w3.org/TR/2001/REC-SVG-20010904/DTD/svg10.dtd">
<svg version="1.0" xmlns="http://www.w3.org/2000/svg"
 width="996.000000pt" height="922.000000pt" viewBox="0 0 996.000000 922.000000"
 preserveAspectRatio="xMidYMid meet">
<metadata>
Created by potrace 1.16, written by Peter Selinger 2001-2019
</metadata>
<g transform="translate(0.000000,922.000000) scale(0.100000,-0.100000)"
fill="#FFFFFF" stroke="none">
<path d="M257 8893 c-9 -138 -9 -4598 0 -4725 l6 -98 2939 0 2938 0 0 2465 0
2465 -2938 0 -2939 0 -6 -107z m5863 -2358 l0 -2445 -2918 0 -2919 0 -6 113
c-9 147 -9 4463 0 4640 l6 137 2919 0 2918 0 0 -2445z"/>
<path d="M1222 8113 c-71 -35 -98 -106 -65 -170 56 -108 183 -108 239 -1 30
57 5 129 -58 168 -40 24 -72 25 -116 3z m129 -42 c29 -29 39 -47 39 -71 0 -60
-56 -120 -113 -120 -37 0 -90 41 -106 83 -13 34 -12 42 2 73 20 40 70 74 111
74 20 0 40 -12 67 -39z"/>
<path d="M2824 8119 c-47 -14 -94 -72 -94 -115 0 -76 58 -144 123 -144 65 0
126 49 142 112 9 34 -25 111 -57 132 -32 21 -76 27 -114 15z m113 -41 c37 -34
49 -88 29 -127 -19 -36 -70 -71 -104 -71 -59 0 -112 56 -112 120 0 46 16 69
63 91 49 23 91 18 124 -13z"/>
<path d="M4394 8116 c-50 -22 -74 -61 -74 -118 0 -142 164 -187 241 -66 64
103 -56 235 -167 184z m114 -26 c62 -38 70 -111 18 -168 -30 -33 -40 -37 -81
-37 -40 0 -51 5 -76 33 -23 25 -29 42 -29 76 0 93 89 144 168 96z"/>
<path d="M1179 6827 c-111 -42 -183 -124 -209 -243 -21 -92 26 -223 104 -290
154 -132 393 -80 483 104 24 48 28 70 28 137 0 67 -5 88 -27 130 -33 63 -88
118 -147 147 -56 28 -177 35 -232 15z m203 -23 c61 -20 117 -70 153 -135 26
-47 29 -65 30 -134 0 -72 -3 -86 -34 -143 -76 -139 -244 -191 -387 -119 -126
64 -186 205 -144 339 28 90 92 162 170 188 67 24 151 25 212 4z"/>
<path d="M1197 6633 c-71 -51 -72 -140 -1 -203 59 -52 145 -39 191 29 83 123
-68 261 -190 174z m154 -21 c24 -21 32 -38 36 -75 5 -43 3 -49 -31 -83 -34
-34 -40 -36 -82 -31 -51 5 -81 27 -101 75 -43 101 94 189 178 114z"/>
<path d="M2756 6824 c-73 -26 -133 -82 -174 -159 -23 -43 -27 -62 -27 -135 0
-73 4 -92 27 -135 59 -114 177 -181 301 -172 170 11 287 141 287 316 0 168
-141 302 -313 300 -34 0 -80 -7 -101 -15z m207 -20 c56 -19 131 -83 157 -133
44 -87 43 -187 -4 -278 -103 -202 -412 -201 -512 3 -118 241 105 495 359 408z"/>
<path d="M2770 6622 c-34 -33 -40 -45 -40 -81 0 -85 52 -141 133 -141 44 0 54
4 88 38 48 49 56 80 34 138 -22 57 -62 84 -127 84 -41 0 -52 -5 -88 -38z m149
3 c30 -15 61 -69 61 -105 0 -13 -17 -39 -39 -61 -33 -33 -45 -39 -81 -39 -34
0 -48 6 -76 34 -27 27 -34 42 -34 73 1 69 42 112 108 113 18 0 46 -7 61 -15z"/>
<path d="M4347 6826 c-84 -31 -175 -126 -197 -205 -18 -65 -12 -161 13 -216
32 -67 121 -148 188 -170 144 -48 307 23 376 163 37 76 39 193 5 260 -33 62
-84 114 -144 147 -63 34 -178 45 -241 21z m223 -30 c48 -25 118 -93 142 -140
72 -139 0 -322 -153 -391 -53 -24 -71 -27 -128 -23 -103 8 -187 59 -238 145
-32 54 -42 159 -23 228 23 82 98 161 185 193 43 17 173 9 215 -12z"/>
<path d="M4356 6626 c-33 -30 -36 -38 -36 -87 0 -63 26 -114 66 -129 45 -18
96 -12 135 16 74 51 79 144 13 202 -32 27 -45 32 -90 32 -46 0 -57 -4 -88 -34z
m154 -3 c52 -30 65 -94 30 -150 -26 -43 -54 -56 -109 -50 -63 7 -91 40 -91
108 0 42 5 55 29 80 35 34 95 40 141 12z"/>
<path d="M3655 5728 c-3 -7 -4 -310 -3 -673 l3 -660 796 0 795 0 35 29 c118
99 293 259 410 376 150 150 196 220 186 285 -8 48 -68 138 -151 224 -62 64
-306 285 -435 394 l-45 37 -793 0 c-626 0 -795 -3 -798 -12z m1695 -99 c215
-187 369 -329 403 -371 54 -65 107 -159 107 -187 0 -78 -119 -215 -410 -474
l-205 -182 -785 0 -785 0 -3 610 c-2 336 0 629 3 653 l6 42 783 0 782 0 104
-91z"/>
<path d="M1155 5541 c-95 -27 -135 -51 -213 -125 -169 -161 -202 -376 -91
-587 83 -156 241 -249 422 -249 265 0 469 186 493 451 8 83 -23 211 -69 287
-112 187 -341 281 -542 223z m234 -16 c170 -41 299 -171 346 -351 27 -103 14
-218 -37 -322 -27 -56 -117 -154 -171 -185 -146 -86 -324 -90 -479 -11 -187
94 -285 343 -219 554 73 234 318 372 560 315z"/>
<path d="M1200 5371 c-91 -30 -175 -104 -211 -186 -50 -114 -16 -261 83 -350
65 -58 128 -79 227 -73 121 7 207 63 258 166 38 76 40 193 5 263 -57 116 -150
180 -266 185 -39 2 -82 0 -96 -5z m184 -32 c116 -43 195 -172 183 -299 -9
-101 -65 -184 -157 -232 -63 -32 -205 -33 -265 -1 -46 25 -106 85 -128 128
-61 121 -26 282 80 362 80 61 193 78 287 42z"/>
<path d="M1190 5162 c-53 -53 -60 -97 -26 -155 50 -86 137 -97 209 -27 31 32
37 44 37 80 0 82 -58 140 -141 140 -35 0 -48 -6 -79 -38z m140 5 c30 -15 60
-71 60 -110 0 -20 -11 -40 -34 -63 -29 -29 -41 -34 -81 -34 -39 0 -52 5 -75
30 -37 40 -46 80 -26 118 33 64 97 88 156 59z"/>
<path d="M2746 5544 c-90 -22 -169 -69 -239 -144 -177 -187 -184 -443 -17
-647 96 -117 214 -173 363 -173 151 0 238 35 351 140 105 98 153 225 144 376
-20 308 -305 520 -602 448z m228 -20 c142 -36 250 -126 314 -262 30 -63 36
-87 40 -167 3 -61 0 -112 -8 -142 -37 -137 -127 -244 -256 -308 -65 -32 -88
-38 -162 -43 -162 -9 -280 35 -378 141 -179 194 -178 470 4 650 128 126 285
173 446 131z"/>
<path d="M2769 5367 c-84 -32 -148 -88 -191 -170 -19 -34 -23 -58 -23 -127 0
-73 4 -92 27 -136 38 -73 69 -106 130 -139 49 -28 61 -30 153 -30 78 0 107 4
133 18 59 32 115 91 144 152 35 75 39 185 9 252 -27 59 -96 130 -156 160 -61
31 -170 41 -226 20z m178 -22 c214 -64 278 -335 114 -488 -65 -61 -122 -81
-213 -75 -157 10 -263 112 -276 264 -7 92 18 155 88 226 83 82 175 106 287 73z"/>
<path d="M2793 5181 c-40 -25 -63 -69 -63 -120 0 -53 53 -116 105 -125 89 -17
179 77 155 163 -23 85 -125 127 -197 82z m122 -17 c45 -21 71 -82 55 -130 -30
-89 -156 -104 -203 -24 -60 100 41 205 148 154z"/>
<path d="M6522 6310 c-47 -11 -108 -55 -136 -98 -85 -129 -42 -354 80 -412
127 -62 267 -21 320 93 25 56 21 67 -26 66 -19 0 -29 -9 -45 -42 -26 -53 -72
-81 -136 -80 -101 1 -163 80 -163 203 0 83 16 128 57 167 81 77 195 63 243
-29 14 -26 19 -29 47 -24 41 8 41 9 22 48 -48 94 -148 135 -263 108z"/>
<path d="M6923 6011 c-48 -41 -61 -75 -18 -47 13 9 27 16 29 16 3 0 7 -44 8
-97 3 -85 5 -98 21 -101 17 -3 18 6 16 121 0 68 -4 129 -8 135 -3 6 -24 -5
-48 -27z"/>
<path d="M931 3814 c-23 -20 -41 -40 -41 -45 0 -13 34 -11 48 3 9 9 12 -6 12
-70 0 -81 0 -82 25 -82 l26 0 -3 112 c-2 74 -7 113 -15 115 -6 2 -30 -12 -52
-33z"/>
<path d="M3322 3827 c-12 -13 -22 -29 -22 -35 0 -17 30 -15 51 4 10 9 25 14
34 11 20 -8 19 -41 -2 -58 -23 -20 -93 -109 -93 -120 0 -5 36 -9 80 -9 73 0
80 2 80 20 0 17 -7 20 -47 20 l-47 0 36 38 c36 38 58 72 58 92 0 6 -11 22 -25
35 -31 32 -74 33 -103 2z"/>
<path d="M5742 3834 c-12 -8 -22 -21 -22 -29 0 -23 20 -28 40 -10 19 17 50 15
50 -5 0 -5 -9 -15 -20 -22 -26 -17 -25 -31 3 -43 27 -12 35 -52 12 -62 -10 -3
-30 2 -46 11 -26 16 -30 16 -35 1 -18 -46 76 -75 116 -35 24 24 26 72 5 90
-11 9 -13 16 -5 24 31 31 -5 96 -55 96 -11 0 -31 -7 -43 -16z"/>
<path d="M8170 3778 c-64 -91 -64 -105 -4 -114 33 -5 48 -12 51 -25 8 -30 31
-22 50 18 12 27 14 38 5 41 -7 2 -12 24 -12 55 0 66 -9 97 -26 97 -7 0 -36
-32 -64 -72z m46 -43 c-5 -26 -12 -35 -26 -35 -26 0 -25 14 2 50 26 36 33 32
24 -15z"/>
<path d="M413 3543 l-153 -4 0 -669 0 -670 795 0 795 0 90 78 c411 355 540
498 540 597 0 73 -124 229 -311 391 -51 43 -136 118 -189 166 -54 47 -108 92
-121 99 -19 10 -165 13 -659 14 -349 1 -704 0 -787 -2z m1404 -22 c27 -5 58
-22 87 -47 24 -21 77 -68 118 -102 181 -157 312 -281 347 -327 58 -77 91 -139
91 -169 0 -92 -187 -296 -558 -608 l-57 -48 -782 0 -783 0 0 650 0 649 73 4
c156 7 1424 6 1464 -2z"/>
<path d="M941 3345 c-79 -22 -141 -59 -213 -128 -198 -190 -198 -491 1 -696
183 -188 497 -187 687 3 251 252 159 678 -175 807 -73 29 -222 35 -300 14z
m252 -20 c81 -21 132 -50 193 -107 133 -126 184 -299 139 -473 -42 -160 -172
-286 -342 -330 -333 -87 -643 215 -572 557 54 257 324 420 582 353z"/>
<path d="M942 3154 c-73 -36 -148 -121 -168 -192 -21 -72 -14 -164 17 -227 35
-69 118 -141 187 -161 77 -23 178 -14 237 20 62 37 131 118 151 178 21 66 15
164 -16 236 -62 144 -266 217 -408 146z m228 -11 c73 -24 143 -89 169 -159 60
-158 -8 -316 -165 -385 -38 -17 -61 -21 -118 -17 -111 7 -190 56 -240 148 -85
155 -7 359 159 418 46 16 137 14 195 -5z"/>
<path d="M2675 3542 c-3 -3 -5 -306 -5 -674 l0 -668 799 0 799 0 229 204 c361
322 433 428 373 545 -31 63 -115 160 -213 250 -135 123 -317 282 -358 314
l-37 28 -791 3 c-435 1 -793 0 -796 -2z m1548 -18 c44 -6 61 -18 213 -151 290
-253 398 -371 431 -466 12 -34 11 -43 -7 -84 -40 -91 -145 -203 -413 -442 -71
-63 -142 -125 -160 -138 l-31 -23 -783 0 -783 0 0 650 0 650 183 2 c417 7
1306 7 1350 2z"/>
<path d="M3365 3475 c-134 -29 -236 -87 -331 -187 -82 -87 -118 -149 -144
-254 -55 -214 -1 -426 149 -586 126 -134 256 -188 455 -188 96 0 122 4 193 29
207 72 359 245 404 460 18 88 7 243 -25 325 -115 299 -406 466 -701 401z m250
-20 c212 -45 383 -210 449 -434 19 -64 21 -206 5 -283 -28 -131 -107 -255
-216 -337 -193 -145 -427 -167 -641 -61 -190 94 -310 283 -320 503 -8 181 43
318 163 441 146 150 356 214 560 171z"/>
<path d="M3375 3346 c-72 -17 -131 -48 -200 -104 -110 -88 -164 -197 -172
-348 -6 -107 15 -191 71 -279 78 -122 176 -190 318 -222 180 -40 390 48 498
209 61 92 84 178 78 297 -4 87 -9 106 -43 177 -101 210 -332 323 -550 270z
m268 -35 c122 -43 218 -133 273 -257 39 -86 45 -232 14 -324 -93 -278 -393
-403 -657 -275 -151 74 -253 241 -253 415 0 133 47 245 140 334 131 125 315
166 483 107z"/>
<path d="M3419 3220 c-105 -18 -212 -101 -258 -199 -22 -48 -26 -69 -26 -151
1 -84 4 -101 29 -149 44 -85 129 -163 201 -186 161 -50 319 4 417 144 64 92
75 238 26 340 -32 68 -135 165 -194 184 -64 21 -138 28 -195 17z m183 -35 c94
-32 179 -124 205 -222 44 -166 -34 -327 -194 -400 -71 -33 -173 -34 -253 -4
-68 26 -150 105 -181 175 -59 135 -20 308 89 395 95 75 219 96 334 56z"/>
<path d="M3419 3087 c-98 -37 -165 -136 -157 -232 6 -76 59 -154 125 -186 56
-27 130 -29 189 -4 130 54 174 226 87 342 -52 71 -167 108 -244 80z m160 -36
c164 -84 140 -322 -37 -375 -90 -26 -174 4 -222 81 -38 59 -46 105 -31 162 17
64 55 109 115 138 59 28 112 26 175 -6z"/>
<path d="M3454 2960 c-32 -13 -64 -59 -64 -91 0 -15 12 -41 26 -58 20 -25 34
-31 64 -31 52 0 68 8 85 41 22 42 18 75 -12 108 -31 33 -67 45 -99 31z m95
-56 c16 -36 14 -61 -9 -84 -30 -30 -83 -27 -109 6 -25 32 -26 52 -5 82 33 47
100 45 123 -4z"/>
<path d="M5084 3541 c-2 -2 -4 -305 -4 -673 l0 -668 803 0 802 1 55 50 c30 28
114 101 185 164 261 227 385 376 385 462 0 37 -42 111 -107 187 -69 83 -438
416 -503 454 l-45 27 -783 0 c-431 0 -786 -2 -788 -4z m1601 -33 c31 -17 77
-55 266 -224 223 -198 339 -337 339 -407 0 -84 -139 -249 -380 -452 -58 -49
-133 -115 -167 -147 l-61 -58 -791 0 -791 0 0 650 0 650 343 2 c188 2 538 3
777 2 381 0 439 -2 465 -16z"/>
<path d="M5810 3171 c-76 -23 -154 -92 -192 -169 -19 -38 -23 -63 -23 -132 0
-75 3 -91 29 -138 43 -78 112 -137 182 -158 121 -35 241 0 327 96 177 197 31
513 -236 509 -34 0 -73 -4 -87 -8z m196 -28 c73 -25 148 -104 170 -178 37
-129 -4 -255 -106 -328 -67 -46 -118 -61 -196 -54 -192 15 -312 209 -244 391
28 74 97 146 161 169 59 21 154 21 215 0z"/>
<path d="M5809 2961 c-35 -35 -39 -44 -39 -91 0 -48 4 -56 40 -92 39 -39 42
-40 95 -36 129 11 175 143 79 228 -29 25 -43 30 -86 30 -45 0 -54 -4 -89 -39z
m160 -6 c42 -36 57 -85 37 -124 -41 -78 -124 -95 -182 -37 -28 28 -34 41 -34
78 1 94 106 144 179 83z"/>
<path d="M7508 3545 c-5 -5 -8 -309 -8 -677 l0 -668 794 0 795 0 70 58 c194
158 474 429 523 505 61 94 45 172 -59 301 -48 58 -435 407 -504 453 l-36 24
-784 6 c-431 3 -787 2 -791 -2z m1596 -38 c51 -34 405 -347 467 -414 73 -78
121 -156 126 -207 7 -61 -29 -124 -136 -238 -90 -96 -361 -341 -438 -395 l-45
-33 -779 0 -779 0 0 650 0 649 153 3 c83 2 435 2 781 1 524 -2 632 -4 650 -16z"/>
<path d="M8237 2974 c-60 -40 -72 -95 -38 -163 25 -48 60 -71 107 -71 54 0
102 27 124 71 24 47 25 71 3 116 -34 73 -126 95 -196 47z m153 -22 c77 -77 26
-192 -85 -192 -68 0 -125 93 -96 156 15 34 69 64 114 64 29 0 46 -7 67 -28z"/>
<path d="M3334 1847 c-23 -20 -28 -34 -31 -83 -5 -80 20 -124 72 -124 45 0 75
29 75 73 0 49 -33 81 -77 74 -28 -5 -34 -3 -31 10 5 27 35 40 58 25 40 -25 57
-1 22 31 -26 23 -56 21 -88 -6z m76 -131 c0 -22 -18 -38 -36 -34 -27 5 -33 65
-7 70 18 5 43 -17 43 -36z"/>
<path d="M5763 1862 c-38 -2 -53 -7 -53 -18 0 -10 12 -14 45 -14 25 0 45 -4
45 -9 0 -5 -11 -33 -24 -62 -34 -75 -37 -113 -10 -117 18 -3 22 3 27 39 3 23
21 72 41 109 l35 68 -27 3 c-15 2 -51 3 -79 1z"/>
<path d="M8154 1845 c-18 -18 -23 -31 -18 -43 9 -20 8 -47 -1 -84 -12 -45 16
-78 65 -78 30 0 43 6 59 26 25 32 26 40 6 78 -11 20 -12 33 -5 40 17 17 11 54
-12 70 -32 23 -65 20 -94 -9z m72 -26 c8 -14 -21 -43 -35 -35 -6 4 -11 16 -11
27 0 21 34 27 46 8z m-1 -109 c0 -18 -6 -26 -23 -28 -13 -2 -25 3 -28 12 -10
26 4 48 28 44 17 -2 23 -10 23 -28z"/>
<path d="M905 1823 c-3 -21 -8 -49 -11 -62 -5 -21 -3 -23 23 -16 57 16 68 12
71 -23 4 -40 -19 -52 -58 -29 -28 17 -40 14 -40 -9 0 -40 75 -58 117 -29 27
19 38 67 22 97 -16 30 -28 38 -61 38 -48 0 -35 28 14 32 31 2 44 8 46 21 3 15
-5 17 -57 17 l-60 0 -6 -37z"/>
<path d="M260 913 l0 -673 796 0 795 0 72 62 c231 198 454 413 502 483 19 27
40 72 47 98 12 47 11 50 -21 113 -39 75 -136 182 -276 304 -54 47 -142 124
-196 172 -54 48 -109 93 -121 100 -18 10 -182 13 -810 13 l-788 0 0 -672z
m1563 648 c24 -6 60 -29 95 -60 31 -29 107 -94 167 -145 234 -198 375 -362
375 -436 0 -76 -124 -230 -331 -412 -58 -51 -145 -128 -194 -170 l-87 -78
-784 0 -784 0 0 650 0 650 313 3 c779 6 1195 6 1230 -2z"/>
<path d="M930 1386 c-249 -70 -408 -319 -356 -563 48 -231 223 -385 451 -400
140 -9 257 33 365 133 106 99 150 202 150 354 0 152 -47 259 -160 363 -95 88
-198 127 -330 126 -41 0 -95 -6 -120 -13z m251 -22 c88 -26 149 -63 207 -123
100 -103 150 -252 132 -393 -17 -131 -68 -219 -179 -308 -181 -145 -453 -130
-617 34 -258 258 -142 696 209 791 71 19 182 18 248 -1z"/>
<path d="M979 1017 c-79 -53 -78 -144 1 -211 25 -21 42 -26 82 -26 45 0 54 4
83 35 37 39 50 80 40 125 -4 17 -21 46 -40 65 -28 31 -38 35 -82 35 -36 0 -60
-7 -84 -23z m144 -17 c14 -11 31 -36 37 -55 33 -99 -65 -179 -159 -130 -30 15
-61 69 -61 105 0 78 119 130 183 80z"/>
<path d="M2670 913 l0 -673 799 0 800 0 143 128 c79 70 173 153 209 184 86 75
218 227 248 285 37 75 27 128 -43 223 -58 77 -411 408 -530 495 l-40 30 -793
1 -793 1 0 -674z m1621 626 c19 -15 81 -68 139 -119 298 -264 400 -373 436
-468 17 -42 17 -42 -14 -105 -49 -98 -230 -280 -519 -524 l-74 -63 -784 0
-785 0 0 650 0 649 143 3 c78 2 430 3 783 3 l641 0 34 -26z"/>
<path d="M3341 1384 c-79 -21 -146 -61 -216 -129 -96 -93 -145 -210 -145 -345
0 -121 37 -216 123 -320 162 -195 451 -226 660 -69 191 144 251 392 144 607
-38 79 -134 180 -204 216 -110 55 -249 71 -362 40z m254 -19 c84 -22 147 -60
209 -125 186 -195 182 -493 -10 -669 -267 -245 -676 -130 -778 218 -30 102
-15 244 35 343 12 23 46 67 75 98 120 126 301 178 469 135z"/>
<path d="M5087 1584 c-4 -4 -7 -308 -7 -676 l0 -668 803 0 802 1 55 50 c30 28
114 101 185 163 241 210 371 360 382 443 7 51 -25 114 -104 208 -61 72 -413
393 -493 449 l-45 31 -785 3 c-432 2 -789 0 -793 -4z m1598 -36 c46 -25 368
-312 466 -416 87 -91 139 -174 139 -222 0 -73 -140 -240 -353 -422 -73 -62
-160 -139 -194 -170 l-62 -58 -791 0 -790 0 0 649 0 650 53 4 c28 2 378 3 777
3 657 -1 728 -3 755 -18z"/>
<path d="M5775 1203 c-71 -24 -156 -110 -181 -183 -85 -249 133 -479 384 -405
123 37 217 164 217 295 -1 113 -65 219 -166 275 -68 36 -177 44 -254 18z m240
-31 c88 -45 165 -167 165 -262 0 -22 -10 -65 -21 -96 -73 -196 -320 -257 -470
-117 -67 63 -93 120 -94 209 0 62 4 80 35 139 37 72 96 124 164 145 52 16 175
6 221 -18z"/>
<path d="M7500 917 l0 -677 786 0 c691 0 790 2 819 16 18 8 73 52 122 97 50
45 130 118 179 162 116 105 242 236 278 291 59 92 42 172 -66 303 -52 63 -429
402 -499 448 l-36 24 -792 6 -791 6 0 -676z m1607 628 c37 -24 307 -260 416
-364 101 -97 168 -194 174 -254 7 -61 -29 -126 -127 -230 -82 -87 -397 -372
-456 -412 l-37 -25 -778 0 -779 0 0 649 c0 508 3 650 12 653 7 3 357 4 778 4
747 -1 766 -1 797 -21z"/>
<path d="M8173 1385 c-87 -24 -154 -64 -223 -134 -97 -99 -140 -200 -140 -336
0 -139 45 -246 147 -351 69 -69 135 -108 224 -129 171 -40 334 5 458 126 76
74 116 144 137 238 32 145 2 286 -89 406 -121 160 -324 231 -514 180z m312
-41 c55 -21 85 -43 138 -95 153 -152 189 -362 96 -556 -29 -60 -128 -160 -195
-195 -270 -144 -601 0 -680 295 -28 106 -13 241 38 341 27 53 109 138 170 177
117 76 295 89 433 33z"/>
<path d="M8197 1206 c-126 -45 -207 -161 -207 -296 0 -120 68 -228 177 -282
68 -33 197 -33 265 1 61 29 120 88 149 149 34 68 34 197 1 265 -34 68 -102
132 -167 156 -65 24 -161 27 -218 7z m200 -21 c28 -8 69 -32 94 -54 154 -135
122 -385 -63 -483 -62 -33 -194 -33 -256 0 -146 77 -202 236 -136 382 62 138
207 201 361 155z"/>
<path d="M8229 1025 c-54 -29 -79 -101 -56 -157 24 -56 70 -88 129 -88 47 0
54 4 90 40 49 53 55 108 17 162 -39 55 -122 75 -180 43z m147 -36 c51 -47 47
-117 -8 -164 -109 -92 -249 79 -141 174 22 19 35 22 75 19 33 -4 57 -13 74
-29z"/>
</g>
</svg>
