<?xml version="1.0" standalone="no"?>
<!DOCTYPE svg PUBLIC "-//W3C//DTD SVG 20010904//EN"
 "http://www.w3.org/TR/2001/REC-SVG-20010904/DTD/svg10.dtd">
<svg version="1.0" xmlns="http://www.w3.org/2000/svg"
 width="996.000000pt" height="922.000000pt" viewBox="0 0 996.000000 922.000000"
 preserveAspectRatio="xMidYMid meet">
<metadata>
Created by potrace 1.16, written by Peter Selinger 2001-2019
</metadata>
<g transform="translate(0.000000,922.000000) scale(0.100000,-0.100000)"
fill="#FFFFFF" stroke="none">
<path d="M256 8788 c-8 -271 -8 -4432 1 -4596 l6 -122 2939 0 2938 0 0 2465 0
2465 -2938 0 -2939 0 -7 -212z m5864 -2253 l0 -2445 -2920 0 -2920 0 0 2445 0
2445 2920 0 2920 0 0 -2445z"/>
<path d="M4350 8336 c0 -42 1 -44 35 -50 l35 -7 0 -94 0 -95 -37 -35 c-38 -34
-39 -34 -130 -35 -90 0 -93 1 -93 23 0 37 -14 49 -56 45 l-39 -3 -3 -92 -3
-93 51 0 50 0 0 35 0 35 95 0 95 0 35 -37 c34 -38 34 -38 35 -135 l0 -97 -32
-3 c-25 -2 -34 -9 -41 -32 -14 -43 10 -56 99 -56 91 0 104 5 104 40 0 32 -14
47 -50 52 -24 3 -25 5 -28 95 l-3 92 37 41 36 40 99 0 99 0 0 -35 c0 -35 0
-35 45 -35 l45 0 0 96 0 95 -42 -3 c-40 -3 -43 -5 -46 -35 l-3 -33 -98 0 -97
0 -37 38 -38 39 3 93 3 94 30 1 c28 0 30 3 36 43 3 23 3 44 1 47 -3 3 -47 5
-99 5 l-93 0 0 -44z"/>
<path d="M2817 8263 c-24 -4 -28 -9 -25 -31 2 -19 10 -28 26 -30 20 -3 22 -9
22 -71 0 -92 -19 -111 -113 -111 -59 0 -67 2 -67 19 0 12 -9 20 -23 23 -42 8
-47 0 -47 -73 l0 -70 33 3 c27 3 33 7 35 32 l4 28 70 -4 c90 -5 107 -24 108
-116 0 -57 -2 -63 -24 -71 -27 -11 -41 -40 -26 -55 12 -12 129 -11 141 1 15
15 -2 52 -25 55 -19 3 -21 10 -24 67 -3 58 -1 66 24 92 25 26 34 29 91 29 54
0 63 -3 63 -18 0 -25 19 -42 47 -42 22 0 23 4 23 69 0 39 -5 73 -10 76 -17 10
-49 -5 -55 -26 -6 -16 -16 -19 -75 -19 -62 0 -70 2 -89 26 -16 21 -21 41 -21
90 0 61 1 63 27 66 28 3 39 23 25 45 -8 13 -71 22 -115 16z"/>
<path d="M1253 8153 c-26 -5 -30 -25 -8 -43 21 -17 20 -86 -1 -94 -29 -11 -72
-6 -78 9 -3 8 -15 15 -26 15 -17 0 -20 -6 -20 -39 0 -47 12 -58 42 -37 12 9
39 16 60 16 l38 0 0 -49 c0 -34 -4 -51 -15 -55 -29 -11 -16 -34 23 -39 49 -6
58 5 38 46 -10 22 -14 46 -10 66 6 29 9 31 49 31 33 0 46 -5 58 -22 14 -20 18
-21 26 -8 6 8 11 30 11 48 0 38 -26 55 -45 29 -14 -19 -57 -22 -86 -7 -23 13
-24 38 -2 85 9 19 15 36 12 39 -9 8 -45 13 -66 9z"/>
<path d="M4368 7023 l-48 -4 0 -48 c0 -54 8 -61 66 -61 l34 0 0 -134 0 -134
-26 -6 c-14 -4 -34 -22 -46 -42 l-20 -35 -132 3 -131 3 -3 48 -3 47 -49 0 -48
0 -7 -103 c-10 -143 -10 -141 53 -145 l52 -3 0 45 0 46 134 0 135 0 16 -28 c9
-15 30 -35 46 -44 l29 -17 0 -131 0 -130 -50 0 -50 0 0 -55 0 -55 125 0 125 0
0 55 0 55 -45 0 -45 0 0 133 0 133 31 18 c17 10 35 29 41 42 11 24 13 24 145
24 l133 0 0 -45 0 -45 55 0 56 0 -3 123 -3 122 -50 0 -50 0 -3 -47 -3 -48
-134 0 -134 0 -16 30 c-9 17 -27 36 -40 42 -25 11 -25 13 -25 145 l0 133 45 0
45 0 0 55 0 55 -49 0 c-27 0 -61 2 -77 4 -16 1 -50 1 -76 -1z"/>
<path d="M2773 6913 c-7 -2 -13 -22 -13 -43 0 -40 11 -50 56 -50 24 0 24 -1
24 -96 l0 -95 -36 -35 c-37 -34 -37 -34 -135 -34 l-99 0 0 35 c0 35 0 35 -45
35 l-46 0 3 -97 3 -98 40 0 c39 0 40 1 43 38 l3 37 95 0 95 0 39 -42 40 -43 0
-92 0 -92 -37 -3 c-37 -3 -38 -4 -41 -45 l-3 -43 101 0 101 0 -3 43 c-3 38 -5
42 -33 45 -16 2 -33 9 -37 15 -4 7 -8 49 -8 93 l0 81 45 42 45 42 93 -3 92 -3
3 -30 c4 -35 16 -45 55 -45 l27 0 0 100 0 100 -40 0 c-39 0 -40 -1 -40 -35 l0
-35 -103 0 -103 0 -31 33 c-30 30 -31 37 -35 130 l-4 97 38 0 38 0 0 44 c0 41
-2 44 -31 50 -37 7 -138 7 -156 -1z"/>
<path d="M1207 6793 c-17 -16 -5 -42 23 -52 29 -10 30 -12 30 -75 0 -60 -2
-66 -32 -91 -28 -24 -39 -27 -85 -23 -41 4 -58 10 -69 26 -8 13 -26 22 -40 22
-23 0 -24 -2 -24 -70 0 -66 1 -70 23 -70 29 0 44 11 48 34 4 17 12 20 64 18
52 -2 64 -7 88 -33 23 -24 27 -38 27 -84 0 -50 -2 -56 -30 -70 -60 -31 -19
-69 69 -63 44 3 46 4 46 33 0 23 -5 31 -22 33 -21 3 -23 9 -23 71 0 92 19 111
113 111 59 0 67 -2 67 -19 0 -11 9 -21 23 -25 46 -12 48 -10 45 62 -3 60 -5
67 -24 70 -14 2 -29 -6 -42 -22 -17 -22 -28 -26 -76 -26 -47 0 -61 4 -82 25
-22 22 -25 32 -22 93 3 61 5 67 26 70 26 4 31 46 6 56 -21 8 -119 8 -127 -1z"/>
<path d="M3655 5728 c-3 -7 -4 -310 -3 -673 l3 -660 795 0 795 0 30 23 c60 48
283 250 398 362 174 169 227 258 197 331 -48 114 -167 237 -539 557 l-83 72
-795 0 c-626 0 -795 -3 -798 -12z m1611 -30 c68 -52 346 -300 429 -383 92 -92
165 -200 165 -244 0 -78 -130 -228 -415 -480 l-200 -176 -781 -3 -781 -2 -7
31 c-8 41 -8 1192 0 1242 l7 37 777 0 777 0 29 -22z"/>
<path d="M2740 5506 l0 -55 48 -3 47 -3 3 -126 3 -126 -40 -26 c-22 -14 -42
-35 -46 -47 -6 -19 -14 -20 -141 -20 l-134 0 0 45 0 45 -55 0 -55 0 0 -125 0
-125 55 0 55 0 0 50 0 50 126 0 125 0 52 -52 52 -53 3 -121 4 -122 -51 -7 -51
-7 0 -54 0 -54 120 0 120 0 0 54 0 55 -42 3 -43 3 -3 127 -3 126 51 51 51 51
124 0 124 0 3 -47 3 -48 55 0 55 0 3 123 3 122 -61 0 -60 0 0 -45 0 -45 -128
0 -128 0 -23 31 c-12 16 -33 35 -47 41 -24 11 -24 13 -24 145 l0 133 44 0 44
0 6 45 c4 25 4 49 1 55 -4 6 -57 10 -126 10 l-119 0 0 -54z"/>
<path d="M1180 5405 l0 -45 40 0 40 0 0 -94 0 -94 -42 -41 -43 -41 -92 0 c-90
0 -93 1 -93 23 0 34 -13 47 -53 54 l-37 6 0 -102 0 -101 39 0 c37 0 40 2 43
33 l3 32 97 3 97 3 41 -41 c40 -40 40 -41 40 -114 0 -87 -6 -106 -30 -106 -39
0 -50 -11 -50 -51 0 -35 3 -39 33 -44 17 -3 61 -5 97 -3 60 3 65 5 68 27 2 12
1 34 -2 47 -5 20 -13 24 -41 24 l-35 0 0 93 c1 91 1 92 35 130 l35 37 100 0
99 0 3 -32 c3 -31 6 -33 46 -36 l42 -3 0 95 0 96 -45 0 c-45 0 -45 0 -45 -35
l0 -35 -95 0 -95 0 -40 40 -40 40 0 94 0 95 38 3 c36 3 37 4 37 43 l0 40 -97
3 -98 3 0 -46z"/>
<path d="M6507 6304 c-151 -46 -211 -240 -128 -409 36 -73 71 -100 155 -117
105 -22 206 21 248 107 25 51 19 75 -19 75 -23 -1 -32 -8 -48 -43 -26 -53 -72
-81 -136 -80 -89 1 -139 50 -160 155 -24 119 30 231 125 258 73 20 138 -7 172
-72 13 -26 19 -29 47 -22 18 3 33 8 35 9 9 8 -42 87 -70 108 -65 48 -134 58
-221 31z"/>
<path d="M6903 6035 c-20 -9 -35 -23 -39 -40 -10 -40 4 -43 32 -7 14 18 33 32
43 32 20 0 51 -30 51 -49 0 -7 -31 -45 -70 -86 -38 -41 -70 -81 -70 -89 0 -13
15 -16 85 -16 69 0 85 3 85 15 0 12 -13 15 -60 15 -33 0 -60 2 -60 5 0 2 27
31 60 63 52 50 60 63 60 95 0 31 -5 40 -32 57 -39 23 -43 24 -85 5z"/>
<path d="M8229 3848 c-29 -23 -109 -139 -109 -158 0 -14 11 -20 45 -25 31 -5
46 -13 50 -26 8 -24 34 -25 42 -1 3 9 13 25 21 34 13 16 13 18 -2 24 -12 5
-16 20 -17 63 -1 31 -4 66 -7 79 -6 20 -9 21 -23 10z m-13 -113 c-5 -26 -12
-35 -26 -35 -26 0 -25 14 2 50 26 36 33 32 24 -15z"/>
<path d="M927 3811 c-44 -41 -45 -62 -2 -43 l25 12 0 -80 c0 -79 0 -80 25 -80
l25 0 0 115 c0 134 -5 139 -73 76z"/>
<path d="M3322 3830 c-12 -12 -22 -27 -22 -35 0 -19 34 -19 50 0 7 8 21 15 31
15 24 0 26 -42 2 -61 -31 -26 -93 -111 -87 -120 3 -5 39 -9 80 -9 67 0 74 2
74 20 0 17 -7 20 -46 20 l-47 0 42 45 c32 34 41 52 41 79 0 60 -72 88 -118 46z"/>
<path d="M5742 3834 c-24 -17 -30 -54 -8 -54 7 0 19 7 26 15 15 18 36 19 46 3
4 -6 -4 -21 -21 -34 l-27 -22 28 -13 c20 -10 29 -22 29 -39 0 -31 -29 -39 -55
-15 -20 18 -40 13 -40 -9 0 -22 35 -46 68 -46 59 0 94 70 55 112 -13 14 -14
21 -5 30 31 31 -4 88 -53 88 -11 0 -31 -7 -43 -16z"/>
<path d="M318 3543 l-58 -4 0 -669 0 -670 794 0 795 0 90 78 c305 261 473 428
511 507 38 79 37 111 -7 183 -21 34 -50 77 -65 96 -43 54 -430 403 -502 453
-31 21 -32 21 -766 26 -404 2 -761 2 -792 0z m1546 -36 c14 -9 54 -43 88 -75
35 -32 104 -92 153 -134 213 -179 355 -346 355 -418 0 -76 -125 -232 -328
-409 -54 -47 -132 -116 -173 -152 -41 -36 -85 -73 -99 -82 -22 -16 -92 -17
-802 -17 l-778 0 0 650 0 649 83 4 c45 2 396 2 779 2 631 -2 699 -3 722 -18z"/>
<path d="M1024 3019 c-4 -7 2 -19 14 -30 22 -17 29 -63 14 -85 -4 -6 -24 -14
-44 -17 -30 -4 -39 -2 -50 15 -24 36 -50 17 -46 -34 3 -48 19 -58 45 -29 18
21 58 27 81 12 8 -4 16 -26 19 -49 5 -34 2 -41 -16 -47 -45 -14 -18 -45 39
-45 37 0 47 16 24 41 -23 26 -23 78 1 95 28 20 64 17 84 -8 24 -29 41 -15 41
32 0 47 -14 58 -41 34 -17 -15 -83 -24 -94 -12 -1 1 -6 22 -10 45 -6 36 -4 42
15 48 13 4 20 13 18 23 -4 21 -82 30 -94 11z"/>
<path d="M2676 3543 c-3 -4 -6 -307 -6 -675 l0 -668 800 0 799 0 228 204 c299
267 393 381 393 473 0 70 -74 172 -230 319 -100 93 -310 278 -360 316 l-35 26
-792 5 c-435 3 -794 3 -797 0z m1542 -20 c50 -5 59 -11 180 -116 312 -272 430
-396 468 -495 17 -42 17 -42 -15 -107 -25 -50 -61 -95 -154 -189 -117 -117
-344 -324 -410 -373 l-31 -23 -783 0 -783 0 0 650 0 650 308 3 c561 5 1166 5
1220 0z"/>
<path d="M3340 3420 c0 -33 -1 -63 -2 -67 -2 -5 23 -9 55 -11 l57 -3 0 -162
-1 -162 -40 -25 c-24 -14 -47 -39 -54 -58 l-14 -32 -163 2 -163 3 -3 58 -3 57
-64 0 -65 0 0 -150 0 -150 65 0 65 0 0 60 0 60 164 0 164 0 21 -35 c11 -20 36
-45 56 -56 l35 -21 0 -164 0 -164 -55 0 -55 0 0 -68 0 -67 67 -3 c37 -2 104 0
150 3 l84 7 -3 62 -3 61 -57 3 -58 3 0 163 0 163 38 24 c20 13 44 39 52 56
l15 33 168 0 167 0 0 -60 0 -60 65 0 65 0 0 150 0 150 -65 0 -65 0 0 -60 0
-60 -164 0 -164 0 -21 35 c-11 20 -36 45 -56 56 l-35 21 0 164 0 164 60 0 61
0 -3 68 -3 67 -147 3 -148 3 0 -61z"/>
<path d="M5323 3543 l-243 -3 0 -670 0 -670 803 0 802 1 65 60 c36 33 103 92
150 132 273 231 410 394 410 485 0 34 -54 126 -117 200 -58 68 -440 409 -491
438 -36 21 -47 22 -587 26 -302 2 -659 3 -792 1z m1344 -28 c38 -9 348 -279
484 -423 86 -89 139 -174 139 -219 0 -79 -147 -253 -372 -441 -48 -39 -121
-104 -162 -142 l-76 -70 -790 0 -790 0 0 650 0 650 363 2 c474 4 1176 -1 1204
-7z"/>
<path d="M5827 3253 c-26 -4 -28 -7 -25 -46 3 -41 4 -42 41 -45 l37 -3 0 -93
0 -92 -38 -37 -38 -37 -97 0 -97 0 0 35 c0 35 0 35 -45 35 l-46 0 3 -97 3 -98
40 0 c39 0 40 1 43 38 l3 39 94 -4 94 -3 41 -40 41 -40 -3 -90 -3 -90 -35 -5
c-33 -5 -35 -7 -38 -47 l-3 -43 101 0 101 0 -3 43 c-3 40 -5 42 -38 47 l-35 5
-3 90 -3 90 41 40 41 40 94 3 95 4 0 -25 c0 -34 25 -57 61 -57 l29 0 0 101 0
100 -42 -3 c-42 -3 -43 -4 -46 -42 l-3 -39 -95 5 c-94 5 -96 6 -135 44 l-39
38 0 93 0 93 40 0 40 0 0 44 c0 42 -1 44 -37 50 -40 6 -89 6 -136 -1z"/>
<path d="M7500 2876 l0 -676 793 0 c761 0 793 1 821 19 16 11 81 66 144 123
368 328 462 436 462 530 0 41 -38 117 -95 190 -42 52 -442 412 -508 456 l-37
25 -790 4 -790 5 0 -676z m1570 644 c34 -10 103 -65 341 -276 136 -121 194
-181 244 -257 74 -111 57 -177 -84 -329 -80 -86 -396 -371 -457 -413 l-37 -25
-778 0 -779 0 0 655 0 655 758 0 c469 0 770 -4 792 -10z"/>
<path d="M8167 3473 c-4 -3 -7 -35 -7 -70 l0 -63 60 0 60 0 0 -158 c0 -158 -5
-182 -36 -182 -7 0 -65 51 -128 113 l-115 113 42 42 42 42 -48 47 -47 48 -106
-106 -105 -105 47 -48 47 -47 44 43 43 42 110 -109 c97 -97 110 -114 108 -140
l-3 -30 -167 -3 -168 -2 0 60 0 60 -65 0 -65 0 0 -150 0 -150 65 0 65 0 0 60
0 60 165 0 165 0 11 -27 c9 -26 4 -33 -105 -142 l-116 -116 -44 44 -43 43 -48
-46 -47 -46 106 -107 106 -108 47 48 48 47 -42 42 -42 42 112 113 c159 161
167 158 167 -69 l0 -158 -60 0 -60 0 0 -65 0 -65 153 0 152 0 0 63 0 62 -58 3
-57 3 2 167 3 167 24 3 c19 3 46 -18 132 -104 60 -60 109 -114 109 -121 0 -6
-18 -27 -40 -46 l-40 -34 47 -47 47 -47 105 105 106 106 -47 47 -47 47 -38
-42 -38 -42 -105 103 c-137 134 -134 130 -118 156 12 20 22 21 175 21 l163 0
0 -60 0 -60 65 0 65 0 0 150 0 150 -65 0 -65 0 0 -60 0 -60 -165 0 -165 0 -12
26 c-11 24 -6 31 106 142 l117 117 41 -43 40 -44 44 43 c24 24 44 46 44 50 0
8 -197 209 -205 209 -2 0 -25 -20 -50 -45 l-45 -45 40 -36 c22 -20 40 -42 40
-48 0 -6 -49 -60 -109 -120 -97 -96 -112 -108 -135 -102 l-26 6 0 165 0 165
54 0 54 0 4 66 c1 36 1 68 -1 70 -7 7 -287 4 -294 -3z"/>
<path d="M3328 1840 c-29 -29 -30 -34 -26 -95 5 -77 25 -105 74 -105 66 0 100
84 53 131 -16 16 -28 20 -55 14 -37 -6 -44 4 -18 29 18 18 40 21 49 6 11 -17
35 -11 35 10 0 22 -27 40 -60 40 -12 0 -35 -14 -52 -30z m80 -135 c-2 -14 -11
-20 -28 -20 -32 0 -41 42 -14 62 16 12 21 11 32 -4 7 -10 11 -27 10 -38z"/>
<path d="M5763 1863 c-38 -3 -53 -8 -53 -19 0 -10 13 -14 50 -14 l50 0 -21
-41 c-26 -51 -50 -130 -43 -141 3 -4 13 -8 23 -8 14 0 20 10 24 41 3 23 22 73
41 110 26 50 32 69 22 69 -8 0 -20 1 -28 3 -7 2 -37 2 -65 0z"/>
<path d="M8162 1854 c-18 -12 -22 -25 -22 -62 1 -26 -2 -63 -5 -84 -6 -32 -4
-38 18 -53 37 -24 86 -16 110 17 20 27 20 29 3 64 -12 26 -14 40 -7 47 18 18
12 55 -11 71 -29 20 -58 20 -86 0z m64 -35 c8 -14 -21 -43 -35 -35 -6 4 -11
16 -11 27 0 21 34 27 46 8z m2 -108 c4 -29 -15 -43 -40 -30 -18 10 -24 39 -11
53 15 15 48 1 51 -23z"/>
<path d="M905 1823 c-12 -80 -12 -83 2 -83 8 0 23 4 33 10 28 15 50 2 50 -31
0 -34 -23 -48 -51 -31 -43 27 -67 2 -31 -31 42 -38 113 -11 128 49 9 36 -23
78 -64 82 -49 5 -41 30 10 34 31 2 44 8 46 21 3 15 -5 17 -57 17 l-60 0 -6
-37z"/>
<path d="M256 1513 c-4 -43 -6 -347 -5 -675 l2 -598 797 0 798 0 80 67 c381
322 552 510 552 606 0 77 -114 221 -312 393 -56 49 -143 126 -194 171 -51 45
-103 88 -116 95 -18 10 -182 14 -809 16 l-786 3 -7 -78z m1567 48 c22 -5 59
-28 90 -55 29 -26 93 -81 142 -123 235 -202 338 -310 389 -410 23 -45 20 -72
-14 -139 -45 -89 -310 -351 -531 -526 l-60 -48 -778 0 -778 0 -6 107 c-9 138
-9 890 0 1066 l6 137 751 0 c413 0 768 -4 789 -9z"/>
<path d="M1030 1113 l0 -108 -39 -32 c-35 -30 -44 -32 -144 -39 -95 -6 -107
-9 -107 -25 0 -17 9 -19 105 -19 l104 0 41 -41 40 -41 0 -104 0 -104 25 0 25
0 0 105 0 105 40 40 39 39 103 3 c85 3 103 6 106 19 3 14 -12 17 -103 21
l-106 5 -39 38 -40 39 0 103 0 103 -25 0 -25 0 0 -107z"/>
<path d="M2677 1584 c-4 -4 -7 -308 -7 -676 l0 -668 799 0 799 0 204 180 c326
289 443 434 418 519 -16 55 -59 120 -134 199 -79 84 -357 337 -441 402 l-53
41 -789 5 c-434 2 -792 2 -796 -2z m1617 -48 c59 -45 322 -281 407 -366 94
-93 145 -162 166 -224 13 -37 13 -43 -16 -100 -47 -96 -230 -280 -518 -523
l-74 -63 -784 0 -785 0 0 650 0 650 663 3 c894 3 902 3 941 -27z"/>
<path d="M3440 1175 l0 -134 -50 -51 -51 -50 -133 0 c-126 0 -134 -1 -139 -20
-8 -33 22 -40 162 -40 108 0 131 -3 131 -15 0 -8 18 -29 40 -46 l40 -32 0
-139 0 -138 30 0 30 0 0 138 0 138 31 23 c16 12 35 33 41 46 11 24 14 25 152
27 l141 3 3 28 3 27 -135 0 -135 0 -50 49 -51 50 0 135 0 136 -30 0 -30 0 0
-135z"/>
<path d="M5087 1584 c-4 -4 -7 -308 -7 -676 l0 -668 803 0 803 0 84 78 c47 42
130 116 185 163 222 191 343 336 352 421 6 62 -47 148 -172 274 -123 124 -381
350 -438 384 l-42 25 -781 3 c-429 1 -783 -1 -787 -4z m1533 -20 c65 -9 93
-28 283 -197 272 -241 387 -377 387 -457 0 -73 -134 -233 -348 -417 -75 -64
-166 -143 -201 -175 l-64 -58 -788 0 -789 0 0 649 c0 510 3 650 13 654 20 7
1451 8 1507 1z"/>
<path d="M5815 1170 c-10 -17 4 -48 26 -55 16 -5 19 -16 19 -69 0 -87 -22
-116 -88 -116 -64 0 -89 8 -95 31 -3 13 -14 19 -31 19 -26 0 -26 -1 -26 -71
l0 -70 28 3 c19 2 28 9 30 26 3 20 8 22 72 22 62 0 70 -2 89 -26 16 -21 21
-41 21 -89 0 -56 -3 -64 -25 -79 -28 -19 -33 -41 -9 -50 26 -10 122 -7 129 5
13 20 -4 58 -28 61 -19 3 -22 10 -25 59 -3 49 1 61 23 88 25 29 31 31 90 31
54 0 65 -3 70 -19 6 -20 48 -36 65 -26 11 7 14 94 4 119 -9 24 -40 19 -62 -9
-17 -21 -28 -25 -77 -25 -49 0 -60 4 -86 30 -28 27 -30 34 -27 92 3 61 4 63
31 66 24 3 28 7 25 30 -3 26 -6 27 -70 30 -39 2 -69 -1 -73 -8z"/>
<path d="M7500 915 l0 -675 794 0 794 0 49 36 c26 20 77 64 113 98 36 33 116
106 178 160 209 186 301 311 289 398 -12 92 -113 209 -376 439 -234 205 -234
205 -330 213 -44 3 -403 6 -796 6 l-715 -1 0 -674z m1607 630 c38 -24 307
-260 416 -364 96 -93 167 -193 174 -249 12 -93 -74 -200 -372 -468 -94 -83
-188 -164 -209 -178 l-39 -26 -778 0 -779 0 0 649 c0 510 3 650 13 654 6 3
356 4 777 4 747 -2 766 -2 797 -22z"/>
<path d="M8246 1309 c-56 -44 -19 -142 54 -142 82 0 111 111 39 148 -38 20
-62 19 -93 -6z"/>
<path d="M8260 1019 c-63 -26 -94 -91 -70 -150 20 -46 56 -69 109 -69 39 0 53
5 78 31 18 16 34 43 38 59 9 42 -27 108 -70 126 -39 16 -51 17 -85 3z"/>
<path d="M7919 977 c-69 -46 -39 -147 45 -147 77 0 103 103 37 147 -19 13 -37
23 -41 23 -4 0 -22 -10 -41 -23z"/>
<path d="M8598 980 c-28 -15 -33 -23 -36 -59 -3 -33 2 -46 22 -66 32 -32 66
-32 105 1 39 33 42 75 6 108 -35 33 -59 37 -97 16z"/>
<path d="M8260 643 c-34 -23 -40 -33 -40 -71 0 -41 38 -82 75 -82 35 0 85 50
85 85 0 31 -49 85 -77 85 -10 0 -30 -8 -43 -17z"/>
</g>
</svg>
