<?xml version="1.0" standalone="no"?>
<!DOCTYPE svg PUBLIC "-//W3C//DTD SVG 20010904//EN"
 "http://www.w3.org/TR/2001/REC-SVG-20010904/DTD/svg10.dtd">
<svg version="1.0" xmlns="http://www.w3.org/2000/svg"
 width="996.000000pt" height="922.000000pt" viewBox="0 0 996.000000 922.000000"
 preserveAspectRatio="xMidYMid meet">
<metadata>
Created by potrace 1.16, written by Peter Selinger 2001-2019
</metadata>
<g transform="translate(0.000000,922.000000) scale(0.100000,-0.100000)"
fill="#FFFFFF" stroke="none">
<path d="M256 8828 c-8 -222 -8 -4485 1 -4640 l6 -118 2939 0 2938 0 0 2465 0
2465 -2938 0 -2939 0 -7 -172z m5864 -2293 l0 -2445 -2919 0 -2918 0 -6 413
c-9 590 -9 3760 -1 4150 l7 327 2918 0 2919 0 0 -2445z"/>
<path d="M1189 8167 c-57 -30 -100 -91 -106 -151 -5 -36 0 -57 22 -102 65
-133 218 -155 317 -46 41 45 53 89 45 158 -14 130 -159 203 -278 141z"/>
<path d="M2545 8159 c-89 -60 -118 -154 -76 -244 72 -156 276 -154 355 2 36
72 7 178 -66 236 -29 23 -49 30 -100 34 -59 5 -66 3 -113 -28z"/>
<path d="M2992 8168 c-73 -35 -122 -126 -108 -200 10 -54 60 -125 105 -148 44
-22 113 -26 158 -9 35 13 90 64 110 104 27 51 22 125 -12 181 -55 88 -159 118
-253 72z"/>
<path d="M3926 8167 c-66 -37 -99 -88 -104 -157 -4 -51 -1 -66 22 -104 40 -68
86 -99 154 -104 138 -9 238 113 203 245 -32 117 -173 179 -275 120z"/>
<path d="M4375 8176 c-38 -17 -101 -82 -114 -119 -28 -72 3 -166 71 -220 74
-59 192 -44 262 33 42 47 50 73 44 146 -10 124 -152 210 -263 160z"/>
<path d="M4799 8171 c-50 -28 -96 -83 -110 -133 -15 -56 7 -128 54 -179 110
-119 312 -46 334 121 8 57 -34 141 -87 176 -55 37 -139 43 -191 15z"/>
<path d="M1245 6940 c-71 -16 -123 -59 -150 -122 -22 -53 -19 -97 11 -157 59
-117 202 -145 301 -58 83 73 86 202 7 280 -50 50 -111 71 -169 57z"/>
<path d="M2591 6937 c-47 -18 -111 -74 -127 -113 -47 -112 31 -252 150 -269
188 -29 298 187 167 328 -50 54 -128 76 -190 54z"/>
<path d="M3995 6943 c-11 -2 -30 -6 -43 -9 -32 -6 -102 -73 -119 -111 -32 -77
-5 -177 59 -227 50 -38 87 -48 145 -41 90 11 173 102 173 190 0 83 -63 166
-144 190 -27 8 -50 14 -50 14 -1 -1 -10 -3 -21 -6z"/>
<path d="M2989 6920 c-66 -35 -109 -106 -109 -181 0 -42 49 -128 89 -154 143
-94 338 35 301 199 -11 51 -46 99 -94 130 -50 33 -132 35 -187 6z"/>
<path d="M4355 6921 c-134 -81 -137 -252 -6 -342 28 -19 47 -24 96 -23 75 1
116 22 163 84 32 42 34 48 30 111 -4 81 -38 138 -98 169 -52 26 -143 27 -185
1z"/>
<path d="M4807 6932 c-10 -4 -38 -27 -62 -51 -73 -72 -81 -153 -23 -249 36
-59 132 -92 207 -72 78 21 150 110 151 185 0 47 -44 129 -85 161 -32 24 -49
29 -104 31 -36 1 -74 -1 -84 -5z"/>
<path d="M1189 6487 c-61 -33 -101 -92 -106 -159 -4 -46 0 -60 29 -108 41 -67
93 -100 161 -100 64 0 104 18 149 68 41 45 53 89 45 158 -14 130 -159 203
-278 141z"/>
<path d="M2580 6499 c-110 -46 -158 -162 -111 -264 47 -102 155 -143 256 -96
139 64 156 235 34 333 -29 23 -49 31 -95 34 -33 2 -70 -1 -84 -7z"/>
<path d="M2990 6486 c-88 -44 -129 -143 -96 -229 33 -84 102 -137 178 -137 60
0 95 14 136 53 85 81 90 184 14 269 -65 72 -148 88 -232 44z"/>
<path d="M3926 6487 c-22 -12 -53 -39 -70 -60 -28 -35 -31 -45 -31 -111 0 -64
3 -77 27 -109 44 -57 85 -80 148 -85 167 -12 268 171 169 308 -56 76 -165 102
-243 57z"/>
<path d="M4375 6496 c-38 -18 -101 -83 -114 -119 -57 -151 106 -305 257 -241
81 34 122 95 122 183 0 52 -4 65 -32 102 -18 23 -45 51 -60 62 -35 26 -130 33
-173 13z"/>
<path d="M4805 6497 c-64 -29 -125 -124 -125 -192 1 -65 89 -168 155 -181 119
-22 226 55 242 175 8 58 -33 141 -87 177 -49 33 -137 43 -185 21z"/>
<path d="M3655 5728 c-3 -7 -4 -310 -3 -673 l3 -660 796 0 795 0 35 29 c93 77
277 244 387 351 132 129 195 211 206 271 11 56 -39 148 -133 247 -106 111
-443 412 -488 436 -33 17 -1592 16 -1598 -1z m1621 -37 c82 -60 440 -389 487
-446 55 -68 97 -144 97 -177 0 -75 -131 -226 -415 -476 l-200 -177 -785 0
-785 0 -3 600 c-2 330 0 624 3 653 l6 52 778 0 778 0 39 -29z"/>
<path d="M1205 5682 c-101 -49 -149 -156 -109 -250 33 -81 99 -125 187 -125
48 0 65 5 99 29 70 50 83 74 83 164 0 72 -2 81 -31 116 -59 73 -155 101 -229
66z"/>
<path d="M2564 5676 c-82 -38 -120 -105 -112 -197 11 -116 128 -199 238 -169
49 13 118 72 137 117 30 74 11 154 -53 214 -67 63 -128 73 -210 35z"/>
<path d="M3016 5685 c-131 -46 -175 -207 -84 -311 112 -127 301 -73 342 98 24
100 -89 230 -199 228 -11 -1 -37 -7 -59 -15z"/>
<path d="M1195 5243 c-46 -24 -76 -54 -96 -98 -25 -54 -23 -100 5 -162 60
-128 223 -150 320 -43 22 25 38 54 42 77 3 21 6 40 7 43 0 3 -3 24 -6 48 -8
46 -60 113 -108 138 -37 19 -126 17 -164 -3z"/>
<path d="M2565 5244 c-105 -54 -143 -160 -94 -262 70 -144 276 -145 349 -1 43
82 11 196 -68 249 -37 24 -56 30 -101 30 -31 0 -69 -7 -86 -16z"/>
<path d="M2974 5228 c-57 -39 -82 -77 -90 -141 -9 -62 31 -147 85 -182 109
-72 257 -18 297 109 21 66 7 121 -43 177 -49 54 -81 69 -146 69 -45 0 -63 -6
-103 -32z"/>
<path d="M1189 4807 c-61 -33 -101 -92 -106 -159 -4 -46 0 -60 29 -108 72
-118 212 -136 305 -39 39 42 53 77 53 134 0 57 -14 92 -53 134 -62 65 -149 79
-228 38z"/>
<path d="M2548 4801 c-113 -72 -131 -206 -39 -304 38 -42 73 -57 131 -57 58 0
111 23 152 67 34 36 48 73 48 126 -1 152 -167 247 -292 168z"/>
<path d="M2988 4805 c-50 -26 -78 -60 -96 -114 -18 -51 -15 -82 14 -140 61
-122 206 -150 302 -58 70 67 85 146 43 230 -48 98 -165 134 -263 82z"/>
<path d="M6524 6310 c-121 -28 -196 -154 -180 -301 14 -139 86 -218 211 -234
102 -14 187 29 231 117 28 55 23 68 -26 67 -19 0 -29 -9 -45 -42 -24 -51 -72
-80 -130 -80 -106 0 -167 75 -167 206 0 39 5 86 12 102 20 52 68 93 126 106
45 10 56 9 90 -7 22 -11 50 -36 63 -57 22 -34 28 -37 55 -31 17 3 32 8 34 9 2
2 -6 21 -17 43 -46 91 -143 130 -257 102z"/>
<path d="M6879 6022 c-15 -13 -20 -24 -15 -37 6 -17 9 -17 32 8 28 30 55 35
74 12 18 -21 8 -48 -23 -63 -31 -15 -36 -32 -9 -32 40 0 69 -65 40 -87 -32
-25 -50 -23 -78 7 -15 16 -31 30 -34 30 -12 0 -6 -36 10 -58 23 -33 92 -31
124 3 28 30 30 77 5 105 -14 16 -16 23 -7 32 18 18 14 63 -6 81 -25 23 -84 21
-113 -1z"/>
<path d="M930 3814 c-22 -20 -40 -40 -40 -45 0 -13 34 -11 48 3 9 9 12 -6 12
-70 0 -81 0 -82 25 -82 l25 0 0 115 c0 133 -5 138 -70 79z"/>
<path d="M3322 3827 c-12 -13 -22 -29 -22 -35 0 -17 30 -15 51 4 10 9 25 14
34 11 20 -8 19 -41 -2 -58 -23 -20 -93 -109 -93 -120 0 -5 36 -9 80 -9 73 0
80 2 80 20 0 17 -7 20 -40 20 -47 0 -49 8 -14 41 27 25 54 70 54 89 0 6 -11
22 -25 35 -31 32 -74 33 -103 2z"/>
<path d="M5742 3834 c-12 -8 -22 -21 -22 -29 0 -23 20 -28 39 -11 22 20 51 21
51 2 0 -8 -12 -23 -27 -34 l-26 -19 29 -14 c20 -10 29 -22 29 -39 0 -31 -29
-39 -55 -15 -20 18 -40 13 -40 -9 0 -22 35 -46 68 -46 61 0 94 69 55 112 -13
14 -14 21 -5 30 18 18 14 53 -6 71 -23 21 -61 22 -90 1z"/>
<path d="M8170 3778 c-63 -90 -64 -105 -6 -113 32 -5 46 -12 49 -26 8 -31 35
-22 54 18 12 27 14 38 5 41 -8 2 -12 26 -12 62 0 114 -20 118 -90 18z m46 -43
c-5 -26 -12 -35 -26 -35 -26 0 -25 14 2 50 26 36 33 32 24 -15z"/>
<path d="M344 3543 l-81 -4 -8 -417 c-4 -229 -5 -531 -3 -669 l3 -253 797 0
796 0 85 73 c389 330 547 504 547 602 0 73 -105 207 -291 372 -231 204 -299
263 -321 277 -19 12 -134 15 -733 18 -390 2 -747 3 -791 1z m1521 -37 c13 -9
53 -42 87 -74 35 -32 104 -92 153 -134 214 -180 355 -346 355 -419 0 -95 -180
-292 -558 -611 l-57 -48 -782 0 -783 0 0 650 0 649 78 3 c42 2 393 2 780 2
626 -2 705 -4 727 -18z"/>
<path d="M519 3467 c-43 -29 -79 -82 -79 -116 1 -43 37 -109 72 -131 51 -33
128 -24 173 20 62 60 68 122 19 188 -49 64 -124 80 -185 39z"/>
<path d="M844 3472 c-75 -47 -99 -115 -65 -184 56 -114 197 -118 259 -7 33 58
25 106 -27 161 -32 35 -45 41 -87 45 -37 3 -57 -1 -80 -15z"/>
<path d="M1165 3471 c-97 -59 -107 -160 -25 -235 33 -29 48 -36 83 -36 57 0
107 29 134 76 29 50 29 92 0 135 -49 74 -130 99 -192 60z"/>
<path d="M1473 3461 c-49 -36 -67 -77 -60 -138 4 -39 12 -54 46 -85 33 -31 48
-38 82 -38 157 0 216 188 84 266 -56 33 -102 31 -152 -5z"/>
<path d="M1514 3169 c-18 -5 -48 -27 -68 -49 -31 -34 -36 -47 -36 -87 0 -83
62 -148 142 -148 53 0 89 22 126 76 45 65 10 163 -72 200 -46 21 -48 21 -92 8z"/>
<path d="M513 3148 c-18 -13 -42 -42 -55 -64 -20 -38 -21 -46 -9 -85 17 -56
67 -105 116 -115 92 -17 192 89 166 176 -6 22 -28 53 -51 74 -34 31 -47 36
-88 36 -33 0 -57 -7 -79 -22z"/>
<path d="M821 3134 c-55 -49 -68 -92 -46 -150 32 -85 111 -122 186 -88 85 38
118 118 79 193 -27 54 -71 81 -132 81 -41 0 -54 -5 -87 -36z"/>
<path d="M1134 3126 c-40 -39 -44 -48 -44 -92 0 -60 32 -113 83 -138 45 -21
69 -20 116 4 81 41 108 112 72 186 -27 57 -71 84 -135 84 -44 0 -53 -4 -92
-44z"/>
<path d="M520 2838 c-46 -32 -71 -68 -77 -114 -6 -53 42 -127 94 -145 81 -27
170 20 195 103 9 32 8 43 -13 85 -44 87 -129 118 -199 71z"/>
<path d="M860 2849 c-68 -27 -111 -110 -90 -173 6 -18 26 -47 45 -66 28 -27
44 -34 88 -38 51 -4 57 -2 95 33 69 61 77 125 26 193 -43 56 -104 75 -164 51z"/>
<path d="M1168 2839 c-42 -22 -64 -50 -78 -100 -21 -73 60 -169 143 -169 72 0
147 75 147 147 0 62 -83 143 -144 143 -17 -1 -48 -10 -68 -21z"/>
<path d="M1478 2831 c-83 -53 -92 -155 -19 -223 35 -33 47 -38 87 -38 56 0
104 27 133 74 40 64 16 151 -54 191 -55 33 -91 31 -147 -4z"/>
<path d="M1196 2539 c-39 -11 -93 -64 -107 -106 -30 -91 68 -197 166 -179 62
12 125 83 125 141 0 36 -35 101 -65 121 -34 22 -85 32 -119 23z"/>
<path d="M1503 2530 c-78 -35 -112 -104 -88 -175 35 -101 146 -135 225 -68 61
51 74 106 40 173 -36 71 -110 100 -177 70z"/>
<path d="M512 2520 c-44 -27 -77 -96 -68 -144 9 -47 57 -101 102 -116 48 -16
92 -6 137 31 57 47 67 114 27 188 -31 58 -134 80 -198 41z"/>
<path d="M834 2521 c-41 -25 -78 -101 -70 -143 15 -74 96 -136 164 -124 64 10
132 82 132 138 -1 41 -38 107 -72 128 -43 26 -113 26 -154 1z"/>
<path d="M2670 2875 l0 -675 800 0 800 0 142 128 c79 70 174 154 212 187 85
74 198 203 237 270 78 135 8 233 -446 631 -60 52 -119 102 -130 109 -16 10
-189 14 -817 19 l-798 6 0 -675z m1561 645 c33 0 55 -15 205 -147 288 -251
398 -370 431 -466 12 -36 12 -43 -11 -92 -13 -28 -56 -89 -96 -134 -66 -75
-399 -384 -472 -438 l-32 -23 -783 0 -783 0 0 650 0 650 398 2 c218 2 557 2
752 1 195 -2 371 -3 391 -3z"/>
<path d="M3388 3471 c-64 -40 -89 -80 -95 -149 -6 -70 22 -130 80 -176 35 -28
46 -31 110 -31 81 0 115 17 165 82 23 31 27 46 27 104 0 59 -4 73 -30 111 -64
90 -169 115 -257 59z"/>
<path d="M3433 3063 c-32 -6 -114 -82 -129 -120 -31 -72 -7 -159 60 -223 32
-30 43 -35 101 -38 80 -5 112 7 164 63 107 117 35 303 -124 318 -27 3 -60 3
-72 0z"/>
<path d="M3429 2624 c-58 -17 -125 -86 -135 -139 -23 -124 71 -245 192 -245
97 0 194 95 194 192 0 133 -126 230 -251 192z"/>
<path d="M5163 3542 l-83 -3 0 -669 0 -670 803 0 802 1 55 50 c30 28 114 101
185 163 244 211 373 363 382 448 4 37 -1 52 -34 105 -21 34 -59 87 -86 117
-61 71 -430 400 -482 431 l-40 24 -710 3 c-390 2 -747 2 -792 0z m1517 -31
c55 -30 360 -301 476 -424 81 -86 134 -170 134 -214 0 -81 -133 -237 -380
-447 -58 -49 -133 -116 -167 -148 l-61 -58 -791 0 -791 0 0 649 c0 424 3 650
10 653 6 2 355 3 778 3 620 -1 772 -4 792 -14z"/>
<path d="M5383 3480 c-135 -69 -150 -243 -30 -334 69 -52 173 -47 238 11 53
48 69 81 69 145 0 64 -28 117 -83 161 -51 41 -132 48 -194 17z"/>
<path d="M5823 3484 c-67 -33 -123 -120 -123 -189 0 -28 43 -116 66 -137 31
-27 90 -48 136 -48 126 1 220 120 188 239 -13 50 -72 119 -117 138 -43 18
-111 16 -150 -3z"/>
<path d="M6236 3468 c-26 -17 -59 -48 -73 -69 -22 -34 -25 -47 -21 -103 3 -54
9 -72 34 -102 48 -59 75 -75 140 -81 72 -6 131 21 178 80 26 33 30 45 30 105
1 82 -25 130 -93 173 -64 41 -130 40 -195 -3z"/>
<path d="M5406 3056 c-108 -40 -162 -154 -120 -254 33 -81 95 -122 181 -122
110 0 193 82 193 189 -1 134 -132 231 -254 187z"/>
<path d="M5847 3060 c-70 -22 -131 -94 -143 -168 -9 -57 32 -142 90 -184 38
-28 46 -29 113 -26 81 4 110 19 156 84 34 48 43 96 28 152 -13 47 -59 106
-100 127 -36 18 -110 26 -144 15z"/>
<path d="M6285 3064 c-37 -9 -100 -60 -122 -99 -48 -84 -19 -202 63 -258 34
-24 52 -29 101 -29 71 0 106 16 156 71 77 85 57 206 -46 285 -32 25 -109 40
-152 30z"/>
<path d="M5419 2626 c-85 -30 -137 -89 -146 -165 -5 -42 -1 -60 22 -106 68
-141 235 -153 333 -26 28 37 32 50 32 102 0 68 -14 100 -62 145 -58 55 -119
72 -179 50z"/>
<path d="M5852 2628 c-81 -18 -152 -111 -152 -198 1 -90 107 -190 202 -190 96
1 198 104 198 200 0 36 -23 93 -51 124 -50 57 -121 80 -197 64z"/>
<path d="M6315 2635 c-5 -2 -22 -6 -38 -9 -33 -8 -102 -68 -123 -107 -38 -74
-2 -191 74 -244 37 -26 53 -30 106 -30 51 0 71 5 103 27 70 46 105 128 89 211
-7 38 -65 111 -105 131 -28 14 -90 27 -106 21z"/>
<path d="M7608 3542 l-108 -3 0 -669 0 -670 794 0 795 0 70 58 c221 180 459
410 518 498 67 101 53 177 -56 310 -63 76 -465 433 -523 466 -18 9 -186 12
-703 12 -374 1 -728 0 -787 -2z m1508 -44 c49 -35 307 -262 407 -357 43 -42
98 -105 123 -142 85 -124 70 -186 -85 -351 -90 -96 -361 -341 -438 -395 l-45
-33 -779 0 -779 0 0 650 0 649 73 3 c39 2 390 3 778 3 l706 0 39 -27z"/>
<path d="M7783 3471 c-107 -77 -128 -172 -62 -276 72 -113 244 -112 322 1 54
77 46 162 -22 237 -67 75 -166 90 -238 38z"/>
<path d="M8680 3487 c-93 -49 -123 -93 -124 -181 -1 -47 4 -69 22 -99 67 -108
203 -131 293 -50 54 49 69 81 69 152 0 52 -4 65 -33 103 -59 78 -159 110 -227
75z"/>
<path d="M7844 2630 c-43 -9 -99 -45 -123 -79 -11 -15 -25 -48 -31 -74 -29
-111 74 -238 192 -237 75 1 163 68 188 145 43 131 -89 273 -226 245z"/>
<path d="M8697 2626 c-95 -34 -155 -119 -143 -204 18 -134 147 -215 264 -166
43 18 88 58 108 96 18 35 18 131 0 167 -22 42 -90 98 -133 110 -47 13 -49 13
-96 -3z"/>
<path d="M910 1850 c-4 -8 -10 -37 -14 -64 -7 -53 -8 -52 61 -31 18 6 25 2 32
-16 5 -14 5 -31 -1 -41 -9 -19 -43 -24 -53 -8 -9 15 -45 12 -45 -4 0 -48 85
-62 125 -21 27 26 31 54 14 88 -16 29 -28 37 -61 37 -48 0 -35 28 14 32 30 2
44 8 46 20 4 23 -106 31 -118 8z"/>
<path d="M3329 1841 c-25 -25 -29 -37 -29 -83 0 -75 27 -118 74 -118 68 0 101
79 55 129 -17 18 -29 22 -55 18 -37 -6 -39 -5 -24 24 11 20 45 26 55 9 11 -17
35 -11 35 10 0 22 -27 40 -60 40 -12 0 -35 -13 -51 -29z m77 -117 c8 -30 -6
-47 -32 -42 -13 2 -20 13 -22 36 -3 28 0 32 22 32 19 0 27 -7 32 -26z"/>
<path d="M5758 1863 c-33 -3 -48 -9 -48 -19 0 -10 13 -14 49 -14 l50 0 -29
-62 c-38 -82 -42 -122 -15 -126 18 -2 22 6 33 54 6 31 26 79 43 106 17 27 30
50 28 52 -9 8 -67 12 -111 9z"/>
<path d="M8158 1853 c-26 -31 -29 -41 -16 -68 9 -19 9 -28 0 -37 -17 -17 -15
-59 4 -86 11 -16 25 -22 53 -22 60 0 93 52 66 104 -11 20 -12 33 -5 40 17 17
11 54 -12 70 -30 21 -71 20 -90 -1z m68 -34 c8 -14 -21 -43 -35 -35 -6 4 -11
16 -11 27 0 21 34 27 46 8z m-1 -109 c0 -18 -6 -26 -23 -28 -13 -2 -25 3 -28
12 -10 26 4 48 28 44 17 -2 23 -10 23 -28z"/>
<path d="M260 915 l0 -675 798 0 797 1 82 72 c332 292 476 435 513 511 38 79
37 112 -7 185 -61 103 -122 164 -433 436 -56 50 -118 101 -138 115 l-35 25
-788 3 -789 3 0 -676z m1631 607 c56 -44 127 -105 317 -276 152 -136 252 -267
252 -331 0 -47 -49 -124 -143 -224 -83 -88 -285 -275 -421 -388 l-51 -43 -782
0 -783 0 0 653 0 653 778 0 779 -1 54 -43z"/>
<path d="M524 1508 c-59 -41 -83 -72 -95 -127 -13 -58 3 -113 49 -163 44 -48
85 -68 144 -68 91 1 165 60 189 152 17 61 1 115 -49 170 -70 77 -157 90 -238
36z"/>
<path d="M1395 1511 c-72 -43 -100 -89 -99 -166 1 -71 16 -102 77 -155 66 -57
170 -54 238 7 54 49 69 81 69 149 0 77 -31 131 -98 167 -67 36 -122 36 -187
-2z"/>
<path d="M972 1084 c-106 -53 -141 -162 -85 -266 36 -67 90 -98 167 -98 65 0
97 14 143 62 38 40 53 76 53 128 0 55 -15 89 -63 138 -65 67 -131 78 -215 36z"/>
<path d="M589 670 c-108 -19 -184 -132 -158 -236 21 -82 108 -153 187 -154 99
0 201 100 202 199 0 111 -120 210 -231 191z"/>
<path d="M1446 670 c-45 -14 -104 -59 -128 -99 -27 -43 -30 -130 -5 -176 49
-94 155 -137 245 -99 81 33 122 95 122 182 0 49 -5 66 -32 107 -44 66 -136
105 -202 85z"/>
<path d="M2670 914 l0 -674 799 0 799 0 100 88 c345 303 431 390 494 500 56
96 28 171 -126 330 -84 87 -335 314 -432 390 l-41 33 -796 3 -797 3 0 -673z
m1543 650 c57 -6 60 -8 190 -122 316 -276 414 -379 459 -481 19 -41 19 -45 3
-88 -38 -98 -228 -295 -538 -556 l-67 -57 -785 0 -785 0 0 650 0 649 133 3
c282 6 1335 7 1390 2z"/>
<path d="M2953 1085 c-32 -16 -61 -41 -79 -67 -25 -35 -29 -51 -29 -109 0 -60
3 -71 31 -105 42 -52 73 -74 123 -85 77 -17 163 23 208 99 33 53 32 136 -2
186 -70 103 -154 130 -252 81z"/>
<path d="M3425 1101 c-45 -11 -69 -27 -103 -65 -60 -68 -64 -163 -11 -236 51
-70 118 -97 199 -79 147 33 206 204 108 315 -51 58 -124 83 -193 65z"/>
<path d="M3854 1100 c-79 -18 -144 -102 -144 -184 0 -61 19 -102 69 -150 36
-35 47 -40 100 -44 78 -6 103 1 147 41 44 37 74 98 74 147 0 78 -70 169 -145
189 -45 12 -56 12 -101 1z"/>
<path d="M5087 1584 c-4 -4 -7 -308 -7 -676 l0 -668 803 0 802 1 55 50 c30 28
114 101 185 163 260 227 385 377 385 465 0 35 -60 133 -128 211 -66 75 -429
397 -485 430 l-42 25 -780 3 c-430 1 -784 0 -788 -4z m1525 -20 c73 -7 94 -22
291 -197 272 -241 387 -377 387 -457 0 -73 -140 -240 -353 -422 -73 -62 -160
-139 -194 -170 l-62 -58 -791 0 -790 0 0 649 0 650 53 3 c101 6 1403 7 1459 2z"/>
<path d="M5375 1523 c-40 -21 -84 -62 -101 -95 -18 -35 -18 -131 0 -167 23
-43 91 -99 131 -107 157 -29 290 122 227 257 -26 56 -39 70 -86 103 -46 31
-122 35 -171 9z"/>
<path d="M5786 1508 c-77 -52 -91 -77 -91 -162 0 -64 3 -77 27 -109 41 -53 84
-80 138 -85 86 -8 162 33 200 109 61 119 -29 267 -168 277 -52 4 -62 1 -106
-30z"/>
<path d="M6243 1524 c-18 -9 -50 -36 -72 -59 -72 -78 -66 -184 15 -262 48 -46
87 -59 160 -50 71 8 147 77 164 150 33 147 -135 286 -267 221z"/>
<path d="M5823 1100 c-32 -10 -97 -71 -120 -113 -17 -31 -16 -113 2 -151 9
-18 34 -50 55 -71 38 -37 45 -40 110 -43 61 -4 75 -1 115 22 54 32 95 103 95
166 0 61 -41 134 -93 165 -50 28 -117 39 -164 25z"/>
<path d="M5395 665 c-51 -18 -120 -91 -134 -140 -31 -114 71 -244 192 -245 98
0 197 103 197 208 0 69 -69 155 -143 177 -61 18 -61 18 -112 0z"/>
<path d="M5865 675 c-5 -2 -22 -6 -38 -9 -36 -8 -107 -73 -124 -113 -26 -63
-10 -157 35 -206 27 -30 108 -67 147 -67 62 0 146 53 176 112 45 88 7 201 -86
257 -30 18 -91 33 -110 26z"/>
<path d="M6270 668 c-105 -30 -172 -146 -140 -243 16 -48 63 -101 113 -127
115 -58 270 42 270 175 0 94 -58 171 -148 196 -46 13 -48 13 -95 -1z"/>
<path d="M7507 1584 c-4 -4 -7 -308 -7 -676 l0 -668 793 0 794 0 41 30 c23 16
72 58 109 92 37 35 86 78 108 97 82 67 307 298 337 344 61 96 45 173 -64 305
-52 64 -430 403 -502 451 l-40 26 -780 3 c-430 2 -785 0 -789 -4z m1600 -39
c38 -24 307 -260 416 -364 43 -42 98 -105 123 -142 84 -122 70 -184 -74 -340
-82 -88 -395 -371 -456 -413 l-39 -26 -778 0 -779 0 0 649 c0 510 3 650 13
654 6 3 356 4 777 3 747 -1 766 -1 797 -21z"/>
<path d="M8224 1092 c-46 -22 -99 -81 -115 -130 -24 -74 11 -161 87 -215 33
-23 51 -28 96 -28 99 0 173 56 197 149 39 145 -129 287 -265 224z"/>
</g>
</svg>
