<?xml version="1.0" standalone="no"?>
<!DOCTYPE svg PUBLIC "-//W3C//DTD SVG 20010904//EN"
 "http://www.w3.org/TR/2001/REC-SVG-20010904/DTD/svg10.dtd">
<svg version="1.0" xmlns="http://www.w3.org/2000/svg"
 width="996.000000pt" height="922.000000pt" viewBox="0 0 996.000000 922.000000"
 preserveAspectRatio="xMidYMid meet">
<metadata>
Created by potrace 1.16, written by Peter Selinger 2001-2019
</metadata>
<g transform="translate(0.000000,922.000000) scale(0.100000,-0.100000)"
fill="#FFFFFF" stroke="none">
<path d="M258 7143 c-2 -1022 -2 -2131 0 -2465 l2 -608 2940 0 2940 0 0 2465
0 2465 -2940 0 -2940 0 -2 -1857z m5862 -608 l0 -2445 -2918 0 -2919 0 -6 148
c-9 197 -9 3786 -1 4320 l7 422 2919 0 2918 0 0 -2445z"/>
<path d="M1268 8253 l-3 -248 -250 -5 c-137 -3 -242 -8 -232 -12 10 -5 124 -8
254 -8 l235 0 -2 -27 c-7 -99 1 -463 10 -458 6 4 10 97 10 246 l0 239 245 0
c157 0 245 4 245 10 0 6 -88 10 -245 10 l-245 0 0 250 c0 157 -4 250 -10 250
-6 0 -11 -94 -12 -247z"/>
<path d="M2858 8494 c-5 -4 -8 -97 -8 -206 l0 -198 -245 0 c-157 0 -245 -4
-245 -10 0 -6 88 -10 245 -10 l245 0 0 -75 0 -75 -251 0 c-164 0 -248 -3 -244
-10 4 -6 98 -10 251 -10 l244 0 0 -205 c0 -130 4 -205 10 -205 6 0 10 75 10
205 l0 205 250 0 c157 0 250 4 250 10 0 6 -94 11 -247 12 l-248 3 0 70 0 70
248 3 c153 1 247 6 247 12 0 6 -93 10 -250 10 l-250 0 -2 206 c-2 113 -6 202
-10 198z"/>
<path d="M4440 8340 l0 -160 -244 0 c-227 0 -292 -7 -234 -26 12 -3 124 -5
248 -3 l225 4 3 -72 3 -73 -251 0 c-216 0 -250 -2 -250 -15 0 -13 34 -15 250
-15 l250 0 0 -70 0 -70 -250 0 c-160 0 -250 -4 -250 -10 0 -6 90 -10 250 -10
l250 0 0 -166 c0 -107 3 -163 10 -159 6 4 10 70 10 166 l0 159 245 0 c135 0
245 4 245 9 0 4 -15 8 -32 8 -18 -1 -129 0 -245 1 l-213 2 0 70 0 70 250 0
c227 0 291 7 228 24 -13 3 -125 6 -250 6 l-228 0 0 73 0 72 236 -3 c136 -2
240 0 246 6 9 9 -201 22 -379 22 l-103 0 0 160 c0 100 -4 160 -10 160 -6 0
-10 -60 -10 -160z"/>
<path d="M1180 6791 l0 -251 -205 0 c-130 0 -205 -4 -205 -10 0 -6 75 -10 205
-10 l205 0 0 -251 c0 -164 3 -248 10 -244 6 4 10 98 10 251 l0 244 75 0 75 0
1 -187 c1 -104 5 -217 9 -253 4 -43 7 21 8 188 l2 252 205 0 c127 0 205 4 205
10 0 6 -79 11 -202 12 l-203 3 -5 250 c-4 199 -7 234 -12 171 -5 -43 -8 -157
-8 -253 l0 -173 -75 0 -75 0 0 244 c0 153 -4 247 -10 251 -7 4 -10 -80 -10
-244z"/>
<path d="M2766 6987 c-3 -28 -6 -123 -6 -209 l0 -158 -207 -1 -208 -2 160 -9
c88 -5 181 -7 208 -6 l47 3 0 -72 0 -73 -206 0 c-134 0 -203 -3 -199 -10 4 -6
83 -10 205 -10 l198 0 7 -165 c4 -91 5 -184 1 -206 -5 -31 -3 -40 6 -37 10 4
14 54 16 206 l2 202 75 0 75 0 0 -205 c0 -130 4 -205 10 -205 6 0 10 75 10
205 l0 205 205 0 c130 0 205 4 205 10 0 6 -75 10 -205 10 l-205 0 0 75 0 75
208 2 c187 1 196 2 97 8 -60 4 -154 8 -207 9 l-98 1 -1 188 c0 103 -4 196 -9
207 -5 12 -9 -62 -9 -187 l-1 -208 -75 0 -75 0 0 199 c0 194 -11 265 -24 158z
m172 -456 l3 -71 -76 0 -75 0 0 73 0 72 72 -2 73 -1 3 -71z"/>
<path d="M4358 7011 c-5 -18 -8 -94 -8 -167 l0 -134 -205 0 c-130 0 -205 -4
-205 -10 0 -6 75 -10 205 -10 l205 0 0 -76 0 -76 -152 2 c-203 4 -258 2 -258
-10 0 -6 75 -10 205 -10 l205 0 0 -75 0 -75 -205 0 c-130 0 -205 -4 -205 -10
0 -6 75 -10 205 -10 l205 0 0 -159 c0 -96 4 -162 10 -166 6 -4 10 21 10 68 0
41 3 115 6 165 l7 92 68 0 69 0 0 -166 c0 -107 3 -163 10 -159 6 4 10 70 10
166 l0 159 205 0 c130 0 205 4 205 10 0 6 -75 10 -205 10 l-205 0 0 75 0 75
210 0 c133 0 210 4 210 10 0 6 -47 10 -117 11 -65 1 -158 3 -208 5 l-90 3 -3
71 -3 70 206 0 c130 0 205 4 205 10 0 6 -75 10 -205 10 l-205 0 0 159 c0 96
-4 162 -10 166 -7 4 -10 -52 -10 -160 l0 -166 -72 3 -73 3 -5 165 c-3 108 -8
153 -12 131z m160 -393 l-3 -73 -60 -1 c-82 -2 -85 1 -85 55 0 88 3 91 82 91
l69 0 -3 -72z m0 -170 l-3 -73 -66 -3 -67 -3 -6 46 c-4 25 -4 59 -1 75 7 30 7
30 76 30 l70 0 -3 -72z"/>
<path d="M3652 5068 l3 -673 770 -3 c424 -1 784 0 801 3 37 6 263 203 465 404
152 152 196 221 186 287 -9 57 -77 150 -189 260 -109 107 -347 318 -412 366
l-39 28 -794 0 -793 0 2 -672z m1614 630 c67 -51 345 -300 429 -383 92 -92
165 -200 165 -244 0 -76 -147 -245 -435 -498 l-179 -158 -786 0 -785 0 -3 610
c-2 336 0 629 3 653 l6 42 778 0 778 0 29 -22z"/>
<path d="M1100 5331 l0 -251 -165 0 c-103 0 -165 -4 -165 -10 0 -6 62 -10 165
-10 l165 0 0 -250 c0 -160 4 -250 10 -250 6 0 10 90 10 250 l0 250 70 0 70 0
2 -247 c2 -186 6 -247 16 -251 9 -3 12 51 12 247 l0 251 75 0 75 0 0 -251 c0
-164 3 -248 10 -244 6 4 10 98 10 251 l0 244 160 0 c100 0 160 4 160 10 0 6
-60 10 -160 10 l-160 0 0 239 c0 149 -4 242 -10 246 -7 4 -10 -78 -10 -239 l0
-246 -75 0 -75 0 0 245 c0 211 -2 245 -15 245 -13 0 -15 -34 -15 -245 l0 -245
-70 0 -70 0 0 244 c0 153 -4 247 -10 251 -7 4 -10 -80 -10 -244z"/>
<path d="M3021 5373 l-1 -213 -70 0 -70 0 0 205 c0 174 -2 205 -15 205 -12 0
-15 -32 -17 -202 l-3 -203 -72 -3 -73 -3 0 206 c0 130 -4 205 -10 205 -6 0
-10 -75 -10 -205 l0 -205 -160 0 c-100 0 -160 -4 -160 -10 0 -6 60 -10 160
-10 l161 0 -3 -72 -3 -73 -165 -5 c-202 -6 -186 -21 19 -19 l146 1 3 -206 c1
-126 6 -206 12 -206 6 0 10 78 10 205 l0 205 75 0 75 0 0 -205 c0 -176 2 -205
15 -205 13 0 15 29 15 205 l0 205 70 0 70 0 0 -206 c0 -134 3 -203 10 -199 6
4 10 83 10 206 l0 199 153 0 c83 0 159 5 167 10 10 6 -41 10 -152 10 l-168 0
0 75 0 75 166 0 c107 0 163 3 159 10 -4 6 -70 10 -166 10 l-159 0 -1 193 c0
105 -4 201 -9 212 -5 12 -9 -65 -9 -192z m-173 -305 l-3 -73 -72 -3 -73 -3 0
76 0 75 75 0 76 0 -3 -72z m170 0 l-3 -73 -67 -3 -68 -3 0 76 0 75 70 0 71 0
-3 -72z"/>
<path d="M6507 6304 c-151 -46 -211 -240 -128 -409 37 -75 72 -101 161 -117
112 -21 202 21 246 115 25 56 21 67 -26 66 -19 0 -30 -9 -45 -41 -29 -60 -62
-81 -128 -81 -110 0 -170 73 -171 207 -1 124 54 199 155 212 57 7 105 -18 139
-69 21 -34 28 -38 54 -33 16 4 31 8 33 10 10 10 -40 87 -69 109 -61 46 -137
57 -221 31z"/>
<path d="M6905 5963 c-83 -113 -84 -123 -5 -123 l60 0 0 -31 c0 -38 24 -35 28
3 2 16 11 28 23 31 25 7 25 27 -1 27 -19 0 -20 7 -20 90 0 54 -4 90 -10 90 -6
0 -39 -39 -75 -87z m51 -79 c-5 -13 -76 -21 -76 -9 0 3 17 31 38 62 l37 57 3
-48 c2 -27 1 -55 -2 -62z"/>
<path d="M930 3813 c-29 -26 -38 -39 -30 -47 7 -7 16 -7 30 2 19 12 20 9 20
-68 0 -79 0 -80 25 -80 l25 0 0 115 c0 133 -5 138 -70 78z"/>
<path d="M3322 3830 c-12 -12 -22 -27 -22 -35 0 -20 29 -19 51 1 21 19 49 12
49 -12 0 -9 -25 -43 -55 -77 -31 -33 -54 -66 -52 -71 2 -6 38 -12 80 -14 72
-3 77 -1 77 18 0 17 -6 20 -46 20 l-47 0 42 45 c32 34 41 52 41 79 0 60 -72
88 -118 46z"/>
<path d="M5742 3834 c-12 -8 -22 -21 -22 -29 0 -23 20 -28 39 -11 22 20 51 21
51 2 0 -8 -12 -23 -27 -34 l-26 -19 29 -14 c36 -17 44 -53 15 -69 -17 -8 -24
-7 -41 10 -21 21 -40 19 -40 -4 0 -45 97 -63 124 -24 21 29 20 67 -1 90 -13
14 -14 21 -5 30 18 18 14 53 -6 71 -23 21 -61 22 -90 1z"/>
<path d="M8171 3776 c-28 -41 -51 -81 -51 -89 0 -10 15 -17 44 -21 32 -5 47
-13 51 -27 8 -24 34 -25 42 -1 3 9 13 25 21 34 13 16 13 18 -2 24 -12 5 -16
19 -16 58 0 64 -9 96 -25 96 -7 0 -36 -33 -64 -74z m45 -41 c-5 -26 -12 -35
-26 -35 -26 0 -25 14 2 50 26 36 33 32 24 -15z"/>
<path d="M299 3544 l-37 -5 -7 -454 c-4 -250 -5 -550 -2 -667 l6 -213 795 -3
795 -2 69 57 c214 180 485 445 524 513 54 93 45 145 -44 265 -54 73 -446 434
-528 488 -22 14 -108 16 -780 20 -415 3 -771 3 -791 1z m1513 -24 c28 0 47 -9
86 -42 417 -353 562 -509 562 -603 0 -65 -114 -212 -283 -363 -203 -182 -289
-257 -314 -273 -27 -18 -65 -19 -805 -19 l-778 0 0 650 0 649 68 3 c37 2 373
2 747 0 374 -1 696 -2 717 -2z"/>
<path d="M1058 3218 l-3 -163 -242 -3 c-148 -1 -243 -6 -243 -12 0 -6 95 -11
243 -12 l242 -3 0 -70 0 -70 -247 -3 c-154 -1 -248 -6 -248 -12 0 -6 93 -10
250 -10 l251 0 -3 -72 -3 -73 -253 -3 c-162 -1 -251 -6 -247 -12 4 -6 103 -10
256 -10 l249 0 0 -165 c0 -103 4 -165 10 -165 6 0 10 62 10 165 l0 165 250 0
c160 0 250 4 250 10 0 6 -90 10 -250 10 l-250 0 0 75 0 75 250 0 c160 0 250 4
250 10 0 6 -43 10 -107 10 -60 0 -172 3 -250 7 l-143 6 0 69 0 68 245 0 c157
0 245 4 245 10 0 6 -88 10 -245 10 l-245 0 0 165 c0 101 -4 165 -10 165 -6 0
-11 -65 -12 -162z"/>
<path d="M2723 3543 l-53 -4 0 -670 0 -669 791 0 c572 0 796 3 812 11 21 12
102 82 318 275 193 173 299 310 299 387 0 71 -74 177 -215 308 -136 127 -305
277 -363 321 l-55 43 -741 1 c-408 1 -765 -1 -793 -3z m1583 -58 c74 -60 206
-177 331 -293 119 -110 193 -199 225 -271 19 -41 19 -45 3 -88 -22 -56 -110
-166 -211 -263 -101 -96 -326 -297 -367 -327 l-31 -23 -783 0 -783 0 0 650 0
649 73 3 c39 2 392 4 783 3 l711 0 49 -40z"/>
<path d="M3390 3169 l0 -211 -82 3 c-46 2 -141 2 -213 0 l-130 -4 135 -8 c74
-3 170 -7 213 -8 l77 -1 0 -70 0 -70 -211 0 c-137 0 -208 -3 -204 -10 4 -6 85
-10 211 -10 l204 0 0 -205 c0 -130 4 -205 10 -205 6 0 10 75 10 205 l0 205 75
0 75 0 0 -210 c0 -133 4 -210 10 -210 6 0 10 77 10 210 l0 210 205 0 c130 0
205 4 205 10 0 6 -75 10 -205 10 l-205 0 0 75 0 75 208 2 207 2 -160 6 c-88 4
-181 8 -207 9 l-48 1 0 199 c0 120 -4 202 -10 206 -6 4 -11 -70 -12 -202 l-3
-208 -70 0 -70 0 -3 208 c-1 126 -6 207 -12 207 -6 0 -10 -80 -10 -211z m170
-300 l0 -69 -75 0 -75 0 0 70 0 69 68 3 c37 2 70 2 75 0 4 -2 7 -34 7 -73z"/>
<path d="M5084 3541 c-2 -2 -4 -305 -4 -673 l0 -668 803 0 803 0 90 83 c49 45
127 115 174 154 101 85 243 229 294 297 43 57 66 108 66 145 0 34 -59 132
-124 207 -62 71 -428 397 -482 430 l-41 24 -788 3 c-432 1 -789 0 -791 -2z
m1611 -40 c66 -42 346 -292 456 -409 86 -89 139 -174 139 -219 0 -32 -23 -75
-81 -153 -56 -76 -131 -150 -289 -285 -63 -54 -143 -125 -177 -157 l-61 -58
-791 0 -791 0 0 650 0 650 783 0 c751 0 783 -1 812 -19z"/>
<path d="M5718 3173 l-3 -208 -158 0 c-86 0 -157 -3 -157 -7 0 -5 30 -9 68 -9
37 -1 108 -3 157 -5 l90 -3 3 -71 3 -70 -161 0 c-100 0 -160 -4 -160 -10 0 -6
60 -10 160 -10 l160 0 0 -210 c0 -133 4 -210 10 -210 6 0 10 77 10 210 l0 210
70 0 70 0 1 -57 c9 -369 33 -489 35 -168 0 99 1 190 2 203 2 21 7 22 72 22
l70 0 0 -211 c0 -137 3 -208 10 -204 6 4 10 85 10 211 l0 204 166 0 c107 0
163 3 159 10 -4 6 -70 10 -166 10 l-159 0 0 75 0 75 168 3 167 3 -167 2 -168
2 0 204 c0 123 -4 207 -10 211 -6 4 -11 -70 -12 -202 l-3 -208 -64 -3 c-45 -2
-67 1 -73 10 -4 7 -8 101 -7 208 1 266 -16 260 -26 -10 l-7 -211 -67 3 -66 3
-3 208 c-1 123 -6 207 -12 207 -6 0 -11 -84 -12 -207z m157 -237 c6 -2 9 -31
7 -70 l-4 -66 -69 0 -69 0 0 68 c0 38 2 71 5 74 5 5 110 0 130 -6z m185 -66
l0 -70 -69 0 -70 0 -7 45 c-3 25 -3 56 0 70 6 24 10 25 76 25 l70 0 0 -70z"/>
<path d="M7500 2870 l0 -670 794 0 794 0 49 36 c26 20 77 64 113 98 36 33 116
106 178 161 130 115 242 239 272 300 39 81 17 155 -82 273 -50 60 -378 356
-481 435 l-49 37 -794 0 -794 0 0 -670z m1611 632 c37 -24 317 -270 416 -366
101 -97 164 -189 170 -250 7 -59 -28 -122 -126 -228 -80 -86 -396 -371 -457
-413 l-37 -25 -778 0 -779 0 0 650 0 650 783 0 c727 0 784 -1 808 -18z"/>
<path d="M8218 3218 l-3 -163 -202 -3 c-124 -1 -203 -6 -203 -12 0 -6 78 -10
205 -10 l206 0 -3 -72 -3 -73 -207 -3 c-127 -1 -208 -6 -208 -12 0 -6 80 -10
210 -10 l211 0 -3 -72 -3 -73 -210 -5 c-115 -3 -202 -8 -192 -12 10 -5 106 -8
213 -8 l194 0 0 -165 c0 -103 4 -165 10 -165 6 0 10 62 10 165 l0 165 75 0 75
0 0 -160 c0 -100 4 -160 10 -160 6 0 10 60 10 160 l0 160 205 0 c130 0 205 4
205 10 0 6 -75 10 -205 10 l-205 0 0 75 0 75 205 0 c130 0 205 4 205 10 0 6
-58 11 -152 11 -84 1 -164 2 -178 3 -14 1 -37 3 -52 4 -28 2 -28 3 -28 72 l0
70 205 0 c130 0 205 4 205 10 0 6 -75 10 -205 10 l-205 0 0 165 c0 103 -4 165
-10 165 -6 0 -10 -62 -10 -165 l0 -165 -75 0 -75 0 0 165 c0 101 -4 165 -10
165 -6 0 -11 -65 -12 -162z m170 -260 l-3 -73 -70 0 -70 0 -3 73 -3 72 76 0
76 0 -3 -72z m2 -173 l0 -75 -75 0 -75 0 0 75 0 75 75 0 75 0 0 -75z"/>
<path d="M3328 1840 c-29 -29 -30 -34 -26 -95 3 -44 10 -70 22 -84 25 -27 79
-28 106 -1 48 48 5 139 -60 127 -33 -7 -38 3 -14 27 18 18 40 21 49 6 11 -17
35 -11 35 10 0 22 -27 40 -60 40 -12 0 -35 -14 -52 -30z m80 -135 c-2 -14 -11
-20 -28 -20 -32 0 -41 42 -14 62 16 12 21 11 32 -4 7 -10 11 -27 10 -38z"/>
<path d="M5733 1863 c-13 -2 -23 -11 -23 -19 0 -10 13 -14 50 -14 l50 0 -21
-41 c-26 -51 -50 -130 -43 -141 3 -4 13 -8 23 -8 13 0 20 14 29 56 6 31 26 79
43 106 17 27 30 51 27 53 -7 7 -111 14 -135 8z"/>
<path d="M8163 1858 c-29 -14 -37 -41 -23 -69 9 -16 9 -28 1 -46 -28 -61 1
-107 65 -101 27 2 43 11 57 30 20 27 20 29 3 64 -12 26 -14 40 -7 47 18 18 12
55 -11 71 -26 18 -53 19 -85 4z m63 -39 c8 -14 -21 -43 -35 -35 -6 4 -11 16
-11 27 0 21 34 27 46 8z m4 -99 c14 -27 -14 -54 -41 -40 -24 13 -25 46 -2 59
20 11 29 7 43 -19z"/>
<path d="M906 1844 c-3 -9 -6 -36 -6 -61 0 -42 1 -45 23 -38 48 15 62 11 65
-18 2 -16 -2 -35 -9 -43 -10 -13 -15 -13 -35 1 -25 16 -54 20 -54 7 0 -24 34
-52 63 -52 63 0 104 60 76 112 -16 30 -28 38 -61 38 -18 0 -28 5 -28 15 0 11
12 15 45 15 38 0 45 3 45 20 0 18 -7 20 -59 20 -44 0 -60 -4 -65 -16z"/>
<path d="M258 1413 c-9 -288 -10 -908 -3 -1046 l8 -127 793 0 793 0 84 72
c415 360 526 480 544 592 12 75 -103 225 -308 402 -51 43 -136 118 -190 166
-54 48 -109 93 -121 100 -18 10 -186 14 -809 16 l-786 3 -5 -178z m1565 148
c22 -6 59 -29 95 -60 31 -29 98 -86 147 -128 270 -229 395 -374 395 -459 0
-49 -59 -137 -163 -244 -95 -98 -381 -355 -437 -393 -22 -16 -88 -17 -802 -17
l-778 0 0 655 0 655 753 0 c413 0 769 -4 790 -9z"/>
<path d="M880 1170 l0 -250 -165 0 c-103 0 -165 -4 -165 -10 0 -6 62 -10 165
-10 l165 0 0 -250 c0 -160 4 -250 10 -250 6 0 10 90 10 250 l0 250 70 0 70 0
0 -245 c0 -211 2 -245 15 -245 13 0 15 34 15 245 l0 245 75 0 75 0 0 -245 c0
-157 4 -245 10 -245 6 0 10 88 10 245 l0 245 160 0 c100 0 160 4 160 10 0 6
-60 10 -160 10 l-160 0 0 244 c0 150 -4 247 -10 251 -6 4 -11 -83 -12 -242
l-3 -248 -72 -3 -73 -3 0 251 c0 216 -2 250 -15 250 -13 0 -15 -34 -15 -250
l0 -250 -70 0 -70 0 0 250 c0 160 -4 250 -10 250 -6 0 -10 -90 -10 -250z"/>
<path d="M2678 1584 c-5 -4 -8 -308 -8 -676 l0 -668 800 0 800 0 197 176 c304
270 425 412 425 499 0 57 -79 180 -171 265 -105 97 -418 374 -438 388 -21 13
-129 15 -811 19 -433 3 -790 1 -794 -3z m1546 -20 c43 -6 61 -19 179 -122 320
-280 426 -392 463 -490 17 -42 17 -42 -14 -105 -18 -35 -64 -97 -107 -144 -72
-78 -275 -266 -418 -386 l-67 -57 -785 0 -785 0 0 650 0 650 663 3 c364 1 698
3 743 5 45 1 102 -1 128 -4z"/>
<path d="M2990 1290 c-7 -4 -10 -117 -10 -370 0 -200 1 -365 3 -366 3 -3 876
-6 1130 -4 l27 0 -2 371 -3 370 -567 3 c-312 2 -572 0 -578 -4z m808 -16 l322
-7 0 -103 0 -104 -384 0 -385 0 -43 29 c-24 15 -98 63 -165 105 -68 43 -123
79 -123 81 0 6 462 6 778 -1z m-703 -74 c39 -24 104 -65 145 -91 l75 -49 -157
0 -158 0 0 107 c0 87 2 104 13 92 6 -9 44 -35 82 -59z m292 -183 c60 -34 304
-190 309 -198 3 -5 -141 -9 -345 -9 l-351 0 0 104 c0 74 4 106 13 109 28 12
352 7 374 -6z m733 -98 l0 -111 -188 4 -187 3 -150 94 c-83 52 -157 100 -165
107 -12 12 41 14 338 14 l352 0 0 -111z m-322 -158 c15 -10 89 -58 165 -106
76 -48 137 -88 135 -89 -2 0 -249 0 -550 2 l-548 2 0 105 0 105 385 0 c363 0
387 -1 413 -19z m322 -81 l0 -101 -57 37 c-32 21 -98 62 -148 92 -49 31 -94
59 -99 64 -6 4 61 8 147 8 l157 0 0 -100z"/>
<path d="M5163 1583 l-83 -4 0 -669 0 -670 803 0 802 1 65 60 c36 33 115 102
175 153 137 116 299 284 344 354 51 79 51 122 4 199 -21 34 -60 88 -87 119
-64 74 -428 398 -486 432 l-45 27 -705 1 c-388 0 -742 -1 -787 -3z m1522 -35
c37 -20 287 -238 408 -357 132 -128 197 -222 197 -283 0 -71 -144 -242 -353
-420 -73 -62 -161 -138 -196 -170 l-64 -58 -788 0 -789 0 0 650 0 649 73 3
c39 2 389 3 777 2 626 0 708 -2 735 -16z"/>
<path d="M5877 1324 c-4 -54 -7 -168 -7 -251 l0 -153 -245 0 c-157 0 -245 -4
-245 -10 0 -6 90 -10 250 -10 l250 0 0 -251 c0 -164 3 -248 10 -244 6 4 10 98
10 251 l0 244 245 0 c157 0 245 4 245 10 0 6 -88 10 -243 10 l-244 0 -7 138
c-3 76 -3 178 0 227 3 50 2 101 -3 114 -8 19 -11 2 -16 -75z"/>
<path d="M7504 1581 c-2 -2 -4 -305 -4 -673 l0 -668 688 -2 c813 -2 877 0 917
18 17 8 71 51 121 96 50 46 139 126 198 178 123 109 246 244 272 298 9 20 19
57 21 82 4 38 -1 54 -30 102 -56 91 -111 149 -311 326 -259 230 -276 242 -340
244 -114 4 -1528 3 -1532 -1z m1539 -17 c55 -7 86 -30 289 -210 198 -176 266
-244 314 -315 84 -122 70 -184 -75 -341 -80 -86 -396 -371 -457 -413 l-37 -25
-778 0 -779 0 0 649 c0 511 3 650 13 654 19 6 1456 8 1510 1z"/>
<path d="M8120 1255 l0 -165 -166 0 c-107 0 -163 -3 -159 -10 4 -6 70 -10 166
-10 l160 0 -3 -72 -3 -73 -162 -3 c-98 -1 -163 -6 -163 -12 0 -6 65 -10 165
-10 l166 0 -3 -72 -3 -73 -163 -3 c-103 -1 -161 -6 -157 -12 4 -6 73 -10 166
-10 l159 0 0 -165 c0 -103 4 -165 10 -165 6 0 10 62 10 165 l0 165 70 0 70 0
2 -132 c1 -73 2 -145 1 -160 -1 -18 4 -28 13 -28 11 0 14 32 16 158 l3 157 73
3 72 3 0 -166 c0 -103 4 -165 10 -165 6 0 10 62 10 165 l0 165 154 0 c93 0
157 4 161 10 4 7 -50 10 -154 10 l-161 0 0 75 0 75 165 0 c103 0 165 4 165 10
0 6 -57 11 -147 12 -82 0 -155 1 -163 2 -12 1 -16 18 -18 74 l-3 72 161 0
c100 0 160 4 160 10 0 6 -60 10 -160 10 l-160 0 0 159 c0 93 -4 162 -10 166
-6 4 -11 -54 -12 -157 l-3 -163 -70 0 -70 0 -3 163 c-2 124 -5 162 -15 159
-15 -5 -14 0 -16 -179 l-1 -148 -70 0 -70 0 0 165 c0 103 -4 165 -10 165 -6 0
-10 -62 -10 -165z m160 -261 l0 -76 -67 4 -68 3 -3 73 -3 72 71 0 70 0 0 -76z
m180 7 c0 -39 -3 -71 -7 -73 -5 -2 -38 -2 -75 0 l-68 4 0 62 c0 35 3 66 7 69
3 4 37 7 75 7 l68 0 0 -69z m-180 -176 l0 -75 -70 0 -70 0 0 75 0 75 70 0 70
0 0 -75z m178 3 l-3 -73 -70 0 -70 0 -3 59 c-4 85 -4 86 78 86 l71 0 -3 -72z"/>
</g>
</svg>
