<?xml version="1.0" standalone="no"?>
<!DOCTYPE svg PUBLIC "-//W3C//DTD SVG 20010904//EN"
 "http://www.w3.org/TR/2001/REC-SVG-20010904/DTD/svg10.dtd">
<svg version="1.0" xmlns="http://www.w3.org/2000/svg"
 width="996.000000pt" height="922.000000pt" viewBox="0 0 996.000000 922.000000"
 preserveAspectRatio="xMidYMid meet">
<metadata>
Created by potrace 1.16, written by Peter Selinger 2001-2019
</metadata>
<g transform="translate(0.000000,922.000000) scale(0.100000,-0.100000)"
fill="#FFFFFF" stroke="none">
<path d="M256 8828 c-8 -222 -8 -4450 1 -4625 l6 -133 2939 0 2938 0 0 2465 0
2465 -2938 0 -2939 0 -7 -172z m5864 -2293 l0 -2445 -2918 0 -2919 0 -6 408
c-9 569 -10 3813 -1 4180 l7 302 2919 0 2918 0 0 -2445z"/>
<path d="M1228 8425 c-42 -46 -48 -59 -48 -96 0 -67 81 -369 99 -369 8 0 21
42 72 235 40 150 39 159 -24 226 l-52 57 -47 -53z"/>
<path d="M2810 8424 c-53 -55 -53 -56 -47 -109 7 -70 87 -353 101 -357 24 -8
363 10 387 20 15 6 43 37 66 75 l40 64 -63 31 c-36 18 -72 32 -81 32 -21 0
-125 -57 -237 -131 -49 -32 -91 -57 -93 -55 -2 1 13 59 33 127 20 68 38 151
41 185 l5 61 -47 54 c-26 30 -49 55 -50 57 -1 1 -26 -23 -55 -54z"/>
<path d="M4400 8428 c-25 -28 -48 -57 -52 -64 -10 -16 22 -170 65 -314 60
-198 171 -441 211 -462 21 -11 138 -39 143 -34 2 1 6 36 9 77 l7 74 -65 60
c-35 33 -103 87 -151 120 -48 33 -87 63 -87 68 0 4 62 7 138 8 75 0 161 6 191
12 52 12 56 15 93 76 22 35 36 67 31 70 -4 4 -36 20 -71 36 l-63 29 -63 -31
c-34 -17 -108 -61 -164 -97 -56 -36 -102 -63 -102 -60 0 4 15 65 34 138 47
178 51 214 29 247 -20 29 -81 99 -85 99 -2 -1 -23 -24 -48 -52z"/>
<path d="M1226 6964 l-49 -55 6 -67 c3 -37 22 -122 41 -190 20 -68 36 -126 36
-128 0 -2 -46 27 -103 65 -56 37 -131 83 -167 101 l-64 32 -68 -33 c-37 -18
-68 -37 -68 -41 0 -19 70 -117 91 -129 20 -10 225 -27 359 -28 l45 -1 43 155
c24 86 46 177 49 204 5 45 3 49 -46 109 -29 34 -53 62 -54 61 -1 0 -24 -25
-51 -55z"/>
<path d="M4405 6973 c-72 -84 -69 -73 -46 -176 11 -51 31 -131 45 -179 13 -49
22 -88 20 -88 -6 0 -106 62 -154 96 -25 17 -74 46 -109 64 l-64 32 -71 -33
c-86 -39 -81 -35 -66 -51 6 -7 21 -31 33 -52 41 -73 53 -77 259 -88 100 -5
186 -12 190 -16 3 -4 31 -68 62 -142 87 -206 107 -229 217 -243 l46 -6 7 46
c13 100 11 107 -56 167 -34 31 -103 85 -153 119 l-90 62 155 8 c210 11 224 16
273 96 43 72 46 66 -49 107 l-61 26 -51 -26 c-27 -14 -100 -59 -161 -100 -61
-40 -111 -68 -111 -62 0 7 11 51 25 99 36 123 58 235 51 260 -3 12 -27 46 -53
74 l-48 53 -40 -47z"/>
<path d="M2806 6954 c-29 -35 -46 -66 -46 -82 0 -35 23 -135 57 -245 14 -48
24 -90 21 -93 -3 -3 -55 27 -114 67 -60 39 -133 83 -162 96 l-52 25 -70 -33
c-39 -17 -70 -34 -70 -36 0 -16 68 -118 87 -130 58 -38 764 -40 810 -2 9 8 33
41 54 73 l37 59 -73 35 -73 35 -75 -41 c-42 -22 -116 -68 -166 -101 -53 -35
-91 -55 -91 -47 0 7 7 33 15 57 28 79 65 237 65 277 0 33 -8 48 -46 91 -25 28
-50 51 -54 51 -5 0 -29 -25 -54 -56z"/>
<path d="M3655 5718 c-3 -13 -4 -315 -3 -673 l3 -650 796 0 796 0 69 60 c386
335 543 500 560 591 10 54 -43 150 -135 247 -80 84 -320 303 -432 393 l-66 54
-791 0 -792 0 -5 -22z m1611 -20 c68 -52 346 -300 429 -383 92 -92 165 -200
165 -244 0 -44 -40 -109 -128 -206 -86 -95 -442 -418 -488 -443 -18 -9 -191
-12 -796 -10 l-773 3 -3 580 c-2 319 0 613 3 653 l7 72 778 0 777 0 29 -22z"/>
<path d="M1270 5555 c0 -6 -20 -32 -45 -60 -39 -43 -45 -56 -45 -93 0 -46 27
-164 61 -270 12 -35 19 -65 17 -67 -2 -2 -48 26 -103 62 -105 68 -206 123
-227 123 -23 0 -138 -54 -138 -65 0 -5 18 -38 39 -72 47 -72 44 -72 280 -82
l146 -6 -81 -80 c-44 -44 -105 -109 -134 -144 l-53 -64 16 -75 c9 -41 18 -77
20 -78 7 -7 136 48 150 64 9 10 30 67 46 127 81 290 153 570 158 614 5 46 4
50 -42 102 -67 76 -65 74 -65 64z"/>
<path d="M2808 5495 c-63 -70 -63 -82 13 -353 11 -41 19 -75 17 -77 -2 -1 -50
28 -108 67 -122 81 -191 118 -219 118 -12 0 -47 -12 -78 -27 -32 -15 -59 -28
-61 -29 -1 0 14 -31 35 -68 45 -81 50 -83 265 -92 87 -4 158 -9 158 -12 0 -2
-56 -63 -125 -134 -117 -122 -125 -133 -125 -170 0 -30 17 -124 24 -135 5 -8
125 42 143 59 25 23 56 114 93 268 12 52 29 100 36 106 8 6 84 14 178 17 90 4
177 12 192 17 29 12 43 27 86 99 l26 45 -56 24 c-31 13 -66 26 -78 29 -27 6
-110 -36 -239 -120 -55 -36 -101 -64 -103 -63 -2 2 13 59 33 127 20 68 38 152
42 186 l6 61 -49 56 c-26 31 -50 56 -53 55 -3 0 -27 -24 -53 -54z"/>
<path d="M6517 6306 c-62 -17 -116 -61 -147 -122 -21 -41 -25 -62 -25 -139 0
-83 3 -95 34 -153 39 -72 74 -97 156 -114 105 -21 203 20 245 102 30 59 27 80
-12 80 -29 -1 -36 -6 -53 -43 -37 -78 -141 -106 -220 -57 -42 26 -62 61 -76
136 -23 127 32 232 136 255 47 10 57 9 91 -7 22 -11 50 -36 63 -57 22 -34 28
-37 55 -31 17 3 32 8 34 9 2 2 -6 21 -17 43 -25 49 -71 86 -126 101 -50 14
-77 13 -138 -3z"/>
<path d="M6871 5974 c-6 -36 -10 -69 -7 -72 3 -2 21 3 41 12 33 16 38 16 61 2
27 -18 34 -72 12 -94 -21 -21 -65 -14 -86 13 -25 31 -32 31 -32 1 0 -54 87
-75 136 -33 20 18 27 33 28 64 1 58 -24 83 -81 83 -42 0 -44 1 -41 28 3 26 6
27 61 30 82 4 71 26 -14 30 l-65 3 -13 -67z"/>
<path d="M930 3814 c-22 -20 -40 -40 -40 -45 0 -12 37 -11 45 1 15 24 20 5 17
-70 l-4 -80 26 0 26 0 0 115 c0 133 -5 138 -70 79z"/>
<path d="M3322 3827 c-12 -13 -22 -29 -22 -35 0 -17 30 -15 51 4 10 9 25 14
34 11 20 -8 19 -41 -2 -58 -23 -20 -93 -109 -93 -120 0 -5 36 -9 80 -9 73 0
80 2 80 20 0 17 -7 20 -46 20 l-47 0 42 45 c32 34 41 52 41 79 0 62 -75 89
-118 43z"/>
<path d="M5742 3834 c-12 -8 -22 -21 -22 -29 0 -23 20 -28 39 -11 22 20 51 21
51 2 0 -8 -12 -23 -27 -34 l-26 -19 29 -14 c20 -10 29 -22 29 -39 0 -31 -29
-39 -55 -15 -20 18 -40 13 -40 -9 0 -22 35 -46 68 -46 61 0 94 69 55 112 -13
14 -14 21 -5 30 18 18 14 53 -6 71 -23 21 -61 22 -90 1z"/>
<path d="M8170 3778 c-65 -92 -65 -104 0 -113 40 -6 50 -11 50 -26 0 -24 28
-25 37 -1 3 9 13 25 21 34 13 16 13 18 -2 24 -12 5 -16 19 -16 58 0 65 -9 96
-26 96 -7 0 -36 -32 -64 -72z m46 -43 c-5 -26 -12 -35 -26 -35 -26 0 -25 14 2
50 26 36 33 32 24 -15z"/>
<path d="M2670 2876 l0 -676 799 0 800 0 98 88 c366 323 432 390 495 500 76
130 13 222 -409 593 -65 58 -134 116 -153 131 l-35 27 -798 7 -797 6 0 -676z
m1768 496 c289 -253 396 -370 429 -465 12 -36 12 -43 -11 -92 -13 -28 -56 -89
-96 -134 -66 -75 -399 -384 -472 -438 l-32 -23 -783 0 -783 0 0 650 0 650 746
2 c410 2 766 1 790 -1 41 -3 57 -14 212 -149z"/>
<path d="M3451 3288 c-47 -49 -51 -57 -51 -101 0 -43 30 -198 46 -242 6 -15
-7 -11 -62 20 -230 130 -244 134 -330 84 -30 -17 -54 -32 -54 -35 0 -8 74
-119 84 -126 6 -4 91 -8 189 -8 l177 0 2 -115 c1 -63 2 -128 3 -145 1 -16 -3
-30 -8 -30 -6 0 -69 23 -139 50 -71 28 -150 53 -176 56 -43 5 -51 3 -101 -35
-30 -23 -58 -41 -63 -41 -5 0 17 -27 49 -60 56 -59 57 -60 112 -60 31 0 108 9
171 20 174 30 164 33 156 -50 l-6 -70 35 0 35 0 0 70 c0 82 -14 78 155 50 66
-11 143 -20 170 -20 48 0 53 3 105 55 l53 54 -24 20 c-13 11 -41 33 -62 48
-36 25 -41 26 -90 16 -29 -6 -108 -32 -175 -57 -68 -25 -125 -46 -128 -46 -2
0 -4 63 -4 140 l0 140 164 0 c91 0 176 4 190 10 23 8 96 106 96 127 0 4 -10
13 -23 19 -12 6 -41 21 -65 34 -40 21 -47 22 -83 10 -22 -8 -90 -42 -151 -76
-62 -35 -114 -62 -116 -60 -2 2 8 39 21 83 36 117 50 181 43 206 -4 12 -26 44
-50 70 l-44 49 -51 -54z"/>
<path d="M5138 3543 l-58 -4 0 -669 0 -670 803 0 802 1 55 50 c30 28 111 99
181 159 243 210 389 385 389 467 0 38 -62 142 -131 217 -75 82 -429 395 -482
426 l-42 25 -730 1 c-401 1 -756 -1 -787 -3z m1542 -32 c31 -17 55 -37 195
-160 266 -232 398 -381 411 -463 14 -83 -125 -254 -368 -456 -48 -40 -121
-104 -162 -142 l-76 -70 -790 0 -790 0 0 649 c0 510 3 650 13 654 6 3 356 4
777 3 635 -1 769 -3 790 -15z"/>
<path d="M5846 3303 c-48 -56 -49 -56 -43 -115 5 -62 86 -358 97 -358 10 0 91
296 97 355 5 51 4 54 -43 113 -27 33 -51 61 -54 60 -3 0 -27 -25 -54 -55z"/>
<path d="M7753 3543 l-253 -3 0 -670 0 -670 794 0 795 0 70 58 c220 180 459
410 519 499 70 106 51 185 -81 332 -72 81 -410 383 -477 426 l-35 23 -540 4
c-297 2 -654 2 -792 1z m1358 -41 c34 -22 309 -263 412 -361 43 -42 98 -105
123 -142 84 -122 70 -184 -74 -340 -82 -88 -395 -371 -456 -413 l-39 -26 -778
0 -779 0 0 649 c0 510 3 650 13 654 6 3 358 4 781 1 709 -4 772 -6 797 -22z"/>
<path d="M8262 3299 c-52 -58 -53 -60 -47 -106 7 -52 33 -158 64 -265 l19 -67
-61 40 c-145 93 -249 152 -271 152 -14 0 -52 -13 -85 -29 l-61 -29 40 -66 c22
-37 48 -70 57 -74 10 -4 99 -11 198 -16 99 -5 184 -11 188 -12 5 -1 30 -55 57
-120 27 -65 65 -147 85 -182 38 -69 50 -76 151 -88 l41 -5 6 65 c4 43 2 73 -6
89 -14 28 -82 86 -201 174 -48 36 -83 66 -79 67 4 2 80 6 168 11 104 6 169 14
187 23 15 8 43 40 62 72 l35 58 -73 35 -74 35 -61 -30 c-33 -17 -104 -60 -156
-96 -53 -36 -100 -65 -105 -65 -4 0 4 42 19 93 15 51 36 131 46 179 20 96 22
88 -50 170 l-41 46 -52 -59z"/>
<path d="M255 3164 c-4 -206 -6 -508 -4 -670 l4 -294 797 0 796 0 85 73 c285
242 480 435 517 512 45 93 38 128 -52 250 -52 70 -398 390 -522 483 l-30 22
-792 0 -792 0 -7 -376z m1666 294 c39 -35 108 -94 154 -133 256 -218 385 -368
385 -448 0 -49 -60 -141 -153 -237 -84 -87 -395 -371 -443 -404 -26 -19 7 -18
-841 -17 l-743 1 0 650 0 650 785 0 784 0 72 -62z"/>
<path d="M1009 3367 c-55 -63 -60 -77 -50 -138 11 -68 36 -166 63 -247 11 -35
17 -66 14 -69 -3 -3 -63 10 -133 30 -71 19 -146 38 -168 42 -22 3 -47 8 -56
11 -17 5 -139 -89 -139 -106 0 -5 26 -30 57 -55 57 -47 58 -47 114 -41 31 4
117 24 192 45 83 23 137 34 137 27 0 -6 -14 -54 -30 -106 -17 -52 -37 -132
-46 -178 -15 -79 -15 -84 5 -115 11 -17 33 -45 50 -61 27 -26 31 -27 50 -14
12 8 37 36 57 61 44 56 43 63 -17 279 -21 79 -39 143 -39 144 0 1 46 -12 103
-28 176 -50 270 -67 288 -54 38 27 120 106 110 106 -6 0 -36 23 -67 50 -34 32
-62 49 -72 46 -9 -2 -33 -7 -52 -11 -19 -3 -95 -22 -168 -42 -73 -19 -135 -33
-138 -31 -2 3 11 56 29 119 50 168 63 245 46 268 -55 75 -85 110 -94 110 -5
-1 -26 -20 -46 -42z"/>
<path d="M3329 1841 c-25 -25 -29 -37 -29 -83 0 -75 27 -118 75 -118 45 0 75
29 75 73 0 49 -33 81 -76 74 -36 -6 -45 8 -22 31 15 15 48 16 48 2 0 -5 9 -10
20 -10 26 0 27 36 1 50 -33 17 -61 11 -92 -19z m81 -125 c0 -22 -18 -38 -36
-34 -27 5 -33 65 -7 70 18 5 43 -17 43 -36z"/>
<path d="M8155 1846 c-21 -21 -23 -29 -15 -52 8 -19 7 -36 -2 -61 -19 -52 4
-87 59 -91 34 -3 44 1 62 24 25 32 26 40 6 78 -11 20 -12 33 -5 40 17 17 11
54 -12 70 -32 23 -65 20 -93 -8z m71 -27 c8 -14 -21 -43 -35 -35 -6 4 -11 16
-11 27 0 21 34 27 46 8z m4 -116 c0 -21 -4 -24 -27 -21 -34 4 -43 36 -17 55
23 16 44 0 44 -34z"/>
<path d="M905 1823 c-3 -21 -8 -49 -11 -62 -5 -21 -3 -23 23 -17 53 13 65 11
73 -10 6 -15 3 -29 -7 -43 -14 -21 -16 -21 -39 -7 -29 20 -54 20 -54 2 0 -42
74 -61 117 -31 27 19 38 67 22 97 -16 30 -28 38 -61 38 -48 0 -35 28 14 32 31
2 44 8 46 21 3 15 -5 17 -57 17 l-60 0 -6 -37z"/>
<path d="M5710 1845 c0 -11 12 -15 49 -15 l50 0 -29 -62 c-38 -83 -42 -122
-14 -126 18 -3 22 3 27 39 3 23 22 73 41 110 l36 69 -80 0 c-64 0 -80 -3 -80
-15z"/>
<path d="M260 914 l0 -674 798 1 797 0 87 77 c48 42 131 116 185 163 141 124
296 288 322 343 39 79 38 112 -6 184 -63 105 -120 163 -433 437 -56 50 -118
101 -138 115 l-35 25 -788 2 -789 2 0 -675z m1633 606 c185 -150 425 -369 472
-430 58 -77 95 -142 95 -171 0 -75 -125 -230 -334 -413 -56 -50 -142 -126
-191 -169 l-87 -77 -784 0 -784 0 0 655 0 656 779 -3 779 -3 55 -45z"/>
<path d="M1022 1395 c-12 -19 -27 -35 -32 -35 -5 0 -16 -12 -24 -27 -17 -35
-8 -104 33 -256 16 -59 24 -104 17 -99 -6 5 -48 36 -92 70 -45 33 -91 77 -102
96 -12 20 -29 36 -37 36 -24 0 -52 -17 -59 -36 -9 -23 31 -64 62 -64 16 0 61
-27 119 -70 51 -39 93 -72 93 -74 0 -2 -50 12 -111 30 -60 19 -120 34 -133 34
-13 0 -37 5 -55 11 -26 9 -36 8 -57 -6 -37 -24 -104 -86 -104 -96 0 -4 26 -29
57 -54 57 -47 57 -47 116 -40 32 3 119 23 194 44 131 37 135 38 130 17 -3 -11
-22 -77 -41 -146 -20 -69 -38 -149 -39 -177 -2 -51 -1 -54 51 -105 l52 -53 50
55 c30 34 49 65 50 80 0 14 -14 79 -31 145 -50 191 -53 205 -46 211 4 4 55 -7
114 -24 137 -39 226 -56 255 -48 25 7 136 106 119 106 -6 0 -36 23 -67 50 -35
32 -61 49 -72 46 -9 -3 -42 -9 -74 -15 -31 -5 -96 -21 -144 -35 -48 -14 -89
-24 -91 -23 -1 2 46 38 105 79 82 59 110 74 120 66 10 -9 21 -4 44 19 24 25
29 36 24 57 -10 39 -50 54 -84 34 -15 -9 -29 -29 -32 -43 -4 -19 -33 -48 -110
-105 -58 -43 -106 -78 -107 -77 -1 1 11 45 26 97 16 52 34 125 41 162 l13 66
-49 66 c-27 36 -53 65 -59 65 -5 1 -20 -15 -33 -34z"/>
<path d="M2670 915 l0 -675 799 0 799 0 229 204 c125 112 248 227 272 256 64
75 109 146 121 188 23 85 -83 220 -385 488 -84 74 -174 151 -200 172 l-48 37
-793 2 -794 3 0 -675z m1615 628 c73 -53 435 -385 487 -447 32 -38 70 -93 84
-123 26 -53 26 -54 9 -99 -38 -99 -227 -296 -538 -557 l-67 -57 -785 0 -785 0
0 650 0 650 323 3 c177 1 529 2 782 2 454 -1 461 -1 490 -22z"/>
<path d="M3452 1376 c-6 -14 -23 -33 -37 -42 -14 -9 -32 -28 -39 -41 -18 -36
1 -131 80 -395 4 -13 -35 -59 -135 -162 -79 -82 -141 -153 -140 -163 0 -10 8
-47 17 -83 l17 -66 62 22 c79 27 88 35 112 100 25 64 71 244 71 273 0 44 18
17 69 -104 29 -68 66 -145 81 -169 30 -46 46 -54 141 -70 43 -8 49 4 49 94 0
53 -2 58 -47 101 -27 25 -97 81 -156 124 -59 43 -110 82 -112 86 -3 4 4 36 14
71 25 79 50 175 66 253 l13 60 -41 53 c-23 30 -47 60 -53 68 -15 19 -19 18
-32 -10z"/>
<path d="M5087 1584 c-4 -4 -7 -308 -7 -676 l0 -668 803 0 802 1 65 60 c36 33
115 102 175 153 137 116 299 284 344 354 20 31 35 70 38 95 6 61 -48 147 -172
272 -100 102 -362 335 -431 384 l-37 26 -786 3 c-433 2 -790 0 -794 -4z m1598
-36 c46 -25 368 -312 466 -416 87 -91 139 -174 139 -222 0 -73 -141 -242 -353
-422 -73 -61 -160 -138 -194 -170 l-61 -58 -791 0 -791 0 0 650 0 649 63 3
c34 2 384 3 777 3 648 0 718 -2 745 -17z"/>
<path d="M5830 1338 c-50 -60 -52 -64 -46 -109 4 -25 22 -103 42 -173 19 -70
34 -132 32 -137 -2 -6 -57 25 -123 68 -66 43 -139 86 -161 96 l-41 19 -71 -36
-71 -36 35 -58 c19 -33 47 -65 62 -72 22 -11 184 -24 351 -29 20 -1 3 -22
-109 -137 l-132 -137 6 -51 c11 -82 18 -126 20 -126 6 0 115 44 137 55 32 17
51 69 98 260 25 104 30 117 39 95 103 -261 136 -321 183 -336 19 -6 55 -14 80
-17 l46 -6 8 71 c9 91 6 95 -164 223 l-134 100 64 6 c35 4 102 7 149 8 141 2
159 11 226 115 14 21 24 39 22 40 -9 5 -87 40 -114 52 -28 12 -36 10 -90 -16
-32 -16 -106 -60 -164 -98 -58 -39 -106 -70 -107 -69 -1 1 12 49 28 107 41
147 62 256 52 273 -4 8 -29 37 -55 66 l-46 51 -52 -62z"/>
<path d="M7507 1583 c-4 -3 -7 -307 -7 -675 l0 -668 794 0 794 0 49 36 c26 20
77 64 113 98 36 33 106 97 155 141 114 101 241 234 280 293 24 37 30 57 30
102 0 104 -84 208 -372 459 -206 180 -236 202 -286 212 -50 10 -1541 12 -1550
2z m1600 -38 c38 -24 307 -260 416 -364 43 -42 98 -105 123 -142 84 -122 70
-188 -73 -339 -86 -92 -397 -373 -457 -414 l-39 -26 -778 0 -779 0 0 649 c0
472 3 650 11 653 6 2 356 4 778 3 749 0 767 0 798 -20z"/>
<path d="M8248 1345 c-40 -43 -48 -58 -48 -91 0 -42 28 -168 61 -273 10 -35
17 -66 15 -68 -2 -3 -53 27 -113 65 -59 38 -132 81 -161 96 l-54 27 -69 -32
c-38 -18 -69 -35 -69 -37 0 -17 66 -116 86 -129 18 -12 67 -18 196 -24 94 -5
173 -11 175 -13 2 -2 -30 -37 -72 -77 -42 -41 -98 -102 -126 -135 -54 -68 -59
-91 -37 -183 11 -49 21 -61 32 -42 3 5 28 14 56 21 79 19 95 50 154 290 l31
125 186 11 c101 6 195 16 206 23 18 9 93 117 93 133 0 3 -31 19 -69 37 l-70
32 -60 -31 c-34 -16 -106 -60 -162 -96 -56 -36 -103 -63 -105 -61 -2 2 11 61
31 131 19 70 37 150 41 177 7 55 -3 78 -65 140 l-36 36 -47 -52z"/>
</g>
</svg>
