<?xml version="1.0" standalone="no"?>
<!DOCTYPE svg PUBLIC "-//W3C//DTD SVG 20010904//EN"
 "http://www.w3.org/TR/2001/REC-SVG-20010904/DTD/svg10.dtd">
<svg version="1.0" xmlns="http://www.w3.org/2000/svg"
 width="900.000000pt" height="922.000000pt" viewBox="0 0 900.000000 922.000000"
 preserveAspectRatio="xMidYMid meet">
<metadata>
Created by potrace 1.16, written by Peter Selinger 2001-2019
</metadata>
<g transform="translate(0.000000,922.000000) scale(0.100000,-0.100000)"
fill="#FFFFFF" stroke="none">
<path d="M217 8858 c-9 -194 -9 -3886 -1 -4065 l7 -143 3386 3 3386 2 3 2173
2 2172 -3389 0 -3388 0 -6 -142z m161 25 l-3 -96 -67 -4 -68 -5 0 101 0 101
70 0 71 0 -3 -97z m402 2 l0 -95 -190 0 -190 0 0 95 0 95 190 0 190 0 0 -95z
m400 0 l0 -95 -190 0 -190 0 0 95 0 95 190 0 190 0 0 -95z m398 -2 c-2 -54 -6
-97 -10 -95 -5 1 -89 2 -188 2 l-180 0 0 95 0 95 190 0 191 0 -3 -97z m402 2
l0 -95 -190 0 -190 0 0 95 0 95 190 0 190 0 0 -95z m400 0 l0 -95 -190 0 -190
0 0 95 0 95 190 0 190 0 0 -95z m400 0 l0 -95 -190 0 -190 0 0 95 0 95 190 0
190 0 0 -95z m400 0 l0 -95 -190 0 -190 0 0 95 0 95 190 0 190 0 0 -95z m400
0 l0 -95 -190 0 -190 0 0 95 0 95 190 0 190 0 0 -95z m410 0 l0 -95 -195 0
-195 0 0 95 0 95 195 0 195 0 0 -95z m400 0 l0 -95 -190 0 -190 0 0 95 0 95
190 0 190 0 0 -95z m400 0 l0 -95 -190 0 -190 0 0 95 0 95 190 0 190 0 0 -95z
m400 0 l0 -95 -190 0 -190 0 0 95 0 95 190 0 190 0 0 -95z m400 0 l0 -95 -190
0 -190 0 0 95 0 95 190 0 190 0 0 -95z m410 0 l0 -95 -190 0 -190 0 0 95 0 95
190 0 190 0 0 -95z m398 -2 c-2 -54 -6 -97 -10 -95 -5 1 -89 2 -188 2 l-180 0
0 95 0 95 190 0 191 0 -3 -97z m402 3 c0 -52 -3 -97 -7 -99 -5 -2 -90 -2 -190
1 l-183 4 0 94 0 94 190 0 190 0 0 -94z m180 -1 l0 -95 -80 0 -80 0 0 95 0 95
80 0 80 0 0 -95z m-5974 -125 l174 0 -2 -187 -3 -188 -160 -1 c-88 -1 -172 1
-187 3 l-28 6 0 189 c0 169 2 189 16 184 9 -3 94 -6 190 -6z m405 0 l169 0 -2
-187 -3 -188 -185 0 -185 0 -3 180 c-1 98 0 186 3 193 3 8 12 11 21 8 9 -3 92
-6 185 -6z m402 0 l167 0 -2 -187 -3 -188 -185 0 -185 0 -3 194 -2 193 22 -6
c13 -3 98 -6 191 -6z m398 0 l169 0 -2 -187 -3 -188 -185 0 -185 0 -3 180 c-1
98 0 186 3 193 3 8 12 11 21 8 9 -3 92 -6 185 -6z m402 0 l167 0 0 -191 0
-190 -187 3 -188 3 -3 194 -2 193 22 -6 c13 -3 98 -6 191 -6z m-2235 -187 l-3
-188 -70 0 -70 0 0 43 c1 23 2 107 3 187 l2 145 70 0 70 0 -2 -187z m400 0
l-3 -188 -187 -3 -188 -2 0 190 0 190 190 0 190 0 -2 -187z m2402 -4 l0 -190
-187 3 -188 3 -3 188 -2 187 190 0 190 0 0 -191z m400 1 l0 -190 -187 2 -188
3 -3 188 -2 187 190 0 190 0 0 -190z m408 3 l-3 -188 -190 0 -190 0 -3 188 -2
187 195 0 195 0 -2 -187z m400 0 l-3 -188 -145 -3 c-80 -2 -164 0 -187 3 l-43
6 0 185 0 184 190 0 190 0 -2 -187z m402 -3 l0 -190 -159 0 c-87 0 -173 3
-190 6 l-31 7 0 183 0 184 190 0 190 0 0 -190z m400 0 l0 -191 -152 1 c-84 1
-170 4 -190 7 l-38 6 0 183 0 184 190 0 190 0 0 -190z m400 0 l0 -190 -159 0
c-87 0 -173 3 -190 6 l-31 7 0 183 0 184 190 0 190 0 0 -190z m406 98 c-3 -50
-6 -136 -6 -190 l0 -99 -184 2 -184 1 -5 32 c-3 17 -2 102 1 189 l5 157 190 0
190 0 -7 -92z m402 -95 l-3 -188 -160 -1 c-88 -1 -172 1 -187 3 l-28 6 0 183
0 184 190 0 190 0 -2 -187z m400 0 l-3 -188 -155 -3 c-85 -2 -170 0 -187 3
l-33 6 0 184 0 185 190 0 190 0 -2 -187z m182 -3 l0 -190 -80 0 -80 0 0 190 0
190 80 0 80 0 0 -190z m-5800 -400 l0 -190 -190 0 -190 0 0 193 0 192 190 -3
190 -3 0 -189z m231 190 l169 0 0 -190 0 -190 -190 0 -190 0 0 188 c0 104 3
192 7 196 4 3 13 4 21 1 7 -3 90 -5 183 -5z m-1033 -187 l-3 -188 -70 0 -70 0
1 38 c0 20 1 105 2 187 l2 150 70 0 71 0 -3 -187z m400 0 l-3 -188 -187 -3
-188 -2 0 190 0 190 190 0 190 0 -2 -187z m1202 -3 l0 -190 -190 0 -190 0 0
190 0 190 190 0 190 0 0 -190z m400 0 l0 -190 -190 0 -190 0 0 190 0 190 190
0 190 0 0 -190z m400 0 l0 -190 -190 0 -190 0 0 190 0 190 190 0 190 0 0 -190z
m400 0 l0 -190 -190 0 -190 0 0 190 0 190 190 0 190 0 0 -190z m400 0 l0 -190
-187 2 -188 3 -3 188 -2 187 190 0 190 0 0 -190z m406 3 l-1 -188 -190 0 -190
0 -3 188 -2 187 193 0 194 0 -1 -187z m404 -3 l0 -190 -190 0 -190 0 0 190 0
190 190 0 190 0 0 -190z m400 0 l0 -190 -190 0 -190 0 0 190 0 190 190 0 190
0 0 -190z m400 0 l0 -190 -187 2 -188 3 -3 188 -2 187 190 0 190 0 0 -190z
m400 0 l0 -190 -187 2 -188 3 -3 188 -2 187 190 0 190 0 0 -190z m400 0 l0
-190 -184 0 -185 0 -6 43 c-3 23 -4 101 -1 172 3 72 5 138 6 148 0 16 16 17
185 17 l185 0 0 -190z m408 3 l-3 -188 -187 -3 -188 -2 0 190 0 190 190 0 190
0 -2 -187z m402 -3 l0 -190 -190 0 -190 0 0 190 0 190 190 0 190 0 0 -190z
m180 0 l0 -190 -80 0 -80 0 0 190 0 190 80 0 80 0 0 -190z m-6603 -397 l-2
-188 -74 -3 -74 -3 6 83 c4 46 7 131 7 191 l0 107 70 0 70 0 -3 -187z m401 0
l-3 -188 -187 -3 -188 -2 0 190 0 190 190 0 190 0 -2 -187z m402 -3 l0 -190
-190 0 -190 0 0 190 0 190 190 0 190 0 0 -190z m400 0 l0 -190 -190 0 -190 0
0 190 0 190 190 0 190 0 0 -190z m400 0 l0 -190 -190 0 -190 0 0 190 0 190
190 0 190 0 0 -190z m400 0 l0 -190 -190 0 -190 0 0 190 0 190 190 0 190 0 0
-190z m400 0 l0 -190 -190 0 -190 0 0 190 0 190 190 0 190 0 0 -190z m400 0
l0 -190 -190 0 -190 0 0 190 0 190 190 0 190 0 0 -190z m400 0 l0 -190 -187 2
-188 3 -3 188 -2 187 190 0 190 0 0 -190z m408 3 l-3 -188 -186 -3 -186 -2 -7
37 c-8 49 -8 306 0 327 5 14 32 16 195 16 l189 0 -2 -187z m400 0 l-3 -188
-187 -3 -188 -2 0 190 0 190 190 0 190 0 -2 -187z m402 -3 l0 -190 -187 2
-188 3 -3 188 -2 187 190 0 190 0 0 -190z m400 0 l0 -190 -187 2 -188 3 -3
188 -2 187 190 0 190 0 0 -190z m400 0 l0 -190 -187 2 -188 3 -3 188 -2 187
190 0 190 0 0 -190z m400 0 l0 -190 -184 0 -184 0 -7 27 c-3 14 -3 100 1 190
l7 163 183 0 184 0 0 -190z m408 3 l-3 -188 -187 -3 -188 -2 0 190 0 190 190
0 190 0 -2 -187z m402 -3 l0 -190 -190 0 -190 0 0 190 0 190 190 0 190 0 0
-190z m180 0 l0 -190 -80 0 -80 0 0 190 0 190 80 0 80 0 0 -190z m-6605 -242
c3 -18 5 -103 3 -188 l-3 -155 -70 0 -70 0 0 53 c1 28 2 113 3 187 l2 135 65
0 64 0 6 -32z m403 -155 l-3 -188 -187 -3 -188 -2 0 190 0 190 190 0 190 0 -2
-187z m402 -3 l0 -190 -190 0 -190 0 0 190 0 190 190 0 190 0 0 -190z m400 0
l0 -190 -190 0 -190 0 0 190 0 190 190 0 190 0 0 -190z m400 0 l0 -190 -190 0
-190 0 0 190 0 190 190 0 190 0 0 -190z m400 0 l0 -190 -190 0 -190 0 0 190 0
190 190 0 190 0 0 -190z m400 0 l0 -190 -190 0 -190 0 0 190 0 190 190 0 190
0 0 -190z m400 0 l0 -190 -190 0 -190 0 0 190 0 190 190 0 190 0 0 -190z m400
0 l0 -190 -187 2 -188 3 -3 188 -2 187 190 0 190 0 0 -190z m408 3 l-3 -188
-190 0 -190 0 -3 165 c-1 91 0 175 3 188 5 22 7 22 195 22 l190 0 -2 -187z
m400 0 l-3 -188 -187 -3 -188 -2 0 190 0 190 190 0 190 0 -2 -187z m402 -3 l0
-190 -187 2 -188 3 -3 188 -2 187 190 0 190 0 0 -190z m400 0 l0 -190 -187 2
-188 3 -3 188 -2 187 190 0 190 0 0 -190z m400 0 l0 -190 -187 2 -188 3 -3
188 -2 187 190 0 190 0 0 -190z m400 0 l0 -190 -187 2 -188 3 0 165 c0 91 2
175 4 188 3 22 4 22 187 22 l184 0 0 -190z m408 3 l-3 -188 -187 -3 -188 -2 0
190 0 190 190 0 190 0 -2 -187z m402 -3 l0 -190 -190 0 -190 0 0 190 0 190
190 0 190 0 0 -190z m180 0 l0 -190 -80 0 -80 0 0 190 0 190 80 0 80 0 0 -190z
m-6602 -397 l-3 -188 -70 0 c-70 0 -70 0 -69 28 0 15 1 99 2 187 l2 160 70 0
70 0 -2 -187z m400 0 l-3 -188 -187 -3 -188 -2 0 190 0 190 190 0 190 0 -2
-187z m402 -3 l0 -190 -190 0 -190 0 0 190 0 190 190 0 190 0 0 -190z m400 0
l0 -190 -190 0 -190 0 0 190 0 190 190 0 190 0 0 -190z m398 3 l-3 -188 -187
-3 -188 -2 0 190 0 190 190 0 190 0 -2 -187z m402 -3 l0 -190 -190 0 -190 0 0
190 0 190 190 0 190 0 0 -190z m400 0 l0 -190 -190 0 -190 0 0 190 0 190 190
0 190 0 0 -190z m400 0 l0 -190 -187 2 -188 3 -3 188 -2 187 190 0 190 0 0
-190z m400 0 l0 -190 -187 2 -188 3 -3 188 -2 187 190 0 190 0 0 -190z m408 3
l-3 -188 -190 0 -190 0 -3 175 c-1 96 0 180 2 187 4 10 50 13 196 13 l190 0
-2 -187z m402 -3 l0 -190 -190 0 -190 0 0 190 0 190 190 0 190 0 0 -190z m400
0 l0 -190 -190 0 -190 0 0 190 0 190 190 0 190 0 0 -190z m400 0 l0 -190 -187
2 -188 3 -3 188 -2 187 190 0 190 0 0 -190z m400 0 l0 -190 -187 2 -188 3 -3
188 -2 187 190 0 190 0 0 -190z m400 0 l0 -190 -187 2 -188 3 0 165 c0 91 1
175 3 188 4 22 5 22 188 22 l184 0 0 -190z m408 3 l-3 -188 -187 -3 -188 -2 0
190 0 190 190 0 190 0 -2 -187z m402 -3 l0 -190 -190 0 -190 0 0 190 0 190
190 0 190 0 0 -190z m180 0 l0 -190 -80 0 -80 0 0 190 0 190 80 0 80 0 0 -190z
m-6602 -397 l-3 -188 -74 -3 -74 -3 6 77 c4 42 7 128 7 191 l0 113 70 0 70 0
-2 -187z m400 0 l-3 -188 -187 -3 -188 -2 0 190 0 190 190 0 190 0 -2 -187z
m402 -3 l0 -190 -190 0 -190 0 0 190 0 190 190 0 190 0 0 -190z m400 0 l0
-190 -190 0 -190 0 0 190 0 190 190 0 190 0 0 -190z m400 0 l0 -190 -190 0
-190 0 0 190 0 190 190 0 190 0 0 -190z m400 0 l0 -190 -190 0 -190 0 0 190 0
190 190 0 190 0 0 -190z m400 0 l0 -190 -190 0 -190 0 0 190 0 190 190 0 190
0 0 -190z m400 0 l0 -190 -190 0 -190 0 0 190 0 190 190 0 190 0 0 -190z m400
0 l0 -190 -190 0 -190 0 0 190 0 190 190 0 190 0 0 -190z m408 3 l-3 -188
-190 0 -190 0 -3 165 c-1 91 0 175 3 188 5 22 7 22 195 22 l190 0 -2 -187z
m400 100 l-3 -88 -127 -3 -128 -3 0 -99 0 -100 -60 0 -60 0 0 190 0 190 190 0
191 0 -3 -87z m402 -3 l0 -90 -190 0 -190 0 0 90 0 90 190 0 190 0 0 -90z
m400 0 l0 -90 -187 2 -188 3 -3 88 -3 87 191 0 190 0 0 -90z m400 0 l0 -90
-184 0 -184 0 -6 26 c-4 15 -6 55 -5 90 l2 64 189 0 188 0 0 -90z m404 74 c8
-20 8 -88 0 -134 l-6 -35 -184 3 -184 3 0 89 0 90 184 0 c158 0 185 -2 190
-16z m406 -174 l0 -190 -99 0 -99 0 -91 76 -91 76 0 114 0 114 190 0 190 0 0
-190z m400 0 l0 -190 -190 0 -190 0 0 190 0 190 190 0 190 0 0 -190z m180 0
l0 -190 -80 0 -80 0 0 190 0 190 80 0 80 0 0 -190z m-990 -25 c0 -8 24 -34 53
-57 133 -106 234 -197 394 -354 136 -134 177 -181 201 -229 43 -88 45 -104 18
-160 -53 -112 -190 -259 -455 -489 -94 -82 -182 -163 -196 -179 l-24 -31 -723
1 c-398 1 -810 2 -915 2 l-193 1 0 755 0 755 920 0 c807 0 920 -2 920 -15z
m-5616 -202 c3 -10 4 -94 3 -188 l-3 -170 -70 0 -69 0 0 43 c1 23 2 107 3 187
l2 145 64 0 c53 0 66 -3 70 -17z m406 -173 l0 -190 -190 0 -190 0 0 190 0 190
190 0 190 0 0 -190z m400 0 l0 -190 -190 0 -190 0 0 190 0 190 190 0 190 0 0
-190z m400 0 l0 -190 -190 0 -190 0 0 190 0 190 190 0 190 0 0 -190z m400 0
l0 -190 -190 0 -190 0 0 190 0 190 190 0 190 0 0 -190z m400 0 l0 -190 -190 0
-190 0 0 190 0 190 190 0 190 0 0 -190z m400 0 l0 -190 -190 0 -190 0 0 190 0
190 190 0 190 0 0 -190z m400 0 l0 -190 -190 0 -190 0 0 190 0 190 190 0 190
0 0 -190z m400 0 l0 -190 -190 0 -190 0 0 190 0 190 190 0 190 0 0 -190z m410
13 c0 -98 -4 -184 -8 -191 -7 -9 -52 -12 -193 -10 l-184 3 -3 174 c-2 95 -1
180 2 187 4 11 44 14 196 14 l190 0 0 -177z m140 -13 l0 -190 -59 0 -60 0 -3
173 c-2 94 -1 180 1 190 3 14 14 17 62 17 l59 0 0 -190z m2270 109 l0 -81 -85
77 c-47 43 -85 79 -85 81 0 2 38 4 85 4 l85 0 0 -81z m400 -109 l0 -190 -90 0
-90 0 -100 103 -99 102 -1 88 0 87 190 0 190 0 0 -190z m180 0 l0 -190 -80 0
-80 0 0 190 0 190 80 0 80 0 0 -190z m-6600 -400 l0 -190 -70 0 -70 0 0 190 0
190 70 0 70 0 0 -190z m400 0 l0 -190 -190 0 -190 0 0 190 0 190 190 0 190 0
0 -190z m400 0 l0 -190 -190 0 -190 0 0 190 0 190 190 0 190 0 0 -190z m400 0
l0 -190 -190 0 -190 0 0 190 0 190 190 0 190 0 0 -190z m400 0 l0 -190 -190 0
-190 0 0 190 0 190 190 0 190 0 0 -190z m400 0 l0 -190 -190 0 -190 0 0 190 0
190 190 0 190 0 0 -190z m400 0 l0 -190 -190 0 -190 0 0 190 0 190 190 0 190
0 0 -190z m400 0 l0 -190 -190 0 -190 0 0 190 0 190 190 0 190 0 0 -190z m400
0 l0 -190 -190 0 -190 0 0 190 0 190 190 0 190 0 0 -190z m408 40 c2 -80 0
-164 -3 -188 l-6 -42 -187 2 -187 3 -3 175 c-1 96 0 180 3 187 3 11 45 13 192
11 l188 -3 3 -145z m142 -40 l0 -190 -60 0 -60 0 0 190 0 190 60 0 60 0 0
-190z m2670 0 l0 -190 -116 0 c-129 0 -123 -6 -66 64 39 49 72 123 72 165 0
24 -11 61 -29 95 l-30 56 85 0 84 0 0 -190z m180 0 l0 -190 -80 0 -80 0 0 190
0 190 80 0 80 0 0 -190z m-6605 -402 l0 -188 -67 0 -68 0 0 190 0 191 68 -3
67 -3 0 -187z m405 2 l0 -190 -190 0 -190 0 0 190 0 190 190 0 190 0 0 -190z
m400 0 l0 -190 -190 0 -190 0 0 190 0 190 190 0 190 0 0 -190z m400 0 l0 -190
-190 0 -190 0 0 190 0 190 190 0 190 0 0 -190z m400 0 l0 -190 -190 0 -190 0
0 190 0 190 190 0 190 0 0 -190z m400 0 l0 -190 -190 0 -190 0 0 190 0 190
190 0 190 0 0 -190z m400 0 l0 -190 -190 0 -190 0 0 190 0 190 190 0 190 0 0
-190z m400 0 l0 -190 -190 0 -190 0 0 190 0 190 190 0 190 0 0 -190z m400 0
l0 -190 -190 0 -190 0 0 190 0 190 190 0 190 0 0 -190z m408 30 c2 -85 0 -170
-3 -187 l-6 -33 -189 0 -190 0 0 174 c0 96 3 182 6 190 6 14 29 16 193 14
l186 -3 3 -155z m142 -30 l0 -190 -60 0 -60 0 0 190 0 190 60 0 60 0 0 -190z
m2670 0 l0 -190 -190 0 -190 0 0 122 0 122 67 68 67 68 123 0 123 0 0 -190z
m180 0 l0 -190 -80 0 -80 0 0 190 0 190 80 0 80 0 0 -190z m-580 -80 l0 -110
-130 0 -130 0 78 67 c42 37 99 86 126 110 26 24 50 43 52 43 2 0 4 -49 4 -110z
m-6028 -142 c1 -7 2 -93 3 -190 2 -199 8 -185 -81 -180 l-54 4 0 189 0 189 65
0 c44 0 66 -4 67 -12z m406 -180 l2 -188 -190 0 -190 0 0 190 0 190 188 -2
187 -3 3 -187z m400 0 c2 -167 1 -187 -14 -190 -9 -2 -95 -2 -190 0 l-174 3 0
190 0 189 188 -2 187 -3 3 -187z m400 0 l2 -188 -190 0 -190 0 0 190 0 190
188 -2 187 -3 3 -187z m402 3 c0 -172 -2 -189 -17 -192 -10 -2 -96 -3 -190 -1
l-173 3 0 189 0 190 190 0 190 0 0 -189z m400 -1 l0 -190 -190 0 -190 0 0 190
0 190 190 0 190 0 0 -190z m400 0 l0 -190 -190 0 -190 0 0 190 0 190 190 0
190 0 0 -190z m400 0 l0 -190 -190 0 -190 0 0 190 0 190 190 0 190 0 0 -190z
m400 0 l0 -190 -190 0 -190 0 0 190 0 190 190 0 190 0 0 -190z m403 170 c8
-30 9 -324 1 -343 -5 -15 -27 -17 -195 -17 l-189 0 0 174 c0 96 3 181 6 190 5
14 31 16 189 16 174 0 183 -1 188 -20z m149 -47 l3 -68 35 -1 c19 0 77 -1 128
-2 l92 -2 0 -120 0 -120 -190 0 -190 0 0 190 0 190 60 0 59 0 3 -67z m2266
-125 l2 -188 -190 0 -190 0 0 142 0 142 47 48 48 49 140 -3 140 -3 3 -187z
m400 0 l2 -188 -190 0 -190 0 0 190 0 190 188 -2 187 -3 3 -187z m182 3 c0
-123 -4 -192 -11 -196 -5 -4 -41 -4 -80 0 l-69 7 0 189 0 189 80 0 80 0 0
-189z m-1944 49 l154 0 0 -120 0 -120 -190 0 -190 0 0 118 c0 65 3 122 7 126
5 4 21 5 37 2 16 -3 98 -6 182 -6z m407 0 l147 0 0 -120 0 -120 -184 0 c-182
0 -184 0 -190 23 -8 32 -7 212 2 221 4 4 23 5 42 2 19 -3 101 -6 183 -6z m549
-118 l3 -122 -187 0 -188 0 0 123 0 122 184 0 185 0 3 -123z m-1202 -2 l0
-120 -190 0 -190 0 0 120 0 120 190 0 190 0 0 -120z m-4415 -185 l0 -40 -67
-3 -68 -3 0 46 0 46 68 -3 67 -3 0 -40z m403 -3 l3 -42 -190 0 -191 0 0 45 0
46 188 -4 187 -3 3 -42z m400 1 l3 -43 -190 0 -191 0 0 45 0 45 188 -2 187 -3
3 -42z m400 0 l3 -43 -190 0 -191 0 0 45 0 45 188 -2 187 -3 3 -42z m400 0 l3
-43 -190 0 -191 0 0 46 0 45 188 -3 187 -3 3 -42z m400 0 l3 -43 -190 0 -191
0 0 45 0 45 188 -2 187 -3 3 -42z m390 37 c7 0 12 -15 12 -40 l0 -40 -190 0
-190 0 0 43 0 44 178 -3 c97 -2 183 -3 190 -4z m412 -35 l0 -45 -187 2 -188 3
-3 43 -3 42 190 0 191 0 0 -45z m400 0 l0 -45 -187 2 -188 3 -3 28 c-7 57 -8
57 193 57 l185 0 0 -45z m405 0 l0 -40 -189 0 -189 1 -3 24 c-6 62 -10 61 194
58 l187 -3 0 -40z m403 3 l-3 -43 -187 -3 -188 -2 0 45 0 45 191 0 190 0 -3
-42z m400 0 l-3 -43 -187 0 -188 0 0 42 0 43 191 0 190 0 -3 -42z m402 -6 l0
-42 -187 2 -188 3 -3 28 c-6 52 -7 52 192 52 l186 0 0 -43z m406 11 c3 -17 3
-36 -1 -42 -4 -7 -71 -11 -189 -11 l-184 0 -5 26 c-11 62 -13 61 189 60 l184
-1 6 -32z m399 -9 l0 -39 -187 -3 -188 -2 0 42 0 43 187 -1 188 -2 0 -38z
m405 3 l0 -42 -190 0 -190 0 0 43 0 42 190 0 190 0 0 -43z m400 -2 l0 -45
-190 0 -190 0 0 45 0 45 190 0 190 0 0 -45z m180 0 l0 -45 -80 0 -80 0 0 45 0
45 80 0 80 0 0 -45z"/>
<path d="M7417 7243 c-8 -13 -227 -590 -227 -597 0 -4 19 -6 41 -4 l42 3 32
85 32 85 129 3 129 3 34 -91 33 -90 48 0 48 0 -93 228 c-51 125 -107 262 -125
305 l-33 77 -43 0 c-23 0 -45 -3 -47 -7z m97 -208 c25 -71 46 -133 46 -137 0
-4 -43 -8 -95 -8 -52 0 -95 3 -95 7 0 12 93 274 96 271 1 -2 23 -62 48 -133z"/>
<path d="M7834 6940 c-24 -9 -54 -47 -54 -67 0 -22 27 -14 44 13 14 19 24 24
48 22 63 -6 63 -59 0 -87 -37 -17 -42 -31 -9 -31 36 0 67 -27 67 -59 0 -62
-73 -83 -110 -31 -13 18 -26 27 -35 23 -21 -7 -19 -17 11 -52 22 -27 32 -31
72 -31 26 0 54 6 63 13 42 32 51 98 18 133 -20 21 -20 23 -4 48 31 46 1 96
-65 110 -14 3 -35 1 -46 -4z"/>
<path d="M1000 4349 c-62 -49 -61 -80 3 -54 15 6 17 -1 17 -84 0 -90 0 -91 25
-91 l25 0 0 135 c0 74 -4 135 -9 135 -5 0 -32 -18 -61 -41z"/>
<path d="M3951 4354 c-12 -15 -21 -33 -21 -40 0 -21 38 -17 52 6 15 23 56 27
64 6 8 -20 -9 -47 -71 -117 -30 -34 -55 -68 -55 -75 0 -11 20 -14 91 -14 88 0
90 1 87 23 -3 19 -9 22 -50 21 -27 0 -48 2 -48 5 0 3 20 26 45 51 56 57 68
103 35 138 -31 33 -101 31 -129 -4z"/>
<path d="M7082 4357 c-42 -45 -20 -62 37 -30 21 13 33 15 41 7 14 -14 3 -42
-21 -49 -27 -9 -23 -32 8 -47 31 -15 41 -42 23 -63 -17 -21 -44 -19 -65 5 -22
24 -34 25 -42 4 -3 -8 4 -25 17 -40 32 -33 92 -33 125 1 31 30 32 64 4 100
-17 21 -19 29 -9 35 20 12 16 71 -5 86 -30 22 -88 17 -113 -9z"/>
<path d="M217 3918 c-4 -73 -6 -422 -6 -775 l2 -643 426 -1 c234 0 570 0 746
0 176 1 400 1 498 1 l179 0 61 58 c34 32 116 105 182 162 66 58 183 168 261
245 117 117 147 154 178 216 42 83 42 108 1 189 -49 97 -273 320 -588 585 -93
79 -100 82 -159 89 -33 3 -447 6 -918 6 l-857 0 -6 -132z m253 22 l0 -90 -115
0 -115 0 0 90 0 90 115 0 115 0 0 -90z m400 0 l0 -90 -190 0 -190 0 0 83 c0
46 3 87 7 90 3 4 89 7 190 7 l183 0 0 -90z m405 0 l0 -85 -187 -3 -186 -2 -7
40 c-4 22 -4 63 0 90 l7 50 186 -2 187 -3 0 -85z m403 -2 l3 -88 -191 0 -190
0 0 90 0 90 188 -2 187 -3 3 -87z m386 73 c12 -10 16 -31 16 -87 l0 -74 -190
0 -190 0 0 91 0 91 174 -4 c127 -2 178 -7 190 -17z m184 -160 c1 -3 -32 -5
-73 -3 l-75 4 0 65 0 65 73 -63 c39 -34 73 -65 75 -68z m-1778 -217 l0 -197
-61 7 c-34 3 -86 6 -115 6 l-54 0 0 190 0 190 115 0 115 0 0 -196z m400 4 l0
-193 -32 2 c-18 1 -104 2 -190 2 l-158 1 0 183 c0 101 3 187 7 190 3 4 89 7
190 7 l183 0 0 -192z m404 177 c3 -8 3 -95 -1 -192 l-6 -178 -181 3 c-99 2
-183 6 -186 9 -4 4 -4 87 0 351 l0 22 184 0 c154 0 185 -2 190 -15z m404 -174
c1 -102 -1 -188 -5 -192 -5 -3 -90 -4 -190 -1 l-183 5 0 189 0 188 188 -2 187
-3 3 -184z m400 0 c1 -102 -2 -189 -7 -194 -5 -5 -84 -6 -190 -1 l-181 7 0
189 0 188 188 -2 187 -3 3 -184z m301 98 l102 -92 -3 -101 -3 -101 -75 -3
c-41 -2 -126 0 -187 3 l-113 7 0 189 0 189 89 0 89 0 101 -91z m290 -292 c-2
-2 -41 -1 -86 1 l-83 4 0 88 0 87 87 -88 c47 -49 85 -90 82 -92z m-1799 -212
l0 -185 -190 0 -190 0 0 183 c0 101 2 186 4 188 2 2 88 3 190 1 l186 -3 0
-184z m408 181 c1 -2 -1 -84 -5 -184 l-6 -182 -182 0 -183 0 -5 27 c-3 14 -2
99 0 187 l6 161 186 -4 c102 -1 187 -4 189 -5z m243 4 l159 0 0 -185 0 -185
-190 0 -190 0 0 191 0 192 31 -7 c17 -3 103 -6 190 -6z m407 0 l152 0 0 -185
0 -185 -190 0 -190 0 0 191 0 192 38 -7 c20 -3 106 -6 190 -6z m550 -185 l2
-185 -190 0 -190 0 0 188 0 187 187 -3 188 -2 3 -185z m242 142 c45 -78 47
-109 11 -181 -17 -33 -48 -81 -69 -106 -38 -43 -41 -44 -100 -45 l-62 -1 0
194 0 193 96 -2 96 -3 28 -49z m-2250 -142 l0 -185 -115 0 -115 0 0 185 0 185
115 0 115 0 0 -185z m1610 -406 l0 -189 -190 0 -190 1 0 188 c0 103 2 190 4
192 2 2 88 3 190 1 l186 -3 0 -190z m231 191 l169 0 0 -60 0 -59 -105 -95
c-174 -157 -187 -166 -234 -166 l-41 0 0 188 c0 104 3 192 7 196 4 3 13 4 21
1 7 -3 90 -5 183 -5z m279 0 c0 -13 -70 -90 -81 -90 -5 0 -9 23 -9 50 l0 50
45 0 c25 0 45 -4 45 -10z m-2120 -190 l0 -190 -115 0 -115 0 0 190 0 190 115
0 115 0 0 -190z m400 1 l0 -190 -187 4 -188 3 -3 186 -2 186 190 0 190 0 0
-189z m406 2 l-3 -188 -186 0 -187 0 0 188 0 187 189 0 190 0 -3 -187z m402 0
l-3 -188 -187 -1 -188 -2 0 189 0 189 190 0 190 0 -2 -187z m-1208 -263 l0
-50 -115 0 -115 0 0 50 0 50 115 0 115 0 0 -50z m400 0 l0 -50 -184 0 c-205 0
-200 -2 -194 69 l2 31 188 0 188 0 0 -50z m410 0 l0 -50 -190 0 -190 0 0 50 0
50 190 0 190 0 0 -50z m400 0 l0 -50 -190 0 -190 0 0 50 0 50 190 0 190 0 0
-50z m400 10 c0 -29 -5 -42 -19 -50 -12 -6 -92 -10 -190 -10 l-171 0 0 50 0
50 190 0 190 0 0 -40z m60 15 c-13 -14 -27 -25 -32 -25 -4 0 -8 11 -8 25 0 21
5 25 32 25 l31 0 -23 -25z"/>
<path d="M3220 3276 l0 -774 73 -7 c39 -3 450 -5 912 -3 965 3 844 -11 980
117 45 42 145 132 224 200 211 182 356 360 368 450 5 34 0 54 -28 109 -27 54
-64 97 -189 223 -155 155 -438 405 -495 437 -27 16 -111 17 -937 20 l-908 3 0
-775z m1821 740 c38 -13 152 -107 383 -316 226 -203 336 -343 336 -425 0 -93
-174 -298 -450 -530 -58 -49 -132 -114 -165 -145 -33 -31 -71 -62 -84 -69 -18
-10 -215 -13 -920 -12 l-896 1 -3 755 -2 755 882 0 c697 -1 891 -4 919 -14z"/>
<path d="M6220 3277 l0 -774 909 -7 c715 -6 914 -5 932 5 28 15 335 287 467
414 105 101 202 216 233 278 16 31 20 53 17 93 -9 107 -109 227 -403 487 -93
82 -201 177 -240 211 l-69 61 -923 3 -923 3 0 -774z m260 663 l0 -90 -120 0
-120 0 0 90 0 90 120 0 120 0 0 -90z m400 0 l0 -90 -190 0 -190 0 0 90 0 90
190 0 190 0 0 -90z m400 0 l0 -90 -190 0 -190 0 0 90 0 90 190 0 190 0 0 -90z
m400 0 l0 -90 -190 0 -190 0 0 90 0 90 190 0 190 0 0 -90z m363 84 l37 -7 0
-83 0 -84 -190 0 -190 0 0 90 0 90 153 0 c83 0 169 -3 190 -6z m167 -134 c45
-42 50 -50 30 -46 -14 3 -51 6 -82 6 l-58 0 0 66 0 65 28 -19 c15 -11 52 -43
82 -72z m-1732 -249 c1 -102 -1 -188 -6 -193 -4 -4 -58 -5 -120 -1 l-112 6 0
189 0 189 118 -3 117 -3 3 -184z m397 -5 l0 -190 -30 1 c-16 0 -101 1 -187 2
l-158 1 0 190 0 190 188 -2 187 -3 0 -189z m400 -1 l0 -190 -30 1 c-16 0 -101
1 -187 2 l-158 2 0 190 0 190 188 -2 187 -3 0 -190z m405 6 c0 -105 -3 -192
-7 -194 -5 -2 -90 -2 -190 1 l-183 4 0 189 0 189 190 0 190 0 0 -189z m400 80
l0 -110 -57 -43 c-53 -40 -58 -47 -61 -87 l-3 -44 -97 6 c-53 4 -112 7 -129 7
l-33 0 0 190 0 190 190 0 190 0 0 -109z m226 88 c19 -11 34 -24 33 -27 0 -7
-207 -143 -227 -150 -9 -3 -12 23 -12 91 0 51 3 97 7 100 3 4 42 7 86 7 63 0
87 -4 113 -21z m307 -289 c91 -96 147 -189 147 -247 0 -98 -123 -239 -508
-583 -192 -171 -187 -167 -222 -170 -68 -6 -610 1 -609 8 0 4 48 50 106 102
59 52 147 134 197 181 50 47 132 123 181 168 134 124 127 102 99 321 -13 102
-23 193 -22 202 2 11 80 69 188 141 l185 124 87 -79 c47 -43 124 -119 171
-168z m-2138 -287 l0 -188 -115 0 -115 0 -3 184 c-1 106 1 187 7 190 5 3 58 5
118 4 l108 -2 0 -188z m403 5 c1 -102 -2 -186 -7 -191 -5 -5 -82 -6 -190 -2
l-181 8 0 186 0 187 188 -3 187 -4 3 -181z m400 0 c1 -102 -2 -186 -7 -191 -5
-5 -82 -6 -190 -2 l-181 8 0 186 0 186 187 -3 188 -2 3 -182z m400 -3 l2 -185
-190 0 -190 0 0 188 0 187 187 -3 188 -2 3 -185z m290 180 c2 -2 12 -70 22
-152 17 -130 17 -151 4 -170 -27 -42 -51 -49 -176 -45 l-118 3 0 183 c0 100 2
185 5 188 5 5 257 -2 263 -7z m-53 -397 c3 -2 -44 -48 -103 -101 l-107 -96 -3
91 c-1 50 -1 97 2 103 3 9 34 12 106 10 56 -2 103 -5 105 -7z m-1437 -185 l-3
-188 -117 -3 -118 -3 0 191 0 190 120 0 120 0 -2 -187z m400 0 l-3 -188 -187
-3 -188 -2 0 190 0 190 190 0 190 0 -2 -187z m402 -3 l0 -190 -187 2 -188 3
-3 188 -2 187 190 0 190 0 0 -190z m398 73 l-3 -117 -86 -75 -85 -76 -102 3
-102 3 0 190 0 189 190 0 191 0 -3 -117z m-1198 -333 l0 -50 -120 0 -120 0 0
50 0 50 120 0 120 0 0 -50z m400 0 l0 -50 -190 0 -190 0 0 50 0 50 190 0 190
0 0 -50z m398 -2 c-2 -29 -6 -52 -10 -50 -5 1 -89 2 -188 2 l-180 0 0 50 0 50
191 0 190 0 -3 -52z m161 3 c-43 -47 -101 -73 -129 -56 -5 3 -10 28 -10 56 l0
49 91 0 92 0 -44 -49z"/>
<path d="M1049 2117 c-26 -20 -119 -159 -119 -177 0 -19 27 -30 77 -30 25 0
32 -5 35 -22 5 -40 35 -33 59 13 19 39 20 44 5 54 -12 9 -16 29 -16 78 0 93
-8 109 -41 84z m-17 -159 c-6 -6 -19 -7 -31 -3 -20 6 -20 7 7 48 l27 41 3 -38
c2 -21 -1 -43 -6 -48z"/>
<path d="M3951 2070 c-19 -90 -18 -93 38 -85 44 6 51 4 61 -15 9 -17 8 -26 -5
-46 -19 -30 -32 -30 -62 -2 -21 20 -25 20 -39 7 -13 -14 -12 -18 7 -43 18 -23
27 -27 67 -24 40 3 49 8 70 38 17 25 22 43 18 65 -8 39 -49 75 -87 75 -50 0
-28 24 27 30 41 4 49 8 49 25 0 18 -8 20 -67 23 l-66 3 -11 -51z"/>
<path d="M7086 2089 c-21 -25 -26 -41 -26 -88 0 -104 24 -141 93 -141 69 0
102 85 55 145 -18 23 -26 26 -60 22 -32 -4 -38 -2 -38 13 0 10 7 24 16 31 14
11 21 10 46 -4 33 -19 48 -15 48 13 0 24 -29 40 -73 40 -27 0 -41 -7 -61 -31z
m92 -138 c4 -40 -8 -55 -37 -46 -45 14 -33 90 13 83 16 -2 22 -11 24 -37z"/>
<path d="M216 1688 c-4 -56 -6 -405 -5 -775 l2 -673 831 -2 c457 0 869 0 916
1 101 3 98 1 272 157 366 327 470 435 520 542 27 56 29 67 20 103 -19 74 -76
152 -212 289 -145 147 -477 435 -517 451 -14 5 -393 9 -922 9 l-898 0 -7 -102z
m1843 63 c20 -11 44 -27 51 -36 8 -10 82 -75 165 -145 82 -70 211 -190 286
-267 109 -112 143 -153 169 -207 37 -79 36 -101 -10 -180 -34 -60 -137 -177
-235 -268 -141 -132 -391 -351 -420 -369 -29 -18 -66 -19 -926 -19 l-896 0 -6
107 c-9 138 -9 1055 0 1251 l6 152 889 0 c858 0 890 -1 927 -19z"/>
<path d="M3220 1015 l0 -775 917 0 916 0 36 27 c20 15 70 59 111 98 42 38 136
122 209 185 146 126 306 303 345 383 34 67 33 100 -5 177 -39 78 -246 295
-424 443 -66 56 -149 127 -184 159 -36 32 -80 62 -100 68 -23 6 -362 10 -928
10 l-893 0 0 -775z m1827 744 c15 -5 61 -40 103 -77 41 -37 118 -104 170 -147
135 -114 360 -345 400 -412 28 -46 35 -68 35 -109 0 -46 -6 -61 -50 -125 -79
-117 -267 -299 -606 -586 l-50 -43 -904 0 -905 0 0 755 0 755 889 0 c603 0
899 -3 918 -11z"/>
<path d="M6220 1015 l0 -775 925 0 925 0 78 73 c42 40 157 144 254 230 187
167 316 308 354 391 56 120 28 174 -215 417 -197 196 -405 379 -473 417 l-41
22 -904 0 -903 0 0 -775z m1833 741 c73 -31 548 -466 633 -579 86 -115 93
-173 33 -273 -45 -75 -213 -250 -379 -395 -74 -66 -168 -148 -208 -184 l-73
-65 -909 0 -910 0 0 755 0 755 890 0 c738 0 896 -2 923 -14z"/>
</g>
</svg>
