<?xml version="1.0" standalone="no"?>
<!DOCTYPE svg PUBLIC "-//W3C//DTD SVG 20010904//EN"
 "http://www.w3.org/TR/2001/REC-SVG-20010904/DTD/svg10.dtd">
<svg version="1.0" xmlns="http://www.w3.org/2000/svg"
 width="996.000000pt" height="922.000000pt" viewBox="0 0 996.000000 922.000000"
 preserveAspectRatio="xMidYMid meet">
<metadata>
Created by potrace 1.16, written by Peter Selinger 2001-2019
</metadata>
<g transform="translate(0.000000,922.000000) scale(0.100000,-0.100000)"
fill="#FFFFFF" stroke="none">
<path d="M257 8903 c-9 -128 -9 -4588 0 -4726 l6 -107 2939 0 2938 0 0 2465 0
2465 -2938 0 -2939 0 -6 -97z m5863 -2368 l0 -2445 -2918 0 -2919 0 -6 113
c-9 148 -9 4359 0 4594 l6 183 2919 0 2918 0 0 -2445z"/>
<path d="M1500 7995 l0 -225 -220 0 -220 0 0 -135 0 -135 355 0 355 0 0 360 0
360 -135 0 -135 0 0 -225z"/>
<path d="M3090 7995 l0 -224 -117 -3 -118 -3 0 -130 0 -130 250 0 250 0 3 358
3 357 -136 0 -135 0 0 -225z"/>
<path d="M4677 8213 c-4 -3 -7 -165 -7 -360 l0 -353 135 0 135 0 0 360 0 360
-128 0 c-71 0 -132 -3 -135 -7z"/>
<path d="M1507 6593 c-4 -3 -7 -68 -7 -144 l0 -139 -217 -2 -218 -3 -3 -132
-3 -133 356 0 355 0 0 274 0 274 -31 6 c-42 8 -224 8 -232 -1z"/>
<path d="M3090 6455 l0 -145 -114 0 -113 0 -7 -37 c-3 -21 -6 -82 -6 -135 l0
-98 255 0 255 0 0 274 0 274 -31 6 c-17 3 -78 6 -135 6 l-104 0 0 -145z"/>
<path d="M4677 6593 c-4 -3 -7 -129 -7 -280 l0 -273 135 0 135 0 0 274 0 274
-31 6 c-42 8 -224 8 -232 -1z"/>
<path d="M3656 5731 c-3 -4 -5 -307 -3 -672 l2 -664 795 0 795 0 30 23 c75 59
293 259 416 382 151 151 196 220 186 285 -9 55 -86 160 -194 266 -106 104
-344 315 -407 361 l-39 28 -788 0 c-436 0 -790 -4 -793 -9z m1610 -33 c41 -31
155 -130 322 -282 199 -180 280 -290 268 -364 -13 -80 -161 -243 -449 -495
l-168 -147 -778 0 -778 0 -7 31 c-8 42 -8 1104 0 1202 l7 77 777 0 777 0 29
-22z"/>
<path d="M1060 4710 l0 -130 355 0 355 0 0 130 0 130 -355 0 -355 0 0 -130z"/>
<path d="M2857 4713 c-3 -71 -4 -129 -3 -130 1 -1 114 -3 251 -4 l250 -1 3
131 3 131 -249 0 -249 0 -6 -127z"/>
<path d="M6517 6306 c-62 -17 -116 -61 -147 -122 -21 -41 -25 -62 -25 -134 0
-76 3 -93 33 -152 38 -77 71 -102 157 -120 108 -21 205 21 247 107 25 51 19
75 -19 75 -23 -1 -32 -8 -48 -43 -36 -76 -129 -103 -211 -61 -114 58 -120 305
-10 374 79 48 168 30 216 -43 21 -34 28 -38 54 -33 16 4 31 8 33 10 3 2 -5 22
-16 44 -25 49 -71 86 -126 101 -50 14 -77 13 -138 -3z"/>
<path d="M6885 6016 c-43 -43 -46 -157 -4 -210 16 -20 29 -26 58 -26 51 0 81
32 81 86 0 66 -56 103 -112 73 -11 -6 -22 -9 -24 -6 -10 10 19 65 42 77 23 13
27 11 51 -14 32 -35 55 -21 29 18 -23 36 -86 37 -121 2z m93 -108 c16 -16 15
-73 0 -85 -43 -33 -88 -8 -88 47 0 43 58 68 88 38z"/>
<path d="M8218 3843 c-32 -38 -98 -143 -98 -156 0 -10 16 -17 46 -22 34 -5 48
-12 51 -26 8 -30 30 -22 49 17 13 26 14 38 5 47 -6 6 -11 27 -11 47 0 49 -11
110 -20 110 -4 0 -14 -8 -22 -17z m-2 -108 c-5 -26 -12 -35 -26 -35 -26 0 -25
14 2 50 26 36 33 32 24 -15z"/>
<path d="M930 3814 c-22 -20 -40 -40 -40 -45 0 -13 34 -11 48 3 9 9 12 -6 12
-70 0 -81 0 -82 25 -82 l25 0 0 115 c0 133 -5 138 -70 79z"/>
<path d="M3322 3830 c-12 -12 -22 -27 -22 -35 0 -19 34 -19 50 0 7 8 21 15 31
15 24 0 26 -42 2 -61 -23 -20 -93 -109 -93 -120 0 -5 36 -9 80 -9 73 0 80 2
80 20 0 17 -7 20 -46 20 l-47 0 42 45 c32 34 41 52 41 79 0 60 -72 88 -118 46z"/>
<path d="M5742 3834 c-12 -8 -22 -21 -22 -29 0 -23 20 -28 39 -11 22 20 51 21
51 2 0 -8 -12 -23 -27 -34 l-28 -21 27 -10 c27 -10 44 -43 33 -61 -9 -15 -41
-12 -55 5 -16 19 -29 19 -37 0 -9 -25 26 -55 64 -55 62 0 96 68 56 112 -13 14
-14 21 -5 30 31 31 -4 88 -53 88 -11 0 -31 -7 -43 -16z"/>
<path d="M358 3543 l-97 -4 -3 -502 c-2 -276 -2 -577 0 -669 l3 -168 794 0
794 0 90 78 c212 182 292 255 388 355 101 107 139 165 150 230 12 76 -95 216
-302 397 -54 47 -142 124 -195 172 -54 47 -108 92 -121 100 -19 10 -156 13
-714 14 -379 0 -734 -1 -787 -3z m1158 -23 l333 0 55 -47 c30 -27 97 -84 148
-128 164 -141 278 -249 317 -300 57 -76 91 -139 91 -169 0 -47 -48 -124 -138
-220 -85 -92 -369 -350 -446 -407 l-39 -29 -779 0 -778 0 -1 418 c-1 229 -2
433 -2 452 0 19 1 124 1 232 l2 198 348 3 c191 2 394 2 451 0 57 -2 254 -3
437 -3z"/>
<path d="M711 2510 l-2 -130 361 0 360 0 0 130 0 130 -359 0 -359 0 -1 -130z"/>
<path d="M2677 3544 c-4 -4 -7 -308 -7 -676 l0 -668 800 0 799 0 228 204 c363
324 433 428 373 545 -31 61 -110 155 -208 245 -122 112 -319 285 -363 318
l-35 28 -790 5 c-435 3 -793 3 -797 -1z m1546 -21 c45 -5 60 -16 213 -150 291
-254 398 -371 431 -467 13 -37 13 -43 -16 -100 -17 -34 -64 -97 -105 -142 -70
-76 -395 -374 -459 -421 l-31 -23 -783 0 -783 0 0 649 0 650 48 4 c78 6 1433
7 1485 0z"/>
<path d="M3710 2872 l0 -227 -222 0 -223 0 -3 -132 -3 -133 361 0 360 0 0 360
0 360 -135 0 -135 0 0 -228z"/>
<path d="M5087 3543 c-4 -3 -7 -307 -7 -675 l0 -668 803 0 802 1 65 60 c36 33
115 102 175 153 136 116 290 274 340 349 55 83 57 125 8 206 -21 35 -63 91
-94 125 -74 80 -428 394 -480 425 l-41 24 -782 3 c-431 2 -786 1 -789 -3z
m1598 -35 c38 -21 293 -243 408 -356 129 -127 197 -222 197 -277 0 -81 -144
-252 -369 -440 -52 -44 -127 -110 -168 -147 l-73 -68 -790 0 -790 0 0 650 0
650 348 2 c191 2 541 3 777 3 383 0 433 -2 460 -17z"/>
<path d="M6120 2740 l0 -360 134 0 134 0 7 113 c3 61 5 222 2 357 l-4 245
-137 3 -136 3 0 -361z"/>
<path d="M7828 3543 l-328 -3 0 -670 0 -670 794 0 794 0 49 36 c26 20 75 62
108 93 33 32 96 88 140 127 119 104 254 242 293 301 64 97 52 174 -50 302 -45
55 -447 417 -508 456 -35 23 -38 23 -500 27 -256 2 -612 2 -792 1z m1288 -45
c86 -66 399 -345 455 -405 73 -78 121 -156 126 -207 7 -60 -28 -123 -131 -233
-75 -80 -348 -328 -440 -400 l-41 -32 -782 -1 -783 0 0 650 0 650 784 0 783 0
29 -22z"/>
<path d="M8540 2527 l0 -147 135 0 135 0 0 140 0 140 -37 0 c-21 0 -82 3 -135
7 l-98 6 0 -146z"/>
<path d="M3329 1841 c-25 -25 -29 -37 -29 -83 0 -75 27 -118 75 -118 46 0 75
29 75 75 0 49 -31 79 -76 72 -39 -7 -43 2 -13 29 16 15 24 16 39 6 28 -17 40
-15 40 8 0 22 -27 40 -60 40 -12 0 -35 -13 -51 -29z m71 -95 c6 -8 10 -25 8
-38 -2 -17 -10 -23 -28 -23 -18 0 -26 6 -28 23 -3 22 13 52 28 52 4 0 13 -7
20 -14z"/>
<path d="M5738 1862 c-16 -2 -28 -9 -28 -18 0 -10 13 -14 50 -14 l50 0 -21
-41 c-26 -51 -50 -130 -43 -141 3 -4 14 -8 25 -8 13 0 19 7 19 24 0 33 24 96
54 145 14 22 26 43 26 45 0 6 -99 12 -132 8z"/>
<path d="M8162 1854 c-18 -13 -22 -24 -21 -62 0 -26 -3 -62 -6 -80 -10 -45 15
-72 66 -72 29 0 42 6 58 26 25 32 26 40 6 78 -11 20 -12 33 -5 40 17 17 11 54
-12 70 -29 20 -58 20 -86 0z m64 -35 c8 -14 -21 -43 -35 -35 -6 4 -11 16 -11
27 0 21 34 27 46 8z m2 -110 c4 -31 -18 -44 -43 -25 -25 18 -11 58 18 54 15
-2 23 -11 25 -29z"/>
<path d="M906 1838 c-3 -13 -7 -40 -10 -61 -5 -38 -5 -39 22 -32 54 15 67 12
70 -18 2 -16 -2 -35 -9 -43 -10 -13 -15 -13 -35 1 -46 30 -75 7 -36 -28 28
-25 78 -21 107 8 27 26 31 54 14 88 -16 29 -28 37 -61 37 -48 0 -35 28 14 32
31 2 44 8 46 21 3 15 -5 17 -57 17 -55 0 -61 -2 -65 -22z"/>
<path d="M255 1449 c-4 -79 -5 -382 -3 -674 l3 -530 797 -3 797 -2 90 77 c403
347 541 499 541 596 0 77 -119 227 -310 392 -51 44 -137 119 -190 167 -54 47
-107 91 -118 97 -13 7 -280 13 -810 17 l-790 6 -7 -143z m1562 112 c22 -1 47
-14 86 -48 31 -27 111 -95 178 -152 243 -208 379 -366 379 -442 0 -53 -58
-142 -162 -249 -105 -108 -291 -277 -399 -362 l-60 -48 -778 0 -778 0 -7 203
c-8 232 -8 696 1 937 l6 165 751 -2 c413 -1 765 -2 783 -2z"/>
<path d="M1298 973 c-17 -4 -18 -26 -18 -279 l0 -274 135 0 135 0 0 274 0 273
-61 7 c-68 7 -164 6 -191 -1z"/>
<path d="M2670 916 l0 -676 799 0 799 0 229 204 c421 375 459 451 315 632 -68
86 -358 356 -501 467 l-54 42 -794 3 -793 4 0 -676z m1563 647 c31 -5 68 -32
203 -150 291 -254 398 -371 431 -467 13 -37 13 -42 -17 -103 -24 -48 -62 -94
-153 -187 -117 -117 -344 -324 -410 -373 l-31 -23 -783 0 -783 0 0 650 0 649
78 4 c129 6 1424 6 1465 0z"/>
<path d="M3210 910 l0 -280 260 0 260 0 0 280 0 280 -260 0 -260 0 0 -280z"/>
<path d="M5298 1583 l-218 -3 0 -670 0 -670 803 0 803 0 84 78 c47 42 128 114
180 158 214 183 360 362 360 441 0 36 -57 132 -124 209 -62 71 -428 398 -481
429 l-40 23 -575 4 c-316 3 -673 3 -792 1z m1385 -34 c43 -23 252 -205 411
-359 112 -108 196 -226 196 -274 0 -79 -149 -256 -380 -451 -58 -49 -134 -115
-169 -147 l-64 -58 -788 0 -789 0 0 650 0 650 781 0 c563 0 786 -3 802 -11z"/>
<path d="M5750 1120 l0 -69 -67 -3 -68 -3 -7 -120 c-4 -66 -5 -126 -3 -132 3
-9 27 -13 75 -13 l70 0 0 -75 0 -75 135 0 135 0 0 75 0 75 70 0 70 0 0 130 0
130 -47 0 c-90 0 -93 3 -93 81 l0 69 -135 0 -135 0 0 -70z"/>
<path d="M7753 1583 l-253 -3 0 -670 0 -670 794 0 794 0 49 36 c26 20 77 64
113 98 36 33 118 107 182 164 125 111 229 227 266 293 64 120 -4 226 -318 504
-272 240 -269 238 -348 247 -63 6 -707 7 -1279 1z m1348 -35 c45 -29 296 -248
426 -372 41 -39 94 -100 119 -137 84 -122 70 -184 -75 -341 -80 -86 -396 -371
-457 -413 l-37 -25 -778 0 -779 0 0 650 0 650 308 2 c169 2 519 3 777 3 423 0
473 -2 496 -17z"/>
<path d="M8563 973 l-43 -4 0 -144 0 -144 -115 6 -115 6 0 -136 0 -137 250 0
250 0 0 274 0 273 -67 6 c-68 7 -81 7 -160 0z"/>
</g>
</svg>
