<?xml version="1.0" standalone="no"?>
<!DOCTYPE svg PUBLIC "-//W3C//DTD SVG 20010904//EN"
 "http://www.w3.org/TR/2001/REC-SVG-20010904/DTD/svg10.dtd">
<svg version="1.0" xmlns="http://www.w3.org/2000/svg"
 width="996.000000pt" height="922.000000pt" viewBox="0 0 996.000000 922.000000"
 preserveAspectRatio="xMidYMid meet">
<metadata>
Created by potrace 1.16, written by Peter Selinger 2001-2019
</metadata>
<g transform="translate(0.000000,922.000000) scale(0.100000,-0.100000)"
fill="#FFFFFF" stroke="none">
<path d="M257 8828 c-9 -224 -9 -4567 0 -4675 l6 -83 2938 0 2939 0 0 2465 0
2465 -2938 0 -2939 0 -6 -172z m5863 -2293 l0 -2445 -2918 0 -2919 0 -6 278
c-9 375 -9 3987 -1 4335 l7 277 2919 0 2918 0 0 -2445z"/>
<path d="M782 7998 l3 -493 493 -3 492 -2 0 495 0 495 -495 0 -495 0 2 -492z
m968 -3 l0 -475 -475 0 -475 0 0 230 0 230 243 2 242 3 3 243 2 242 230 0 230
0 0 -475z"/>
<path d="M2370 7995 l0 -495 493 0 492 0 0 493 0 492 -492 3 -493 2 0 -495z
m242 233 l3 -243 248 -3 247 -2 0 183 c0 101 3 212 6 246 l7 61 108 0 109 0 0
-475 0 -475 -475 0 -475 0 0 475 0 475 110 0 110 0 2 -242z"/>
<path d="M3957 8483 c-4 -3 -7 -226 -7 -495 l0 -488 495 0 495 0 0 495 0 495
-488 0 c-269 0 -492 -3 -495 -7z m481 -260 l2 -243 240 0 240 0 0 -230 0 -230
-469 0 c-418 0 -470 2 -475 16 -8 21 -8 727 1 843 l6 91 226 -2 226 -3 3 -242z"/>
<path d="M780 6530 l0 -490 493 0 c272 0 496 2 498 4 2 2 3 223 1 490 l-2 486
-495 0 -495 0 0 -490z m970 0 l0 -470 -475 0 -475 0 0 110 0 110 245 0 245 0
0 250 0 250 -245 0 -245 0 0 110 0 110 475 0 475 0 0 -470z"/>
<path d="M2370 6530 l0 -490 495 0 495 0 0 490 0 490 -495 0 -495 0 0 -490z
m970 0 l0 -470 -475 0 -475 0 0 470 0 470 475 0 475 0 0 -470z"/>
<path d="M2610 6530 l0 -250 250 0 249 0 3 246 c2 135 1 248 -1 250 -2 2 -116
4 -253 4 l-248 0 0 -250z"/>
<path d="M3950 6530 l0 -490 495 0 495 0 0 490 0 490 -495 0 -495 0 0 -490z
m970 360 l0 -110 -240 0 -240 0 0 -250 0 -250 240 0 240 0 0 -110 0 -110 -472
2 -473 3 -3 425 c-2 234 0 444 3 468 l6 42 470 0 469 0 0 -110z"/>
<path d="M3655 5728 c-3 -7 -4 -310 -3 -673 l3 -660 791 -3 791 -2 38 30 c74
59 282 246 398 360 130 126 192 208 202 269 17 101 -132 270 -544 618 l-86 73
-793 0 c-625 0 -794 -3 -797 -12z m1611 -30 c73 -55 348 -301 429 -383 92 -93
165 -201 165 -244 0 -78 -120 -217 -413 -477 l-207 -184 -779 0 -778 0 -7 31
c-3 17 -6 298 -6 624 0 326 3 607 6 624 l7 31 777 0 777 0 29 -22z"/>
<path d="M780 5064 l0 -496 483 3 c265 1 488 5 495 7 9 3 12 111 12 493 l0
489 -495 0 -495 0 0 -496z m970 3 l0 -473 -230 0 -230 0 0 243 0 243 -245 0
-245 0 0 230 0 230 475 0 475 0 0 -473z"/>
<path d="M2370 5071 l0 -490 33 -6 c17 -3 239 -4 492 -3 l460 3 0 490 0 490
-493 3 -492 2 0 -489z m968 -3 l-3 -473 -110 0 -110 0 -3 243 -2 242 -250 0
-250 0 0 -245 0 -246 -107 3 -108 3 -3 473 -2 472 475 0 475 0 -2 -472z"/>
<path d="M6524 6310 c-162 -38 -234 -250 -143 -421 37 -69 73 -94 154 -111
108 -21 205 21 247 107 25 51 19 75 -19 75 -23 -1 -32 -8 -48 -43 -25 -53 -70
-79 -135 -79 -58 0 -113 29 -136 74 -25 48 -35 136 -23 196 32 158 226 204
295 70 13 -26 19 -29 47 -22 18 3 33 8 35 9 7 6 -31 71 -56 98 -43 45 -139 66
-218 47z"/>
<path d="M6852 6028 c3 -8 28 -14 64 -16 l60 -3 -37 -77 c-45 -93 -59 -155
-33 -150 11 2 21 22 31 58 7 30 30 84 51 120 20 36 39 68 40 73 2 4 -38 7 -88
7 -69 0 -91 -3 -88 -12z"/>
<path d="M935 3819 c-35 -31 -46 -59 -22 -59 7 0 18 5 25 12 9 9 12 -6 12 -70
0 -81 0 -82 25 -82 l25 0 0 115 c0 131 -5 137 -65 84z"/>
<path d="M3322 3827 c-12 -13 -22 -29 -22 -35 0 -17 35 -15 50 3 7 8 21 15 31
15 28 0 24 -42 -7 -71 -39 -35 -85 -100 -78 -110 3 -5 39 -9 80 -9 67 0 74 2
74 20 0 17 -7 20 -46 20 l-47 0 42 45 c33 36 41 52 41 83 0 32 -5 41 -25 50
-39 18 -69 14 -93 -11z"/>
<path d="M5742 3834 c-12 -8 -22 -24 -22 -35 0 -23 9 -24 36 -4 24 18 54 19
54 1 0 -8 -12 -23 -27 -34 l-26 -19 29 -14 c20 -10 29 -22 29 -39 0 -31 -29
-39 -55 -15 -20 18 -40 13 -40 -9 0 -22 35 -46 68 -46 61 0 94 69 55 112 -13
14 -14 21 -5 30 31 31 -4 88 -53 88 -11 0 -31 -7 -43 -16z"/>
<path d="M8172 3778 c-67 -92 -67 -105 -2 -114 40 -5 50 -10 50 -25 0 -24 29
-25 37 -1 3 9 12 24 20 33 11 14 11 18 -2 29 -8 7 -15 29 -15 50 0 56 -11 100
-25 100 -6 0 -35 -32 -63 -72z m44 -43 c-5 -26 -12 -35 -26 -35 -26 0 -25 14
2 50 26 36 33 32 24 -15z"/>
<path d="M266 3542 c-4 -7 -9 -848 -7 -1189 l1 -153 794 0 794 0 85 73 c288
245 479 435 519 515 13 28 23 65 23 92 0 90 -107 215 -419 485 -76 66 -156
134 -178 150 l-40 30 -784 2 c-431 1 -786 -2 -788 -5z m1557 -21 c22 -5 60
-29 90 -55 29 -26 93 -81 142 -123 279 -239 405 -384 405 -465 0 -74 -128
-232 -328 -407 -54 -47 -132 -116 -173 -152 -41 -36 -85 -73 -99 -82 -22 -16
-92 -17 -802 -17 l-778 0 0 649 c0 510 3 650 13 654 24 9 1492 7 1530 -2z"/>
<path d="M580 2870 l0 -490 490 0 490 0 0 490 0 490 -490 0 -490 0 0 -490z
m960 0 l0 -470 -230 0 -230 0 0 240 0 240 -240 0 -240 0 0 230 0 230 470 0
470 0 0 -470z"/>
<path d="M2674 3541 c-2 -2 -4 -305 -4 -673 l0 -668 799 0 800 0 98 88 c366
323 432 390 495 500 75 129 7 229 -402 588 -69 60 -142 122 -162 137 l-37 28
-791 2 c-436 1 -794 0 -796 -2z m1559 -18 c30 -4 66 -30 165 -116 312 -272
430 -396 468 -495 17 -42 17 -42 -14 -105 -18 -37 -62 -96 -106 -143 -71 -77
-396 -374 -459 -421 l-31 -23 -783 0 -783 0 0 650 0 649 98 4 c189 6 1408 7
1445 0z"/>
<path d="M2990 2870 l0 -490 495 0 495 0 0 490 0 490 -495 0 -495 0 0 -490z
m970 0 l0 -470 -472 2 -473 3 -3 468 -2 467 475 0 475 0 0 -470z"/>
<path d="M3234 3107 c-2 -7 -3 -118 -2 -247 l3 -235 253 -3 252 -2 0 250 0
250 -250 0 c-194 0 -252 -3 -256 -13z"/>
<path d="M5188 3543 l-108 -4 0 -669 0 -670 803 0 802 1 65 60 c36 33 103 92
150 132 284 240 421 407 406 495 -7 48 -60 132 -128 207 -72 78 -426 392 -477
422 l-37 23 -685 4 c-376 2 -732 2 -791 -1z m1497 -35 c56 -32 354 -297 466
-416 86 -89 139 -174 139 -219 0 -79 -147 -253 -372 -441 -48 -39 -121 -104
-162 -142 l-76 -70 -790 0 -790 0 0 650 0 649 103 4 c56 2 406 3 777 3 617 -1
678 -2 705 -18z"/>
<path d="M5400 2875 l0 -495 498 0 497 0 0 488 0 487 -270 6 c-148 4 -372 7
-497 8 l-228 1 0 -495z m979 -5 l-2 -470 -476 2 -476 3 -3 228 -2 227 245 0
245 0 0 240 0 240 235 0 235 0 -1 -470z"/>
<path d="M7506 3543 c-3 -4 -6 -307 -6 -675 l0 -668 794 0 794 0 49 37 c26 20
90 75 142 122 369 337 441 420 441 513 0 41 -38 117 -95 190 -41 52 -441 412
-507 455 l-37 25 -784 3 c-432 2 -787 1 -791 -2z m1610 -45 c51 -37 309 -264
411 -362 101 -97 164 -189 170 -250 7 -61 -29 -124 -136 -238 -90 -96 -361
-341 -438 -395 l-45 -33 -779 0 -779 0 0 650 0 649 113 4 c61 2 412 3 778 3
l666 -1 39 -27z"/>
<path d="M7820 2870 l0 -490 495 0 495 0 0 490 0 490 -495 0 -495 0 0 -490z
m970 360 l0 -110 -245 0 -245 0 0 -250 0 -250 245 0 245 0 0 -110 0 -110 -475
0 -475 0 0 470 0 470 475 0 475 0 0 -110z"/>
<path d="M3329 1841 c-25 -25 -29 -37 -29 -83 0 -75 27 -118 74 -118 70 0 102
82 51 130 -18 17 -31 21 -55 17 -23 -5 -30 -3 -30 8 0 22 47 42 62 27 18 -18
38 -14 38 8 0 22 -27 40 -60 40 -12 0 -35 -13 -51 -29z m73 -105 c15 -34 4
-58 -24 -54 -40 5 -35 77 5 78 4 0 12 -11 19 -24z"/>
<path d="M5760 1860 c-70 -6 -72 -24 -3 -28 l51 -3 -29 -64 c-38 -80 -42 -119
-13 -123 18 -3 22 3 27 39 3 23 21 72 41 109 l35 68 -27 3 c-15 2 -52 2 -82
-1z"/>
<path d="M8156 1851 c-11 -12 -16 -33 -15 -62 1 -24 -2 -56 -6 -71 -12 -44 16
-78 65 -78 30 0 43 6 59 26 25 31 26 52 6 80 -12 18 -12 27 -2 54 11 29 10 33
-12 51 -30 24 -73 24 -95 0z m70 -32 c8 -14 -21 -43 -35 -35 -6 4 -11 16 -11
27 0 21 34 27 46 8z m2 -111 c3 -24 0 -28 -22 -28 -30 0 -40 13 -31 41 10 31
49 21 53 -13z"/>
<path d="M905 1823 c-3 -21 -8 -49 -11 -62 -5 -21 -3 -23 23 -16 55 15 68 12
71 -18 2 -16 -2 -35 -9 -43 -10 -13 -15 -13 -35 1 -29 19 -54 19 -54 1 0 -26
30 -46 70 -46 30 0 43 6 59 26 12 15 21 37 21 49 0 36 -37 75 -71 75 -48 0
-37 28 13 32 31 2 44 8 46 21 3 15 -5 17 -57 17 l-60 0 -6 -37z"/>
<path d="M256 1441 c-4 -82 -6 -386 -5 -675 l2 -526 798 0 797 0 85 73 c390
331 547 505 547 603 0 73 -116 218 -305 384 -54 47 -142 124 -195 172 -54 47
-108 92 -121 100 -19 10 -174 14 -810 16 l-786 3 -7 -150z m1561 120 c29 -6
60 -23 95 -55 29 -25 94 -81 143 -123 237 -203 314 -284 378 -394 35 -59 34
-88 -3 -158 -48 -88 -315 -352 -531 -523 l-60 -48 -778 0 -778 0 -5 358 c-3
196 -3 490 0 653 l5 297 746 1 c410 0 765 -3 788 -8z"/>
<path d="M560 910 l0 -490 495 0 495 0 0 490 0 490 -495 0 -495 0 0 -490z
m970 240 l0 -230 -246 0 -245 0 7 -163 c4 -90 3 -198 -1 -240 l-7 -77 -229 0
-229 0 0 470 0 470 475 0 475 0 0 -230z"/>
<path d="M2868 1583 l-198 -3 0 -670 0 -670 799 0 799 0 224 199 c300 268 400
387 400 477 0 68 -88 188 -243 330 -122 113 -308 276 -349 307 l-35 26 -600 4
c-330 2 -689 2 -797 0z m1423 -44 c19 -15 81 -68 139 -119 298 -264 400 -373
436 -468 17 -42 16 -42 -14 -105 -48 -97 -229 -279 -519 -524 l-74 -63 -784 0
-785 0 0 650 0 649 128 4 c70 2 422 3 783 3 l656 -1 34 -26z"/>
<path d="M2980 910 l0 -490 490 0 490 0 0 490 0 490 -490 0 -490 0 0 -490z"/>
<path d="M5123 1583 l-43 -4 0 -670 0 -669 803 0 802 1 55 50 c30 28 114 101
185 163 251 218 370 356 382 443 11 82 -76 199 -298 399 -177 159 -263 233
-309 265 l-35 24 -750 1 c-412 1 -769 -1 -792 -3z m1563 -35 c48 -26 276 -229
420 -372 132 -133 184 -208 184 -266 0 -73 -134 -233 -348 -417 -75 -64 -166
-143 -201 -175 l-64 -58 -788 0 -789 0 0 650 0 649 63 4 c34 2 384 3 777 3
650 -1 718 -3 746 -18z"/>
<path d="M5628 1403 l-238 -3 0 -490 0 -490 495 0 495 0 0 495 0 495 -257 -2
c-142 -2 -365 -4 -495 -5z m251 -260 l-4 -238 243 -3 242 -2 0 -230 0 -230
-475 0 -475 0 0 470 0 470 236 0 236 0 -3 -237z"/>
<path d="M7504 1581 c-2 -2 -4 -305 -4 -673 l0 -668 793 0 794 0 39 28 c22 16
73 60 115 98 41 38 118 107 170 153 129 115 262 260 288 315 58 125 -5 223
-320 502 -105 93 -213 185 -240 205 l-48 37 -533 7 c-512 7 -1045 5 -1054 -4z
m1605 -37 c40 -26 406 -351 462 -411 72 -77 121 -156 126 -206 8 -71 -30 -132
-176 -277 -136 -136 -342 -321 -405 -364 l-39 -26 -778 0 -779 0 0 650 0 649
78 4 c42 2 393 3 779 2 665 -3 704 -4 732 -21z"/>
<path d="M7800 910 l0 -490 498 0 497 0 -2 487 -2 488 -496 3 -495 2 0 -490z
m970 0 l0 -470 -110 0 -110 0 0 240 0 240 -250 0 -250 0 0 -240 0 -241 -112 3
-113 3 -3 468 -2 467 475 0 475 0 0 -470z"/>
</g>
</svg>
