<?xml version="1.0" standalone="no"?>
<!DOCTYPE svg PUBLIC "-//W3C//DTD SVG 20010904//EN"
 "http://www.w3.org/TR/2001/REC-SVG-20010904/DTD/svg10.dtd">
<svg version="1.0" xmlns="http://www.w3.org/2000/svg"
 width="996.000000pt" height="922.000000pt" viewBox="0 0 996.000000 922.000000"
 preserveAspectRatio="xMidYMid meet">
<metadata>
Created by potrace 1.16, written by Peter Selinger 2001-2019
</metadata>
<g transform="translate(0.000000,922.000000) scale(0.100000,-0.100000)"
fill="#FFFFFF" stroke="none">
<path d="M257 8893 c-9 -138 -9 -4598 0 -4725 l6 -98 2939 0 2938 0 0 2465 0
2465 -2938 0 -2939 0 -6 -107z m5863 -2358 l0 -2445 -2918 0 -2919 0 -6 123
c-9 160 -9 4469 0 4637 l6 130 2919 0 2918 0 0 -2445z"/>
<path d="M867 8341 c-69 -23 -152 -83 -191 -139 -157 -228 -3 -550 274 -570
117 -8 220 35 304 128 64 71 81 120 81 235 0 90 -3 105 -28 154 -89 169 -270
248 -440 192z m268 -40 c77 -38 132 -101 165 -188 29 -75 24 -193 -10 -266
-30 -64 -97 -129 -168 -164 -50 -24 -69 -28 -147 -28 -78 0 -97 4 -146 28
-153 74 -230 252 -181 414 62 203 292 300 487 204z"/>
<path d="M2667 8350 c-172 -44 -292 -215 -273 -392 23 -223 248 -375 462 -313
64 18 99 40 156 93 35 33 40 34 115 36 69 1 85 5 121 29 63 41 95 97 100 172
7 109 -31 179 -123 221 -57 27 -138 32 -188 10 -18 -7 -48 -28 -66 -47 -108
-107 -89 -277 39 -360 l25 -17 -37 -35 c-21 -19 -64 -48 -95 -64 -51 -24 -69
-28 -148 -28 -78 0 -97 4 -147 28 -149 73 -227 243 -184 402 20 75 39 107 101
163 132 121 329 122 459 2 55 -51 62 -36 9 16 -80 75 -217 111 -326 84z m558
-224 c19 -15 42 -41 51 -58 22 -43 15 -125 -15 -167 -28 -39 -89 -71 -136 -71
-33 0 -36 2 -29 23 28 86 31 189 9 252 -8 22 -15 44 -15 49 0 19 100 -1 135
-28z m-135 -37 c15 -61 9 -170 -12 -219 l-15 -35 -46 45 c-52 52 -66 99 -48
160 11 39 84 115 100 105 5 -3 15 -28 21 -56z"/>
<path d="M2991 8024 c-25 -32 -25 -33 -5 -62 18 -27 55 -29 77 -4 21 23 21 41
1 70 -20 29 -48 28 -73 -4z"/>
<path d="M4350 8347 c-64 -18 -108 -47 -169 -112 -63 -67 -90 -124 -98 -209
-11 -125 55 -262 161 -334 183 -122 435 -52 534 148 24 49 27 66 27 155 0 85
-4 107 -24 149 -35 69 -119 151 -187 183 -68 31 -174 40 -244 20z m236 -36
c59 -26 142 -106 176 -171 20 -38 23 -60 23 -145 0 -86 -4 -107 -25 -150 -33
-67 -93 -125 -166 -161 -52 -26 -70 -29 -149 -29 -73 0 -100 5 -142 24 -65 29
-136 103 -171 179 -36 77 -38 192 -4 266 45 100 122 169 225 202 59 19 170 12
233 -15z"/>
<path d="M4342 8194 c-161 -80 -162 -313 -2 -397 48 -25 64 -28 121 -25 79 4
134 35 176 99 35 54 44 149 19 214 -46 118 -193 170 -314 109z m178 -56 c56
-29 81 -64 87 -121 13 -117 -78 -204 -193 -183 -51 10 -109 67 -123 120 -14
58 -6 96 32 141 55 67 121 81 197 43z"/>
<path d="M4417 8032 c-20 -22 -22 -63 -5 -80 18 -18 53 -15 71 6 21 23 21 41
1 70 -18 27 -45 28 -67 4z"/>
<path d="M1645 8201 c-102 -47 -156 -163 -125 -270 44 -153 239 -212 364 -110
51 43 76 102 76 181 0 58 -4 72 -32 114 -63 94 -185 130 -283 85z m170 -64
c77 -44 106 -128 71 -210 -46 -111 -215 -128 -281 -28 -57 86 -33 192 55 238
54 29 104 29 155 0z"/>
<path d="M1397 8032 c-21 -23 -22 -56 -1 -76 19 -20 34 -20 62 0 27 18 29 55
4 77 -24 22 -45 21 -65 -1z"/>
<path d="M612 6533 l3 -368 363 -3 362 -2 0 370 0 370 -365 0 -365 0 2 -367z
m708 -1 l0 -349 -332 3 c-183 2 -339 4 -345 4 -10 0 -13 74 -13 338 0 186 3
342 7 345 3 4 159 7 345 7 l338 0 0 -348z"/>
<path d="M2392 6533 l3 -368 363 -3 362 -2 0 70 0 69 118 3 117 3 0 225 0 225
-117 3 -118 3 0 69 0 70 -365 0 -365 0 2 -367z m708 287 l0 -60 -100 0 -100 0
0 -230 0 -230 100 0 100 0 0 -61 0 -62 -92 7 c-50 3 -205 6 -345 6 l-253 0 0
338 c0 186 3 342 7 345 3 4 159 7 345 7 l338 0 0 -60z m-2 -287 l-3 -168 -65
0 -65 0 -3 168 -2 167 70 0 70 0 -2 -167z m192 3 l0 -164 -81 -4 c-44 -2 -83
-1 -85 1 -2 2 -4 78 -4 168 l0 163 85 0 85 0 0 -164z"/>
<path d="M2987 6562 c-22 -24 -21 -45 1 -65 22 -20 51 -21 75 -3 20 15 23 56
5 74 -18 18 -63 14 -81 -6z"/>
<path d="M4080 6536 l0 -364 153 -7 c83 -3 249 -5 367 -3 l215 3 0 365 0 365
-367 3 -368 2 0 -364z m718 -3 l2 -343 -350 0 -350 0 0 345 0 345 348 -2 347
-3 3 -342z"/>
<path d="M4220 6530 l0 -230 230 0 230 0 0 230 0 230 -230 0 -230 0 0 -230z
m390 6 c0 -122 -3 -165 -12 -168 -7 -2 -82 -2 -165 0 l-153 4 0 164 0 164 165
0 165 0 0 -164z"/>
<path d="M4427 6579 c-31 -18 -40 -48 -22 -75 19 -30 55 -31 80 -4 35 39 -13
103 -58 79z"/>
<path d="M1510 6530 l0 -230 228 2 227 3 3 228 2 227 -230 0 -230 0 0 -230z
m388 3 l-3 -168 -160 3 -160 2 -3 152 c-1 84 0 158 2 165 4 10 44 13 166 13
l160 0 -2 -167z"/>
<path d="M1391 6561 c-25 -25 -26 -30 -5 -59 33 -47 107 -9 88 46 -12 35 -54
42 -83 13z"/>
<path d="M3655 5728 c-3 -7 -4 -310 -3 -673 l3 -660 795 0 795 0 30 23 c63 50
275 242 393 357 132 129 195 211 206 271 20 101 -112 252 -543 622 l-83 72
-795 0 c-626 0 -795 -3 -798 -12z m1605 -25 c29 -19 221 -188 363 -317 164
-150 246 -270 233 -340 -14 -75 -141 -215 -411 -454 l-200 -177 -785 0 -785 0
-3 610 c-2 336 0 629 3 653 l6 42 777 0 c711 0 780 -1 802 -17z"/>
<path d="M968 5403 c-13 -16 -61 -101 -303 -543 -73 -133 -80 -155 -47 -154
12 0 189 1 393 2 l371 2 -47 88 c-125 232 -329 598 -340 610 -9 10 -14 9 -27
-5z m152 -255 c74 -134 155 -281 181 -328 26 -47 46 -86 45 -88 -6 -6 -726 -7
-726 -1 0 4 20 42 44 85 23 44 98 180 166 304 125 230 148 270 154 270 2 0 63
-109 136 -242z"/>
<path d="M2848 5403 c-9 -10 -53 -85 -99 -168 -223 -407 -279 -510 -279 -517
0 -5 176 -8 391 -8 l390 0 -7 23 c-3 12 -17 43 -30 70 l-24 47 35 0 c21 0 35
5 35 13 0 12 -207 396 -232 431 -13 18 -15 17 -36 -19 l-23 -37 -37 70 c-20
38 -44 79 -52 92 -15 21 -16 21 -32 3z m52 -70 c16 -32 37 -70 46 -84 17 -26
16 -28 -83 -210 l-101 -184 204 -5 204 -5 21 -40 c46 -89 84 -80 -327 -77
-200 1 -364 5 -364 8 0 3 61 116 136 252 75 136 152 276 172 312 35 65 51 90
58 90 2 0 17 -26 34 -57z m190 -284 c40 -72 70 -132 67 -135 -4 -4 -147 251
-147 262 0 16 17 -12 80 -127z m-34 -5 c81 -147 87 -134 -61 -134 -70 0 -125
3 -123 8 16 37 124 230 126 227 2 -2 28 -48 58 -101z"/>
<path d="M2957 5032 c-22 -24 -21 -55 1 -75 25 -22 44 -21 70 3 28 26 28 41
-1 68 -28 27 -49 28 -70 4z"/>
<path d="M1702 5223 c-27 -49 -80 -144 -117 -213 -37 -69 -71 -129 -76 -134
-5 -6 -9 -14 -9 -18 0 -4 113 -8 250 -8 177 0 250 3 250 11 0 12 -239 449
-245 449 -2 0 -26 -39 -53 -87z m127 -171 c39 -71 71 -131 71 -135 0 -4 -65
-7 -145 -7 -80 0 -145 3 -145 6 0 11 139 264 145 264 2 0 36 -58 74 -128z"/>
<path d="M1398 5106 c-24 -18 -23 -51 2 -76 26 -26 36 -25 65 5 30 29 31 39 5
65 -23 23 -47 25 -72 6z"/>
<path d="M6517 6306 c-62 -17 -116 -61 -147 -122 -21 -41 -25 -62 -25 -135 0
-79 3 -92 35 -154 29 -57 43 -73 80 -92 60 -31 137 -39 197 -22 57 15 128 82
141 131 10 37 1 48 -38 47 -19 0 -29 -9 -45 -42 -36 -76 -129 -103 -211 -60
-47 24 -70 61 -85 135 -32 160 77 294 211 258 40 -11 90 -59 90 -87 0 -12 7
-14 38 -8 20 4 38 8 40 10 2 2 -6 21 -17 43 -25 49 -71 86 -126 101 -50 14
-77 13 -138 -3z"/>
<path d="M6905 6036 c-29 -13 -55 -51 -55 -82 0 -29 31 -74 55 -80 14 -3 38
-1 55 4 26 10 30 9 30 -7 0 -23 -37 -71 -54 -71 -7 0 -21 9 -31 20 -21 23 -45
26 -45 7 0 -28 36 -48 81 -45 59 4 83 44 83 140 1 59 -2 70 -24 92 -33 32 -59
38 -95 22z m65 -36 c11 -11 20 -30 20 -42 0 -45 -58 -76 -88 -46 -17 17 -15
68 5 90 21 23 38 23 63 -2z"/>
<path d="M930 3814 c-56 -50 -52 -66 10 -40 13 5 15 -6 12 -74 l-4 -80 26 0
26 0 0 115 c0 133 -5 138 -70 79z"/>
<path d="M3322 3827 c-12 -13 -22 -29 -22 -35 0 -17 30 -15 51 4 10 9 25 14
34 11 20 -8 19 -41 -2 -58 -31 -26 -93 -111 -87 -120 3 -5 39 -9 80 -9 67 0
74 2 74 20 0 17 -7 20 -47 20 l-47 0 36 38 c36 38 58 72 58 92 0 6 -11 22 -25
35 -31 32 -74 33 -103 2z"/>
<path d="M5742 3834 c-12 -8 -22 -21 -22 -29 0 -23 20 -28 39 -11 21 19 37 20
47 4 4 -6 -4 -21 -21 -34 l-27 -22 28 -13 c33 -16 45 -56 19 -66 -10 -3 -30 2
-46 11 -26 16 -30 16 -35 1 -10 -25 24 -55 63 -55 62 0 96 68 56 112 -13 14
-14 21 -5 30 31 31 -4 88 -53 88 -11 0 -31 -7 -43 -16z"/>
<path d="M8198 3818 c-41 -55 -78 -117 -78 -132 0 -10 16 -17 46 -22 33 -5 48
-12 51 -25 8 -30 31 -22 50 18 12 27 14 38 5 41 -7 2 -12 24 -12 55 0 102 -19
121 -62 65z m18 -83 c-5 -26 -12 -35 -26 -35 -26 0 -25 14 2 50 26 36 33 32
24 -15z"/>
<path d="M398 3543 l-138 -4 -2 -669 -3 -670 797 0 797 0 90 78 c407 349 541
498 541 599 0 52 -69 153 -180 263 -103 103 -346 318 -418 372 l-37 27 -655 4
c-360 2 -717 2 -792 0z m1464 -35 c12 -9 52 -42 88 -75 36 -32 97 -85 135
-118 125 -105 245 -219 284 -270 55 -74 91 -139 91 -166 0 -50 -49 -128 -142
-227 -94 -100 -324 -311 -425 -389 l-55 -43 -779 0 -779 0 0 650 0 649 78 4
c42 2 393 3 779 2 615 -1 704 -3 725 -17z"/>
<path d="M707 3233 c-4 -3 -7 -167 -7 -364 l0 -359 23 -5 c12 -3 177 -4 367
-3 l345 3 0 365 0 365 -361 3 c-198 1 -363 -1 -367 -5z m713 -363 l0 -350
-334 0 c-184 0 -341 3 -350 6 -14 5 -16 45 -16 343 0 186 3 341 7 344 3 4 161
7 350 7 l343 0 0 -350z"/>
<path d="M943 2889 c-68 -122 -120 -225 -117 -230 7 -12 482 -11 489 1 3 4
-28 68 -68 141 -41 74 -95 173 -121 222 -26 48 -50 87 -54 87 -4 0 -62 -100
-129 -221z m203 -36 l71 -128 -73 -3 c-41 -2 -107 -2 -148 0 l-73 3 71 127
c39 70 73 128 76 128 3 0 37 -57 76 -127z"/>
<path d="M1043 2895 c-26 -18 -29 -51 -9 -77 19 -25 49 -22 76 7 l24 25 -21
28 c-25 33 -41 37 -70 17z"/>
<path d="M2670 2873 l0 -673 799 0 799 0 229 204 c361 322 433 428 373 545
-31 61 -110 155 -208 245 -122 112 -319 285 -362 318 l-35 26 -798 4 -797 3 0
-672z m1567 649 c25 -2 65 -32 200 -149 289 -254 397 -370 430 -466 12 -34 11
-43 -7 -84 -26 -58 -106 -157 -207 -253 -99 -95 -325 -297 -366 -327 l-31 -23
-783 0 -783 0 0 650 0 650 363 2 c388 3 1131 3 1184 0z"/>
<path d="M3120 2870 l0 -370 363 2 362 3 3 368 2 367 -365 0 -365 0 0 -370z
m710 0 l0 -350 -345 0 -345 0 0 350 0 350 345 0 345 0 0 -350z"/>
<path d="M3260 2870 l0 -230 225 0 225 0 0 230 0 230 -225 0 -225 0 0 -230z
m390 6 c0 -91 -3 -166 -7 -168 -5 -2 -79 -2 -165 0 l-158 4 0 157 c0 87 3 161
7 164 3 4 78 7 165 7 l158 0 0 -164z"/>
<path d="M3445 2896 c-13 -19 -14 -29 -5 -45 29 -55 115 -22 94 36 -13 40 -66
45 -89 9z"/>
<path d="M5084 3541 c-2 -2 -4 -305 -4 -673 l0 -668 801 0 802 0 74 68 c41 37
113 100 161 140 132 111 288 269 339 344 64 93 67 133 16 215 -21 34 -59 87
-86 117 -63 73 -430 400 -486 433 l-43 26 -785 1 c-432 1 -787 -1 -789 -3z
m1583 -27 c24 -4 97 -64 284 -230 224 -199 339 -337 339 -409 0 -78 -150 -255
-380 -451 -58 -49 -133 -115 -167 -146 l-62 -58 -791 0 -790 0 0 650 0 650
743 2 c716 3 776 2 824 -8z"/>
<path d="M5890 3232 c0 -5 -42 -85 -93 -178 -51 -93 -137 -248 -190 -345 -53
-97 -97 -182 -97 -188 0 -8 108 -11 391 -11 l390 0 -7 23 c-3 12 -89 172 -190
356 -101 184 -184 338 -184 343 0 4 -4 8 -10 8 -5 0 -10 -4 -10 -8z m198 -372
c74 -135 146 -264 159 -287 l25 -43 -366 0 c-213 0 -366 4 -366 9 0 5 17 40
39 78 21 37 91 165 156 283 64 118 128 235 142 259 l26 44 25 -49 c13 -27 85
-159 160 -294z"/>
<path d="M5862 2902 c-21 -16 -22 -21 -11 -45 13 -28 47 -44 73 -34 26 10 36
41 23 68 -15 30 -54 35 -85 11z"/>
<path d="M7507 3543 c-4 -3 -7 -307 -7 -675 l0 -668 798 2 799 3 66 55 c216
180 467 423 520 504 87 135 28 238 -304 532 -289 255 -263 240 -409 247 -161
9 -1455 9 -1463 0z m1609 -46 c49 -34 308 -261 407 -356 43 -42 98 -105 123
-142 84 -122 70 -184 -74 -340 -82 -88 -395 -371 -456 -413 l-39 -26 -778 0
-779 0 0 650 0 650 168 2 c92 2 442 3 779 2 l612 0 37 -27z"/>
<path d="M7952 2873 l3 -368 363 -3 362 -2 0 370 0 370 -365 0 -365 0 2 -367z
m708 -3 l0 -350 -345 0 -345 0 0 350 0 350 345 0 345 0 0 -350z"/>
<path d="M8260 3091 c-106 -33 -170 -115 -170 -221 0 -129 94 -222 225 -223
128 -1 225 95 225 223 0 94 -46 164 -135 206 -50 24 -99 29 -145 15z m131 -77
c89 -45 115 -160 53 -241 -33 -43 -76 -65 -129 -65 -141 0 -216 166 -122 268
55 60 128 74 198 38z"/>
<path d="M8277 2902 c-22 -24 -21 -45 1 -65 24 -22 55 -21 75 1 22 24 21 45
-1 65 -24 22 -55 21 -75 -1z"/>
<path d="M3329 1841 c-25 -25 -29 -37 -29 -83 0 -75 27 -118 75 -118 45 0 75
29 75 73 0 49 -33 81 -76 74 -37 -6 -39 -5 -24 24 11 20 45 26 55 9 10 -16 35
-11 35 6 0 22 -29 43 -58 44 -13 0 -37 -13 -53 -29z m79 -136 c-2 -14 -11 -20
-28 -20 -32 0 -41 42 -14 62 16 12 21 11 32 -4 7 -10 11 -27 10 -38z"/>
<path d="M5763 1862 c-38 -2 -53 -7 -53 -18 0 -10 13 -14 50 -14 l50 0 -21
-41 c-26 -51 -50 -130 -43 -141 3 -4 13 -8 23 -8 14 0 20 10 24 41 3 23 21 72
41 109 l35 68 -27 3 c-15 2 -51 3 -79 1z"/>
<path d="M8162 1854 c-18 -13 -22 -24 -21 -62 0 -26 -3 -62 -6 -80 -10 -45 15
-72 66 -72 29 0 42 6 58 26 25 32 26 40 6 78 -11 20 -12 33 -5 40 17 17 11 54
-12 70 -29 20 -58 20 -86 0z m64 -35 c8 -14 -21 -43 -35 -35 -6 4 -11 16 -11
27 0 21 34 27 46 8z m2 -111 c3 -24 0 -28 -23 -28 -27 0 -41 20 -31 46 10 27
51 13 54 -18z"/>
<path d="M905 1823 c-3 -21 -8 -49 -11 -62 -5 -25 0 -25 63 -6 33 10 50 -28
28 -61 -16 -24 -18 -25 -40 -10 -47 31 -77 9 -37 -27 25 -23 74 -21 103 2 18
14 24 29 24 61 0 48 -21 70 -67 70 -18 0 -28 5 -28 15 0 11 12 15 45 15 38 0
45 3 45 20 0 18 -7 20 -60 20 l-59 0 -6 -37z"/>
<path d="M257 1463 c-9 -165 -9 -999 0 -1125 l6 -98 793 0 793 0 84 72 c300
258 480 436 517 514 12 24 24 61 27 82 7 56 -51 146 -177 273 -102 103 -340
314 -421 374 l-41 30 -787 3 -788 3 -6 -128z m1566 98 c24 -6 61 -30 103 -68
36 -32 103 -89 148 -128 255 -215 386 -368 386 -447 0 -69 -118 -221 -288
-371 -224 -200 -284 -252 -309 -268 -27 -18 -68 -19 -804 -19 l-777 0 -7 208
c-4 114 -5 380 -1 592 3 212 6 413 6 448 l0 62 753 0 c413 0 769 -4 790 -9z"/>
<path d="M968 1266 c-102 -29 -208 -120 -251 -214 -34 -73 -31 -207 5 -284
115 -247 413 -298 597 -103 77 81 96 129 96 245 -1 85 -4 101 -29 153 -37 72
-119 151 -192 183 -69 30 -161 39 -226 20z m224 -40 c78 -35 132 -87 170 -164
30 -61 33 -75 33 -157 0 -108 -19 -157 -89 -228 -174 -179 -459 -133 -564 91
-23 49 -27 70 -27 147 0 73 5 99 23 136 87 176 284 252 454 175z"/>
<path d="M1015 1135 c-5 -2 -22 -6 -38 -9 -38 -9 -106 -73 -128 -121 -22 -47
-24 -133 -6 -178 64 -152 266 -190 379 -70 88 92 73 263 -30 334 -53 38 -135
58 -177 44z m100 -74 c46 -20 92 -70 101 -107 10 -38 -2 -104 -24 -133 -57
-78 -156 -95 -231 -40 -112 80 -86 237 46 284 50 18 60 18 108 -4z"/>
<path d="M1022 947 c-27 -28 -28 -49 -4 -70 24 -22 55 -21 75 1 24 26 21 47
-9 71 -33 26 -36 26 -62 -2z"/>
<path d="M2670 914 l0 -674 800 0 799 0 198 175 c303 268 425 413 425 501 0
42 -39 113 -105 190 -53 63 -300 290 -441 408 l-80 66 -525 1 c-289 0 -649 2
-798 4 l-273 4 0 -675z m1566 648 c25 -2 60 -27 160 -114 315 -273 433 -398
470 -496 17 -42 17 -42 -14 -105 -49 -98 -230 -280 -519 -524 l-74 -63 -784 0
-785 0 0 650 0 650 338 2 c355 3 1155 3 1208 0z"/>
<path d="M3105 1268 c-3 -7 -4 -173 -3 -368 l3 -355 365 0 365 0 0 365 0 365
-363 3 c-285 2 -364 0 -367 -10z m211 -21 c-77 -48 -117 -89 -178 -177 -16
-24 -17 -22 -17 83 l-1 107 108 -1 c87 0 103 -2 88 -12z m504 -94 c-1 -96 -2
-106 -15 -88 -51 72 -95 119 -141 151 -30 21 -54 39 -54 41 0 1 47 3 105 3
l105 0 0 -107z m-195 68 c61 -35 136 -113 164 -171 32 -67 30 -212 -4 -284
-32 -67 -109 -140 -181 -172 -67 -29 -184 -33 -258 -8 -66 23 -148 101 -187
179 -29 60 -31 69 -27 157 4 109 23 155 96 232 73 75 126 96 247 96 92 0 104
-3 150 -29z m-401 -579 c17 -19 49 -43 71 -55 l40 -22 -94 -3 c-52 -1 -100 -1
-108 2 -10 4 -13 33 -13 113 l0 108 36 -55 c20 -30 51 -70 68 -88z m588 -74
c-5 -5 -56 -7 -113 -6 l-104 3 38 19 c56 28 130 99 158 151 l24 45 3 -102 c1
-55 -1 -105 -6 -110z"/>
<path d="M3344 933 c-65 -120 -120 -223 -122 -230 -2 -9 56 -12 242 -12 135 0
247 3 250 8 6 9 -229 444 -242 449 -5 1 -62 -95 -128 -215z m152 47 l22 -39
-24 16 c-22 14 -26 14 -50 -2 l-25 -16 23 40 c13 23 25 41 28 41 3 0 15 -18
26 -40z m-35 -120 c29 0 59 18 59 35 0 30 16 13 56 -58 l42 -72 -74 -3 c-41
-2 -107 -2 -148 0 l-73 3 41 73 40 73 19 -25 c10 -15 28 -26 38 -26z"/>
<path d="M5087 1584 c-4 -4 -7 -308 -7 -676 l0 -668 803 0 803 0 90 83 c49 45
127 114 174 154 112 94 277 265 319 330 44 70 50 117 21 174 -31 61 -105 152
-186 229 -128 121 -365 325 -407 350 l-42 25 -780 3 c-430 2 -784 0 -788 -4z
m1598 -36 c46 -25 368 -312 466 -416 87 -91 139 -174 139 -222 0 -72 -148
-250 -346 -416 -63 -53 -148 -127 -189 -165 l-75 -69 -790 0 -790 0 0 649 0
650 53 4 c28 2 378 3 777 3 657 -1 728 -3 755 -18z"/>
<path d="M5751 1037 c-74 -133 -163 -293 -197 -356 -35 -63 -64 -118 -64 -122
0 -5 178 -9 395 -9 217 0 395 2 395 5 0 6 -350 649 -379 697 l-17 28 -133
-243z m149 185 c0 -4 79 -152 175 -327 l175 -320 -361 -3 c-199 -1 -364 -1
-366 2 -3 3 209 392 341 628 18 32 36 42 36 20z"/>
<path d="M5870 1133 c-52 -87 -230 -419 -230 -430 0 -10 47 -13 245 -13 180 0
245 3 245 12 0 16 -233 447 -242 448 -4 0 -13 -8 -18 -17z m37 -145 l19 -33
-35 0 c-28 0 -38 -6 -50 -27 -14 -24 -14 -28 3 -47 32 -36 82 -21 98 29 3 9
22 -19 47 -67 l41 -83 -145 0 c-80 0 -145 2 -145 4 0 2 21 41 46 87 74 134 95
169 98 169 2 0 13 -15 23 -32z"/>
<path d="M7500 915 l0 -675 786 0 c677 0 790 2 817 15 18 8 73 52 123 97 50
46 142 129 206 186 190 169 288 296 288 372 0 47 -37 120 -100 196 -48 58
-381 360 -480 435 l-48 36 -319 6 c-175 4 -533 7 -795 7 l-478 1 0 -676z
m1617 622 c48 -35 308 -262 406 -356 43 -42 98 -105 123 -142 84 -122 70 -184
-74 -340 -82 -88 -395 -371 -456 -413 l-39 -26 -778 0 -779 0 0 649 c0 480 3
650 11 653 7 2 358 3 781 2 l769 -2 36 -25z"/>
<path d="M8238 1172 c-32 -59 -118 -217 -193 -352 -74 -135 -135 -251 -135
-257 0 -10 85 -13 391 -13 l390 0 -7 23 c-3 12 -17 40 -30 63 -32 54 -30 61
11 56 25 -3 35 0 35 9 0 8 -36 79 -80 159 -44 80 -97 178 -117 218 -21 39 -41
72 -46 72 -4 0 -16 -13 -25 -30 -9 -16 -20 -30 -23 -30 -3 0 -24 35 -47 78
-68 127 -59 127 -124 4z m116 -27 l44 -80 -34 -65 c-18 -36 -62 -117 -98 -180
-35 -63 -61 -118 -59 -122 2 -5 93 -8 201 -8 l197 0 33 -60 33 -60 -372 0
-371 0 19 33 c11 17 93 166 183 330 89 164 167 296 172 295 5 -2 28 -39 52
-83z m177 -258 c37 -67 65 -124 63 -126 -2 -2 -5 -2 -7 0 -11 14 -137 249
-137 255 0 16 18 -12 81 -129z m-93 -125 c-66 -1 -123 -1 -125 1 -2 3 23 53
57 113 33 60 60 113 60 119 0 5 29 -44 65 -110 l64 -120 -121 -3z"/>
<path d="M8409 885 c-32 -17 -42 -40 -30 -64 26 -48 68 -50 97 -6 14 22 14 26
-7 54 -26 35 -25 35 -60 16z"/>
</g>
</svg>
