<?xml version="1.0" standalone="no"?>
<!DOCTYPE svg PUBLIC "-//W3C//DTD SVG 20010904//EN"
 "http://www.w3.org/TR/2001/REC-SVG-20010904/DTD/svg10.dtd">
<svg version="1.0" xmlns="http://www.w3.org/2000/svg"
 width="996.000000pt" height="922.000000pt" viewBox="0 0 996.000000 922.000000"
 preserveAspectRatio="xMidYMid meet">
<metadata>
Created by potrace 1.16, written by Peter Selinger 2001-2019
</metadata>
<g transform="translate(0.000000,922.000000) scale(0.100000,-0.100000)"
fill="#FFFFFF" stroke="none">
<path d="M257 8808 c-9 -249 -9 -4488 0 -4630 l6 -108 2939 0 2938 0 0 2465 0
2465 -2938 0 -2939 0 -6 -192z m5863 -2273 l0 -2445 -2918 0 -2919 0 -6 113
c-9 148 -9 4359 0 4594 l6 183 2919 0 2918 0 0 -2445z"/>
<path d="M1172 8244 c-52 -26 -119 -91 -141 -137 -30 -61 -28 -156 3 -222 48
-104 134 -160 246 -159 193 1 325 207 243 381 -25 53 -106 130 -151 143 -56
15 -162 12 -200 -6z m206 -19 c58 -25 120 -92 137 -149 37 -125 -7 -236 -123
-303 -89 -52 -232 -28 -299 51 -63 75 -82 189 -44 271 20 44 79 104 126 128
40 21 154 22 203 2z"/>
<path d="M1231 8044 c-36 -30 -39 -61 -10 -98 27 -34 71 -35 104 -1 14 13 25
36 25 50 0 31 -41 75 -69 75 -11 0 -33 -12 -50 -26z"/>
<path d="M2594 8221 c-121 -81 -160 -190 -113 -318 29 -78 98 -146 170 -167
65 -20 80 -20 153 -1 52 14 63 14 113 -1 93 -27 180 -5 256 65 121 112 115
294 -14 405 -58 49 -96 59 -187 52 -98 -9 -118 -9 -227 -1 l-90 7 -61 -41z
m186 18 c27 -6 50 -14 50 -18 0 -4 -14 -20 -31 -37 -17 -16 -39 -45 -49 -64
-10 -19 -34 -51 -54 -69 -47 -46 -47 -74 3 -120 21 -20 44 -47 51 -60 7 -13
30 -43 52 -67 l39 -42 -57 -12 c-137 -29 -261 51 -294 191 -32 134 56 272 191
298 24 5 45 9 46 10 1 1 25 -4 53 -10z m307 -10 c41 -13 103 -74 128 -124 24
-50 31 -142 15 -191 -25 -75 -119 -154 -202 -169 -29 -6 -148 10 -148 19 0 1
25 28 55 59 30 31 55 63 55 72 0 8 14 22 30 30 33 17 54 57 45 86 -3 10 -20
30 -37 44 -17 14 -42 42 -55 63 -14 20 -39 52 -56 69 -17 18 -28 35 -25 39 10
9 101 21 133 17 17 -3 44 -9 62 -14z m-154 -88 l48 -64 -35 -32 c-20 -18 -36
-37 -36 -41 0 -17 40 -75 55 -80 22 -9 -17 -74 -67 -114 -34 -27 -41 -30 -56
-18 -24 18 -49 48 -72 85 l-20 31 30 30 c40 40 39 75 -1 113 l-31 29 26 44
c28 49 73 87 96 83 8 -1 37 -31 63 -66z"/>
<path d="M4033 8235 c-64 -32 -128 -101 -142 -151 -30 -109 0 -216 82 -291 87
-80 205 -92 308 -30 156 94 183 274 63 416 -68 80 -210 106 -311 56z m222 -14
c111 -51 168 -181 134 -306 -16 -59 -102 -139 -170 -159 -65 -20 -82 -20 -146
-1 -59 18 -126 78 -154 140 -27 58 -25 147 5 211 23 50 79 100 138 124 41 16
150 11 193 -9z"/>
<path d="M4093 8044 c-20 -20 -24 -31 -19 -57 12 -64 82 -88 124 -44 31 33 29
80 -4 106 -36 28 -70 26 -101 -5z"/>
<path d="M4643 8245 c-47 -20 -123 -94 -144 -140 -26 -57 -25 -165 1 -221 50
-103 175 -174 278 -159 148 22 256 158 238 298 -13 92 -73 177 -150 213 -59
28 -170 32 -223 9z m204 -21 c54 -20 117 -90 139 -156 62 -187 -120 -369 -311
-313 -200 58 -239 340 -61 449 73 46 143 52 233 20z"/>
<path d="M4695 8045 c-14 -13 -25 -36 -25 -50 0 -35 42 -75 78 -75 17 0 37 9
50 23 67 71 -35 171 -103 102z"/>
<path d="M2677 6929 c-162 -38 -249 -187 -200 -344 16 -52 17 -64 5 -87 -56
-115 10 -283 134 -344 49 -24 63 -26 135 -22 44 3 85 10 90 15 8 8 21 7 45 -3
50 -21 160 -18 214 7 126 57 185 188 147 327 -13 47 -13 60 0 100 21 67 12
160 -20 215 -67 114 -176 162 -301 132 -59 -13 -72 -13 -123 0 -63 17 -71 17
-126 4z m136 -25 l28 -6 -46 -49 c-25 -27 -51 -62 -56 -78 -6 -15 -21 -33 -35
-40 -14 -6 -31 -26 -39 -45 -9 -22 -23 -36 -40 -40 -15 -4 -46 -27 -71 -51
l-45 -45 -10 27 c-41 108 -8 217 87 289 62 47 125 58 227 38z m284 -13 c50
-25 108 -86 128 -133 18 -44 20 -131 4 -177 l-11 -32 -48 45 c-26 24 -61 51
-78 60 -18 9 -32 22 -32 29 -1 17 -31 52 -58 66 -12 6 -22 17 -22 24 0 7 -22
38 -49 68 l-49 54 42 12 c53 16 125 9 173 -16z m-188 -55 c24 -24 48 -55 55
-67 10 -21 8 -27 -16 -47 -15 -13 -28 -30 -28 -37 0 -17 -38 -45 -62 -45 -9 0
-37 26 -62 58 l-45 59 18 29 c19 30 80 94 91 94 3 0 25 -20 49 -44z m-195
-246 c46 -49 46 -50 32 -79 -9 -16 -33 -43 -55 -60 l-40 -32 -38 24 c-21 14
-51 39 -67 56 l-30 31 35 36 c29 31 91 72 110 74 4 0 27 -22 53 -50z m120 42
c3 -5 -10 -24 -29 -42 -27 -27 -38 -31 -47 -22 -9 9 -4 19 22 42 37 31 46 35
54 22z m113 -20 c27 -24 30 -29 18 -45 -12 -17 -15 -15 -43 19 -28 34 -33 55
-14 54 4 -1 21 -13 39 -28z m156 12 c38 -19 97 -73 97 -89 0 -13 -63 -74 -99
-97 -23 -14 -27 -13 -67 16 -55 41 -69 68 -50 104 8 15 28 36 45 47 17 11 31
23 31 28 0 10 7 9 43 -9z m-194 -49 c17 -20 31 -42 31 -50 0 -14 -68 -75 -83
-75 -11 0 -77 70 -77 81 0 15 68 79 83 79 8 0 29 -16 46 -35z m-292 -154 c18
-7 35 -21 38 -31 3 -9 26 -36 50 -58 25 -23 45 -45 45 -51 0 -6 20 -35 45 -65
l44 -55 -32 -7 c-141 -31 -274 41 -312 170 -18 60 -19 83 -4 142 l11 44 42
-38 c22 -21 55 -44 73 -51z m180 59 c49 -61 40 -79 -14 -30 -20 18 -30 35 -27
45 8 21 15 18 41 -15z m442 -80 c1 -69 -17 -118 -60 -165 -61 -66 -116 -88
-210 -83 -43 1 -80 6 -83 9 -3 3 17 29 44 57 28 29 50 58 50 65 0 8 18 28 39
45 22 18 42 40 45 50 4 11 28 33 54 50 26 16 58 42 72 57 l25 26 12 -33 c6
-18 12 -53 12 -78z m-273 89 c10 -17 -51 -73 -72 -65 -15 6 -13 11 16 41 36
38 45 41 56 24z m-79 -75 c12 -3 27 -19 34 -35 6 -17 21 -36 33 -45 l21 -14
-24 -45 c-13 -24 -39 -56 -58 -71 l-35 -26 -32 31 c-18 18 -43 49 -55 71 -21
37 -21 39 -3 52 10 7 28 30 41 51 22 37 36 42 78 31z"/>
<path d="M1184 6914 c-59 -21 -123 -80 -150 -138 -28 -60 -32 -157 -10 -211
13 -30 13 -38 1 -62 -18 -33 -19 -132 -4 -187 17 -61 109 -152 172 -171 64
-19 100 -19 164 0 60 18 135 81 165 139 26 49 31 163 10 212 -11 27 -11 40 2
85 20 66 20 92 0 159 -20 68 -108 160 -170 178 -54 16 -129 14 -180 -4z m222
-39 c96 -60 143 -176 114 -280 l-13 -45 -59 55 c-32 30 -63 55 -67 55 -4 0
-26 18 -49 40 -22 22 -48 40 -58 40 -9 0 -33 -17 -53 -38 -20 -20 -60 -54 -89
-75 -28 -22 -59 -48 -67 -60 -14 -20 -14 -20 -25 8 -21 54 -14 142 15 201 61
124 232 172 351 99z m-176 -265 c43 -38 56 -38 97 2 l33 32 36 -19 c37 -20 94
-78 94 -96 0 -14 -67 -76 -102 -95 -25 -13 -28 -12 -57 16 -39 39 -74 39 -110
-1 -28 -30 -29 -30 -59 -15 -16 8 -46 34 -66 58 l-36 42 22 24 c25 27 97 82
107 82 3 -1 22 -14 41 -30z m-131 -144 c24 -25 57 -50 72 -56 15 -7 35 -23 44
-36 8 -13 29 -31 46 -39 30 -16 30 -16 74 30 24 25 49 45 54 45 5 0 34 23 65
51 l55 50 8 -28 c4 -15 8 -57 8 -93 0 -53 -5 -74 -27 -111 -49 -83 -156 -137
-250 -126 -127 15 -218 119 -218 249 0 53 10 108 19 108 4 0 26 -20 50 -44z"/>
<path d="M4035 6906 c-60 -28 -115 -80 -141 -132 -22 -45 -26 -175 -6 -211 10
-17 9 -34 -4 -84 -34 -133 14 -246 135 -317 39 -23 57 -27 121 -26 50 0 87 6
111 17 51 25 118 93 140 141 23 50 25 152 5 201 -13 31 -13 39 0 70 20 49 18
151 -6 202 -61 136 -226 200 -355 139z m187 -8 c52 -15 121 -78 148 -133 24
-50 29 -140 11 -188 l-11 -28 -31 36 c-18 20 -51 47 -75 61 -23 14 -50 36 -59
50 -25 39 -56 49 -93 30 -17 -9 -33 -24 -36 -34 -4 -11 -17 -24 -29 -29 -13
-6 -48 -34 -79 -62 l-56 -51 -11 44 c-16 64 -14 98 9 160 45 120 182 183 312
144z m-127 -288 c36 -38 51 -38 92 2 l32 31 41 -18 c23 -10 55 -36 72 -57 30
-38 30 -39 12 -59 -10 -12 -40 -36 -66 -56 l-48 -35 -29 31 c-38 41 -74 41
-112 0 -35 -38 -50 -34 -113 30 -42 43 -47 51 -37 70 13 24 98 91 116 91 6 0
24 -13 40 -30z m-59 -203 c16 -8 39 -29 52 -46 40 -55 52 -50 228 104 l52 45
12 -30 c16 -38 14 -130 -3 -172 -34 -80 -119 -144 -204 -155 -172 -20 -313
139 -273 307 l12 51 48 -45 c26 -24 60 -51 76 -59z"/>
<path d="M4659 6911 c-135 -53 -206 -192 -166 -324 13 -42 13 -54 0 -105 -19
-73 -12 -138 24 -203 48 -90 141 -149 233 -149 105 0 209 68 250 162 20 46 21
62 15 133 -3 44 -6 95 -6 113 1 17 2 71 4 120 2 79 0 91 -25 134 -70 118 -206
167 -329 119z m182 -16 c54 -19 115 -76 140 -130 20 -44 26 -146 10 -188 l-10
-24 -52 48 c-28 27 -62 52 -74 55 -12 3 -27 16 -33 29 -28 61 -98 69 -131 14
-10 -16 -40 -44 -67 -60 -27 -17 -61 -42 -76 -56 l-26 -25 -11 38 c-16 57 -13
97 10 158 45 122 191 186 320 141z m88 -319 l45 -46 -25 -26 c-29 -31 -103
-84 -118 -84 -6 0 -11 6 -11 14 0 21 -39 46 -71 46 -18 0 -36 -11 -53 -31
l-27 -31 -47 29 c-25 16 -57 44 -70 63 l-23 34 37 31 c20 18 52 40 70 50 34
18 35 18 55 -4 45 -49 98 -45 131 9 11 16 15 17 37 5 14 -7 46 -34 70 -59z
m-301 -156 c6 0 30 -20 55 -45 54 -53 86 -58 120 -19 30 36 178 146 185 139
12 -12 14 -132 2 -173 -23 -86 -116 -159 -215 -169 -144 -15 -269 97 -270 242
0 33 4 73 8 88 l8 29 49 -46 c27 -25 53 -46 58 -46z"/>
<path d="M3655 5728 c-3 -7 -4 -310 -3 -673 l3 -660 796 0 796 0 75 65 c287
246 474 431 523 514 76 130 17 224 -350 550 -88 78 -182 159 -208 179 l-49 37
-789 0 c-623 0 -791 -3 -794 -12z m1611 -30 c42 -32 243 -207 357 -311 142
-130 237 -258 237 -318 0 -76 -131 -226 -415 -477 l-200 -177 -785 0 -785 0
-3 610 c-2 336 0 629 3 653 l6 42 778 0 778 0 29 -22z"/>
<path d="M2634 5641 c-134 -61 -198 -193 -159 -326 13 -46 28 -70 73 -115 78
-78 148 -96 261 -66 47 12 60 12 95 -1 58 -21 156 -11 211 22 60 35 120 106
135 160 15 54 8 139 -15 189 -21 45 -84 110 -127 132 -45 23 -143 29 -200 11
-40 -13 -53 -13 -85 -1 -55 19 -141 17 -189 -5z m175 -12 l31 -11 -50 -55
c-27 -30 -50 -60 -50 -67 0 -7 -18 -27 -40 -45 -52 -42 -54 -77 -7 -118 18
-15 44 -44 57 -63 13 -19 39 -52 58 -72 l35 -37 -44 -11 c-96 -26 -206 10
-264 86 -31 40 -55 110 -55 159 0 85 70 188 154 226 46 21 127 25 175 8z m262
1 c51 -14 118 -76 145 -134 90 -193 -92 -403 -298 -346 l-37 11 44 44 c24 25
49 58 56 73 7 16 25 36 41 45 62 36 60 99 -6 138 -19 11 -37 30 -40 42 -3 12
-26 44 -50 70 -26 27 -40 50 -33 52 7 2 19 6 27 8 26 9 114 7 151 -3z m-164
-62 c64 -67 70 -85 40 -117 -39 -41 -39 -79 -1 -118 26 -26 26 -27 9 -59 -9
-17 -34 -49 -56 -70 -37 -36 -39 -37 -58 -20 -11 10 -37 42 -57 72 l-37 53 32
26 c40 35 42 75 4 113 -15 15 -26 34 -24 42 3 17 89 120 100 120 4 0 25 -19
48 -42z"/>
<path d="M1203 5626 c-205 -65 -261 -312 -104 -459 60 -56 104 -71 195 -65 84
6 138 30 186 84 47 54 63 99 64 179 1 85 -30 153 -96 209 -69 59 -159 78 -245
52z m151 -20 c65 -20 106 -54 141 -117 38 -70 42 -171 8 -235 -25 -48 -82
-101 -129 -120 -48 -20 -151 -17 -199 5 -187 85 -199 351 -20 443 79 41 124
46 199 24z"/>
<path d="M1221 5414 c-28 -35 -26 -56 5 -93 17 -21 35 -31 53 -31 34 0 74 40
74 75 0 67 -91 101 -132 49z"/>
<path d="M2625 5026 c-29 -13 -70 -45 -96 -74 -93 -103 -91 -240 3 -347 62
-70 107 -90 203 -89 44 0 89 5 101 11 16 9 29 9 60 -2 93 -33 214 -6 285 65
125 125 96 336 -58 427 -57 33 -157 42 -221 20 -38 -13 -48 -13 -78 -1 -52 22
-141 18 -199 -10z m190 -6 l26 -10 -35 -30 c-19 -17 -44 -51 -56 -75 -12 -25
-25 -45 -29 -45 -5 0 -20 -11 -35 -25 -38 -35 -34 -69 14 -118 23 -23 63 -72
90 -108 l49 -67 -37 -6 c-132 -21 -236 24 -289 127 -38 72 -39 172 -3 236 29
52 82 97 136 116 46 17 132 19 169 5z m280 -9 c51 -23 118 -98 133 -149 54
-181 -77 -344 -266 -329 -35 3 -66 7 -69 11 -3 3 12 25 33 48 22 24 46 57 53
75 7 18 22 35 32 38 25 8 59 53 59 78 0 11 -17 36 -38 56 -21 20 -52 56 -69
81 -17 25 -40 54 -52 64 -27 24 -27 34 2 39 58 11 144 6 182 -12z m-183 -59
c61 -65 68 -90 34 -115 -35 -25 -35 -71 0 -108 24 -25 25 -28 11 -60 -8 -19
-33 -51 -55 -72 l-39 -39 -34 30 c-19 16 -44 47 -56 69 l-22 40 29 28 c38 36
38 65 1 107 -24 27 -27 37 -19 58 9 24 86 110 99 110 3 0 27 -22 51 -48z"/>
<path d="M1197 5026 c-118 -42 -189 -139 -189 -257 0 -187 184 -315 363 -254
93 32 164 122 176 224 22 187 -175 349 -350 287z m168 -23 c70 -23 130 -87
151 -159 51 -178 -76 -336 -259 -322 -72 6 -109 23 -156 70 -188 188 11 498
264 411z"/>
<path d="M1221 4814 c-28 -36 -26 -60 8 -95 35 -34 59 -36 95 -8 54 42 21 129
-49 129 -24 0 -39 -7 -54 -26z"/>
<path d="M6502 6301 c-29 -10 -66 -31 -83 -47 -68 -65 -96 -192 -65 -298 38
-130 104 -180 238 -181 69 0 80 3 120 30 47 33 95 111 85 138 -4 11 -17 17
-34 17 -23 -1 -32 -8 -48 -43 -26 -56 -91 -91 -150 -81 -99 16 -149 85 -149
209 -1 131 61 207 168 209 62 0 98 -19 128 -71 19 -31 25 -34 51 -29 17 3 32
8 34 10 10 10 -40 87 -69 109 -64 48 -140 58 -226 28z"/>
<path d="M6918 6009 c-48 -39 -53 -67 -8 -44 l30 16 0 -101 c0 -93 1 -100 20
-100 19 0 20 7 20 130 0 146 -2 148 -62 99z"/>
<path d="M7102 6033 c-41 -16 -57 -148 -24 -213 18 -37 49 -48 97 -36 63 16
74 214 15 246 -20 10 -66 12 -88 3z m74 -38 c41 -62 21 -185 -29 -185 -39 0
-52 26 -52 100 0 53 4 73 19 89 25 28 42 27 62 -4z"/>
<path d="M8232 3852 c-19 -6 -112 -142 -112 -164 0 -10 8 -19 18 -20 9 0 22
-2 27 -3 6 -2 18 -3 27 -4 9 0 20 -10 23 -21 8 -25 33 -26 42 -2 3 9 13 25 21
34 13 16 13 18 -2 24 -12 5 -16 20 -17 63 -1 69 -10 99 -27 93z m-16 -117 c-5
-26 -12 -35 -26 -35 -26 0 -25 14 2 50 26 36 33 32 24 -15z"/>
<path d="M930 3814 c-48 -43 -51 -58 -10 -49 l30 7 0 -76 c0 -74 1 -76 25 -76
l25 0 0 115 c0 133 -5 138 -70 79z"/>
<path d="M3322 3830 c-12 -12 -22 -27 -22 -35 0 -20 29 -19 51 1 10 9 25 14
34 11 20 -8 19 -41 -2 -58 -23 -20 -93 -109 -93 -120 0 -5 36 -9 80 -9 73 0
80 2 80 20 0 17 -7 20 -40 20 -47 0 -49 8 -14 41 27 25 54 70 54 89 0 6 -11
22 -25 35 -30 31 -73 32 -103 5z"/>
<path d="M5742 3834 c-24 -17 -30 -54 -8 -54 7 0 19 7 26 15 14 17 50 20 50 5
0 -5 -9 -19 -20 -30 -26 -26 -25 -33 3 -45 14 -7 22 -19 22 -35 0 -31 -29 -39
-55 -15 -20 18 -40 13 -40 -9 0 -22 35 -46 68 -46 61 0 94 69 55 112 -13 14
-14 21 -5 30 31 31 -4 88 -53 88 -11 0 -31 -7 -43 -16z"/>
<path d="M263 3538 c-4 -7 -9 -311 -10 -675 l-2 -663 800 0 799 0 90 78 c222
192 292 256 387 355 104 110 153 187 153 242 0 54 -67 153 -180 265 -102 102
-342 315 -422 375 l-40 30 -783 3 c-621 2 -785 0 -792 -10z m1602 -32 c13 -9
53 -42 87 -74 35 -32 95 -84 133 -117 124 -104 245 -219 284 -270 55 -74 91
-139 91 -166 0 -75 -135 -242 -330 -410 -52 -45 -126 -111 -165 -147 -122
-114 -19 -102 -907 -102 l-778 0 0 650 0 649 68 3 c37 2 388 2 780 1 630 -1
716 -3 737 -17z"/>
<path d="M652 3244 c-64 -32 -128 -103 -143 -158 -6 -24 -8 -71 -5 -116 8 -92
8 -105 0 -206 -7 -94 8 -142 66 -208 139 -158 414 -81 461 129 10 45 9 65 -4
122 -15 62 -15 72 -1 118 66 215 -173 419 -374 319z m240 -27 c71 -41 128
-139 127 -217 0 -19 -6 -53 -13 -75 l-12 -40 -18 27 c-10 15 -41 42 -69 60
-29 18 -68 50 -88 70 -20 21 -44 38 -54 38 -10 0 -34 -17 -54 -38 -20 -21 -56
-52 -81 -69 -25 -17 -56 -43 -70 -58 l-25 -27 -6 24 c-14 49 -9 153 10 193 21
48 96 117 143 133 56 19 160 8 210 -21z m-177 -267 c36 -38 56 -38 99 1 35 30
35 30 68 13 45 -22 98 -74 98 -95 0 -17 -64 -75 -107 -98 -18 -9 -26 -7 -52
19 -38 38 -67 38 -107 -1 -30 -29 -33 -30 -60 -16 -16 9 -47 34 -68 56 l-40
40 20 23 c32 38 96 86 115 88 3 0 18 -13 34 -30z m-57 -199 c17 -7 32 -18 32
-23 0 -5 11 -20 25 -33 34 -35 71 -32 109 8 17 19 51 47 76 64 25 17 54 40 64
52 11 11 22 21 26 21 15 0 32 -90 26 -133 -23 -151 -187 -251 -333 -203 -57
19 -124 82 -148 138 -15 37 -20 143 -9 186 6 22 8 21 53 -21 25 -23 61 -49 79
-56z"/>
<path d="M1288 3257 c-86 -33 -160 -117 -179 -206 -22 -106 42 -240 140 -290
20 -11 50 -35 68 -55 42 -49 74 -48 122 2 20 22 52 49 71 62 19 13 49 36 67
53 l31 29 12 -56 c21 -101 -12 -194 -91 -252 -109 -80 -252 -67 -339 32 -58
67 -76 143 -56 243 5 30 5 41 -2 37 -20 -12 -34 -110 -22 -161 13 -58 23 -78
67 -133 51 -63 102 -86 193 -86 84 -1 137 20 199 77 67 63 94 184 62 280 -10
28 -10 45 -1 72 19 58 15 156 -8 202 -52 102 -127 154 -230 160 -41 2 -81 -2
-104 -10z m180 -22 c111 -47 177 -175 151 -295 l-11 -51 -47 44 c-25 24 -60
52 -76 63 -17 10 -44 34 -61 51 -17 18 -40 33 -49 33 -10 0 -37 -20 -59 -44
-23 -23 -54 -50 -71 -59 -16 -8 -43 -29 -59 -46 -17 -17 -33 -31 -37 -31 -13
0 -31 100 -24 137 15 83 94 177 167 200 50 16 134 15 176 -2z m-141 -285 c42
-38 54 -37 97 1 23 19 42 28 53 25 21 -7 113 -94 113 -108 0 -12 -46 -54 -92
-85 l-38 -25 -29 31 c-38 40 -73 41 -113 1 l-30 -30 -39 22 c-21 12 -51 39
-65 60 -23 33 -25 40 -13 54 13 15 109 84 118 84 2 0 19 -13 38 -30z"/>
<path d="M2670 2873 l0 -673 800 0 799 0 223 198 c293 261 398 386 398 477 0
48 -36 115 -107 196 -52 62 -271 264 -422 390 l-94 79 -71 2 c-39 0 -398 2
-798 2 l-728 2 0 -673z m1558 651 c37 -6 64 -25 210 -152 306 -266 434 -413
434 -495 0 -57 -42 -123 -157 -246 -48 -52 -369 -343 -429 -389 l-29 -22 -783
0 -784 0 0 650 0 649 93 3 c186 6 1403 8 1445 2z"/>
<path d="M3253 3426 c-50 -23 -124 -96 -146 -145 -48 -108 -3 -262 96 -328 67
-45 138 -58 218 -39 56 13 71 13 119 0 96 -26 185 -2 259 69 60 58 81 106 81
192 0 85 -22 137 -80 194 -60 58 -111 75 -207 67 -93 -8 -113 -8 -223 -1 -62
4 -94 1 -117 -9z m190 -15 c19 -7 1 -32 -118 -167 -25 -29 -45 -57 -45 -64 0
-21 34 -70 52 -76 10 -3 25 -20 34 -37 9 -18 34 -53 55 -79 l39 -46 -50 -12
c-59 -14 -106 -7 -169 25 -58 29 -84 57 -111 118 -26 59 -29 137 -6 192 19 46
77 109 121 133 56 30 138 35 198 13z m273 -6 c50 -21 111 -82 130 -130 25 -67
17 -180 -18 -232 -31 -47 -104 -98 -162 -114 -38 -11 -138 0 -154 16 -3 2 17
29 44 59 98 109 134 157 134 178 0 11 -17 37 -38 57 -22 20 -49 52 -62 71 -13
19 -36 49 -53 67 l-29 31 43 10 c50 12 119 6 165 -13z m-178 -59 c66 -72 69
-83 33 -120 -39 -40 -39 -66 0 -104 l31 -30 -26 -40 c-14 -22 -42 -53 -62 -68
l-37 -28 -36 40 c-20 23 -42 53 -50 67 -13 24 -12 29 18 62 17 20 31 43 31 51
0 9 -15 31 -34 50 l-33 33 19 33 c26 43 79 98 94 98 6 0 30 -20 52 -44z"/>
<path d="M3295 2831 c-119 -31 -208 -142 -208 -260 0 -76 33 -149 92 -204 62
-58 104 -71 200 -62 90 8 111 8 214 -1 98 -8 149 9 211 72 60 59 79 113 75
206 -4 60 -10 82 -35 123 -37 61 -106 109 -179 126 -47 10 -64 10 -120 -6 -52
-14 -72 -15 -91 -6 -33 15 -122 22 -159 12z m128 -22 c20 -5 37 -13 37 -17 0
-4 -19 -25 -41 -47 -23 -22 -48 -54 -55 -72 -8 -17 -22 -34 -32 -37 -11 -4
-27 -21 -37 -39 -16 -31 -16 -35 -1 -64 9 -18 24 -34 35 -38 10 -3 32 -27 49
-53 17 -26 41 -59 53 -74 13 -15 19 -31 15 -35 -4 -4 -38 -9 -75 -11 -151 -9
-263 97 -264 249 -1 159 161 281 316 238z m305 -18 c48 -24 107 -91 123 -138
6 -19 9 -67 7 -106 -5 -87 -34 -139 -105 -188 -51 -36 -115 -47 -197 -35 l-45
7 47 61 c26 34 66 81 90 104 26 27 42 52 42 68 0 24 -51 86 -71 86 -5 0 -9 5
-9 12 0 6 -20 38 -45 69 -25 32 -45 60 -45 63 0 3 15 10 33 15 46 15 128 6
175 -18z m-175 -75 l48 -64 -31 -30 c-38 -39 -38 -68 1 -108 l31 -32 -22 -34
c-34 -49 -82 -98 -97 -98 -15 0 -89 91 -98 121 -5 14 0 25 19 40 36 29 41 54
16 94 -12 19 -26 35 -31 35 -5 0 -9 9 -9 19 0 24 87 121 108 121 10 0 39 -29
65 -64z"/>
<path d="M5084 3541 c-2 -2 -4 -305 -4 -673 l0 -668 803 0 803 0 90 83 c49 45
116 105 149 132 235 196 385 376 385 463 0 35 -60 135 -123 207 -56 63 -414
385 -471 424 l-40 26 -794 5 c-436 3 -796 3 -798 1z m1624 -48 c114 -78 475
-421 532 -506 70 -103 65 -138 -31 -266 -64 -86 -147 -168 -299 -297 -58 -49
-133 -115 -167 -146 l-62 -58 -791 0 -790 0 0 650 0 650 783 0 784 0 41 -27z"/>
<path d="M5877 3214 c-43 -46 -60 -103 -55 -181 3 -37 9 -77 13 -87 7 -17 6
-18 -11 -12 -88 37 -177 27 -256 -27 -27 -18 -48 -34 -48 -37 0 -11 106 -69
143 -79 36 -9 146 1 170 16 7 4 7 -1 2 -13 -4 -10 -10 -53 -12 -94 -4 -68 -2
-80 24 -130 22 -44 33 -55 52 -55 20 0 31 11 54 55 27 51 29 61 25 143 l-4 88
40 -7 c91 -15 178 6 250 61 20 15 20 15 0 30 -55 43 -120 69 -179 69 -33 1
-72 -2 -86 -6 l-26 -8 5 88 c5 95 -4 127 -51 186 l-23 29 -27 -29z m79 -102
c12 -63 -2 -158 -27 -191 -13 -16 -26 -30 -29 -30 -3 -1 -16 15 -30 35 -45 67
-39 204 12 269 l21 27 24 -38 c12 -22 26 -54 29 -72z m-165 -188 c32 -9 66
-25 75 -35 16 -18 16 -20 0 -38 -43 -47 -184 -53 -268 -11 -27 13 -48 27 -48
32 0 14 122 68 154 68 16 0 56 -7 87 -16z m405 -19 c30 -15 54 -30 54 -34 0
-4 -24 -20 -53 -34 -65 -34 -160 -37 -223 -8 -53 24 -61 38 -38 62 54 53 167
60 260 14z m-262 -89 c16 -21 22 -46 24 -109 3 -70 0 -89 -20 -127 -13 -25
-30 -45 -38 -45 -26 0 -60 83 -60 145 0 65 16 128 38 153 19 22 30 18 56 -17z"/>
<path d="M5651 3114 c-24 -31 -24 -31 -11 -71 10 -28 45 -53 74 -53 7 0 25 9
40 21 33 26 36 79 6 109 -30 30 -83 27 -109 -6z"/>
<path d="M6039 3130 c-9 -5 -22 -23 -29 -40 -10 -25 -10 -34 4 -55 24 -37 60
-51 90 -37 14 6 32 23 42 37 39 60 -43 133 -107 95z"/>
<path d="M5663 2738 c-43 -47 -38 -91 12 -124 21 -14 30 -14 56 -4 40 17 64
62 48 93 -29 56 -82 72 -116 35z"/>
<path d="M6032 2727 c-18 -18 -32 -40 -32 -49 0 -22 57 -78 80 -78 25 0 80 56
80 82 0 25 -52 78 -77 78 -11 0 -33 -15 -51 -33z"/>
<path d="M7893 3542 l-393 -2 0 -670 0 -670 793 0 c761 0 793 1 821 19 16 11
81 66 144 123 382 342 462 433 462 529 0 45 -37 119 -97 193 -42 51 -362 341
-482 436 l-43 35 -407 5 c-223 3 -583 4 -798 2z m1219 -41 c32 -20 306 -260
411 -360 43 -42 98 -105 123 -142 84 -122 70 -184 -75 -341 -71 -77 -375 -353
-452 -411 l-36 -27 -781 0 -782 0 0 650 0 650 328 3 c180 1 532 1 782 -1 398
-4 458 -6 482 -21z"/>
<path d="M8203 3375 c-74 -37 -129 -101 -149 -174 -16 -56 -19 -60 -53 -66
-73 -14 -157 -78 -194 -149 -30 -60 -30 -165 2 -226 44 -85 113 -140 193 -155
31 -6 38 -12 44 -39 17 -80 78 -161 149 -199 53 -29 183 -31 233 -4 86 47 151
134 152 203 0 28 4 32 38 38 80 13 167 78 203 153 26 53 29 161 6 214 -33 79
-147 169 -214 169 -16 0 -24 8 -29 28 -14 66 -28 93 -67 138 -82 93 -209 121
-314 69z m226 -21 c71 -36 124 -107 133 -179 3 -27 0 -29 -62 -46 -36 -10 -66
-18 -68 -19 -1 0 -25 23 -52 51 -43 44 -53 50 -77 45 -16 -4 -35 -16 -43 -27
-38 -54 -61 -71 -83 -64 -12 3 -40 11 -62 17 -54 15 -56 17 -43 66 13 53 88
138 143 163 61 28 149 25 214 -7z m-373 -296 c17 -55 18 -67 6 -90 -7 -16 -20
-28 -28 -28 -24 0 -54 -38 -54 -70 0 -22 10 -37 39 -61 22 -17 43 -39 46 -47
3 -9 -2 -45 -11 -80 -17 -63 -18 -64 -48 -58 -135 27 -227 168 -196 304 14 65
75 138 143 171 70 34 80 30 103 -41z m96 44 c7 -7 -4 -22 -29 -45 -42 -39 -37
-43 -57 37 l-7 29 42 -6 c23 -3 46 -10 51 -15z m407 -29 c-5 -25 -10 -47 -12
-49 -1 -1 -19 13 -40 33 -21 19 -37 36 -35 37 17 14 48 25 69 26 26 0 26 -1
18 -47z m146 12 c108 -63 151 -212 94 -325 -24 -48 -75 -95 -129 -119 -69 -31
-86 -28 -94 17 -3 20 -9 52 -12 70 -6 29 -2 37 40 74 60 54 62 84 7 129 -22
17 -42 38 -46 47 -5 13 5 72 21 131 6 20 65 8 119 -24z m-445 0 c31 -33 76
-33 111 1 15 14 32 23 38 19 12 -7 -24 -53 -125 -162 -47 -52 -52 -55 -75 -43
-28 14 -109 90 -109 102 0 14 75 77 92 78 18 0 60 -46 85 -94 9 -17 18 -26 20
-19 6 17 -20 63 -56 99 -17 17 -28 34 -24 38 11 10 19 7 43 -19z m264 -99 c-4
-10 -34 -36 -66 -57 l-60 -38 -32 32 c-33 31 -33 33 -17 61 9 16 33 47 55 69
l38 39 45 -44 c32 -32 42 -49 37 -62z m-318 -106 c8 0 14 -4 14 -10 0 -5 -6
-10 -14 -10 -8 0 -40 -23 -70 -51 -38 -35 -56 -46 -56 -35 0 9 11 29 25 44 14
15 25 36 25 48 0 12 -11 38 -25 58 -40 59 -29 62 31 7 30 -28 62 -51 70 -51z
m348 82 c3 -5 -8 -22 -24 -37 -40 -38 -40 -75 1 -109 26 -22 29 -29 18 -42
-11 -13 -18 -9 -58 30 -25 25 -57 49 -70 54 -24 9 -23 10 30 44 29 19 60 42
68 51 15 19 27 22 35 9z m-287 -143 l32 -32 -32 -46 c-33 -49 -65 -80 -82 -81
-6 0 -28 18 -49 39 l-38 39 27 37 c23 29 83 72 105 75 2 0 19 -14 37 -31z
m161 17 c15 -8 45 -33 67 -55 l39 -41 -39 -40 c-21 -22 -44 -40 -51 -40 -15 0
-81 73 -96 106 -10 21 -8 28 17 54 34 35 29 34 63 16z m-36 -162 c24 -25 26
-32 14 -37 -9 -4 -22 4 -34 20 -25 35 -81 37 -115 5 -40 -38 -51 -24 -14 17
20 22 43 54 52 72 l17 31 25 -38 c14 -22 39 -53 55 -70z m-232 -22 c8 -6 -23
-20 -58 -27 -19 -3 -36 -4 -38 -2 -3 3 0 26 7 51 l12 47 36 -33 c20 -18 38
-34 41 -36z m394 36 c10 -38 7 -68 -6 -68 -7 0 -30 5 -51 11 l-39 10 39 34
c45 41 49 42 57 13z m-328 -71 c0 -1 8 -14 17 -29 40 -64 99 -72 131 -17 31
53 52 60 124 41 57 -15 62 -19 62 -45 0 -70 -60 -144 -149 -185 -103 -47 -233
-14 -295 76 -23 34 -61 132 -54 137 17 11 119 32 138 28 14 -2 25 -5 26 -6z"/>
<path d="M3328 1840 c-29 -29 -30 -34 -26 -95 5 -77 25 -105 74 -105 66 0 98
80 53 129 -17 18 -29 22 -55 18 -37 -6 -39 -5 -24 24 13 23 45 25 54 4 7 -20
36 -8 36 16 0 21 -28 39 -60 39 -12 0 -35 -14 -52 -30z m80 -135 c-2 -14 -11
-20 -28 -20 -32 0 -41 42 -14 62 16 12 21 11 32 -4 7 -10 11 -27 10 -38z"/>
<path d="M8157 1859 c-14 -8 -18 -22 -17 -62 1 -29 -2 -67 -5 -85 -10 -44 15
-72 64 -72 45 0 57 8 71 44 8 22 7 35 -5 59 -10 21 -12 34 -5 41 17 17 11 54
-12 70 -26 18 -65 20 -91 5z m69 -40 c8 -14 -21 -43 -35 -35 -6 4 -11 16 -11
27 0 21 34 27 46 8z m-1 -109 c0 -18 -6 -26 -23 -28 -13 -2 -25 3 -28 12 -10
26 4 48 28 44 17 -2 23 -10 23 -28z"/>
<path d="M906 1838 c-3 -13 -7 -40 -10 -62 -6 -41 -5 -41 61 -21 18 6 25 2 32
-16 5 -14 5 -31 -1 -41 -9 -19 -43 -24 -53 -8 -7 12 -45 14 -45 2 0 -25 34
-52 64 -52 51 0 81 29 81 80 0 48 -21 70 -67 70 -48 0 -35 28 14 32 31 2 44 8
46 21 3 15 -5 17 -57 17 -55 0 -61 -2 -65 -22z"/>
<path d="M5710 1845 c0 -11 12 -15 49 -15 l50 0 -30 -64 c-38 -81 -42 -120
-13 -124 18 -3 22 3 27 39 3 23 22 73 41 110 l36 69 -80 0 c-64 0 -80 -3 -80
-15z"/>
<path d="M257 1433 c-9 -215 -9 -939 -1 -1079 l7 -114 796 1 796 0 95 85 c52
46 138 122 190 168 124 108 272 264 304 319 14 24 28 64 32 88 5 38 0 52 -33
109 -45 77 -136 174 -268 290 -54 47 -142 124 -196 172 -54 48 -109 93 -121
100 -18 10 -186 14 -809 16 l-786 3 -6 -158z m1560 128 c29 -6 59 -23 95 -55
29 -25 94 -81 143 -123 160 -137 275 -247 314 -298 57 -76 91 -139 91 -169 0
-72 -127 -229 -334 -410 -56 -50 -142 -126 -191 -169 l-87 -77 -783 0 -783 0
-7 220 c-4 121 -4 416 0 655 l7 435 747 -1 c410 0 765 -3 788 -8z"/>
<path d="M967 1166 c-117 -42 -203 -181 -182 -294 15 -82 77 -166 150 -205 60
-32 173 -31 238 3 56 28 112 86 134 139 20 47 21 156 1 202 -24 55 -87 119
-143 145 -57 27 -138 31 -198 10z m202 -32 c52 -26 101 -80 123 -134 18 -45
13 -151 -10 -196 -47 -92 -150 -151 -248 -141 -113 12 -188 75 -220 185 -60
204 162 382 355 286z"/>
<path d="M1013 969 c-26 -17 -33 -28 -33 -53 0 -69 87 -103 129 -50 34 43 26
86 -20 109 -36 19 -38 19 -76 -6z"/>
<path d="M2676 1582 c-3 -3 -6 -306 -6 -674 l0 -668 799 0 799 0 183 162 c291
256 412 390 439 486 19 71 -58 187 -235 352 -105 97 -310 278 -356 313 l-36
27 -791 4 c-435 2 -793 2 -796 -2z m1609 -39 c73 -53 435 -385 487 -447 32
-38 70 -93 84 -123 26 -53 26 -54 9 -99 -38 -99 -227 -296 -538 -557 l-67 -57
-785 0 -785 0 0 650 0 650 383 2 c210 2 562 3 782 3 395 0 400 0 430 -22z"/>
<path d="M3071 1468 c-20 -5 -59 -35 -96 -71 -67 -68 -75 -87 -75 -191 0 -114
76 -219 181 -250 66 -20 102 -20 169 0 64 19 150 100 171 161 21 60 16 152
-10 206 -28 58 -106 129 -159 145 -46 14 -133 14 -181 0z m204 -32 c107 -49
164 -176 130 -291 -29 -102 -116 -172 -226 -182 -49 -5 -66 -1 -121 24 -53 25
-70 39 -99 84 -30 47 -34 63 -38 131 -2 64 1 85 19 122 57 119 210 171 335
112z"/>
<path d="M3115 1265 c-30 -30 -32 -64 -4 -99 27 -34 71 -35 104 -1 32 31 32
62 -2 97 -33 35 -66 36 -98 3z"/>
<path d="M3674 1461 c-56 -25 -121 -85 -146 -135 -46 -88 -21 -225 55 -304 54
-57 102 -77 187 -77 62 1 84 5 126 27 58 30 107 81 130 136 25 58 23 158 -5
214 -28 58 -110 134 -159 148 -58 16 -142 12 -188 -9z m215 -27 c198 -99 175
-384 -36 -460 -186 -66 -375 116 -320 307 18 61 87 137 147 163 57 25 147 20
209 -10z"/>
<path d="M3733 1270 c-27 -16 -33 -26 -33 -54 0 -68 88 -102 129 -50 28 35 26
69 -4 99 -29 30 -50 31 -92 5z"/>
<path d="M3073 864 c-56 -21 -127 -85 -153 -139 -19 -38 -21 -59 -19 -129 4
-76 7 -88 39 -135 60 -89 140 -127 246 -118 99 8 192 74 232 166 36 84 14 200
-54 280 -65 78 -194 111 -291 75z m171 -15 c58 -16 131 -90 157 -158 37 -99
11 -193 -77 -270 -56 -49 -108 -65 -187 -58 -73 7 -139 45 -182 106 -26 38
-30 52 -33 125 -3 68 0 90 16 122 58 112 184 167 306 133z"/>
<path d="M3115 665 c-30 -30 -32 -64 -4 -99 41 -52 129 -19 129 49 0 27 -52
75 -81 75 -11 0 -31 -11 -44 -25z"/>
<path d="M3686 866 c-116 -43 -202 -182 -181 -295 17 -94 107 -198 190 -221
55 -16 150 -8 194 14 51 27 113 87 132 131 26 56 26 173 0 223 -23 46 -93 117
-135 139 -43 22 -152 27 -200 9z m165 -16 c47 -13 124 -81 150 -133 17 -33 20
-54 17 -122 -4 -98 -25 -136 -107 -193 -51 -35 -57 -37 -135 -37 -90 1 -121
12 -175 67 -74 74 -98 199 -54 283 29 54 92 113 139 130 47 17 115 19 165 5z"/>
<path d="M3733 670 c-27 -16 -33 -26 -33 -53 0 -68 82 -103 128 -54 29 31 28
72 -3 102 -29 30 -50 31 -92 5z"/>
<path d="M5087 1584 c-4 -4 -7 -308 -7 -676 l0 -668 801 0 802 0 74 68 c41 37
113 100 161 140 251 212 392 381 392 471 0 34 -59 132 -123 205 -64 74 -431
401 -487 434 l-45 27 -780 3 c-429 2 -784 0 -788 -4z m1536 -21 c62 -7 91 -28
279 -194 271 -242 388 -378 388 -454 0 -78 -152 -258 -380 -450 -58 -49 -133
-115 -167 -147 l-61 -58 -791 0 -791 0 0 649 0 650 53 4 c85 6 1418 6 1470 0z"/>
<path d="M5763 1346 c-156 -51 -280 -198 -306 -365 -30 -195 72 -395 245 -480
128 -63 296 -51 413 29 135 93 216 258 201 411 -12 128 -58 221 -155 312 -79
74 -146 101 -261 104 -61 2 -110 -2 -137 -11z m290 -39 c161 -73 268 -276 240
-457 -32 -205 -189 -357 -382 -368 -175 -10 -319 76 -393 233 -97 209 -36 438
149 561 77 51 129 64 238 60 71 -2 102 -8 148 -29z"/>
<path d="M5773 1243 c-155 -64 -230 -186 -221 -357 5 -100 30 -157 98 -226 75
-74 127 -95 235 -95 78 0 97 4 140 27 66 34 147 121 171 183 14 36 19 75 19
140 0 78 -4 98 -27 145 -38 77 -86 130 -149 165 -46 24 -67 30 -139 32 -64 2
-96 -1 -127 -14z m259 -36 c63 -37 123 -108 149 -176 45 -120 9 -283 -81 -365
-72 -65 -114 -81 -215 -81 -75 0 -97 4 -133 23 -63 34 -114 84 -147 144 -41
75 -47 196 -15 282 29 76 86 137 164 177 57 29 67 30 147 27 70 -3 93 -9 131
-31z"/>
<path d="M5794 1146 c-46 -20 -102 -74 -127 -120 -32 -62 -30 -164 5 -232 48
-91 117 -134 216 -134 82 0 170 59 214 145 25 48 30 165 9 205 -28 52 -82 109
-124 129 -50 24 -145 28 -193 7z m185 -25 c43 -22 97 -80 113 -120 19 -49 14
-143 -11 -194 -23 -48 -77 -99 -125 -117 -46 -17 -117 -12 -173 14 -90 42
-139 158 -113 267 15 62 66 124 125 150 53 25 135 24 184 0z"/>
<path d="M5788 1022 c-37 -35 -42 -45 -46 -94 -5 -61 9 -97 53 -138 23 -21 36
-25 90 -25 54 0 68 4 90 25 75 69 73 178 -5 244 -26 21 -42 26 -86 26 -50 0
-59 -4 -96 -38z m161 3 c33 -17 61 -70 61 -115 0 -106 -105 -165 -191 -107
-78 52 -79 156 -3 216 32 25 92 28 133 6z"/>
<path d="M5849 944 c-22 -23 -23 -27 -8 -52 18 -33 54 -40 80 -16 26 24 24 49
-7 73 -34 26 -36 26 -65 -5z"/>
<path d="M7753 1583 l-253 -3 0 -670 0 -670 794 0 794 0 49 37 c26 20 89 74
138 119 50 45 126 114 170 154 110 98 229 232 256 286 58 122 -18 237 -358
533 -214 187 -236 203 -291 212 -44 7 -721 8 -1299 2z m1354 -38 c38 -24 307
-260 416 -364 43 -42 98 -105 123 -142 91 -133 73 -190 -124 -388 -135 -135
-342 -321 -406 -365 l-39 -26 -778 0 -779 0 0 649 c0 510 3 650 13 654 6 3
356 4 777 3 747 -1 766 -1 797 -21z"/>
<path d="M8024 1350 c-42 -13 -130 -93 -154 -141 -30 -57 -36 -137 -16 -197
21 -61 83 -135 140 -164 44 -23 142 -30 202 -15 l30 8 -4 -90 c-4 -85 -3 -92
27 -147 17 -31 28 -61 25 -66 -4 -6 -30 -21 -58 -34 -141 -66 -306 14 -348
169 -15 57 0 146 33 190 11 16 18 31 16 34 -20 19 -64 -67 -73 -140 -12 -102
53 -220 148 -268 84 -43 207 -34 270 19 29 25 31 25 56 8 77 -50 164 -67 238
-47 86 23 170 112 195 206 15 53 -2 145 -35 196 l-25 38 32 62 c26 51 32 73
31 124 -2 192 -210 324 -379 240 -27 -13 -57 -30 -65 -36 -12 -9 -27 -4 -69
22 -45 28 -64 34 -120 36 -36 1 -80 -2 -97 -7z m181 -30 c78 -37 79 -40 45
-101 -25 -46 -30 -65 -30 -126 0 -39 4 -83 10 -97 l9 -25 -41 15 c-80 28 -171
15 -237 -34 l-34 -25 -23 26 c-34 40 -50 125 -35 191 33 150 204 240 336 176z
m359 9 c47 -13 120 -79 149 -134 33 -62 30 -156 -6 -217 -15 -27 -30 -48 -32
-48 -2 0 -27 15 -56 33 -47 29 -60 32 -128 32 -42 0 -89 -4 -105 -9 -27 -8
-28 -7 -20 15 5 13 9 61 9 105 0 76 -2 85 -32 126 l-31 44 31 21 c18 12 43 26
57 32 34 13 116 13 164 0z m-220 -134 c30 -63 17 -184 -26 -244 -20 -29 -34
-21 -59 33 -29 63 -26 159 7 225 25 49 27 51 44 36 10 -9 26 -32 34 -50z
m-143 -230 c24 -9 52 -25 62 -36 18 -19 18 -21 1 -40 -20 -22 -102 -49 -149
-49 -83 0 -195 61 -162 88 58 48 168 65 248 37z m383 -5 c23 -11 50 -27 60
-35 20 -15 20 -15 0 -30 -50 -39 -80 -49 -154 -49 -58 0 -85 5 -117 22 -51 26
-59 38 -41 59 43 52 178 70 252 33z m140 -153 c21 -63 20 -95 -5 -161 -25 -69
-97 -137 -164 -156 -115 -32 -248 28 -296 134 -33 73 -20 213 23 252 17 16 19
16 37 0 47 -42 53 -187 13 -265 -25 -48 -24 -61 2 -32 40 44 59 163 37 237
l-9 31 42 -15 c77 -27 213 1 255 52 12 14 15 13 31 -7 10 -12 25 -44 34 -70z"/>
<path d="M8056 1138 c-22 -30 -20 -81 2 -101 30 -27 87 -22 111 9 12 15 21 37
21 49 0 57 -102 90 -134 43z"/>
<path d="M8430 1140 c-44 -44 -8 -120 58 -120 61 0 97 84 54 123 -26 24 -87
22 -112 -3z"/>
<path d="M8430 780 c-47 -47 -9 -120 61 -120 43 0 58 15 66 64 4 27 1 42 -12
56 -25 27 -88 27 -115 0z"/>
<path d="M8083 800 c-27 -11 -43 -40 -43 -79 0 -60 90 -85 129 -35 12 15 21
37 21 50 0 21 -34 64 -51 64 -4 0 -13 2 -21 4 -7 3 -23 1 -35 -4z"/>
</g>
</svg>
