<?xml version="1.0" standalone="no"?>
<!DOCTYPE svg PUBLIC "-//W3C//DTD SVG 20010904//EN"
 "http://www.w3.org/TR/2001/REC-SVG-20010904/DTD/svg10.dtd">
<svg version="1.0" xmlns="http://www.w3.org/2000/svg"
 width="996.000000pt" height="922.000000pt" viewBox="0 0 996.000000 922.000000"
 preserveAspectRatio="xMidYMid meet">
<metadata>
Created by potrace 1.16, written by Peter Selinger 2001-2019
</metadata>
<g transform="translate(0.000000,922.000000) scale(0.100000,-0.100000)"
fill="#FFFFFF" stroke="none">
<path d="M257 8893 c-9 -138 -9 -4598 0 -4725 l6 -98 2939 0 2938 0 0 2465 0
2465 -2938 0 -2939 0 -6 -107z m5863 -2358 l0 -2445 -2918 0 -2919 0 -6 143
c-9 188 -9 4410 -1 4600 l7 147 2919 0 2918 0 0 -2445z"/>
<path d="M1245 8620 c-98 -22 -165 -104 -165 -201 0 -35 50 -129 81 -152 90
-65 241 -28 291 73 28 55 24 138 -8 186 -52 76 -126 111 -199 94z"/>
<path d="M765 8606 c-44 -19 -103 -89 -111 -131 -16 -85 18 -166 89 -213 33
-22 52 -27 103 -27 53 0 69 4 105 30 52 37 89 103 89 159 0 57 -36 124 -88
163 -38 28 -51 33 -100 33 -31 -1 -70 -7 -87 -14z"/>
<path d="M1622 8599 c-66 -33 -95 -79 -100 -155 -5 -78 8 -112 59 -158 46 -42
104 -59 166 -50 36 5 56 17 94 53 96 93 86 222 -24 302 -51 37 -129 40 -195 8z"/>
<path d="M2321 8590 c-97 -71 -117 -173 -51 -271 40 -61 81 -83 155 -83 71 1
111 19 154 71 42 51 55 101 40 156 -27 103 -94 157 -196 157 -51 0 -66 -5
-102 -30z"/>
<path d="M2775 8602 c-80 -49 -125 -139 -105 -210 13 -52 62 -117 102 -138 53
-28 134 -24 190 9 62 36 103 115 95 183 -6 54 -47 118 -96 151 -44 30 -141 32
-186 5z"/>
<path d="M3913 8594 c-144 -86 -113 -311 50 -355 152 -41 292 115 231 259 -18
43 -58 88 -96 108 -45 24 -136 18 -185 -12z"/>
<path d="M1205 8177 c-83 -38 -133 -119 -122 -198 8 -57 55 -129 102 -156 46
-26 118 -30 168 -10 45 19 105 89 113 132 16 88 -19 179 -87 219 -40 24 -135
31 -174 13z"/>
<path d="M2790 8174 c-77 -33 -121 -98 -122 -178 -1 -63 17 -100 71 -149 123
-111 316 -17 316 155 0 47 -5 63 -31 99 -58 79 -152 109 -234 73z"/>
<path d="M4375 8179 c-11 -6 -39 -30 -63 -53 -160 -153 31 -407 227 -301 71
39 96 83 96 169 0 80 -17 114 -82 163 -28 21 -49 28 -97 30 -34 2 -70 -2 -81
-8z"/>
<path d="M765 7141 c-76 -35 -115 -95 -115 -177 0 -74 56 -158 123 -183 107
-41 250 39 264 147 9 67 -5 110 -50 159 -68 74 -141 92 -222 54z"/>
<path d="M1205 7146 c-38 -18 -101 -83 -114 -119 -16 -42 -13 -97 8 -142 59
-129 223 -155 320 -50 47 51 55 76 49 149 -5 59 -30 101 -85 143 -42 32 -130
42 -178 19z"/>
<path d="M1635 7144 c-77 -40 -115 -99 -115 -179 0 -67 15 -99 69 -148 113
-102 291 -29 316 129 7 44 -4 82 -42 136 -47 69 -158 99 -228 62z"/>
<path d="M2360 7147 c-93 -49 -123 -93 -124 -182 -1 -51 4 -68 27 -104 47 -71
114 -100 203 -86 50 7 114 56 140 106 17 33 18 116 3 156 -34 92 -169 151
-249 110z"/>
<path d="M2785 7141 c-103 -48 -149 -172 -97 -266 16 -31 74 -83 105 -94 77
-29 177 1 226 69 57 79 51 167 -18 243 -61 68 -137 85 -216 48z"/>
<path d="M3930 7137 c-127 -67 -148 -220 -43 -319 76 -72 206 -62 276 22 76
90 55 220 -47 288 -60 40 -121 43 -186 9z"/>
<path d="M794 6721 c-39 -10 -64 -27 -96 -66 -39 -46 -48 -70 -48 -120 0 -61
19 -102 69 -150 39 -37 46 -40 110 -43 55 -3 76 0 109 17 92 47 128 169 79
261 -42 78 -140 122 -223 101z"/>
<path d="M1205 6712 c-101 -49 -149 -156 -109 -250 33 -81 95 -122 182 -122
157 0 247 166 160 296 -40 58 -76 81 -143 89 -38 4 -60 1 -90 -13z"/>
<path d="M2365 6715 c-57 -20 -122 -94 -130 -149 -9 -59 10 -120 51 -165 46
-52 80 -64 159 -59 53 3 71 9 101 34 58 47 76 87 72 166 -3 57 -8 72 -34 105
-17 21 -44 45 -60 54 -43 25 -112 31 -159 14z"/>
<path d="M2802 6719 c-51 -15 -116 -86 -131 -143 -17 -71 -1 -119 64 -183 l52
-53 67 0 c73 0 106 13 148 57 80 84 74 202 -15 280 -55 48 -116 62 -185 42z"/>
<path d="M3958 6721 c-43 -14 -98 -62 -120 -104 -15 -31 -19 -54 -16 -98 8
-108 84 -179 192 -179 68 0 100 15 149 69 77 85 54 220 -49 290 -35 24 -114
35 -156 22z"/>
<path d="M4385 6715 c-22 -8 -59 -34 -82 -58 -70 -75 -70 -176 3 -256 45 -51
80 -64 156 -59 75 4 117 31 155 96 35 59 30 152 -10 205 -55 72 -144 101 -222
72z"/>
<path d="M3655 5728 c-3 -7 -4 -310 -3 -673 l3 -660 795 0 795 0 30 23 c158
123 529 485 570 556 59 101 29 182 -124 340 -69 71 -299 278 -427 384 l-50 42
-792 0 c-625 0 -794 -3 -797 -12z m1735 -134 c233 -204 328 -293 379 -358 55
-69 91 -135 91 -166 0 -76 -131 -227 -415 -478 l-200 -177 -785 0 -785 0 -3
600 c-2 330 0 624 3 653 l6 52 782 0 783 0 144 -126z"/>
<path d="M3952 5068 l3 -493 490 0 490 0 3 493 2 492 -495 0 -495 0 2 -492z
m968 -3 l0 -475 -469 0 -468 0 -7 46 c-8 61 -8 661 1 797 l6 107 469 0 468 0
0 -475z"/>
<path d="M770 5679 c-56 -25 -77 -44 -101 -91 -39 -76 -13 -191 55 -243 76
-58 175 -53 247 12 63 57 86 138 58 210 -24 64 -119 133 -184 133 -16 0 -50
-10 -75 -21z"/>
<path d="M1205 5682 c-101 -49 -149 -156 -109 -250 33 -80 99 -125 185 -125
66 0 114 25 157 81 24 32 27 44 27 113 0 71 -2 80 -31 116 -61 75 -153 101
-229 65z"/>
<path d="M1652 5689 c-48 -14 -119 -89 -128 -134 -21 -114 31 -210 131 -241
52 -17 58 -17 109 -1 133 42 184 191 102 300 -54 72 -132 99 -214 76z"/>
<path d="M2366 5685 c-69 -25 -135 -109 -136 -175 -1 -124 126 -231 237 -201
54 15 118 64 139 109 22 46 22 127 1 169 -22 41 -79 87 -126 102 -48 14 -67
13 -115 -4z"/>
<path d="M2795 5684 c-92 -34 -148 -135 -124 -228 17 -67 79 -130 145 -145 69
-16 118 -3 177 49 38 34 48 50 58 95 15 68 4 113 -43 169 -56 68 -132 90 -213
60z"/>
<path d="M741 5229 c-66 -51 -84 -80 -89 -147 -9 -122 70 -205 195 -206 53 -1
67 3 104 29 52 37 89 103 89 159 0 54 -35 122 -83 160 -32 26 -49 31 -105 34
-64 4 -70 2 -111 -29z"/>
<path d="M1179 5232 c-24 -16 -51 -38 -60 -48 -21 -25 -39 -79 -39 -119 0 -46
49 -136 88 -162 108 -71 261 -14 297 111 13 46 13 57 0 102 -9 32 -28 62 -52
85 -52 50 -73 59 -135 59 -42 0 -64 -6 -99 -28z"/>
<path d="M2342 5243 c-73 -36 -120 -125 -107 -204 8 -47 51 -114 91 -139 65
-43 166 -34 230 22 48 42 64 77 64 139 0 116 -80 199 -189 199 -31 0 -71 -8
-89 -17z"/>
<path d="M2775 5241 c-87 -54 -128 -142 -103 -224 24 -81 114 -147 198 -147
40 1 102 34 137 73 81 92 64 213 -40 288 -34 24 -50 29 -101 29 -42 0 -70 -6
-91 -19z"/>
<path d="M761 4808 c-25 -13 -58 -41 -75 -62 -28 -35 -31 -44 -31 -111 0 -67
3 -76 31 -112 50 -61 89 -83 151 -83 194 0 273 229 121 353 -52 42 -136 48
-197 15z"/>
<path d="M2360 4819 c-43 -17 -110 -90 -121 -133 -33 -121 62 -246 187 -246
64 0 138 41 170 95 26 46 32 122 13 172 -34 90 -161 147 -249 112z"/>
<path d="M6522 6311 c-140 -36 -215 -198 -166 -361 37 -125 104 -174 236 -175
69 0 80 3 120 30 28 20 52 49 71 84 29 59 26 71 -25 71 -21 0 -28 -6 -33 -30
-19 -85 -155 -122 -241 -65 -53 35 -82 157 -61 258 13 60 68 113 132 128 47
10 57 9 91 -7 22 -11 50 -36 64 -57 21 -34 28 -38 54 -33 16 4 31 8 34 10 5 6
-27 67 -47 90 -42 48 -154 76 -229 57z"/>
<path d="M6922 6012 c-47 -41 -60 -76 -17 -48 13 9 27 16 30 16 3 0 5 -45 5
-100 0 -92 2 -100 19 -100 19 0 19 7 17 130 -2 72 -5 133 -7 135 -2 2 -23 -13
-47 -33z"/>
<path d="M7090 5999 c-43 -38 -39 -45 13 -24 15 7 17 -2 17 -94 0 -83 3 -101
15 -101 13 0 15 21 15 130 0 72 -3 130 -7 130 -5 0 -28 -19 -53 -41z"/>
<path d="M930 3814 c-56 -50 -52 -66 10 -40 13 5 15 -6 12 -74 l-4 -80 26 0
26 0 0 115 c0 133 -5 138 -70 79z"/>
<path d="M3322 3827 c-12 -13 -22 -29 -22 -35 0 -17 35 -15 50 3 7 8 21 15 31
15 24 0 26 -42 2 -61 -23 -20 -93 -109 -93 -120 0 -5 36 -9 80 -9 73 0 80 2
80 20 0 17 -7 20 -40 20 -22 0 -40 3 -40 6 0 4 16 24 35 45 46 51 50 90 13
122 -28 24 -70 21 -96 -6z"/>
<path d="M5742 3834 c-12 -8 -22 -21 -22 -29 0 -23 20 -28 39 -11 10 9 23 16
29 16 23 0 22 -21 -3 -44 l-26 -24 28 -14 c19 -9 28 -21 28 -38 0 -31 -29 -39
-55 -15 -20 18 -40 13 -40 -9 0 -43 85 -61 120 -26 24 24 26 72 5 90 -11 9
-13 16 -5 24 31 31 -5 96 -55 96 -11 0 -31 -7 -43 -16z"/>
<path d="M8170 3778 c-63 -90 -64 -104 -6 -112 33 -5 45 -12 49 -27 7 -26 40
-22 46 6 2 11 11 25 20 32 15 11 15 12 -1 18 -14 6 -18 19 -18 65 0 113 -20
118 -90 18z m46 -20 c-3 -13 -5 -31 -5 -40 -1 -19 -41 -26 -41 -8 0 10 40 70
47 70 1 0 1 -10 -1 -22z"/>
<path d="M333 3543 l-73 -4 0 -654 c0 -359 -3 -660 -6 -669 -6 -15 69 -16 794
-16 l801 0 90 78 c212 182 292 255 388 355 104 110 153 187 153 242 0 53 -68
153 -180 265 -104 105 -343 317 -421 375 l-41 30 -716 1 c-395 0 -750 -1 -789
-3z m1530 -36 c15 -9 55 -43 89 -75 35 -32 95 -84 133 -117 239 -199 375 -359
375 -437 0 -68 -118 -220 -287 -371 -246 -219 -296 -263 -316 -274 -17 -9
-206 -12 -799 -13 l-778 0 0 649 0 650 48 3 c26 2 376 3 778 3 671 -1 734 -2
757 -18z"/>
<path d="M565 3484 c-111 -57 -153 -165 -102 -264 61 -120 206 -148 303 -58
107 99 82 254 -53 322 -40 20 -109 21 -148 0z"/>
<path d="M570 3055 c-129 -59 -169 -204 -83 -305 46 -53 83 -71 148 -71 63 0
96 15 150 70 36 38 39 46 43 106 4 55 1 70 -21 108 -50 85 -159 127 -237 92z"/>
<path d="M1015 3059 c-41 -12 -109 -71 -125 -108 -7 -19 -11 -57 -8 -96 3 -53
9 -71 34 -102 41 -51 87 -73 152 -73 65 0 112 20 152 66 82 94 49 242 -70 302
-46 23 -84 26 -135 11z"/>
<path d="M600 2631 c-188 -57 -216 -274 -49 -366 67 -36 123 -34 185 8 82 54
114 141 85 230 -15 46 -88 112 -137 126 -44 12 -49 12 -84 2z"/>
<path d="M2675 3541 c-3 -2 -5 -305 -5 -673 l0 -668 800 0 799 0 228 204 c361
323 433 428 373 545 -31 63 -115 160 -213 250 -133 122 -316 282 -357 313
l-36 27 -792 4 c-436 2 -795 1 -797 -2z m1557 -19 c32 -2 58 -21 205 -149 289
-254 397 -370 430 -466 12 -34 11 -43 -7 -84 -26 -58 -106 -157 -207 -253 -99
-95 -325 -297 -366 -327 l-31 -23 -783 0 -783 0 0 650 0 650 358 2 c363 3
1117 3 1184 0z"/>
<path d="M3430 3059 c-42 -13 -107 -72 -126 -116 -37 -86 9 -202 98 -249 35
-18 131 -18 167 0 37 20 99 89 107 121 4 14 4 49 2 76 -12 119 -134 201 -248
168z"/>
<path d="M2996 2626 c-44 -16 -100 -67 -123 -110 -10 -20 -14 -48 -11 -92 3
-52 9 -70 34 -101 37 -47 106 -83 157 -83 82 0 180 84 192 165 22 141 -121
267 -249 221z"/>
<path d="M3428 2624 c-56 -17 -124 -88 -134 -140 -24 -131 81 -254 207 -242
62 6 125 48 156 103 28 50 31 138 6 175 -64 97 -143 132 -235 104z"/>
<path d="M3870 2628 c-75 -21 -134 -88 -146 -164 -16 -111 85 -223 202 -224
47 0 119 41 151 86 72 101 38 229 -76 287 -58 29 -76 31 -131 15z"/>
<path d="M5084 3541 c-2 -2 -4 -305 -4 -673 l0 -668 803 0 802 1 55 50 c30 28
114 101 185 163 248 215 385 380 385 463 0 37 -59 134 -128 213 -66 75 -429
397 -485 430 l-42 25 -783 0 c-431 0 -786 -2 -788 -4z m1534 -18 c65 -7 93
-25 249 -162 197 -175 366 -349 396 -410 35 -72 34 -94 -10 -169 -51 -86 -149
-190 -311 -329 -75 -65 -165 -144 -199 -175 l-62 -58 -791 0 -790 0 0 650 0
650 363 3 c583 5 1098 5 1155 0z"/>
<path d="M6236 3468 c-26 -17 -59 -48 -73 -69 -22 -34 -25 -47 -21 -103 3 -54
9 -72 34 -102 49 -61 78 -77 141 -82 111 -7 198 65 209 173 8 78 -21 136 -90
183 -67 45 -133 45 -200 0z"/>
<path d="M5820 3048 c-58 -30 -107 -95 -116 -153 -5 -37 -2 -55 21 -100 44
-91 119 -131 214 -113 56 10 84 28 120 79 58 79 49 174 -23 245 -65 65 -141
80 -216 42z"/>
<path d="M6285 3063 c-39 -10 -105 -65 -125 -103 -42 -83 -15 -194 61 -249 36
-27 50 -31 106 -31 74 0 107 14 151 64 40 46 57 101 47 161 -5 40 -16 57 -58
100 -61 60 -110 76 -182 58z"/>
<path d="M6315 2635 c-5 -2 -22 -6 -38 -9 -33 -8 -102 -68 -123 -107 -8 -16
-14 -52 -14 -82 0 -71 44 -141 110 -174 144 -73 307 57 276 220 -7 39 -65 111
-105 131 -28 14 -90 27 -106 21z"/>
<path d="M7507 3544 c-4 -4 -7 -308 -7 -676 l0 -668 793 0 c761 0 793 1 821
19 16 11 81 66 144 123 368 328 462 436 462 530 0 41 -38 117 -95 190 -41 51
-441 411 -505 454 l-35 24 -785 6 c-432 3 -789 2 -793 -2z m1609 -46 c55 -39
395 -341 452 -401 74 -79 124 -159 129 -211 7 -61 -29 -124 -136 -238 -90 -96
-361 -341 -438 -395 l-45 -33 -779 0 -779 0 0 650 0 649 93 3 c50 2 401 3 779
2 l687 0 37 -26z"/>
<path d="M7803 3484 c-47 -23 -100 -86 -113 -134 -32 -118 65 -240 190 -240
92 0 180 71 196 158 15 80 -43 184 -123 218 -43 19 -110 17 -150 -2z"/>
<path d="M8260 3493 c-41 -16 -102 -68 -120 -103 -54 -106 17 -256 130 -275
96 -16 193 32 226 112 28 66 11 158 -39 211 -47 50 -140 76 -197 55z"/>
<path d="M8655 3471 c-72 -42 -100 -89 -100 -165 0 -131 108 -216 240 -192 37
7 107 62 127 100 36 67 26 149 -24 210 -65 79 -157 97 -243 47z"/>
<path d="M7827 3060 c-16 -5 -43 -20 -62 -34 -82 -63 -103 -162 -52 -248 41
-70 78 -92 162 -96 60 -3 75 0 105 20 48 32 90 97 97 146 18 131 -123 250
-250 212z"/>
<path d="M8234 3045 c-32 -16 -63 -41 -80 -67 -25 -35 -29 -51 -29 -108 0 -57
4 -73 28 -107 39 -56 91 -83 161 -83 68 0 100 15 148 68 65 72 63 175 -5 249
-50 54 -61 60 -123 68 -41 5 -58 2 -100 -20z"/>
<path d="M8685 3056 c-58 -22 -121 -94 -129 -150 -13 -84 32 -174 106 -212 72
-37 191 -8 241 58 115 152 -41 368 -218 304z"/>
<path d="M7830 2624 c-71 -21 -117 -66 -136 -131 -13 -46 -14 -62 -4 -98 24
-84 109 -154 188 -155 72 0 150 53 183 125 67 144 -77 306 -231 259z"/>
<path d="M8268 2628 c-46 -12 -110 -67 -132 -112 -20 -41 -21 -105 -2 -149 18
-43 96 -113 135 -122 119 -26 241 72 241 193 0 53 -11 82 -51 126 -53 61 -120
83 -191 64z"/>
<path d="M8706 2630 c-39 -12 -98 -54 -123 -88 -63 -86 -24 -221 81 -278 39
-21 57 -25 98 -22 54 6 116 42 151 90 25 34 35 135 17 178 -17 42 -91 107
-136 119 -44 12 -49 12 -88 1z"/>
<path d="M3334 1847 c-23 -20 -28 -34 -31 -83 -5 -80 20 -124 72 -124 45 0 75
29 75 73 0 49 -33 81 -76 74 -37 -6 -39 -5 -24 24 11 20 50 27 50 9 0 -5 9
-10 20 -10 26 0 27 36 1 50 -31 16 -58 12 -87 -13z m74 -142 c-2 -14 -11 -20
-28 -20 -21 0 -26 5 -28 32 -2 24 1 32 15 35 22 6 45 -20 41 -47z"/>
<path d="M5743 1863 c-20 -3 -33 -10 -33 -19 0 -10 13 -14 49 -14 l50 0 -29
-62 c-38 -83 -42 -122 -14 -126 19 -3 23 3 28 42 4 25 22 74 41 109 l34 65
-31 6 c-31 6 -37 6 -95 -1z"/>
<path d="M8151 1845 c-16 -22 -18 -31 -9 -56 8 -22 7 -34 -1 -42 -17 -17 -13
-72 7 -90 23 -21 86 -22 106 -1 26 25 30 61 11 90 -12 19 -14 29 -6 37 18 18
12 55 -11 71 -34 24 -73 20 -97 -9z m75 -26 c8 -14 -21 -43 -35 -35 -6 4 -11
16 -11 27 0 21 34 27 46 8z m4 -116 c0 -21 -4 -24 -27 -21 -33 4 -41 29 -17
52 21 21 44 5 44 -31z"/>
<path d="M906 1838 c-3 -13 -8 -40 -11 -62 -6 -38 -6 -38 22 -31 57 16 68 12
71 -23 4 -37 -19 -53 -49 -34 -26 16 -49 15 -49 -2 0 -26 30 -46 70 -46 52 0
84 39 76 90 -6 41 -28 60 -68 60 -48 0 -35 28 14 32 31 2 44 8 46 21 3 15 -5
17 -57 17 -55 0 -61 -2 -65 -22z"/>
<path d="M258 916 l-3 -676 797 0 797 0 95 83 c230 198 297 260 388 356 100
105 148 182 148 236 0 74 -143 251 -330 408 -47 40 -126 109 -176 153 -50 45
-101 87 -113 94 -17 9 -224 13 -812 17 l-789 5 -2 -676z m1540 649 c41 -5 63
-16 102 -48 416 -353 560 -508 560 -602 0 -71 -129 -229 -334 -409 -56 -50
-142 -126 -191 -169 l-87 -77 -784 0 -784 0 0 653 0 652 733 4 c402 2 756 0
785 -4z"/>
<path d="M524 1508 c-26 -18 -56 -45 -66 -59 -87 -118 12 -299 162 -299 79 0
148 44 181 115 33 70 19 143 -39 207 -70 77 -157 90 -238 36z"/>
<path d="M955 1506 c-100 -67 -124 -177 -59 -268 49 -69 75 -83 159 -83 82 0
104 11 159 79 28 34 31 45 31 106 0 60 -4 73 -30 112 -66 93 -170 115 -260 54z"/>
<path d="M562 1099 c-50 -15 -117 -89 -131 -144 -17 -67 0 -117 58 -178 46
-48 51 -51 109 -55 79 -6 103 1 148 41 95 83 96 211 1 294 -55 48 -116 62
-185 42z"/>
<path d="M974 1085 c-106 -53 -143 -164 -88 -265 37 -69 90 -100 168 -100 65
0 97 14 143 62 72 75 72 184 -1 260 -64 67 -145 82 -222 43z"/>
<path d="M2670 916 l0 -676 800 0 800 0 142 128 c79 70 170 151 204 180 83 72
224 233 253 289 65 128 2 217 -419 587 -63 56 -133 115 -154 131 l-39 30 -794
3 -793 4 0 -676z m1608 633 c49 -35 415 -364 463 -417 65 -71 109 -136 126
-186 13 -37 13 -43 -16 -100 -47 -96 -230 -280 -518 -524 l-74 -62 -784 0
-785 0 0 650 0 649 78 3 c42 2 394 3 782 3 638 0 707 -2 728 -16z"/>
<path d="M2932 1504 c-83 -59 -112 -146 -77 -232 42 -100 161 -150 258 -108
39 17 92 71 106 109 48 126 -51 267 -187 267 -39 0 -58 -7 -100 -36z"/>
<path d="M2965 1091 c-22 -10 -57 -36 -77 -59 -80 -89 -58 -215 50 -288 117
-80 292 16 292 161 0 60 -19 102 -68 148 -58 57 -128 70 -197 38z"/>
<path d="M3405 1095 c-51 -18 -111 -82 -125 -133 -22 -83 20 -180 98 -225 42
-25 127 -25 177 -2 79 38 128 141 105 224 -21 78 -111 151 -185 150 -16 0 -48
-6 -70 -14z"/>
<path d="M5087 1584 c-4 -4 -7 -308 -7 -676 l0 -668 803 0 802 1 65 60 c36 33
103 92 150 132 268 226 410 394 410 485 0 35 -60 136 -125 209 -55 63 -408
379 -475 427 l-45 31 -785 3 c-432 1 -789 0 -793 -4z m1598 -36 c46 -25 368
-312 466 -416 87 -91 139 -174 139 -222 0 -73 -140 -240 -353 -422 -73 -62
-160 -139 -194 -170 l-62 -58 -791 0 -790 0 0 649 0 650 53 3 c28 2 378 3 777
3 658 0 728 -2 755 -17z"/>
<path d="M5375 1524 c-77 -40 -115 -99 -115 -179 0 -67 15 -99 69 -148 110
-99 283 -33 316 120 14 68 -43 171 -116 209 -37 19 -116 18 -154 -2z"/>
<path d="M6224 1511 c-51 -37 -80 -70 -93 -104 -28 -73 3 -166 72 -221 35 -28
45 -31 112 -31 67 0 76 3 112 31 61 49 83 89 83 150 0 64 -13 100 -48 137 -68
72 -170 89 -238 38z"/>
<path d="M5415 671 c-45 -11 -68 -26 -108 -70 -43 -48 -51 -73 -45 -147 11
-127 156 -211 267 -155 81 42 130 131 116 213 -17 99 -136 182 -230 159z"/>
<path d="M6273 670 c-111 -26 -184 -170 -135 -266 38 -73 113 -124 184 -124
45 0 113 36 148 78 91 110 31 279 -110 311 -25 6 -47 10 -50 10 -3 -1 -20 -5
-37 -9z"/>
<path d="M7506 1583 c-3 -4 -6 -307 -6 -675 l0 -668 793 0 794 0 41 30 c23 16
72 58 109 92 37 35 86 78 108 97 83 68 306 296 336 343 44 69 49 123 16 190
-51 103 -106 159 -446 457 -53 46 -112 94 -131 106 l-35 23 -787 5 c-432 3
-789 3 -792 0z m1605 -41 c39 -25 406 -351 460 -409 72 -77 121 -156 126 -207
7 -59 -27 -122 -125 -227 -72 -78 -378 -356 -453 -412 l-36 -27 -781 0 -782 0
0 650 0 649 73 3 c39 2 391 2 782 0 649 -3 712 -4 736 -20z"/>
<path d="M7764 1508 c-115 -77 -124 -224 -21 -315 88 -77 222 -51 294 58 53
81 13 212 -82 266 -62 35 -130 31 -191 -9z"/>
<path d="M8203 1511 c-107 -77 -131 -186 -62 -281 98 -135 305 -91 350 73 22
81 -42 195 -127 227 -52 20 -118 12 -161 -19z"/>
<path d="M7816 1100 c-52 -10 -131 -91 -141 -144 -12 -64 3 -123 42 -167 48
-53 81 -69 145 -69 113 1 188 69 196 178 8 134 -104 228 -242 202z"/>
<path d="M8235 1095 c-22 -7 -57 -33 -77 -56 -68 -75 -73 -165 -14 -242 44
-58 86 -80 150 -79 167 1 258 179 160 309 -51 67 -143 96 -219 68z"/>
<path d="M7818 668 c-46 -12 -110 -67 -132 -112 -40 -85 5 -208 94 -254 123
-63 279 32 280 170 0 60 -11 88 -55 137 -48 53 -121 76 -187 59z"/>
</g>
</svg>
