<?xml version="1.0" encoding="UTF-8" standalone="no"?>
<svg
   version="1.0"
   width="996.000000pt"
   height="922.000000pt"
   viewBox="0 0 996.000000 922.000000"
   preserveAspectRatio="xMidYMid meet"
   id="svg63"
   sodipodi:docname="36.svg"
   inkscape:version="1.4.3 (0d15f75042, 2025-12-25)"
   xmlns:inkscape="http://www.inkscape.org/namespaces/inkscape"
   xmlns:sodipodi="http://sodipodi.sourceforge.net/DTD/sodipodi-0.dtd"
   xmlns="http://www.w3.org/2000/svg"
   xmlns:svg="http://www.w3.org/2000/svg">
  <defs
     id="defs63" />
  <sodipodi:namedview
     id="namedview63"
     pagecolor="#505050"
     bordercolor="#ffffff"
     borderopacity="1"
     inkscape:showpageshadow="0"
     inkscape:pageopacity="0"
     inkscape:pagecheckerboard="1"
     inkscape:deskcolor="#505050"
     inkscape:document-units="pt"
     inkscape:zoom="0.5165254"
     inkscape:cx="767.62924"
     inkscape:cy="954.45452"
     inkscape:window-width="1309"
     inkscape:window-height="1164"
     inkscape:window-x="0"
     inkscape:window-y="0"
     inkscape:window-maximized="0"
     inkscape:current-layer="g63" />
  <metadata
     id="metadata1">
Created by potrace 1.16, written by Peter Selinger 2001-2019
</metadata>
  <g
     transform="translate(0.000000,922.000000) scale(0.100000,-0.100000)"
     fill="#FFFFFF"
     stroke="none"
     id="g63">
    <path
       d="M256 8588 c-8 -499 -8 -3898 1 -4260 l6 -258 2938 0 2939 0 0 2465 0 2465 -2939 0 -2938 0 -7 -412z m5864 -2053 l0 -2445 -2920 0 -2920 0 0 438 c-1 240 -3 1173 -6 2072 -4 899 -3 1803 1 2008 l7 372 2919 0 2919 0 0 -2445z"
       id="path1" />
    <path
       d="M782 7998 l3 -493 493 -3 492 -2 0 495 0 495 -495 0 -495 0 2 -492z m968 -3 l0 -475 -475 0 -475 0 0 475 0 475 475 0 475 0 0 -475z"
       id="path2" />
    <path
       d="M2370 7995 l0 -495 495 0 495 0 -2 493 -3 492 -492 3 -493 2 0 -495z m490 466 c0 -9 35 -50 298 -345 57 -64 108 -116 114 -116 10 0 -38 58 -178 215 -174 194 -214 240 -214 247 0 5 10 8 23 8 14 0 37 -18 66 -53 68 -81 250 -285 314 -351 l57 -59 0 -244 0 -243 -475 0 -475 0 0 475 0 475 235 0 c141 0 235 -4 235 -9z m178 -34 c42 -52 237 -272 275 -308 28 -28 39 -85 15 -77 -7 3 -38 34 -68 70 -47 55 -230 265 -293 336 l-20 22 29 -1 c22 0 37 -10 62 -42z m83 -9 c65 -77 157 -179 191 -211 23 -22 29 -35 26 -60 -3 -31 -7 -27 -148 131 -168 189 -170 192 -137 192 16 0 37 -16 68 -52z m79 -4 c25 -31 66 -76 93 -100 37 -35 47 -52 47 -76 l0 -32 -41 39 c-22 22 -77 82 -120 133 -76 88 -79 92 -52 92 22 -1 38 -14 73 -56z m80 -4 c41 -41 60 -69 60 -85 0 -14 -4 -25 -9 -25 -10 0 -151 155 -151 165 0 3 9 5 20 5 12 0 46 -26 80 -60z m52 44 c10 -7 10 -74 0 -74 -4 0 -25 21 -47 46 l-38 47 39 -7 c21 -5 42 -10 46 -12z"
       id="path3" />
    <path
       d="M2861 8375 c0 -5 30 -44 67 -87 194 -221 265 -298 269 -294 8 7 -16 38 -133 169 -150 168 -204 224 -203 212z"
       id="path4" />
    <path
       d="M2860 8284 c0 -7 35 -49 78 -96 42 -46 100 -110 129 -143 28 -33 54 -57 57 -54 7 6 -79 109 -193 229 -38 41 -70 70 -71 64z"
       id="path5" />
    <path
       d="M2869 8184 c18 -31 180 -200 181 -188 0 6 -39 53 -86 105 -85 92 -117 120 -95 83z"
       id="path6" />
    <path
       d="M2860 8114 c0 -16 109 -129 117 -121 4 4 -21 36 -55 70 -34 34 -62 57 -62 51z"
       id="path7" />
    <path
       d="M2870 8015 c7 -8 17 -15 22 -15 6 0 5 7 -2 15 -7 8 -17 15 -22 15 -6 0 -5 -7 2 -15z"
       id="path8" />
    <path
       d="M3956 8474 c-3 -9 -6 -231 -6 -495 l0 -479 495 0 495 0 0 495 0 495 -489 0 c-437 0 -490 -2 -495 -16z m137 -61 c34 -32 119 -107 187 -168 69 -60 160 -143 202 -184 43 -41 81 -72 84 -68 9 9 -121 131 -392 367 -101 88 -117 110 -79 110 13 0 30 -6 37 -13 7 -7 65 -60 129 -117 64 -58 170 -154 236 -213 126 -113 168 -147 162 -129 -4 10 -154 148 -303 279 -39 34 -102 91 -141 127 -65 61 -68 65 -43 66 28 0 35 -6 244 -192 45 -40 136 -122 203 -182 67 -59 124 -106 127 -103 3 2 -34 40 -82 83 -49 44 -115 104 -148 134 -34 31 -81 73 -106 95 -25 21 -76 68 -114 103 l-70 65 38 -6 c28 -5 54 -21 100 -64 33 -32 115 -105 181 -163 66 -58 156 -140 201 -182 79 -77 113 -101 77 -55 -21 27 -114 113 -288 267 -65 58 -142 126 -169 152 -48 45 -50 48 -25 48 36 0 72 -30 442 -368 l137 -126 0 -228 0 -228 -472 2 -473 3 0 262 0 261 43 -35 c53 -43 56 -28 4 19 -24 21 -42 48 -45 67 l-7 33 51 -44 c100 -85 119 -100 119 -90 0 6 -35 41 -77 78 -72 62 -89 85 -92 123 -1 13 104 -74 207 -173 28 -28 52 -46 52 -40 0 11 -88 98 -192 189 -40 36 -58 59 -62 83 -6 33 -4 32 81 -45 48 -43 124 -114 170 -157 45 -44 85 -77 89 -74 6 7 -133 143 -248 242 -53 46 -80 77 -86 99 -5 18 -7 34 -6 36 2 2 34 -25 72 -60 84 -79 308 -279 333 -297 11 -7 19 -9 19 -5 0 8 -118 116 -295 269 -94 82 -121 113 -129 149 l-7 29 23 -19 c13 -11 52 -47 88 -80 143 -132 402 -357 406 -353 5 6 -101 107 -246 233 -63 55 -148 133 -190 172 -70 68 -73 73 -47 73 20 0 45 -16 90 -57z m459 -25 c160 -145 252 -227 310 -275 48 -40 57 -53 57 -82 l1 -33 -77 71 c-43 39 -127 116 -188 170 -60 55 -141 128 -180 164 -66 62 -68 66 -42 67 20 0 49 -20 119 -82z m10 69 c7 -7 60 -55 118 -106 222 -200 241 -220 238 -248 -3 -24 -8 -21 -98 63 -52 49 -115 107 -140 128 -25 22 -78 70 -119 108 -71 66 -72 68 -43 68 17 0 37 -6 44 -13z m120 -29 c25 -24 89 -81 142 -128 77 -69 95 -90 96 -113 0 -25 -2 -27 -18 -15 -17 12 -126 111 -276 250 l-51 48 30 0 c22 0 43 -12 77 -42z m136 -45 c71 -65 98 -95 100 -115 2 -16 0 -28 -5 -28 -4 1 -62 52 -128 115 -109 104 -117 114 -92 115 22 0 51 -21 125 -87z m40 40 c50 -38 62 -53 62 -75 0 -16 -3 -28 -7 -28 -5 1 -44 35 -88 75 -70 66 -77 75 -54 75 14 0 51 -20 87 -47z m46 41 c16 -6 24 -64 9 -64 -9 1 -73 57 -73 65 0 7 45 6 64 -1z"
       id="path9" />
    <path
       id="path9-56"
       d="M 3470.3027 1405.5273 C 3038.141 1405.5111 2985.5414 1403.4748 2980.5615 1389.5312 C 2977.5615 1380.5312 2974.5703 1158.5313 2974.5703 894.53125 L 2974.5703 415.52734 L 3469.5703 415.52734 L 3470.3027 415.52734 L 3470.3027 437.54395 L 2999.5752 440.53223 L 2999.5752 702.53418 L 2999.5752 963.52539 L 3042.5684 928.53027 C 3095.5684 885.53027 3098.5674 900.5293 3046.5674 947.5293 C 3022.5674 968.5293 3004.5674 995.53122 3001.5674 1014.5312 L 2994.5654 1047.5342 L 3045.5713 1003.5303 C 3145.5713 918.53024 3164.5752 903.53027 3164.5752 913.53027 C 3164.5752 919.53027 3129.5684 954.5332 3087.5684 991.5332 C 3015.5684 1053.5332 2998.5615 1076.5361 2995.5615 1114.5361 C 2994.5615 1127.5361 3099.5732 1040.5381 3202.5732 941.53809 C 3230.5732 913.53809 3254.5752 895.5332 3254.5752 901.5332 C 3254.5752 912.5332 3166.5635 999.52731 3062.5635 1090.5273 C 3022.5635 1126.5273 3004.5713 1149.5254 3000.5713 1173.5254 C 2994.5713 1206.5254 2996.5625 1205.5254 3081.5625 1128.5254 C 3129.5625 1085.5254 3205.5723 1014.5381 3251.5723 971.53809 C 3296.5723 927.53809 3336.5615 894.53418 3340.5615 897.53418 C 3346.5615 904.53418 3207.5635 1040.5264 3092.5635 1139.5264 C 3039.5635 1185.5264 3012.5625 1216.5352 3006.5625 1238.5352 C 3001.5625 1256.5352 2999.5713 1272.5264 3000.5713 1274.5264 C 3002.5713 1276.5264 3034.5684 1249.5264 3072.5684 1214.5264 C 3156.5684 1135.5264 3380.5713 935.5293 3405.5713 917.5293 C 3416.5713 910.5293 3424.5703 908.53418 3424.5703 912.53418 C 3424.5703 920.53418 3306.5654 1028.5381 3129.5654 1181.5381 C 3035.5654 1263.5381 3008.5713 1294.5273 3000.5713 1330.5273 L 2993.5693 1359.5312 L 3016.5674 1340.5322 C 3029.5674 1329.5322 3068.5752 1293.5371 3104.5752 1260.5371 C 3213.9645 1159.5624 3391.2251 1004.1559 3470.3027 938.47656 L 3470.3027 953.49121 C 3427.2575 995.8409 3353.1961 1063.5201 3264.5654 1140.5371 C 3201.5654 1195.5371 3116.5752 1273.5391 3074.5752 1312.5391 C 3004.5752 1380.5391 3001.5684 1385.5322 3027.5684 1385.5322 C 3047.5684 1385.5322 3072.5684 1369.5352 3117.5684 1328.5352 C 3151.5684 1296.5352 3236.5703 1221.5322 3304.5703 1160.5322 C 3357.5596 1114.4546 3423.5208 1054.8122 3470.3027 1011.0449 L 3470.3027 1034.0723 C 3405.7425 1093.4924 3315.224 1173.9528 3198.5742 1275.5371 C 3097.5742 1363.5371 3081.5752 1385.5322 3119.5752 1385.5322 C 3132.5752 1385.5322 3149.5625 1379.5391 3156.5625 1372.5391 C 3163.5625 1365.5391 3221.5713 1312.5273 3285.5713 1255.5273 C 3334.7516 1210.9577 3408.7291 1143.9505 3470.3027 1088.5352 L 3470.3027 1112.9248 C 3441.1723 1138.9934 3410.8482 1165.9155 3380.5664 1192.5391 C 3341.5664 1226.5391 3278.5752 1283.5264 3239.5752 1319.5264 C 3174.5752 1380.5264 3171.5674 1384.5322 3196.5674 1385.5322 C 3224.5674 1385.5322 3231.5664 1379.5352 3440.5664 1193.5352 C 3449.0121 1186.0279 3459.0791 1177.0352 3470.3027 1166.9922 L 3470.3027 1188.8184 C 3456.5171 1201.1206 3443.99 1212.2472 3434.5752 1220.5322 C 3409.5752 1241.5322 3358.5664 1288.5254 3320.5664 1323.5254 L 3250.5615 1388.5352 L 3288.5742 1382.5293 C 3316.5742 1377.5293 3342.5645 1361.5303 3388.5645 1318.5303 C 3405.6658 1301.9472 3435.9292 1274.3559 3470.3027 1243.5449 L 3470.3027 1265.0635 C 3435.4646 1296.1691 3405.4392 1323.2121 3390.5713 1337.5293 C 3342.5713 1382.5293 3340.5664 1385.5322 3365.5664 1385.5322 C 3384.4387 1385.5322 3403.312 1377.2819 3470.3027 1320.7422 L 3470.3027 1346.3477 C 3433.7382 1381.8625 3436.1819 1384.7095 3457.5732 1385.5322 C 3461.4115 1385.5322 3465.5754 1384.8025 3470.3027 1383.1738 L 3470.3027 1405.5273 z " />
    <path
       d="m 2994.6583,3354.1754 c -3,-9 -6,-231 -6,-495 v -479 h 495 495 v 495 495 h -489 c -437,0 -490,-2 -495,-16 z m 137,-61 c 34,-32 119,-107 187,-168 69,-60 160,-143 202,-184 43,-41 81,-72 84,-68 9,9 -121,131 -392,367 -101,88 -117,110 -79,110 13,0 30,-6 37,-13 7,-7 65,-60 129,-117 64,-58 170,-154 236,-213 126,-113 168,-147 162,-129 -4,10 -154,148 -303,279 -39,34 -102,91 -141,127 -65,61 -68,65 -43,66 28,0 35,-6 244,-192 45,-40 136,-122 203,-182 67,-59 124,-106 127,-103 3,2 -34,40 -82,83 -49,44 -115,104 -148,134 -34,31 -81,73 -106,95 -25,21 -76,68 -114,103 l -70,65 38,-6 c 28,-5 54,-21 100,-64 33,-32 115,-105 181,-163 66,-58 156,-140 201,-182 79,-77 113,-101 77,-55 -21,27 -114,113 -288,267 -65,58 -142,126 -169,152 -48,45 -50,48 -25,48 36,0 72,-30 442,-368 l 137,-126 v -228 -228 l -472,2 -473,3 v 262 261 l 43,-35 c 53,-43 56,-28 4,19 -24,21 -42,48 -45,67 l -7,33 51,-44 c 100,-85 119,-100 119,-90 0,6 -35,41 -77,78 -72,62 -89,85 -92,123 -1,13 104,-74 207,-173 28,-28 52,-46 52,-40 0,11 -88,98 -192,189 -40,36 -58,59 -62,83 -6,33 -4,32 81,-45 48,-43 124,-114 170,-157 45,-44 85,-77 89,-74 6,7 -133,143 -248,242 -53,46 -80,77 -86,99 -5,18 -7,34 -6,36 2,2 34,-25 72,-60 84,-79 308,-279 333,-297 11,-7 19,-9 19,-5 0,8 -118,116 -295,269 -94,82 -121,113 -129,149 l -7,29 23,-19 c 13,-11 52,-47 88,-80 143,-132 402,-357 406,-353 5,6 -101,107 -246,233 -63,55 -148,133 -190,172 -70,68 -73,73 -47,73 20,0 45,-16 90,-57 z m 459,-25 c 160,-145 252,-227 310,-275 48,-40 57,-53 57,-82 l 1,-33 -77,71 c -43,39 -127,116 -188,170 -60,55 -141,128 -180,164 -66,62 -68,66 -42,67 20,0 49,-20 119,-82 z m 10,69 c 7,-7 60,-55 118,-106 222,-200 241,-220 238,-248 -3,-24 -8,-21 -98,63 -52,49 -115,107 -140,128 -25,22 -78,70 -119,108 -71,66 -72,68 -43,68 17,0 37,-6 44,-13 z m 120,-29 c 25,-24 89,-81 142,-128 77,-69 95,-90 96,-113 0,-25 -2,-27 -18,-15 -17,12 -126,111 -276,250 l -51,48 h 30 c 22,0 43,-12 77,-42 z m 136,-45 c 71,-65 98,-95 100,-115 2,-16 0,-28 -5,-28 -4,1 -62,52 -128,115 -109,104 -117,114 -92,115 22,0 51,-21 125,-87 z m 40,40 c 50,-38 62,-53 62,-75 0,-16 -3,-28 -7,-28 -5,1 -44,35 -88,75 -70,66 -77,75 -54,75 14,0 51,-20 87,-47 z m 46,41 c 16,-6 24,-64 9,-64 -9,1 -73,57 -73,65 0,7 45,6 64,-1 z"
       id="path9-5" />
    <path
       d="M780 6530 l0 -490 495 0 495 0 0 490 0 490 -495 0 -495 0 0 -490z m970 0 l0 -470 -266 0 -266 0 36 40 c32 35 36 46 36 92 l0 53 -93 -93 c-73 -73 -98 -92 -121 -92 -27 0 -21 8 87 120 64 65 119 130 122 143 4 13 5 39 3 58 l-3 34 -180 -177 c-145 -143 -186 -178 -208 -178 -24 0 -3 25 175 205 195 198 225 233 214 262 -15 39 -54 10 -268 -204 -198 -198 -218 -215 -218 -188 0 24 29 59 183 214 l182 186 -49 3 -49 3 -134 -133 c-131 -131 -133 -132 -133 -99 0 29 13 47 90 125 50 51 90 95 90 99 0 4 -21 7 -47 7 -42 0 -52 -5 -90 -42 l-43 -42 0 272 0 272 475 0 475 0 0 -470z"
       id="path10" />
    <path
       d="M2369 6778 c-1 -134 -3 -354 -5 -490 l-3 -248 499 0 500 0 0 490 0 490 -495 0 -495 0 -1 -242z m534 163 c26 -32 82 -97 125 -143 42 -47 115 -126 161 -177 46 -51 85 -90 88 -87 3 2 -33 47 -79 99 -111 126 -288 328 -307 350 -13 16 -12 17 15 17 22 -1 36 -10 57 -38 65 -85 357 -405 365 -398 4 4 -27 41 -260 303 -60 67 -108 124 -108 127 0 12 49 5 57 -8 10 -18 235 -268 285 -318 l38 -37 0 -286 0 -285 -272 0 -273 0 38 35 c34 32 37 38 37 91 l0 56 -90 -91 c-77 -77 -96 -91 -123 -91 -31 0 -28 4 91 123 l122 122 0 55 0 55 -178 -178 c-150 -150 -182 -177 -207 -177 -27 0 -12 18 184 214 139 140 211 218 206 226 -4 7 -2 16 5 20 7 4 9 16 5 29 -8 27 -29 28 -22 0 5 -17 3 -18 -9 -8 -12 10 -52 -25 -239 -211 -124 -123 -227 -222 -230 -219 -2 3 0 21 5 39 7 24 61 86 182 210 l173 175 -49 3 -49 3 -135 -133 c-127 -125 -134 -131 -128 -98 5 27 29 58 104 133 l97 97 -62 0 c-58 0 -62 -2 -97 -40 l-36 -40 0 270 0 270 233 0 232 0 48 -59z m205 27 c15 -18 73 -83 130 -144 75 -82 102 -118 102 -138 0 -37 -12 -33 -56 21 -22 26 -70 82 -107 123 -38 41 -87 96 -109 123 l-40 47 27 0 c17 0 35 -11 53 -32z m138 -65 c85 -88 94 -101 92 -132 l-3 -33 -106 118 c-125 141 -127 144 -99 144 13 0 55 -35 116 -97z m37 42 c47 -45 57 -61 57 -88 l-1 -32 -74 79 c-41 44 -75 83 -75 88 0 23 42 2 93 -47z m45 43 c11 -11 17 -68 7 -68 -9 0 -57 45 -66 63 -8 14 -5 17 19 17 15 0 33 -5 40 -12z"
       id="path11" />
    <path
       d="M2860 6915 c0 -20 323 -385 341 -385 10 0 -60 83 -201 240 -43 47 -91 101 -108 120 -17 19 -32 30 -32 25z"
       id="path12" />
    <path
       d="M2871 6801 c62 -75 242 -271 246 -267 3 3 -2 15 -11 27 -29 41 -240 269 -249 269 -5 0 1 -13 14 -29z"
       id="path13" />
    <path
       d="M2946 6630 c54 -61 99 -108 102 -105 7 6 -33 57 -113 143 -105 113 -96 85 11 -38z"
       id="path14" />
    <path
       d="M2862 6653 c4 -16 91 -122 101 -123 16 -1 4 18 -49 75 -30 33 -54 55 -52 48z"
       id="path15" />
    <path
       d="M3950 6530 l0 -490 495 0 495 0 0 490 0 490 -495 0 -495 0 0 -490z m351 310 c96 -85 206 -184 244 -220 94 -88 115 -105 115 -94 0 8 -79 83 -344 323 -145 131 -169 155 -159 158 29 10 47 -4 326 -254 168 -151 258 -226 262 -221 3 3 -59 62 -137 132 -222 197 -377 340 -374 343 1 2 16 0 33 -3 17 -3 64 -37 115 -82 46 -43 138 -124 204 -182 65 -58 147 -132 181 -164 35 -33 63 -55 63 -49 0 12 -105 112 -265 253 -163 143 -235 211 -235 222 0 27 71 -20 189 -126 74 -67 157 -141 185 -165 28 -24 88 -79 134 -123 l82 -80 0 -224 0 -224 -267 0 -267 0 37 38 c32 33 37 44 37 85 0 26 -3 47 -8 47 -4 0 -45 -38 -92 -85 -69 -69 -90 -85 -115 -85 -28 0 -23 7 93 123 l122 122 0 55 0 55 -178 -178 c-162 -161 -180 -177 -212 -177 -34 0 -31 4 178 213 176 176 213 218 210 238 -2 18 -11 25 -35 29 -23 4 -69 38 -164 125 -207 188 -278 256 -285 277 -15 47 4 33 226 -167 229 -206 326 -286 279 -228 -14 16 -199 182 -292 261 -28 24 -86 77 -130 118 -75 71 -77 74 -49 74 22 0 48 -17 109 -72 44 -40 133 -120 198 -178 66 -58 150 -134 187 -169 38 -35 70 -62 73 -59 7 6 -138 142 -354 335 -80 70 -146 133 -148 139 -3 8 6 10 25 5 19 -4 94 -63 203 -161z m226 107 c31 -29 85 -77 118 -107 34 -30 109 -98 168 -150 86 -77 107 -100 107 -122 0 -16 -3 -28 -7 -28 -4 0 -50 42 -102 93 -98 94 -329 301 -362 325 -10 7 -24 22 -30 34 -20 38 46 11 108 -45z m70 14 c23 -20 94 -83 159 -141 64 -58 128 -114 141 -125 18 -15 24 -28 21 -50 l-3 -30 -80 75 c-44 41 -140 129 -213 194 -72 65 -132 121 -132 123 0 15 72 -16 107 -46z m170 -1 c32 -27 79 -67 105 -87 35 -28 47 -45 48 -65 0 -16 -2 -28 -5 -28 -11 0 -245 212 -245 221 0 23 44 5 97 -41z m82 4 c20 -19 44 -37 54 -40 17 -5 26 -64 9 -64 -5 0 -44 34 -88 75 -77 73 -78 76 -45 69 19 -3 51 -22 70 -40z m-140 -26 c37 -35 99 -90 139 -123 57 -48 72 -66 72 -88 0 -20 -4 -26 -12 -21 -13 8 -138 119 -260 232 -67 61 -67 62 -36 62 24 0 45 -14 97 -62z m211 26 l0 -36 -40 32 c-22 17 -40 34 -40 36 0 2 18 4 40 4 39 0 40 -1 40 -36z m-815 -179 c48 -44 125 -114 169 -156 45 -41 90 -80 101 -87 18 -10 2 -29 -194 -224 -195 -195 -213 -210 -207 -178 5 29 40 69 189 218 100 100 175 182 166 182 -8 0 -37 21 -64 46 -28 25 -86 76 -130 114 -107 91 -152 140 -157 172 -5 27 -5 27 17 10 11 -9 61 -53 110 -97z m123 -192 c52 -48 55 -53 31 -53 -17 0 -53 24 -115 76 -142 121 -162 143 -166 179 -4 36 -28 56 250 -202z m-53 -27 l40 -35 -120 -120 c-65 -66 -121 -118 -123 -116 -15 15 22 72 98 150 l89 90 -69 54 c-76 60 -104 93 -112 133 -4 23 5 18 76 -47 45 -40 99 -89 121 -109z m-91 -24 c-35 -5 -100 53 -105 94 -5 31 -4 31 63 -30 63 -57 66 -61 42 -64z m-45 -13 c1 -3 -14 -19 -32 -37 l-33 -32 0 64 0 65 32 -27 c18 -15 33 -29 33 -33z"
       id="path16" />
    <path
       d="M3655 5728 c-3 -7 -4 -310 -3 -673 l3 -660 795 0 795 0 30 23 c59 46 272 240 393 357 130 127 197 214 208 271 10 55 -41 147 -139 250 -83 88 -362 340 -450 407 l-49 37 -789 0 c-623 0 -791 -3 -794 -12z m1611 -30 c39 -30 151 -127 317 -277 201 -181 285 -295 273 -369 -8 -51 -61 -123 -178 -243 -108 -111 -393 -365 -434 -387 -18 -9 -191 -12 -796 -10 l-773 3 -3 610 c-2 336 0 629 3 653 l6 42 778 0 778 0 29 -22z"
       id="path17" />
    <path
       d="M780 5064 l0 -497 478 7 c262 3 485 6 495 6 16 0 17 30 17 490 l0 490 -495 0 -495 0 0 -496z m60 473 c0 -2 -9 -12 -20 -22 -19 -18 -20 -17 -20 3 0 15 6 22 20 22 11 0 20 -2 20 -3z m75 -107 c-100 -101 -110 -108 -113 -85 -3 20 14 43 75 110 69 75 82 85 113 85 l35 0 -110 -110z m85 -85 c-179 -179 -195 -193 -198 -169 -3 23 20 51 165 196 143 143 172 168 198 168 28 0 15 -15 -165 -195z m750 -278 l0 -474 -250 1 c-137 1 -250 3 -250 6 0 3 7 15 15 28 16 21 33 122 22 122 -3 0 -41 -34 -83 -75 -68 -66 -116 -97 -129 -83 -2 2 41 50 96 107 56 57 105 115 110 128 11 29 12 93 2 93 -4 0 -82 -74 -173 -165 -138 -137 -171 -165 -195 -165 -27 0 -11 19 173 203 l202 203 0 52 c0 29 -1 52 -3 52 -2 0 -112 -109 -245 -242 -231 -233 -242 -242 -242 -210 0 30 23 57 236 270 130 130 240 247 245 260 11 28 12 92 2 92 -5 0 -115 -107 -245 -237 -216 -216 -238 -235 -238 -209 0 25 37 67 245 276 l245 246 0 55 0 54 -238 -238 c-130 -130 -240 -237 -245 -237 -4 0 -7 11 -7 24 0 19 49 73 203 225 111 110 222 225 247 255 l45 55 228 1 227 0 0 -473z"
       id="path18" />
    <path
       d="M2367 5498 c-4 -35 -6 -258 -6 -497 l0 -433 497 4 497 5 0 489 0 489 -491 3 -492 2 -5 -62z m53 36 c0 -9 -31 -37 -36 -32 -9 9 8 38 22 38 8 0 14 -3 14 -6z m75 -104 c-60 -60 -111 -108 -112 -106 -15 14 22 73 85 139 62 63 81 77 106 77 29 0 26 -4 -79 -110z m90 -90 c-109 -109 -200 -198 -201 -197 -2 1 1 20 6 42 7 32 36 66 167 197 144 144 161 158 193 158 34 0 32 -3 -165 -200z m415 114 c145 -166 186 -212 263 -296 l77 -85 0 -241 0 -241 -255 2 c-140 1 -255 4 -255 7 0 3 9 13 20 23 15 13 20 29 20 67 0 27 -3 50 -7 50 -4 0 -41 -34 -84 -75 -59 -58 -83 -75 -105 -75 -27 0 -20 8 84 113 111 111 112 113 112 160 0 26 -3 47 -7 47 -4 0 -78 -70 -163 -155 -137 -137 -161 -156 -195 -161 -39 -6 -37 -3 163 197 198 201 202 205 202 246 0 36 3 41 18 36 15 -6 15 -5 -1 12 -18 18 -26 11 -263 -226 -225 -225 -271 -262 -233 -186 6 12 117 128 247 259 l235 236 38 -48 c21 -27 43 -51 49 -55 22 -13 8 12 -40 74 -31 39 -50 73 -50 90 0 24 4 22 47 -29 82 -94 131 -145 137 -140 4 5 -63 86 -151 183 l-34 38 -242 -240 c-133 -132 -242 -239 -243 -238 -1 1 0 15 3 31 4 20 73 95 246 265 l240 238 102 -116 c56 -64 114 -127 129 -140 56 -52 21 -4 -96 130 -68 77 -126 149 -131 161 -21 57 6 39 98 -64 136 -154 227 -249 233 -243 4 4 -81 104 -198 230 -30 33 -75 82 -98 109 l-43 50 -245 -245 c-221 -220 -244 -241 -238 -209 4 19 7 36 8 37 1 1 108 109 239 241 l238 240 52 -63 c29 -35 106 -123 172 -196 66 -72 132 -146 147 -163 14 -17 29 -28 33 -25 3 4 -52 71 -122 149 -174 194 -273 308 -273 314 0 4 10 6 23 6 15 0 45 -26 97 -86z m110 -41 c63 -70 141 -155 173 -187 50 -52 58 -65 55 -93 l-3 -32 -85 96 c-47 54 -114 129 -150 168 -36 39 -85 94 -108 123 -41 49 -42 52 -20 52 17 0 53 -33 138 -127z m70 10 c58 -65 117 -130 133 -144 26 -26 38 -79 18 -79 -6 0 -34 28 -63 61 -29 34 -93 107 -143 161 -49 55 -91 104 -93 109 -2 5 7 9 20 9 17 0 51 -31 128 -117z m68 11 c72 -80 92 -108 92 -130 -1 -28 -4 -25 -71 46 -39 41 -93 101 -121 133 l-51 59 29 -4 c23 -2 51 -26 122 -104z m36 49 c46 -48 56 -64 56 -93 l0 -35 -62 70 c-35 38 -71 79 -81 92 -18 23 -18 23 6 23 18 0 43 -18 81 -57z m44 45 c7 -7 12 -28 12 -47 l0 -35 -40 39 c-22 21 -40 43 -40 47 0 13 55 9 68 -4z"
       id="path19" />
    <path
       d="M6517 6306 c-62 -17 -116 -61 -147 -122 -21 -40 -25 -62 -25 -134 0 -76 3 -92 33 -152 38 -77 71 -102 157 -120 108 -21 205 21 247 107 25 51 19 75 -19 75 -23 -1 -32 -8 -48 -43 -26 -54 -72 -81 -137 -79 -102 2 -161 75 -161 200 -1 84 14 130 56 169 80 77 197 60 246 -35 11 -20 17 -22 44 -16 18 3 33 8 35 9 2 2 -6 21 -17 43 -25 49 -71 86 -126 101 -50 14 -77 13 -138 -3z"
       id="path20" />
    <path
       d="M7110 6037 c-27 -14 -58 -62 -48 -73 4 -4 21 7 37 25 16 17 36 31 45 31 18 0 56 -34 56 -50 0 -6 -34 -47 -75 -91 -41 -44 -75 -84 -75 -90 0 -15 172 -7 178 9 3 9 -14 12 -64 12 l-67 0 66 69 c38 39 67 78 67 89 0 28 -39 70 -70 77 -14 3 -36 -1 -50 -8z"
       id="path21" />
    <path
       d="M6918 6009 c-21 -17 -38 -37 -38 -45 0 -18 14 -18 30 1 24 29 30 14 30 -85 0 -93 1 -100 20 -100 19 0 20 7 20 130 0 146 -2 148 -62 99z"
       id="path22" />
    <path
       d="M8227 3848 c-27 -20 -107 -140 -107 -160 0 -15 8 -18 44 -18 39 0 45 -3 50 -26 8 -30 39 -30 44 1 3 11 10 24 18 28 19 11 18 27 -1 27 -12 0 -15 14 -16 63 -1 81 -8 102 -32 85z m-15 -108 c-3 -31 -8 -40 -23 -40 -25 0 -24 14 3 50 12 17 22 30 23 30 0 0 -1 -18 -3 -40z"
       id="path23" />
    <path
       d="M930 3813 c-42 -37 -43 -66 -1 -44 21 11 21 10 21 -69 0 -79 0 -80 25 -80 l25 0 0 115 c0 133 -5 138 -70 78z"
       id="path24" />
    <path
       d="M3322 3830 c-12 -12 -22 -27 -22 -35 0 -19 34 -19 50 0 7 8 21 15 31 15 28 0 24 -42 -7 -71 -39 -35 -85 -100 -78 -110 3 -5 39 -9 80 -9 66 0 75 2 72 18 -2 12 -14 18 -41 20 -20 2 -37 6 -37 9 0 3 16 23 35 44 58 65 41 139 -31 139 -17 0 -40 -9 -52 -20z"
       id="path25" />
    <path
       d="M5742 3834 c-12 -8 -22 -21 -22 -29 0 -23 20 -28 39 -11 22 20 51 21 51 2 0 -8 -12 -23 -27 -34 l-26 -19 29 -14 c20 -10 29 -22 29 -39 0 -31 -29 -39 -55 -15 -20 18 -40 13 -40 -9 0 -22 35 -46 68 -46 61 0 94 69 55 112 -13 14 -14 21 -5 30 31 31 -4 88 -53 88 -11 0 -31 -7 -43 -16z"
       id="path26" />
    <path
       d="M260 2874 l0 -674 794 0 795 0 90 78 c212 182 292 255 388 355 103 109 141 168 150 235 7 57 -51 147 -177 272 -102 102 -342 315 -422 375 l-40 30 -789 2 -789 1 0 -674z m1568 647 c24 -7 65 -35 112 -79 41 -37 107 -94 145 -126 127 -107 246 -220 284 -271 57 -76 91 -139 91 -169 0 -90 -158 -263 -549 -602 -20 -17 -46 -36 -58 -42 -16 -9 -230 -12 -797 -12 l-776 0 0 654 0 654 755 1 c491 1 768 -2 793 -8z"
       id="path27" />
    <path
       d="M903 3363 l-323 -3 0 -490 0 -490 490 0 490 0 0 490 0 490 -92 1 c-51 0 -127 1 -168 2 -41 2 -220 1 -397 0z m-82 -92 c41 -36 135 -120 208 -186 165 -150 243 -215 256 -215 5 0 -17 24 -50 53 -33 28 -92 81 -130 117 -39 36 -128 116 -198 178 -70 63 -127 117 -127 122 0 4 13 5 29 1 27 -5 100 -67 335 -281 149 -135 226 -201 226 -191 0 5 -37 43 -82 83 -45 40 -109 98 -142 128 -34 31 -79 71 -101 89 -22 19 -73 65 -113 103 -68 64 -70 68 -44 68 20 0 48 -17 97 -61 238 -210 318 -282 387 -348 43 -41 80 -72 83 -69 8 8 -163 169 -422 397 -46 40 -83 76 -83 80 0 5 13 6 29 2 28 -6 88 -56 344 -288 56 -51 128 -114 159 -140 l57 -48 0 -232 1 -233 -261 0 -260 0 30 37 c26 31 31 46 31 89 l0 51 -89 -88 c-76 -76 -94 -89 -122 -89 -33 0 -32 2 89 123 122 122 122 122 122 170 0 26 -3 47 -8 47 -4 0 -84 -76 -177 -170 -143 -143 -174 -170 -199 -170 -27 0 -13 17 177 208 181 183 207 213 207 240 0 28 -3 32 -26 32 -28 0 -74 35 -210 160 -39 36 -110 100 -158 143 -80 73 -86 81 -86 118 0 37 1 39 32 39 24 0 44 -12 92 -57 34 -32 115 -105 181 -163 66 -58 159 -143 207 -189 49 -47 88 -80 88 -75 0 17 -299 296 -458 429 -18 15 -37 36 -43 46 -21 40 44 7 122 -60z m285 55 c7 -6 65 -58 130 -116 65 -58 154 -139 198 -181 45 -42 87 -78 94 -80 9 -3 12 -16 10 -37 l-3 -32 -111 103 c-60 56 -172 157 -247 225 -75 68 -137 127 -137 131 0 11 52 0 66 -13z m288 -103 c72 -64 135 -120 139 -124 5 -3 7 -19 5 -35 -3 -28 -4 -27 -89 51 -47 44 -120 111 -162 148 -43 38 -77 73 -77 79 0 28 66 -14 184 -119z m10 67 c28 -26 70 -63 93 -82 31 -24 42 -41 42 -60 1 -16 -1 -28 -4 -28 -11 0 -235 212 -235 222 0 22 55 -5 104 -52z m-157 -12 c38 -35 119 -108 181 -163 90 -81 112 -105 112 -127 0 -16 -3 -28 -6 -28 -4 0 -45 37 -93 83 -47 46 -104 98 -126 117 -22 18 -75 66 -118 107 -76 70 -78 73 -49 73 23 0 47 -15 99 -62z m238 20 c42 -34 54 -49 54 -71 1 -16 -3 -27 -7 -25 -5 2 -42 33 -83 71 -68 62 -71 67 -46 67 18 0 48 -16 82 -42z m55 12 c0 -16 -4 -30 -8 -30 -5 0 -21 14 -37 30 l-29 30 37 0 c34 0 37 -2 37 -30z m-685 -302 c61 -54 121 -106 135 -117 l25 -20 -207 -208 c-189 -189 -208 -205 -208 -179 0 25 29 59 182 213 100 101 176 183 167 183 -8 0 -39 23 -69 51 -30 28 -84 76 -120 107 -133 115 -160 144 -160 176 0 29 1 28 73 -40 40 -38 122 -113 182 -166z m-16 -65 c60 -57 64 -63 40 -63 -43 0 -279 218 -279 258 0 20 11 13 87 -55 47 -43 116 -106 152 -140z m-41 -37 l42 -40 -117 -118 c-65 -65 -121 -118 -124 -118 -3 0 -4 12 -1 28 3 17 37 61 95 119 l92 93 -40 32 c-94 77 -145 131 -145 155 0 23 7 19 78 -43 42 -37 96 -86 120 -108z m-69 -18 c1 -5 -11 -8 -26 -8 -37 1 -103 61 -103 95 0 24 3 23 64 -27 35 -29 65 -56 65 -60z m-75 -11 c9 -13 4 -24 -22 -49 l-32 -33 0 64 c0 63 0 63 22 49 12 -8 27 -22 32 -31z"
       id="path28" />
    <path
       d="M611 3319 c4 -17 80 -89 269 -254 63 -55 138 -122 167 -149 29 -27 56 -47 58 -44 6 6 -84 94 -150 150 -64 52 -192 166 -273 243 -41 39 -73 63 -71 54z"
       id="path29" />
    <path
       d="M2833 3542 l-163 -2 0 -670 0 -670 799 0 800 0 228 204 c289 258 395 384 395 469 0 70 -82 185 -230 321 -125 115 -320 286 -362 318 l-35 26 -635 3 c-349 2 -708 3 -797 1z m1400 -19 c30 -4 66 -30 165 -116 310 -270 426 -391 468 -492 14 -35 14 -42 -1 -82 -22 -57 -111 -168 -211 -263 -104 -99 -327 -298 -367 -327 l-31 -23 -783 0 -783 0 0 650 0 649 73 4 c135 6 1432 7 1470 0z"
       id="path30" />
    <path
       d="M3023 3363 l-33 -4 0 -490 0 -489 495 0 495 0 0 490 0 490 -107 0 c-60 1 -268 2 -463 4 -195 2 -370 2 -387 -1z m197 -19 c0 -10 -123 -134 -175 -177 -27 -22 -44 -34 -37 -27 6 8 12 21 12 30 0 21 146 166 164 162 8 -1 17 2 21 8 7 11 15 13 15 4z m-10 -189 c-107 -107 -198 -195 -201 -195 -4 0 -5 10 -1 23 6 26 321 349 333 341 5 -3 19 2 31 10 12 9 25 16 28 16 2 0 -83 -88 -190 -195z m625 119 c39 -36 82 -73 98 -82 19 -12 27 -24 27 -45 0 -16 -4 -27 -9 -25 -19 6 -221 189 -232 209 -23 43 45 10 116 -57z m46 35 c19 -18 44 -38 57 -47 22 -14 32 -62 12 -62 -13 0 -150 130 -150 142 0 18 47 -1 81 -33z m-841 27 c0 -2 -7 -9 -15 -16 -13 -11 -14 -10 -9 4 5 14 24 23 24 12z m497 -23 c30 -30 244 -221 355 -319 51 -45 67 -65 68 -86 0 -16 -3 -28 -7 -28 -4 0 -48 39 -98 88 -49 48 -154 143 -231 212 -119 107 -139 128 -130 143 6 9 12 17 13 17 1 0 14 -12 30 -27z m90 -5 c20 -18 73 -66 117 -107 45 -40 111 -99 148 -130 53 -44 68 -62 68 -83 0 -34 -10 -35 -36 -7 -10 12 -101 96 -201 186 -101 91 -183 167 -183 169 0 2 11 4 25 4 15 0 41 -14 62 -32z m146 -54 c51 -48 113 -103 140 -123 37 -27 47 -42 47 -63 0 -25 -2 -27 -19 -18 -11 5 -23 15 -26 20 -3 6 -39 38 -78 72 -40 33 -105 92 -145 130 -71 67 -72 68 -41 68 25 0 48 -16 122 -86z m183 72 c3 -8 4 -24 2 -36 -3 -20 -5 -20 -43 14 l-40 35 38 1 c24 0 40 -5 43 -14z m-408 -103 c231 -204 273 -242 340 -306 l72 -69 0 -224 0 -224 -257 0 -258 1 24 20 c19 15 25 32 29 74 2 30 0 55 -5 55 -4 0 -42 -34 -83 -75 -60 -60 -80 -75 -105 -75 -28 0 -24 6 83 113 111 111 112 113 112 160 0 26 -3 47 -8 47 -4 0 -79 -72 -167 -160 -145 -145 -163 -160 -195 -160 -34 0 -31 3 168 203 199 200 202 204 202 246 0 30 3 40 12 35 6 -4 3 5 -8 19 -22 30 -38 35 -30 9 4 -13 -54 -77 -229 -252 -215 -215 -235 -232 -235 -205 0 26 34 64 242 272 l243 242 58 -57 c73 -72 74 -58 2 20 -48 51 -70 98 -48 98 4 0 49 -42 100 -92 51 -51 93 -88 93 -82 0 11 -223 234 -234 234 -4 0 -6 -6 -4 -13 3 -13 -442 -470 -450 -462 -16 16 27 71 160 201 84 82 189 186 233 231 l80 81 115 -104 c139 -127 190 -169 190 -156 0 6 -33 38 -72 73 -168 144 -220 197 -216 223 3 23 11 18 104 -67 201 -184 264 -238 264 -229 0 10 -52 60 -243 231 -70 63 -127 118 -127 122 0 13 -31 39 -46 39 -8 0 -14 -5 -14 -11 0 -6 7 -9 15 -5 33 12 -9 -35 -224 -249 -196 -194 -221 -217 -221 -192 0 23 41 69 227 257 124 127 228 230 231 230 2 0 38 -30 80 -67z"
       id="path31" />
    <path
       d="M3400 3209 c0 -5 5 -7 10 -4 6 3 10 8 10 11 0 2 -4 4 -10 4 -5 0 -10 -5 -10 -11z"
       id="path32" />
    <path
       d="M3420 2870 c0 -5 5 -10 10 -10 6 0 10 5 10 10 0 6 -4 10 -10 10 -5 0 -10 -4 -10 -10z"
       id="path33" />
    <path
       d="M5080 2870 l0 -670 803 0 803 0 84 78 c47 42 128 114 180 159 230 197 360 357 360 442 0 31 -56 128 -112 195 -59 70 -438 408 -498 445 -35 21 -37 21 -827 21 l-793 0 0 -670z m1606 638 c46 -25 283 -235 425 -377 127 -128 179 -203 179 -261 0 -73 -140 -240 -353 -422 -73 -62 -160 -139 -194 -170 l-62 -58 -791 0 -790 0 0 650 0 649 138 4 c75 2 425 3 777 3 574 -1 643 -3 671 -18z"
       id="path34" />
    <path
       d="M5438 3363 l-38 -4 0 -490 0 -489 500 0 501 0 -2 490 -1 490 -147 0 c-80 0 -288 2 -461 4 -173 2 -332 2 -352 -1z m202 -21 c0 -4 -49 -57 -110 -117 -97 -96 -110 -107 -110 -84 0 42 115 176 171 198 30 12 49 13 49 3z m-15 -192 c-110 -110 -202 -195 -203 -190 -10 30 21 69 175 221 136 134 174 166 198 167 27 2 9 -18 -170 -198z m520 107 c39 -44 107 -119 153 -168 74 -78 83 -92 80 -120 -3 -32 -4 -31 -108 87 -58 65 -137 154 -177 198 -40 43 -70 82 -68 86 13 20 57 -10 120 -83z m106 -32 c54 -62 106 -116 114 -119 10 -3 15 -19 15 -43 l0 -37 -36 35 c-39 38 -237 266 -242 278 -1 5 9 6 23 3 17 -3 59 -42 126 -117z m128 42 l-1 -72 -59 65 c-32 35 -59 68 -59 72 0 19 49 6 64 -17 9 -14 24 -25 33 -25 14 0 14 3 -3 21 -15 17 -16 22 -4 29 24 15 29 2 29 -73z m-919 70 c0 -2 -9 -12 -20 -22 -19 -18 -20 -17 -20 3 0 15 6 22 20 22 11 0 20 -2 20 -3z m626 -100 c50 -56 137 -152 193 -214 73 -81 101 -119 101 -137 0 -14 -4 -26 -10 -26 -5 0 -33 28 -61 63 -56 66 -131 152 -271 308 -49 53 -88 100 -88 103 0 3 10 6 23 5 15 0 51 -33 113 -102z m212 24 c45 -50 75 -92 79 -112 9 -48 -11 -35 -99 67 -100 115 -106 124 -75 124 16 0 44 -23 95 -79z m-227 -92 c79 -89 174 -197 211 -239 37 -43 71 -80 77 -81 15 -5 26 -69 13 -69 -6 0 -39 32 -74 71 -35 40 -90 102 -123 139 -33 36 -105 117 -160 178 -88 100 -115 124 -115 107 0 -3 26 -34 58 -68 31 -35 107 -119 167 -187 61 -69 143 -159 183 -201 61 -64 72 -81 72 -110 l-1 -34 -45 50 c-270 299 -424 480 -424 497 0 10 -5 18 -11 18 -5 0 -115 -103 -242 -229 -182 -180 -233 -225 -235 -210 -3 15 62 87 245 274 136 139 251 254 254 254 3 1 70 -72 150 -160z m8 -183 c58 -66 150 -168 204 -227 71 -79 97 -114 97 -133 0 -37 -15 -27 -97 68 -203 234 -376 426 -381 421 -7 -6 42 -69 118 -150 36 -39 112 -125 170 -190 58 -66 124 -139 147 -162 32 -32 43 -50 43 -74 0 -28 -2 -30 -17 -18 -9 8 -48 51 -87 96 -39 45 -137 156 -218 246 -90 100 -148 174 -148 186 0 12 -3 21 -7 21 -5 0 -115 -107 -245 -237 -216 -216 -238 -235 -238 -208 0 25 36 65 245 275 135 135 245 252 245 260 0 9 13 1 32 -20 17 -19 78 -89 137 -154z m51 -231 c63 -71 145 -161 183 -201 49 -52 67 -78 67 -98 0 -15 -4 -26 -8 -24 -11 4 -249 268 -444 492 -15 17 -27 25 -28 18 0 -6 30 -47 67 -90 77 -89 320 -359 372 -414 l35 -38 -29 0 c-26 0 -48 21 -155 141 -224 252 -258 292 -271 318 -7 14 -15 28 -17 31 -1 2 -111 -104 -242 -235 -197 -197 -240 -235 -240 -215 1 14 6 35 13 48 7 12 119 129 247 260 l235 238 50 -51 c28 -28 102 -109 165 -180z m-16 -155 c77 -85 148 -165 159 -177 l20 -23 -26 0 c-21 0 -49 26 -141 129 -180 201 -214 236 -220 230 -6 -5 271 -320 293 -334 19 -11 12 -25 -14 -25 -19 0 -52 32 -149 143 -69 78 -126 150 -126 160 0 9 -3 17 -8 17 -4 0 -79 -72 -167 -160 -134 -135 -164 -160 -189 -160 -27 0 -13 17 173 204 135 136 200 209 196 218 -4 7 8 -5 26 -27 19 -22 97 -110 173 -195z m-51 -113 c37 -41 67 -78 67 -81 0 -3 -11 -6 -24 -6 -36 0 -196 187 -196 230 0 28 5 23 153 -143z m-131 62 c15 -20 50 -61 78 -92 l52 -57 -30 0 c-24 0 -37 10 -68 50 -21 28 -42 50 -46 50 -4 0 -8 11 -8 25 0 14 -4 25 -8 25 -5 0 -41 -34 -81 -75 -60 -63 -77 -75 -104 -75 -31 0 -30 2 71 102 57 55 107 97 111 92 4 -5 19 -25 33 -45z m21 -147 c-14 -2 -30 2 -34 10 -7 10 -11 10 -21 0 -22 -22 -32 -12 -10 11 12 13 22 32 22 43 0 15 8 10 34 -21 l34 -40 -25 -3z"
       id="path35" />
    <path
       d="M7500 2870 l0 -670 793 0 c761 0 793 1 821 19 65 43 415 366 502 462 176 196 144 278 -240 618 -110 97 -220 191 -244 209 l-46 32 -793 0 -793 0 0 -670z m1607 635 c38 -24 307 -260 416 -364 43 -42 98 -105 123 -142 85 -124 70 -186 -85 -351 -90 -96 -361 -341 -438 -395 l-45 -33 -779 0 -779 0 0 650 0 649 103 4 c56 2 406 3 777 3 657 -1 676 -2 707 -21z"
       id="path36" />
    <path
       d="M7820 2871 c0 -270 3 -491 8 -493 4 -2 226 -2 495 0 l487 3 0 489 0 490 -495 0 -495 0 0 -489z m197 441 c26 -21 80 -68 118 -103 39 -35 124 -111 190 -169 65 -58 133 -117 149 -132 l31 -27 -25 0 c-14 0 -35 5 -47 12 -30 17 -503 443 -503 453 0 16 46 -2 87 -34z m141 -46 c43 -39 134 -120 202 -181 69 -60 147 -131 175 -157 l50 -47 -240 -241 c-207 -207 -244 -240 -270 -240 -28 0 -10 20 211 240 l241 240 -81 72 c-45 40 -108 97 -141 128 -34 30 -111 100 -173 155 -62 54 -112 102 -112 105 0 4 13 5 30 2 19 -3 57 -29 108 -76z m136 -45 c71 -64 152 -136 180 -160 28 -24 84 -74 124 -112 70 -67 71 -69 42 -69 -23 0 -45 15 -97 64 -38 34 -86 78 -108 97 -22 18 -67 58 -101 89 -33 30 -97 88 -142 128 -45 40 -82 78 -82 83 0 28 69 -17 184 -120z m-25 97 c30 -23 239 -209 336 -298 38 -36 90 -82 115 -102 l45 -37 -240 -241 c-209 -209 -244 -240 -270 -240 -29 0 -13 18 207 237 131 131 237 240 236 244 -2 3 -36 35 -76 70 -40 35 -111 98 -157 139 -46 41 -124 111 -174 154 -100 88 -116 110 -73 100 15 -4 38 -15 51 -26z m106 -15 c36 -30 86 -75 319 -287 42 -38 79 -66 83 -63 3 4 -18 28 -48 54 -30 27 -83 75 -120 108 -36 33 -105 95 -152 138 -48 43 -87 82 -87 86 0 5 12 6 27 3 17 -3 86 -58 178 -141 83 -75 165 -148 183 -163 30 -25 32 -31 32 -87 0 -34 -3 -61 -6 -61 -8 0 -112 89 -205 174 -36 34 -118 108 -182 166 -64 57 -117 108 -117 112 0 17 57 -6 95 -39z m185 -11 c121 -104 225 -208 228 -229 2 -13 0 -23 -5 -23 -4 0 -57 46 -118 101 -60 56 -131 119 -157 141 -26 22 -49 47 -52 55 -11 29 46 4 104 -45z m-571 -29 c120 -106 261 -233 350 -315 l74 -69 -240 -240 c-208 -210 -243 -240 -266 -237 -25 3 -7 23 208 238 l235 235 -77 75 c-43 41 -132 122 -198 180 -66 58 -142 127 -168 153 -27 27 -51 46 -54 43 -9 -9 20 -38 192 -190 88 -77 187 -167 220 -198 l60 -58 -31 0 c-18 0 -38 7 -45 17 -8 9 -46 44 -85 77 -39 34 -127 112 -197 174 -122 109 -127 115 -127 153 0 37 2 39 30 39 24 0 50 -17 119 -77z m701 -10 c72 -66 96 -94 98 -116 3 -27 2 -28 -16 -16 -10 8 -68 60 -128 116 -102 97 -107 103 -79 103 24 0 50 -18 125 -87z m48 37 c36 -34 52 -56 52 -74 0 -14 -3 -26 -8 -26 -4 0 -41 34 -82 75 -72 73 -74 75 -45 75 22 -1 45 -14 83 -50z m52 14 l0 -36 -40 32 c-22 17 -40 34 -40 36 0 2 18 4 40 4 39 0 40 -1 40 -36z m-720 -269 c62 -55 128 -112 144 -127 l31 -26 -200 -202 c-196 -197 -200 -200 -203 -169 -3 29 10 45 162 199 91 91 166 169 166 172 0 3 -73 73 -162 154 -132 120 -164 154 -166 179 -4 29 -3 29 55 -25 32 -30 110 -100 173 -155z m4 -82 c78 -72 79 -73 47 -73 -26 0 -46 14 -109 74 -42 40 -98 91 -124 112 -35 29 -47 46 -47 67 -1 27 2 26 77 -39 42 -37 113 -101 156 -141z m-44 -37 l34 -36 -112 -113 c-107 -107 -112 -111 -112 -81 0 25 15 45 84 112 l84 82 -84 77 c-59 54 -84 84 -84 100 0 21 8 17 78 -41 42 -35 93 -80 112 -100z m-90 5 c43 -38 44 -40 19 -41 -37 0 -119 66 -119 97 l0 24 28 -20 c15 -11 47 -38 72 -60z m-65 -16 c19 -15 19 -16 -8 -42 l-27 -28 0 43 c0 46 5 49 35 27z m915 -147 c-5 -17 -18 -41 -29 -52 -11 -12 -83 -85 -159 -163 -125 -128 -143 -143 -173 -143 -33 0 -28 5 161 195 107 107 198 195 202 195 3 0 3 -14 -2 -32z m2 -170 c-7 -47 -147 -188 -187 -188 -28 0 -23 7 80 110 60 61 110 110 111 110 0 0 -2 -14 -4 -32z m1 -168 c-3 -12 -14 -20 -26 -20 -19 0 -20 1 -2 20 10 11 21 20 26 20 4 0 5 -9 2 -20z"
       id="path37" />
    <path
       d="M3329 1841 c-25 -25 -29 -37 -29 -83 0 -75 27 -118 75 -118 46 0 75 29 75 75 0 49 -31 79 -76 72 -36 -6 -45 8 -22 31 15 15 48 16 48 2 0 -5 9 -10 20 -10 26 0 27 36 1 50 -33 17 -61 11 -92 -19z m77 -117 c8 -30 -6 -47 -32 -42 -13 2 -20 13 -22 36 -3 28 0 32 22 32 19 0 27 -7 32 -26z"
       id="path38" />
    <path
       d="M8162 1854 c-18 -13 -22 -24 -21 -62 1 -26 -2 -59 -6 -74 -5 -19 -2 -36 9 -53 21 -32 84 -35 111 -5 20 22 23 74 4 96 -9 11 -9 18 -1 26 19 19 14 56 -10 72 -29 20 -58 20 -86 0z m64 -35 c8 -14 -21 -43 -35 -35 -6 4 -11 16 -11 27 0 21 34 27 46 8z m4 -98 c14 -28 -13 -55 -41 -41 -19 10 -26 40 -12 53 13 14 43 7 53 -12z"
       id="path39" />
    <path
       d="M905 1823 c-3 -21 -8 -49 -11 -62 -5 -21 -3 -23 23 -16 55 15 68 12 71 -18 2 -16 -2 -35 -9 -43 -10 -13 -15 -13 -35 1 -46 30 -75 7 -36 -28 23 -21 71 -22 99 -2 27 19 38 67 22 97 -16 30 -28 38 -61 38 -48 0 -35 28 14 32 31 2 44 8 46 21 3 15 -5 17 -57 17 l-60 0 -6 -37z"
       id="path40" />
    <path
       d="M5710 1845 c0 -11 12 -15 49 -15 l50 0 -29 -62 c-38 -83 -42 -122 -14 -126 18 -3 22 3 27 39 3 23 22 73 41 110 l36 69 -80 0 c-64 0 -80 -3 -80 -15z"
       id="path41" />
    <path
       d="M257 1421 c-9 -225 -9 -947 -1 -1077 l7 -104 793 0 792 0 85 73 c389 330 547 504 547 602 0 74 -119 224 -313 392 -55 49 -142 125 -193 170 -51 45 -103 88 -116 95 -18 10 -180 13 -809 14 l-786 2 -6 -167z m1566 140 c22 -5 59 -28 90 -55 29 -26 93 -81 142 -123 160 -137 275 -247 314 -298 57 -76 91 -139 91 -169 0 -93 -134 -239 -564 -613 l-49 -43 -783 0 -784 0 0 655 0 655 753 0 c413 0 769 -4 790 -9z"
       id="path42" />
    <path
       d="M598 1403 l-38 -4 0 -489 c0 -382 3 -489 13 -491 6 -2 229 -3 495 -1 l482 3 0 489 0 490 -132 0 c-73 0 -279 2 -458 4 -179 2 -342 2 -362 -1z m5 -45 c-16 -18 -18 -19 -21 -3 -4 19 16 37 31 28 4 -3 0 -14 -10 -25z m187 24 c0 -4 -47 -54 -105 -112 -100 -100 -105 -103 -105 -75 0 25 15 45 78 107 67 66 88 81 125 87 4 0 7 -2 7 -7z m165 -14 c-38 -46 -360 -368 -368 -368 -5 0 -7 11 -5 25 4 30 319 352 351 358 12 2 26 5 31 6 5 0 1 -9 -9 -21z m360 -208 c109 -121 200 -218 203 -215 3 3 -4 15 -15 28 -11 12 -73 82 -139 156 -156 175 -214 242 -214 247 0 2 10 4 23 4 16 0 58 -40 157 -151 74 -83 150 -164 168 -180 l32 -28 0 -291 0 -290 -257 0 -256 0 20 23 c19 21 39 127 24 127 -4 0 -40 -34 -81 -75 -60 -60 -80 -75 -105 -75 -28 0 -25 5 77 108 104 105 106 108 110 160 3 28 1 52 -3 52 -4 0 -80 -72 -169 -160 -132 -131 -166 -160 -190 -160 -25 0 -8 20 171 200 181 180 199 202 193 225 -4 15 -1 37 6 51 35 65 -21 18 -245 -206 -224 -224 -245 -242 -245 -215 0 26 34 64 242 272 l241 241 45 -49 c63 -70 74 -61 13 12 -46 55 -71 103 -59 114 3 3 42 -36 87 -85 45 -50 87 -90 92 -90 5 0 -32 47 -82 105 -51 58 -93 105 -94 105 -1 0 -110 -109 -243 -242 -236 -237 -242 -242 -242 -208 0 31 19 53 240 275 l241 240 40 -45 c150 -165 212 -230 217 -225 3 3 -13 24 -35 48 -88 91 -212 242 -218 265 -13 53 -10 50 190 -173 134 -150 134 -150 140 -143 3 3 -54 73 -127 155 -73 82 -147 166 -165 186 -18 20 -36 37 -40 37 -4 0 -115 -107 -245 -237 -217 -217 -238 -235 -238 -208 0 25 35 64 240 270 l241 241 112 -125 c61 -69 139 -155 172 -191 33 -36 73 -80 88 -99 15 -18 31 -31 34 -27 3 3 -1 14 -9 23 -15 18 -142 161 -277 313 -41 47 -84 95 -95 108 l-19 22 25 0 c20 0 64 -43 223 -220z m40 127 c44 -50 101 -113 128 -141 34 -35 47 -57 47 -78 0 -17 -4 -27 -10 -23 -5 3 -54 56 -108 118 -55 62 -120 136 -146 165 l-48 52 29 -1 c22 0 43 -18 108 -92z m5 86 c0 -5 38 -48 85 -98 64 -68 85 -97 85 -117 0 -16 -4 -28 -9 -28 -5 0 -39 35 -75 78 -36 42 -84 98 -107 125 l-41 47 31 0 c17 0 31 -3 31 -7z m110 -38 c19 -25 41 -45 47 -45 9 0 13 -15 13 -42 l-1 -43 -45 50 c-25 28 -59 67 -76 88 l-30 37 29 0 c21 -1 37 -12 63 -45z m58 0 l3 -40 -35 34 c-44 43 -45 53 -3 49 30 -3 32 -6 35 -43z"
       id="path43" />
    <path
       d="M2674 1581 c-2 -2 -4 -305 -4 -673 l0 -668 800 0 799 0 173 152 c286 252 420 400 447 495 16 57 -40 161 -145 268 -70 71 -365 336 -432 387 l-53 42 -791 0 c-434 1 -792 -1 -794 -3z m1617 -42 c65 -50 324 -283 410 -368 93 -94 145 -164 166 -224 12 -34 11 -43 -7 -84 -40 -91 -145 -203 -413 -442 -71 -63 -142 -125 -160 -138 l-31 -23 -783 0 -783 0 0 650 0 649 88 4 c48 2 400 3 783 3 l696 -1 34 -26z"
       id="path44" />
    <path
       d="M3008 1403 l-28 -4 -1 -115 c-1 -63 -2 -179 -2 -259 0 -80 1 -248 2 -375 l1 -230 490 0 490 0 2 385 c0 212 2 433 2 493 l1 107 -465 1 c-256 1 -477 -1 -492 -3z m175 -205 c-153 -153 -181 -177 -180 -154 2 20 41 65 160 183 86 87 157 154 157 149 0 -5 -66 -77 -147 -159 -82 -83 -142 -147 -135 -143 6 4 81 76 164 161 84 85 155 152 157 149 3 -3 -76 -86 -176 -186z m357 186 c0 -4 -102 -109 -227 -236 -126 -126 -229 -233 -231 -238 -2 -6 7 -10 20 -10 23 0 33 -10 268 -277 47 -53 92 -99 99 -101 15 -5 -41 62 -226 271 -85 96 -91 105 -70 111 17 5 29 -2 57 -36 70 -84 233 -258 238 -254 2 3 -15 27 -39 55 -24 27 -85 96 -136 154 l-92 104 227 225 c212 211 268 255 290 233 3 -3 -99 -108 -226 -233 -128 -125 -232 -232 -232 -238 0 -17 26 -24 63 -17 25 4 84 58 277 249 172 171 253 244 268 244 12 0 22 -3 22 -8 0 -4 -103 -110 -228 -235 -179 -179 -230 -225 -240 -215 -9 9 -12 9 -12 0 0 -18 43 -58 48 -44 2 7 18 12 36 12 28 0 53 21 217 186 101 102 197 195 212 206 l28 20 -7 -29 c-4 -18 -64 -86 -175 -198 -93 -94 -169 -174 -169 -178 0 -4 24 -7 53 -7 l54 0 119 121 c116 117 120 120 116 86 -3 -27 -20 -51 -83 -113 -43 -43 -79 -82 -79 -86 0 -5 20 -8 45 -8 35 0 51 6 80 31 l35 31 0 -261 0 -261 -229 0 -230 0 -73 82 c-40 45 -98 109 -128 143 -31 33 -89 98 -129 145 -41 47 -80 91 -88 99 -7 8 -15 12 -19 8 -6 -6 59 -84 186 -223 108 -118 206 -229 214 -242 5 -8 0 -12 -17 -12 -25 0 -108 87 -320 334 -43 50 -86 97 -95 104 -14 11 13 42 228 257 134 134 253 246 264 248 12 2 24 5 29 6 4 0 7 -2 7 -5z m-371 -21 c-40 -55 -104 -112 -110 -101 -8 12 -11 6 -25 -39 -4 -15 -34 -6 -34 10 0 6 30 42 67 79 46 46 75 68 91 68 22 0 23 -2 11 -17z m-97 -577 c35 -40 116 -132 181 -204 64 -72 117 -133 117 -136 0 -3 -10 -6 -23 -6 -23 0 -30 8 -269 278 -55 62 -77 95 -78 115 0 15 2 27 5 27 2 0 32 -33 67 -74z m105 -207 c62 -68 113 -127 113 -131 0 -5 -10 -8 -23 -8 -16 0 -35 14 -57 43 -19 23 -74 85 -122 138 -73 80 -88 101 -88 129 l0 33 33 -40 c17 -22 83 -96 144 -164z m3 -88 l42 -51 -31 0 c-20 0 -34 7 -41 20 -6 12 -42 55 -81 97 -49 54 -69 84 -69 102 1 24 7 19 69 -46 38 -40 87 -95 111 -122z m-58 -23 l19 -28 -30 0 c-17 0 -31 4 -31 9 0 4 -18 29 -40 54 -27 31 -40 54 -40 74 1 27 2 27 51 -27 28 -30 60 -67 71 -82z m-62 -21 c0 -5 -12 -7 -27 -5 -25 3 -28 8 -31 43 l-3 40 30 -35 c17 -19 30 -39 31 -43z"
       id="path45" />
    <path
       d="M3445 1330 c-3 -5 -1 -10 4 -10 6 0 11 5 11 10 0 6 -2 10 -4 10 -3 0 -8 -4 -11 -10z"
       id="path46" />
    <path
       d="M3342 1053 c-62 -63 -111 -117 -109 -120 7 -6 228 218 225 227 -2 4 -54 -44 -116 -107z"
       id="path47" />
    <path
       d="M3160 1029 c0 -5 5 -7 10 -4 6 3 10 8 10 11 0 2 -4 4 -10 4 -5 0 -10 -5 -10 -11z"
       id="path48" />
    <path
       d="M3120 989 c0 -5 5 -7 10 -4 6 3 10 8 10 11 0 2 -4 4 -10 4 -5 0 -10 -5 -10 -11z"
       id="path49" />
    <path
       d="M3450 970 c0 -5 5 -10 10 -10 6 0 10 5 10 10 0 6 -4 10 -10 10 -5 0 -10 -4 -10 -10z"
       id="path50" />
    <path
       d="M3075 950 c-3 -5 1 -10 9 -10 9 0 16 5 16 10 0 6 -4 10 -9 10 -6 0 -13 -4 -16 -10z"
       id="path51" />
    <path
       d="M3360 894 c0 -9 103 -114 112 -114 5 0 -14 27 -43 60 -46 53 -69 71 -69 54z"
       id="path52" />
    <path
       d="M3317 856 c46 -58 144 -159 149 -153 7 7 -146 177 -159 177 -5 0 0 -11 10 -24z"
       id="path53" />
    <path
       d="M3125 1340 c-10 -11 -13 -20 -8 -20 13 0 38 29 31 35 -3 3 -13 -4 -23 -15z"
       id="path54" />
    <path
       d="M3080 1295 c-8 -9 -8 -15 -2 -15 12 0 26 19 19 26 -2 2 -10 -2 -17 -11z"
       id="path55" />
    <path
       d="M5086 1582 c-3 -3 -6 -306 -6 -674 l0 -668 803 0 802 0 96 88 c53 48 137 122 187 165 211 180 330 324 339 409 4 36 -1 52 -32 102 -20 33 -57 85 -83 115 -59 69 -433 404 -488 437 l-42 25 -785 3 c-432 2 -788 2 -791 -2z m1552 -21 c24 -5 58 -19 77 -33 62 -44 269 -231 396 -357 127 -128 179 -203 179 -261 0 -71 -170 -272 -372 -438 -48 -40 -121 -104 -162 -142 l-76 -70 -790 0 -790 0 0 650 0 649 73 4 c158 7 1425 6 1465 -2z"
       id="path56" />
    <path
       d="M5433 1403 l-43 -4 0 -490 0 -489 495 0 495 0 0 490 0 490 -167 0 c-93 1 -296 2 -453 4 -157 2 -304 2 -327 -1z m207 -21 c0 -4 -52 -59 -115 -122 -107 -106 -115 -113 -115 -86 0 22 19 48 86 117 48 48 96 90 108 92 11 2 24 5 29 6 4 0 7 -2 7 -7z m170 -1 c0 -4 -90 -100 -200 -212 -196 -200 -199 -203 -200 -169 0 31 15 49 178 212 123 124 184 178 200 178 12 0 22 -4 22 -9z m253 -129 c61 -69 130 -146 151 -171 22 -25 64 -72 95 -103 43 -45 51 -58 36 -58 -12 0 -105 -85 -247 -227 -138 -138 -231 -224 -236 -218 -5 6 -65 72 -133 148 -68 77 -150 170 -182 208 -32 38 -65 69 -74 69 -9 0 21 -39 68 -91 46 -50 111 -122 144 -159 33 -38 89 -101 124 -139 58 -66 61 -71 38 -71 -30 0 -13 -17 -212 206 -88 98 -175 194 -192 212 -18 19 -33 36 -33 38 0 2 10 4 23 4 17 0 84 61 245 224 l223 223 112 -125 c62 -69 139 -157 173 -196 67 -78 102 -112 108 -105 3 2 -41 56 -97 119 -204 228 -295 335 -291 342 12 19 56 -17 157 -130z m-603 125 c0 -2 -11 -14 -25 -27 l-25 -23 0 26 c0 22 5 27 25 27 14 0 25 -1 25 -3z m671 -114 c57 -64 121 -137 142 -162 21 -25 49 -56 63 -69 19 -16 24 -30 22 -54 -3 -35 7 -45 -285 289 -101 116 -100 113 -70 113 18 0 50 -29 128 -117z m31 49 c32 -37 89 -101 128 -142 53 -56 70 -81 70 -103 0 -16 -4 -27 -8 -25 -13 5 -292 324 -292 333 0 3 10 5 23 5 15 0 40 -22 79 -68z m46 36 c51 -62 125 -138 134 -138 6 0 -18 30 -52 68 -78 84 -88 102 -60 102 12 0 44 -24 74 -55 l55 -55 0 -76 0 -76 -63 69 c-35 38 -87 96 -116 131 -51 61 -51 62 -25 62 18 0 35 -11 53 -32z m150 -10 c2 -21 -1 -38 -6 -38 -10 0 -72 66 -72 76 0 3 17 4 38 2 35 -3 37 -5 40 -40z m-781 -654 c87 -97 171 -191 186 -210 l29 -34 -25 0 c-20 0 -44 21 -104 88 -43 49 -117 132 -165 184 -64 69 -88 102 -88 122 0 14 2 26 4 26 3 0 76 -79 163 -176z m783 124 c0 -28 -21 -53 -167 -200 -153 -154 -170 -168 -203 -168 -34 0 -33 2 165 200 110 110 201 200 202 200 2 0 3 -14 3 -32z m-788 -206 c129 -142 140 -157 118 -160 -26 -4 -25 -6 -187 178 -60 68 -93 113 -93 128 0 13 4 20 10 17 5 -3 74 -77 152 -163z m-14 -69 c39 -45 72 -84 72 -87 0 -3 -10 -6 -23 -6 -32 0 -197 191 -197 229 1 30 -7 36 148 -136z m798 84 c-3 -13 -41 -58 -85 -100 -61 -59 -85 -77 -107 -77 -27 0 -21 8 81 110 105 105 124 117 111 67z m-827 -139 l33 -38 -27 0 c-40 0 -124 93 -125 139 l0 33 43 -48 c24 -27 58 -66 76 -86z m-74 -4 l27 -35 -33 3 c-30 3 -34 7 -37 36 -4 42 9 41 43 -4z m905 -14 c0 -13 -7 -20 -20 -20 -25 0 -25 9 -2 26 22 17 22 17 22 -6z"
       id="path57" />
    <path
       d="M5715 1100 l-191 -190 55 -57 c30 -32 98 -107 151 -168 54 -60 109 -120 122 -133 l24 -22 192 192 c106 106 192 194 192 195 0 2 -8 3 -18 3 -11 0 -39 24 -63 52 -24 29 -82 95 -129 148 -47 52 -98 112 -115 133 l-30 37 -190 -190z m306 25 c35 -38 90 -100 122 -137 55 -64 57 -68 33 -68 -19 0 -52 30 -150 141 -111 124 -126 145 -126 176 l0 36 29 -39 c15 -21 57 -70 92 -109z m-50 -30 c113 -124 162 -185 155 -193 -5 -4 -63 -64 -131 -135 l-123 -127 -114 125 c-62 69 -115 130 -117 136 -4 12 249 271 260 267 4 -2 35 -35 70 -73z m-295 -263 c138 -152 204 -234 204 -253 0 -32 -15 -22 -81 54 -35 39 -101 113 -146 163 -46 50 -83 94 -83 98 0 3 10 6 23 6 15 0 42 -23 83 -68z"
       id="path58" />
    <path
       d="M5880 1114 c0 -3 36 -45 80 -93 44 -49 80 -91 80 -94 0 -4 -9 -7 -21 -7 -29 0 -106 86 -119 133 -6 20 -14 37 -18 37 -4 0 -50 -42 -101 -94 l-94 -94 50 -54 c28 -29 68 -73 88 -98 20 -25 39 -47 41 -50 3 -2 52 44 110 104 l105 107 -27 32 c-53 63 -161 177 -167 177 -4 0 -7 -3 -7 -6z m63 -156 l29 -37 -48 -55 c-46 -52 -50 -54 -67 -38 -11 9 -28 30 -39 45 l-21 29 49 49 c27 27 53 48 58 46 5 -2 23 -20 39 -39z m-115 -119 c49 -57 63 -91 43 -103 -5 -4 -18 5 -28 18 -10 13 -42 52 -71 85 l-54 61 29 0 c22 -1 40 -14 81 -61z"
       id="path59" />
    <path
       d="M5890 942 c0 -5 7 -15 15 -22 8 -7 15 -9 15 -6 0 4 -7 14 -15 22 -8 9 -15 11 -15 6z"
       id="path60" />
    <path
       d="M5855 896 c10 -14 22 -26 27 -26 13 0 -15 43 -31 48 -9 3 -7 -5 4 -22z"
       id="path61" />
    <path
       d="M7508 1585 c-5 -5 -8 -309 -8 -677 l0 -668 794 0 794 0 49 37 c26 20 89 74 138 119 50 45 126 114 170 154 108 96 229 231 254 284 59 122 -6 224 -323 504 -104 92 -211 184 -238 205 l-50 37 -202 0 c-112 0 -466 3 -787 6 -321 4 -587 3 -591 -1z m1555 -24 c40 -10 87 -45 267 -204 186 -165 268 -247 316 -318 85 -124 71 -186 -82 -348 -82 -87 -343 -325 -438 -398 l-41 -32 -782 -1 -783 0 0 649 c0 510 3 650 13 654 23 9 1492 7 1530 -2z"
       id="path62" />
    <path
       d="M8088 1403 l-288 -3 0 -490 0 -490 498 0 497 0 0 493 0 492 -210 0 c-115 1 -339 -1 -497 -2z m32 -121 c47 -52 104 -116 128 -143 33 -36 43 -54 40 -75 -3 -27 -6 -25 -73 51 -38 43 -107 119 -152 169 -45 50 -80 93 -77 97 12 20 59 -15 134 -99z m28 55 c20 -23 61 -67 89 -97 l53 -55 92 94 c84 86 139 123 156 107 3 -4 -52 -65 -123 -137 l-130 -130 -25 29 c-14 16 -63 72 -110 125 -47 54 -87 103 -89 109 -9 26 52 -5 87 -45z m89 -14 c36 -39 52 -66 55 -90 l4 -34 -22 23 c-47 49 -134 153 -134 161 0 22 50 -10 97 -60z m471 57 c-2 -5 -97 -104 -212 -220 -199 -202 -210 -211 -226 -193 -9 10 -54 61 -101 113 -46 52 -119 133 -162 180 -96 104 -106 120 -75 120 17 0 52 -33 128 -118 58 -64 133 -146 167 -182 l63 -66 187 186 c129 129 195 187 211 188 13 0 22 -3 20 -8z m-717 -127 c63 -70 153 -170 201 -222 76 -84 85 -98 72 -111 -12 -12 -16 -12 -28 0 -31 33 -314 349 -358 400 -26 30 -48 48 -48 40 0 -8 37 -56 83 -106 206 -228 312 -346 315 -353 1 -3 -90 -98 -203 -211 -188 -188 -205 -202 -205 -175 0 25 27 57 182 212 180 180 182 183 161 198 -13 9 -92 94 -178 190 -152 170 -177 209 -162 250 4 8 17 15 30 15 17 0 53 -33 138 -127z m293 115 c5 -10 7 -10 12 0 3 6 20 12 37 12 l31 0 -39 -40 -39 -40 -24 23 c-13 12 -28 30 -33 40 -8 14 -5 17 20 17 16 0 32 -6 35 -12z m487 -96 c-6 -15 -87 -103 -180 -195 l-169 -169 77 -81 c43 -45 110 -118 148 -162 39 -44 82 -91 97 -104 18 -17 26 -35 26 -58 l0 -34 -53 58 c-72 78 -210 232 -275 307 -29 34 -61 64 -70 67 -13 5 31 54 193 212 116 114 212 202 214 196 1 -5 -2 -22 -8 -37z m-828 -137 c44 -49 104 -115 134 -147 29 -31 53 -59 53 -62 0 -3 -10 -6 -23 -6 -24 0 -63 37 -178 170 -92 107 -109 130 -109 153 0 20 0 20 21 1 12 -10 58 -59 102 -109z m40 -128 l90 -99 -126 -126 c-115 -115 -127 -124 -127 -99 0 21 22 52 90 126 50 55 90 103 90 107 0 4 -28 39 -63 78 -103 117 -117 136 -117 164 1 27 1 27 36 -13 20 -22 77 -84 127 -138z m793 111 c-5 -24 -33 -60 -97 -124 l-91 -92 89 -98 c52 -57 92 -111 95 -126 8 -40 -9 -35 -56 19 -22 25 -71 80 -108 122 -38 42 -68 80 -68 86 0 9 230 245 239 245 2 0 1 -15 -3 -32z m-806 -190 c1 -24 -45 -1 -87 43 -51 53 -61 71 -62 104 0 14 20 -2 74 -60 41 -44 74 -83 75 -87z m-108 -50 l-42 -43 0 42 c0 23 5 44 13 47 10 5 10 7 0 12 -7 3 -13 20 -13 37 l0 32 42 -43 43 -42 -43 -42z m914 30 c-2 -40 -5 -77 -5 -82 -1 -12 -49 33 -63 58 -8 15 -3 25 28 57 21 21 40 39 42 39 2 0 1 -33 -2 -72z m-330 -106 c49 -54 138 -153 198 -220 60 -67 113 -122 118 -122 4 0 8 -4 8 -10 0 -5 -12 -10 -27 -10 -23 1 -56 32 -198 192 -93 106 -184 207 -201 225 -17 18 -29 35 -26 38 17 17 49 -6 128 -93z m154 0 c47 -53 103 -116 126 -140 24 -25 44 -55 46 -72 8 -52 11 -54 -197 178 -54 62 -103 112 -107 112 -4 0 -8 5 -8 10 0 6 12 10 28 10 22 0 43 -19 112 -98z m117 46 c44 -44 53 -58 53 -88 l-1 -35 -55 60 c-30 33 -64 72 -75 88 l-20 27 23 0 c14 0 43 -20 75 -52z m-202 -208 c66 -73 133 -148 148 -166 l28 -34 -23 0 c-27 0 -61 33 -244 239 -66 75 -120 128 -122 120 -1 -8 -80 -92 -175 -186 -146 -146 -177 -173 -202 -173 -28 0 -13 17 180 213 l210 213 40 -47 c22 -26 94 -107 160 -179z m-56 -24 c64 -70 124 -139 134 -152 19 -24 18 -24 -7 -24 -20 0 -51 30 -150 142 -87 98 -126 150 -126 166 0 22 2 23 17 11 9 -8 68 -72 132 -143z m-61 -18 c44 -51 92 -104 106 -117 32 -30 33 -41 3 -41 -18 0 -47 27 -112 101 -87 100 -87 100 -103 77 -8 -13 -49 -58 -91 -100 -60 -62 -81 -78 -105 -78 -28 0 -23 7 90 124 65 68 122 124 126 125 3 0 42 -41 86 -91z m52 -150 c0 -5 -11 -8 -24 -8 -31 0 -116 103 -115 140 0 22 8 16 69 -50 38 -41 70 -78 70 -82z m-97 -6 c-14 -2 -30 2 -35 10 -7 10 -11 10 -15 1 -2 -7 -19 -13 -36 -13 l-31 0 39 40 40 41 31 -38 32 -38 -25 -3z"
       id="path63" />
  </g>
</svg>
