<?xml version="1.0" standalone="no"?>
<!DOCTYPE svg PUBLIC "-//W3C//DTD SVG 20010904//EN"
 "http://www.w3.org/TR/2001/REC-SVG-20010904/DTD/svg10.dtd">
<svg version="1.0" xmlns="http://www.w3.org/2000/svg"
 width="996.000000pt" height="922.000000pt" viewBox="0 0 996.000000 922.000000"
 preserveAspectRatio="xMidYMid meet">
<metadata>
Created by potrace 1.16, written by Peter Selinger 2001-2019
</metadata>
<g transform="translate(0.000000,922.000000) scale(0.100000,-0.100000)"
fill="#FFFFFF" stroke="none">
<path d="M256 8828 c-8 -222 -8 -4450 1 -4625 l6 -133 2939 0 2938 0 0 2465 0
2465 -2938 0 -2939 0 -7 -172z m5864 -2293 l0 -2445 -2918 0 -2919 0 -6 353
c-9 487 -10 3863 -1 4235 l7 302 2919 0 2918 0 0 -2445z"/>
<path d="M1027 8242 l-247 -247 247 -248 c136 -136 248 -247 249 -247 0 0 113
112 250 249 l249 249 -248 246 c-136 135 -248 246 -250 246 -1 0 -114 -111
-250 -248z"/>
<path d="M2609 8245 l-245 -246 251 -249 c137 -138 250 -250 250 -250 1 0 112
111 248 248 l247 247 -248 248 c-136 136 -249 247 -252 247 -3 0 -116 -110
-251 -245z"/>
<path d="M4202 8247 c-133 -133 -242 -247 -242 -252 0 -6 110 -120 245 -255
l245 -245 233 234 c129 128 238 241 244 251 10 14 -25 53 -235 263 l-247 247
-243 -243z"/>
<path d="M1258 6788 l-3 -233 -237 -3 c-202 -2 -238 -5 -238 -17 0 -8 1 -16 3
-17 1 -1 108 -5 237 -8 l235 -5 3 -227 c2 -220 3 -228 22 -228 19 0 20 7 20
230 l0 230 238 2 c203 3 237 5 237 18 0 13 -35 16 -235 20 l-235 5 -3 233 c-2
223 -3 232 -22 232 -19 0 -20 -9 -22 -232z"/>
<path d="M2853 7012 c-9 -6 -13 -69 -15 -232 l-3 -225 -233 -3 c-215 -2 -233
-4 -230 -20 3 -15 24 -17 236 -20 l232 -2 0 -235 c0 -228 1 -235 20 -235 19 0
20 8 22 233 l3 232 235 5 c200 4 235 7 235 20 0 13 -35 16 -235 20 l-235 5 -3
225 c-1 123 -6 228 -10 232 -4 4 -13 4 -19 0z"/>
<path d="M4443 7012 c-9 -6 -15 -73 -19 -235 l-7 -227 -229 0 c-213 0 -229 -1
-226 -17 3 -16 23 -18 231 -21 l227 -2 2 -113 c1 -61 2 -164 3 -227 0 -112 1
-115 23 -118 l22 -3 0 230 0 231 236 0 c219 0 235 1 232 18 -3 15 -24 17 -233
22 l-230 5 -3 233 c-1 127 -6 232 -10 232 -4 0 -13 -4 -19 -8z"/>
<path d="M3655 5718 c-3 -13 -4 -315 -3 -673 l3 -650 760 -3 c418 -2 778 0
800 3 35 5 67 29 235 179 334 297 441 424 427 511 -8 46 -67 136 -141 213 -62
65 -250 238 -405 370 l-83 72 -794 0 -794 0 -5 -22z m1770 -155 c99 -87 221
-198 270 -248 92 -93 165 -200 165 -244 0 -78 -130 -228 -415 -480 l-200 -176
-785 0 -785 0 -3 600 c-2 330 0 624 3 653 l6 52 782 0 782 0 180 -157z"/>
<path d="M1163 5546 c-88 -22 -164 -66 -236 -137 -78 -78 -111 -142 -135 -261
-15 -75 -15 -88 0 -159 35 -166 130 -295 268 -362 195 -95 406 -59 565 97 188
185 194 473 14 670 -69 76 -121 110 -212 141 -85 28 -176 32 -264 11z m238
-22 c125 -37 232 -122 291 -231 97 -177 69 -404 -65 -543 -122 -125 -281 -179
-437 -146 -154 33 -262 113 -329 246 -75 150 -77 281 -5 430 92 193 341 304
545 244z"/>
<path d="M2739 5546 c-120 -33 -262 -144 -311 -241 -77 -151 -77 -318 -2 -467
31 -62 123 -161 180 -194 103 -61 221 -81 342 -60 203 36 354 186 398 396 42
202 -73 434 -261 525 -109 54 -242 69 -346 41z m282 -34 c170 -60 277 -196
311 -392 22 -130 -40 -301 -145 -395 -157 -142 -359 -170 -548 -75 -113 58
-209 181 -238 310 -25 108 -6 246 46 343 52 94 178 189 294 222 71 20 205 14
280 -13z"/>
<path d="M6360 6046 l0 -266 115 0 c162 0 206 11 254 66 48 54 66 116 65 216
-2 105 -35 176 -102 215 -44 26 -56 28 -189 32 l-143 3 0 -266z m288 177 c14
-11 34 -31 45 -45 38 -51 38 -215 0 -267 -40 -53 -66 -63 -167 -69 l-96 -5 0
200 c0 110 3 203 8 207 4 5 47 6 96 3 66 -3 95 -9 114 -24z"/>
<path d="M6918 6009 c-48 -39 -53 -67 -8 -44 l29 15 3 -97 c3 -84 6 -98 21
-101 15 -3 17 8 17 127 0 147 -2 149 -62 100z"/>
<path d="M930 3814 c-42 -39 -44 -58 -4 -48 24 6 24 6 24 -70 0 -74 1 -76 25
-76 l25 0 0 115 c0 133 -5 138 -70 79z"/>
<path d="M3322 3830 c-12 -12 -22 -27 -22 -35 0 -19 34 -19 50 0 7 8 21 15 31
15 24 0 26 -42 2 -61 -31 -26 -93 -111 -87 -120 3 -5 39 -9 80 -9 67 0 74 2
74 20 0 17 -7 20 -47 20 l-47 0 36 38 c62 63 70 119 22 141 -37 16 -68 13 -92
-9z"/>
<path d="M5742 3834 c-12 -8 -22 -21 -22 -29 0 -23 20 -28 39 -11 21 19 37 20
47 4 4 -6 -4 -21 -21 -34 l-28 -22 32 -17 c24 -12 31 -22 29 -38 -4 -28 -34
-34 -58 -12 -20 18 -40 13 -40 -9 0 -22 35 -46 68 -46 61 0 94 69 55 112 -13
14 -14 21 -5 30 31 31 -4 88 -53 88 -11 0 -31 -7 -43 -16z"/>
<path d="M8170 3778 c-64 -90 -64 -104 -4 -113 34 -5 48 -12 51 -26 7 -24 32
-25 40 -1 3 9 13 25 21 34 13 16 13 18 -2 24 -12 5 -16 19 -16 58 0 65 -9 96
-26 96 -7 0 -36 -32 -64 -72z m46 -43 c-5 -26 -12 -35 -26 -35 -25 0 -25 5 1
47 25 41 34 37 25 -12z"/>
<path d="M604 3543 l-342 -3 -7 -489 c-4 -269 -4 -570 0 -670 l7 -181 793 0
793 0 85 73 c387 329 547 505 547 601 0 76 -108 213 -306 387 -59 52 -149 131
-200 176 -51 45 -101 86 -111 91 -21 12 -756 20 -1259 15z m916 -20 l333 -6
53 -46 c29 -25 106 -92 171 -147 246 -210 383 -370 383 -444 0 -76 -124 -230
-334 -414 -56 -50 -142 -126 -191 -168 l-87 -78 -784 0 -784 0 0 650 0 650
343 3 c188 1 392 3 453 5 61 1 261 -1 444 -5z"/>
<path d="M1040 3363 c-131 -14 -230 -61 -321 -152 -99 -100 -138 -196 -139
-342 -1 -368 388 -602 721 -433 60 30 149 112 187 172 55 86 74 163 70 282 -3
96 -6 112 -39 180 -58 122 -167 225 -278 265 -46 16 -160 32 -201 28z m10
-248 l0 -225 -225 0 -225 0 0 28 c0 36 27 126 52 177 27 52 122 151 176 182
53 31 146 62 190 62 l32 1 0 -225z m171 205 c33 -12 79 -32 101 -46 105 -67
204 -217 215 -329 l6 -55 -224 2 -224 3 -3 223 -2 222 35 0 c20 0 63 -9 96
-20z m-171 -695 l0 -225 -23 0 c-40 0 -139 30 -189 57 -121 66 -236 246 -238
371 l0 22 225 0 225 0 0 -225z m487 168 c-9 -87 -64 -188 -140 -260 -82 -76
-200 -133 -279 -133 l-28 0 0 218 c0 120 3 222 7 225 3 4 105 7 226 7 l220 0
-6 -57z"/>
<path d="M2670 2875 l0 -675 793 0 c760 0 793 1 822 19 17 10 93 76 170 146
77 70 160 144 184 164 61 50 187 195 222 256 77 133 14 226 -401 591 -69 60
-141 121 -160 136 l-35 27 -798 5 -797 5 0 -674z m1622 623 c64 -49 324 -283
409 -367 93 -94 145 -164 166 -224 12 -34 11 -43 -7 -84 -40 -91 -145 -203
-413 -442 -71 -63 -142 -125 -160 -138 l-31 -23 -783 0 -783 0 0 650 0 650
658 3 c938 5 904 6 944 -25z"/>
<path d="M3236 3114 l-240 -244 247 -248 247 -247 240 240 c132 132 240 247
240 255 0 17 -470 491 -485 489 -6 -1 -118 -111 -249 -245z m484 -479 l-235
-235 -235 235 -235 235 235 235 235 235 235 -235 235 -235 -235 -235z"/>
<path d="M5203 3543 l-123 -4 0 -669 0 -670 803 0 802 1 55 50 c30 28 114 101
185 163 156 136 289 272 341 351 92 138 37 230 -335 560 -105 94 -210 181
-233 194 l-41 25 -666 1 c-366 1 -721 0 -788 -2z m1441 -22 c50 -12 75 -30
259 -194 270 -239 387 -378 387 -457 0 -66 -138 -238 -306 -380 -48 -41 -137
-119 -196 -173 l-109 -97 -789 0 -790 0 0 649 c0 510 3 650 13 654 24 9 1492
7 1531 -2z"/>
<path d="M5760 3342 c-85 -29 -139 -60 -196 -114 -105 -99 -154 -211 -154
-351 0 -146 45 -255 149 -357 99 -97 200 -140 336 -140 139 0 246 44 350 145
99 95 145 205 145 346 0 192 -104 357 -279 442 -82 40 -91 42 -191 44 -81 2
-118 -1 -160 -15z m312 -31 c84 -33 147 -79 200 -148 64 -86 90 -158 96 -270
10 -208 -85 -361 -284 -455 -66 -31 -74 -33 -184 -33 -95 1 -125 5 -172 24
-162 64 -272 207 -297 387 -27 188 79 387 250 471 90 45 129 53 239 49 69 -2
111 -9 152 -25z"/>
<path d="M7504 3541 c-2 -2 -4 -305 -4 -673 l0 -668 793 0 794 0 41 30 c23 16
72 58 109 92 37 35 88 81 113 102 95 81 302 292 332 338 44 70 48 123 13 192
-53 105 -104 158 -444 455 -53 46 -114 95 -135 110 l-40 26 -784 0 c-431 0
-786 -2 -788 -4z m1609 -41 c48 -35 315 -268 411 -360 96 -92 167 -196 174
-255 6 -60 -31 -124 -137 -237 -90 -96 -361 -341 -438 -395 l-45 -33 -779 0
-779 0 0 649 c0 510 3 650 13 654 6 2 357 4 778 3 l766 -1 36 -25z"/>
<path d="M8290 3125 l0 -235 -236 0 c-219 0 -235 -1 -232 -17 3 -16 24 -18
236 -21 l232 -2 0 -230 0 -230 25 0 25 0 0 230 0 230 233 2 c198 3 232 5 232
18 0 13 -34 15 -232 18 l-233 2 0 235 0 235 -25 0 -25 0 0 -235z"/>
<path d="M3328 1840 c-29 -29 -30 -34 -26 -95 5 -75 25 -105 72 -105 37 0 49
7 65 37 30 59 -5 119 -65 110 -26 -4 -34 -2 -34 9 0 20 52 44 58 26 2 -6 12
-12 23 -12 25 0 25 36 0 50 -33 17 -61 11 -93 -20z m74 -104 c15 -34 4 -58
-24 -54 -40 5 -35 77 5 78 4 0 12 -11 19 -24z"/>
<path d="M5763 1862 c-38 -2 -53 -7 -53 -18 0 -10 13 -14 49 -14 l50 0 -29
-62 c-38 -83 -42 -122 -14 -126 18 -3 22 3 27 39 3 23 21 72 41 109 l35 68
-27 3 c-15 2 -51 3 -79 1z"/>
<path d="M8163 1858 c-29 -14 -37 -41 -23 -69 9 -16 9 -28 1 -46 -27 -59 -1
-103 62 -103 27 0 41 7 56 26 25 32 26 40 6 78 -11 20 -12 33 -5 40 17 17 11
54 -12 70 -26 18 -53 19 -85 4z m63 -39 c3 -6 -1 -18 -10 -27 -15 -15 -17 -15
-32 0 -19 19 -11 38 16 38 10 0 22 -5 26 -11z m2 -96 c13 -26 4 -43 -24 -43
-26 0 -40 20 -30 45 8 21 43 19 54 -2z"/>
<path d="M906 1838 c-3 -13 -7 -40 -10 -61 -5 -38 -5 -39 22 -32 54 15 67 12
70 -18 2 -16 -2 -35 -9 -43 -10 -13 -15 -13 -35 1 -46 30 -75 7 -36 -28 43
-39 132 -1 132 56 0 37 -36 77 -71 77 -19 0 -29 5 -29 15 0 10 10 15 29 15 39
0 61 9 61 26 0 10 -15 14 -60 14 -54 0 -60 -2 -64 -22z"/>
<path d="M265 1581 c-3 -2 -5 -305 -5 -673 l0 -668 795 0 794 0 85 73 c285
242 478 434 517 513 13 27 24 67 24 89 0 82 -105 215 -308 392 -55 49 -142
125 -193 170 -51 45 -103 88 -116 95 -18 10 -178 13 -806 13 -430 1 -785 -1
-787 -4z m1558 -20 c22 -5 59 -28 90 -55 29 -26 93 -81 142 -123 160 -137 275
-247 314 -298 57 -76 91 -139 91 -169 0 -92 -187 -296 -558 -609 l-57 -47
-782 0 -783 0 0 655 0 655 753 0 c413 0 769 -4 790 -9z"/>
<path d="M995 1399 c-87 -10 -161 -41 -239 -101 -191 -146 -248 -394 -140
-610 30 -59 134 -171 188 -203 144 -83 325 -87 475 -10 62 31 161 121 198 179
84 132 92 330 19 474 -32 63 -135 175 -190 207 -91 53 -202 76 -311 64z m-190
-239 c-120 -120 -221 -218 -223 -215 -10 10 23 122 54 184 38 76 115 156 185
191 65 34 140 59 174 60 27 0 11 -19 -190 -220z m481 -10 c126 -127 230 -234
232 -238 1 -4 -103 -112 -230 -239 l-233 -233 -235 235 -236 234 231 234 c126
129 233 235 236 236 4 0 109 -103 235 -229z m-84 210 c155 -48 277 -183 314
-347 9 -41 15 -75 13 -76 -2 -1 -103 98 -224 220 -239 243 -240 246 -103 203z
m319 -535 c-23 -123 -90 -226 -192 -296 -76 -51 -136 -77 -202 -85 l-52 -6
225 225 c123 124 226 224 228 222 2 -2 -1 -29 -7 -60z m-516 -383 c-21 -5
-121 25 -176 53 -128 65 -206 180 -244 360 -5 25 34 -10 215 -190 138 -138
215 -221 205 -223z"/>
<path d="M2670 913 l0 -673 799 0 799 0 178 157 c286 250 417 396 444 491 19
71 -55 183 -230 347 -106 99 -312 281 -362 319 l-38 28 -795 2 -795 1 0 -672z
m1606 637 c10 -8 71 -60 134 -115 305 -265 407 -372 452 -474 19 -41 19 -45 3
-88 -37 -97 -231 -298 -538 -556 l-67 -57 -785 0 -785 0 0 650 0 649 108 3
c59 2 411 3 783 3 580 0 679 -2 695 -15z"/>
<path d="M3120 1246 c0 -8 71 -87 158 -176 l157 -162 -157 -157 c-144 -145
-180 -191 -146 -191 7 0 85 73 174 161 l162 161 162 -161 c89 -88 169 -161
176 -161 36 0 1 46 -146 195 l-160 160 160 160 c88 88 160 165 160 172 0 34
-45 0 -191 -144 l-158 -158 -160 158 c-149 146 -191 178 -191 143z"/>
<path d="M5087 1583 c-4 -3 -7 -307 -7 -675 l0 -668 801 0 802 0 74 68 c41 37
113 100 161 140 136 114 286 267 338 342 65 96 68 134 17 218 -21 35 -60 88
-86 117 -62 71 -411 383 -487 436 l-35 24 -786 3 c-432 1 -789 -1 -792 -5z
m1551 -22 c55 -11 76 -26 265 -194 272 -241 387 -377 387 -457 0 -72 -148
-250 -346 -416 -63 -53 -148 -127 -189 -165 l-75 -69 -790 0 -790 0 0 650 0
649 78 4 c170 7 1420 6 1460 -2z"/>
<path d="M5390 910 l0 -490 495 0 495 0 0 490 0 490 -495 0 -495 0 0 -490z
m970 0 l0 -470 -475 0 -475 0 0 470 0 470 475 0 475 0 0 -470z"/>
<path d="M7504 1581 c-2 -2 -4 -305 -4 -673 l0 -668 794 0 794 0 49 36 c26 20
75 62 108 93 33 32 96 88 139 126 224 196 336 338 336 424 0 86 -109 216 -379
452 -231 201 -236 205 -323 214 -75 7 -1506 4 -1514 -4z m1603 -36 c37 -24
307 -260 416 -365 106 -101 177 -207 177 -263 0 -57 -43 -129 -133 -224 -81
-85 -396 -370 -453 -408 l-37 -25 -778 0 -779 0 0 649 c0 510 3 650 13 654 6
2 356 4 777 3 747 -1 766 -1 797 -21z"/>
<path d="M7800 910 l0 -490 498 0 497 0 -1 488 0 487 -497 3 -497 2 0 -490z
m478 248 l-3 -223 -225 0 -225 0 -3 223 -2 222 230 0 230 0 -2 -222z m492 -3
l0 -225 -222 2 -223 3 -3 223 -2 222 225 0 225 0 0 -225z m-490 -490 l0 -225
-230 0 -230 0 0 225 0 225 230 0 230 0 0 -225z m490 0 l0 -225 -225 0 -225 0
0 225 0 225 225 0 225 0 0 -225z"/>
</g>
</svg>
