<?xml version="1.0" standalone="no"?>
<!DOCTYPE svg PUBLIC "-//W3C//DTD SVG 20010904//EN"
 "http://www.w3.org/TR/2001/REC-SVG-20010904/DTD/svg10.dtd">
<svg version="1.0" xmlns="http://www.w3.org/2000/svg"
 width="996.000000pt" height="922.000000pt" viewBox="0 0 996.000000 922.000000"
 preserveAspectRatio="xMidYMid meet">
<metadata>
Created by potrace 1.16, written by Peter Selinger 2001-2019
</metadata>
<g transform="translate(0.000000,922.000000) scale(0.100000,-0.100000)"
fill="#FFFFFF" stroke="none">
<path d="M257 8893 c-9 -138 -9 -4598 0 -4725 l6 -98 2939 0 2938 0 0 2465 0
2465 -2938 0 -2939 0 -6 -107z m5863 -2358 l0 -2445 -2918 0 -2919 0 -6 120
c-9 159 -9 4454 0 4633 l6 137 2919 0 2918 0 0 -2445z"/>
<path d="M4416 8347 c-52 -68 -80 -147 -80 -222 0 -66 9 -98 60 -211 3 -7 -17
-13 -59 -16 -124 -10 -231 -84 -294 -204 -37 -71 -28 -79 80 -78 135 2 242 59
306 164 l19 31 21 -34 c31 -51 96 -106 160 -135 47 -23 70 -27 143 -26 52 0
93 5 99 11 9 9 2 28 -24 75 -71 127 -186 198 -319 198 l-48 0 24 39 c79 125
71 287 -20 406 -14 19 -30 35 -35 35 -4 0 -19 -15 -33 -33z m75 -100 c17 -38
23 -70 23 -122 0 -52 -6 -84 -23 -122 -37 -83 -46 -85 -78 -17 -23 49 -28 73
-28 139 0 68 4 89 28 138 33 67 42 65 78 -16z m-81 -400 c0 -32 -88 -130 -142
-158 -43 -22 -141 -39 -175 -30 l-25 7 40 52 c72 96 150 138 260 141 28 1 42
-3 42 -12z m236 -12 c57 -24 100 -61 139 -118 35 -51 35 -52 13 -60 -47 -17
-183 27 -237 76 -26 24 -81 105 -81 120 0 14 121 1 166 -18z"/>
<path d="M2858 8234 c-5 -4 -8 -58 -8 -121 l0 -113 -236 0 c-154 0 -233 -3
-229 -10 4 -6 93 -10 236 -10 l229 0 0 -110 c0 -67 4 -110 10 -110 6 0 10 43
10 110 l0 110 229 0 c140 0 232 4 236 10 4 6 -78 11 -227 12 l-233 3 -5 118
c-3 65 -8 115 -12 111z"/>
<path d="M1192 8134 c-47 -28 -82 -85 -82 -133 0 -88 81 -171 165 -171 89 0
165 75 165 162 0 62 -20 101 -72 138 -54 39 -115 41 -176 4z"/>
<path d="M2838 6892 c-15 -15 -39 -52 -55 -82 -25 -48 -28 -66 -28 -145 0 -80
3 -97 31 -156 l32 -67 -67 -6 c-88 -9 -165 -46 -221 -105 -48 -52 -109 -155
-98 -166 4 -4 36 -10 71 -12 76 -6 155 10 213 42 39 23 109 91 133 131 11 18
12 18 29 -6 41 -59 98 -112 151 -137 49 -25 67 -28 153 -28 53 0 100 4 104 8
12 12 -42 113 -87 162 -56 60 -142 102 -228 111 l-68 6 31 61 c28 55 31 68 31
156 0 88 -3 102 -32 162 -18 36 -41 73 -51 82 -17 16 -20 15 -44 -11z m64
-108 c27 -59 30 -73 26 -137 -5 -71 -45 -177 -67 -177 -5 0 -22 26 -38 58 -23
47 -28 70 -28 132 0 62 5 85 28 133 16 31 33 57 38 57 6 0 24 -30 41 -66z
m139 -405 c50 -13 112 -60 154 -116 46 -63 45 -73 -8 -73 -100 0 -199 52 -260
137 -41 58 -32 77 31 68 26 -3 63 -10 83 -16z m-211 6 c0 -3 -11 -22 -24 -43
-56 -87 -143 -140 -246 -149 -78 -7 -82 5 -28 75 61 79 144 122 234 122 35 0
64 -2 64 -5z"/>
<path d="M1269 6678 c-1 -51 -2 -102 -3 -113 -1 -19 -9 -20 -233 -23 -144 -1
-233 -6 -233 -12 0 -6 88 -10 235 -10 l235 0 0 -117 c0 -64 3 -113 7 -109 8 8
9 15 11 139 l2 87 230 0 c147 0 230 4 230 10 0 6 -83 10 -229 10 l-228 0 -7
63 c-3 35 -3 84 0 109 4 29 2 48 -5 52 -8 5 -11 -20 -12 -86z"/>
<path d="M4385 6685 c-75 -41 -109 -96 -103 -166 9 -88 80 -152 168 -153 157
0 220 214 89 301 -49 32 -114 40 -154 18z"/>
<path d="M3655 5728 c-3 -7 -4 -310 -3 -673 l3 -660 796 0 795 0 35 29 c95 80
287 254 392 356 126 122 192 209 203 266 10 55 -43 151 -140 252 -75 78 -340
319 -447 405 l-46 37 -792 0 c-624 0 -793 -3 -796 -12z m1611 -30 c74 -56 349
-302 434 -388 112 -113 166 -200 157 -258 -13 -79 -161 -242 -447 -493 l-164
-144 -786 0 -785 0 -3 610 c-2 336 0 629 3 653 l6 42 778 0 778 0 29 -22z"/>
<path d="M1227 5394 c-72 -110 -82 -225 -28 -340 17 -36 31 -70 31 -74 0 -4
-31 -10 -69 -12 -122 -9 -224 -80 -286 -201 -38 -73 -31 -79 90 -74 116 4 176
30 242 101 26 29 53 60 58 70 9 16 14 13 43 -27 72 -102 164 -147 295 -147
113 0 117 4 77 79 -66 124 -184 201 -309 201 l-57 0 35 72 c33 66 36 79 36
157 -1 67 -6 97 -23 135 -27 60 -68 116 -85 116 -7 0 -29 -25 -50 -56z m108
-112 c27 -85 7 -195 -48 -267 -15 -19 -17 -18 -43 40 -48 102 -44 216 9 304
l20 34 23 -28 c12 -15 30 -53 39 -83z m-101 -383 c-26 -51 -89 -113 -141 -139
-57 -29 -202 -43 -188 -19 75 127 169 188 293 189 l53 0 -17 -31z m262 -2 c53
-27 112 -85 139 -136 l16 -31 -56 0 c-63 0 -137 25 -189 65 -34 26 -96 108
-96 128 0 19 133 1 186 -26z"/>
<path d="M2825 5233 c-31 -8 -84 -52 -106 -87 -27 -45 -26 -123 4 -167 65 -97
191 -103 265 -13 78 94 36 221 -87 262 -35 12 -43 13 -76 5z"/>
<path d="M6360 6046 l0 -266 109 0 c165 0 208 11 257 64 50 55 69 115 69 217
-1 103 -36 177 -103 216 -44 26 -56 28 -189 32 l-143 3 0 -266z m288 177 c55
-41 67 -68 70 -164 3 -75 1 -95 -18 -134 -30 -61 -63 -77 -177 -83 l-93 -5 0
200 c0 110 3 203 8 207 4 5 47 6 96 3 66 -3 95 -9 114 -24z"/>
<path d="M6904 6036 c-31 -14 -44 -33 -44 -64 0 -12 8 -8 31 16 16 17 36 32
42 32 21 0 57 -30 57 -47 0 -9 -31 -49 -70 -89 -94 -96 -93 -104 15 -104 69 0
85 3 85 15 0 12 -13 15 -60 15 -33 0 -60 3 -60 7 0 4 27 32 60 63 52 49 60 60
60 93 0 27 -6 40 -22 51 -37 23 -61 26 -94 12z"/>
<path d="M930 3814 c-22 -20 -40 -40 -40 -45 0 -13 34 -11 48 3 9 9 12 -6 12
-70 0 -81 0 -82 25 -82 l25 0 0 115 c0 133 -5 138 -70 79z"/>
<path d="M3322 3830 c-12 -12 -22 -27 -22 -35 0 -19 34 -19 50 0 7 8 21 15 31
15 24 0 26 -42 2 -61 -23 -20 -93 -109 -93 -120 0 -5 36 -9 80 -9 73 0 80 2
80 20 0 17 -7 20 -46 20 l-47 0 42 45 c32 34 41 52 41 79 0 60 -72 88 -118 46z"/>
<path d="M5748 3834 c-16 -8 -28 -23 -28 -34 0 -24 22 -26 40 -5 14 17 50 20
50 5 0 -5 -9 -19 -20 -30 -26 -26 -25 -33 3 -45 14 -7 22 -19 22 -35 0 -31
-29 -39 -55 -15 -20 18 -40 13 -40 -9 0 -45 97 -63 124 -24 21 29 20 67 -1 90
-13 14 -14 21 -5 30 29 29 -1 88 -44 88 -10 -1 -31 -8 -46 -16z"/>
<path d="M8188 3803 c-85 -122 -86 -129 -18 -138 40 -6 50 -11 50 -26 0 -32
28 -21 47 18 12 27 14 38 5 41 -7 2 -12 24 -12 55 0 109 -20 123 -72 50z m28
-68 c-5 -26 -12 -35 -26 -35 -26 0 -25 14 2 50 26 36 33 32 24 -15z"/>
<path d="M594 3543 l-331 -3 -6 -443 c-3 -243 -3 -544 0 -669 l6 -228 793 0
793 0 90 78 c212 182 292 255 388 355 103 109 141 168 150 235 9 75 -98 214
-302 392 -54 47 -140 122 -191 167 -51 45 -104 89 -118 98 -21 14 -81 17 -483
19 -252 1 -607 1 -789 -1z m1273 -39 c12 -7 51 -40 85 -72 35 -32 95 -84 133
-117 240 -200 375 -358 375 -438 0 -93 -185 -294 -558 -609 l-57 -48 -782 0
-783 0 0 173 c0 94 -3 240 -7 322 -3 83 -2 297 2 477 l7 328 702 2 c801 3 853
2 883 -18z"/>
<path d="M1060 3077 c0 -31 -4 -36 -45 -52 -48 -18 -87 -60 -106 -113 l-11
-32 -149 0 c-200 0 -198 -19 3 -22 l151 -3 10 -30 c17 -51 46 -84 97 -107 42
-19 50 -27 50 -50 0 -38 18 -35 22 3 3 26 9 33 43 45 44 14 89 61 107 111 l12
33 153 0 c95 0 153 4 153 10 0 6 -58 10 -154 10 l-153 0 -17 45 c-19 50 -59
87 -111 106 -28 11 -35 18 -35 40 0 15 -4 31 -10 34 -6 4 -10 -8 -10 -28z"/>
<path d="M2676 3543 c-3 -4 -6 -307 -6 -675 l0 -668 799 0 800 0 98 88 c366
323 432 390 495 500 76 130 10 226 -412 596 -63 56 -131 113 -150 128 l-35 27
-791 5 c-435 3 -794 2 -798 -1z m1618 -47 c17 -13 78 -65 136 -116 298 -264
400 -373 436 -468 17 -42 17 -42 -15 -106 -24 -49 -62 -95 -154 -189 -116
-118 -342 -324 -410 -374 l-31 -23 -783 0 -783 0 0 650 0 650 348 2 c191 2
544 2 786 1 l439 -3 31 -24z"/>
<path d="M3425 3024 c-75 -38 -109 -95 -103 -165 6 -62 46 -115 105 -141 39
-17 51 -18 92 -8 102 24 162 142 117 228 -44 85 -139 123 -211 86z"/>
<path d="M5084 3541 c-2 -2 -4 -305 -4 -673 l0 -668 803 0 802 1 55 50 c30 28
114 101 185 164 266 232 385 376 385 464 0 35 -60 134 -128 211 -66 75 -429
397 -485 430 l-42 25 -783 0 c-431 0 -786 -2 -788 -4z m1578 -24 c28 -7 97
-63 289 -233 220 -195 339 -340 339 -412 0 -79 -135 -238 -380 -447 -63 -54
-141 -123 -172 -152 l-57 -53 -790 0 -791 0 0 650 0 650 373 2 c621 5 1160 2
1189 -5z"/>
<path d="M5853 3202 c-52 -78 -67 -133 -61 -227 4 -58 12 -89 35 -134 l30 -59
-68 -6 c-87 -9 -175 -52 -228 -112 -46 -53 -99 -149 -87 -161 4 -4 51 -8 104
-8 86 0 104 3 153 28 52 25 129 95 157 142 12 20 12 20 24 0 28 -47 105 -117
157 -142 49 -25 67 -28 153 -28 53 0 100 4 104 8 14 14 -55 134 -103 177 -63
59 -138 91 -218 93 -36 1 -65 3 -65 4 0 1 14 30 32 65 58 114 49 256 -24 364
-18 26 -38 49 -44 51 -7 2 -29 -23 -51 -55z m84 -64 c24 -46 28 -65 28 -138 0
-75 -3 -91 -29 -137 -16 -29 -33 -53 -38 -53 -5 0 -21 26 -36 58 -39 83 -38
184 1 265 16 31 33 57 38 57 5 0 21 -24 36 -52z m163 -426 c47 -19 106 -70
138 -118 18 -26 32 -51 32 -56 0 -13 -83 -9 -138 7 -65 20 -128 67 -170 130
-29 43 -31 50 -17 55 21 7 121 -4 155 -18z m-245 -13 c-48 -93 -150 -158 -260
-167 -80 -6 -82 1 -21 79 60 77 143 119 233 119 l64 0 -16 -31z"/>
<path d="M7508 3544 c-5 -4 -8 -308 -8 -676 l0 -668 798 2 799 3 69 57 c199
166 468 427 516 501 61 94 45 172 -59 301 -49 60 -436 407 -507 455 l-39 25
-781 4 c-429 2 -784 1 -788 -4z m1601 -41 c36 -22 309 -262 414 -362 43 -42
98 -105 123 -142 84 -122 70 -184 -75 -341 -80 -86 -396 -371 -457 -413 l-37
-25 -778 0 -779 0 0 650 0 650 163 2 c89 2 440 2 780 1 580 -1 619 -2 646 -20z"/>
<path d="M8308 3104 c-5 -4 -8 -56 -8 -116 l0 -108 -230 0 c-147 0 -230 -4
-230 -10 0 -6 83 -10 230 -10 l230 0 0 -115 c0 -70 4 -115 10 -115 6 0 10 45
10 115 l0 115 235 0 c150 0 235 4 235 10 0 6 -85 10 -235 10 l-234 0 -3 116
c-2 64 -6 112 -10 108z"/>
<path d="M3329 1844 c-21 -22 -24 -35 -24 -94 0 -81 19 -110 71 -110 43 0 74
32 74 77 0 47 -32 77 -76 70 -37 -6 -39 -5 -24 24 11 20 45 26 55 9 11 -17 35
-11 35 10 0 44 -74 53 -111 14z m77 -120 c8 -30 -6 -47 -32 -42 -35 6 -30 68
5 68 14 0 23 -9 27 -26z"/>
<path d="M8163 1858 c-26 -12 -33 -34 -21 -67 5 -14 4 -36 -4 -58 -19 -52 4
-87 59 -91 34 -3 44 1 62 24 25 31 26 40 7 76 -12 22 -12 34 -3 59 11 28 10
33 -12 50 -26 21 -54 23 -88 7z m63 -39 c8 -14 -21 -43 -35 -35 -6 4 -11 16
-11 27 0 21 34 27 46 8z m-1 -109 c0 -16 -6 -26 -19 -28 -25 -5 -39 12 -31 38
10 31 50 24 50 -10z"/>
<path d="M906 1838 c-3 -13 -7 -40 -10 -61 -5 -38 -5 -39 22 -32 47 13 64 11
72 -11 6 -15 3 -29 -7 -43 -14 -21 -16 -21 -39 -7 -46 31 -75 9 -36 -27 25
-23 74 -21 103 2 18 14 24 29 24 61 0 48 -21 70 -67 70 -48 0 -35 28 14 32 31
2 44 8 46 21 3 15 -5 17 -57 17 -55 0 -61 -2 -65 -22z"/>
<path d="M5710 1845 c0 -11 12 -15 49 -15 l50 0 -29 -62 c-39 -84 -42 -122
-12 -126 18 -3 22 1 22 21 0 35 25 100 54 144 15 21 26 41 26 45 0 5 -36 8
-80 8 -64 0 -80 -3 -80 -15z"/>
<path d="M257 1463 c-9 -165 -9 -999 0 -1125 l6 -98 793 0 793 0 95 83 c415
358 536 493 536 592 0 73 -126 232 -310 390 -51 44 -137 119 -191 167 -54 48
-106 91 -116 96 -10 5 -364 12 -809 16 l-791 7 -6 -128z m1130 97 l462 0 55
-47 c30 -27 108 -94 173 -149 248 -213 383 -369 383 -445 0 -75 -130 -236
-330 -410 -47 -40 -110 -96 -140 -125 -30 -28 -77 -68 -103 -88 l-49 -36 -778
0 -778 0 -7 217 c-4 119 -5 395 -1 613 3 217 6 415 6 439 l0 44 323 -6 c177
-4 530 -7 784 -7z"/>
<path d="M1016 1363 c-41 -55 -76 -156 -76 -217 0 -22 11 -70 23 -106 l22 -65
-55 18 c-102 35 -238 10 -341 -64 l-30 -21 26 -28 c15 -15 50 -41 78 -56 48
-27 61 -29 152 -29 55 0 112 4 128 9 26 8 27 7 18 -17 -20 -53 -24 -142 -7
-198 21 -75 76 -164 101 -164 27 0 71 67 96 148 22 70 21 153 -1 213 -9 23 -8
24 18 17 15 -5 70 -8 122 -8 84 0 102 3 150 28 30 15 68 39 84 53 l30 26 -25
20 c-13 11 -53 33 -88 50 -87 40 -183 48 -264 21 -32 -11 -56 -17 -54 -14 33
59 41 93 41 171 1 76 -2 92 -31 151 -18 35 -43 75 -57 88 l-24 23 -36 -49z
m79 -85 c43 -95 37 -202 -15 -286 -25 -41 -38 -34 -70 41 -28 65 -31 164 -6
222 21 50 44 85 55 85 4 0 21 -28 36 -62z m-137 -343 c31 -14 52 -30 50 -37
-3 -7 -27 -24 -54 -38 -40 -21 -63 -25 -129 -25 -68 0 -89 4 -137 28 -32 16
-58 32 -58 36 0 8 97 54 135 65 40 10 139 -4 193 -29z m464 -2 c32 -14 58 -29
58 -33 0 -4 -24 -20 -52 -36 -47 -26 -63 -29 -138 -29 -71 0 -93 4 -135 25
-27 14 -51 30 -53 37 -4 14 61 49 115 63 56 14 139 3 205 -27z m-321 -146 c33
-77 31 -164 -7 -242 -16 -33 -33 -60 -39 -60 -5 0 -22 24 -37 54 -46 91 -35
238 24 308 15 19 31 3 59 -60z"/>
<path d="M2670 916 l0 -676 799 0 799 0 143 128 c78 70 175 155 214 189 147
127 267 287 267 357 0 58 -67 161 -170 263 -73 71 -352 320 -415 369 l-48 38
-795 3 -794 4 0 -675z m1607 629 c47 -30 305 -257 414 -365 102 -101 155 -170
176 -233 12 -34 11 -43 -7 -84 -44 -100 -235 -296 -533 -546 l-67 -57 -785 0
-785 0 0 650 0 649 143 3 c78 2 428 3 777 3 618 0 636 -1 667 -20z"/>
<path d="M3421 1369 c-22 -33 -45 -77 -51 -97 -13 -48 -13 -153 0 -187 9 -23
6 -32 -19 -60 -16 -19 -32 -43 -36 -54 -4 -12 -35 -36 -76 -57 -41 -22 -87
-56 -111 -83 -45 -52 -96 -146 -84 -158 4 -4 49 -7 99 -7 104 1 158 18 217 64
34 27 41 29 69 19 22 -8 44 -8 72 -1 39 10 44 8 88 -24 63 -45 156 -68 240
-60 35 3 66 8 69 11 9 9 -44 110 -79 150 -39 44 -101 88 -151 106 -21 7 -38
19 -38 25 0 7 -16 33 -35 58 -30 39 -33 49 -25 71 17 45 12 150 -10 209 -22
56 -74 136 -89 136 -5 0 -28 -27 -50 -61z m87 -63 c27 -54 39 -144 25 -194 -8
-33 -10 -34 -62 -36 -48 -1 -54 1 -63 24 -17 43 -4 149 26 208 15 29 32 52 39
49 6 -2 22 -25 35 -51z m-203 -435 c3 -11 17 -35 30 -55 l24 -35 -27 -20 c-45
-32 -104 -52 -169 -58 -74 -7 -77 -2 -33 62 34 50 82 92 125 111 40 18 43 17
50 -5z m410 -11 c48 -29 125 -123 125 -152 0 -28 -173 11 -229 51 l-31 23 20
27 c11 16 24 41 30 55 11 30 29 29 85 -4z"/>
<path d="M5088 1584 c-5 -4 -8 -308 -8 -676 l0 -668 803 0 802 1 65 60 c36 33
115 102 175 153 137 116 299 284 344 354 51 79 51 122 4 200 -21 34 -64 91
-95 126 -57 64 -431 398 -484 432 -26 18 -71 19 -813 22 -432 2 -789 0 -793
-4z m1597 -36 c46 -25 368 -312 466 -416 87 -91 139 -174 139 -222 0 -72 -148
-250 -346 -416 -63 -53 -148 -127 -189 -165 l-75 -69 -790 0 -790 0 0 649 0
650 53 4 c28 2 378 3 777 3 657 -1 728 -3 755 -18z"/>
<path d="M5854 1408 c-15 -18 -39 -58 -53 -88 -22 -46 -26 -69 -26 -140 0 -75
4 -93 31 -151 l32 -66 -66 -7 c-87 -9 -158 -45 -220 -109 -50 -54 -109 -153
-97 -165 4 -4 52 -7 108 -7 83 0 111 4 148 21 53 25 124 85 151 129 l18 30 0
-41 c0 -43 -14 -64 -42 -64 -23 0 -85 -55 -104 -93 -39 -75 -6 -170 75 -215
139 -78 296 81 222 226 -19 37 -82 82 -115 82 -12 0 -16 10 -16 41 l0 41 44
-49 c24 -27 68 -62 98 -78 47 -26 65 -30 153 -33 55 -1 106 1 114 6 11 8 7 21
-19 71 -64 120 -171 194 -298 207 -34 4 -62 8 -62 10 0 2 9 18 19 36 55 94 63
220 21 316 -24 53 -69 122 -80 122 -5 0 -21 -15 -36 -32z m82 -132 c29 -84 18
-177 -28 -254 -23 -38 -34 -34 -59 23 -45 102 -41 207 13 293 l21 34 18 -23
c10 -13 26 -46 35 -73z m-86 -374 c0 -13 -53 -83 -86 -114 -41 -38 -117 -69
-185 -75 -65 -6 -73 2 -42 47 45 68 111 119 183 141 35 10 130 11 130 1z m200
-2 c57 -16 126 -65 164 -117 51 -69 49 -77 -25 -70 -94 8 -179 55 -229 124
-22 31 -40 60 -40 65 0 11 87 10 130 -2z"/>
<path d="M7500 916 l0 -676 786 0 c677 0 790 2 817 15 18 8 73 52 123 97 50
46 141 128 203 183 210 188 300 311 288 397 -12 92 -112 208 -376 439 -247
216 -229 206 -363 211 -62 3 -420 6 -795 7 l-683 2 0 -675z m1618 620 c47 -34
307 -262 405 -355 101 -98 168 -194 174 -254 7 -61 -29 -126 -127 -230 -84
-89 -395 -370 -454 -411 l-39 -26 -778 0 -779 0 0 649 c0 461 3 650 11 653 6
2 357 3 781 2 l770 -2 36 -26z"/>
<path d="M7820 1142 c0 -4 101 -57 224 -117 199 -98 247 -125 217 -125 -14 0
-414 -197 -436 -215 -20 -16 -20 -16 3 -10 13 4 124 56 247 116 l223 110 209
-102 c250 -121 273 -132 273 -121 0 5 -101 58 -225 118 -123 60 -224 111 -225
114 0 3 97 52 215 109 190 92 258 131 228 131 -5 0 -113 -52 -241 -115 l-232
-114 -236 114 c-129 63 -237 115 -240 115 -2 0 -4 -4 -4 -8z"/>
</g>
</svg>
