<?xml version="1.0" standalone="no"?>
<!DOCTYPE svg PUBLIC "-//W3C//DTD SVG 20010904//EN"
 "http://www.w3.org/TR/2001/REC-SVG-20010904/DTD/svg10.dtd">
<svg version="1.0" xmlns="http://www.w3.org/2000/svg"
 width="996.000000pt" height="922.000000pt" viewBox="0 0 996.000000 922.000000"
 preserveAspectRatio="xMidYMid meet">
<metadata>
Created by potrace 1.16, written by Peter Selinger 2001-2019
</metadata>
<g transform="translate(0.000000,922.000000) scale(0.100000,-0.100000)"
fill="#FFFFFF" stroke="none">
<path d="M257 8893 c-9 -138 -9 -4598 0 -4725 l6 -98 2939 0 2938 0 0 2465 0
2465 -2938 0 -2939 0 -6 -107z m5863 -2358 l0 -2445 -2918 0 -2919 0 -6 120
c-9 159 -9 4454 0 4633 l6 137 2919 0 2918 0 0 -2445z"/>
<path d="M1128 8461 c-282 -90 -420 -408 -294 -673 98 -206 329 -323 539 -274
206 48 354 200 387 397 41 243 -107 485 -339 553 -75 22 -219 20 -293 -3z
m357 -44 c98 -47 160 -109 211 -211 94 -191 59 -401 -88 -543 -74 -70 -140
-107 -235 -129 -239 -56 -491 104 -552 351 -58 234 69 469 298 552 57 20 81
23 176 21 104 -3 114 -5 190 -41z"/>
<path d="M1225 8304 c-88 -23 -165 -75 -210 -142 -40 -61 -59 -151 -45 -220
21 -103 90 -191 185 -234 77 -35 184 -32 261 7 150 77 215 265 143 411 -32 62
-99 131 -153 155 -45 19 -144 32 -181 23z m175 -45 c56 -24 109 -76 142 -139
34 -67 33 -186 -4 -255 -55 -105 -142 -159 -258 -159 -64 -1 -84 4 -133 29
-68 34 -100 69 -135 145 -74 161 24 354 203 401 44 12 131 1 185 -22z"/>
<path d="M1222 8114 c-98 -50 -105 -170 -13 -231 52 -35 102 -31 151 13 64 58
66 125 7 190 -39 43 -94 54 -145 28z"/>
<path d="M2803 8300 c-182 -38 -292 -219 -239 -394 8 -26 33 -71 55 -101 85
-112 245 -153 372 -94 112 52 171 144 177 272 4 71 1 84 -27 142 -65 131 -204
203 -338 175z m177 -41 c25 -11 64 -38 87 -61 157 -154 87 -423 -125 -484
-172 -50 -353 76 -369 257 -20 220 202 377 407 288z"/>
<path d="M2804 8111 c-71 -43 -91 -106 -57 -178 45 -97 171 -96 228 0 21 36
25 53 19 81 -8 46 -39 85 -80 102 -45 19 -73 18 -110 -5z"/>
<path d="M4394 8116 c-49 -22 -74 -61 -74 -118 0 -107 101 -171 188 -118 94
58 95 182 0 231 -43 22 -71 23 -114 5z"/>
<path d="M4323 7005 c-161 -44 -296 -171 -344 -326 -28 -89 -26 -219 5 -303
79 -219 269 -348 491 -333 100 7 162 28 248 85 197 129 269 391 167 610 -35
76 -138 187 -208 225 -101 55 -247 72 -359 42z m236 -16 c201 -46 360 -247
361 -454 0 -289 -256 -510 -544 -468 -136 19 -246 92 -326 215 -54 83 -74 165
-68 281 7 129 44 211 137 300 72 70 122 100 204 122 62 16 174 19 236 4z"/>
<path d="M4340 6824 c-65 -28 -134 -89 -165 -145 -41 -76 -47 -191 -15 -267
32 -74 123 -156 197 -178 241 -70 459 153 387 395 -21 71 -117 170 -188 194
-61 21 -169 21 -216 1z m226 -28 c181 -84 229 -309 99 -454 -64 -72 -122 -97
-220 -97 -62 0 -89 5 -121 22 -61 32 -101 69 -132 122 -24 41 -27 56 -27 136
0 77 4 98 25 139 29 56 101 122 157 141 62 23 160 19 219 -9z"/>
<path d="M4363 6634 c-53 -41 -62 -111 -24 -183 28 -51 122 -67 177 -29 82 56
85 156 8 217 -40 31 -119 29 -161 -5z"/>
<path d="M1179 6826 c-112 -40 -187 -128 -209 -247 -18 -95 27 -219 104 -285
157 -134 401 -77 489 115 33 71 30 189 -5 257 -34 65 -114 137 -175 158 -56
19 -154 20 -204 2z m237 -39 c56 -28 93 -67 127 -131 32 -61 31 -183 -2 -250
-30 -61 -76 -107 -137 -137 -72 -35 -189 -34 -259 3 -182 96 -213 331 -63 476
80 76 228 94 334 39z"/>
<path d="M1203 6638 c-57 -40 -76 -103 -48 -157 26 -51 71 -81 122 -81 122 0
179 145 89 227 -30 28 -43 33 -83 33 -34 0 -58 -7 -80 -22z"/>
<path d="M2825 6659 c-75 -21 -117 -118 -81 -186 26 -50 62 -73 117 -73 44 0
53 4 88 39 51 51 59 88 31 146 -30 62 -92 92 -155 74z"/>
<path d="M3655 5728 c-3 -7 -4 -310 -3 -673 l3 -660 796 0 795 0 35 29 c95 80
287 254 392 356 126 122 192 209 203 266 10 55 -41 147 -139 250 -75 79 -336
316 -448 407 l-46 37 -792 0 c-624 0 -793 -3 -796 -12z m1611 -30 c71 -54 347
-301 429 -383 92 -92 165 -200 165 -244 0 -78 -124 -222 -413 -477 l-208 -184
-782 2 -782 3 -3 610 c-2 336 0 629 3 653 l6 42 778 0 778 0 29 -22z"/>
<path d="M2748 5545 c-85 -21 -155 -60 -221 -124 -70 -66 -102 -113 -128 -189
-57 -165 -25 -339 89 -474 106 -127 213 -178 372 -178 140 1 233 38 339 136
265 245 171 685 -174 814 -76 28 -199 35 -277 15z m221 -20 c144 -34 255 -126
319 -265 30 -64 36 -89 40 -167 3 -60 0 -110 -8 -140 -37 -137 -127 -244 -256
-308 -65 -32 -88 -38 -162 -43 -162 -9 -280 35 -378 141 -179 193 -177 471 4
650 128 126 277 170 441 132z"/>
<path d="M2769 5367 c-95 -36 -165 -105 -200 -196 -52 -139 16 -310 154 -383
57 -31 223 -33 276 -5 60 34 117 95 146 158 23 53 27 71 23 138 -5 119 -66
213 -173 268 -60 31 -170 41 -226 20z m178 -22 c104 -31 173 -109 200 -226 22
-98 -9 -192 -89 -265 -63 -58 -121 -78 -210 -72 -157 10 -263 112 -276 264 -7
92 18 155 88 226 83 82 175 106 287 73z"/>
<path d="M2793 5180 c-50 -30 -66 -62 -61 -121 6 -60 43 -104 101 -120 64 -17
125 16 152 85 21 52 6 104 -42 147 -41 35 -101 39 -150 9z"/>
<path d="M1189 5162 c-61 -62 -64 -113 -8 -176 39 -45 87 -61 132 -47 84 28
121 124 77 196 -27 44 -66 65 -121 65 -35 0 -48 -6 -80 -38z"/>
<path d="M6360 6045 l0 -267 143 4 c153 4 179 11 229 65 45 48 61 99 62 198 0
80 -3 97 -27 148 -22 44 -39 63 -75 84 -44 26 -56 28 -189 32 l-143 3 0 -267z
m288 178 c59 -44 67 -66 67 -178 0 -89 -3 -107 -21 -131 -41 -55 -64 -65 -167
-71 l-97 -6 0 200 c0 110 3 203 8 207 4 5 47 6 96 3 66 -3 95 -9 114 -24z"/>
<path d="M6898 6035 c-26 -15 -46 -51 -34 -63 4 -3 18 6 32 21 27 29 53 34 72
15 21 -21 13 -48 -18 -66 -34 -19 -39 -32 -12 -32 40 0 69 -65 40 -87 -32 -25
-50 -23 -78 7 -33 35 -40 37 -40 10 0 -57 96 -82 138 -37 27 28 29 83 5 109
-13 14 -14 21 -5 30 7 7 12 24 12 38 0 51 -64 81 -112 55z"/>
<path d="M930 3814 c-56 -50 -52 -66 10 -40 13 5 15 -6 12 -74 l-4 -80 26 0
26 0 0 115 c0 133 -5 138 -70 79z"/>
<path d="M3322 3827 c-12 -13 -22 -29 -22 -35 0 -17 35 -15 50 3 7 8 21 15 31
15 35 0 21 -40 -36 -103 -30 -33 -55 -66 -55 -74 0 -10 20 -13 80 -13 73 0 80
2 80 20 0 17 -7 20 -46 20 l-47 0 42 45 c32 34 41 52 41 79 0 62 -75 89 -118
43z"/>
<path d="M5742 3834 c-12 -8 -22 -21 -22 -29 0 -23 20 -28 39 -11 21 19 37 20
47 4 4 -6 -4 -21 -21 -34 l-27 -22 28 -13 c20 -10 29 -22 29 -39 0 -31 -29
-39 -55 -15 -20 18 -40 13 -40 -9 0 -43 85 -61 120 -26 24 24 26 72 5 90 -11
9 -13 16 -5 24 31 31 -5 96 -55 96 -11 0 -31 -7 -43 -16z"/>
<path d="M8170 3778 c-63 -90 -64 -104 -6 -112 32 -5 47 -13 51 -27 8 -24 34
-25 42 -1 3 9 13 25 21 34 13 16 13 18 -2 24 -12 5 -16 19 -16 58 0 65 -9 96
-26 96 -7 0 -36 -32 -64 -72z m46 -43 c-5 -26 -12 -35 -26 -35 -26 0 -25 14 2
50 26 36 33 32 24 -15z"/>
<path d="M589 3543 l-326 -3 -7 -458 c-3 -251 -4 -551 -1 -667 l6 -210 794 -3
793 -2 85 72 c390 332 547 506 547 604 0 53 -69 155 -179 265 -100 99 -339
311 -419 371 l-37 28 -465 3 c-256 2 -612 2 -791 0z m1315 -70 c30 -27 97 -84
148 -128 164 -141 278 -249 317 -300 56 -74 91 -139 91 -166 0 -50 -49 -128
-141 -227 -94 -100 -323 -309 -426 -389 l-55 -43 -779 0 -779 0 -2 243 c-4
381 -4 503 1 790 l4 267 783 0 783 0 55 -47z"/>
<path d="M1045 3000 c-68 -15 -105 -59 -105 -126 0 -78 57 -134 136 -134 42 0
51 4 86 40 33 35 38 47 38 86 0 91 -71 152 -155 134z"/>
<path d="M2674 3541 c-2 -2 -4 -305 -4 -673 l0 -668 799 0 800 0 98 88 c358
317 433 393 495 500 76 131 15 220 -412 596 -63 56 -131 113 -150 128 l-35 26
-793 4 c-437 2 -796 1 -798 -1z m1732 -142 c323 -282 427 -392 461 -490 12
-37 11 -45 -7 -86 -26 -58 -106 -157 -207 -253 -99 -95 -325 -297 -366 -327
l-31 -23 -783 0 -783 0 0 650 0 650 789 0 789 0 138 -121z"/>
<path d="M3363 3306 c-103 -33 -223 -141 -268 -238 -31 -69 -48 -177 -39 -253
14 -125 94 -258 194 -325 97 -65 240 -87 351 -54 77 23 128 56 193 124 170
178 165 457 -12 634 -33 33 -84 70 -121 89 -57 28 -76 32 -160 34 -61 2 -111
-2 -138 -11z m290 -39 c36 -16 80 -49 115 -84 214 -217 157 -571 -113 -704
-65 -32 -76 -34 -170 -34 -91 0 -106 3 -167 32 -91 43 -151 101 -193 187 -113
228 -33 486 185 596 71 36 89 40 190 36 77 -2 106 -8 153 -29z"/>
<path d="M3379 3207 c-88 -33 -151 -91 -196 -177 -25 -50 -28 -65 -28 -155 0
-89 3 -106 27 -155 35 -71 101 -140 164 -171 69 -34 207 -35 275 -1 65 32 137
104 167 170 38 81 42 194 12 275 -29 77 -92 153 -159 190 -47 27 -67 31 -140
34 -55 2 -99 -2 -122 -10z m214 -23 c64 -22 140 -92 174 -162 25 -50 28 -68
28 -152 0 -84 -3 -102 -28 -152 -57 -116 -174 -184 -302 -176 -120 8 -211 71
-265 183 -35 73 -39 190 -10 270 30 79 116 167 187 189 64 20 159 20 216 0z"/>
<path d="M3385 3101 c-22 -10 -56 -36 -76 -58 -140 -155 -35 -422 166 -423 71
0 110 14 162 56 61 50 87 109 87 199 0 59 -4 78 -27 117 -30 52 -76 95 -124
115 -46 19 -140 16 -188 -6z m194 -20 c143 -73 171 -272 54 -383 -123 -117
-325 -48 -363 125 -22 98 29 210 119 257 49 26 140 26 190 1z"/>
<path d="M3400 2994 c-85 -72 -80 -198 12 -254 94 -57 218 15 218 128 0 52
-19 91 -60 126 -25 21 -42 26 -85 26 -43 0 -60 -5 -85 -26z m151 -10 c54 -27
77 -126 43 -184 -48 -80 -165 -79 -214 3 -69 113 53 242 171 181z"/>
<path d="M3444 2899 c-17 -19 -17 -23 -3 -47 18 -34 64 -42 85 -15 19 25 17
47 -4 66 -25 23 -55 21 -78 -4z"/>
<path d="M5084 3541 c-2 -2 -4 -305 -4 -673 l0 -668 803 0 802 1 55 50 c30 28
114 101 185 164 180 156 263 239 316 315 58 83 73 120 65 165 -9 48 -92 168
-168 242 -115 112 -392 354 -438 381 l-45 27 -783 0 c-431 0 -786 -2 -788 -4z
m1602 -34 c45 -23 280 -232 425 -376 127 -128 179 -203 179 -261 0 -73 -133
-232 -348 -417 -75 -65 -165 -144 -199 -175 l-62 -58 -791 0 -790 0 0 650 0
650 348 2 c191 2 541 3 777 2 372 -1 434 -3 461 -17z"/>
<path d="M5797 3166 c-176 -63 -259 -274 -171 -435 63 -116 170 -178 293 -169
266 19 388 340 201 528 -82 81 -218 113 -323 76z m206 -22 c69 -23 141 -93
166 -160 57 -152 -1 -301 -149 -380 -26 -14 -56 -19 -120 -19 -76 0 -91 3
-139 30 -176 97 -202 349 -49 479 73 63 194 83 291 50z"/>
<path d="M5810 2964 c-37 -34 -40 -40 -40 -91 0 -51 3 -58 39 -94 35 -35 43
-39 91 -39 49 0 56 3 91 40 59 61 57 131 -5 188 -30 27 -43 32 -86 32 -43 0
-55 -5 -90 -36z"/>
<path d="M7508 3544 c-5 -4 -8 -308 -8 -676 l0 -668 793 0 c761 0 793 1 821
19 96 63 520 470 568 544 89 139 25 246 -337 563 -104 92 -206 177 -225 190
l-36 24 -785 6 c-431 4 -787 3 -791 -2z m1602 -41 c35 -23 309 -263 413 -362
43 -42 98 -105 123 -142 84 -122 70 -184 -75 -341 -80 -86 -396 -371 -457
-413 l-37 -25 -778 0 -779 0 0 650 0 649 138 4 c75 2 427 2 780 1 599 -3 646
-4 672 -21z"/>
<path d="M8195 3346 c-80 -19 -143 -54 -212 -119 -98 -92 -147 -193 -159 -326
-18 -201 128 -424 323 -492 176 -62 366 -21 504 109 113 105 154 210 147 376
-3 92 -7 108 -41 180 -64 136 -194 244 -328 275 -58 14 -172 12 -234 -3z m246
-22 c136 -40 232 -123 297 -253 34 -69 37 -83 40 -178 6 -171 -39 -276 -163
-383 -177 -153 -464 -142 -629 23 -96 95 -154 250 -142 373 21 205 155 366
349 419 71 19 182 18 248 -1z"/>
<path d="M8194 3156 c-141 -67 -215 -209 -183 -352 65 -288 462 -330 585 -62
70 154 10 328 -140 405 -76 39 -192 43 -262 9z m266 -32 c91 -49 141 -137 144
-249 1 -61 -3 -79 -32 -138 -37 -76 -83 -114 -171 -143 -152 -49 -324 44 -366
200 -21 75 -16 128 19 201 30 64 89 120 152 145 74 30 182 23 254 -16z"/>
<path d="M8243 2980 c-62 -37 -80 -115 -42 -177 57 -91 189 -83 233 15 24 54
15 101 -28 147 -29 31 -39 35 -82 35 -31 0 -61 -7 -81 -20z"/>
<path d="M3334 1847 c-23 -20 -28 -34 -31 -83 -5 -80 20 -124 72 -124 45 0 75
29 75 73 0 49 -33 81 -77 74 -28 -5 -34 -3 -31 10 5 27 35 40 58 25 26 -16 40
-15 40 2 0 22 -29 46 -55 46 -13 0 -36 -11 -51 -23z m66 -107 c16 -30 3 -62
-23 -58 -38 5 -33 77 5 78 4 0 12 -9 18 -20z"/>
<path d="M5763 1863 c-38 -3 -53 -8 -53 -19 0 -10 13 -14 49 -14 l50 0 -29
-62 c-38 -83 -42 -122 -14 -126 18 -3 22 3 27 39 3 23 22 73 41 110 26 50 32
69 22 69 -8 0 -20 1 -28 3 -7 2 -37 2 -65 0z"/>
<path d="M8168 1859 c-30 -17 -39 -45 -26 -74 9 -19 9 -28 0 -37 -18 -18 -14
-73 6 -91 30 -27 87 -22 111 9 25 32 26 40 6 78 -11 20 -12 33 -5 40 17 17 11
54 -12 70 -26 18 -55 20 -80 5z m58 -40 c8 -14 -21 -43 -35 -35 -6 4 -11 16
-11 27 0 21 34 27 46 8z m2 -111 c3 -24 0 -28 -23 -28 -27 0 -41 20 -31 46 10
27 51 13 54 -18z"/>
<path d="M906 1838 c-3 -13 -7 -40 -10 -62 -5 -37 -4 -38 22 -32 52 13 64 11
72 -10 6 -15 3 -29 -7 -43 -14 -21 -16 -21 -39 -7 -29 20 -54 20 -54 2 0 -42
74 -61 117 -31 27 19 38 67 22 97 -16 30 -28 38 -61 38 -18 0 -28 5 -28 15 0
11 12 15 45 15 38 0 45 3 45 20 0 18 -7 20 -60 20 -54 0 -60 -2 -64 -22z"/>
<path d="M260 913 l0 -673 794 0 794 0 85 73 c391 332 547 504 547 602 0 45
-65 149 -150 238 -73 78 -371 342 -451 402 l-41 30 -789 0 -789 0 0 -672z
m1563 648 c22 -5 59 -28 90 -55 29 -26 104 -91 167 -145 245 -209 380 -367
380 -443 0 -86 -103 -208 -389 -462 -63 -55 -139 -122 -170 -148 l-56 -47
-782 -1 -783 0 0 650 0 650 463 3 c254 1 593 3 752 4 160 2 307 -1 328 -6z"/>
<path d="M947 1203 c-147 -55 -234 -221 -192 -369 41 -147 173 -243 319 -232
121 10 213 73 262 180 70 155 9 329 -140 405 -67 35 -179 41 -249 16z m253
-39 c91 -50 142 -138 143 -249 1 -91 -28 -160 -93 -218 -121 -109 -304 -99
-413 22 -52 57 -70 104 -71 186 -1 83 25 149 82 208 66 68 117 88 222 84 61
-3 86 -9 130 -33z"/>
<path d="M2670 913 l0 -673 799 0 799 0 132 117 c73 65 168 150 212 188 98 87
218 222 253 287 46 84 33 137 -65 259 -52 65 -268 267 -438 409 l-92 77 -128
6 c-70 4 -430 6 -799 5 l-673 -1 0 -674z m1556 651 c40 -6 64 -23 212 -153
288 -252 396 -369 429 -464 12 -34 11 -43 -7 -84 -44 -100 -235 -296 -533
-546 l-67 -57 -785 0 -785 0 0 650 0 649 138 3 c329 7 1357 8 1398 2z"/>
<path d="M3341 1384 c-79 -21 -146 -61 -216 -129 -96 -93 -145 -210 -145 -345
0 -121 37 -216 123 -320 164 -199 463 -226 670 -62 114 91 175 206 184 347 15
235 -139 451 -362 510 -73 19 -182 18 -254 -1z m254 -19 c131 -35 238 -127
302 -260 45 -95 56 -211 29 -315 -62 -243 -326 -398 -569 -335 -300 78 -448
415 -300 687 52 95 192 202 301 227 60 14 173 12 237 -4z"/>
<path d="M3433 1039 c-17 -5 -45 -23 -62 -40 -25 -25 -31 -39 -31 -75 0 -89
51 -144 133 -144 46 0 54 4 89 40 34 36 38 47 38 91 0 44 -4 54 -37 89 -41 42
-80 54 -130 39z"/>
<path d="M5080 915 l0 -675 803 0 802 1 55 50 c30 28 114 101 185 163 244 211
373 363 382 448 4 37 -1 52 -34 106 -21 34 -64 91 -95 126 -57 64 -431 398
-484 433 -27 17 -69 18 -821 21 l-793 3 0 -676z m1605 633 c38 -20 289 -240
408 -357 132 -128 197 -222 197 -283 0 -65 -149 -248 -317 -389 -48 -40 -134
-115 -191 -166 l-102 -93 -790 0 -790 0 0 649 c0 510 3 650 13 654 6 3 356 4
777 3 692 -1 768 -3 795 -18z"/>
<path d="M5581 1334 c-58 -30 -122 -101 -141 -160 -19 -57 -8 -164 23 -216 53
-90 128 -133 232 -133 39 0 83 4 99 9 26 8 29 7 21 -10 -4 -10 -10 -46 -13
-80 -3 -47 1 -71 18 -112 12 -28 28 -57 36 -63 22 -18 17 -26 -33 -56 -41 -24
-59 -28 -123 -28 -57 0 -85 6 -116 22 -137 73 -171 221 -86 386 2 4 -1 7 -6 7
-6 0 -22 -23 -36 -52 -64 -129 -9 -293 120 -357 90 -45 204 -37 275 19 36 28
37 29 54 10 9 -10 40 -28 68 -40 155 -67 348 50 365 222 6 60 -13 138 -43 178
l-24 33 23 31 c31 41 46 89 46 145 0 82 -17 120 -84 187 -68 68 -105 84 -193
84 -60 0 -93 -11 -146 -47 -34 -24 -39 -25 -55 -10 -67 61 -193 74 -281 31z
m232 -24 c27 -13 50 -28 53 -31 2 -4 -7 -24 -20 -44 -14 -20 -30 -52 -37 -72
-11 -34 -8 -125 6 -170 7 -23 7 -23 -29 -8 -73 31 -200 10 -258 -42 -22 -20
-31 -13 -57 42 -30 64 -28 146 4 211 31 62 80 111 131 130 56 21 148 13 207
-16z m365 4 c59 -29 113 -90 132 -148 19 -58 9 -144 -23 -199 l-28 -46 -44 34
c-29 21 -62 36 -91 41 -47 7 -124 1 -158 -12 -16 -6 -18 -4 -12 12 28 71 14
185 -30 245 -13 18 -21 36 -17 42 3 5 29 20 57 33 71 33 145 32 214 -2z m-243
-137 c26 -87 15 -173 -28 -223 -22 -26 -22 -26 -41 -5 -40 45 -59 156 -35 218
5 15 20 42 32 60 20 30 23 31 39 16 10 -9 25 -39 33 -66z m-158 -208 c15 -5
42 -20 60 -32 l31 -21 -18 -26 c-38 -53 -183 -65 -267 -21 -65 32 -70 45 -28
71 19 12 48 26 63 30 39 12 126 12 159 -1z m421 -24 c23 -15 42 -31 42 -36 0
-4 -21 -21 -47 -36 -41 -24 -59 -28 -123 -28 -74 0 -103 10 -155 50 -19 15
-19 16 3 37 33 33 88 47 167 44 57 -2 78 -8 113 -31z m-257 -154 c14 -70 6
-133 -26 -188 -14 -24 -28 -43 -30 -43 -2 0 -17 21 -32 48 -24 40 -28 58 -28
122 0 65 4 82 29 124 l29 50 23 -30 c13 -16 29 -53 35 -83z m353 53 c13 -24
22 -64 24 -104 3 -56 0 -72 -25 -120 -51 -97 -144 -148 -251 -137 -46 5 -68
14 -130 55 -10 7 -6 20 18 59 36 58 49 143 32 206 l-11 39 27 -9 c15 -4 59 -8
97 -8 60 0 78 5 125 32 30 18 59 31 64 29 5 -1 19 -20 30 -42z"/>
<path d="M7500 916 l0 -676 786 0 c677 0 790 2 817 15 18 8 73 52 123 97 50
46 141 128 203 183 129 115 242 239 271 300 30 62 26 111 -14 178 -65 107
-101 144 -435 436 -53 46 -113 95 -134 109 l-38 25 -789 5 -790 5 0 -677z
m1616 622 c49 -35 307 -262 407 -357 43 -42 98 -105 123 -142 91 -132 72 -193
-120 -384 -132 -132 -351 -329 -411 -369 l-38 -26 -778 0 -779 0 0 649 c0 510
3 650 13 654 6 2 357 4 778 3 l766 -1 39 -27z"/>
<path d="M8171 1384 c-83 -22 -150 -63 -221 -134 -97 -97 -140 -199 -140 -335
0 -141 42 -241 146 -349 72 -73 133 -109 226 -131 172 -40 335 7 464 135 71
69 108 133 129 221 37 158 4 300 -100 432 -114 144 -321 210 -504 161z m314
-40 c84 -33 187 -129 229 -211 138 -274 6 -585 -286 -674 -137 -42 -318 -6
-422 83 -116 100 -176 224 -176 367 0 142 45 246 145 339 105 98 203 134 350
128 70 -3 106 -10 160 -32z"/>
</g>
</svg>
