<?xml version="1.0" standalone="no"?>
<!DOCTYPE svg PUBLIC "-//W3C//DTD SVG 20010904//EN"
 "http://www.w3.org/TR/2001/REC-SVG-20010904/DTD/svg10.dtd">
<svg version="1.0" xmlns="http://www.w3.org/2000/svg"
 width="900.000000pt" height="922.000000pt" viewBox="0 0 900.000000 922.000000"
 preserveAspectRatio="xMidYMid meet">
<metadata>
Created by potrace 1.16, written by Peter Selinger 2001-2019
</metadata>
<g transform="translate(0.000000,922.000000) scale(0.100000,-0.100000)"
fill="#FFFFFF" stroke="none">
<path d="M220 6825 l0 -2175 3390 0 3390 0 0 2175 0 2175 -3390 0 -3390 0 0
-2175z m6760 3 l0 -2153 -3370 0 -3370 0 0 2153 0 2152 3370 0 3370 0 0 -2152z"/>
<path d="M444 8880 c-11 -4 -33 -23 -48 -41 -24 -28 -27 -39 -23 -78 4 -36 13
-52 41 -78 80 -73 196 -18 196 93 0 29 -8 44 -39 75 -40 40 -78 49 -127 29z"/>
<path d="M824 8871 c-73 -46 -86 -117 -31 -177 26 -29 42 -37 79 -41 42 -5 49
-2 87 32 36 33 41 42 41 81 0 91 -102 152 -176 105z"/>
<path d="M1225 8881 c-45 -20 -70 -60 -70 -113 0 -44 4 -53 37 -84 30 -27 46
-34 79 -34 35 0 48 6 81 40 38 38 40 43 35 86 -6 60 -47 104 -103 110 -21 2
-48 0 -59 -5z"/>
<path d="M1604 8871 c-44 -27 -64 -59 -64 -103 0 -29 8 -45 38 -78 33 -34 45
-40 80 -40 34 0 50 7 82 36 35 32 40 42 40 81 0 39 -5 51 -39 84 -45 45 -86
51 -137 20z"/>
<path d="M2000 8878 c-32 -17 -70 -74 -70 -105 0 -118 159 -169 221 -71 45 73
-2 174 -87 184 -22 3 -50 -1 -64 -8z"/>
<path d="M2360 8851 c-44 -46 -51 -81 -25 -131 23 -44 62 -70 108 -70 32 0 46
7 78 39 33 32 39 45 39 80 0 61 -48 111 -113 118 -46 5 -49 4 -87 -36z"/>
<path d="M2780 8877 c-43 -21 -72 -76 -66 -122 7 -55 61 -105 112 -105 47 0
98 32 114 70 41 99 -66 204 -160 157z"/>
<path d="M3174 8881 c-40 -17 -74 -70 -74 -113 0 -34 7 -47 40 -80 38 -38 43
-40 87 -35 64 7 113 58 113 117 0 78 -95 141 -166 111z"/>
<path d="M3564 8880 c-34 -14 -74 -69 -74 -102 0 -125 153 -175 221 -72 61 93
-43 216 -147 174z"/>
<path d="M3920 8852 c-34 -34 -40 -46 -40 -82 0 -36 6 -48 39 -81 33 -33 45
-39 81 -39 36 0 48 6 82 40 38 38 40 43 35 86 -7 64 -47 104 -111 111 -43 5
-48 3 -86 -35z"/>
<path d="M4344 8880 c-34 -13 -74 -69 -74 -101 0 -77 51 -129 126 -129 51 0
114 62 114 111 -1 87 -89 151 -166 119z"/>
<path d="M4734 8881 c-40 -17 -74 -70 -74 -113 0 -34 7 -47 39 -79 33 -33 45
-39 81 -39 36 0 48 6 81 39 33 32 39 45 39 80 0 79 -94 143 -166 112z"/>
<path d="M5124 8881 c-11 -5 -33 -23 -47 -41 -64 -75 -5 -190 98 -190 30 0 45
8 77 40 38 38 40 43 35 86 -6 60 -47 104 -103 110 -21 2 -48 0 -60 -5z"/>
<path d="M5479 8851 c-33 -33 -39 -45 -39 -81 0 -36 6 -48 39 -81 33 -33 45
-39 81 -39 36 0 48 6 81 39 30 30 39 47 39 72 0 68 -62 129 -131 129 -23 0
-41 -10 -70 -39z"/>
<path d="M5904 8880 c-11 -4 -33 -22 -47 -40 -68 -80 0 -201 105 -187 79 11
130 101 96 167 -29 54 -101 82 -154 60z"/>
<path d="M6259 8851 c-32 -32 -39 -46 -39 -77 0 -72 52 -123 124 -124 52 0
116 61 116 111 0 68 -62 129 -131 129 -23 0 -41 -10 -70 -39z"/>
<path d="M6684 8880 c-11 -4 -33 -22 -47 -40 -46 -54 -33 -130 29 -171 83 -54
197 20 181 119 -12 74 -94 120 -163 92z"/>
<path d="M4732 8490 c-63 -28 -90 -101 -61 -163 17 -37 83 -71 126 -64 94 16
134 124 71 192 -45 48 -84 58 -136 35z"/>
<path d="M416 8469 c-81 -71 -42 -194 66 -206 37 -4 49 -1 77 23 67 56 70 118
9 181 -44 46 -102 47 -152 2z"/>
<path d="M818 8482 c-30 -18 -58 -67 -58 -102 0 -60 61 -120 123 -120 32 0 46
7 78 39 32 32 39 45 39 77 -1 22 -6 49 -14 62 -31 57 -114 79 -168 44z"/>
<path d="M1192 8466 c-33 -31 -37 -39 -37 -85 0 -43 4 -55 31 -82 23 -23 44
-33 76 -36 41 -5 48 -2 86 34 37 35 42 46 42 83 0 36 -6 48 -39 81 -32 33 -45
39 -80 39 -33 0 -49 -7 -79 -34z"/>
<path d="M1599 8483 c-53 -33 -73 -99 -46 -153 18 -36 74 -70 115 -70 49 0
112 65 112 116 0 94 -103 155 -181 107z"/>
<path d="M1968 8460 c-38 -38 -40 -43 -35 -87 4 -38 12 -54 41 -80 42 -39 84
-43 133 -13 74 45 83 123 22 186 -28 29 -40 34 -77 34 -38 0 -50 -5 -84 -40z"/>
<path d="M2359 8461 c-33 -33 -39 -45 -39 -81 0 -34 6 -48 33 -75 41 -41 77
-51 125 -36 72 21 104 113 63 175 -26 39 -57 55 -105 56 -32 0 -45 -7 -77 -39z"/>
<path d="M2748 8460 c-38 -38 -40 -43 -35 -86 13 -115 138 -150 213 -61 58 69
-3 187 -97 187 -35 0 -48 -6 -81 -40z"/>
<path d="M3159 8483 c-53 -33 -73 -99 -46 -153 18 -36 74 -70 115 -70 49 0
112 65 112 116 0 94 -103 155 -181 107z"/>
<path d="M3549 8483 c-36 -22 -59 -64 -59 -107 0 -27 8 -46 34 -74 31 -33 39
-37 85 -37 44 0 55 4 83 33 29 28 33 39 33 83 0 46 -4 54 -37 85 -43 39 -94
45 -139 17z"/>
<path d="M3942 8486 c-54 -29 -76 -103 -50 -161 14 -32 75 -65 119 -65 44 0
109 65 109 110 0 97 -97 161 -178 116z"/>
<path d="M4308 8460 c-38 -38 -40 -43 -35 -86 12 -114 138 -150 212 -62 59 70
-2 188 -98 188 -33 0 -46 -7 -79 -40z"/>
<path d="M5089 8461 c-33 -32 -39 -45 -39 -80 0 -33 7 -49 34 -79 31 -34 39
-37 86 -37 46 0 55 4 81 32 52 59 51 113 -6 170 -27 27 -41 33 -75 33 -36 0
-48 -6 -81 -39z"/>
<path d="M5496 8481 c-58 -38 -72 -107 -36 -166 43 -69 132 -73 188 -8 30 34
33 43 29 83 -10 90 -108 139 -181 91z"/>
<path d="M5869 8461 c-33 -32 -39 -45 -39 -80 0 -89 103 -148 178 -102 72 46
80 134 16 190 -52 46 -104 44 -155 -8z"/>
<path d="M6276 8481 c-39 -26 -55 -57 -56 -105 0 -32 7 -45 40 -78 38 -38 43
-40 86 -35 110 12 150 134 68 206 -41 37 -93 41 -138 12z"/>
<path d="M6649 8461 c-33 -32 -39 -45 -39 -79 0 -85 91 -144 166 -108 38 18
74 69 74 104 0 62 -61 122 -123 122 -32 0 -46 -7 -78 -39z"/>
<path d="M442 8100 c-67 -30 -91 -104 -52 -167 43 -72 135 -80 190 -16 49 56
37 138 -25 174 -49 28 -68 29 -113 9z"/>
<path d="M845 8106 c-44 -19 -85 -71 -85 -107 0 -85 78 -144 156 -119 105 35
112 175 11 223 -41 20 -43 20 -82 3z"/>
<path d="M1625 8106 c-45 -19 -85 -71 -85 -109 0 -78 79 -139 151 -118 113 34
118 181 9 225 -22 9 -41 16 -43 16 -1 -1 -16 -7 -32 -14z"/>
<path d="M2394 8101 c-17 -10 -40 -31 -52 -46 -64 -81 28 -206 129 -176 113
34 118 181 9 225 -50 20 -48 20 -86 -3z"/>
<path d="M2809 8110 c-66 -19 -99 -60 -99 -124 0 -89 126 -146 194 -87 45 39
57 100 31 151 -22 43 -82 72 -126 60z"/>
<path d="M3174 8101 c-45 -27 -74 -69 -74 -106 0 -47 38 -97 87 -115 38 -13
46 -12 78 3 67 32 94 113 56 170 -38 59 -98 78 -147 48z"/>
<path d="M3954 8101 c-45 -27 -74 -69 -74 -106 0 -69 82 -137 147 -121 44 12
93 71 93 113 0 50 -33 98 -80 117 -50 20 -48 20 -86 -3z"/>
<path d="M4356 8105 c-62 -22 -81 -47 -81 -109 0 -61 18 -90 73 -113 46 -19
96 -8 127 29 33 39 40 71 26 118 -13 43 -23 54 -72 74 -29 12 -40 12 -73 1z"/>
<path d="M4738 8106 c-16 -8 -39 -27 -53 -43 -71 -81 21 -215 126 -184 115 35
117 180 2 227 -40 17 -42 17 -75 0z"/>
<path d="M5122 8100 c-51 -23 -76 -68 -69 -122 17 -130 201 -138 233 -11 10
37 -12 98 -42 118 -47 31 -78 34 -122 15z"/>
<path d="M6684 8106 c-52 -23 -77 -63 -71 -119 11 -125 166 -156 223 -45 30
59 4 126 -60 158 -49 23 -51 23 -92 6z"/>
<path d="M1204 8091 c-60 -37 -69 -120 -19 -179 44 -53 131 -48 179 9 42 50
29 135 -26 173 -30 22 -96 20 -134 -3z"/>
<path d="M1984 8091 c-79 -48 -63 -174 26 -211 36 -15 98 1 129 34 46 49 35
141 -21 180 -31 22 -96 20 -134 -3z"/>
<path d="M3544 8091 c-38 -23 -58 -70 -51 -117 7 -44 31 -72 76 -91 99 -42
197 69 147 166 -31 60 -111 79 -172 42z"/>
<path d="M5475 8073 c-48 -49 -49 -106 -4 -157 56 -64 145 -56 189 16 32 53
26 94 -19 139 -34 34 -45 39 -84 39 -40 0 -51 -5 -82 -37z"/>
<path d="M5882 8094 c-77 -54 -65 -173 22 -209 76 -31 166 26 166 105 0 36
-31 90 -61 105 -37 20 -99 19 -127 -1z"/>
<path d="M6255 8075 c-29 -30 -35 -43 -35 -80 0 -119 149 -164 219 -67 35 49
26 97 -27 155 -21 22 -34 27 -74 27 -41 0 -52 -5 -83 -35z"/>
<path d="M833 7715 c-39 -17 -73 -68 -73 -110 0 -17 11 -47 25 -67 86 -127
275 -1 195 130 -19 31 -72 63 -102 62 -7 -1 -28 -7 -45 -15z"/>
<path d="M1603 7710 c-38 -23 -63 -67 -63 -109 0 -39 59 -107 100 -116 63 -14
140 50 140 117 0 45 -33 96 -75 114 -46 19 -64 18 -102 -6z"/>
<path d="M2003 7709 c-70 -34 -92 -108 -50 -170 32 -48 89 -67 139 -46 71 30
99 119 57 178 -38 53 -89 67 -146 38z"/>
<path d="M2393 7715 c-40 -17 -73 -69 -73 -112 0 -41 58 -109 100 -118 38 -8
92 16 119 53 67 95 -39 224 -146 177z"/>
<path d="M2795 7721 c-37 -16 -76 -67 -82 -107 -7 -53 28 -104 83 -123 36 -13
44 -12 78 4 89 42 100 148 23 206 -29 21 -77 30 -102 20z"/>
<path d="M3173 7715 c-40 -17 -73 -69 -73 -112 0 -39 56 -107 96 -117 64 -16
144 49 144 116 0 49 -42 105 -88 117 -45 13 -40 13 -79 -4z"/>
<path d="M3953 7715 c-39 -17 -73 -68 -73 -110 0 -46 43 -102 88 -116 102 -30
189 86 132 178 -31 52 -93 72 -147 48z"/>
<path d="M4733 7716 c-39 -18 -73 -69 -73 -110 0 -45 46 -104 91 -117 48 -15
88 0 124 46 72 95 -33 229 -142 181z"/>
<path d="M5147 7722 c-15 -2 -43 -19 -62 -38 -28 -27 -35 -43 -35 -73 0 -53
35 -102 86 -120 38 -13 44 -13 80 5 79 41 95 137 32 194 -32 30 -56 37 -101
32z"/>
<path d="M5520 7717 c-41 -14 -80 -68 -80 -111 0 -70 76 -135 140 -121 38 8
100 77 100 110 0 89 -80 150 -160 122z"/>
<path d="M6705 7722 c-53 -12 -95 -65 -95 -120 0 -44 39 -95 86 -111 36 -13
44 -12 78 4 42 20 76 66 76 103 0 74 -78 141 -145 124z"/>
<path d="M412 7686 c-32 -30 -37 -40 -37 -78 0 -85 70 -142 146 -119 76 23
110 102 74 171 -21 41 -53 60 -102 60 -35 0 -50 -6 -81 -34z"/>
<path d="M1188 7680 c-38 -37 -40 -43 -35 -82 7 -54 35 -90 83 -107 36 -12 44
-12 78 4 67 32 93 103 61 165 -21 42 -53 60 -103 60 -38 0 -50 -5 -84 -40z"/>
<path d="M3539 7697 c-15 -12 -32 -32 -38 -44 -44 -86 52 -193 146 -162 40 13
83 66 83 103 0 40 -24 90 -53 109 -38 24 -106 22 -138 -6z"/>
<path d="M4307 7682 c-29 -29 -37 -46 -37 -73 0 -51 37 -101 86 -118 38 -13
44 -13 80 6 81 41 96 135 31 194 -25 23 -41 29 -77 29 -40 0 -51 -5 -83 -38z"/>
<path d="M5865 7685 c-27 -28 -35 -44 -35 -73 0 -75 73 -141 138 -126 101 25
132 127 60 201 -27 28 -39 33 -80 33 -41 0 -52 -5 -83 -35z"/>
<path d="M6254 7686 c-29 -29 -34 -41 -34 -79 0 -55 33 -100 86 -117 48 -16
75 -7 118 40 40 44 46 81 22 129 -22 41 -59 61 -112 61 -39 0 -51 -5 -80 -34z"/>
<path d="M429 7317 c-45 -30 -61 -63 -55 -112 11 -93 127 -139 194 -77 57 53
55 130 -4 181 -43 38 -87 41 -135 8z"/>
<path d="M817 7314 c-105 -71 -57 -214 72 -214 33 0 47 7 76 35 29 30 35 43
35 79 0 49 -24 87 -70 111 -41 21 -70 19 -113 -11z"/>
<path d="M1215 7322 c-44 -27 -54 -44 -61 -95 -6 -45 -5 -49 33 -87 34 -34 47
-40 82 -40 49 0 86 22 107 61 29 58 12 118 -45 156 -41 28 -76 29 -116 5z"/>
<path d="M1599 7317 c-60 -40 -76 -106 -40 -161 26 -39 57 -55 108 -56 35 0
48 6 78 37 29 30 35 43 35 78 0 48 -25 87 -70 110 -40 21 -72 19 -111 -8z"/>
<path d="M1989 7317 c-70 -47 -79 -115 -23 -177 33 -36 41 -40 84 -40 43 0 51
4 84 40 43 48 47 90 13 141 -41 62 -100 75 -158 36z"/>
<path d="M2377 7314 c-103 -70 -57 -214 68 -214 125 0 158 167 45 225 -41 21
-70 19 -113 -11z"/>
<path d="M2769 7317 c-45 -30 -61 -63 -55 -112 7 -57 60 -105 117 -105 35 0
48 6 80 39 42 42 50 83 26 131 -16 33 -73 70 -107 70 -15 0 -42 -10 -61 -23z"/>
<path d="M3164 7321 c-18 -11 -39 -30 -48 -42 -32 -47 -13 -129 38 -163 31
-20 104 -21 130 -1 79 60 72 166 -14 210 -39 20 -69 19 -106 -4z"/>
<path d="M3549 7317 c-70 -47 -79 -115 -23 -177 32 -35 42 -40 81 -40 39 0 51
5 84 39 30 30 39 47 39 72 0 65 -61 129 -123 129 -13 0 -39 -10 -58 -23z"/>
<path d="M3938 7315 c-44 -30 -58 -53 -58 -95 0 -70 53 -120 127 -120 88 1
146 116 92 184 -25 31 -69 56 -101 56 -13 0 -40 -11 -60 -25z"/>
<path d="M4329 7317 c-40 -27 -59 -60 -59 -106 0 -26 9 -42 39 -72 33 -33 45
-39 81 -39 36 0 48 6 81 39 43 43 48 70 25 126 -17 39 -68 75 -107 75 -14 0
-41 -10 -60 -23z"/>
<path d="M4724 7321 c-43 -26 -64 -59 -64 -99 0 -72 52 -122 127 -122 89 1
146 115 92 184 -43 55 -102 69 -155 37z"/>
<path d="M5109 7317 c-60 -40 -76 -106 -40 -161 43 -64 119 -75 175 -25 64 56
56 145 -16 189 -43 26 -77 25 -119 -3z"/>
<path d="M5498 7315 c-21 -14 -42 -34 -48 -45 -24 -45 -3 -123 42 -154 28 -20
107 -20 132 -1 31 24 56 68 56 100 0 61 -63 125 -122 125 -13 0 -40 -11 -60
-25z"/>
<path d="M5894 7321 c-43 -26 -64 -59 -64 -101 0 -65 53 -119 118 -120 60 0
122 55 122 109 0 40 -28 90 -62 111 -41 25 -74 25 -114 1z"/>
<path d="M6278 7318 c-57 -33 -75 -97 -43 -158 22 -42 53 -60 106 -60 42 0 50
4 83 40 27 30 36 49 36 76 0 44 -29 86 -74 108 -44 21 -63 20 -108 -6z"/>
<path d="M6674 7321 c-64 -39 -83 -107 -46 -164 28 -42 53 -56 99 -57 53 0
109 44 118 94 9 45 -17 101 -57 126 -41 25 -74 25 -114 1z"/>
<path d="M445 6941 c-45 -20 -70 -60 -70 -112 0 -42 5 -53 33 -81 29 -29 38
-33 88 -33 52 0 58 3 85 35 42 50 41 108 -4 156 -34 37 -92 53 -132 35z"/>
<path d="M834 6940 c-39 -15 -74 -68 -74 -111 0 -58 49 -109 112 -116 42 -5
49 -2 87 32 36 33 41 42 41 82 0 39 -5 51 -39 84 -40 40 -78 49 -127 29z"/>
<path d="M1225 6941 c-34 -15 -65 -56 -71 -93 -17 -100 94 -172 181 -118 92
57 57 204 -51 216 -21 2 -48 0 -59 -5z"/>
<path d="M1578 6910 c-38 -38 -40 -43 -35 -87 4 -38 12 -54 41 -80 51 -47 101
-46 156 3 34 31 40 42 40 78 0 74 -51 125 -124 126 -32 0 -45 -7 -78 -40z"/>
<path d="M2000 6937 c-32 -16 -70 -73 -70 -104 0 -94 105 -153 185 -103 122
75 13 272 -115 207z"/>
<path d="M2360 6912 c-34 -33 -40 -46 -40 -80 0 -34 7 -48 38 -82 34 -34 45
-40 82 -40 36 0 48 6 81 39 33 32 39 45 39 80 0 60 -48 111 -113 118 -44 5
-49 3 -87 -35z"/>
<path d="M2785 6940 c-60 -24 -89 -102 -61 -162 40 -85 154 -92 207 -12 60 92
-43 217 -146 174z"/>
<path d="M3140 6912 c-30 -29 -40 -48 -40 -71 0 -70 57 -131 123 -131 32 0 46
7 78 39 33 32 39 45 39 80 0 60 -48 111 -113 118 -44 5 -49 3 -87 -35z"/>
<path d="M3564 6940 c-34 -13 -74 -69 -74 -101 0 -52 26 -98 64 -114 70 -29
119 -16 158 42 60 92 -45 215 -148 173z"/>
<path d="M3954 6940 c-39 -16 -74 -68 -74 -112 0 -34 7 -47 39 -79 33 -33 45
-39 81 -39 36 0 48 6 81 39 43 43 50 80 24 131 -31 60 -92 84 -151 60z"/>
<path d="M4315 6918 c-86 -79 -36 -208 80 -208 52 0 115 61 115 111 0 46 -19
79 -59 106 -49 33 -94 30 -136 -9z"/>
<path d="M4734 6940 c-39 -16 -74 -68 -74 -112 0 -34 7 -47 39 -79 33 -33 45
-39 81 -39 36 0 48 6 81 39 32 32 39 46 39 78 0 83 -90 144 -166 113z"/>
<path d="M5114 6935 c-59 -30 -81 -107 -48 -165 43 -72 134 -79 193 -14 30 33
33 41 28 81 -9 86 -98 136 -173 98z"/>
<path d="M5479 6911 c-33 -33 -39 -45 -39 -81 0 -36 6 -48 39 -81 33 -33 45
-39 81 -39 36 0 48 6 81 39 31 31 39 46 39 76 0 66 -62 125 -131 125 -23 0
-41 -10 -70 -39z"/>
<path d="M5898 6939 c-57 -21 -84 -108 -53 -169 50 -97 208 -64 221 46 6 48
-11 81 -55 111 -36 24 -69 28 -113 12z"/>
<path d="M6259 6911 c-33 -33 -39 -45 -39 -81 0 -36 6 -48 39 -81 33 -33 45
-39 81 -39 36 0 48 6 81 39 30 30 39 47 39 72 0 68 -62 129 -131 129 -23 0
-41 -10 -70 -39z"/>
<path d="M6684 6940 c-11 -4 -33 -23 -48 -41 -24 -29 -28 -40 -24 -81 6 -56
26 -83 75 -99 51 -17 97 -4 133 38 29 33 32 41 26 81 -11 83 -88 132 -162 102z"/>
<path d="M4132 5803 l3 -778 917 0 917 0 108 98 c121 111 145 127 152 106 2
-8 17 -26 32 -41 23 -23 36 -28 76 -28 51 1 66 8 101 54 36 46 30 98 -15 143
l-38 36 81 81 c44 45 95 99 113 121 19 23 35 35 38 28 12 -31 48 -64 82 -74
76 -23 157 46 147 125 -7 58 -57 106 -112 106 l-41 0 -5 45 c-3 25 -20 70 -39
102 -43 74 -268 297 -503 499 l-178 154 -919 0 -919 0 2 -777z m2000 611 c94
-81 239 -215 324 -298 134 -133 157 -160 189 -226 41 -86 40 -95 -10 -186 -45
-81 -181 -223 -384 -401 -91 -81 -192 -171 -224 -202 l-58 -56 -907 2 -907 2
-3 755 -2 756 906 0 906 0 170 -146z"/>
<path d="M416 6529 c-56 -49 -60 -109 -10 -169 63 -74 188 -32 201 68 14 107
-110 173 -191 101z"/>
<path d="M799 6521 c-29 -29 -39 -47 -39 -70 0 -63 44 -118 104 -128 47 -7 86
10 114 50 55 82 -2 187 -102 187 -31 0 -45 -7 -77 -39z"/>
<path d="M1192 6526 c-34 -32 -37 -39 -36 -86 1 -67 39 -110 105 -117 39 -4
48 -1 84 30 37 32 40 39 40 87 0 47 -3 55 -37 86 -53 48 -103 48 -156 0z"/>
<path d="M1578 6520 c-38 -38 -40 -43 -35 -86 12 -110 134 -150 206 -68 45 50
43 101 -5 154 -32 35 -42 40 -81 40 -40 0 -51 -5 -85 -40z"/>
<path d="M1988 6542 c-65 -40 -74 -134 -18 -184 54 -49 106 -49 161 0 24 21
32 39 36 75 5 44 3 49 -35 87 -33 33 -46 40 -78 40 -22 0 -51 -8 -66 -18z"/>
<path d="M2358 6520 c-38 -38 -40 -43 -35 -86 12 -110 134 -150 206 -68 69 78
13 194 -94 194 -30 0 -45 -8 -77 -40z"/>
<path d="M2752 6526 c-33 -31 -37 -39 -37 -85 0 -41 5 -55 29 -80 51 -53 124
-51 178 6 18 19 23 36 23 75 0 44 -4 53 -37 84 -30 27 -46 34 -78 34 -32 0
-48 -7 -78 -34z"/>
<path d="M3156 6541 c-52 -35 -71 -98 -45 -154 14 -32 78 -67 119 -67 50 0
110 66 110 122 0 34 -6 47 -39 79 -32 32 -46 39 -77 39 -22 0 -52 -9 -68 -19z"/>
<path d="M3548 6542 c-31 -19 -58 -67 -58 -105 0 -31 38 -88 70 -105 69 -36
158 18 167 102 5 43 3 48 -35 86 -33 33 -46 40 -78 40 -22 0 -51 -8 -66 -18z"/>
<path d="M3936 6541 c-54 -36 -71 -102 -42 -160 20 -37 84 -65 130 -57 47 9
96 67 96 114 0 95 -106 154 -184 103z"/>
<path d="M6278 6544 c-56 -30 -74 -110 -38 -169 43 -69 132 -73 188 -8 30 34
33 43 29 83 -10 87 -102 136 -179 94z"/>
<path d="M6649 6521 c-33 -33 -39 -45 -39 -81 0 -36 6 -48 39 -81 30 -30 47
-39 72 -39 46 0 96 32 116 75 34 72 -27 165 -109 165 -34 0 -47 -7 -79 -39z"/>
<path d="M465 6173 c-83 -22 -122 -135 -68 -196 92 -103 253 -3 204 126 -17
45 -89 82 -136 70z"/>
<path d="M845 6166 c-45 -20 -85 -71 -85 -110 0 -40 36 -96 73 -114 66 -32
167 30 167 102 0 53 -24 93 -70 116 -46 23 -46 23 -85 6z"/>
<path d="M1224 6161 c-100 -46 -94 -181 10 -221 118 -44 214 128 113 204 -46
35 -75 39 -123 17z"/>
<path d="M1627 6165 c-21 -7 -40 -15 -41 -17 -1 -1 -12 -16 -24 -32 -63 -83
24 -204 128 -176 51 14 90 60 90 107 0 47 -32 97 -74 117 -40 19 -31 19 -79 1z"/>
<path d="M2024 6173 c-29 -6 -82 -56 -90 -87 -16 -64 27 -136 92 -152 62 -16
144 53 144 120 0 35 -30 90 -57 104 -25 13 -64 19 -89 15z"/>
<path d="M2415 6172 c-51 -17 -95 -71 -95 -116 0 -97 124 -159 194 -97 71 63
54 170 -34 205 -22 9 -41 16 -43 15 -1 -1 -11 -4 -22 -7z"/>
<path d="M3174 6161 c-17 -10 -40 -31 -52 -46 -64 -81 28 -206 129 -176 113
34 118 181 9 225 -50 20 -48 20 -86 -3z"/>
<path d="M3965 6166 c-45 -19 -85 -71 -85 -109 0 -72 76 -136 142 -122 16 4
45 20 64 37 29 26 34 36 34 74 0 51 -21 89 -59 108 -45 23 -65 25 -96 12z"/>
<path d="M2752 6142 c-72 -67 -46 -175 47 -202 47 -13 88 -2 116 32 33 39 40
72 26 119 -24 78 -129 106 -189 51z"/>
<path d="M3532 6142 c-71 -67 -48 -170 46 -203 94 -33 185 79 138 169 -34 66
-131 84 -184 34z"/>
<path d="M6662 6154 c-31 -21 -52 -66 -52 -110 0 -28 8 -44 34 -70 30 -30 41
-34 84 -34 57 0 92 22 112 69 30 74 -31 161 -113 161 -23 0 -53 -7 -65 -16z"/>
<path d="M834 5776 c-37 -16 -74 -72 -74 -112 0 -45 44 -101 88 -115 102 -30
189 86 132 178 -31 52 -93 72 -146 49z"/>
<path d="M1611 5773 c-38 -20 -71 -73 -71 -115 0 -36 61 -104 100 -113 38 -8
92 16 119 53 68 97 -43 229 -148 175z"/>
<path d="M2393 5775 c-40 -17 -73 -69 -73 -112 0 -41 48 -97 95 -113 43 -14
93 5 124 48 67 95 -39 224 -146 177z"/>
<path d="M3173 5775 c-38 -16 -73 -68 -73 -109 0 -41 34 -91 77 -111 51 -24
104 -8 138 43 30 44 32 86 5 129 -31 52 -93 72 -147 48z"/>
<path d="M3943 5771 c-37 -23 -63 -68 -63 -107 0 -37 38 -90 78 -110 44 -21
85 -11 128 32 27 28 34 42 34 75 0 92 -102 156 -177 110z"/>
<path d="M425 5762 c-58 -48 -69 -103 -35 -160 61 -100 206 -63 218 56 4 44 1
51 -31 85 -31 33 -40 37 -83 37 -31 -1 -56 -7 -69 -18z"/>
<path d="M1191 5746 c-62 -64 -45 -159 35 -192 48 -20 87 -10 130 32 38 39 45
84 19 134 -22 42 -53 60 -105 60 -39 0 -51 -5 -79 -34z"/>
<path d="M1972 5749 c-63 -62 -48 -154 31 -193 33 -16 45 -17 76 -7 75 22 111
102 77 169 -23 44 -54 62 -106 62 -38 0 -52 -5 -78 -31z"/>
<path d="M2753 5751 c-82 -74 -30 -207 79 -205 108 3 156 131 76 206 -43 40
-111 40 -155 -1z"/>
<path d="M3538 5757 c-14 -12 -31 -32 -37 -44 -30 -59 7 -138 75 -162 37 -13
44 -12 80 5 80 39 95 131 33 194 -25 25 -39 30 -77 30 -34 0 -54 -6 -74 -23z"/>
<path d="M432 5380 c-40 -25 -66 -81 -57 -126 9 -50 65 -94 119 -94 38 0 48 5
80 40 56 62 47 130 -23 177 -42 28 -76 29 -119 3z"/>
<path d="M812 5370 c-23 -16 -44 -41 -48 -55 -10 -41 5 -92 37 -125 26 -25 38
-30 79 -30 43 0 54 5 85 35 29 30 35 43 35 79 0 49 -24 87 -70 111 -43 22 -72
18 -118 -15z"/>
<path d="M1230 5389 c-65 -26 -96 -99 -66 -157 40 -77 125 -96 183 -42 58 54
57 127 -3 179 -36 32 -69 38 -114 20z"/>
<path d="M1604 5381 c-43 -26 -64 -59 -64 -99 0 -72 52 -122 127 -122 88 1
146 116 92 184 -43 55 -102 69 -155 37z"/>
<path d="M1989 5377 c-40 -27 -59 -60 -59 -106 0 -26 9 -42 39 -72 33 -34 45
-39 84 -39 39 0 49 5 81 40 43 48 47 90 13 141 -41 62 -100 75 -158 36z"/>
<path d="M2379 5377 c-105 -71 -61 -217 66 -217 125 0 158 167 45 225 -40 21
-72 19 -111 -8z"/>
<path d="M2774 5381 c-64 -39 -79 -91 -48 -157 20 -41 59 -64 110 -64 50 0
114 62 114 111 0 64 -61 129 -122 129 -13 0 -37 -9 -54 -19z"/>
<path d="M3159 5377 c-106 -71 -60 -218 68 -217 42 1 67 16 95 57 38 58 14
134 -52 168 -40 21 -72 19 -111 -8z"/>
<path d="M3549 5377 c-70 -47 -79 -115 -23 -177 32 -35 42 -40 81 -40 39 0 51
5 84 39 30 30 39 47 39 72 0 65 -61 129 -123 129 -13 0 -39 -10 -58 -23z"/>
<path d="M3944 5381 c-43 -26 -64 -59 -64 -99 0 -72 50 -122 123 -122 37 0 48
6 80 38 30 31 37 45 37 79 0 46 -25 85 -70 108 -39 20 -69 19 -106 -4z"/>
<path d="M6674 5381 c-64 -39 -83 -107 -46 -164 28 -42 53 -56 99 -57 33 0 50
7 77 31 64 56 56 145 -16 189 -41 25 -74 25 -114 1z"/>
<path d="M445 5001 c-45 -20 -70 -60 -70 -113 0 -44 4 -53 37 -84 28 -25 47
-34 73 -34 74 0 125 51 125 125 0 51 -51 105 -105 110 -22 3 -49 1 -60 -4z"/>
<path d="M819 4987 c-68 -46 -79 -116 -26 -173 26 -29 42 -37 79 -41 42 -5 49
-2 87 32 36 33 41 42 41 82 0 39 -5 51 -39 84 -46 47 -89 52 -142 16z"/>
<path d="M1220 4997 c-72 -37 -89 -133 -32 -189 80 -81 214 -17 199 96 -11 80
-97 129 -167 93z"/>
<path d="M1615 4998 c-88 -49 -98 -140 -22 -204 43 -37 105 -30 153 17 29 28
34 40 34 77 0 38 -5 50 -39 83 -41 41 -84 51 -126 27z"/>
<path d="M2004 5000 c-34 -14 -74 -69 -74 -102 0 -69 55 -128 120 -128 112 0
160 130 76 207 -37 34 -77 42 -122 23z"/>
<path d="M2365 4978 c-29 -27 -38 -43 -42 -79 -5 -43 -3 -49 34 -87 35 -37 46
-42 83 -42 36 0 48 6 81 39 33 32 39 45 39 80 0 60 -48 111 -112 118 -42 5
-49 2 -83 -29z"/>
<path d="M2785 5000 c-60 -24 -89 -102 -61 -162 54 -114 226 -73 226 55 0 77
-93 137 -165 107z"/>
<path d="M3139 4971 c-33 -33 -39 -45 -39 -81 0 -36 6 -48 39 -81 33 -33 45
-39 81 -39 36 0 48 6 81 39 33 33 39 45 39 81 0 36 -6 48 -39 81 -33 33 -45
39 -81 39 -36 0 -48 -6 -81 -39z"/>
<path d="M3564 5000 c-11 -4 -33 -23 -48 -41 -24 -28 -27 -39 -23 -78 7 -63
58 -111 118 -111 35 0 48 6 80 39 32 32 39 46 39 78 0 83 -90 144 -166 113z"/>
<path d="M3919 4971 c-33 -33 -39 -45 -39 -81 0 -36 6 -48 39 -81 33 -33 45
-39 81 -39 36 0 48 6 81 39 33 33 39 45 39 81 0 36 -6 48 -39 81 -33 33 -45
39 -81 39 -36 0 -48 -6 -81 -39z"/>
<path d="M4309 4971 c-32 -32 -39 -45 -39 -77 1 -72 52 -124 124 -124 32 0 45
7 78 40 38 38 40 43 35 87 -7 65 -58 113 -118 113 -35 0 -48 -6 -80 -39z"/>
<path d="M4699 4971 c-33 -33 -39 -45 -39 -81 0 -36 6 -48 39 -81 33 -33 45
-39 81 -39 36 0 48 6 81 39 33 33 39 45 39 81 0 36 -6 48 -39 81 -33 33 -45
39 -81 39 -36 0 -48 -6 -81 -39z"/>
<path d="M5086 4970 c-27 -30 -36 -49 -36 -76 0 -112 124 -164 204 -85 27 27
31 39 31 82 0 47 -3 54 -39 85 -31 27 -48 34 -82 34 -36 0 -47 -5 -78 -40z"/>
<path d="M5479 4971 c-33 -33 -39 -45 -39 -81 0 -36 6 -48 39 -81 33 -33 45
-39 81 -39 36 0 48 6 81 39 29 29 39 47 39 70 0 69 -59 131 -125 131 -30 0
-45 -8 -76 -39z"/>
<path d="M5869 4971 c-28 -27 -39 -47 -39 -68 0 -78 51 -133 124 -133 27 0 45
8 74 34 34 31 37 39 37 86 0 48 -3 55 -39 86 -57 49 -105 48 -157 -5z"/>
<path d="M6294 5000 c-39 -16 -74 -68 -74 -112 0 -34 7 -47 40 -80 38 -38 43
-40 87 -35 60 6 113 58 113 109 0 85 -90 149 -166 118z"/>
<path d="M6684 5001 c-11 -5 -33 -23 -47 -41 -68 -80 0 -201 106 -187 32 4 50
15 76 43 30 33 33 41 28 81 -6 59 -48 103 -103 109 -21 2 -48 0 -60 -5z"/>
<path d="M7413 7233 c-4 -10 -55 -144 -115 -298 -59 -153 -108 -283 -108 -288
0 -4 19 -7 42 -5 l42 3 32 85 31 85 129 3 129 3 34 -91 33 -90 48 0 47 0 -119
293 c-66 160 -122 298 -125 305 -8 20 -92 16 -100 -5z m147 -335 c0 -4 -43 -8
-95 -8 -52 0 -95 4 -95 9 0 5 20 64 45 132 25 68 45 131 45 139 1 15 100 -255
100 -272z"/>
<path d="M7873 6902 c-74 -93 -116 -161 -110 -176 5 -12 21 -16 66 -16 l60 0
3 -32 c4 -44 32 -45 36 -2 2 22 9 34 23 37 25 7 25 27 -1 34 -18 5 -20 14 -20
104 0 58 -4 99 -10 99 -5 0 -27 -22 -47 -48z m24 -149 c-3 -2 -25 -3 -50 -1
l-46 3 47 65 47 65 3 -64 c2 -35 1 -65 -1 -68z"/>
<path d="M1001 4350 c-70 -55 -69 -84 2 -55 15 6 17 -1 17 -84 0 -90 0 -91 25
-91 l25 0 0 135 c0 74 -4 135 -9 135 -5 0 -32 -18 -60 -40z"/>
<path d="M3964 4372 c-13 -8 -34 -46 -34 -61 0 -19 39 -12 50 9 12 23 58 27
66 6 8 -20 -9 -47 -71 -117 -30 -34 -55 -68 -55 -75 0 -11 20 -14 90 -14 89 0
90 0 90 25 0 23 -3 25 -51 25 l-52 0 52 54 c57 61 66 101 31 136 -20 20 -93
28 -116 12z"/>
<path d="M7082 4357 c-42 -45 -20 -62 37 -30 22 13 33 15 41 7 15 -15 -4 -54
-25 -54 -25 0 -17 -28 13 -42 53 -26 30 -94 -23 -70 -14 7 -25 16 -25 22 0 16
-30 12 -37 -6 -3 -8 4 -25 17 -40 66 -70 189 17 133 94 -17 23 -17 30 -6 52
25 48 -6 90 -67 90 -25 0 -43 -7 -58 -23z"/>
<path d="M215 3878 c-4 -95 -5 -445 -3 -778 l3 -605 850 -3 c468 -2 883 0 922
3 l72 7 153 136 c373 332 485 447 540 559 27 56 30 67 20 103 -18 73 -75 152
-197 276 -124 125 -430 397 -499 443 l-40 26 -907 3 -907 3 -7 -173z m1860
120 c78 -55 385 -331 495 -445 119 -122 177 -205 187 -266 4 -29 -1 -48 -31
-100 -39 -71 -161 -210 -255 -291 -58 -50 -59 -51 -117 -48 -33 2 -55 0 -51
-4 4 -4 29 -7 55 -6 l47 3 -60 -58 c-85 -81 -269 -244 -289 -255 -23 -13 -60
-13 -983 -10 l-833 2 0 755 0 755 899 -2 898 -3 38 -27z"/>
<path d="M290 3880 c0 -6 74 -10 201 -10 131 0 198 3 194 10 -4 6 -82 10 -201
10 -123 0 -194 -4 -194 -10z"/>
<path d="M1290 3880 c0 -6 73 -10 200 -10 127 0 200 4 200 10 0 6 -73 10 -200
10 -127 0 -200 -4 -200 -10z"/>
<path d="M795 3700 c-4 -7 59 -10 195 -10 120 0 199 4 195 9 -8 13 -382 14
-390 1z"/>
<path d="M1800 3701 c0 -7 67 -11 201 -11 113 0 198 4 195 9 -8 13 -396 15
-396 2z"/>
<path d="M300 3360 c0 -8 43 -12 140 -12 165 0 240 4 240 12 0 6 -70 10 -190
10 -120 0 -190 -4 -190 -10z"/>
<path d="M1300 3360 c0 -6 72 -10 195 -10 123 0 195 4 195 10 0 6 -72 10 -195
10 -123 0 -195 -4 -195 -10z"/>
<path d="M2300 3360 c0 -6 71 -10 194 -10 119 0 197 4 201 10 4 7 -63 10 -194
10 -127 0 -201 -4 -201 -10z"/>
<path d="M795 3180 c4 -6 80 -10 196 -10 119 0 189 4 189 10 0 6 -72 10 -196
10 -127 0 -193 -3 -189 -10z"/>
<path d="M1800 3180 c0 -6 72 -10 195 -10 123 0 195 4 195 10 0 6 -72 10 -195
10 -123 0 -195 -4 -195 -10z"/>
<path d="M295 2840 c4 -6 78 -10 190 -10 112 0 186 4 190 10 4 7 -62 10 -190
10 -128 0 -194 -3 -190 -10z"/>
<path d="M1305 2840 c7 -12 314 -12 360 0 17 4 -55 8 -168 9 -130 1 -196 -2
-192 -9z"/>
<path d="M795 2660 c4 -6 78 -10 190 -10 112 0 186 4 190 10 4 7 -62 10 -190
10 -128 0 -194 -3 -190 -10z"/>
<path d="M1805 2660 c8 -13 355 -13 375 0 10 6 -51 10 -183 10 -130 0 -196 -3
-192 -10z"/>
<path d="M3220 3275 l0 -775 48 -1 c26 0 435 0 909 0 769 0 865 1 892 16 17 8
69 50 115 93 46 42 140 126 210 185 130 111 280 271 344 367 32 47 37 63 37
110 0 76 -42 144 -170 278 -116 122 -497 462 -544 487 -24 12 -36 13 -46 5 -9
-8 -15 -8 -20 0 -4 7 -284 10 -891 10 l-884 0 0 -775z m200 747 c0 -5 -13 -21
-30 -37 -70 -67 -10 -195 92 -195 34 0 85 35 103 71 22 41 13 83 -26 131 l-30
38 144 0 144 0 -32 -35 c-19 -19 -36 -48 -40 -64 -14 -64 51 -141 118 -141 64
0 117 52 117 115 0 44 -14 73 -49 102 l-26 22 148 1 c81 0 147 -4 147 -8 0 -5
-13 -21 -30 -37 -69 -66 -11 -195 87 -195 39 0 89 33 108 71 22 41 13 83 -26
131 l-30 38 141 0 141 0 -33 -41 c-42 -53 -44 -101 -5 -152 67 -89 207 -42
207 69 0 40 -18 75 -55 106 -19 17 -13 17 128 18 138 0 147 -1 138 -18 -5 -9
-19 -26 -30 -36 -16 -14 -21 -31 -21 -67 0 -42 5 -53 35 -84 27 -27 44 -35 71
-35 66 0 113 39 131 109 l8 32 150 -132 c194 -171 361 -342 403 -411 48 -80
51 -118 16 -171 -15 -23 -39 -64 -52 -91 -28 -54 -190 -229 -233 -252 -16 -8
-39 -14 -52 -14 -29 0 -75 -47 -91 -93 -11 -33 -120 -140 -223 -220 l-36 -27
-903 0 -904 0 0 755 0 755 90 0 c50 0 90 -4 90 -8z"/>
<path d="M3413 3620 c-41 -25 -53 -48 -53 -104 0 -36 6 -50 30 -75 62 -62 152
-46 194 34 16 31 17 42 7 75 -24 80 -108 113 -178 70z"/>
<path d="M3799 3617 c-21 -14 -39 -38 -48 -63 -12 -35 -12 -44 3 -74 20 -42
72 -80 110 -80 33 0 92 33 106 60 6 10 10 40 10 66 0 41 -5 51 -36 80 -44 42
-94 46 -145 11z"/>
<path d="M4193 3620 c-41 -24 -53 -48 -53 -102 0 -96 98 -149 176 -96 48 33
70 86 54 132 -25 77 -108 108 -177 66z"/>
<path d="M4571 3615 c-64 -55 -62 -126 6 -185 40 -35 84 -39 126 -12 43 29 56
53 57 106 0 42 -5 53 -34 82 -29 29 -41 34 -79 34 -34 0 -53 -6 -76 -25z"/>
<path d="M4961 3615 c-65 -55 -62 -143 7 -190 20 -14 50 -25 66 -25 39 0 92
37 111 77 52 108 -92 215 -184 138z"/>
<path d="M5351 3615 c-34 -29 -56 -84 -46 -117 11 -37 66 -87 101 -94 43 -8
67 1 104 37 25 26 30 38 30 81 0 44 -4 54 -34 84 -29 29 -41 34 -79 34 -34 0
-53 -6 -76 -25z"/>
<path d="M3452 3252 c-12 -2 -38 -18 -57 -36 -30 -29 -35 -40 -35 -80 0 -39 6
-52 34 -84 31 -33 39 -37 82 -36 41 1 52 6 80 37 46 50 52 81 25 132 -28 53
-72 76 -129 67z"/>
<path d="M3830 3249 c-37 -15 -68 -48 -81 -86 -9 -28 -7 -40 10 -77 25 -50 57
-71 112 -71 77 0 140 102 102 167 -33 57 -95 85 -143 67z"/>
<path d="M4215 3244 c-58 -30 -75 -54 -75 -106 0 -41 5 -54 33 -85 30 -32 39
-36 82 -36 42 0 52 4 81 36 45 48 52 82 28 126 -35 63 -99 91 -149 65z"/>
<path d="M5006 3250 c-16 -5 -42 -21 -57 -36 -60 -57 -27 -170 55 -193 49 -13
82 -3 116 35 40 46 46 75 23 120 -30 61 -83 89 -137 74z"/>
<path d="M5390 3249 c-89 -35 -114 -134 -50 -197 76 -76 200 -24 200 84 0 47
-34 98 -73 109 -44 13 -52 13 -77 4z"/>
<path d="M4571 3225 c-44 -37 -56 -82 -36 -133 19 -46 44 -66 96 -76 46 -8 96
23 122 77 24 47 17 79 -28 124 -43 43 -107 47 -154 8z"/>
<path d="M3443 2859 c-78 -22 -110 -125 -58 -188 38 -45 86 -57 132 -34 41 19
83 74 83 105 0 11 -7 35 -16 53 -26 55 -81 80 -141 64z"/>
<path d="M4226 2859 c-59 -17 -102 -86 -89 -141 8 -32 42 -68 79 -84 42 -18
95 -3 128 37 48 56 44 110 -12 162 -32 29 -66 38 -106 26z"/>
<path d="M4610 2863 c-28 -10 -70 -56 -81 -90 -9 -27 -7 -40 8 -70 41 -84 126
-103 188 -43 30 29 35 40 35 81 0 55 -26 94 -76 115 -35 15 -49 16 -74 7z"/>
<path d="M5006 2859 c-61 -17 -108 -97 -87 -151 12 -30 48 -64 85 -78 83 -31
183 79 143 157 -32 61 -83 87 -141 72z"/>
<path d="M3795 2838 c-15 -12 -34 -37 -42 -56 -36 -87 72 -191 155 -148 48 25
72 63 72 113 0 38 -5 50 -34 79 -29 29 -41 34 -79 34 -30 0 -53 -7 -72 -22z"/>
<path d="M6220 3276 c0 -702 1 -774 16 -780 9 -3 423 -5 919 -4 l903 3 35 30
c166 141 482 433 539 499 153 176 173 231 120 339 -17 34 -53 87 -79 118 -96
113 -537 514 -606 551 -30 17 -94 18 -939 18 l-908 0 0 -774z m1832 745 c36
-14 358 -299 503 -445 191 -193 234 -280 185 -377 -46 -90 -208 -263 -410
-439 -47 -41 -117 -105 -157 -142 -39 -36 -83 -74 -97 -83 -23 -15 -105 -16
-918 -16 -491 1 -899 1 -905 1 -10 0 -13 158 -13 755 l0 755 894 0 c504 0 905
-4 918 -9z"/>
<path d="M6840 3702 c-76 -38 -98 -115 -50 -181 62 -89 210 -39 210 70 0 49
-11 71 -47 97 -43 29 -75 33 -113 14z"/>
<path d="M7524 3700 c-74 -37 -93 -123 -40 -179 60 -62 137 -59 185 7 41 59
14 149 -54 178 -43 18 -42 18 -91 -6z"/>
<path d="M6824 3052 c-30 -20 -64 -75 -64 -107 0 -52 64 -115 117 -115 73 0
123 48 123 117 0 90 -102 151 -176 105z"/>
<path d="M7513 3048 c-18 -13 -40 -37 -49 -55 -38 -69 28 -163 114 -163 34 0
48 6 77 35 30 30 35 43 35 80 0 95 -105 155 -177 103z"/>
<path d="M1048 2118 c-26 -20 -118 -160 -118 -179 0 -18 27 -29 77 -29 25 0
32 -5 35 -22 5 -36 36 -28 61 15 20 36 21 40 5 51 -13 10 -18 31 -20 91 -3 80
-11 95 -40 73z m-8 -118 c0 -38 -2 -40 -30 -40 l-30 0 26 40 c15 22 28 40 30
40 2 0 4 -18 4 -40z"/>
<path d="M3951 2070 c-16 -76 -15 -90 12 -90 12 0 29 4 36 9 33 21 66 -23 50
-67 -9 -25 -35 -29 -58 -8 -9 7 -26 17 -38 20 -32 10 -31 -23 1 -53 18 -17 33
-22 66 -19 53 4 82 37 82 92 0 47 -24 75 -73 82 -53 9 -40 32 19 36 39 3 47 6
47 23 0 18 -8 20 -67 23 l-66 3 -11 -51z"/>
<path d="M7086 2089 c-21 -25 -26 -41 -26 -88 0 -103 24 -141 90 -141 69 0
104 86 58 145 -18 23 -26 26 -60 22 -42 -6 -48 5 -23 39 13 18 15 18 45 1 35
-19 50 -15 50 13 0 24 -29 40 -73 40 -27 0 -41 -7 -61 -31z m92 -132 c6 -53
-40 -78 -58 -31 -13 34 4 66 33 62 16 -2 23 -11 25 -31z"/>
<path d="M217 1633 c-9 -217 -9 -1087 -1 -1255 l7 -138 911 0 912 0 31 23 c95
70 509 453 585 541 77 90 121 177 113 226 -10 50 -41 106 -100 181 -56 69
-270 276 -390 376 -38 32 -105 88 -148 124 -44 38 -91 69 -108 73 -17 3 -431
6 -919 6 l-887 0 -6 -157z m1836 121 c18 -9 52 -35 77 -58 25 -22 99 -87 165
-142 186 -158 394 -376 433 -453 38 -77 39 -91 8 -156 -33 -69 -61 -104 -174
-218 -104 -106 -470 -434 -505 -454 -17 -9 -234 -12 -918 -13 l-896 0 -6 83
c-9 107 -9 1135 0 1300 l6 127 889 0 c802 0 892 -2 921 -16z"/>
<path d="M1208 1113 c-41 -26 -62 -72 -54 -118 8 -43 51 -91 90 -101 63 -15
146 52 146 118 0 91 -104 149 -182 101z"/>
<path d="M3220 1015 l0 -775 913 0 c1049 0 918 -14 1059 117 46 43 126 114
178 158 197 168 348 335 393 434 23 53 18 100 -18 172 -34 66 -324 357 -530
530 l-160 134 -917 3 -918 3 0 -776z m258 663 l3 -88 -121 0 -120 0 0 90 0 91
118 -3 117 -3 3 -87z m402 2 l0 -90 -190 0 -190 0 0 90 0 90 190 0 190 0 0
-90z m400 0 l0 -90 -190 0 -190 0 0 90 0 90 190 0 190 0 0 -90z m400 0 l0 -90
-190 0 -190 0 0 90 0 90 190 0 190 0 0 -90z m370 81 c24 -6 25 -11 28 -89 l3
-82 -191 0 -190 0 0 90 0 90 163 -1 c89 -1 173 -4 187 -8z m157 -131 c32 -30
50 -51 40 -47 -10 4 -48 7 -83 7 l-64 0 0 66 0 65 25 -19 c13 -10 50 -43 82
-72z m-1729 -252 l2 -188 -120 0 -120 0 0 190 0 191 118 -3 117 -3 3 -187z
m400 0 l2 -188 -190 0 -190 0 0 190 0 190 188 -2 187 -3 3 -187z m400 0 l2
-188 -190 0 -190 0 0 190 0 190 188 -2 187 -3 3 -187z m400 0 l2 -188 -190 0
-190 0 0 190 0 190 188 -2 187 -3 3 -187z m402 2 l0 -190 -190 0 -190 0 0 190
0 190 190 0 190 0 0 -190z m223 168 c18 -12 65 -53 105 -92 l72 -69 0 -99 0
-98 -190 0 -190 0 0 190 0 190 86 0 c72 0 91 -3 117 -22z m367 -358 c0 -3 -38
-4 -85 -2 l-85 3 0 92 1 92 84 -90 c46 -49 85 -92 85 -95z m-2192 -212 l2
-188 -120 0 -120 0 0 190 0 191 118 -3 117 -3 3 -187z m400 0 l2 -188 -190 0
-190 0 0 190 0 190 188 -2 187 -3 3 -187z m400 0 l2 -188 -190 0 -190 0 0 190
0 190 188 -2 187 -3 3 -187z m400 0 l2 -188 -190 0 -190 0 0 190 0 190 188 -2
187 -3 3 -187z m400 0 l2 -188 -190 0 -190 0 0 190 0 190 188 -2 187 -3 3
-187z m402 2 l0 -190 -190 0 -190 0 0 190 0 190 190 0 190 0 0 -190z m223 172
c33 -36 59 -113 54 -154 -5 -40 -51 -118 -105 -180 -28 -32 -32 -33 -91 -30
l-61 4 0 189 0 189 93 0 c77 0 97 -3 110 -18z m-2225 -571 c1 -102 -1 -187 -5
-190 -5 -3 -59 -5 -120 -3 l-113 3 0 190 0 190 118 -3 117 -3 3 -184z m400 0
c1 -102 -1 -188 -5 -191 -5 -4 -90 -5 -190 -2 l-183 4 0 187 0 186 188 0 187
0 3 -184z m400 -1 c1 -101 -1 -187 -5 -190 -5 -4 -90 -5 -190 -2 l-183 4 0
187 0 187 188 -1 187 -1 3 -184z m400 1 c1 -102 -1 -188 -5 -191 -5 -4 -90 -5
-190 -2 l-183 4 0 187 0 186 188 0 187 0 3 -184z m400 -10 l2 -194 -91 6 c-51
4 -136 7 -191 7 l-98 0 0 188 0 187 188 0 187 0 3 -194z m402 131 l0 -68 -126
-110 c-155 -134 -170 -144 -216 -144 l-38 0 0 194 0 194 190 1 190 1 0 -68z
m120 60 c0 -4 -22 -30 -50 -57 l-50 -49 0 57 0 57 50 0 c28 0 50 -4 50 -8z
m-1089 -402 l169 0 0 -50 0 -50 -190 0 -190 0 0 48 c0 53 6 66 28 57 7 -3 90
-5 183 -5z m400 0 l169 0 0 -40 c0 -29 -5 -42 -19 -50 -12 -6 -92 -10 -190
-10 l-171 0 0 48 c0 53 6 66 28 57 7 -3 90 -5 183 -5z m249 2 c0 -5 -13 -21
-30 -37 l-30 -29 0 30 c0 17 3 34 7 37 9 10 53 9 53 -1z m-1680 -52 l0 -50
-120 0 -120 0 0 50 0 50 120 0 120 0 0 -50z m400 0 l0 -50 -190 0 -190 0 0 50
0 50 190 0 190 0 0 -50z m400 0 l0 -50 -190 0 -190 0 0 50 0 50 190 0 190 0 0
-50z"/>
<path d="M6220 1015 l0 -775 924 0 924 0 83 77 c46 43 138 125 204 183 140
121 283 265 344 344 117 152 110 221 -41 394 -69 79 -263 263 -391 371 -45 38
-111 94 -147 125 l-65 56 -917 0 -918 0 0 -775z"/>
</g>
</svg>
