<?xml version="1.0" standalone="no"?>
<!DOCTYPE svg PUBLIC "-//W3C//DTD SVG 20010904//EN"
 "http://www.w3.org/TR/2001/REC-SVG-20010904/DTD/svg10.dtd">
<svg version="1.0" xmlns="http://www.w3.org/2000/svg"
 width="996.000000pt" height="922.000000pt" viewBox="0 0 996.000000 922.000000"
 preserveAspectRatio="xMidYMid meet">
<metadata>
Created by potrace 1.16, written by Peter Selinger 2001-2019
</metadata>
<g transform="translate(0.000000,922.000000) scale(0.100000,-0.100000)"
fill="#FFFFFF" stroke="none">
<path d="M257 8858 c-9 -186 -9 -4563 0 -4690 l6 -98 2939 0 2938 0 0 2465 0
2465 -2938 0 -2939 0 -6 -142z m5863 -2323 l0 -2445 -2918 0 -2919 0 -6 223
c-9 296 -9 4082 -1 4410 l7 257 2919 0 2918 0 0 -2445z"/>
<path d="M2783 8479 c-78 -13 -158 -46 -211 -88 -128 -102 -190 -212 -199
-356 -10 -156 29 -264 135 -377 194 -206 493 -210 701 -9 274 264 136 737
-241 826 -69 16 -107 17 -185 4z m180 -24 c143 -30 259 -123 323 -260 116
-245 16 -513 -234 -631 -304 -144 -662 89 -662 430 1 239 160 426 398 466 71
12 101 11 175 -5z"/>
<path d="M2824 8154 c-32 -95 -26 -90 -158 -134 -59 -20 -87 -41 -53 -40 6 1
50 -12 97 -27 l85 -28 30 -92 c16 -51 33 -93 36 -93 7 0 43 95 55 143 3 16 16
35 28 42 26 18 134 54 159 55 40 0 11 20 -79 52 l-96 35 -23 69 c-29 88 -35
104 -45 104 -4 0 -20 -39 -36 -86z m76 -103 c-5 -10 -16 -23 -24 -31 -13 -10
-19 -9 -36 11 -25 31 -25 46 2 116 l21 58 23 -69 c16 -47 21 -74 14 -85z m-78
-28 c23 -21 23 -32 -2 -58 l-20 -21 -64 20 c-36 12 -67 24 -71 28 -6 6 97 46
124 47 8 1 23 -6 33 -16z m196 -10 c23 -9 42 -19 42 -22 0 -5 -46 -19 -126
-38 -15 -3 -26 3 -39 23 -17 27 -17 28 5 46 25 21 42 19 118 -9z m-129 -57
l23 -25 -25 -73 -25 -73 -12 30 c-30 77 -34 110 -15 138 21 33 26 33 54 3z"/>
<path d="M3957 8483 c-4 -3 -7 -226 -7 -495 l0 -488 495 0 495 0 -2 493 -3
492 -486 3 c-267 1 -489 -1 -492 -5z m963 -488 l0 -475 -472 2 -473 3 -3 400
c-2 220 0 433 3 473 l7 72 469 0 469 0 0 -475z"/>
<path d="M4422 8188 c-11 -29 -25 -69 -32 -89 -11 -30 -21 -39 -54 -49 -58
-17 -136 -51 -136 -59 0 -4 40 -20 89 -36 l90 -28 32 -94 c18 -51 35 -93 38
-93 3 0 17 35 31 77 14 43 34 87 45 99 11 12 52 32 90 44 39 13 74 26 78 30 4
4 -33 23 -84 42 l-92 34 -30 87 c-17 48 -34 87 -38 87 -4 0 -16 -24 -27 -52z
m53 -63 l22 -66 -24 -26 -25 -26 -26 26 -25 26 23 70 c13 39 26 68 28 66 3 -2
14 -34 27 -70z m-69 -106 l23 -21 -20 -28 -21 -27 -69 21 c-38 12 -69 24 -69
27 0 8 99 47 119 48 8 1 25 -9 37 -20z m182 -1 c62 -22 80 -38 42 -38 -11 0
-42 -8 -69 -19 l-50 -19 -25 27 -26 27 22 22 c28 27 29 27 106 0z m-110 -151
c-11 -34 -24 -66 -28 -70 -4 -5 -17 22 -28 59 l-21 68 21 29 20 28 28 -26 28
-27 -20 -61z"/>
<path d="M1252 8188 c-11 -29 -26 -70 -33 -90 -7 -21 -16 -38 -20 -38 -5 0
-46 -14 -93 -31 -80 -29 -109 -49 -70 -49 24 0 162 -51 172 -64 5 -6 22 -48
37 -93 16 -46 31 -83 34 -83 3 0 19 40 35 89 33 98 30 96 139 132 34 11 69 22
77 25 8 3 -28 22 -84 43 l-99 37 -31 87 c-17 48 -34 87 -37 87 -4 0 -16 -24
-27 -52z m52 -60 l25 -65 -28 -27 -27 -26 -23 24 -23 24 23 71 c13 39 24 69
26 68 1 -2 14 -33 27 -69z m-66 -111 l22 -23 -25 -24 -25 -23 -60 18 c-34 10
-63 22 -65 25 -5 8 90 48 116 49 8 1 25 -9 37 -22z m180 1 c34 -12 62 -24 62
-28 0 -3 -32 -14 -71 -24 -67 -17 -71 -17 -90 0 -23 21 -24 32 -2 56 21 23 25
23 101 -4z m-101 -113 c-3 -16 -14 -50 -24 -74 l-19 -44 -23 72 -23 73 23 24
23 24 24 -22 c18 -18 23 -30 19 -53z"/>
<path d="M2736 7009 c-113 -27 -252 -138 -308 -246 -48 -93 -62 -157 -56 -265
5 -80 10 -99 49 -176 89 -181 245 -282 434 -282 144 0 254 47 361 154 78 79
115 152 133 267 37 229 -122 477 -348 543 -60 17 -200 20 -265 5z m273 -28
c171 -53 294 -203 322 -391 40 -279 -183 -530 -471 -530 -217 1 -399 143 -455
355 -78 300 143 583 457 585 57 0 107 -6 147 -19z"/>
<path d="M2720 6675 l-145 -145 140 -140 c77 -77 144 -139 150 -139 5 1 71 64
145 141 l134 138 -132 133 c-72 73 -132 138 -132 145 0 6 -3 12 -8 12 -4 0
-72 -65 -152 -145z"/>
<path d="M3950 6530 l0 -490 495 0 495 0 0 490 0 490 -495 0 -495 0 0 -490z
m970 0 l0 -470 -472 2 -473 3 -3 395 c-2 217 0 428 3 468 l7 72 469 0 469 0 0
-470z"/>
<path d="M4301 6676 l-143 -143 143 -142 c79 -77 147 -140 151 -138 4 1 70 64
146 139 l138 138 -145 145 c-80 80 -145 145 -146 145 0 0 -65 -65 -144 -144z"/>
<path d="M1136 6673 l-140 -143 135 -139 c73 -76 139 -139 144 -140 6 0 73 62
150 139 l140 140 -145 143 -145 143 -139 -143z"/>
<path d="M3655 5728 c-3 -7 -4 -310 -3 -673 l3 -660 782 -3 c442 -1 792 2 805
7 61 23 526 461 588 554 57 84 59 113 20 194 -47 95 -188 237 -519 521 l-83
72 -795 0 c-626 0 -795 -3 -798 -12z m1605 -25 c76 -51 467 -410 514 -472 52
-67 86 -132 86 -162 0 -76 -131 -226 -415 -477 l-200 -177 -785 0 -785 0 -3
600 c-2 330 0 624 3 653 l6 52 777 0 c712 0 780 -1 802 -17z"/>
<path d="M2745 5546 c-121 -29 -267 -141 -319 -243 -98 -195 -66 -420 83 -576
84 -88 159 -127 287 -147 309 -50 603 241 553 548 -48 300 -320 487 -604 418z
m277 -34 c164 -59 276 -198 309 -383 23 -128 -31 -289 -131 -389 -96 -98 -206
-144 -335 -144 -205 1 -375 117 -446 303 -26 70 -35 197 -20 273 35 165 170
305 342 353 73 20 207 14 281 -13z"/>
<path d="M2858 5264 c-5 -4 -8 -47 -8 -96 l0 -88 -95 0 c-57 0 -95 -4 -95 -10
0 -6 38 -10 95 -10 l95 0 0 -95 c0 -57 4 -95 10 -95 6 0 10 38 10 95 l0 95 95
0 c57 0 95 4 95 10 0 6 -38 10 -95 10 l-94 0 -3 96 c-2 53 -6 92 -10 88z"/>
<path d="M1270 5177 l0 -97 -100 0 c-60 0 -100 -4 -100 -10 0 -6 40 -10 100
-10 l100 0 0 -102 c0 -56 2 -99 4 -97 2 2 6 47 9 99 4 52 6 96 7 98 0 1 43 2
96 2 61 0 93 4 89 10 -3 6 -48 10 -98 10 l-92 0 3 86 c2 53 -1 91 -7 97 -8 8
-11 -17 -11 -86z"/>
<path d="M6360 6045 l0 -267 143 4 c152 4 169 9 224 61 46 43 68 114 67 213
-1 109 -34 181 -101 221 -43 25 -56 27 -190 31 l-143 5 0 -268z m289 177 c57
-43 66 -66 66 -177 0 -89 -3 -107 -21 -131 -41 -56 -66 -66 -168 -72 l-96 -5
0 200 c0 110 3 203 8 207 4 5 47 6 96 3 65 -4 97 -11 115 -25z"/>
<path d="M6905 5963 c-36 -49 -65 -93 -65 -99 0 -14 33 -24 83 -24 35 0 37 -2
37 -31 0 -38 24 -35 28 4 2 15 10 27 18 27 8 0 14 7 14 15 0 8 -7 15 -15 15
-12 0 -15 17 -15 90 0 54 -4 90 -10 90 -6 0 -39 -39 -75 -87z m55 -28 c0 -61
-10 -72 -55 -61 l-26 7 38 54 c21 30 39 55 41 55 1 0 2 -25 2 -55z"/>
<path d="M930 3813 c-29 -26 -38 -39 -30 -47 7 -7 16 -7 30 2 19 12 20 9 20
-68 0 -79 0 -80 25 -80 l25 0 0 115 c0 133 -5 138 -70 78z"/>
<path d="M3322 3827 c-12 -13 -22 -29 -22 -35 0 -17 30 -15 51 4 21 19 49 12
49 -12 0 -9 -25 -45 -56 -80 -31 -35 -53 -68 -49 -74 3 -5 40 -10 81 -10 67 0
74 2 74 20 0 17 -7 20 -46 20 l-47 0 42 45 c32 34 41 52 41 79 0 62 -75 89
-118 43z"/>
<path d="M5742 3834 c-12 -8 -22 -24 -22 -35 0 -23 9 -24 36 -4 24 18 54 19
54 1 0 -8 -12 -23 -27 -34 l-26 -19 29 -14 c20 -10 29 -22 29 -39 0 -31 -29
-39 -55 -15 -20 18 -40 13 -40 -9 0 -22 35 -46 68 -46 61 0 94 69 55 112 -13
14 -14 21 -5 30 18 18 14 53 -6 71 -23 21 -61 22 -90 1z"/>
<path d="M8171 3778 c-68 -96 -66 -118 11 -118 21 0 31 -6 35 -20 7 -25 31
-26 40 -2 3 9 12 24 20 33 11 14 11 18 -2 29 -8 7 -15 29 -15 50 0 57 -11 100
-26 100 -7 0 -35 -32 -63 -72z m43 -25 c-1 -16 -2 -34 -3 -40 -1 -15 -41 -18
-41 -3 0 8 40 70 45 70 0 0 0 -12 -1 -27z"/>
<path d="M448 3543 l-188 -3 0 -670 0 -670 794 0 794 0 85 73 c266 226 452
407 507 493 16 26 32 66 36 89 12 86 -79 210 -301 405 -60 52 -150 132 -201
177 -51 45 -103 88 -116 95 -18 10 -147 13 -623 13 -330 1 -684 0 -787 -2z
m1369 -22 c30 -6 59 -23 95 -55 29 -25 105 -91 168 -145 245 -209 380 -367
380 -444 0 -47 -47 -124 -134 -217 -80 -87 -371 -353 -450 -411 l-39 -29 -779
0 -778 0 0 650 0 649 78 4 c169 7 1420 6 1459 -2z"/>
<path d="M580 2870 l0 -490 490 0 490 0 0 490 0 490 -490 0 -490 0 0 -490z
m960 0 l0 -470 -470 0 -470 0 0 470 0 470 470 0 470 0 0 -470z"/>
<path d="M928 3014 l-145 -143 144 -143 143 -144 144 145 145 144 -143 142
-143 142 -145 -143z"/>
<path d="M2677 3543 c-4 -3 -7 -307 -7 -675 l0 -668 798 0 798 0 101 88 c326
283 432 390 495 500 76 129 4 233 -412 597 -80 70 -158 134 -175 143 -27 15
-104 17 -811 20 -429 1 -783 -1 -787 -5z m1593 -32 c28 -16 296 -249 408 -355
87 -82 166 -184 188 -244 17 -42 17 -42 -15 -107 -25 -50 -61 -95 -154 -189
-117 -117 -344 -324 -410 -373 l-31 -23 -783 0 -783 0 0 650 0 649 93 4 c50 2
400 3 777 3 568 -1 689 -3 710 -15z"/>
<path d="M3329 3337 c-84 -29 -133 -62 -213 -148 -43 -45 -70 -85 -84 -121
-79 -212 -36 -406 126 -560 66 -63 116 -92 199 -113 240 -63 502 70 588 298
49 130 43 265 -16 385 -36 73 -133 182 -196 219 -114 66 -279 83 -404 40z
m300 -16 c233 -72 377 -330 316 -564 -32 -122 -92 -207 -197 -277 -240 -160
-562 -73 -685 186 -66 139 -67 278 -2 414 52 110 188 221 307 249 68 16 196
12 261 -8z"/>
<path d="M3480 2976 l0 -96 -100 0 c-60 0 -100 -4 -100 -10 0 -6 40 -10 100
-10 l100 0 0 -96 c0 -61 4 -93 10 -89 6 3 10 46 10 96 l0 89 95 0 c57 0 95 4
95 10 0 6 -38 10 -95 10 l-95 0 0 89 c0 50 -4 93 -10 96 -6 4 -10 -28 -10 -89z"/>
<path d="M5358 3543 l-278 -3 0 -670 0 -670 803 0 803 0 84 78 c47 42 128 114
180 159 226 194 360 357 360 440 0 52 -81 173 -182 269 -119 115 -386 347
-428 372 l-45 27 -510 1 c-280 0 -635 -1 -787 -3z m1327 -35 c56 -32 354 -297
466 -416 85 -89 139 -174 139 -219 0 -35 -32 -92 -98 -174 -66 -83 -129 -144
-282 -274 -58 -49 -133 -115 -167 -147 l-61 -58 -791 0 -791 0 0 650 0 650
248 3 c136 2 486 3 777 2 481 0 533 -2 560 -17z"/>
<path d="M5758 3013 l-143 -143 143 -142 142 -143 140 140 c77 77 139 143 138
147 -2 4 -65 69 -140 146 l-137 139 -143 -144z"/>
<path d="M7500 2875 l0 -675 793 0 794 0 39 28 c22 16 73 60 115 98 41 38 126
114 188 169 129 115 242 239 271 300 11 23 20 57 20 77 0 42 -38 117 -100 194
-46 58 -432 405 -504 453 l-40 26 -788 3 -788 3 0 -676z m1616 623 c49 -35
307 -262 407 -357 43 -42 98 -105 123 -142 84 -122 70 -184 -75 -341 -80 -86
-396 -371 -457 -413 l-37 -25 -778 0 -779 0 0 649 c0 510 3 650 13 654 6 3
357 4 778 3 l766 -1 39 -27z"/>
<path d="M7820 2870 l0 -490 495 0 495 0 0 490 0 490 -495 0 -495 0 0 -490z
m970 0 l0 -470 -475 0 -475 0 0 470 0 470 475 0 475 0 0 -470z"/>
<path d="M3329 1841 c-25 -25 -29 -37 -29 -83 0 -75 27 -118 75 -118 46 0 75
29 75 75 0 49 -31 79 -76 72 -37 -6 -39 -5 -24 24 11 20 50 27 50 9 0 -5 9
-10 20 -10 26 0 27 36 1 50 -33 17 -61 11 -92 -19z m73 -105 c15 -34 4 -58
-24 -54 -26 3 -36 41 -18 64 18 20 29 17 42 -10z"/>
<path d="M8163 1858 c-26 -12 -33 -34 -21 -67 5 -14 4 -36 -4 -58 -19 -52 4
-87 59 -91 34 -3 44 1 62 24 25 32 26 40 6 78 -11 20 -12 33 -5 40 17 17 11
54 -12 70 -26 18 -53 19 -85 4z m63 -39 c3 -6 -1 -18 -10 -27 -16 -16 -18 -16
-31 2 -8 10 -12 23 -9 27 7 13 42 11 50 -2z m-1 -109 c0 -16 -6 -26 -19 -28
-25 -5 -39 12 -31 38 10 31 50 24 50 -10z"/>
<path d="M905 1823 c-3 -21 -8 -49 -11 -62 -5 -21 -3 -23 23 -17 61 15 68 13
71 -22 4 -37 -19 -53 -49 -34 -21 14 -49 16 -49 4 0 -25 34 -52 66 -52 63 0
101 59 73 113 -16 29 -28 37 -61 37 -48 0 -35 28 14 32 31 2 44 8 46 21 3 15
-5 17 -57 17 l-60 0 -6 -37z"/>
<path d="M5707 1854 c-14 -15 7 -24 54 -24 l49 0 -21 -41 c-19 -38 -49 -123
-49 -141 0 -5 11 -8 24 -8 20 0 25 6 30 45 4 24 23 73 42 110 l35 65 -79 0
c-43 0 -82 -3 -85 -6z"/>
<path d="M258 1443 c-2 -81 -2 -385 0 -675 l3 -528 794 0 793 0 85 73 c271
230 463 418 510 498 15 25 29 66 33 90 5 38 0 52 -33 109 -46 77 -151 190
-287 308 -56 48 -140 121 -187 163 -48 43 -97 83 -110 91 -20 10 -173 14 -811
16 l-787 3 -3 -148z m1565 118 c24 -6 62 -31 103 -68 36 -32 103 -89 148 -128
256 -216 386 -367 386 -447 0 -69 -118 -221 -288 -371 -224 -200 -284 -252
-309 -268 -27 -18 -68 -19 -805 -19 l-778 0 0 654 0 654 753 1 c413 1 769 -3
790 -8z"/>
<path d="M1048 1075 c-4 -22 -8 -66 -8 -97 l0 -58 -95 0 c-57 0 -95 -4 -95
-10 0 -6 38 -10 95 -10 l95 0 0 -95 c0 -57 4 -95 10 -95 6 0 10 38 10 95 l0
95 100 0 c60 0 100 4 100 10 0 6 -40 10 -100 10 l-99 0 -3 98 c-2 77 -5 89
-10 57z"/>
<path d="M2670 913 l0 -673 800 0 799 0 223 199 c294 263 400 389 400 476 0
67 -85 186 -230 319 -111 104 -316 283 -363 318 l-35 28 -797 2 -797 3 0 -672z
m1561 647 c32 0 53 -14 165 -112 315 -273 433 -398 470 -496 17 -42 17 -42
-14 -105 -49 -98 -230 -280 -519 -524 l-74 -63 -784 0 -785 0 0 650 0 649 128
3 c97 2 1194 1 1413 -2z"/>
<path d="M3340 1386 c-167 -48 -313 -197 -349 -357 -6 -24 -11 -78 -11 -120
-1 -269 218 -489 485 -489 376 0 610 385 439 722 -41 81 -138 171 -231 215
-73 35 -85 38 -183 40 -64 1 -123 -3 -150 -11z m261 -22 c30 -9 72 -25 94 -36
56 -29 163 -135 190 -188 76 -150 73 -334 -8 -473 -44 -75 -143 -158 -227
-192 -68 -27 -85 -30 -185 -29 -125 1 -185 19 -271 79 -61 43 -137 143 -165
215 -27 70 -36 208 -19 281 27 116 116 236 218 296 104 61 259 80 373 47z"/>
<path d="M3323 1054 l-143 -141 145 -144 145 -144 143 143 143 142 -145 145
c-79 80 -145 144 -145 143 -1 -1 -65 -66 -143 -144z"/>
<path d="M5298 1583 l-218 -3 0 -670 0 -670 801 0 802 0 74 68 c41 37 114 100
162 140 232 197 379 369 388 454 9 89 -93 215 -382 469 -102 90 -203 174 -223
186 -37 21 -43 22 -612 26 -316 2 -673 2 -792 0z m1388 -35 c16 -9 91 -70 165
-135 299 -263 425 -404 436 -490 9 -79 -115 -234 -346 -431 -69 -60 -158 -137
-196 -170 l-69 -62 -788 0 -788 0 0 650 0 649 73 4 c39 2 389 3 777 3 640 -1
708 -3 736 -18z"/>
<path d="M5390 910 l0 -490 495 0 495 0 0 490 0 490 -495 0 -495 0 0 -490z
m970 0 l0 -470 -475 0 -475 0 0 470 0 470 475 0 475 0 0 -470z"/>
<path d="M5879 1025 l-4 -100 -97 -3 c-130 -4 -128 -22 2 -22 l100 0 0 -96 c0
-61 4 -93 10 -89 6 3 10 46 10 96 l0 89 90 0 c53 0 90 4 90 10 0 6 -37 10 -90
10 l-90 0 -1 78 c-2 124 -16 143 -20 27z"/>
<path d="M7508 1584 c-5 -4 -8 -308 -8 -676 l0 -668 794 0 794 0 49 36 c26 20
77 64 113 98 36 33 116 106 178 160 194 172 292 300 292 382 0 74 -99 207
-264 353 -229 201 -302 264 -336 287 l-36 24 -784 6 c-432 3 -788 2 -792 -2z
m1607 -46 c55 -39 395 -341 453 -401 74 -79 124 -159 129 -211 7 -59 -27 -122
-125 -227 -82 -88 -395 -371 -456 -413 l-39 -26 -778 0 -779 0 0 650 0 649 68
4 c37 2 387 3 778 3 l711 -1 38 -27z"/>
<path d="M7800 910 l0 -490 498 0 497 0 -1 488 -1 487 -497 3 -496 2 0 -490z
m970 0 l0 -470 -475 0 -475 0 0 470 0 470 475 0 475 0 0 -470z"/>
<path d="M8287 1143 c-3 -10 -17 -49 -30 -88 l-24 -70 -69 -27 c-38 -15 -82
-32 -99 -38 -30 -11 -29 -12 51 -40 117 -40 117 -40 142 -117 37 -116 43 -118
77 -18 16 47 34 90 40 95 15 12 149 60 169 60 9 0 16 5 16 10 0 6 -8 10 -18
10 -9 0 -53 15 -96 33 l-79 32 -30 88 c-31 88 -40 101 -50 70z m42 -105 l21
-57 -25 -28 -24 -28 -25 25 -26 25 22 68 c12 37 25 64 29 59 3 -4 16 -33 28
-64z m-69 -103 l24 -26 -25 -24 -24 -25 -68 22 c-37 12 -67 25 -67 28 0 5 107
48 126 49 6 1 21 -10 34 -24z m146 11 c22 -8 53 -19 69 -26 l30 -12 -60 -19
c-76 -24 -88 -24 -110 1 -18 20 -18 21 5 45 13 14 24 25 25 25 2 0 20 -6 41
-14z m-79 -78 c21 -23 21 -23 3 -82 -26 -84 -36 -88 -54 -25 -20 67 -20 88 1
111 21 23 25 23 50 -4z"/>
</g>
</svg>
