<?xml version="1.0" standalone="no"?>
<!DOCTYPE svg PUBLIC "-//W3C//DTD SVG 20010904//EN"
 "http://www.w3.org/TR/2001/REC-SVG-20010904/DTD/svg10.dtd">
<svg version="1.0" xmlns="http://www.w3.org/2000/svg"
 width="996.000000pt" height="922.000000pt" viewBox="0 0 996.000000 922.000000"
 preserveAspectRatio="xMidYMid meet">
<metadata>
Created by potrace 1.16, written by Peter Selinger 2001-2019
</metadata>
<g transform="translate(0.000000,922.000000) scale(0.100000,-0.100000)"
fill="#FFFFFF" stroke="none">
<path d="M257 8893 c-9 -138 -9 -4598 0 -4725 l6 -98 2939 0 2938 0 0 2465 0
2465 -2938 0 -2939 0 -6 -107z m5863 -2358 l0 -2445 -2918 0 -2919 0 -6 113
c-9 147 -9 4483 0 4650 l6 127 2919 0 2918 0 0 -2445z"/>
<path d="M780 7995 l0 -495 495 0 495 0 0 495 0 495 -495 0 -495 0 0 -495z
m970 0 l0 -475 -475 0 -475 0 0 475 0 475 475 0 475 0 0 -475z"/>
<path d="M1210 8160 l0 -100 -95 0 -95 0 0 -64 c0 -63 0 -64 31 -70 17 -3 60
-6 95 -6 l64 0 0 -95 0 -95 65 0 65 0 0 95 0 94 98 3 97 3 3 68 3 67 -95 0
-94 0 -7 100 -8 100 -63 0 -64 0 0 -100z"/>
<path d="M4015 8472 c-57 -35 -74 -81 -51 -135 38 -92 157 -102 201 -17 26 51
20 88 -24 131 -44 44 -78 50 -126 21z"/>
<path d="M4775 8472 c-36 -23 -50 -40 -58 -70 -15 -61 45 -142 104 -142 103 0
155 112 87 185 -41 45 -90 54 -133 27z"/>
<path d="M2380 8463 c0 -10 87 -104 192 -210 l193 -193 -83 0 -82 0 0 -71 0
-72 77 7 77 7 -19 -23 c-11 -13 -94 -99 -185 -191 -91 -93 -167 -170 -169
-172 -2 -2 -1 -11 3 -20 10 -27 41 -2 228 183 l177 175 3 -74 3 -74 65 0 65 0
3 79 3 79 193 -191 c105 -106 198 -192 204 -192 7 0 12 10 12 22 0 15 -59 81
-187 210 l-188 189 40 -3 c22 -1 57 -1 78 0 l37 2 0 65 0 65 -77 0 -77 0 187
189 c103 103 187 195 187 204 0 9 -5 19 -11 22 -6 4 -96 -77 -202 -181 l-192
-189 -3 78 -3 78 -67 -3 -67 -3 0 -77 1 -78 -192 190 c-106 105 -199 190 -208
190 -9 0 -16 -8 -16 -17z"/>
<path d="M4380 8160 l0 -100 -100 0 -100 0 0 -65 0 -65 54 0 c29 0 74 -3 100
-6 l46 -7 0 -93 0 -94 70 0 70 0 0 95 0 95 64 0 c35 0 78 3 95 6 31 6 31 7 31
70 l0 64 -95 0 -94 0 -3 98 -3 97 -67 3 -68 3 0 -101z"/>
<path d="M3997 7700 c-53 -46 -55 -114 -6 -166 88 -94 241 33 170 140 -42 63
-110 74 -164 26z"/>
<path d="M4775 7712 c-41 -25 -53 -42 -55 -77 -4 -52 -1 -63 26 -94 67 -80
194 -27 194 80 0 23 -10 41 -39 70 -44 44 -78 50 -126 21z"/>
<path d="M4020 7012 c-72 -38 -86 -125 -28 -183 24 -23 38 -29 75 -29 38 0 50
5 80 35 33 33 35 39 30 81 -9 85 -87 133 -157 96z"/>
<path d="M4778 7011 c-106 -52 -68 -211 51 -211 36 0 49 6 77 34 28 28 34 42
34 75 0 81 -91 138 -162 102z"/>
<path d="M780 6530 l0 -490 495 0 495 0 0 490 0 490 -495 0 -495 0 0 -490z
m970 0 l0 -470 -475 0 -475 0 0 470 0 470 475 0 475 0 0 -470z"/>
<path d="M1136 6673 l-140 -143 140 -143 139 -143 145 143 145 143 -145 143
-145 143 -139 -143z"/>
<path d="M2384 7005 c-8 -20 32 -67 185 -220 l131 -130 -62 -62 -63 -63 63
-62 62 -63 -160 -160 c-88 -89 -160 -169 -160 -178 0 -40 44 -7 195 143 l160
160 60 -60 c33 -33 63 -60 66 -60 4 0 34 27 65 60 l58 61 161 -161 c88 -88
168 -160 178 -160 40 0 9 44 -128 180 -80 80 -150 153 -156 164 -9 16 -2 27
47 77 l58 59 -62 63 -62 62 155 155 c85 85 158 163 161 174 3 10 1 23 -5 29
-8 8 -58 -36 -179 -156 l-168 -167 -52 53 c-29 29 -52 58 -52 65 0 22 -15 12
-75 -48 -33 -33 -64 -60 -69 -60 -5 0 -82 72 -171 160 -89 88 -165 160 -169
160 -4 0 -9 -7 -12 -15z"/>
<path d="M4301 6676 l-144 -144 143 -138 c78 -77 146 -139 151 -139 4 0 70 62
147 137 l138 138 -145 145 c-80 80 -145 145 -146 145 0 0 -65 -65 -144 -144z"/>
<path d="M4014 6252 c-39 -25 -68 -83 -59 -122 4 -16 22 -43 41 -60 49 -43
100 -42 148 4 30 28 36 40 36 75 0 84 -98 145 -166 103z"/>
<path d="M4772 6250 c-39 -24 -66 -80 -57 -121 4 -15 23 -42 42 -60 32 -28 41
-31 82 -26 121 14 138 166 25 213 -44 18 -53 18 -92 -6z"/>
<path d="M3655 5728 c-3 -7 -4 -310 -3 -673 l3 -660 760 -3 c418 -2 778 0 800
3 34 5 64 26 185 132 313 275 460 436 476 521 10 54 -41 144 -140 249 -69 74
-298 281 -445 406 l-45 37 -793 0 c-626 0 -795 -3 -798 -12z m1605 -25 c29
-19 222 -188 363 -318 144 -131 237 -256 237 -316 0 -76 -131 -226 -415 -477
l-200 -177 -785 0 -785 0 -3 620 c-1 341 0 635 3 653 l6 32 777 0 c711 0 780
-1 802 -17z"/>
<path d="M780 5071 l0 -488 68 -5 c37 -3 258 -4 492 -4 l425 1 3 493 2 492
-495 0 -495 0 0 -489z m970 -3 l0 -473 -472 1 -473 2 -3 471 -2 471 475 0 475
0 0 -472z"/>
<path d="M1260 5434 c-52 -141 -95 -235 -114 -247 -12 -8 -81 -36 -154 -62
-77 -28 -131 -52 -129 -59 2 -6 66 -32 141 -58 76 -26 141 -49 144 -53 3 -3
31 -65 63 -137 32 -73 61 -134 66 -135 4 -2 27 46 51 105 62 156 67 163 148
191 127 44 224 82 224 89 0 4 -66 30 -147 57 l-147 50 -59 135 c-32 74 -62
139 -67 144 -6 6 -14 -3 -20 -20z"/>
<path d="M2380 5533 c0 -9 74 -91 165 -183 91 -92 165 -169 165 -172 0 -3 -61
-27 -135 -53 -75 -26 -134 -53 -132 -58 2 -6 65 -31 142 -57 l138 -46 -173
-177 c-122 -125 -170 -182 -166 -193 3 -9 10 -14 15 -12 5 2 86 79 180 171
160 157 172 166 180 145 33 -84 103 -220 110 -212 4 5 23 47 41 94 18 47 40
98 48 114 l14 28 174 -172 c148 -148 176 -171 189 -160 8 7 15 15 15 18 0 3
-77 83 -172 178 -115 117 -167 175 -157 179 8 3 68 24 133 48 66 24 121 48
123 54 2 5 -60 32 -138 58 l-141 48 171 171 c155 155 194 206 159 206 -7 0
-88 -75 -180 -167 -96 -95 -172 -163 -176 -157 -8 9 -73 155 -92 207 -5 16
-13 26 -17 24 -5 -3 -30 -59 -58 -126 l-50 -120 -171 169 c-160 160 -204 193
-204 153z"/>
<path d="M6360 6045 l0 -267 143 4 c152 4 169 9 224 61 45 42 68 114 68 212 0
108 -34 182 -103 222 -44 26 -56 28 -189 32 l-143 3 0 -267z m288 178 c58 -44
67 -66 67 -177 0 -93 -2 -106 -25 -139 -33 -49 -59 -59 -167 -65 l-93 -5 0
200 c0 110 3 203 8 207 4 5 47 6 96 3 66 -3 95 -9 114 -24z"/>
<path d="M6871 5974 c-7 -36 -10 -68 -8 -70 2 -2 21 3 41 11 34 15 40 15 62 0
26 -17 31 -52 14 -86 -16 -28 -64 -25 -88 6 -25 31 -32 31 -32 1 0 -55 87 -75
137 -32 22 19 28 33 28 64 0 57 -26 82 -82 82 -42 0 -44 1 -41 28 3 26 6 27
61 30 82 4 71 26 -15 30 l-66 3 -11 -67z"/>
<path d="M930 3814 c-56 -50 -52 -66 10 -40 13 5 15 -6 12 -74 l-4 -80 26 0
26 0 0 115 c0 133 -5 138 -70 79z"/>
<path d="M3322 3827 c-12 -13 -22 -29 -22 -35 0 -17 30 -15 51 4 10 9 25 14
34 11 20 -8 19 -41 -2 -58 -23 -20 -93 -109 -93 -120 0 -5 36 -9 80 -9 73 0
80 2 80 20 0 17 -7 20 -40 20 -22 0 -40 3 -40 6 0 4 16 24 35 45 46 51 50 90
13 122 -28 24 -70 21 -96 -6z"/>
<path d="M5742 3834 c-12 -8 -22 -21 -22 -29 0 -23 20 -28 39 -11 21 19 37 20
47 4 4 -6 -4 -21 -21 -34 l-27 -22 28 -13 c20 -10 29 -22 29 -39 0 -31 -29
-39 -55 -15 -20 18 -40 13 -40 -9 0 -22 35 -46 68 -46 61 0 94 69 55 112 -13
14 -14 21 -5 30 31 31 -4 88 -53 88 -11 0 -31 -7 -43 -16z"/>
<path d="M8189 3803 c-88 -118 -89 -128 -19 -138 40 -6 50 -11 50 -26 0 -24
28 -25 37 -1 3 9 13 25 21 34 13 16 13 18 -2 24 -12 5 -16 19 -16 58 0 63 -9
96 -24 96 -7 0 -28 -21 -47 -47z m27 -79 c-4 -15 -14 -24 -26 -24 -26 0 -25
14 3 51 17 24 23 27 25 14 2 -9 1 -27 -2 -41z"/>
<path d="M373 3543 l-113 -4 -2 -669 -3 -670 797 0 797 0 95 83 c230 198 297
260 388 356 99 104 148 182 148 235 0 56 -67 155 -179 266 -106 105 -350 321
-419 372 l-37 26 -680 5 c-374 2 -731 2 -792 0z m1342 -20 l138 -6 53 -46 c29
-25 106 -92 171 -147 249 -213 383 -369 383 -447 0 -68 -116 -217 -287 -370
-181 -162 -285 -252 -311 -269 -25 -17 -71 -18 -804 -18 l-778 0 0 650 0 649
58 4 c107 6 1238 7 1377 0z"/>
<path d="M597 3353 c-19 -18 6 -51 154 -199 l160 -161 -65 -61 -65 -61 65 -62
65 -63 -167 -167 c-155 -156 -180 -189 -138 -189 9 0 89 72 178 160 l163 160
61 -63 61 -64 63 64 63 63 160 -160 c88 -88 168 -160 177 -160 44 0 21 31
-131 184 -88 89 -161 166 -161 172 0 6 27 36 59 68 l60 56 -50 47 c-85 80 -91
64 90 248 89 90 161 168 161 174 0 6 -10 11 -23 11 -15 0 -68 -46 -177 -155
-85 -85 -159 -155 -165 -155 -6 0 -35 27 -64 61 l-54 61 -66 -66 -66 -66 -165
165 c-91 91 -167 165 -171 165 -3 0 -9 -3 -12 -7z"/>
<path d="M2675 3542 c-3 -3 -5 -306 -5 -674 l0 -668 799 0 799 0 229 204 c361
322 433 428 373 545 -31 63 -115 160 -213 250 -136 124 -317 283 -357 313
l-35 26 -792 5 c-436 2 -795 2 -798 -1z m1621 -47 c42 -32 326 -285 402 -359
76 -73 150 -172 169 -227 12 -36 11 -45 -7 -86 -40 -91 -145 -203 -413 -442
-71 -63 -142 -125 -160 -138 l-31 -23 -783 0 -783 0 0 650 0 650 658 2 c873 4
909 3 948 -27z"/>
<path d="M3031 3334 c-39 -33 -49 -80 -26 -128 10 -20 27 -43 39 -51 30 -22
98 -19 128 5 87 68 42 200 -67 200 -32 0 -51 -7 -74 -26z"/>
<path d="M3791 3334 c-79 -66 -31 -194 73 -194 48 0 80 19 101 60 25 47 19 84
-19 124 -29 31 -40 36 -79 36 -34 0 -53 -6 -76 -26z"/>
<path d="M3340 3015 l-145 -145 140 -140 c77 -77 145 -139 152 -138 7 2 75 65
151 140 l138 138 -145 145 c-80 80 -145 145 -146 145 0 0 -65 -65 -145 -145z"/>
<path d="M3042 2584 c-59 -41 -64 -115 -13 -172 26 -27 37 -32 77 -32 41 0 51
5 80 36 48 50 48 102 0 150 -28 28 -41 34 -78 34 -24 0 -54 -7 -66 -16z"/>
<path d="M3790 2571 c-33 -33 -45 -69 -36 -107 4 -15 20 -39 36 -55 23 -24 37
-29 75 -29 38 0 52 5 75 29 52 51 52 111 0 162 -23 24 -37 29 -75 29 -38 0
-52 -5 -75 -29z"/>
<path d="M5086 3542 c-3 -3 -6 -306 -6 -674 l0 -668 803 0 802 1 55 50 c30 28
114 101 185 163 254 220 373 359 382 448 4 37 -1 53 -34 107 -21 35 -63 91
-94 125 -74 80 -428 394 -480 425 l-39 23 -785 3 c-431 2 -786 1 -789 -3z
m1545 -22 c48 0 84 -26 272 -193 272 -241 387 -377 387 -457 0 -73 -140 -240
-353 -422 -73 -62 -160 -139 -194 -170 l-62 -58 -791 0 -790 0 0 650 0 650
248 3 c136 2 472 2 747 0 275 -2 516 -3 536 -3z"/>
<path d="M5400 2870 l0 -490 498 0 497 0 -1 488 -1 487 -496 3 -497 2 0 -490z
m975 0 l0 -470 -477 0 -478 0 0 470 0 470 478 0 477 0 0 -470z"/>
<path d="M5830 3035 l0 -95 -95 0 -95 0 0 -70 0 -70 95 0 95 0 0 -95 0 -95 70
0 70 0 0 95 0 95 95 0 95 0 0 70 0 70 -95 0 -95 0 0 95 0 95 -70 0 -70 0 0
-95z"/>
<path d="M7508 3544 c-5 -4 -8 -308 -8 -676 l0 -668 793 0 794 0 41 30 c23 16
72 58 109 92 37 35 88 81 113 102 94 80 302 293 332 339 43 67 48 122 15 189
-38 76 -120 170 -243 278 -265 232 -301 263 -334 286 l-35 23 -785 7 c-432 3
-788 3 -792 -2z m1599 -39 c38 -24 307 -260 416 -364 43 -42 98 -105 123 -142
84 -122 70 -184 -75 -341 -80 -86 -396 -371 -457 -413 l-37 -25 -778 0 -779 0
0 650 0 649 88 4 c48 2 398 3 777 3 672 -1 691 -2 722 -21z"/>
<path d="M7841 3347 c-16 -20 4 -43 178 -219 80 -81 143 -149 141 -151 -6 -4
-222 -81 -257 -92 -23 -6 -32 -25 -13 -25 5 0 71 -21 145 -46 l136 -47 -171
-172 c-125 -126 -169 -176 -164 -188 3 -10 11 -17 17 -17 6 0 87 75 180 167
l168 168 49 -108 c28 -59 50 -112 50 -117 0 -5 4 -11 9 -14 5 -3 30 45 56 107
26 61 51 116 55 121 5 5 82 -64 178 -158 93 -91 176 -166 185 -166 40 0 7 44
-154 203 -93 93 -169 170 -167 172 2 1 65 24 141 50 75 26 137 51 137 56 0 4
-63 28 -140 54 -77 26 -140 50 -140 53 0 4 77 84 172 179 134 134 170 175 160
185 -19 19 -49 -3 -212 -167 l-154 -154 -51 116 c-47 106 -75 147 -75 111 0
-16 -79 -209 -92 -223 -5 -5 -77 59 -178 160 -94 94 -172 171 -174 173 -2 1
-8 -4 -15 -11z"/>
<path d="M3334 1847 c-23 -20 -28 -34 -31 -83 -5 -80 20 -124 72 -124 45 0 75
29 75 73 0 49 -33 81 -76 74 -37 -6 -39 -5 -24 24 11 20 45 26 55 9 11 -17 35
-11 35 10 0 42 -65 52 -106 17z m76 -131 c0 -22 -18 -38 -36 -34 -27 5 -33 65
-7 70 18 5 43 -17 43 -36z"/>
<path d="M8151 1845 c-16 -21 -18 -31 -10 -55 7 -20 7 -35 0 -49 -29 -53 0
-101 62 -101 27 0 41 7 56 26 25 32 26 40 6 78 -11 20 -12 33 -5 40 17 17 11
54 -12 70 -34 24 -73 20 -97 -9z m75 -26 c8 -14 -21 -43 -35 -35 -6 4 -11 16
-11 27 0 21 34 27 46 8z m2 -108 c4 -29 -15 -43 -40 -30 -18 10 -24 39 -11 53
15 15 48 1 51 -23z"/>
<path d="M905 1823 c-3 -21 -8 -49 -11 -62 -5 -21 -3 -23 23 -17 59 15 68 13
71 -17 2 -16 -2 -35 -9 -43 -10 -13 -15 -13 -35 1 -29 19 -54 19 -54 1 0 -26
30 -46 70 -46 52 0 84 39 76 90 -6 41 -28 60 -68 60 -48 0 -35 28 14 32 31 2
44 8 46 21 3 15 -5 17 -57 17 l-60 0 -6 -37z"/>
<path d="M5710 1845 c0 -11 12 -15 49 -15 l50 0 -29 -62 c-38 -83 -42 -122
-14 -126 18 -3 22 3 27 39 3 23 22 73 41 110 l36 69 -80 0 c-64 0 -80 -3 -80
-15z"/>
<path d="M256 1450 c-4 -78 -6 -382 -5 -676 l2 -534 799 0 798 0 90 78 c404
348 540 498 540 597 0 75 -127 232 -324 403 -56 48 -140 121 -187 163 -48 43
-97 83 -110 91 -20 10 -173 14 -810 16 l-786 3 -7 -141z m1561 111 c30 -6 59
-23 95 -55 29 -25 94 -81 143 -123 163 -140 274 -245 313 -297 57 -75 92 -140
92 -167 0 -95 -163 -274 -553 -607 l-61 -52 -782 0 -781 0 -6 348 c-3 191 -3
485 0 655 l6 307 746 0 c410 -1 765 -5 788 -9z"/>
<path d="M560 910 l0 -490 495 0 495 0 0 490 0 490 -495 0 -495 0 0 -490z
m913 458 c-4 -7 -101 -104 -214 -216 l-206 -203 -211 213 c-117 116 -212 213
-212 215 0 2 191 3 425 3 338 0 424 -3 418 -12z m-667 -669 c-116 -119 -214
-217 -218 -217 -5 -1 -8 195 -8 436 l0 437 219 -220 218 -220 -211 -216z m722
3 l-3 -220 -220 214 -219 214 219 220 220 220 3 -214 c1 -118 1 -314 0 -434z
m-256 -41 c114 -115 208 -211 208 -215 0 -3 -195 -6 -432 -6 l-433 0 215 215
c118 118 219 215 224 215 5 0 103 -94 218 -209z"/>
<path d="M2670 915 l0 -675 799 0 800 0 98 88 c295 261 346 309 408 380 76 87
117 160 117 207 0 69 -87 189 -235 324 -139 127 -318 283 -357 312 l-35 26
-797 7 -798 6 0 -675z m1561 646 c32 -1 55 -16 175 -122 319 -278 422 -387
460 -487 17 -42 17 -42 -14 -105 -48 -97 -194 -245 -518 -524 l-72 -63 -786 0
-786 0 0 650 0 649 98 3 c82 3 1336 1 1443 -1z"/>
<path d="M2990 1372 c0 -9 63 -80 140 -157 l141 -140 -3 -75 -3 -75 -102 -3
c-137 -4 -134 -22 3 -22 l106 0 -3 -79 -4 -80 -143 -145 c-79 -80 -141 -150
-137 -156 15 -24 44 -3 171 123 74 72 143 135 152 139 9 4 47 7 85 7 l67 1 0
-105 c0 -63 4 -105 10 -105 6 0 10 42 10 106 l0 106 80 -4 80 -3 138 -138
c129 -128 162 -152 177 -127 4 6 -56 75 -133 153 l-140 142 -3 55 c-1 30 -1
67 -1 83 l2 27 100 0 c133 0 131 18 -2 22 l-103 3 0 77 0 76 143 146 c78 80
142 150 142 155 0 6 -10 11 -22 11 -16 0 -65 -42 -158 -134 l-135 -135 -80 -2
-80 -2 -3 101 c-4 132 -22 134 -22 3 0 -116 1 -114 -100 -105 l-68 7 -133 133
c-127 127 -169 156 -169 116z"/>
<path d="M5087 1584 c-4 -4 -7 -308 -7 -676 l0 -668 803 0 803 0 90 83 c49 45
127 114 174 154 113 94 277 265 319 331 51 79 51 122 4 199 -21 34 -60 88 -87
119 -64 74 -428 398 -486 432 l-45 27 -780 3 c-430 2 -784 0 -788 -4z m1557
-23 c50 -12 75 -30 257 -193 312 -277 411 -403 385 -486 -26 -81 -168 -242
-344 -389 -62 -52 -146 -126 -187 -164 l-75 -69 -790 0 -790 0 0 650 0 649 63
4 c141 8 1445 6 1481 -2z"/>
<path d="M5390 910 l0 -490 495 0 495 0 0 490 0 490 -495 0 -495 0 0 -490z
m970 0 l0 -470 -475 0 -475 0 0 470 0 470 475 0 475 0 0 -470z"/>
<path d="M5580 910 l0 -310 305 0 305 0 0 310 0 310 -305 0 -305 0 0 -310z
m590 0 l0 -290 -282 2 -283 3 -3 288 -2 287 285 0 285 0 0 -290z"/>
<path d="M5762 913 l3 -118 118 -3 117 -3 0 121 0 120 -120 0 -121 0 3 -117z"/>
<path d="M7500 915 l0 -675 794 0 794 0 49 36 c26 20 75 62 108 93 33 32 95
88 139 126 118 103 254 243 293 302 49 73 54 126 18 197 -40 79 -118 168 -237
272 -56 50 -148 130 -203 179 -55 48 -117 99 -139 113 l-38 26 -789 3 -789 3
0 -675z m1616 623 c49 -35 307 -262 407 -357 43 -42 98 -105 123 -142 84 -122
70 -184 -75 -341 -80 -86 -396 -371 -457 -413 l-37 -25 -778 0 -779 0 0 650 0
649 73 3 c39 2 390 3 778 3 l706 0 39 -27z"/>
<path d="M7853 1380 c-46 -27 -62 -84 -38 -134 57 -121 247 -58 213 71 -19 73
-107 105 -175 63z"/>
<path d="M8614 1381 c-36 -22 -58 -75 -48 -115 3 -15 19 -40 34 -56 23 -25 36
-30 75 -30 40 0 52 5 81 34 47 47 48 100 3 151 -26 29 -38 35 -73 35 -23 0
-55 -9 -72 -19z"/>
<path d="M8241 1170 c-29 -71 -59 -134 -65 -139 -7 -6 -74 -32 -151 -59 -76
-27 -140 -53 -142 -59 -2 -5 40 -25 94 -43 164 -56 203 -71 203 -81 0 -14 102
-242 115 -257 9 -10 17 4 39 60 16 40 41 101 57 136 31 70 36 73 209 131 103
34 128 46 118 57 -4 3 -69 28 -145 53 l-138 48 -25 49 c-14 27 -43 91 -65 142
-22 51 -42 92 -45 92 -3 0 -30 -58 -59 -130z"/>
<path d="M7871 632 c-43 -23 -76 -82 -66 -119 3 -14 21 -41 40 -60 27 -27 41
-33 75 -33 34 0 48 6 76 34 47 47 48 102 2 150 -42 44 -82 52 -127 28z"/>
<path d="M8608 620 c-14 -10 -31 -33 -38 -49 -27 -66 36 -151 112 -151 79 0
133 92 97 163 -30 58 -120 78 -171 37z"/>
</g>
</svg>
