<?xml version="1.0" standalone="no"?>
<!DOCTYPE svg PUBLIC "-//W3C//DTD SVG 20010904//EN"
 "http://www.w3.org/TR/2001/REC-SVG-20010904/DTD/svg10.dtd">
<svg version="1.0" xmlns="http://www.w3.org/2000/svg"
 width="996.000000pt" height="922.000000pt" viewBox="0 0 996.000000 922.000000"
 preserveAspectRatio="xMidYMid meet">
<metadata>
Created by potrace 1.16, written by Peter Selinger 2001-2019
</metadata>
<g transform="translate(0.000000,922.000000) scale(0.100000,-0.100000)"
fill="#FFFFFF" stroke="none">
<path d="M257 8893 c-9 -139 -9 -4577 0 -4716 l6 -107 2939 0 2938 0 0 2465 0
2465 -2938 0 -2939 0 -6 -107z m5863 -2358 l0 -2445 -2918 0 -2919 0 -6 113
c-9 147 -9 4483 0 4650 l6 127 2919 0 2918 0 0 -2445z"/>
<path d="M1753 8489 c-14 -14 -3 -79 13 -79 8 0 14 8 14 18 0 9 3 27 6 38 6
23 -17 39 -33 23z"/>
<path d="M3337 8494 c-4 -4 -7 -25 -7 -46 0 -32 3 -39 18 -36 13 2 17 13 17
42 0 37 -13 55 -28 40z"/>
<path d="M3940 8454 c0 -27 5 -56 10 -64 9 -13 12 -12 25 4 8 11 15 28 15 38
0 11 7 18 18 18 21 0 60 26 51 34 -3 3 -31 8 -62 12 l-57 7 0 -49z"/>
<path d="M4920 8455 c0 -33 4 -45 15 -45 11 0 15 12 15 45 0 33 -4 45 -15 45
-11 0 -15 -12 -15 -45z"/>
<path d="M772 8438 c3 -61 26 -73 41 -22 6 22 18 33 40 40 56 17 45 34 -23 34
l-61 0 3 -52z"/>
<path d="M1030 8475 c0 -13 9 -16 48 -13 26 2 47 8 47 13 0 6 -21 11 -47 13
-39 3 -48 0 -48 -13z"/>
<path d="M1262 8478 c3 -7 25 -14 51 -16 37 -2 47 0 47 12 0 12 -12 16 -51 16
-36 0 -49 -4 -47 -12z"/>
<path d="M1502 8478 c3 -7 25 -14 51 -16 37 -2 47 0 47 12 0 12 -12 16 -51 16
-36 0 -49 -4 -47 -12z"/>
<path d="M2356 8438 c4 -29 8 -55 10 -57 8 -9 34 23 34 43 0 17 8 25 37 32 64
16 53 34 -22 34 l-66 0 7 -52z"/>
<path d="M2612 8478 c3 -7 25 -14 51 -16 37 -2 47 0 47 12 0 12 -12 16 -51 16
-36 0 -49 -4 -47 -12z"/>
<path d="M2850 8475 c0 -13 9 -16 48 -13 26 2 47 8 47 13 0 6 -21 11 -47 13
-39 3 -48 0 -48 -13z"/>
<path d="M3082 8478 c3 -7 25 -14 51 -16 37 -2 47 0 47 12 0 12 -12 16 -51 16
-36 0 -49 -4 -47 -12z"/>
<path d="M4200 8475 c0 -11 12 -15 50 -15 38 0 50 4 50 15 0 11 -12 15 -50 15
-38 0 -50 -4 -50 -15z"/>
<path d="M4440 8475 c0 -11 12 -15 45 -15 33 0 45 4 45 15 0 11 -12 15 -45 15
-33 0 -45 -4 -45 -15z"/>
<path d="M4672 8478 c3 -7 25 -14 51 -16 37 -2 47 0 47 12 0 12 -12 16 -51 16
-36 0 -49 -4 -47 -12z"/>
<path d="M2843 8297 c-63 -69 -81 -181 -43 -266 11 -24 20 -45 20 -47 0 -2
-17 -4 -37 -4 -54 -1 -112 -30 -158 -81 -43 -46 -73 -105 -61 -117 4 -4 38 -7
74 -6 83 1 150 31 194 84 l30 38 36 -40 c54 -60 104 -82 189 -82 39 -1 74 2
78 6 9 8 -27 77 -62 118 -34 40 -115 80 -165 80 -21 0 -38 2 -38 5 0 3 10 25
22 48 31 61 29 146 -5 213 -36 70 -49 79 -74 51z m43 -82 c19 -46 18 -126 -3
-170 -9 -19 -20 -35 -24 -35 -16 0 -41 103 -36 146 4 39 29 94 43 94 3 0 12
-16 20 -35z m-56 -285 c0 -5 -18 -28 -39 -49 -36 -36 -114 -71 -158 -71 -39 0
18 79 79 109 44 22 118 29 118 11z m177 -11 c47 -22 108 -88 95 -101 -5 -5
-32 -3 -62 3 -39 8 -65 22 -96 51 -24 22 -44 47 -44 54 0 21 57 17 107 -7z"/>
<path d="M3340 8220 c0 -27 4 -50 9 -50 11 0 25 75 16 90 -14 23 -25 7 -25
-40z"/>
<path d="M4925 8258 c-9 -23 -2 -83 10 -83 14 0 19 75 6 88 -7 7 -12 5 -16 -5z"/>
<path d="M1752 8218 c4 -59 28 -63 28 -4 0 35 -4 46 -16 46 -12 0 -14 -9 -12
-42z"/>
<path d="M4440 8131 l0 -131 -132 0 c-90 0 -128 -3 -118 -10 8 -5 68 -10 133
-10 l117 0 0 -126 c0 -81 4 -123 10 -119 6 4 10 57 10 126 l0 119 103 1 c159
2 184 16 30 18 l-133 1 0 124 c0 73 -4 127 -10 131 -6 4 -10 -40 -10 -124z"/>
<path d="M780 8195 c0 -33 4 -45 15 -45 11 0 15 12 15 45 0 33 -4 45 -15 45
-11 0 -15 -12 -15 -45z"/>
<path d="M2360 8194 c0 -37 3 -45 17 -42 9 2 16 6 15 11 -1 4 -2 23 -2 42 0
24 -5 35 -15 35 -11 0 -15 -12 -15 -46z"/>
<path d="M3957 8234 c-4 -4 -7 -25 -7 -46 0 -32 3 -39 18 -36 13 2 17 13 17
42 0 37 -13 55 -28 40z"/>
<path d="M1212 8110 c-63 -39 -88 -111 -58 -168 26 -49 62 -75 113 -79 62 -5
103 19 131 79 28 57 17 102 -38 152 -47 42 -96 48 -148 16z"/>
<path d="M1750 7985 c0 -39 3 -45 21 -45 17 0 20 4 15 23 -3 12 -6 32 -6 45 0
13 -6 22 -15 22 -11 0 -15 -12 -15 -45z"/>
<path d="M3337 8024 c-4 -4 -7 -25 -7 -46 0 -32 3 -39 18 -36 13 2 17 13 17
42 0 37 -13 55 -28 40z"/>
<path d="M4917 8008 c-8 -31 2 -68 19 -68 10 0 14 13 14 45 0 49 -23 64 -33
23z"/>
<path d="M2365 7998 c-11 -29 -1 -83 15 -83 11 0 14 10 12 40 -4 45 -18 67
-27 43z"/>
<path d="M3954 7997 c-10 -28 0 -82 16 -82 21 0 26 68 6 84 -13 11 -17 11 -22
-2z"/>
<path d="M782 7958 c2 -24 8 -43 13 -43 6 0 11 19 13 43 3 33 0 42 -13 42 -13
0 -16 -9 -13 -42z"/>
<path d="M4920 7781 c-15 -29 -9 -76 10 -76 10 0 16 12 18 39 4 47 -11 67 -28
37z"/>
<path d="M1750 7745 c0 -33 4 -45 15 -45 11 0 15 12 15 45 0 33 -4 45 -15 45
-11 0 -15 -12 -15 -45z"/>
<path d="M3334 7777 c-10 -27 0 -72 16 -72 11 0 15 11 15 39 0 40 -20 61 -31
33z"/>
<path d="M778 7753 c-6 -32 4 -73 18 -73 10 0 14 13 14 45 0 32 -4 45 -14 45
-8 0 -16 -8 -18 -17z"/>
<path d="M2359 7758 c-1 -7 -3 -23 -4 -35 -3 -30 10 -47 30 -39 10 4 15 12 11
22 -3 9 -6 27 -6 40 0 25 -29 35 -31 12z"/>
<path d="M3954 7756 c-3 -8 -4 -29 -2 -48 4 -39 31 -46 36 -9 7 50 -20 95 -34
57z"/>
<path d="M1730 7535 c-27 -29 -17 -49 21 -43 19 2 25 10 27 36 4 40 -15 43
-48 7z"/>
<path d="M3320 7542 c-31 -25 -21 -55 17 -50 23 2 28 8 28 32 0 36 -15 42 -45
18z"/>
<path d="M4900 7535 c-21 -22 -22 -28 -10 -36 29 -18 55 -6 55 25 0 39 -16 42
-45 11z"/>
<path d="M798 7523 c-35 -5 -36 -19 -4 -27 29 -7 80 10 71 24 -6 10 -17 11
-67 3z"/>
<path d="M1517 7523 c-47 -5 -45 -27 4 -31 38 -3 65 10 55 27 -4 6 -10 10 -14
9 -4 -1 -24 -3 -45 -5z"/>
<path d="M2362 7523 c-10 -4 -10 -8 -1 -19 20 -24 89 -15 89 12 0 14 -59 19
-88 7z"/>
<path d="M2620 7521 c-46 -6 -46 -13 2 -25 32 -7 58 1 58 20 0 8 -3 13 -7 12
-5 0 -28 -4 -53 -7z"/>
<path d="M2858 7523 c-47 -5 -49 -19 -4 -27 38 -7 69 1 63 17 -4 13 -12 14
-59 10z"/>
<path d="M3065 7520 c-11 -17 1 -23 47 -24 32 -1 43 3 43 14 0 18 -79 27 -90
10z"/>
<path d="M3945 7520 c-12 -19 10 -32 46 -28 48 4 45 31 -3 36 -20 2 -39 -2
-43 -8z"/>
<path d="M4443 7523 c-43 -6 -42 -19 3 -26 40 -7 67 0 61 17 -4 13 -19 15 -64
9z"/>
<path d="M4683 7523 c-40 -5 -43 -18 -7 -27 31 -8 66 2 61 17 -4 13 -13 15
-54 10z"/>
<path d="M1010 7510 c0 -5 20 -10 45 -10 25 0 45 5 45 10 0 6 -20 10 -45 10
-25 0 -45 -4 -45 -10z"/>
<path d="M1240 7511 c0 -12 63 -23 84 -15 32 12 15 24 -34 24 -27 0 -50 -4
-50 -9z"/>
<path d="M4180 7510 c0 -5 20 -10 45 -10 25 0 45 5 45 10 0 6 -20 10 -45 10
-25 0 -45 -4 -45 -10z"/>
<path d="M770 6530 l0 -510 510 0 510 0 0 510 0 510 -510 0 -510 0 0 -510z
m965 0 l0 -455 -457 -3 -458 -2 0 460 0 460 458 -2 457 -3 0 -455z"/>
<path d="M1247 6848 c-42 -56 -50 -81 -51 -143 0 -40 7 -75 21 -106 l21 -47
-53 -7 c-34 -4 -70 -17 -99 -36 -51 -34 -108 -113 -104 -144 3 -18 10 -20 79
-20 64 1 82 5 122 29 26 15 57 42 68 59 l21 32 51 -50 c32 -31 68 -55 93 -63
49 -14 150 -16 159 -2 9 14 -19 73 -55 114 -40 45 -95 74 -155 83 -25 3 -45 7
-45 8 0 2 9 22 20 46 33 73 24 171 -23 239 -30 45 -41 47 -70 8z m55 -75 c15
-34 19 -58 15 -93 -6 -51 -25 -100 -39 -100 -15 0 -40 71 -41 117 0 36 28 123
40 123 2 0 13 -21 25 -47z m-61 -280 c-29 -54 -121 -113 -174 -113 -35 0 -38
9 -14 42 36 49 107 85 170 87 23 1 26 -2 18 -16z m152 6 c38 -10 127 -86 127
-107 0 -15 -33 -15 -83 -1 -38 10 -127 86 -127 107 0 15 33 15 83 1z"/>
<path d="M2352 6533 l3 -508 508 -3 507 -2 0 510 0 510 -510 0 -510 0 2 -507z
m968 -3 l0 -460 -460 0 -460 0 0 460 0 460 460 0 460 0 0 -460z"/>
<path d="M2858 6794 c-5 -4 -8 -63 -8 -131 l0 -123 -125 0 c-77 0 -125 -4
-125 -10 0 -6 48 -10 125 -10 l125 0 0 -124 c0 -73 4 -127 10 -131 6 -4 10 40
10 124 l0 131 130 0 c171 0 173 18 3 22 l-128 3 -5 128 c-3 71 -8 125 -12 121z"/>
<path d="M3940 6530 l0 -510 510 0 510 0 0 510 0 510 -510 0 -510 0 0 -510z
m968 3 l-3 -458 -457 -3 -458 -2 0 460 0 460 460 0 460 0 -2 -457z"/>
<path d="M4415 6663 c-11 -3 -32 -14 -48 -25 -68 -49 -74 -141 -11 -203 29
-30 42 -35 80 -35 57 0 96 20 123 63 32 52 28 108 -10 151 -25 29 -86 60 -109
55 -3 -1 -14 -4 -25 -6z"/>
<path d="M3655 5728 c-3 -7 -4 -310 -3 -673 l3 -660 760 -3 c418 -2 779 0 801
3 36 5 63 25 190 138 321 284 454 430 470 513 5 28 0 49 -26 101 -49 99 -170
220 -554 551 l-49 42 -794 0 c-626 0 -795 -3 -798 -12z m1736 -134 c316 -278
396 -360 448 -461 11 -23 21 -52 21 -64 0 -76 -122 -216 -410 -472 l-205 -182
-785 0 -785 0 -3 610 c-2 336 0 629 3 653 l6 42 783 0 782 0 145 -126z"/>
<path d="M833 5593 l-83 -4 0 -524 0 -525 530 0 530 0 0 524 0 523 -77 7 c-75
6 -739 5 -900 -1z m887 -523 l0 -440 -440 0 -440 0 0 440 0 440 440 0 440 0 0
-440z"/>
<path d="M900 5065 l0 -385 380 0 380 0 0 385 0 385 -380 0 -380 0 0 -385z
m740 0 l0 -365 -360 0 -360 0 0 365 0 365 360 0 360 0 0 -365z"/>
<path d="M1268 5208 l-3 -123 -127 -3 c-71 -1 -128 -7 -128 -12 0 -5 57 -11
128 -12 l127 -3 3 -128 c3 -167 22 -160 22 9 l0 124 125 0 c77 0 125 4 125 10
0 6 -48 10 -124 10 l-124 0 -7 74 c-3 41 -3 94 0 119 4 28 3 47 -4 51 -7 5
-11 -32 -13 -116z"/>
<path d="M2398 5593 l-57 -4 -5 -42 c-3 -23 -5 -258 -3 -522 l2 -480 528 -3
527 -2 0 523 0 524 -107 6 c-106 7 -778 6 -885 0z m902 -523 l0 -440 -440 0
-440 0 0 440 0 440 440 0 440 0 0 -440z"/>
<path d="M2480 5065 l0 -385 380 0 380 0 0 385 0 385 -380 0 -380 0 0 -385z
m740 0 l0 -365 -360 0 -360 0 0 365 0 365 360 0 360 0 0 -365z"/>
<path d="M2775 5169 c-67 -59 -66 -138 4 -204 61 -57 161 -34 205 48 27 49 15
100 -34 149 -34 34 -43 38 -88 38 -43 0 -57 -5 -87 -31z"/>
<path d="M6360 6045 l0 -267 143 4 c125 3 147 6 182 26 52 30 80 72 101 152
33 131 -7 266 -94 317 -44 26 -56 28 -189 32 l-143 3 0 -267z m238 196 c84
-16 123 -79 124 -197 0 -56 -5 -85 -22 -119 -30 -61 -63 -77 -177 -83 l-93 -5
0 200 c0 110 3 203 7 206 9 9 109 8 161 -2z"/>
<path d="M6921 6041 c-45 -12 -66 -55 -66 -131 0 -87 23 -123 80 -128 53 -5
85 27 85 85 0 64 -27 87 -91 79 l-48 -7 10 29 c5 16 21 35 35 42 21 12 27 11
47 -8 40 -38 64 -24 30 16 -21 24 -49 32 -82 23z m57 -133 c15 -15 16 -53 2
-79 -23 -41 -90 -10 -90 42 0 42 59 66 88 37z"/>
<path d="M930 3814 c-56 -50 -52 -66 10 -40 13 5 15 -6 12 -74 l-4 -80 26 0
26 0 0 115 c0 133 -5 138 -70 79z"/>
<path d="M3322 3827 c-12 -13 -22 -29 -22 -35 0 -17 35 -15 50 3 7 8 21 15 31
15 28 0 24 -42 -7 -71 -31 -28 -84 -98 -84 -111 0 -4 36 -8 80 -8 73 0 80 2
80 20 0 17 -7 20 -47 20 l-47 0 36 38 c53 53 64 89 40 121 -27 36 -80 40 -110
8z"/>
<path d="M5742 3834 c-24 -17 -30 -54 -8 -54 7 0 19 7 26 15 16 19 50 20 50 1
0 -8 -12 -23 -27 -34 l-26 -19 29 -14 c20 -10 29 -22 29 -39 0 -31 -29 -38
-56 -14 -15 14 -21 15 -34 4 -14 -12 -13 -16 6 -37 45 -47 129 -18 129 44 0
14 -8 35 -17 45 -13 14 -14 21 -5 30 31 31 -4 88 -53 88 -11 0 -31 -7 -43 -16z"/>
<path d="M8189 3803 c-87 -117 -89 -129 -23 -139 33 -5 48 -12 51 -25 7 -24
32 -25 40 -1 3 9 13 25 21 34 13 16 13 18 -2 24 -12 5 -16 19 -16 58 0 63 -9
96 -24 96 -7 0 -28 -21 -47 -47z m27 -68 c-5 -26 -12 -35 -26 -35 -26 0 -25
14 2 50 26 36 33 32 24 -15z"/>
<path d="M383 3542 l-123 -3 0 -653 c0 -360 -3 -661 -6 -670 -6 -15 68 -16
794 -16 l800 0 85 73 c391 332 547 504 547 602 0 73 -116 220 -305 385 -54 47
-145 127 -203 178 -57 51 -114 94 -126 97 -25 5 -1289 11 -1463 7z m1434 -21
c30 -6 59 -23 95 -55 29 -25 94 -81 143 -123 237 -203 314 -284 378 -394 34
-57 34 -86 2 -150 -28 -55 -156 -197 -262 -292 -181 -162 -285 -252 -311 -269
-25 -17 -71 -18 -804 -18 l-778 0 0 650 0 649 58 4 c121 7 1439 6 1479 -2z"/>
<path d="M568 3373 c-3 -4 -3 -32 0 -61 3 -43 7 -52 20 -50 10 2 19 16 22 33
4 24 11 31 35 35 22 4 30 11 30 25 0 17 -8 20 -52 23 -28 2 -53 -1 -55 -5z"/>
<path d="M1534 3367 c-3 -8 -4 -30 -2 -49 2 -25 8 -33 23 -33 17 0 20 7 20 45
0 35 -4 45 -18 48 -9 2 -20 -3 -23 -11z"/>
<path d="M820 3356 c0 -9 15 -17 40 -21 43 -7 60 -2 60 21 0 10 -13 14 -50 14
-36 0 -50 -4 -50 -14z"/>
<path d="M1060 3350 c0 -16 7 -20 34 -20 44 0 66 9 66 26 0 10 -14 14 -50 14
-43 0 -50 -3 -50 -20z"/>
<path d="M1300 3356 c0 -8 14 -15 34 -18 42 -5 56 0 56 18 0 10 -13 14 -45 14
-32 0 -45 -4 -45 -14z"/>
<path d="M1030 3173 c-16 -25 -33 -62 -36 -81 -9 -46 1 -134 19 -168 l15 -29
-61 -12 c-71 -15 -117 -48 -165 -118 -46 -68 -41 -79 35 -83 79 -4 148 24 199
80 l36 40 31 -37 c44 -54 116 -85 198 -85 36 0 69 3 72 6 4 4 -8 34 -25 66
-39 73 -96 116 -177 131 l-58 11 19 44 c20 43 26 131 13 174 -12 37 -59 108
-73 108 -7 0 -26 -21 -42 -47z m64 -53 c9 -22 16 -60 16 -85 0 -42 -26 -115
-41 -115 -13 0 -39 80 -39 120 0 41 26 120 40 120 4 0 15 -18 24 -40z m-54
-280 c0 -22 -89 -99 -126 -109 -52 -15 -84 -14 -84 2 0 22 75 88 116 102 46
17 94 19 94 5z m180 -15 c29 -15 90 -79 90 -95 0 -14 -34 -12 -84 2 -44 14
-116 78 -116 104 0 14 7 15 41 10 23 -4 53 -13 69 -21z"/>
<path d="M1540 3096 c0 -34 4 -46 15 -46 10 0 16 11 17 30 0 17 1 36 2 42 1 7
-7 14 -16 16 -15 3 -18 -4 -18 -42z"/>
<path d="M578 3088 c-6 -40 1 -70 16 -65 14 5 14 89 0 94 -7 2 -14 -10 -16
-29z"/>
<path d="M1542 2897 c-15 -18 -3 -87 14 -87 10 0 14 14 14 50 0 50 -8 61 -28
37z"/>
<path d="M580 2834 c0 -59 24 -55 28 4 2 33 0 42 -12 42 -12 0 -16 -11 -16
-46z"/>
<path d="M1534 2656 c-3 -8 -4 -27 -2 -43 2 -21 9 -29 27 -31 21 -3 23 -1 18
20 -4 12 -7 33 -7 46 0 25 -27 31 -36 8z"/>
<path d="M574 2637 c-10 -28 0 -82 16 -82 11 0 15 12 15 44 0 44 -19 68 -31
38z"/>
<path d="M1543 2429 c-19 -7 -43 -37 -43 -53 0 -3 18 -6 40 -6 38 0 40 2 40
29 0 35 -8 41 -37 30z"/>
<path d="M567 2404 c-21 -21 -5 -34 44 -34 43 0 50 3 47 18 -2 12 -14 18 -43
20 -23 2 -44 0 -48 -4z"/>
<path d="M800 2390 c0 -17 7 -20 43 -20 48 0 58 5 50 26 -3 9 -21 14 -49 14
-37 0 -44 -3 -44 -20z"/>
<path d="M1037 2403 c-4 -3 -7 -12 -7 -20 0 -9 15 -13 50 -13 43 0 50 3 50 20
0 17 -7 20 -43 20 -24 0 -47 -3 -50 -7z"/>
<path d="M1277 2404 c-21 -21 -5 -34 44 -34 43 0 50 3 47 18 -2 12 -14 18 -43
20 -23 2 -44 0 -48 -4z"/>
<path d="M2675 3541 c-3 -2 -5 -305 -5 -673 l0 -668 799 0 800 0 143 128 c79
70 174 154 212 187 85 74 198 203 237 270 48 84 36 144 -49 251 -68 85 -365
362 -500 466 l-53 41 -790 1 c-434 1 -792 0 -794 -3z m1603 -32 c60 -47 342
-299 418 -374 98 -97 150 -166 171 -229 13 -37 13 -42 -17 -103 -24 -48 -62
-94 -153 -187 -117 -117 -344 -324 -410 -373 l-31 -23 -783 0 -783 0 0 650 0
649 148 4 c81 2 434 2 785 1 517 -1 640 -4 655 -15z"/>
<path d="M2960 2876 l0 -524 23 -5 c12 -4 248 -6 525 -7 l502 -1 0 531 0 530
-525 0 -525 0 0 -524z m968 -3 l-3 -438 -438 0 -438 0 -5 265 c-2 146 -2 343
2 438 l7 172 438 0 439 0 -2 -437z"/>
<path d="M3243 3252 l-143 -3 0 -379 0 -380 385 0 385 0 -2 380 -3 379 -240 3
c-132 2 -304 2 -382 0z m561 -18 l46 -7 0 -358 0 -359 -365 0 -365 0 0 358 c0
197 3 362 7 365 8 9 615 9 677 1z"/>
<path d="M3412 2980 c-79 -48 -81 -164 -3 -219 41 -29 117 -28 151 2 60 53 75
108 45 167 -36 70 -123 92 -193 50z"/>
<path d="M5084 3541 c-2 -2 -4 -305 -4 -673 l0 -668 803 0 802 1 55 50 c30 28
114 101 185 164 264 230 385 376 385 464 0 33 -58 132 -118 201 -71 82 -450
418 -503 446 -27 14 -119 16 -816 17 -431 1 -787 0 -789 -2z m1549 -20 c57 -9
82 -26 234 -161 355 -315 451 -438 412 -532 -37 -90 -170 -235 -369 -404 -58
-49 -133 -115 -167 -146 l-62 -58 -791 0 -790 0 0 650 0 650 303 3 c694 6
1185 5 1230 -2z"/>
<path d="M5390 2870 l0 -510 510 0 510 0 0 510 0 510 -510 0 -510 0 0 -510z
m968 3 l-3 -458 -457 -3 -458 -2 0 460 0 460 460 0 460 0 -2 -457z"/>
<path d="M5878 3203 c-60 -69 -77 -183 -39 -268 20 -45 20 -45 0 -45 -81 0
-180 -64 -220 -142 -29 -57 -21 -68 47 -68 85 0 133 18 186 71 l47 47 48 -47
c55 -53 103 -71 192 -71 73 0 76 8 32 85 -37 64 -93 103 -168 118 l-60 11 20
50 c33 89 23 171 -30 244 -28 37 -34 39 -55 15z m48 -88 c7 -19 14 -52 14 -74
0 -42 -26 -121 -40 -121 -14 0 -40 79 -40 121 0 45 23 109 40 109 6 0 18 -16
26 -35z m-73 -297 c-27 -46 -90 -87 -145 -94 -39 -6 -48 -4 -48 8 0 22 84 96
117 104 15 3 33 7 38 9 6 2 21 4 33 4 l24 1 -19 -32z m198 7 c28 -15 89 -80
89 -95 0 -13 -39 -13 -81 1 -48 16 -96 55 -115 91 l-16 31 48 -8 c27 -4 61
-13 75 -20z"/>
<path d="M7748 3543 l-248 -3 0 -670 0 -670 794 0 795 0 70 58 c194 158 474
429 523 505 61 94 45 172 -59 301 -48 59 -438 409 -503 451 l-35 23 -545 4
c-300 2 -656 3 -792 1z m1353 -34 c54 -36 406 -346 470 -416 73 -78 121 -156
126 -207 7 -59 -27 -122 -126 -228 -80 -86 -396 -371 -457 -413 l-37 -25 -778
0 -779 0 0 650 0 649 98 4 c53 2 403 3 777 3 612 -1 683 -3 706 -17z"/>
<path d="M7810 3373 c0 -5 0 -233 -1 -508 l-1 -500 508 0 509 0 0 505 0 505
-507 3 c-280 1 -508 -1 -508 -5z m960 -503 l0 -460 -455 0 -455 0 0 460 0 460
455 0 455 0 0 -460z"/>
<path d="M8308 3134 c-5 -4 -8 -63 -8 -131 l0 -123 -125 0 c-77 0 -125 -4
-125 -10 0 -6 48 -10 125 -10 l125 0 0 -125 c0 -77 4 -125 10 -125 6 0 10 48
10 125 l0 125 130 0 c80 0 130 4 130 10 0 6 -50 10 -130 10 l-129 0 -3 131
c-2 72 -6 127 -10 123z"/>
<path d="M3334 1847 c-38 -33 -46 -125 -15 -174 40 -64 131 -34 131 42 0 49
-31 79 -76 72 -37 -6 -39 -5 -24 24 11 20 45 26 55 9 11 -17 35 -11 35 10 0
42 -65 52 -106 17z m66 -107 c16 -30 3 -62 -23 -58 -38 5 -33 77 5 78 4 0 12
-9 18 -20z"/>
<path d="M5763 1862 c-38 -2 -53 -7 -53 -18 0 -10 13 -14 50 -14 l50 0 -21
-41 c-26 -51 -50 -130 -43 -141 3 -4 13 -8 23 -8 14 0 20 11 25 45 4 24 22 73
41 108 l34 65 -27 3 c-15 2 -51 3 -79 1z"/>
<path d="M8155 1846 c-22 -22 -23 -28 -13 -56 8 -23 7 -35 -1 -43 -17 -17 -13
-72 7 -90 10 -10 34 -17 54 -17 57 0 89 53 63 104 -11 20 -12 33 -5 40 17 17
11 54 -12 70 -32 23 -65 20 -93 -8z m71 -27 c8 -14 -21 -43 -35 -35 -6 4 -11
16 -11 27 0 21 34 27 46 8z m-1 -109 c0 -18 -6 -26 -23 -28 -13 -2 -25 3 -28
12 -10 26 4 48 28 44 17 -2 23 -10 23 -28z"/>
<path d="M906 1838 c-3 -13 -7 -40 -10 -61 -5 -38 -5 -39 22 -32 48 13 64 11
73 -12 6 -16 3 -28 -11 -45 -17 -22 -19 -22 -37 -5 -23 20 -53 23 -53 4 0 -23
35 -47 66 -47 60 0 100 61 73 112 -16 30 -28 38 -61 38 -18 0 -28 5 -28 15 0
11 12 15 45 15 38 0 45 3 45 20 0 18 -7 20 -60 20 -54 0 -60 -2 -64 -22z"/>
<path d="M260 913 l0 -673 794 0 795 0 90 77 c403 347 541 499 541 597 0 75
-113 219 -305 386 -54 47 -142 124 -196 172 -54 48 -109 93 -121 100 -18 10
-182 13 -810 13 l-788 0 0 -672z m1562 648 c21 -5 58 -26 82 -47 24 -22 104
-91 178 -155 73 -63 169 -151 214 -195 85 -83 164 -202 164 -245 0 -79 -140
-247 -378 -454 -57 -50 -133 -116 -170 -147 l-66 -58 -783 0 -783 0 0 650 0
650 278 3 c689 7 1230 6 1264 -2z"/>
<path d="M532 913 l3 -528 523 -3 522 -2 0 530 0 530 -525 0 -525 0 2 -527z
m966 0 l-3 -438 -440 0 -440 0 -3 425 c-1 234 0 431 3 438 3 9 102 12 445 12
l440 0 -2 -437z"/>
<path d="M1049 1292 l-376 -2 1 -380 1 -380 383 0 382 0 0 379 c0 209 -3 381
-7 383 -5 2 -177 2 -384 0z m369 -379 l2 -363 -363 0 -363 0 2 343 c1 188 2
352 3 365 l1 22 358 -2 357 -3 3 -362z"/>
<path d="M1048 1174 c-5 -4 -8 -63 -8 -131 l0 -123 -125 0 c-77 0 -125 -4
-125 -10 0 -6 48 -10 125 -10 l125 0 0 -125 c0 -77 4 -125 10 -125 6 0 10 43
10 109 0 60 3 116 6 125 5 13 26 16 130 16 166 0 163 19 -3 22 l-128 3 -5 128
c-3 71 -8 125 -12 121z"/>
<path d="M2670 917 l0 -677 800 0 799 0 143 128 c79 70 170 150 202 177 82 69
215 221 250 284 15 29 28 68 28 86 0 54 -50 132 -152 239 -88 91 -357 335
-441 399 l-36 27 -797 7 -796 6 0 -676z m1554 647 c42 -6 61 -19 174 -117 312
-272 430 -396 468 -495 17 -42 17 -42 -14 -105 -18 -35 -64 -97 -108 -145 -65
-71 -341 -324 -452 -415 l-34 -27 -784 0 -784 0 0 650 0 649 113 4 c226 6
1376 7 1421 1z"/>
<path d="M2940 916 l0 -525 33 -6 c17 -3 255 -4 527 -3 l495 3 0 525 0 525
-527 3 -528 2 0 -524z m970 -6 l0 -440 -440 0 -440 0 0 440 0 440 440 0 440 0
0 -440z"/>
<path d="M3190 1293 l-105 -4 2 -377 2 -377 384 -3 385 -2 -2 380 -1 380 -280
3 c-154 2 -327 2 -385 0z m634 -23 c2 -3 6 -166 8 -363 l3 -357 -362 0 -363 0
0 365 0 366 354 -3 c195 -2 357 -5 360 -8z"/>
<path d="M3437 1148 c-55 -71 -66 -168 -29 -250 l21 -48 -38 0 c-61 0 -136
-44 -181 -108 -22 -30 -40 -63 -40 -73 0 -24 37 -33 103 -25 70 9 131 40 167
84 l30 37 30 -37 c50 -61 163 -100 240 -83 28 6 31 10 25 33 -20 81 -118 161
-206 170 -27 2 -49 6 -49 7 0 1 8 17 17 36 10 19 19 64 21 104 3 62 0 76 -25
125 -16 30 -36 56 -45 58 -9 2 -27 -12 -41 -30z m57 -68 c9 -22 16 -58 16 -80
0 -41 -26 -120 -40 -120 -14 0 -40 80 -40 125 0 42 26 115 41 115 4 0 14 -18
23 -40z m-71 -301 c-23 -40 -93 -85 -145 -94 -61 -11 -65 6 -16 56 44 46 88
66 146 68 l33 1 -18 -31z m182 12 c39 -18 122 -98 111 -108 -3 -3 -25 -2 -49
1 -55 8 -126 53 -150 95 l-18 31 33 0 c18 0 51 -9 73 -19z"/>
<path d="M5087 1584 c-4 -4 -7 -308 -7 -676 l0 -668 803 0 803 0 90 83 c49 45
127 114 174 154 114 95 277 265 320 333 65 101 41 179 -101 333 -81 88 -415
383 -472 417 l-42 25 -780 3 c-430 1 -784 0 -788 -4z m1598 -36 c46 -25 368
-312 466 -416 87 -91 139 -174 139 -222 0 -72 -148 -250 -346 -416 -63 -53
-148 -127 -189 -165 l-75 -69 -790 0 -790 0 0 650 0 649 63 4 c34 2 384 3 777
3 647 -1 718 -3 745 -18z"/>
<path d="M5360 910 l0 -530 523 2 522 3 3 528 2 527 -525 0 -525 0 0 -530z
m968 3 l-3 -438 -440 0 -440 0 1 190 c1 105 2 301 3 438 l1 247 440 0 440 0
-2 -437z"/>
<path d="M5518 1289 c-19 -10 -25 -49 -9 -49 5 0 13 9 16 21 5 15 13 19 27 16
12 -4 18 -1 15 6 -5 16 -28 19 -49 6z"/>
<path d="M5605 1291 c-6 -11 9 -23 19 -14 9 9 7 23 -3 23 -6 0 -12 -4 -16 -9z"/>
<path d="M5640 1285 c0 -8 5 -15 10 -15 6 0 10 7 10 15 0 8 -4 15 -10 15 -5 0
-10 -7 -10 -15z"/>
<path d="M5697 1294 c-8 -8 1 -24 14 -24 5 0 9 7 9 15 0 15 -12 20 -23 9z"/>
<path d="M5736 1285 c-3 -8 -1 -15 4 -15 13 0 22 18 11 24 -5 3 -11 -1 -15 -9z"/>
<path d="M5790 1290 c0 -5 7 -10 16 -10 8 0 12 5 9 10 -3 6 -10 10 -16 10 -5
0 -9 -4 -9 -10z"/>
<path d="M5830 1284 c0 -8 5 -12 10 -9 6 3 10 10 10 16 0 5 -4 9 -10 9 -5 0
-10 -7 -10 -16z"/>
<path d="M5880 1284 c0 -17 22 -14 28 4 2 7 -3 12 -12 12 -9 0 -16 -7 -16 -16z"/>
<path d="M5920 1285 c0 -8 5 -15 10 -15 6 0 10 7 10 15 0 8 -4 15 -10 15 -5 0
-10 -7 -10 -15z"/>
<path d="M5977 1294 c-8 -8 1 -24 14 -24 5 0 9 7 9 15 0 15 -12 20 -23 9z"/>
<path d="M6016 1291 c-4 -7 -5 -15 -2 -18 9 -9 19 4 14 18 -4 11 -6 11 -12 0z"/>
<path d="M6070 1286 c0 -6 11 -12 25 -12 14 -1 25 3 25 10 0 6 -11 12 -25 12
-14 1 -25 -3 -25 -10z"/>
<path d="M6160 1290 c0 -6 4 -10 9 -10 5 0 16 -3 25 -6 10 -4 16 -1 16 8 0 7
-11 15 -25 16 -14 1 -25 -3 -25 -8z"/>
<path d="M6247 1272 c-3 -15 -4 -29 -2 -31 8 -8 25 12 25 29 0 30 -17 32 -23
2z"/>
<path d="M5500 1185 c0 -19 5 -35 10 -35 6 0 10 16 10 35 0 19 -4 35 -10 35
-5 0 -10 -16 -10 -35z"/>
<path d="M6248 1194 c-3 -2 -3 -16 0 -29 5 -28 22 -24 22 5 0 19 -13 34 -22
24z"/>
<path d="M5879 1116 c-4 -67 -5 -70 -33 -77 -39 -11 -84 -55 -91 -90 -6 -28
-8 -29 -71 -29 -36 0 -64 -4 -64 -10 0 -6 28 -10 64 -10 59 0 64 -2 70 -24 9
-38 54 -85 89 -94 32 -8 32 -9 35 -75 4 -86 22 -79 22 9 0 54 3 64 18 64 23 0
82 57 94 91 10 28 13 29 74 29 36 0 64 4 64 10 0 6 -28 10 -62 10 l-63 1 -20
42 c-15 30 -32 48 -62 62 -39 18 -42 23 -44 60 -1 22 -5 54 -9 70 -6 24 -8 16
-11 -39z"/>
<path d="M5500 1090 c0 -16 5 -30 10 -30 6 0 10 14 10 30 0 17 -4 30 -10 30
-5 0 -10 -13 -10 -30z"/>
<path d="M6250 1081 c0 -17 5 -31 10 -31 6 0 10 11 10 24 0 14 -4 28 -10 31
-6 4 -10 -7 -10 -24z"/>
<path d="M5500 1000 c0 -16 5 -30 10 -30 6 0 10 14 10 30 0 17 -4 30 -10 30
-5 0 -10 -13 -10 -30z"/>
<path d="M6244 990 c1 -40 26 -40 26 0 0 19 -5 30 -14 30 -8 0 -13 -11 -12
-30z"/>
<path d="M5502 910 c1 -16 5 -30 10 -30 4 0 8 14 8 30 0 17 -4 30 -9 30 -5 0
-9 -13 -9 -30z"/>
<path d="M6248 895 c-5 -25 3 -40 16 -28 9 10 7 53 -3 53 -5 0 -11 -11 -13
-25z"/>
<path d="M5500 814 c0 -21 4 -33 10 -29 6 3 10 19 10 36 0 16 -4 29 -10 29 -5
0 -10 -16 -10 -36z"/>
<path d="M6248 835 c-8 -8 4 -65 13 -65 12 0 12 57 0 64 -4 3 -10 3 -13 1z"/>
<path d="M5500 724 c0 -21 4 -33 10 -29 6 3 10 19 10 36 0 16 -4 29 -10 29 -5
0 -10 -16 -10 -36z"/>
<path d="M6243 710 c0 -37 21 -34 25 3 2 18 -1 27 -11 27 -9 0 -14 -11 -14
-30z"/>
<path d="M5500 630 c0 -16 5 -30 10 -30 6 0 10 14 10 30 0 17 -4 30 -10 30 -5
0 -10 -13 -10 -30z"/>
<path d="M6250 630 c0 -11 0 -23 0 -27 0 -5 5 -9 10 -11 6 -2 10 10 10 27 0
17 -4 31 -10 31 -5 0 -10 -9 -10 -20z"/>
<path d="M5504 554 c3 -9 6 -20 6 -25 0 -5 5 -9 10 -9 6 0 10 11 10 25 0 16
-6 25 -16 25 -11 0 -14 -5 -10 -16z"/>
<path d="M5666 544 c-9 -23 -8 -24 23 -24 16 0 31 6 34 15 5 11 1 12 -18 5
-19 -7 -23 -6 -18 5 3 8 1 15 -5 15 -5 0 -13 -7 -16 -16z"/>
<path d="M5580 535 c0 -8 5 -15 10 -15 6 0 10 7 10 15 0 8 -4 15 -10 15 -5 0
-10 -7 -10 -15z"/>
<path d="M5616 541 c-4 -7 -5 -15 -2 -18 9 -9 19 4 14 18 -4 11 -6 11 -12 0z"/>
<path d="M5760 535 c0 -8 4 -15 9 -15 5 0 11 7 15 15 3 9 0 15 -9 15 -8 0 -15
-7 -15 -15z"/>
<path d="M5796 541 c-4 -7 -5 -15 -2 -18 9 -9 19 4 14 18 -4 11 -6 11 -12 0z"/>
<path d="M5850 535 c0 -8 7 -15 15 -15 8 0 15 7 15 15 0 8 -7 15 -15 15 -8 0
-15 -7 -15 -15z"/>
<path d="M5890 534 c0 -8 5 -12 10 -9 6 3 10 10 10 16 0 5 -4 9 -10 9 -5 0
-10 -7 -10 -16z"/>
<path d="M5940 536 c0 -8 11 -13 25 -13 14 0 25 5 25 11 0 6 -11 13 -25 14
-15 1 -25 -3 -25 -12z"/>
<path d="M6032 538 c6 -18 28 -21 28 -4 0 9 -7 16 -16 16 -9 0 -14 -5 -12 -12z"/>
<path d="M6070 535 c0 -8 5 -15 10 -15 6 0 10 7 10 15 0 8 -4 15 -10 15 -5 0
-10 -7 -10 -15z"/>
<path d="M6120 535 c0 -8 9 -15 20 -15 11 0 20 7 20 15 0 8 -9 15 -20 15 -11
0 -20 -7 -20 -15z"/>
<path d="M6170 534 c0 -8 5 -12 10 -9 6 3 10 10 10 16 0 5 -4 9 -10 9 -5 0
-10 -7 -10 -16z"/>
<path d="M6220 535 c0 -10 8 -14 22 -12 32 5 35 27 4 27 -16 0 -26 -6 -26 -15z"/>
<path d="M7500 915 l0 -675 794 0 794 0 49 36 c26 20 75 62 108 93 33 32 96
88 140 127 120 104 254 242 294 303 72 108 43 203 -109 360 -78 81 -347 320
-430 382 l-48 36 -413 6 c-228 4 -586 7 -796 7 l-383 1 0 -676z m1615 623 c55
-39 395 -341 453 -401 74 -79 124 -159 129 -210 7 -61 -28 -125 -124 -227 -84
-90 -399 -374 -459 -415 l-37 -25 -778 0 -779 0 0 650 0 649 73 4 c39 2 390 3
778 3 l706 -1 38 -27z"/>
<path d="M7790 910 l0 -510 510 0 510 0 0 510 0 510 -510 0 -510 0 0 -510z
m968 3 l-3 -458 -457 -3 -458 -2 0 460 0 460 460 0 460 0 -2 -457z"/>
<path d="M8263 1043 c-11 -2 -37 -20 -57 -39 -62 -60 -58 -134 11 -194 45 -40
117 -43 161 -5 40 34 65 88 57 126 -9 39 -51 89 -92 105 -33 14 -40 15 -80 7z"/>
</g>
</svg>
