<?xml version="1.0" standalone="no"?>
<!DOCTYPE svg PUBLIC "-//W3C//DTD SVG 20010904//EN"
 "http://www.w3.org/TR/2001/REC-SVG-20010904/DTD/svg10.dtd">
<svg version="1.0" xmlns="http://www.w3.org/2000/svg"
 width="996.000000pt" height="922.000000pt" viewBox="0 0 996.000000 922.000000"
 preserveAspectRatio="xMidYMid meet">
<metadata>
Created by potrace 1.16, written by Peter Selinger 2001-2019
</metadata>
<g transform="translate(0.000000,922.000000) scale(0.100000,-0.100000)"
fill="#FFFFFF" stroke="none">
<path d="M256 8877 c-8 -158 -8 -4546 1 -4694 l6 -113 2939 0 2938 0 0 2465 0
2465 -2938 0 -2939 0 -7 -123z m5864 -2342 l0 -2445 -2920 0 -2920 0 0 2445 0
2445 2920 0 2920 0 0 -2445z"/>
<path d="M2370 7995 l0 -495 494 0 495 0 -2 493 -2 492 -492 3 -493 2 0 -495z
m968 -2 l2 -473 -475 0 -475 0 0 475 0 475 473 -2 472 -3 3 -472z"/>
<path d="M2800 8180 l0 -130 -130 0 -130 0 0 -55 0 -55 130 0 130 0 0 -130 0
-130 60 0 60 0 0 130 0 130 130 0 130 0 0 55 0 55 -130 0 -130 0 0 130 0 130
-60 0 -60 0 0 -130z"/>
<path d="M4360 8479 c-117 -19 -255 -110 -323 -212 -61 -91 -80 -164 -75 -293
3 -105 5 -114 42 -190 103 -208 320 -318 538 -273 275 57 452 337 383 604 -48
181 -207 330 -390 364 -67 12 -97 12 -175 0z m176 -20 c216 -39 384 -240 384
-458 0 -239 -165 -433 -404 -474 -138 -23 -303 31 -399 132 -107 112 -141 202
-135 359 3 95 7 115 36 175 61 131 206 243 343 266 76 12 107 12 175 0z"/>
<path d="M4300 8305 c0 -2 16 -33 35 -67 19 -35 41 -91 49 -125 13 -58 13 -63
-2 -63 -33 0 -126 29 -181 57 -30 15 -59 30 -63 31 -5 2 -8 -62 -8 -142 0 -80
2 -146 5 -146 3 0 29 12 58 26 65 33 153 64 183 64 22 0 22 0 8 -60 -14 -62
-55 -154 -74 -165 -5 -3 -10 -13 -10 -21 0 -11 26 -14 150 -14 83 0 150 2 150
5 0 2 -13 25 -30 51 -29 46 -52 108 -65 172 -6 27 -4 32 12 32 38 0 125 -29
178 -59 30 -17 57 -31 60 -31 3 0 5 66 5 146 0 80 -3 144 -7 142 -110 -55
-146 -69 -190 -79 -29 -7 -56 -10 -59 -6 -11 11 27 133 62 194 l35 63 -151 0
c-82 0 -150 -2 -150 -5z"/>
<path d="M795 8469 c-9 -13 6 -30 193 -220 l154 -156 -37 -28 c-20 -16 -58
-36 -83 -44 -26 -9 -49 -20 -52 -25 -3 -5 13 -14 36 -21 23 -7 62 -27 89 -45
l47 -32 -171 -172 c-161 -162 -186 -195 -160 -211 6 -4 89 70 188 169 l177
176 36 -62 c20 -35 41 -75 47 -90 14 -38 23 -35 44 16 10 24 32 62 49 85 l31
42 172 -170 c94 -94 177 -171 183 -171 7 0 15 7 19 16 4 10 -45 67 -162 185
-167 169 -168 169 -149 190 24 27 114 79 137 79 31 0 18 15 -30 33 -26 10 -69
32 -96 49 l-49 31 178 178 c126 126 175 182 171 193 -4 9 -11 16 -18 16 -6 0
-88 -76 -183 -170 -95 -93 -177 -170 -182 -170 -12 0 -58 77 -75 126 -18 55
-27 61 -34 28 -11 -47 -24 -77 -54 -123 l-29 -44 -180 177 c-98 97 -184 176
-190 176 -6 0 -14 -5 -17 -11z"/>
<path d="M800 7005 c-11 -14 15 -44 186 -215 l198 -200 -112 0 -112 0 0 -60 0
-60 108 0 107 0 -187 -192 c-103 -106 -187 -201 -188 -210 -1 -43 47 -6 220
172 102 105 188 190 192 190 4 0 9 -48 10 -107 l3 -108 55 0 55 0 5 108 5 107
190 -190 c178 -178 225 -214 225 -173 0 9 -88 105 -195 212 l-194 196 115 -3
115 -3 -3 58 -3 58 -110 3 -110 2 193 195 c105 107 192 202 192 210 0 37 -47
1 -228 -176 l-191 -186 -3 106 -3 106 -57 3 -58 3 0 -113 0 -112 -198 197
c-109 108 -201 197 -204 197 -3 0 -11 -7 -18 -15z"/>
<path d="M2368 6534 c-2 -267 -1 -488 1 -490 2 -2 226 -4 498 -4 l493 0 -2
488 -3 487 -492 3 -493 2 -2 -486z m972 -4 l0 -470 -475 0 -475 0 0 470 0 470
475 0 475 0 0 -470z"/>
<path d="M2710 6846 c0 -3 15 -31 34 -63 19 -32 39 -76 44 -98 24 -99 24 -95
-2 -95 -39 0 -150 38 -190 65 -21 14 -42 23 -47 20 -11 -7 -12 -265 -1 -283 7
-9 18 -6 48 14 43 29 118 57 177 67 36 6 37 5 31 -21 -18 -82 -38 -141 -60
-174 -13 -21 -24 -42 -24 -46 0 -14 151 -25 225 -17 l63 7 -34 67 c-35 66 -64
174 -51 187 10 11 162 -42 205 -71 20 -14 40 -25 44 -25 5 0 8 68 8 150 0 83
-3 150 -6 150 -3 0 -24 -11 -48 -25 -46 -27 -110 -51 -170 -65 l-39 -8 6 51
c4 30 23 84 44 127 21 41 40 78 41 83 2 4 -64 7 -147 7 -83 0 -151 -2 -151 -4z"/>
<path d="M4310 7004 c-121 -33 -247 -140 -307 -262 -35 -70 -37 -80 -41 -190
-3 -99 0 -126 17 -176 71 -200 259 -336 466 -336 137 0 246 44 344 140 124
120 174 278 141 450 -24 125 -136 277 -245 332 -114 58 -256 74 -375 42z m279
-23 c83 -26 137 -60 198 -123 141 -150 172 -357 82 -545 -13 -27 -51 -76 -85
-111 -234 -235 -621 -170 -763 127 -33 70 -36 85 -39 183 -6 157 26 245 126
347 59 60 134 105 212 127 70 19 199 17 269 -5z"/>
<path d="M4430 6813 c-41 -126 -123 -213 -242 -258 -27 -10 -48 -20 -48 -24 0
-3 30 -19 66 -35 81 -36 165 -123 206 -213 15 -35 30 -63 33 -63 2 0 18 27 36
60 40 75 157 188 227 220 29 13 52 26 52 29 0 3 -29 19 -64 34 -96 43 -158
103 -206 200 -23 45 -43 83 -45 85 -1 2 -9 -14 -15 -35z"/>
<path d="M3655 5728 c-3 -7 -4 -310 -3 -673 l3 -660 796 0 795 0 35 29 c218
182 496 450 549 528 56 84 60 122 18 200 -52 98 -183 227 -552 546 l-49 42
-794 0 c-626 0 -795 -3 -798 -12z m1736 -134 c316 -278 396 -359 448 -461 11
-23 21 -52 21 -64 0 -75 -131 -226 -403 -467 -104 -92 -200 -173 -213 -180
-18 -9 -191 -12 -796 -10 l-773 3 -3 640 c-1 352 0 646 3 653 3 9 170 12 788
12 l783 0 145 -126z"/>
<path d="M2370 5070 l0 -490 475 -2 c261 -1 483 -2 493 -2 16 -1 17 29 17 489
l0 490 -492 3 -493 2 0 -490z m970 -2 l0 -473 -472 2 -473 2 -3 471 -2 470
475 0 475 0 0 -472z"/>
<path d="M2836 5328 c-24 -68 -63 -125 -115 -166 -50 -40 -132 -82 -160 -82
-12 0 -21 -4 -21 -10 0 -5 7 -10 16 -10 8 0 39 -11 69 -25 72 -35 158 -129
203 -223 l35 -74 18 46 c9 25 31 65 48 88 44 60 146 146 206 173 42 19 47 24
30 30 -121 43 -217 127 -268 236 -18 38 -34 69 -37 69 -3 0 -14 -24 -24 -52z"/>
<path d="M800 5530 c0 -14 64 -86 191 -215 l191 -194 -78 30 c-44 16 -91 38
-106 49 -15 11 -30 20 -33 20 -3 0 -5 -67 -5 -150 0 -95 4 -150 10 -150 6 0
27 11 48 25 39 26 114 55 140 55 9 0 -68 -85 -171 -189 -126 -126 -187 -195
-187 -210 0 -11 6 -21 13 -21 7 0 100 88 207 195 107 107 195 193 197 191 6
-6 -38 -121 -62 -162 -14 -23 -25 -45 -25 -48 0 -3 65 -6 145 -6 80 0 145 3
145 6 0 3 -15 38 -34 77 -67 140 -61 144 55 32 57 -55 143 -139 190 -187 82
-83 129 -110 129 -74 0 7 -88 100 -195 206 -107 107 -193 195 -192 196 7 7
106 -29 155 -57 30 -17 57 -28 60 -24 10 9 15 199 7 250 l-6 46 -32 -21 c-40
-26 -88 -48 -146 -66 -43 -13 -38 -6 152 185 108 108 197 203 197 209 0 7 -7
15 -16 19 -11 4 -71 -49 -210 -188 -107 -107 -194 -189 -194 -183 0 21 37 119
59 154 11 19 21 38 21 43 0 4 -65 7 -145 7 -80 0 -145 -2 -145 -5 0 -3 13 -26
29 -52 27 -45 66 -153 55 -153 -3 0 -91 84 -195 188 -104 103 -196 188 -204
190 -10 2 -15 -4 -15 -18z"/>
<path d="M6360 6046 l0 -266 115 0 c162 0 206 11 254 66 48 54 66 116 65 216
-2 105 -35 176 -102 215 -44 26 -56 28 -189 32 l-143 3 0 -266z m288 177 c55
-41 67 -68 70 -164 3 -75 1 -95 -18 -134 -29 -61 -61 -75 -176 -82 l-94 -6 0
200 c0 110 3 203 8 207 4 5 47 6 96 3 66 -3 95 -9 114 -24z"/>
<path d="M6850 6025 c0 -12 14 -15 64 -15 l64 0 -39 -77 c-21 -43 -41 -95 -44
-115 -5 -34 -3 -38 15 -38 15 0 20 7 20 28 1 39 23 95 64 162 20 32 36 61 36
64 0 3 -40 6 -90 6 -73 0 -90 -3 -90 -15z"/>
<path d="M929 3811 c-46 -40 -48 -63 -4 -43 l25 12 0 -80 c0 -79 0 -80 25 -80
l25 0 0 115 c0 133 -3 136 -71 76z"/>
<path d="M3322 3830 c-12 -12 -22 -27 -22 -35 0 -20 29 -19 51 1 10 9 25 14
34 11 23 -9 18 -41 -11 -68 -31 -28 -84 -98 -84 -111 0 -4 36 -8 80 -8 73 0
80 2 80 20 0 17 -7 20 -47 20 l-47 0 36 38 c45 46 62 86 48 112 -23 43 -83 53
-118 20z"/>
<path d="M5742 3834 c-24 -17 -30 -54 -8 -54 7 0 19 7 26 15 15 18 36 19 46 3
4 -6 -5 -21 -21 -34 l-29 -23 26 -10 c27 -10 44 -43 33 -61 -9 -15 -41 -12
-55 5 -16 19 -29 19 -37 0 -9 -25 26 -55 64 -55 62 0 96 68 56 112 -13 14 -14
21 -5 30 31 31 -4 88 -53 88 -11 0 -31 -7 -43 -16z"/>
<path d="M8170 3778 c-65 -92 -65 -105 0 -114 40 -5 50 -10 50 -25 0 -24 29
-25 37 -1 3 9 13 25 21 34 13 16 13 18 -2 24 -11 4 -16 19 -16 49 0 62 -11
105 -26 105 -7 0 -36 -32 -64 -72z m46 -43 c-5 -26 -12 -35 -26 -35 -26 0 -25
14 2 50 26 36 33 32 24 -15z"/>
<path d="M369 3543 l-106 -4 -6 -121 c-9 -157 -9 -939 0 -1096 l6 -122 793 0
793 0 90 78 c405 347 541 498 541 599 0 52 -69 153 -180 263 -104 104 -347
320 -418 372 l-37 26 -685 4 c-377 3 -733 3 -791 1z m1454 -22 c22 -5 59 -28
90 -55 29 -26 93 -81 142 -123 160 -137 275 -247 314 -298 56 -74 91 -139 91
-166 0 -50 -49 -128 -141 -227 -94 -100 -323 -309 -426 -389 l-55 -43 -779 0
-779 0 0 649 0 650 53 4 c114 8 1454 6 1490 -2z"/>
<path d="M602 3348 c-7 -7 -12 -17 -12 -23 0 -5 85 -95 190 -200 104 -104 188
-190 186 -192 -6 -6 -117 37 -161 62 -25 15 -45 25 -45 23 -7 -55 -10 -299 -4
-297 5 2 43 21 84 41 156 77 151 67 -57 -143 -106 -107 -193 -202 -193 -212 0
-26 35 -21 62 11 13 15 99 101 192 192 184 181 193 183 117 28 l-38 -77 51 -6
c69 -9 242 -1 237 11 -2 5 -13 29 -26 54 -13 25 -30 70 -39 100 l-16 55 192
-192 c106 -106 201 -193 210 -193 9 0 20 5 24 11 3 6 -80 98 -192 211 -180
181 -196 199 -164 193 19 -4 67 -24 105 -44 39 -20 73 -37 78 -39 4 -2 7 65 7
148 0 83 -3 150 -7 148 -5 -1 -42 -20 -83 -40 -156 -76 -152 -66 63 150 108
109 197 204 197 211 0 6 -10 11 -22 11 -16 0 -80 -57 -216 -192 -210 -209
-220 -213 -144 -58 20 41 39 78 40 83 2 4 -64 7 -147 7 -83 0 -151 -3 -151 -8
0 -4 12 -24 26 -45 14 -21 37 -71 50 -110 l24 -72 -203 203 c-159 159 -205
200 -215 190z"/>
<path d="M2674 3541 c-2 -2 -4 -305 -4 -673 l0 -668 800 0 799 0 228 204 c361
323 433 428 373 545 -31 63 -115 160 -213 250 -138 126 -317 283 -361 316
l-39 30 -790 0 c-434 0 -791 -2 -793 -4z m1603 -32 c64 -49 343 -299 419 -374
98 -97 150 -166 171 -229 13 -37 13 -43 -16 -100 -17 -34 -64 -97 -106 -144
-68 -73 -382 -360 -459 -420 l-29 -22 -783 0 -784 0 0 650 0 650 263 2 c144 2
497 3 784 2 431 0 525 -3 540 -15z"/>
<path d="M3338 3341 c-80 -26 -146 -71 -221 -151 -179 -189 -165 -483 31 -673
112 -107 206 -143 361 -134 118 6 186 30 273 97 81 62 134 133 165 218 66 181
27 362 -110 508 -69 74 -121 108 -208 135 -80 25 -213 25 -291 0z m291 -20
c233 -72 377 -330 316 -564 -32 -123 -95 -211 -199 -279 -240 -156 -559 -70
-680 182 -94 195 -60 402 90 545 103 98 189 133 331 134 53 1 102 -5 142 -18z"/>
<path d="M3476 3178 c-43 -146 -134 -247 -258 -284 -58 -18 -76 -34 -38 -34
74 0 218 -126 270 -237 17 -35 32 -63 34 -63 2 0 14 21 27 47 35 72 160 197
230 230 54 26 73 43 48 43 -27 0 -124 56 -172 100 -48 44 -117 155 -117 188 0
17 -20 25 -24 10z"/>
<path d="M5086 3543 c-3 -4 -6 -307 -6 -675 l0 -668 803 0 802 1 55 50 c30 28
100 89 155 137 288 249 415 398 415 487 0 39 -41 112 -107 189 -67 80 -438
415 -500 452 l-41 25 -785 4 c-432 2 -788 1 -791 -2z m1517 -20 c84 -7 97 -15
300 -196 269 -239 387 -377 387 -454 0 -80 -138 -243 -380 -448 -58 -49 -133
-115 -167 -147 l-61 -58 -791 0 -791 0 0 650 0 649 133 4 c244 6 1301 6 1370
0z"/>
<path d="M5400 2870 l0 -490 498 0 497 0 -2 488 -1 487 -496 3 -496 2 0 -490z
m975 0 l0 -470 -477 0 -478 0 0 470 0 470 478 0 477 0 0 -470z"/>
<path d="M5880 3143 c-18 -57 -67 -129 -117 -173 -48 -42 -136 -90 -165 -90
-10 0 -18 -4 -18 -10 0 -5 8 -10 18 -10 31 0 116 -47 156 -85 41 -41 119 -155
130 -192 4 -13 10 -23 14 -23 4 0 22 29 41 65 41 80 139 173 222 213 32 15 58
29 58 32 1 3 -21 13 -47 22 -108 39 -218 149 -252 254 -15 44 -26 43 -40 -3z"/>
<path d="M7506 3542 c-3 -3 -6 -306 -6 -674 l0 -668 798 2 799 3 66 55 c235
196 456 409 514 496 65 99 53 174 -49 303 -44 54 -444 414 -509 458 l-37 24
-785 4 c-432 2 -788 1 -791 -3z m1590 -29 c40 -23 410 -350 475 -420 73 -78
121 -156 126 -207 7 -61 -29 -124 -136 -238 -90 -96 -361 -341 -438 -395 l-45
-33 -779 0 -779 0 0 650 0 649 103 4 c56 2 406 3 777 3 513 -1 680 -4 696 -13z"/>
<path d="M7820 2870 l0 -490 495 0 495 0 0 490 0 490 -495 0 -495 0 0 -490z
m970 0 l0 -470 -475 0 -475 0 0 470 0 470 475 0 475 0 0 -470z"/>
<path d="M8260 3060 l0 -130 -130 0 -130 0 0 -60 0 -60 130 0 130 0 0 -125 0
-125 55 0 55 0 0 125 0 125 130 0 130 0 0 60 0 60 -130 0 -130 0 0 130 0 130
-55 0 -55 0 0 -130z"/>
<path d="M3333 1846 c-25 -22 -28 -31 -28 -88 0 -83 21 -118 70 -118 46 0 75
29 75 75 0 49 -31 79 -76 72 -37 -6 -43 3 -18 27 18 18 40 21 49 6 11 -17 35
-11 35 10 0 43 -65 52 -107 16z m75 -141 c-2 -14 -11 -20 -28 -20 -32 0 -41
42 -14 62 16 12 21 11 32 -4 7 -10 11 -27 10 -38z"/>
<path d="M5770 1863 c-25 -2 -51 -6 -59 -9 -26 -9 3 -24 51 -25 l45 -2 -29
-63 c-37 -79 -41 -118 -12 -122 19 -3 23 3 28 42 4 25 23 74 42 111 25 47 31
65 20 65 -8 0 -20 1 -28 3 -7 2 -33 2 -58 0z"/>
<path d="M8155 1846 c-22 -22 -23 -28 -13 -56 8 -23 7 -35 -1 -43 -16 -16 -14
-59 5 -85 23 -33 86 -31 113 4 25 32 26 40 6 78 -11 20 -12 33 -5 40 17 17 11
54 -12 70 -32 23 -65 20 -93 -8z m71 -27 c8 -14 -21 -43 -35 -35 -6 4 -11 16
-11 27 0 21 34 27 46 8z m4 -98 c14 -28 -13 -55 -41 -41 -19 10 -26 40 -12 53
13 14 43 7 53 -12z"/>
<path d="M906 1838 c-3 -13 -8 -40 -11 -62 -6 -38 -6 -38 22 -31 55 15 68 12
71 -18 2 -16 -2 -35 -9 -43 -10 -13 -15 -13 -35 1 -29 19 -54 19 -54 2 0 -42
92 -64 123 -29 23 25 30 67 16 94 -16 30 -28 38 -61 38 -48 0 -35 28 14 32 31
2 44 8 46 21 3 15 -5 17 -57 17 -55 0 -61 -2 -65 -22z"/>
<path d="M257 1412 c-8 -259 -9 -893 -1 -1043 l7 -129 794 0 794 0 83 73 c312
269 479 435 516 512 37 76 37 107 0 172 -18 32 -48 77 -66 100 -52 63 -453
426 -519 469 -28 18 -59 19 -815 21 l-787 3 -6 -178z m1566 149 c22 -5 59 -28
90 -55 29 -26 104 -91 167 -145 243 -207 380 -367 380 -442 0 -96 -157 -268
-559 -612 l-55 -47 -781 0 -782 0 -7 275 c-3 151 -3 443 0 649 l7 376 276 3
c689 7 1229 6 1264 -2z"/>
<path d="M910 1382 c-75 -25 -107 -43 -172 -96 -173 -141 -225 -394 -123 -596
33 -66 142 -180 202 -212 79 -43 165 -61 270 -56 78 4 102 10 165 40 78 37
184 127 223 188 59 95 86 236 66 345 -28 150 -141 295 -281 363 -70 33 -82 36
-185 39 -86 2 -122 -1 -165 -15z m289 -21 c310 -96 431 -488 230 -743 -46 -57
-162 -135 -237 -158 -176 -55 -378 4 -493 142 -134 161 -155 357 -57 539 54
102 183 202 296 228 68 16 196 12 261 -8z"/>
<path d="M1000 1100 l0 -130 -130 0 -130 0 0 -60 0 -60 130 0 129 0 3 -127 3
-128 52 0 53 0 0 105 c0 161 -10 150 136 150 l124 0 0 60 0 60 -125 0 c-112 0
-125 2 -126 18 -1 9 -2 67 -3 127 l-1 110 -57 3 -58 3 0 -131z"/>
<path d="M2670 916 l0 -676 799 0 800 0 148 133 c81 72 170 150 197 172 68 55
223 230 248 279 47 92 40 134 -41 241 -63 83 -387 386 -521 487 l-35 26 -797
7 -798 6 0 -675z m1548 647 c51 -5 59 -11 185 -121 320 -280 426 -391 463
-490 17 -42 17 -42 -15 -107 -25 -50 -61 -95 -154 -189 -117 -117 -344 -324
-410 -373 l-31 -23 -783 0 -783 0 0 650 0 649 78 4 c126 6 1393 6 1450 0z"/>
<path d="M2980 910 l0 -490 490 0 490 0 0 490 0 490 -490 0 -490 0 0 -490z
m707 253 l-217 -218 -217 218 -218 217 435 0 435 0 -218 -217z m-470 -470
l-217 -218 0 435 0 435 217 -218 218 -217 -218 -217z m723 215 l0 -433 -217
217 -218 218 215 215 c118 118 216 215 217 215 2 0 3 -195 3 -432z m-31 -465
c2 -2 -194 -3 -437 -3 l-442 0 217 218 218 217 220 -215 c121 -118 222 -216
224 -217z"/>
<path d="M5085 1581 c-3 -2 -5 -305 -5 -673 l0 -668 803 0 802 1 55 50 c30 28
114 101 185 163 244 212 385 380 385 460 0 40 -41 112 -107 191 -58 69 -421
400 -497 453 l-39 27 -789 0 c-434 1 -791 -1 -793 -4z m1600 -33 c46 -25 368
-312 466 -416 87 -91 139 -174 139 -222 0 -73 -141 -242 -353 -422 -73 -61
-160 -138 -194 -170 l-61 -58 -791 0 -791 0 0 650 0 650 238 3 c130 1 480 3
777 2 484 0 543 -2 570 -17z"/>
<path d="M5403 1384 c-4 -11 12 -34 54 -76 l60 -60 -41 -61 c-49 -74 -75 -148
-83 -237 -9 -107 30 -243 93 -326 l35 -46 -60 -60 c-34 -33 -61 -66 -61 -74 0
-29 36 -12 91 42 l57 57 61 -41 c94 -62 147 -77 276 -76 126 1 194 20 276 79
27 19 53 35 57 35 4 0 32 -25 62 -55 57 -58 74 -66 84 -38 5 12 -10 34 -51 75
-50 50 -56 61 -45 76 98 138 131 277 98 417 -16 67 -57 152 -98 204 l-19 25
63 63 c57 58 61 64 46 79 -14 15 -21 11 -75 -46 l-59 -62 -64 41 c-97 63 -180
85 -299 79 -111 -6 -187 -31 -258 -85 l-46 -35 -51 50 c-65 63 -94 79 -103 56z
m628 -24 c35 -11 88 -36 117 -55 l53 -36 -152 -157 c-83 -86 -154 -158 -158
-160 -3 -1 -76 68 -161 153 l-154 154 20 22 c76 84 292 124 435 79z m-337
-603 l-159 -156 -23 22 c-33 31 -78 131 -93 205 -23 118 8 262 77 356 l36 49
160 -160 160 -160 -158 -156z m612 367 c51 -104 65 -201 43 -306 -12 -58 -57
-158 -88 -198 l-20 -25 -161 160 -160 160 157 158 158 158 23 -28 c12 -15 34
-51 48 -79z m-127 -583 c-13 -12 -58 -38 -99 -59 -74 -37 -76 -37 -195 -37
-117 0 -122 1 -195 36 -41 20 -86 45 -100 57 l-25 21 160 160 160 161 159
-160 160 -159 -25 -20z"/>
<path d="M7500 915 l0 -675 793 0 794 0 41 30 c23 16 72 58 109 92 37 35 88
81 113 102 96 82 303 293 333 341 26 41 32 60 32 105 0 104 -84 208 -374 461
-238 208 -233 205 -337 212 -49 4 -407 7 -796 7 l-708 0 0 -675z m1607 630
c38 -24 307 -260 416 -364 43 -42 98 -105 123 -142 91 -132 72 -191 -119 -383
-131 -131 -351 -329 -412 -370 l-38 -26 -778 0 -779 0 0 649 c0 510 3 650 13
654 6 3 356 4 777 3 747 -1 766 -1 797 -21z"/>
<path d="M8165 1386 c-113 -36 -239 -132 -292 -224 -114 -194 -75 -455 92
-611 69 -64 120 -92 210 -116 309 -80 615 154 615 470 0 217 -134 406 -337
474 -72 24 -222 28 -288 7z m327 -43 c89 -42 132 -76 180 -141 62 -84 90 -162
96 -268 11 -202 -80 -354 -266 -446 -72 -36 -93 -42 -165 -46 -150 -8 -269 35
-369 131 -102 98 -159 264 -138 401 23 157 123 293 263 360 90 43 99 45 227
42 95 -1 111 -4 172 -33z"/>
<path d="M8150 1227 c0 -2 18 -38 39 -79 36 -69 59 -151 50 -176 -8 -21 -205
48 -224 78 -3 5 -13 10 -21 10 -11 0 -14 -25 -14 -144 0 -80 4 -147 9 -151 6
-3 29 8 53 24 41 29 186 77 197 66 11 -12 -23 -134 -52 -187 -17 -31 -28 -60
-25 -63 11 -11 200 -17 245 -8 l43 8 -29 44 c-32 47 -65 154 -59 188 l3 21 74
-19 c41 -10 95 -32 120 -49 33 -21 48 -26 53 -17 11 17 10 275 -1 282 -5 3
-26 -6 -47 -20 -31 -21 -91 -43 -196 -72 -15 -4 -17 1 -12 29 11 64 37 133 65
179 16 25 29 49 29 52 0 4 -67 7 -150 7 -82 0 -150 -1 -150 -3z"/>
</g>
</svg>
