<?xml version="1.0" standalone="no"?>
<!DOCTYPE svg PUBLIC "-//W3C//DTD SVG 20010904//EN"
 "http://www.w3.org/TR/2001/REC-SVG-20010904/DTD/svg10.dtd">
<svg version="1.0" xmlns="http://www.w3.org/2000/svg"
 width="996.000000pt" height="922.000000pt" viewBox="0 0 996.000000 922.000000"
 preserveAspectRatio="xMidYMid meet">
<metadata>
Created by potrace 1.16, written by Peter Selinger 2001-2019
</metadata>
<g transform="translate(0.000000,922.000000) scale(0.100000,-0.100000)"
fill="#FFFFFF" stroke="none">
<path d="M256 8798 c-4 -112 -6 -1221 -6 -2465 l1 -2263 2945 0 2944 0 0 2465
0 2465 -2938 0 -2939 0 -7 -202z m5864 -2263 l0 -2445 -2918 0 -2919 0 -6 113
c-9 149 -9 4371 -1 4600 l7 177 2919 0 2918 0 0 -2445z"/>
<path d="M782 7998 l3 -493 493 -3 492 -2 0 495 0 495 -495 0 -495 0 2 -492z
m968 -3 l0 -475 -475 0 -475 0 0 475 0 475 475 0 475 0 0 -475z"/>
<path d="M2765 8479 c-93 -19 -186 -72 -257 -147 -97 -103 -138 -202 -138
-338 0 -135 55 -258 160 -357 127 -121 272 -161 438 -122 196 46 336 192 378
395 47 228 -95 472 -322 550 -70 25 -189 33 -259 19z m151 -20 c6 -11 -502
-529 -519 -529 -5 0 -7 35 -5 78 l4 77 185 184 c125 125 194 186 214 191 46
12 113 11 121 -1z m110 -20 l57 -21 -319 -319 c-175 -175 -321 -316 -325 -313
-5 3 -16 29 -26 60 l-17 55 275 278 c151 153 279 279 286 279 7 1 38 -8 69
-19z m-456 -154 c-91 -91 -166 -165 -168 -165 -6 0 31 79 61 129 40 67 114
131 197 170 36 17 67 31 70 31 3 0 -69 -74 -160 -165z m578 88 c18 -14 32 -29
30 -34 -2 -5 -151 -157 -332 -338 l-329 -330 -21 26 c-54 68 -76 37 277 388
177 177 327 319 332 316 6 -2 25 -15 43 -28z m91 -93 l34 -50 -305 -302 c-167
-167 -311 -314 -320 -327 l-17 -23 -45 33 c-25 18 -46 37 -46 43 0 9 647 670
660 674 3 1 20 -20 39 -48z m61 -112 c11 -24 20 -50 20 -58 0 -9 -127 -142
-282 -298 l-283 -282 -47 16 c-26 8 -51 20 -54 26 -5 8 611 638 624 638 2 0
12 -19 22 -42z m35 -208 c-6 -42 -18 -56 -200 -239 l-193 -194 -81 -5 c-44 -2
-81 -3 -81 0 0 2 123 126 273 276 l272 272 8 -32 c5 -18 6 -53 2 -78z m-30
-131 c-38 -106 -133 -210 -238 -259 -34 -17 -68 -30 -76 -30 -8 0 62 75 155
168 93 92 170 167 172 166 1 0 -5 -21 -13 -45z"/>
<path d="M4202 8247 c-133 -133 -242 -247 -242 -252 0 -6 110 -120 245 -255
l245 -245 248 248 247 247 -250 250 -250 250 -243 -243z"/>
<path d="M1022 6777 l-244 -243 243 -247 c133 -136 247 -247 253 -247 6 0 121
110 256 245 l246 245 -246 245 c-135 135 -250 245 -255 245 -5 0 -119 -109
-253 -243z m279 207 c11 -13 -19 -47 -221 -249 -129 -129 -231 -238 -227 -242
4 -4 113 99 242 228 l235 235 42 -43 42 -43 -238 -236 -238 -237 -64 64 c-35
35 -64 66 -64 70 0 11 456 469 467 469 6 0 16 -7 24 -16z m199 -208 c0 -6
-104 -115 -232 -243 l-232 -233 -43 42 -43 43 237 237 238 238 37 -37 c21 -20
38 -42 38 -47z m65 -56 l39 -40 -237 -238 -237 -237 -42 43 -43 42 235 235
c129 129 237 235 240 235 3 0 24 -18 45 -40z m-97 -377 l-238 -238 -43 43 -42
42 235 238 235 237 45 -42 45 -43 -237 -237z m267 207 c19 -21 17 -23 -218
-257 -235 -234 -237 -236 -257 -218 -21 19 -19 20 212 255 128 130 236 238
239 238 3 1 14 -7 24 -18z"/>
<path d="M2370 6530 l0 -490 495 0 495 0 0 490 0 490 -495 0 -495 0 0 -490z"/>
<path d="M4310 7004 c-122 -33 -249 -141 -308 -264 -34 -70 -36 -82 -40 -190
-4 -108 -2 -120 23 -185 81 -204 252 -325 460 -325 139 0 248 45 349 145 71
70 110 137 131 226 40 172 -7 339 -130 465 -96 98 -209 144 -349 143 -45 0
-106 -7 -136 -15z m279 -23 c83 -26 137 -60 198 -123 141 -150 172 -357 82
-545 -37 -77 -135 -168 -226 -210 -148 -68 -319 -56 -458 35 -223 144 -277
467 -114 678 66 86 148 142 249 170 70 19 199 17 269 -5z"/>
<path d="M3655 5728 c-3 -7 -4 -310 -3 -673 l3 -660 796 0 796 0 81 70 c430
373 564 525 549 620 -8 48 -68 138 -151 224 -77 80 -361 335 -439 394 l-49 37
-789 0 c-623 0 -791 -3 -794 -12z m1605 -25 c30 -20 227 -192 369 -323 142
-130 231 -250 231 -311 0 -76 -125 -219 -410 -472 l-205 -182 -785 0 -785 0
-3 610 c-2 336 0 629 3 653 l6 42 777 0 c711 0 780 -1 802 -17z"/>
<path d="M1144 5541 c-198 -57 -334 -222 -359 -436 -14 -125 48 -286 148 -386
192 -193 497 -191 692 4 192 192 195 482 6 680 -70 74 -111 100 -205 132 -90
30 -191 32 -282 6z"/>
<path d="M2640 5340 c-118 -119 -229 -228 -246 -242 l-31 -24 243 -247 c134
-136 249 -247 256 -247 15 0 488 470 488 485 0 11 -482 496 -490 494 -3 -1
-102 -99 -220 -219z m457 -507 l-237 -238 -235 235 -235 235 237 238 238 237
235 -235 235 -235 -238 -237z"/>
<path d="M6360 6045 l0 -267 143 4 c156 4 184 13 231 69 47 55 59 97 60 194 0
80 -3 98 -28 148 -21 44 -38 63 -73 84 -43 25 -56 27 -190 31 l-143 5 0 -268z
m289 177 c54 -40 66 -68 69 -163 3 -74 1 -96 -17 -132 -30 -61 -64 -78 -176
-84 l-95 -6 0 200 c0 110 3 203 8 207 4 5 47 6 96 3 65 -4 97 -11 115 -25z"/>
<path d="M6886 6025 c-24 -25 -29 -54 -12 -80 13 -19 13 -25 2 -34 -23 -19
-28 -59 -12 -90 17 -32 34 -41 79 -41 66 1 97 55 66 116 -12 25 -16 41 -9 48
18 18 12 74 -9 86 -29 15 -87 12 -105 -5z m84 -20 c26 -32 -13 -81 -47 -59
-35 22 -23 74 17 74 10 0 23 -7 30 -15z m4 -111 c19 -18 21 -55 4 -72 -20 -20
-65 -14 -82 10 -20 29 -20 34 4 58 24 24 53 26 74 4z"/>
<path d="M8192 3808 c-91 -125 -92 -133 -28 -142 32 -5 47 -13 51 -27 8 -24
34 -25 42 -1 3 9 13 25 21 34 13 16 13 18 -2 24 -12 4 -16 19 -16 54 0 59 -10
110 -21 110 -5 0 -26 -24 -47 -52z m24 -73 c-5 -26 -12 -35 -26 -35 -26 0 -25
14 2 50 26 36 33 32 24 -15z"/>
<path d="M930 3814 c-48 -43 -51 -58 -10 -49 l30 7 0 -76 c0 -74 1 -76 25 -76
l25 0 0 115 c0 133 -5 138 -70 79z"/>
<path d="M3322 3830 c-12 -12 -22 -27 -22 -35 0 -20 29 -19 51 1 10 9 25 14
34 11 23 -9 18 -41 -11 -68 -31 -28 -84 -98 -84 -111 0 -4 36 -8 80 -8 73 0
80 2 80 20 0 17 -7 20 -40 20 -47 0 -49 8 -14 41 55 51 65 106 25 136 -25 19
-75 15 -99 -7z"/>
<path d="M5742 3834 c-12 -8 -22 -21 -22 -29 0 -23 20 -28 39 -11 10 9 23 16
29 16 23 0 22 -21 -3 -44 l-26 -24 28 -14 c20 -9 28 -21 28 -38 0 -30 -35 -40
-55 -15 -17 21 -40 19 -40 -3 0 -50 95 -73 124 -30 21 29 20 67 -1 90 -13 14
-14 21 -5 30 31 31 -4 88 -53 88 -11 0 -31 -7 -43 -16z"/>
<path d="M267 3543 c-4 -3 -7 -307 -7 -675 l0 -668 794 0 794 0 85 73 c286
243 480 435 517 513 12 24 24 61 27 82 7 57 -51 147 -177 272 -104 105 -343
317 -421 375 l-41 30 -782 2 c-431 2 -786 0 -789 -4z m1550 -22 c27 -5 58 -22
87 -47 24 -21 77 -68 118 -102 181 -157 312 -281 347 -327 56 -74 91 -139 91
-166 0 -76 -126 -231 -334 -413 -57 -50 -137 -121 -177 -157 -41 -36 -84 -71
-96 -78 -16 -8 -236 -11 -797 -11 l-776 0 0 650 0 649 73 4 c155 7 1424 6
1464 -2z"/>
<path d="M580 2870 l0 -490 490 0 490 0 0 490 0 490 -490 0 -490 0 0 -490z
m960 0 l0 -470 -470 0 -470 0 0 470 0 470 470 0 470 0 0 -470z"/>
<path d="M2670 2875 l0 -675 799 0 799 0 48 43 c396 348 484 437 548 547 47
84 34 138 -63 259 -63 79 -382 373 -501 463 l-35 26 -797 6 -798 5 0 -674z
m1558 648 c38 -5 62 -23 210 -151 302 -262 434 -413 434 -495 0 -57 -42 -123
-157 -246 -48 -52 -369 -343 -429 -389 l-29 -22 -783 0 -784 0 0 650 0 649 83
4 c134 6 1408 6 1455 0z"/>
<path d="M3330 3337 c-170 -57 -296 -204 -330 -381 -46 -244 129 -509 371
-565 195 -45 416 43 528 210 43 65 55 96 73 202 22 124 -27 292 -116 394 -51
58 -146 119 -223 143 -90 28 -216 26 -303 -3z m318 -23 l53 -17 -312 -313
c-172 -172 -310 -317 -306 -321 5 -4 148 133 320 306 l312 312 32 -17 c18 -9
40 -25 48 -34 15 -17 -6 -40 -309 -341 -179 -178 -326 -331 -326 -339 0 -8
149 134 332 317 182 183 335 330 340 327 5 -4 22 -23 37 -44 l28 -39 -325
-325 -325 -325 -41 29 c-71 49 -129 128 -167 229 l-20 55 273 273 c150 150
268 273 263 273 -5 0 -128 -118 -271 -261 l-262 -262 -7 33 c-4 18 -4 56 -1
84 7 52 8 54 184 230 98 98 184 182 192 187 22 15 197 4 258 -17z m-308 1 c0
-9 -274 -286 -293 -296 -17 -10 -17 -8 -2 28 43 104 117 185 215 238 64 34 80
40 80 30z m590 -287 l19 -54 -282 -283 c-308 -307 -283 -290 -366 -255 l-35
15 319 319 c175 176 321 318 322 316 2 -2 12 -28 23 -58z m29 -158 c0 -30 -4
-63 -7 -73 -4 -9 -91 -101 -192 -204 l-185 -187 -67 -4 c-37 -2 -74 -2 -82 1
-10 4 68 91 252 276 179 182 269 267 274 258 4 -6 7 -37 7 -67z m-33 -179
c-34 -96 -128 -193 -234 -244 -35 -16 -65 -27 -68 -24 -3 3 65 75 153 160 87
86 159 154 161 153 1 -2 -4 -22 -12 -45z"/>
<path d="M5085 3541 c-3 -2 -5 -305 -5 -673 l0 -668 803 0 802 0 96 88 c53 48
127 113 165 146 231 196 364 358 364 444 0 35 -58 132 -125 208 -64 74 -427
398 -483 431 l-44 26 -784 1 c-432 1 -787 0 -789 -3z m1605 -37 c51 -28 347
-292 461 -412 87 -91 139 -174 139 -222 0 -73 -157 -258 -380 -445 -58 -49
-133 -115 -167 -147 l-61 -58 -791 0 -791 0 0 650 0 650 293 3 c556 6 1269 -4
1297 -19z"/>
<path d="M5408 2878 c-2 -266 -2 -486 0 -490 2 -5 225 -8 496 -8 l494 0 0 490
1 490 -494 0 -494 0 -3 -482z"/>
<path d="M7500 2870 l0 -670 794 0 795 0 70 58 c196 160 473 428 522 504 89
139 31 241 -305 536 -105 93 -213 185 -240 205 l-48 37 -794 0 -794 0 0 -670z
m1612 632 c33 -21 308 -263 411 -361 43 -42 98 -105 123 -142 84 -122 70 -184
-74 -340 -72 -78 -378 -356 -453 -412 l-36 -27 -781 0 -782 0 0 650 0 650 243
3 c133 2 485 2 782 -1 482 -3 543 -6 567 -20z"/>
<path d="M7820 2870 l0 -490 495 0 495 0 0 490 0 490 -495 0 -495 0 0 -490z
m180 467 c0 -1 -36 -38 -80 -82 l-80 -80 0 83 0 82 80 0 c44 0 80 -1 80 -3z
m180 -4 c0 -9 -323 -333 -332 -333 -4 0 -8 33 -8 73 l0 73 93 96 92 96 78 1
c42 1 77 -2 77 -6z m190 -1 c0 -4 -119 -126 -265 -272 l-265 -265 0 85 0 86
183 185 182 186 83 1 c45 1 82 -1 82 -6z m-165 -352 l-360 -360 -3 76 -3 77
283 283 282 284 81 0 80 0 -360 -360z m544 355 c-2 -2 -208 -208 -456 -458
l-453 -454 0 81 0 82 373 375 372 376 84 1 c46 1 82 0 80 -3z m-349 -540
l-390 -390 -83 -3 -82 -3 470 471 470 470 3 -78 3 -77 -391 -390z m93 -97
l-298 -298 -80 0 -80 0 375 375 375 375 3 -77 3 -77 -298 -298z m95 -96 l-203
-202 -85 0 -85 0 285 285 285 285 3 -83 3 -83 -203 -202z m95 -93 l-108 -109
-77 0 c-43 0 -78 1 -78 3 0 2 82 85 183 185 l182 182 3 -77 3 -76 -108 -108z
m102 -76 l-6 -33 -92 0 -92 0 95 95 95 96 3 -63 c2 -35 0 -78 -3 -95z"/>
<path d="M3329 1841 c-25 -25 -29 -37 -29 -83 0 -75 27 -118 75 -118 46 0 75
29 75 75 0 49 -31 79 -76 72 -37 -6 -39 -5 -24 24 13 23 36 25 57 4 8 -8 19
-13 24 -10 16 10 10 44 -10 55 -33 17 -61 11 -92 -19z m76 -102 c4 -5 4 -21 1
-35 -5 -19 -12 -25 -29 -22 -17 2 -23 11 -25 36 -3 28 0 32 22 32 14 0 28 -5
31 -11z"/>
<path d="M5763 1862 c-38 -2 -53 -7 -53 -18 0 -10 13 -14 49 -14 l50 0 -30
-64 c-38 -81 -42 -120 -13 -124 19 -3 23 3 28 42 4 25 22 74 41 109 l34 65
-27 3 c-15 2 -51 3 -79 1z"/>
<path d="M8155 1846 c-21 -21 -23 -29 -15 -52 8 -19 7 -36 -2 -61 -19 -52 4
-87 59 -91 34 -3 44 1 62 24 25 32 26 40 6 78 -11 20 -12 33 -5 40 17 17 11
54 -12 70 -32 23 -65 20 -93 -8z m71 -27 c8 -14 -21 -43 -35 -35 -6 4 -11 16
-11 27 0 21 34 27 46 8z m2 -108 c4 -29 -15 -43 -40 -30 -18 10 -24 39 -11 53
15 15 48 1 51 -23z"/>
<path d="M906 1838 c-3 -13 -7 -40 -10 -62 -5 -37 -4 -38 22 -32 58 15 67 12
70 -17 2 -16 -2 -35 -9 -43 -10 -13 -15 -13 -35 1 -46 30 -75 7 -36 -28 25
-23 74 -21 103 2 18 14 24 29 24 61 0 48 -21 70 -67 70 -48 0 -35 28 14 32 31
2 44 8 46 21 3 15 -5 17 -57 17 -55 0 -61 -2 -65 -22z"/>
<path d="M257 1433 c-9 -218 -9 -933 -1 -1075 l7 -118 793 0 793 0 85 73 c281
240 463 419 512 504 40 68 38 123 -6 198 -43 73 -141 177 -273 292 -55 49
-142 125 -193 170 -51 45 -101 86 -111 91 -11 6 -346 12 -809 16 l-791 7 -6
-158z m1120 127 l473 0 62 -55 c35 -30 113 -97 173 -148 176 -151 287 -265
333 -343 48 -80 51 -106 21 -170 -38 -80 -297 -338 -543 -541 l-51 -42 -782
-1 -783 0 0 656 0 656 313 -6 c171 -3 525 -6 784 -6z"/>
<path d="M801 1156 l-245 -245 244 -245 c134 -135 249 -246 255 -246 15 0 485
475 485 490 0 15 -469 490 -484 490 -6 0 -120 -110 -255 -244z m289 196 c0 -4
-104 -111 -232 -239 -128 -128 -229 -236 -224 -240 4 -4 112 98 240 227 l233
235 86 -91 87 -92 -234 -235 -234 -234 -41 41 -41 41 232 232 c128 128 229
235 225 239 -4 4 -111 -97 -238 -225 l-231 -232 -68 63 c-37 35 -68 65 -69 68
0 3 104 110 233 239 213 211 236 232 255 221 12 -6 21 -14 21 -18z m248 -255
l42 -42 -235 -235 -235 -235 -42 43 -43 42 230 233 c127 129 232 235 235 235
3 1 25 -17 48 -41z m118 -118 c33 -33 59 -64 59 -69 0 -9 -455 -470 -463 -470
-3 0 -11 8 -18 18 -12 15 12 42 219 249 127 128 228 235 225 239 -4 3 -111
-100 -239 -229 l-232 -235 -41 45 -41 44 230 233 c127 128 233 233 236 234 4
1 33 -25 65 -59z"/>
<path d="M2743 1583 l-73 -4 0 -669 0 -670 800 0 800 0 143 127 c78 71 171
153 206 183 121 103 249 263 270 337 19 65 -40 161 -186 305 -111 109 -313
290 -388 348 l-50 39 -725 4 c-399 2 -758 3 -797 0z m1548 -44 c19 -15 81 -68
139 -119 294 -260 388 -360 432 -459 19 -41 19 -45 3 -88 -37 -97 -231 -298
-538 -556 l-67 -57 -785 0 -785 0 0 650 0 650 318 3 c174 1 527 2 783 2 l466
0 34 -26z"/>
<path d="M3220 1155 l-245 -245 248 -247 247 -248 235 235 c129 129 238 243
241 254 5 15 -46 71 -232 257 -132 132 -241 239 -244 239 -3 0 -115 -110 -250
-245z m485 -13 c125 -128 226 -234 224 -237 -2 -2 -106 -108 -232 -234 l-227
-230 -233 236 -232 235 230 233 c126 128 233 232 236 231 3 0 108 -106 234
-234z"/>
<path d="M5088 1584 c-5 -4 -8 -308 -8 -676 l0 -668 803 0 803 0 84 78 c47 43
119 107 160 141 228 189 380 373 380 458 0 55 -87 179 -201 288 -117 111 -387
344 -419 360 -27 14 -123 17 -813 22 -430 3 -785 2 -789 -3z m1600 -38 c42
-22 365 -311 463 -414 87 -91 139 -174 139 -222 0 -73 -141 -242 -353 -422
-73 -61 -160 -138 -194 -170 l-61 -58 -791 0 -791 0 0 650 0 649 63 4 c34 3
385 3 780 1 594 -3 723 -6 745 -18z"/>
<path d="M5740 1381 c-77 -25 -112 -45 -172 -98 -75 -66 -114 -119 -142 -195
-70 -185 -30 -373 109 -517 104 -108 206 -151 356 -151 231 0 437 177 480 413
42 230 -111 477 -340 547 -81 26 -214 26 -291 1z"/>
<path d="M7507 1583 c-4 -3 -7 -307 -7 -675 l0 -668 793 0 794 0 39 28 c22 16
73 60 115 98 42 38 124 112 183 164 128 114 247 246 277 307 43 89 5 182 -131
322 -88 91 -393 359 -452 399 l-42 27 -781 2 c-430 2 -785 0 -788 -4z m1600
-38 c42 -27 406 -350 464 -412 72 -77 121 -156 126 -207 7 -60 -29 -125 -127
-229 -82 -87 -397 -372 -456 -412 l-37 -25 -778 0 -779 0 0 649 c0 510 3 650
13 654 6 3 356 4 777 3 747 -1 766 -1 797 -21z"/>
<path d="M8165 1386 c-77 -25 -150 -69 -211 -127 -110 -106 -149 -210 -142
-376 4 -96 7 -108 46 -187 87 -175 246 -276 437 -276 139 0 246 44 350 145
245 237 171 643 -143 793 -73 35 -83 37 -187 39 -71 2 -124 -2 -150 -11z m329
-44 c90 -42 138 -82 186 -152 60 -88 82 -152 87 -256 12 -201 -87 -363 -276
-452 -170 -81 -387 -43 -525 92 -69 67 -122 175 -137 276 -28 199 79 396 263
484 92 43 100 45 229 42 95 -2 112 -6 173 -34z"/>
</g>
</svg>
