<?xml version="1.0" encoding="UTF-8" standalone="no"?>
<svg
   version="1.0"
   width="996.000000pt"
   height="922.000000pt"
   viewBox="0 0 996.000000 922.000000"
   preserveAspectRatio="xMidYMid meet"
   id="svg52"
   sodipodi:docname="45.svg"
   inkscape:version="1.4.3 (0d15f75042, 2025-12-25)"
   xmlns:inkscape="http://www.inkscape.org/namespaces/inkscape"
   xmlns:sodipodi="http://sodipodi.sourceforge.net/DTD/sodipodi-0.dtd"
   xmlns="http://www.w3.org/2000/svg"
   xmlns:svg="http://www.w3.org/2000/svg">
  <defs
     id="defs52" />
  <sodipodi:namedview
     id="namedview52"
     pagecolor="#505050"
     bordercolor="#ffffff"
     borderopacity="1"
     inkscape:showpageshadow="0"
     inkscape:pageopacity="0"
     inkscape:pagecheckerboard="1"
     inkscape:deskcolor="#505050"
     inkscape:document-units="pt"
     inkscape:zoom="0.73047722"
     inkscape:cx="796.05494"
     inkscape:cy="705.01856"
     inkscape:window-width="1287"
     inkscape:window-height="1164"
     inkscape:window-x="0"
     inkscape:window-y="0"
     inkscape:window-maximized="0"
     inkscape:current-layer="g52" />
  <metadata
     id="metadata1">
Created by potrace 1.16, written by Peter Selinger 2001-2019
</metadata>
  <g
     transform="translate(0.000000,922.000000) scale(0.100000,-0.100000)"
     fill="#FFFFFF"
     stroke="none"
     id="g52">
    <path
       d="M260 6535 l0 -2465 2940 0 2940 0 0 2465 0 2465 -2940 0 -2940 0 0 -2465z m5860 0 l0 -2445 -2919 0 -2919 0 -6 343 c-4 188 -5 637 -2 997 2 360 5 1306 5 2103 l1 1447 2920 0 2920 0 0 -2445z"
       id="path1" />
    <path
       d="M617 8423 c-4 -38 -7 -260 -7 -495 l0 -428 665 0 665 0 0 495 0 495 -659 0 -658 0 -6 -67z m563 -428 l0 -475 -272 2 -273 3 -2 465 c-1 255 1 468 3 472 3 5 126 8 275 8 l269 0 0 -475z m740 0 l0 -475 -275 0 -275 0 0 475 0 475 275 0 275 0 0 -475z"
       id="path2" />
    <path
       d="M2200 7995 l0 -495 659 0 658 0 5 43 c8 71 10 697 2 826 l-7 121 -658 0 -659 0 0 -495z m50 471 c0 -2 -7 -9 -15 -16 -12 -10 -15 -10 -15 4 0 9 7 16 15 16 8 0 15 -2 15 -4z m45 -56 c-33 -33 -63 -60 -67 -60 -4 0 -8 14 -8 32 0 47 44 87 95 88 l39 0 -59 -60z m51 -45 c-60 -58 -113 -105 -117 -105 -5 0 -9 15 -8 33 0 27 10 41 65 87 36 30 70 63 75 73 7 12 22 17 52 17 l42 -1 -109 -104z m79 -22 c-71 -69 -147 -139 -167 -155 l-38 -30 0 39 c0 32 6 42 38 64 20 15 78 67 127 116 82 82 94 90 130 91 l40 1 -130 -126z m213 108 c-14 -20 -217 -212 -324 -307 -66 -58 -95 -68 -93 -31 1 15 55 71 182 189 157 143 187 167 215 167 31 1 32 0 20 -18z m50 -54 c-303 -286 -325 -304 -365 -309 -21 -3 -39 -4 -41 -3 -2 2 48 49 110 106 62 57 153 143 203 191 83 81 93 88 130 87 l40 0 -77 -72z m84 -17 c-255 -244 -301 -282 -345 -291 -23 -4 -43 -6 -45 -4 -2 1 41 42 95 91 54 49 146 135 204 192 98 94 110 102 145 102 l39 -1 -93 -89z m63 -36 c-236 -227 -265 -250 -315 -257 l-45 -5 75 66 c41 37 135 124 210 194 121 115 139 128 170 127 l35 0 -130 -125z m225 117 c0 -5 -42 -46 -92 -92 -51 -46 -139 -127 -195 -180 -89 -85 -107 -97 -143 -101 l-40 -4 32 33 c18 18 110 104 203 192 147 139 174 160 203 161 17 0 32 -4 32 -9z m100 1 c0 -8 -92 -99 -180 -177 -30 -26 -90 -82 -132 -122 -70 -67 -80 -74 -112 -71 l-36 3 198 187 c171 162 201 187 230 187 17 1 32 -3 32 -7z m30 -75 c-47 -45 -138 -131 -203 -190 -106 -98 -120 -108 -150 -105 -34 3 -34 3 117 143 83 77 171 161 196 187 38 39 51 46 85 47 l40 1 -85 -83z m80 -20 c-58 -56 -148 -141 -200 -190 -85 -78 -99 -87 -129 -85 l-35 3 129 120 c71 66 159 150 195 186 58 60 69 67 105 68 l40 1 -105 -103z m100 -5 c-251 -237 -296 -274 -332 -270 -32 3 -32 3 82 108 63 58 152 142 200 187 77 75 89 83 125 83 l40 0 -115 -108z m130 56 c0 -29 -13 -44 -93 -117 -50 -46 -121 -112 -157 -146 -55 -52 -72 -63 -110 -68 l-45 -6 70 67 c122 117 325 302 330 302 3 0 5 -15 5 -32z m-2 -132 c-2 -1 -50 -45 -108 -97 -92 -84 -110 -97 -150 -102 l-45 -6 60 57 c34 31 101 94 150 138 l90 81 3 -34 c2 -19 2 -36 0 -37z m-9 -105 c-7 -2 -34 -23 -59 -46 -29 -28 -58 -45 -84 -49 -26 -5 -37 -4 -34 4 2 6 44 47 93 91 l90 80 3 -38 c2 -24 -1 -39 -9 -42z m9 -86 c-2 -1 -25 -5 -51 -8 l-49 -5 49 43 48 43 3 -35 c2 -19 2 -36 0 -38z m-1253 -205 c-3 -5 -10 -10 -16 -10 -5 0 -9 5 -9 10 0 6 7 10 16 10 8 0 12 -4 9 -10z m45 -51 l-65 -60 -3 37 c-2 26 1 40 12 46 9 5 22 15 29 23 6 8 30 14 52 14 l40 0 -65 -60z m50 -49 l-115 -109 -3 35 c-3 31 4 41 75 109 70 67 82 74 118 74 l40 0 -115 -109z m65 -35 c-82 -80 -158 -150 -167 -155 -16 -9 -18 -6 -18 23 0 30 11 44 96 123 166 154 166 154 204 153 35 0 34 -1 -115 -144z m170 62 c-49 -45 -141 -130 -205 -189 -63 -60 -123 -108 -132 -108 -37 0 -18 41 44 98 34 31 116 108 183 169 112 105 123 113 160 113 l40 -1 -90 -82z m185 79 c0 -3 -51 -51 -112 -107 -62 -56 -152 -140 -200 -186 -76 -72 -92 -83 -123 -83 -19 0 -35 2 -35 5 0 2 23 26 52 52 28 26 117 110 197 185 134 126 149 138 184 138 20 0 37 -2 37 -4z m35 -64 c-39 -37 -130 -122 -203 -190 -123 -115 -134 -123 -168 -120 l-35 3 167 155 c93 85 182 169 199 187 24 25 38 32 70 32 l40 1 -70 -68z m80 -20 c-252 -243 -309 -292 -343 -292 -19 0 -32 4 -30 8 2 5 70 71 153 148 82 76 167 158 190 180 33 34 47 41 80 42 l40 2 -90 -88z m174 71 c-17 -21 -150 -147 -244 -233 -38 -35 -85 -79 -103 -97 -25 -25 -42 -33 -67 -33 -19 0 -35 3 -34 8 0 4 62 63 137 132 75 69 162 150 192 181 47 48 61 56 94 58 35 1 37 -1 25 -16z m121 14 c0 -2 -80 -77 -177 -168 -98 -90 -188 -174 -201 -186 -22 -22 -93 -34 -91 -15 0 4 46 48 101 97 55 50 144 131 197 182 86 82 100 92 134 93 20 0 37 -1 37 -3z m100 -1 c0 -2 -80 -78 -177 -167 -97 -90 -188 -174 -200 -186 -23 -22 -94 -34 -92 -15 0 4 59 59 130 122 71 63 160 145 196 183 60 59 72 67 105 67 21 0 38 -2 38 -4z m39 -63 c-40 -38 -132 -123 -203 -190 -123 -116 -133 -123 -171 -123 l-40 1 90 82 c49 45 141 130 204 190 105 99 117 107 154 107 l39 0 -73 -67z m86 -15 c-49 -46 -141 -131 -203 -190 -107 -101 -117 -108 -155 -108 l-41 0 74 68 c41 37 133 122 205 189 121 114 133 123 170 123 l39 0 -89 -82z m108 16 c-4 -10 -68 -75 -141 -143 -74 -68 -140 -135 -149 -147 -12 -19 -24 -24 -59 -24 -24 0 -44 3 -43 8 0 4 43 45 95 92 52 47 140 127 196 178 82 74 104 90 106 75 2 -10 -1 -28 -5 -39z m-35 -141 c-18 -15 -66 -60 -106 -100 -63 -62 -78 -73 -108 -73 -19 0 -34 4 -34 9 0 4 62 66 138 135 l137 127 3 -35 c3 -31 -2 -40 -30 -63z m-23 -116 c-47 -48 -61 -57 -90 -57 -19 0 -35 2 -35 5 0 3 39 43 88 89 l87 84 3 -32 c2 -26 -6 -40 -53 -89z m55 -17 l0 -40 -40 0 c-22 0 -40 2 -40 5 0 4 72 74 78 75 1 0 2 -18 2 -40z"
       id="path3" />
    <path
       d="M898 7023 l-278 -3 -2 -193 c-2 -105 -1 -325 0 -487 l3 -295 660 -3 659 -2 0 490 0 490 -207 0 c-115 0 -287 2 -383 3 -96 2 -300 2 -452 0z m-238 -27 c0 -3 -4 -8 -10 -11 -5 -3 -10 -1 -10 4 0 6 5 11 10 11 6 0 10 -2 10 -4z m50 -51 c-63 -64 -82 -70 -73 -24 9 48 41 77 88 78 l39 1 -54 -55z m51 -45 c-57 -55 -108 -100 -112 -100 -5 0 -9 12 -9 28 0 20 17 44 72 98 65 65 77 72 113 72 l40 1 -104 -99z m159 54 c-65 -66 -270 -254 -278 -254 -4 0 -6 17 -4 38 3 29 11 43 35 60 18 12 73 62 122 111 82 82 93 90 130 90 l39 1 -44 -46z m88 -17 c-332 -308 -368 -337 -375 -297 -4 21 -5 20 162 171 83 75 161 148 174 163 19 20 34 26 65 26 l41 -1 -67 -62z m95 -5 c-325 -305 -334 -312 -372 -311 l-36 0 115 107 c63 59 153 144 200 189 78 76 88 83 125 82 l40 0 -72 -67z m327 13 l-55 -56 -3 41 c-4 51 15 69 73 70 l39 0 -54 -55z m65 -31 c-113 -107 -125 -114 -125 -77 0 21 17 44 68 95 61 61 71 68 107 67 l40 0 -90 -85z m94 -7 c-53 -51 -124 -117 -158 -146 l-61 -53 0 36 c0 32 9 43 109 131 60 53 112 103 115 111 4 9 20 14 48 14 l43 -1 -96 -92z m96 -5 c-205 -199 -305 -285 -311 -268 -13 34 13 66 166 205 88 79 160 147 160 152 0 5 19 9 43 9 l42 0 -100 -98z m98 -5 c-228 -218 -299 -277 -332 -277 -17 0 -31 2 -31 4 0 5 92 93 265 254 118 110 134 121 168 121 l38 1 -108 -103z m125 18 c-280 -262 -320 -295 -356 -295 l-37 0 70 68 c39 37 129 122 200 188 l130 122 3 -36 c2 -20 -2 -40 -10 -47z m-761 -40 c-18 -16 -88 -81 -155 -142 -107 -100 -125 -113 -157 -113 -19 0 -35 2 -35 4 0 3 64 63 143 135 78 71 162 149 187 173 l45 43 3 -35 c3 -29 -2 -40 -31 -65z m721 -93 c-29 -26 -81 -73 -115 -105 -55 -53 -65 -58 -99 -55 l-37 3 149 136 149 136 3 -34 c3 -30 -3 -39 -50 -81z m-690 24 c-2 -1 -49 -43 -105 -94 -92 -82 -107 -92 -140 -92 l-38 1 85 77 c47 42 110 100 140 129 l55 52 3 -35 c2 -20 2 -37 0 -38z m731 -85 c-6 -2 -36 -25 -65 -52 -43 -39 -61 -49 -89 -49 -19 0 -35 2 -35 4 0 2 44 43 98 91 l97 87 3 -38 c2 -24 -1 -40 -9 -43z m-776 -49 c-50 -44 -77 -56 -112 -50 -16 2 -4 18 67 81 l87 78 3 -33 c3 -29 -3 -39 -45 -76z m787 -6 c0 -30 -4 -34 -31 -40 -72 -14 -77 -8 -29 34 25 22 48 40 53 40 4 0 7 -15 7 -34z m-740 -16 c0 -28 -2 -30 -40 -30 l-40 0 32 30 c41 37 48 37 48 0z m-470 -270 c-36 -33 -69 -60 -74 -60 -11 0 1 74 12 78 5 1 18 10 28 18 18 14 17 14 -15 8 -23 -4 -31 -3 -27 5 4 6 35 11 74 11 l67 -1 -65 -59z m50 -50 c-63 -60 -119 -109 -124 -110 -4 0 -5 16 -2 35 5 25 24 50 68 92 34 32 69 66 77 75 10 10 32 17 56 17 l40 0 -115 -109z m75 -25 c-77 -75 -152 -144 -167 -156 l-28 -20 0 35 c0 33 10 45 132 156 118 106 137 120 168 120 35 -1 35 -1 -105 -135z m160 53 c-49 -46 -141 -131 -205 -190 -77 -73 -123 -108 -138 -108 -36 0 -19 35 46 94 31 28 113 104 182 169 116 109 127 117 165 117 l39 0 -89 -82z m185 78 c0 -2 -51 -50 -112 -106 -62 -57 -152 -141 -200 -187 -81 -79 -89 -84 -124 -81 l-38 3 200 187 c184 174 202 187 237 188 20 0 37 -2 37 -4z m255 -51 l-60 -54 -3 31 c-5 45 30 78 82 78 l41 -1 -60 -54z m50 -49 l-110 -103 -3 33 c-3 29 5 40 70 103 65 63 77 70 113 71 l40 0 -110 -104z m105 4 c-58 -55 -131 -123 -162 -151 l-58 -51 0 31 c0 27 17 49 123 151 115 112 124 119 162 119 l40 0 -105 -99z m190 79 c-13 -11 -104 -95 -203 -187 -98 -92 -185 -168 -193 -170 -10 -2 -14 6 -14 26 0 22 11 38 48 69 26 23 105 95 177 162 122 114 132 121 170 121 l40 -1 -25 -20z m120 11 c0 -5 -4 -10 -9 -10 -8 0 -185 -161 -355 -322 -32 -31 -47 -38 -80 -38 l-41 0 75 68 c41 37 133 122 205 189 118 112 133 123 168 123 20 0 37 -4 37 -10z m-37 -123 c-32 -28 -104 -96 -159 -150 -97 -94 -103 -98 -141 -95 l-40 3 104 95 c57 52 145 133 196 179 l92 84 3 -33 c3 -29 -3 -38 -55 -83z m-745 -26 c-35 -31 -102 -93 -149 -138 -77 -75 -89 -83 -124 -83 l-39 0 119 113 c66 63 149 139 185 171 l65 56 3 -32 c3 -29 -3 -38 -60 -87z m695 -117 c-100 -95 -111 -103 -148 -103 l-40 -1 60 58 c33 31 98 93 145 136 l85 79 3 -33 c3 -31 -5 -41 -105 -136z m-729 -10 c-84 -81 -103 -94 -132 -94 -18 0 -32 4 -30 8 2 4 59 61 128 125 l125 118 3 -31 c3 -29 -6 -41 -94 -126z m781 -38 c-50 -50 -61 -56 -97 -56 l-40 0 93 89 94 89 3 -33 c3 -28 -5 -40 -53 -89z m-731 -9 c-38 -39 -53 -47 -83 -47 l-36 0 80 80 80 81 3 -34 c3 -28 -4 -40 -44 -80z m783 -44 c-3 -2 -22 -3 -42 -1 l-37 3 38 40 39 39 3 -38 c2 -21 1 -40 -1 -43z m-737 27 c0 -27 -3 -30 -32 -30 l-32 0 29 30 c16 17 30 30 32 30 2 0 3 -13 3 -30z"
       id="path9" />
    <path
       d="M2734 6602 c-22 -35 -334 -313 -344 -307 -5 3 -10 2 -10 -4 0 -5 -3 -17 -7 -26 -5 -15 -3 -16 14 -7 15 8 23 8 32 -1 10 -9 11 -8 6 5 -5 13 10 33 56 75 157 143 255 237 262 250 13 21 4 36 -9 15z"
       id="path11" />
    <path
       d="M2734 6507 c-6 -7 -69 -67 -140 -134 -71 -68 -124 -123 -117 -123 11 0 50 35 222 196 29 28 52 55 50 61 -3 8 -7 7 -15 0z"
       id="path12" />
    <path
       d="M2692 6285 c2 -6 -19 -31 -47 -55 -27 -23 -70 -62 -95 -86 -30 -30 -50 -42 -62 -38 -13 4 -16 1 -12 -10 12 -30 39 -15 124 67 47 45 99 91 115 103 l30 21 -28 5 c-18 4 -26 1 -25 -7z"
       id="path13" />
    <path
       d="M2675 6200 c3 -5 8 -10 11 -10 2 0 4 5 4 10 0 6 -5 10 -11 10 -5 0 -7 -4 -4 -10z"
       id="path14" />
    <path
       d="M2655 6149 c-27 -27 -56 -47 -62 -44 -7 2 -13 0 -13 -6 0 -5 7 -12 15 -15 16 -6 117 79 123 103 6 22 -11 12 -63 -38z"
       id="path15" />
    <path
       d="M2730 6131 c0 -6 5 -13 10 -16 6 -3 10 1 10 9 0 9 -4 16 -10 16 -5 0 -10 -4 -10 -9z"
       id="path16" />
    <path
       d="M3180 6981 c0 -5 5 -13 10 -16 6 -3 10 -2 10 4 0 5 -4 13 -10 16 -5 3 -10 2 -10 -4z"
       id="path17" />
    <path
       d="M3780 6530 l0 -490 665 0 665 0 0 490 0 490 -665 0 -665 0 0 -490z m1310 279 l0 -191 -642 4 -643 3 -3 188 -2 187 645 0 645 0 0 -191z m0 -559 l0 -190 -645 0 -645 0 0 190 0 190 645 0 645 0 0 -190z"
       id="path18" />
    <path
       d="M3655 5728 c-3 -7 -4 -310 -3 -673 l3 -660 796 0 795 0 35 29 c219 183 496 450 549 529 56 84 59 113 20 193 -42 85 -152 200 -402 420 l-198 174 -795 0 c-627 0 -797 -3 -800 -12z m1740 -139 c242 -213 335 -300 380 -359 51 -66 85 -131 85 -161 0 -75 -130 -225 -415 -477 l-200 -177 -785 0 -785 0 -2 620 c-1 341 1 635 4 653 l5 32 782 0 782 0 149 -131z"
       id="path19" />
    <path
       d="M1810 5201 c0 -23 43 -26 61 -5 17 20 6 26 -25 14 -18 -6 -25 -6 -21 0 3 6 1 10 -4 10 -6 0 -11 -8 -11 -19z"
       id="path21" />
    <path
       d="M1350 4890 c0 -5 5 -10 11 -10 5 0 7 5 4 10 -3 6 -8 10 -11 10 -2 0 -4 -4 -4 -10z"
       id="path22" />
    <path
       d="M2200 5071 l0 -488 293 -7 c329 -8 1001 -6 1015 3 16 10 24 340 16 667 l-7 314 -658 0 -659 0 0 -489z m570 279 l0 -190 -275 0 -275 0 0 190 0 190 275 0 275 0 0 -190z m730 0 l0 -190 -270 0 -270 0 0 190 0 190 270 0 270 0 0 -190z m-883 -380 l153 0 -2 -187 -3 -188 -270 0 -270 1 -3 193 -2 194 121 -6 c67 -4 191 -7 276 -7z m816 3 l67 -6 0 -188 0 -188 -270 0 c-244 1 -270 3 -271 17 -2 37 -2 134 -1 250 l2 122 203 0 c111 0 232 -3 270 -7z"
       id="path23" />
    <path
       d="M6360 6045 l0 -267 143 4 c156 4 184 13 231 69 46 55 59 97 60 194 1 79 -2 97 -27 148 -22 44 -39 63 -74 84 -43 25 -56 27 -190 31 l-143 5 0 -268z m289 177 c62 -46 87 -129 70 -232 -17 -106 -61 -139 -192 -147 l-97 -6 0 200 c0 110 3 203 8 207 4 5 47 6 96 3 65 -4 97 -11 115 -25z"
       id="path24" />
    <path
       d="M6881 6021 c-29 -29 -35 -63 -17 -104 17 -42 49 -55 96 -39 26 9 30 9 30 -6 0 -28 -29 -62 -54 -62 -13 0 -31 9 -41 20 -26 29 -43 9 -21 -24 22 -35 85 -37 116 -4 41 45 49 158 14 205 -28 37 -93 44 -123 14z m89 -21 c24 -24 26 -57 3 -82 -33 -36 -83 -11 -83 42 0 31 22 60 46 60 8 0 23 -9 34 -20z"
       id="path25" />
    <path
       d="M933 3816 c-49 -45 -53 -68 -8 -48 l25 12 0 -80 c0 -79 0 -80 25 -80 l25 0 0 114 c0 63 -4 117 -9 120 -5 3 -31 -14 -58 -38z"
       id="path26" />
    <path
       d="M8193 3808 c-80 -109 -91 -138 -50 -138 40 0 66 -12 73 -32 7 -24 37 -20 43 7 2 11 11 25 20 32 15 11 15 12 -1 18 -13 5 -18 18 -18 49 0 55 -11 116 -20 116 -4 0 -25 -24 -47 -52z m23 -73 c-5 -26 -12 -35 -26 -35 -26 0 -25 14 2 50 26 36 33 32 24 -15z"
       id="path27" />
    <path
       d="M3322 3830 c-12 -12 -22 -27 -22 -35 0 -20 29 -19 51 1 10 9 25 14 34 11 23 -9 18 -41 -11 -68 -31 -28 -84 -98 -84 -111 0 -4 36 -8 80 -8 73 0 80 2 80 20 0 17 -7 20 -47 20 l-47 0 36 38 c62 63 70 119 22 141 -37 16 -68 13 -92 -9z"
       id="path28" />
    <path
       d="M5742 3834 c-12 -8 -22 -21 -22 -29 0 -23 20 -28 39 -11 22 20 51 21 51 1 0 -8 -9 -20 -20 -27 -26 -17 -25 -31 3 -43 27 -12 35 -52 12 -62 -10 -3 -30 2 -46 11 -26 16 -30 16 -35 1 -10 -25 24 -55 63 -55 62 0 96 68 56 112 -13 14 -14 21 -5 30 18 18 14 53 -6 71 -23 21 -61 22 -90 1z"
       id="path29" />
    <path
       d="M260 2892 c0 -363 -3 -667 -6 -676 -6 -15 69 -16 794 -16 l801 0 90 78 c212 182 292 255 388 356 117 122 159 193 150 255 -10 81 -153 249 -357 420 -30 25 -94 80 -141 122 -48 42 -99 85 -113 94 -25 17 -84 18 -817 22 l-789 4 0 -659z m1563 629 c24 -6 61 -30 103 -68 36 -32 103 -89 148 -128 258 -218 386 -367 386 -450 0 -94 -176 -285 -558 -607 l-57 -48 -782 0 -783 0 0 650 0 649 58 4 c126 8 1450 6 1485 -2z"
       id="path30" />
    <path
       d="M694 3362 l-291 -2 3 -488 2 -487 666 -3 666 -2 -2 489 -3 489 -375 4 c-206 2 -506 2 -666 0z m-244 -26 c0 -2 -7 -9 -15 -16 -12 -10 -15 -10 -15 4 0 9 7 16 15 16 8 0 15 -2 15 -4z m48 -51 c-31 -30 -61 -55 -67 -55 -20 0 -12 36 17 73 23 31 33 36 67 36 l40 1 -57 -55z m112 4 c-111 -101 -177 -159 -184 -159 -3 0 -6 13 -6 30 0 21 9 38 32 57 18 16 55 49 83 75 42 40 56 48 90 47 l40 0 -55 -50z m110 8 c-245 -231 -290 -269 -296 -252 -12 31 10 60 136 178 116 107 128 116 165 116 l40 1 -45 -43z m75 -25 c-38 -37 -135 -127 -215 -201 l-145 -134 -3 34 c-3 30 2 40 46 79 204 187 279 257 290 272 9 12 26 18 55 18 l42 0 -70 -68z m134 32 c-33 -36 -283 -268 -421 -391 -38 -35 -73 -63 -78 -63 -17 0 -11 49 8 68 10 9 101 94 203 187 101 94 198 185 214 202 24 26 38 33 69 33 l40 0 -35 -36z m252 24 c0 -10 2 -10 6 0 3 7 22 12 46 12 l41 0 -30 -31 c-16 -17 -42 -40 -57 -51 l-28 -20 2 51 c2 28 6 51 11 51 4 0 8 -6 9 -12z m89 -90 l-105 -100 -3 35 c-3 31 2 41 38 73 101 91 105 94 140 93 l35 0 -105 -101z m185 74 c-90 -86 -284 -262 -289 -262 -3 0 -6 13 -6 29 0 24 20 48 123 145 113 108 125 116 162 116 l40 0 -30 -28z m125 25 c0 -5 -325 -307 -381 -355 l-39 -34 0 35 c0 31 14 47 173 195 158 148 175 161 210 161 20 1 37 -1 37 -2z m35 -65 c-123 -118 -409 -381 -432 -397 -23 -16 -23 -15 -23 18 0 25 7 39 23 50 12 9 112 101 222 206 190 181 202 190 240 190 l40 1 -70 -68z m58 -42 c-122 -114 -432 -401 -471 -435 l-43 -39 3 40 c3 37 13 48 153 176 83 75 206 188 275 251 l125 115 3 -31 c3 -27 -4 -39 -45 -77z m-693 56 c0 -32 -13 -47 -161 -183 -347 -319 -384 -353 -391 -353 -5 0 -8 13 -8 30 0 22 11 39 42 67 23 21 96 88 161 148 229 211 352 325 355 325 1 0 2 -15 2 -34z m740 -76 c0 -24 -13 -42 -67 -93 -37 -34 -108 -100 -158 -147 -192 -180 -324 -300 -329 -300 -3 0 -6 13 -6 28 0 23 20 47 98 123 144 139 451 419 459 419 2 0 3 -14 3 -30z m-772 -84 c-48 -41 -360 -329 -444 -408 -39 -38 -74 -68 -77 -68 -12 0 -8 56 6 71 15 19 350 329 460 426 l82 72 3 -32 c3 -26 -3 -37 -30 -61z m772 -9 c0 -29 -16 -48 -167 -187 -92 -85 -214 -199 -272 -252 -58 -54 -108 -98 -113 -98 -4 0 -8 12 -8 27 0 33 -10 22 498 490 31 29 58 52 60 53 1 0 2 -15 2 -33z m-740 -20 c0 -31 -15 -48 -167 -188 -91 -85 -214 -198 -272 -251 -58 -54 -108 -98 -113 -98 -9 0 -11 31 -2 53 3 8 76 80 162 158 85 79 208 192 271 252 63 59 117 107 118 107 2 0 3 -15 3 -33z m740 -76 c0 -30 -39 -72 -258 -272 -256 -234 -297 -269 -300 -253 -8 36 13 64 120 161 62 56 183 167 268 247 85 80 158 145 163 145 4 1 7 -12 7 -28z m-740 -25 c0 -26 -7 -40 -29 -58 -16 -13 -101 -90 -190 -173 -197 -182 -324 -295 -332 -295 -3 0 -3 15 0 34 5 27 39 63 201 212 107 98 227 209 265 246 39 37 73 68 78 68 4 0 7 -15 7 -34z m740 -73 c0 -33 -7 -43 -53 -82 -59 -49 -382 -347 -439 -403 -43 -44 -68 -49 -68 -14 0 18 26 48 102 118 57 51 141 129 188 174 84 80 263 243 268 244 1 0 2 -17 2 -37z m-747 -56 c-4 -7 -44 -45 -88 -84 -44 -39 -156 -141 -249 -227 -118 -108 -177 -156 -193 -156 -13 0 -23 6 -23 14 0 13 147 153 449 428 104 95 106 96 109 68 2 -16 0 -36 -5 -43z m690 -120 c-32 -28 -96 -88 -143 -132 -223 -210 -230 -215 -267 -215 -32 0 -34 2 -22 17 18 21 306 288 407 376 l77 67 3 -30 c3 -26 -5 -38 -55 -83z m-745 -25 c-35 -31 -103 -95 -153 -141 -49 -47 -113 -107 -142 -133 -46 -43 -57 -49 -90 -46 l-37 3 162 150 c90 83 198 180 240 218 l77 67 3 -31 c3 -27 -5 -38 -60 -87z m764 -52 c-22 -19 -96 -88 -165 -153 -120 -112 -128 -118 -163 -115 l-38 3 94 85 c51 47 141 129 199 184 l106 99 3 -34 c3 -29 -2 -39 -36 -69z m-750 -30 c-27 -25 -97 -89 -154 -142 -96 -89 -109 -98 -144 -98 l-39 1 85 77 c47 42 132 122 190 176 l105 100 3 -35 c3 -30 -2 -39 -46 -79z m788 -2 c-1 -29 -14 -45 -115 -136 -106 -95 -117 -103 -151 -100 l-36 3 144 132 c79 72 146 132 151 132 4 1 7 -14 7 -31z m-740 -15 c0 -35 -7 -44 -103 -130 -92 -83 -106 -93 -141 -93 l-39 0 64 57 c35 32 98 90 139 130 41 40 76 73 78 73 1 0 2 -17 2 -37z m678 -165 c-54 -50 -69 -58 -102 -58 l-40 0 60 53 c32 28 77 69 99 89 l40 37 3 -32 c3 -28 -4 -39 -60 -89z m-678 65 c-1 -34 -7 -43 -55 -81 -44 -35 -60 -43 -88 -40 l-35 3 87 77 c47 42 87 77 89 78 1 0 2 -17 2 -37z m736 -109 c-3 -9 -20 -14 -48 -14 l-43 1 45 42 45 42 3 -28 c2 -16 1 -35 -2 -43z m-736 16 c0 -28 -2 -30 -37 -30 l-38 1 33 29 c18 17 34 30 37 30 3 0 5 -13 5 -30z"
       id="path31" />
    <path
       d="m 8691.2956,3363.675 291,-2 -3,-488 -2,-487 -666,-3 -666,-2 2,489 3,489 375,4 c 206,2 506,2 666,0 z m 244,-26 c 0,-2 7,-9 15,-16 12,-10 15,-10 15,4 0,9 -7,16 -15,16 -8,0 -15,-2 -15,-4 z m -48,-51 c 31,-30 61,-55 67,-55 20,0 12,36 -17,73 -23,31 -33,36 -67,36 l -40,1 z m -112,4 c 111,-101 177,-159 184,-159 3,0 6,13 6,30 0,21 -9,38 -32,57 -18,16 -55,49 -83,75 -42,40 -56,48 -90,47 h -40 z m -110,8 c 245,-231 290,-269 296,-252 12,31 -10,60 -136,178 -116,107 -128,116 -165,116 l -40,1 z m -75,-25 c 38,-37 135,-127 215,-201 l 145,-134 3,34 c 3,30 -2,40 -46,79 -204,187 -279,257 -290,272 -9,12 -26,18 -55,18 h -42 z m -134,32 c 33,-36 283,-268 421,-391 38,-35 73,-63 78,-63 17,0 11,49 -8,68 -10,9 -101,94 -203,187 -101,94 -198,185 -214,202 -24,26 -38,33 -69,33 h -40 z m -252,24 c 0,-10 -2,-10 -6,0 -3,7 -22,12 -46,12 h -41 l 30,-31 c 16,-17 42,-40 57,-51 l 28,-20 -2,51 c -2,28 -6,51 -11,51 -4,0 -8,-6 -9,-12 z m -89,-90 105,-100 3,35 c 3,31 -2,41 -38,73 -101,91 -105,94 -140,93 h -35 z m -185,74 c 90,-86 284,-262 289,-262 3,0 6,13 6,29 0,24 -20,48 -123,145 -113,108 -125,116 -162,116 h -40 z m -125,25 c 0,-5 325,-307 381,-355 l 39,-34 v 35 c 0,31 -14,47 -173,195 -158,148 -175,161 -210,161 -20,1 -37,-1 -37,-2 z m -35,-65 c 123,-118 409,-381 432,-397 23,-16 23,-15 23,18 0,25 -7,39 -23,50 -12,9 -112,101 -222,206 -190,181 -202,190 -240,190 l -40,1 z m -58,-42 c 122,-114 432,-401 471,-435 l 43,-39 -3,40 c -3,37 -13,48 -153,176 -83,75 -206,188 -275,251 l -125,115 -3,-31 c -3,-27 4,-39 45,-77 z m 693,56 c 0,-32 13,-47 161,-183 347,-319 384,-353 391,-353 5,0 8,13 8,30 0,22 -11,39 -42,67 -23,21 -96,88 -161,148 -229,211 -352,325 -355,325 -1,0 -2,-15 -2,-34 z m -740,-76 c 0,-24 13,-42 67,-93 37,-34 108,-100 158,-147 192,-180 324,-300 329,-300 3,0 6,13 6,28 0,23 -20,47 -98,123 -144,139 -451,419 -459,419 -2,0 -3,-14 -3,-30 z m 772,-84 c 48,-41 360,-329 444,-408 39,-38 74,-68 77,-68 12,0 8,56 -6,71 -15,19 -350,329 -460,426 l -82,72 -3,-32 c -3,-26 3,-37 30,-61 z m -772,-9 c 0,-29 16,-48 167,-187 92,-85 214,-199 272,-252 58,-54 108,-98 113,-98 4,0 8,12 8,27 0,33 10,22 -498,490 -31,29 -58,52 -60,53 -1,0 -2,-15 -2,-33 z m 740,-20 c 0,-31 15,-48 167,-188 91,-85 214,-198 272,-251 58,-54 108,-98 113,-98 9,0 11,31 2,53 -3,8 -76,80 -162,158 -85,79 -208,192 -271,252 -63,59 -117,107 -118,107 -2,0 -3,-15 -3,-33 z m -740,-76 c 0,-30 39,-72 258,-272 256,-234 297,-269 300,-253 8,36 -13,64 -120,161 -62,56 -183,167 -268,247 -85,80 -158,145 -163,145 -4,1 -7,-12 -7,-28 z m 740,-25 c 0,-26 7,-40 29,-58 16,-13 101,-90 190,-173 197,-182 324,-295 332,-295 3,0 3,15 0,34 -5,27 -39,63 -201,212 -107,98 -227,209 -265,246 -39,37 -73,68 -78,68 -4,0 -7,-15 -7,-34 z m -740,-73 c 0,-33 7,-43 53,-82 59,-49 382,-347 439,-403 43,-44 68,-49 68,-14 0,18 -26,48 -102,118 -57,51 -141,129 -188,174 -84,80 -263,243 -268,244 -1,0 -2,-17 -2,-37 z m 747,-56 c 4,-7 44,-45 88,-84 44,-39 156,-141 249,-227 118,-108 177,-156 193,-156 13,0 23,6 23,14 0,13 -147,153 -449,428 -104,95 -106,96 -109,68 -2,-16 0,-36 5,-43 z m -690,-120 c 32,-28 96,-88 143,-132 223,-210 230,-215 267,-215 32,0 34,2 22,17 -18,21 -306,288 -407,376 l -77,67 -3,-30 c -3,-26 5,-38 55,-83 z m 745,-25 c 35,-31 103,-95 153,-141 49,-47 113,-107 142,-133 46,-43 57,-49 90,-46 l 37,3 -162,150 c -90,83 -198,180 -240,218 l -77,67 -3,-31 c -3,-27 5,-38 60,-87 z m -764,-52 c 22,-19 96,-88 165,-153 120,-112 128,-118 163,-115 l 38,3 -94,85 c -51,47 -141,129 -199,184 l -106,99 -3,-34 c -3,-29 2,-39 36,-69 z m 750,-30 c 27,-25 97,-89 154,-142 96,-89 109,-98 144,-98 l 39,1 -85,77 c -47,42 -132,122 -190,176 l -105,100 -3,-35 c -3,-30 2,-39 46,-79 z m -788,-2 c 1,-29 14,-45 115,-136 106,-95 117,-103 151,-100 l 36,3 -144,132 c -79,72 -146,132 -151,132 -4,1 -7,-14 -7,-31 z m 740,-15 c 0,-35 7,-44 103,-130 92,-83 106,-93 141,-93 h 39 l -64,57 c -35,32 -98,90 -139,130 -41,40 -76,73 -78,73 -1,0 -2,-17 -2,-37 z m -678,-165 c 54,-50 69,-58 102,-58 h 40 l -60,53 c -32,28 -77,69 -99,89 l -40,37 -3,-32 c -3,-28 4,-39 60,-89 z m 678,65 c 1,-34 7,-43 55,-81 44,-35 60,-43 88,-40 l 35,3 -87,77 c -47,42 -87,77 -89,78 -1,0 -2,-17 -2,-37 z m -736,-109 c 3,-9 20,-14 48,-14 l 43,1 -45,42 -45,42 -3,-28 c -2,-16 -1,-35 2,-43 z m 736,16 c 0,-28 2,-30 37,-30 l 38,1 -33,29 c -18,17 -34,30 -37,30 -3,0 -5,-13 -5,-30 z"
       id="path31-6" />
    <path
       d="M2793 3542 l-123 -3 0 -669 0 -670 800 0 800 0 222 198 c362 323 438 434 378 551 -29 58 -106 149 -195 233 -106 98 -331 297 -375 330 l-35 26 -675 4 c-371 2 -730 2 -797 0z m1446 -18 c21 -4 76 -45 159 -117 308 -268 419 -384 464 -486 19 -41 19 -45 3 -88 -38 -98 -228 -295 -538 -556 l-67 -57 -785 0 -785 0 0 650 0 649 63 4 c114 6 1454 7 1486 1z"
       id="path32" />
    <path
       d="M2820 2870 l0 -490 665 0 665 0 0 490 0 490 -665 0 -665 0 0 -490z m40 466 c0 -3 -4 -8 -10 -11 -5 -3 -10 -1 -10 4 0 6 5 11 10 11 6 0 10 -2 10 -4z m50 -57 l-65 -60 -3 37 c-4 49 34 83 93 83 l40 0 -65 -60z m50 -48 l-115 -108 -3 33 c-3 31 4 41 75 109 70 67 82 74 118 74 l40 1 -115 -109z m75 -26 c-77 -74 -152 -144 -167 -156 l-28 -20 0 31 c0 27 17 48 128 155 119 117 129 124 167 124 l40 0 -140 -134z m235 131 c0 -14 -397 -376 -412 -376 -37 0 -18 41 44 98 34 31 116 108 182 170 103 96 125 112 153 112 18 0 33 -2 33 -4z m110 0 c0 -2 -48 -48 -107 -101 -60 -54 -149 -138 -200 -187 -87 -83 -94 -88 -135 -88 l-43 0 65 58 c36 31 128 117 205 189 128 121 143 133 178 133 20 0 37 -2 37 -4z m35 -64 c-38 -37 -130 -122 -204 -189 -120 -111 -137 -123 -170 -123 l-36 1 77 72 c42 40 128 119 190 177 62 57 117 110 121 117 5 7 26 13 50 13 l42 0 -70 -68z m80 -20 c-50 -48 -141 -133 -203 -190 -102 -94 -115 -103 -146 -100 l-35 3 167 155 c91 85 180 170 196 188 24 26 37 32 70 32 l41 0 -90 -88z m145 42 c-25 -25 -116 -111 -202 -191 -143 -130 -161 -144 -190 -141 -31 3 -30 5 107 133 77 72 164 155 195 187 48 49 60 56 95 57 l39 1 -44 -46z m109 3 c-26 -23 -102 -94 -170 -158 -202 -188 -191 -179 -229 -179 l-35 0 85 83 c47 45 137 130 200 189 106 99 118 107 155 107 l40 0 -46 -42z m141 40 c0 -2 -90 -88 -200 -191 -192 -180 -201 -187 -237 -184 l-37 3 104 95 c58 52 147 137 200 187 85 83 99 93 133 93 20 0 37 -1 37 -3z m0 -98 c-261 -249 -297 -279 -337 -279 l-38 0 55 53 c332 312 350 327 388 326 l37 0 -105 -100z m130 23 c-46 -42 -139 -128 -205 -189 -102 -96 -125 -113 -152 -113 -18 0 -33 4 -33 9 0 5 30 35 67 67 37 33 126 114 198 181 122 115 132 123 170 123 l40 -1 -85 -77z m110 38 c0 -24 -13 -42 -62 -87 -34 -32 -109 -102 -166 -155 -95 -91 -106 -98 -144 -98 l-40 0 53 47 c30 26 95 86 144 133 104 99 205 190 211 190 2 0 4 -13 4 -30z m-106 -224 c-111 -105 -132 -119 -171 -114 -19 3 1 25 125 141 147 138 147 138 150 106 3 -29 -6 -41 -104 -133z m51 -47 c-62 -59 -76 -67 -118 -68 -25 -1 -18 8 70 93 l98 94 3 -33 c3 -29 -4 -40 -53 -86z m51 -56 c-3 -3 -26 -8 -52 -11 l-47 -5 49 49 49 49 3 -39 c2 -21 1 -40 -2 -43z m-1256 -208 c-7 -8 -16 -15 -21 -15 -5 0 -9 7 -9 15 0 9 9 15 21 15 18 0 19 -2 9 -15z m45 -51 l-70 -65 -3 38 c-2 24 1 39 9 42 7 2 22 14 33 26 15 16 33 23 61 23 l40 1 -70 -65z m75 -25 c-52 -49 -107 -99 -122 -110 l-28 -20 0 38 c0 32 5 42 28 55 15 9 52 42 82 72 48 50 59 56 95 56 l40 -1 -95 -90z m169 65 c-13 -14 -90 -87 -171 -161 l-148 -135 0 39 c0 36 7 43 119 142 64 57 123 112 129 122 9 14 24 19 54 19 l41 0 -24 -26z m25 -72 c-228 -221 -298 -282 -322 -282 -45 0 -18 36 123 166 77 71 158 148 180 171 34 35 46 42 80 42 l40 1 -101 -98z m154 45 c-31 -29 -103 -94 -160 -146 -57 -52 -123 -114 -147 -138 -36 -35 -51 -43 -80 -43 -36 1 -36 1 119 148 85 81 173 166 195 188 35 36 46 41 85 42 l45 1 -57 -52z m91 -10 c-325 -304 -341 -317 -378 -316 l-36 0 120 112 c65 62 155 147 200 189 73 71 84 78 120 77 l40 0 -66 -62z m161 60 c0 -2 -66 -66 -147 -142 -82 -76 -171 -160 -200 -187 -46 -44 -57 -49 -90 -46 l-37 3 159 146 c88 81 178 165 200 188 32 34 46 41 77 41 21 0 38 -2 38 -3z m98 -5 c-3 -7 -244 -235 -343 -324 -44 -40 -60 -48 -92 -48 l-38 1 90 82 c49 45 141 130 204 190 99 93 119 107 148 107 19 0 33 -3 31 -8z m97 -11 c-11 -11 -103 -96 -205 -190 -173 -160 -187 -171 -223 -171 l-39 0 78 73 c43 39 135 125 204 189 116 109 128 118 165 118 39 0 39 0 20 -19z m59 -39 c-340 -322 -340 -322 -384 -322 l-42 0 53 48 c30 26 121 111 204 189 142 135 152 143 190 143 l40 0 -61 -58z m81 -20 c-44 -42 -135 -128 -203 -190 -112 -105 -124 -113 -157 -110 l-35 3 167 155 c92 85 181 169 198 187 24 25 38 32 70 32 l40 1 -80 -78z m92 -10 c-51 -49 -138 -130 -194 -181 -56 -50 -105 -96 -108 -101 -6 -9 -75 -15 -75 -6 0 6 164 164 285 274 97 89 114 101 147 101 l37 1 -92 -88z m51 -49 c-35 -33 -109 -101 -165 -152 -90 -81 -106 -92 -135 -89 -31 3 -30 5 108 133 76 72 164 155 194 185 l55 55 3 -36 c3 -33 -3 -42 -60 -96z m62 -5 c-1 -38 -5 -47 -38 -71 -20 -16 -70 -60 -110 -98 -66 -64 -75 -70 -109 -67 l-37 3 109 100 c60 55 125 116 145 136 19 20 36 37 38 38 1 0 2 -18 2 -41z m-41 -165 c-24 -21 -50 -46 -58 -55 -10 -12 -29 -18 -56 -18 l-40 1 95 89 95 90 3 -35 c3 -29 -3 -39 -39 -72z m37 -59 c-3 -9 -20 -14 -48 -14 l-43 1 45 41 45 40 3 -27 c2 -15 1 -33 -2 -41z"
       id="path33" />
    <path
       d="m 619.64516,5068.1852 v -490 h 665.00004 665 v 490 490 h -665 -665.00004 z m 40,466 c 0,-3 -4,-8 -10,-11 -5,-3 -10,-1 -10,4 0,6 5,11 10,11 6,0 10,-2 10,-4 z m 50,-57 -65,-60 -3,37 c -4,49 34,83 93,83 h 40 z m 50,-48 -115,-108 -3,33 c -3,31 4,41 75,109 70,67 82,74 118,74 l 40.00004,1 z m 75,-26 c -77,-74 -152,-144 -167,-156 l -28,-20 v 31 c 0,27 17,48 128,155 119.00004,117 129.00004,124 167.00004,124 h 40.00002 z m 235.00004,131 c 0,-14 -397.00004,-376 -412.00004,-376 -37,0 -18,41 44,98 34,31 116,108 182.00004,170 103.00002,96 125,112 153,112 18,0 33,-2 33,-4 z m 110,0 c 0,-2 -48,-48 -107,-101 -60,-54 -149,-138 -200,-187 -87.00004,-83 -94.00004,-88 -135.00004,-88 h -43 l 65,58 c 36,31 128.00004,117 205.00004,189 128,121 143,133 178,133 20,0 37,-2 37,-4 z m 35,-64 c -38,-37 -130,-122 -204,-189 -120,-111 -137,-123 -170.00004,-123 l -36,1 77.00004,72 c 42,40 128,119 190,177 62,57 117,110 121,117 5,7 26,13 50,13 h 42 z m 80,-20 c -50,-48 -141,-133 -203,-190 -101.99998,-94 -114.99998,-103 -146,-100 l -35,3 167,155 c 91,85 180,170 196,188 24,26 37,32 70,32 h 41 z m 145,42 c -25,-25 -116,-111 -202,-191 -143,-130 -161,-144 -190,-141 -31,3 -30,5 107,133 77,72 164,155 195,187 48,49 60,56 95,57 l 39,1 z m 109,3 c -26,-23 -102,-94 -170,-158 -202,-188 -191,-179 -229,-179 h -35 l 85,83 c 47,45 137,130 200,189 106,99 118,107 155,107 h 40 z m 141,40 c 0,-2 -90,-88 -200,-191 -192,-180 -201,-187 -237,-184 l -37,3 104,95 c 58,52 147,137 200,187 85,83 99,93 133,93 20,0 37,-1 37,-3 z m 0,-98 c -261,-249 -297,-279 -337,-279 h -38 l 55,53 c 332,312 350,327 388,326 h 37 z m 130,23 c -46,-42 -139,-128 -205,-189 -102,-96 -125,-113 -152,-113 -18,0 -33,4 -33,9 0,5 30,35 67,67 37,33 126,114 198,181 122,115 132,123 170,123 l 40,-1 z m 110,38 c 0,-24 -13,-42 -62,-87 -34,-32 -109,-102 -166,-155 -95,-91 -106,-98 -144,-98 h -40 l 53,47 c 30,26 95,86 144,133 104,99 205,190 211,190 2,0 4,-13 4,-30 z m -106,-224 c -111,-105 -132,-119 -171,-114 -19,3 1,25 125,141 147,138 147,138 150,106 3,-29 -6,-41 -104,-133 z m 51,-47 c -62,-59 -76,-67 -118,-68 -25,-1 -18,8 70,93 l 98,94 3,-33 c 3,-29 -4,-40 -53,-86 z m 51,-56 c -3,-3 -26,-8 -52,-11 l -47,-5 49,49 49,49 3,-39 c 2,-21 1,-40 -2,-43 z m -1256.00004,-208 c -7,-8 -16,-15 -21,-15 -5,0 -9,7 -9,15 0,9 9,15 21,15 18,0 19,-2 9,-15 z m 45,-51 -70,-65 -3,38 c -2,24 1,39 9,42 7,2 22,14 33,26 15,16 33,23 61,23 l 40,1 z m 75,-25 c -52,-49 -107,-99 -122,-110 l -28,-20 v 38 c 0,32 5,42 28,55 15,9 52,42 82,72 48,50 59,56 95,56 l 40.00004,-1 z m 169.00004,65 c -13,-14 -90,-87 -171.00004,-161 l -148,-135 v 39 c 0,36 7,43 119,142 64,57 123.00004,112 129.00004,122 9,14 24,19 54,19 h 41.00002 z m 25.00002,-72 c -228.00006,-221 -298.00006,-282 -322.00006,-282 -45,0 -18,36 123,166 77,71 158.00004,148 180.00004,171 34.00002,35 46,42 80,42 l 40,1 z m 153.99998,45 c -31,-29 -103,-94 -159.99998,-146 -57.00002,-52 -123.00006,-114 -147.00006,-138 -36,-35 -51,-43 -80,-43 -36,1 -36,1 119.00004,148 85,81 173,166 195,188 35,36 46,41 85,42 l 45,1 z m 91,-10 c -325,-304 -341,-317 -378.00004,-316 h -36 l 120.00004,112 c 65.00002,62 155,147 200,189 73,71 84,78 120,77 h 40 z m 161,60 c 0,-2 -66,-66 -147,-142 -82,-76 -171,-160 -200,-187 -45.99998,-44 -56.99998,-49 -90,-46 l -37,3 159,146 c 88,81 178,165 200,188 32,34 46,41 77,41 21,0 38,-2 38,-3 z m 98,-5 c -3,-7 -244,-235 -343,-324 -44,-40 -60,-48 -92,-48 l -38,1 90,82 c 49,45 141,130 204,190 99,93 119,107 148,107 19,0 33,-3 31,-8 z m 97,-11 c -11,-11 -103,-96 -205,-190 -173,-160 -187,-171 -223,-171 h -39 l 78,73 c 43,39 135,125 204,189 116,109 128,118 165,118 39,0 39,0 20,-19 z m 59,-39 c -340,-322 -340,-322 -384,-322 h -42 l 53,48 c 30,26 121,111 204,189 142,135 152,143 190,143 h 40 z m 81,-20 c -44,-42 -135,-128 -203,-190 -112,-105 -124,-113 -157,-110 l -35,3 167,155 c 92,85 181,169 198,187 24,25 38,32 70,32 l 40,1 z m 92,-10 c -51,-49 -138,-130 -194,-181 -56,-50 -105,-96 -108,-101 -6,-9 -75,-15 -75,-6 0,6 164,164 285,274 97,89 114,101 147,101 l 37,1 z m 51,-49 c -35,-33 -109,-101 -165,-152 -90,-81 -106,-92 -135,-89 -31,3 -30,5 108,133 76,72 164,155 194,185 l 55,55 3,-36 c 3,-33 -3,-42 -60,-96 z m 62,-5 c -1,-38 -5,-47 -38,-71 -20,-16 -70,-60 -110,-98 -66,-64 -75,-70 -109,-67 l -37,3 109,100 c 60,55 125,116 145,136 19,20 36,37 38,38 1,0 2,-18 2,-41 z m -41,-165 c -24,-21 -50,-46 -58,-55 -10,-12 -29,-18 -56,-18 l -40,1 95,89 95,90 3,-35 c 3,-29 -3,-39 -39,-72 z m 37,-59 c -3,-9 -20,-14 -48,-14 l -43,1 45,41 45,40 3,-27 c 2,-15 1,-33 -2,-41 z"
       id="path33-1" />
    <path
       d="m 1944.1995,5067.9725 v -490 h -665 -664.99999 v 490 490 h 664.99999 665 z m -40,466 c 0,-3 4,-8 10,-11 5,-3 10,-1 10,4 0,6 -5,11 -10,11 -6,0 -10,-2 -10,-4 z m -50,-57 65,-60 3,37 c 4,49 -34,83 -93,83 h -40 z m -50,-48 115,-108 3,33 c 3,31 -4,41 -75,109 -70,67 -82,74 -118,74 l -40,1 z m -75,-26 c 77,-74 152,-144 167,-156 l 28,-20 v 31 c 0,27 -17,48 -128,155 -119,117 -129,124 -167,124 h -40 z m -235,131 c 0,-14 397,-376 412,-376 37,0 18,41 -44,98 -34,31 -116,108 -182,170 -103,96 -125,112 -153,112 -18,0 -33,-2 -33,-4 z m -110,0 c 0,-2 48,-48 107,-101 60,-54 149,-138 200,-187 87,-83 94,-88 135,-88 h 43 l -65,58 c -36,31 -128,117 -205,189 -128,121 -143,133 -178,133 -20,0 -37,-2 -37,-4 z m -35,-64 c 38,-37 130,-122 204,-189 120,-111 137,-123 170,-123 l 36,1 -77,72 c -42,40 -128,119 -190,177 -62,57 -117,110 -121,117 -5,7 -26,13 -50,13 h -42 z m -80,-20 c 50,-48 141,-133 203,-190 102,-94 115,-103 146,-100 l 35,3 -167,155 c -91,85 -180,170 -196,188 -24,26 -37,32 -70,32 h -41 z m -145,42 c 25,-25 116,-111 202,-191 143,-130 161,-144 190,-141 31,3 30,5 -107,133 -77,72 -164,155 -195,187 -48,49 -60,56 -95,57 l -39,1 z m -109,3 c 26,-23 102,-94 170,-158 202,-188 191,-179 229,-179 h 35 l -85,83 c -47,45 -137,130 -200,189 -106,99 -118,107 -155,107 h -39.99999 z m -140.99999,40 c 0,-2 90,-88 199.99999,-191 192,-180 201,-187 237,-184 l 37,3 -104,95 c -58,52 -147,137 -200,187 -84.99999,83 -98.99999,93 -132.99999,93 -20,0 -37,-1 -37,-3 z m 0,-98 c 260.99999,-249 296.99999,-279 336.99999,-279 h 38 l -55,53 c -331.99999,312 -349.99999,327 -387.99999,326 h -37 z m -130,23 c 46,-42 139,-128 205,-189 101.99999,-96 124.99999,-113 151.99999,-113 18,0 33,4 33,9 0,5 -30,35 -67,67 -37,33 -125.99999,114 -197.99999,181 -122,115 -132,123 -170,123 l -40,-1 z m -110,38 c 0,-24 13,-42 62,-87 34,-32 109,-102 166,-155 95,-91 106,-98 143.99999,-98 h 40 l -52.99997,47 c -30.00002,26 -95.00002,86 -144.00002,133 -104,99 -205,190 -211,190 -2,0 -4,-13 -4,-30 z m 106,-224 c 111,-105 132,-119 171,-114 19,3 -1,25 -125,141 -147,138 -147,138 -150,106 -3,-29 6,-41 104,-133 z m -51,-47 c 62,-59 76,-67 118,-68 25,-1 18,8 -70,93 l -98,94 -3,-33 c -3,-29 4,-40 53,-86 z m -51,-56 c 3,-3 26,-8 52,-11 l 47,-5 -49,49 -49,49 -3,-39 c -2,-21 -1,-40 2,-43 z m 1255.99999,-208 c 7,-8 16,-15 21,-15 5,0 9,7 9,15 0,9 -9,15 -21,15 -18,0 -19,-2 -9,-15 z m -45,-51 70,-65 3,38 c 2,24 -1,39 -9,42 -7,2 -22,14 -33,26 -15,16 -33,23 -61,23 l -40,1 z m -75,-25 c 52,-49 107,-99 122,-110 l 28,-20 v 38 c 0,32 -5,42 -28,55 -15,9 -52,42 -82,72 -48,50 -59,56 -95,56 l -40,-1 z m -169,65 c 13,-14 90,-87 171,-161 l 148,-135 v 39 c 0,36 -7,43 -119,142 -64,57 -123,112 -129,122 -9,14 -24,19 -54,19 h -41 z m -25,-72 c 228,-221 298,-282 322,-282 45,0 18,36 -123,166 -77,71 -158,148 -180,171 -34,35 -46,42 -80,42 l -40,1 z m -154,45 c 31,-29 103,-94 160,-146 57,-52 123,-114 147,-138 36,-35 51,-43 80,-43 36,1 36,1 -119,148 -85,81 -173,166 -195,188 -35,36 -46,41 -85,42 l -45,1 z m -91,-10 c 325,-304 341,-317 378,-316 h 36 l -120,112 c -65,62 -155,147 -200,189 -73,71 -84,78 -120,77 h -40 z m -161,60 c 0,-2 66,-66 147,-142 82,-76 171,-160 200,-187 46,-44 57,-49 90,-46 l 37,3 -159,146 c -88,81 -178,165 -200,188 -32,34 -46,41 -77,41 -21,0 -38,-2 -38,-3 z m -98,-5 c 3,-7 244,-235 343,-324 44,-40 60,-48 92,-48 l 38,1 -90,82 c -49,45 -141,130 -204,190 -99,93 -119,107 -148,107 -19,0 -33,-3 -31,-8 z m -96.99997,-11 c 11,-11 102.99997,-96 204.99997,-190 173,-160 187,-171 223,-171 h 39 l -78,73 c -43,39 -135,125 -204,189 -116,109 -128,118 -164.99997,118 -39.00002,0 -39.00002,0 -20,-19 z m -59.00002,-39 c 339.99999,-322 339.99999,-322 383.99999,-322 h 42 l -53,48 c -30,26 -121,111 -204,189 -141.99999,135 -151.99999,143 -189.99999,143 h -40 z m -81,-20 c 44,-42 135.00002,-128 202.99999,-190 112,-105 124,-113 157,-110 l 35,3 -167,155 c -91.99997,85 -180.99999,169 -197.99999,187 -24,25 -38,32 -70,32 l -40,1 z m -92,-10 c 51,-49 138,-130 194,-181 56.00002,-50 104.99999,-96 107.99999,-101 6,-9 75,-15 75,-6 0,6 -163.99999,164 -284.99999,274 -97,89 -114,101 -147,101 l -37,1 z m -51,-49 c 35,-33 109,-101 165,-152 90,-81 106,-92 135.00002,-89 30.99997,3 29.99997,5 -108.00002,133 -76,72 -164,155 -194,185 l -55,55 -3,-36 c -3,-33 3,-42 60,-96 z m -62,-5 c 1,-38 5,-47 38,-71 20,-16 70,-60 110,-98 66,-64 75,-70 109,-67 l 37,3 -109,100 c -60,55 -125,116 -145,136 -19,20 -36,37 -38,38 -1,0 -2,-18 -2,-41 z m 41,-165 c 24,-21 50,-46 58,-55 10,-12 29,-18 56,-18 l 40,1 -95,89 -95,90 -3,-35 c -3,-29 3,-39 39,-72 z m -37,-59 c 3,-9 20,-14 48,-14 l 43,1 -45,41 -45,40 -3,-27 c -2,-15 -1,-33 2,-41 z"
       id="path33-1-7" />
    <path
       d="M5080 2870 l0 -670 803 0 802 1 55 50 c30 28 114 101 186 164 246 214 384 380 384 462 0 35 -53 126 -118 202 -55 65 -436 406 -490 438 l-37 23 -792 0 -793 0 0 -670z m1605 638 c31 -18 71 -51 266 -224 224 -198 339 -339 339 -414 0 -73 -155 -255 -380 -446 -58 -49 -133 -115 -167 -146 l-62 -58 -791 0 -790 0 0 650 0 649 118 4 c64 2 414 3 777 3 603 -1 663 -2 690 -18z"
       id="path34" />
    <path
       d="M5523 3363 l-283 -3 0 -490 0 -490 660 0 660 0 0 490 0 490 -177 0 c-98 0 -268 2 -378 3 -110 2 -327 2 -482 0z m287 -493 l0 -470 -275 0 -275 0 0 470 0 470 275 0 275 0 0 -470z m730 0 l0 -470 -275 0 -275 0 0 448 c0 246 3 457 6 470 l6 22 269 0 269 0 0 -470z"
       id="path35" />
    <path
       d="M7500 2870 l0 -670 794 0 795 0 70 58 c209 171 463 415 518 499 66 99 53 175 -54 307 -45 55 -383 361 -487 439 l-48 37 -794 0 -794 0 0 -670z m1607 635 c38 -24 307 -261 416 -364 43 -42 98 -105 123 -142 84 -122 70 -184 -74 -340 -64 -69 -342 -323 -450 -412 l-34 -27 -784 0 -784 0 0 650 0 649 78 4 c42 2 392 3 777 3 682 -1 701 -2 732 -21z"
       id="path36" />
    <path
       d="M7923 3363 l-273 -3 0 -490 0 -490 665 0 665 0 0 490 0 490 -275 0 -275 0 1 -32 c1 -24 3 -27 6 -10 4 18 11 22 39 22 42 0 43 -13 5 -41 -27 -20 -41 -48 -46 -91 -1 -9 2 -15 7 -12 4 3 8 13 8 22 0 9 23 41 51 70 38 39 57 52 80 52 16 0 29 -4 29 -9 0 -8 -85 -86 -169 -158 -9 -7 -9 -63 0 -63 6 0 9 7 7 15 -2 9 42 58 102 115 81 77 111 100 133 100 15 0 27 -4 27 -9 0 -6 -63 -67 -140 -137 -77 -69 -140 -133 -140 -140 0 -8 -4 -14 -8 -14 -4 0 -6 74 -4 165 l4 165 -113 -2 c-63 -2 -237 -4 -386 -5z m-213 -63 c5 0 10 9 10 20 0 16 7 20 35 20 19 0 35 -3 35 -7 0 -12 -87 -93 -99 -93 -7 0 -11 21 -10 53 0 41 2 47 9 30 5 -13 14 -23 20 -23z m180 33 c0 -13 -84 -93 -97 -93 -7 0 -13 -4 -13 -9 0 -14 -73 -81 -87 -81 -8 0 -13 14 -13 35 0 23 4 33 13 30 6 -2 39 24 72 59 48 51 66 64 93 65 17 0 32 -2 32 -6z m100 -2 c0 -10 -179 -181 -190 -181 -4 0 -13 6 -19 14 -10 12 2 29 66 94 63 64 84 79 111 80 17 1 32 -2 32 -7z m25 -79 c-191 -184 -217 -205 -227 -191 -8 11 -8 10 -4 -4 6 -18 -44 -74 -86 -98 -16 -8 -18 -5 -18 26 0 22 6 38 15 41 18 7 142 122 250 230 72 74 84 81 120 82 l40 2 -90 -88z m196 -34 c0 -68 2 -277 3 -465 4 -372 4 -368 -50 -318 -29 27 -46 26 -24 0 17 -21 9 -27 -35 -23 l-36 3 38 41 c21 22 47 46 58 52 20 12 20 12 -5 31 -27 21 -40 20 -21 -2 15 -19 -19 -50 -44 -41 -14 6 -16 3 -11 -13 4 -13 0 -26 -12 -36 -18 -16 -20 -16 -38 4 -18 20 -18 21 56 89 41 38 78 69 83 70 4 0 7 5 7 10 0 26 -34 2 -127 -90 -101 -100 -101 -101 -117 -79 -15 22 -13 25 77 109 51 48 108 101 128 118 20 18 39 41 42 53 6 24 -23 -2 -210 -182 -118 -113 -122 -116 -139 -98 -16 18 -13 23 92 122 60 57 144 134 187 171 70 61 90 86 70 86 -9 0 -125 -104 -278 -247 -54 -51 -104 -93 -110 -93 -6 0 -15 -10 -20 -22 -12 -28 -40 -35 -49 -12 -7 19 31 58 296 301 143 132 181 173 159 173 -4 0 -18 -12 -32 -26 -13 -15 -85 -81 -159 -149 -74 -67 -166 -153 -205 -189 -96 -92 -105 -96 -105 -51 0 21 5 35 13 35 6 0 77 62 157 138 280 266 350 338 349 358 0 18 -1 18 -11 -2 -10 -22 -300 -296 -369 -349 -22 -16 -42 -37 -45 -47 -3 -10 -12 -18 -19 -18 -8 0 -19 -9 -25 -20 -6 -11 -19 -24 -30 -30 -18 -10 -20 -7 -20 22 0 27 8 40 48 71 26 21 83 73 127 115 44 43 140 133 213 201 72 68 132 130 132 139 0 8 -33 -17 -72 -55 -40 -39 -129 -121 -197 -184 -68 -63 -149 -138 -180 -166 -31 -29 -59 -53 -63 -53 -5 0 -8 18 -8 40 0 28 4 40 14 40 16 0 58 36 205 176 106 100 199 185 249 226 38 31 38 34 12 48 -15 8 -18 8 -14 -3 3 -8 -28 -42 -73 -83 -43 -38 -118 -107 -168 -154 -134 -126 -207 -190 -216 -190 -5 0 -9 16 -9 35 0 23 5 35 14 35 13 0 208 176 390 353 73 70 82 76 93 61 11 -15 13 -16 13 -2 0 9 -16 30 -35 47 -19 17 -35 33 -35 36 0 3 20 5 45 5 l45 0 1 -122z m599 113 c0 -5 -85 -89 -190 -187 -104 -97 -190 -183 -190 -191 0 -13 102 78 333 299 80 77 97 88 127 88 l35 0 -87 -86 c-49 -47 -88 -89 -88 -95 0 -5 -6 -9 -12 -9 -13 0 -39 -23 -168 -144 -36 -33 -82 -76 -103 -94 -20 -18 -37 -40 -37 -49 0 -10 18 0 53 33 29 27 106 99 171 159 66 61 144 134 175 163 51 50 56 53 68 36 7 -10 13 -21 13 -24 0 -3 -39 -42 -87 -85 -49 -44 -133 -123 -188 -175 -55 -53 -124 -116 -154 -142 -29 -25 -51 -52 -49 -59 4 -13 52 29 238 206 58 55 143 135 190 177 l85 77 -23 24 c-28 29 -27 31 3 61 l25 25 0 -100 c0 -69 -3 -98 -11 -94 -6 4 -18 -1 -28 -11 -10 -11 -122 -116 -249 -234 -172 -159 -232 -220 -232 -237 0 -13 4 -23 10 -23 5 0 7 6 4 13 -3 8 16 33 43 57 26 24 86 80 133 125 115 110 319 295 325 295 3 0 5 -81 5 -179 0 -145 -3 -180 -14 -183 -14 -3 -221 -191 -282 -255 -17 -18 -34 -33 -38 -33 -4 0 -16 -10 -26 -22 -18 -22 -20 -22 -37 -5 -17 16 -15 20 44 77 35 33 115 108 180 167 65 59 129 117 143 130 13 12 21 25 17 29 -6 6 -134 -105 -259 -225 -51 -48 -59 -53 -74 -40 -15 12 -16 12 -10 -8 4 -14 1 -26 -9 -35 -8 -7 -37 -34 -64 -60 -27 -27 -52 -48 -55 -48 -3 0 -10 9 -16 19 -8 16 -1 28 52 78 34 32 82 78 107 103 25 24 64 60 86 78 86 73 245 225 245 234 0 17 -17 4 -112 -87 -145 -138 -261 -240 -270 -237 -4 1 -8 -4 -8 -11 0 -13 -82 -87 -96 -87 -4 0 -4 3 -1 7 4 3 2 12 -4 20 -12 14 9 37 191 203 249 227 321 300 296 300 -3 0 -58 -51 -123 -114 -65 -62 -138 -130 -163 -151 -24 -20 -49 -43 -55 -50 -5 -7 -39 -38 -75 -70 -79 -69 -106 -111 -84 -132 10 -10 11 -19 4 -33 -14 -27 -12 -58 4 -67 8 -4 15 -12 15 -18 2 -20 17 -14 38 16 l21 31 17 -26 c22 -33 40 -33 69 -1 l23 24 22 -29 22 -30 -73 -1 c-40 0 -99 -2 -131 -4 l-58 -3 5 311 4 311 104 95 c56 53 130 123 163 157 47 48 67 61 93 63 17 0 32 -3 32 -8z m-670 -36 c11 -13 9 -19 -10 -35 -19 -16 -26 -18 -39 -7 -14 10 -14 10 -4 -4 11 -14 1 -27 -74 -95 -48 -43 -134 -123 -191 -176 -56 -54 -112 -102 -122 -108 -18 -10 -20 -7 -20 25 0 22 5 35 13 35 12 0 158 133 331 302 44 43 85 78 92 78 6 0 17 -7 24 -15z m-362 -151 c2 -13 -13 -32 -42 -57 -25 -20 -47 -37 -50 -37 -3 0 -6 15 -6 34 0 25 5 36 19 41 10 3 27 15 36 25 22 24 39 21 43 -6z m1172 -433 c0 -28 -4 -38 -14 -37 -8 0 -59 -43 -114 -96 -75 -74 -102 -94 -110 -86 -7 7 -12 9 -12 4 0 -4 14 -21 30 -38 39 -39 38 -48 -7 -47 -30 0 -43 7 -62 31 l-25 31 85 79 c97 92 217 198 224 198 3 0 5 -17 5 -39z m0 -96 c0 -42 -2 -45 -19 -36 -15 9 -20 7 -24 -10 -3 -11 -15 -23 -26 -26 -12 -3 -21 -11 -21 -17 0 -7 -6 -21 -14 -31 -11 -16 -16 -17 -29 -7 -13 11 -15 10 -11 -5 3 -11 -3 -26 -14 -36 -18 -16 -20 -16 -37 3 -18 20 -18 21 36 74 61 59 148 136 155 136 2 0 4 -20 4 -45z m2 -122 c-6 -17 -17 -16 -36 3 -22 22 -20 39 7 51 19 9 23 7 28 -16 3 -14 3 -32 1 -38z m-54 -4 c23 -37 -20 -67 -48 -34 -10 13 -10 19 5 35 23 25 27 25 43 -1z m-1176 -53 c17 -23 17 -24 -8 -30 -34 -9 -41 -2 -36 33 5 33 18 32 44 -3z m95 -27 c-12 -3 -30 -2 -40 3 -18 9 -18 11 4 34 l23 24 18 -27 c18 -28 17 -28 -5 -34z m112 0 c-18 -11 -30 -11 -48 0 -11 7 -10 13 4 35 l17 26 21 -26 c16 -22 18 -27 6 -35z m99 32 l21 -29 -29 -4 c-44 -7 -55 5 -35 36 10 14 18 26 19 26 1 0 12 -13 24 -29z m928 -28 c-6 -15 -52 -18 -60 -4 -3 5 6 21 21 37 l26 28 9 -24 c5 -13 6 -30 4 -37z m-102 22 c14 -21 14 -25 2 -25 -8 0 -20 -2 -28 -5 -7 -3 -20 -1 -28 4 -12 8 -12 13 4 30 24 27 30 26 50 -4z"
       id="path37" />
    <path
       d="m 3240.169,7015.7458 291,-2 -3,-488 -2,-487 -666,-3 -666,-2 2,489 3,489 375,4 c 206,2 506,2 666,0 z m 244,-26 c 0,-2 7,-9 15,-16 12,-10 15,-10 15,4 0,9 -7,16 -15,16 -8,0 -15,-2 -15,-4 z m -48,-51 c 31,-30 61,-55 67,-55 20,0 12,36 -17,73 -23,31 -33,36 -67,36 l -40,1 z m -112,4 c 111,-101 177,-159 184,-159 3,0 6,13 6,30 0,21 -9,38 -32,57 -18,16 -55,49 -83,75 -42,40 -56,48 -90,47 h -40 z m -110,8 c 245,-231 290,-269 296,-252 12,31 -10,60 -136,178 -116,107 -128,116 -165,116 l -40,1 z m -75,-25 c 38,-37 135,-127 215,-201 l 145,-134 3,34 c 3,30 -2,40 -46,79 -204,187 -279,257 -290,272 -9,12 -26,18 -55,18 h -42 z m -134,32 c 33,-36 283,-268 421,-391 38,-35 73,-63 78,-63 17,0 11,49 -8,68 -10,9 -101,94 -203,187 -101,94 -198,185 -214,202 -24,26 -38,33 -69,33 h -40 z m -252,24 c 0,-10 -2,-10 -6,0 -3,7 -22,12 -46,12 h -41 l 30,-31 c 16,-17 42,-40 57,-51 l 28,-20 -2,51 c -2,28 -6,51 -11,51 -4,0 -8,-6 -9,-12 z m -89,-90 105,-100 3,35 c 3,31 -2,41 -38,73 -101,91 -105,94 -140,93 h -35 z m -185,74 c 90,-86 284,-262 289,-262 3,0 6,13 6,29 0,24 -20,48 -123,145 -113,108 -125,116 -162,116 h -40 z m -125,25 c 0,-5 325,-307 381,-355 l 39,-34 v 35 c 0,31 -14,47 -173,195 -158,148 -175,161 -210,161 -20,1 -37,-1 -37,-2 z m -35,-65 c 123,-118 409,-381 432,-397 23,-16 23,-15 23,18 0,25 -7,39 -23,50 -12,9 -112,101 -222,206 -190,181 -202,190 -240,190 l -40,1 z m -58,-42 c 122,-114 432,-401 471,-435 l 43,-39 -3,40 c -3,37 -13,48 -153,176 -83,75 -206,188 -275,251 l -125,115 -3,-31 c -3,-27 4,-39 45,-77 z m 693,56 c 0,-32 13,-47 161,-183 347,-319 384,-353 391,-353 5,0 8,13 8,30 0,22 -11,39 -42,67 -23,21 -96,88 -161,148 -229,211 -352,325 -355,325 -1,0 -2,-15 -2,-34 z m -740,-76 c 0,-24 13,-42 67,-93 37,-34 108,-100 158,-147 192,-180 324,-300 329,-300 3,0 6,13 6,28 0,23 -20,47 -98,123 -144,139 -451,419 -459,419 -2,0 -3,-14 -3,-30 z m 772,-84 c 48,-41 360,-329 444,-408 39,-38 74,-68 77,-68 12,0 8,56 -6,71 -15,19 -350,329 -460,426 l -82,72 -3,-32 c -3,-26 3,-37 30,-61 z m -772,-9 c 0,-29 16,-48 167,-187 92,-85 214,-199 272,-252 58,-54 108,-98 113,-98 4,0 8,12 8,27 0,33 10,22 -498,490 -31,29 -58,52 -60,53 -1,0 -2,-15 -2,-33 z m 740,-20 c 0,-31 15,-48 167,-188 91,-85 214,-198 272,-251 58,-54 108,-98 113,-98 9,0 11,31 2,53 -3,8 -76,80 -162,158 -85,79 -208,192 -271,252 -63,59 -117,107 -118,107 -2,0 -3,-15 -3,-33 z m -740,-76 c 0,-30 39,-72 258,-272 256,-234 297,-269 300,-253 8,36 -13,64 -120,161 -62,56 -183,167 -268,247 -85,80 -158,145 -163,145 -4,1 -7,-12 -7,-28 z m 740,-25 c 0,-26 7,-40 29,-58 16,-13 101,-90 190,-173 197,-182 324,-295 332,-295 3,0 3,15 0,34 -5,27 -39,63 -201,212 -107,98 -227,209 -265,246 -39,37 -73,68 -78,68 -4,0 -7,-15 -7,-34 z m -740,-73 c 0,-33 7,-43 53,-82 59,-49 382,-347 439,-403 43,-44 68,-49 68,-14 0,18 -26,48 -102,118 -57,51 -141,129 -188,174 -84,80 -263,243 -268,244 -1,0 -2,-17 -2,-37 z m 747,-56 c 4,-7 44,-45 88,-84 44,-39 156,-141 249,-227 118,-108 177,-156 193,-156 13,0 23,6 23,14 0,13 -147,153 -449,428 -104,95 -106,96 -109,68 -2,-16 0,-36 5,-43 z m -690,-120 c 32,-28 96,-88 143,-132 223,-210 230,-215 267,-215 32,0 34,2 22,17 -18,21 -306,288 -407,376 l -77,67 -3,-30 c -3,-26 5,-38 55,-83 z m 745,-25 c 35,-31 103,-95 153,-141 49,-47 113,-107 142,-133 46,-43 57,-49 90,-46 l 37,3 -162,150 c -90,83 -198,180 -240,218 l -77,67 -3,-31 c -3,-27 5,-38 60,-87 z m -764,-52 c 22,-19 96,-88 165,-153 120,-112 128,-118 163,-115 l 38,3 -94,85 c -51,47 -141,129 -199,184 l -106,99 -3,-34 c -3,-29 2,-39 36,-69 z m 750,-30 c 27,-25 97,-89 154,-142 96,-89 109,-98 144,-98 l 39,1 -85,77 c -47,42 -132,122 -190,176 l -105,100 -3,-35 c -3,-30 2,-39 46,-79 z m -788,-2 c 1,-29 14,-45 115,-136 106,-95 117,-103 151,-100 l 36,3 -144,132 c -79,72 -146,132 -151,132 -4,1 -7,-14 -7,-31 z m 740,-15 c 0,-35 7,-44 103,-130 92,-83 106,-93 141,-93 h 39 l -64,57 c -35,32 -98,90 -139,130 -41,40 -76,73 -78,73 -1,0 -2,-17 -2,-37 z m -678,-165 c 54,-50 69,-58 102,-58 h 40 l -60,53 c -32,28 -77,69 -99,89 l -40,37 -3,-32 c -3,-28 4,-39 60,-89 z m 678,65 c 1,-34 7,-43 55,-81 44,-35 60,-43 88,-40 l 35,3 -87,77 c -47,42 -87,77 -89,78 -1,0 -2,-17 -2,-37 z m -736,-109 c 3,-9 20,-14 48,-14 l 43,1 -45,42 -45,42 -3,-28 c -2,-16 -1,-35 2,-43 z m 736,16 c 0,-28 2,-30 37,-30 l 38,1 -33,29 c -18,17 -34,30 -37,30 -3,0 -5,-13 -5,-30 z"
       id="path31-6-6" />
    <path
       d="m 2471.8734,7015.0708 -273,-3 v -490 -490 h 665 665 v 490 490 h -275 -275 l 1,-32 c 1,-24 3,-27 6,-10 4,18 11,22 39,22 42,0 43,-13 5,-41 -27,-20 -41,-48 -46,-91 -1,-9 2,-15 7,-12 4,3 8,13 8,22 0,9 23,41 51,70 38,39 57,52 80,52 16,0 29,-4 29,-9 0,-8 -85,-86 -169,-158 -9,-7 -9,-63 0,-63 6,0 9,7 7,15 -2,9 42,58 102,115 81,77 111,100 133,100 15,0 27,-4 27,-9 0,-6 -63,-67 -140,-137 -77,-69 -140,-133 -140,-140 0,-8 -4,-14 -8,-14 -4,0 -6,74 -4,165 l 4,165 -113,-2 c -63,-2 -237,-4 -386,-5 z m -213,-63 c 5,0 10,9 10,20 0,16 7,20 35,20 19,0 35,-3 35,-7 0,-12 -87,-93 -99,-93 -7,0 -11,21 -10,53 0,41 2,47 9,30 5,-13 14,-23 20,-23 z m 180,33 c 0,-13 -84,-93 -97,-93 -7,0 -13,-4 -13,-9 0,-14 -73,-81 -87,-81 -8,0 -13,14 -13,35 0,23 4,33 13,30 6,-2 39,24 72,59 48,51 66,64 93,65 17,0 32,-2 32,-6 z m 100,-2 c 0,-10 -179,-181 -190,-181 -4,0 -13,6 -19,14 -10,12 2,29 66,94 63,64 84,79 111,80 17,1 32,-2 32,-7 z m 25,-79 c -191,-184 -217,-205 -227,-191 -8,11 -8,10 -4,-4 6,-18 -44,-74 -86,-98 -16,-8 -18,-5 -18,26 0,22 6,38 15,41 18,7 142,122 250,230 72,74 84,81 120,82 l 40,2 z m 196,-34 c 0,-68 2,-277 3,-465 4,-372 4,-368 -50,-318 -29,27 -46,26 -24,0 17,-21 9,-27 -35,-23 l -36,3 38,41 c 21,22 47,46 58,52 20,12 20,12 -5,31 -27,21 -40,20 -21,-2 15,-19 -19,-50 -44,-41 -14,6 -16,3 -11,-13 4,-13 0,-26 -12,-36 -18,-16 -20,-16 -38,4 -18,20 -18,21 56,89 41,38 78,69 83,70 4,0 7,5 7,10 0,26 -34,2 -127,-90 -101,-100 -101,-101 -117,-79 -15,22 -13,25 77,109 51,48 108,101 128,118 20,18 39,41 42,53 6,24 -23,-2 -210,-182 -118,-113 -122,-116 -139,-98 -16,18 -13,23 92,122 60,57 144,134 187,171 70,61 90,86 70,86 -9,0 -125,-104 -278,-247 -54,-51 -104,-93 -110,-93 -6,0 -15,-10 -20,-22 -12,-28 -40,-35 -49,-12 -7,19 31,58 296,301 143,132 181,173 159,173 -4,0 -18,-12 -32,-26 -13,-15 -85,-81 -159,-149 -74,-67 -166,-153 -205,-189 -96,-92 -105,-96 -105,-51 0,21 5,35 13,35 6,0 77,62 157,138 280,266 350,338 349,358 0,18 -1,18 -11,-2 -10,-22 -300,-296 -369,-349 -22,-16 -42,-37 -45,-47 -3,-10 -12,-18 -19,-18 -8,0 -19,-9 -25,-20 -6,-11 -19,-24 -30,-30 -18,-10 -20,-7 -20,22 0,27 8,40 48,71 26,21 83,73 127,115 44,43 140,133 213,201 72,68 132,130 132,139 0,8 -33,-17 -72,-55 -40,-39 -129,-121 -197,-184 -68,-63 -149,-138 -180,-166 -31,-29 -59,-53 -63,-53 -5,0 -8,18 -8,40 0,28 4,40 14,40 16,0 58,36 205,176 106,100 199,185 249,226 38,31 38,34 12,48 -15,8 -18,8 -14,-3 3,-8 -28,-42 -73,-83 -43,-38 -118,-107 -168,-154 -134,-126 -207,-190 -216,-190 -5,0 -9,16 -9,35 0,23 5,35 14,35 13,0 208,176 390,353 73,70 82,76 93,61 11,-15 13,-16 13,-2 0,9 -16,30 -35,47 -19,17 -35,33 -35,36 0,3 20,5 45,5 h 45 z m 599,113 c 0,-5 -85,-89 -190,-187 -104,-97 -190,-183 -190,-191 0,-13 102,78 333,299 80,77 97,88 127,88 h 35 l -87,-86 c -49,-47 -88,-89 -88,-95 0,-5 -6,-9 -12,-9 -13,0 -39,-23 -168,-144 -36,-33 -82,-76 -103,-94 -20,-18 -37,-40 -37,-49 0,-10 18,0 53,33 29,27 106,99 171,159 66,61 144,134 175,163 51,50 56,53 68,36 7,-10 13,-21 13,-24 0,-3 -39,-42 -87,-85 -49,-44 -133,-123 -188,-175 -55,-53 -124,-116 -154,-142 -29,-25 -51,-52 -49,-59 4,-13 52,29 238,206 58,55 143,135 190,177 l 85,77 -23,24 c -28,29 -27,31 3,61 l 25,25 v -100 c 0,-69 -3,-98 -11,-94 -6,4 -18,-1 -28,-11 -10,-11 -122,-116 -249,-234 -172,-159 -232,-220 -232,-237 0,-13 4,-23 10,-23 5,0 7,6 4,13 -3,8 16,33 43,57 26,24 86,80 133,125 115,110 319,295 325,295 3,0 5,-81 5,-179 0,-145 -3,-180 -14,-183 -14,-3 -221,-191 -282,-255 -17,-18 -34,-33 -38,-33 -4,0 -16,-10 -26,-22 -18,-22 -20,-22 -37,-5 -17,16 -15,20 44,77 35,33 115,108 180,167 65,59 129,117 143,130 13,12 21,25 17,29 -6,6 -134,-105 -259,-225 -51,-48 -59,-53 -74,-40 -15,12 -16,12 -10,-8 4,-14 1,-26 -9,-35 -8,-7 -37,-34 -64,-60 -27,-27 -52,-48 -55,-48 -3,0 -10,9 -16,19 -8,16 -1,28 52,78 34,32 82,78 107,103 25,24 64,60 86,78 86,73 245,225 245,234 0,17 -17,4 -112,-87 -145,-138 -261,-240 -270,-237 -4,1 -8,-4 -8,-11 0,-13 -82,-87 -96,-87 -4,0 -4,3 -1,7 4,3 2,12 -4,20 -12,14 9,37 191,203 249,227 321,300 296,300 -3,0 -58,-51 -123,-114 -65,-62 -138,-130 -163,-151 -24,-20 -49,-43 -55,-50 -5,-7 -39,-38 -75,-70 -79,-69 -106,-111 -84,-132 10,-10 11,-19 4,-33 -14,-27 -12,-58 4,-67 8,-4 15,-12 15,-18 2,-20 17,-14 38,16 l 21,31 17,-26 c 22,-33 40,-33 69,-1 l 23,24 22,-29 22,-30 -73,-1 c -40,0 -99,-2 -131,-4 l -58,-3 5,311 4,311 104,95 c 56,53 130,123 163,157 47,48 67,61 93,63 17,0 32,-3 32,-8 z m -670,-36 c 11,-13 9,-19 -10,-35 -19,-16 -26,-18 -39,-7 -14,10 -14,10 -4,-4 11,-14 1,-27 -74,-95 -48,-43 -134,-123 -191,-176 -56,-54 -112,-102 -122,-108 -18,-10 -20,-7 -20,25 0,22 5,35 13,35 12,0 158,133 331,302 44,43 85,78 92,78 6,0 17,-7 24,-15 z m -362,-151 c 2,-13 -13,-32 -42,-57 -25,-20 -47,-37 -50,-37 -3,0 -6,15 -6,34 0,25 5,36 19,41 10,3 27,15 36,25 22,24 39,21 43,-6 z m 1172,-433 c 0,-28 -4,-38 -14,-37 -8,0 -59,-43 -114,-96 -75,-74 -102,-94 -110,-86 -7,7 -12,9 -12,4 0,-4 14,-21 30,-38 39,-39 38,-48 -7,-47 -30,0 -43,7 -62,31 l -25,31 85,79 c 97,92 217,198 224,198 3,0 5,-17 5,-39 z m 0,-96 c 0,-42 -2,-45 -19,-36 -15,9 -20,7 -24,-10 -3,-11 -15,-23 -26,-26 -12,-3 -21,-11 -21,-17 0,-7 -6,-21 -14,-31 -11,-16 -16,-17 -29,-7 -13,11 -15,10 -11,-5 3,-11 -3,-26 -14,-36 -18,-16 -20,-16 -37,3 -18,20 -18,21 36,74 61,59 148,136 155,136 2,0 4,-20 4,-45 z m 2,-122 c -6,-17 -17,-16 -36,3 -22,22 -20,39 7,51 19,9 23,7 28,-16 3,-14 3,-32 1,-38 z m -54,-4 c 23,-37 -20,-67 -48,-34 -10,13 -10,19 5,35 23,25 27,25 43,-1 z m -1176,-53 c 17,-23 17,-24 -8,-30 -34,-9 -41,-2 -36,33 5,33 18,32 44,-3 z m 95,-27 c -12,-3 -30,-2 -40,3 -18,9 -18,11 4,34 l 23,24 18,-27 c 18,-28 17,-28 -5,-34 z m 112,0 c -18,-11 -30,-11 -48,0 -11,7 -10,13 4,35 l 17,26 21,-26 c 16,-22 18,-27 6,-35 z m 99,32 21,-29 -29,-4 c -44,-7 -55,5 -35,36 10,14 18,26 19,26 1,0 12,-13 24,-29 z m 928,-28 c -6,-15 -52,-18 -60,-4 -3,5 6,21 21,37 l 26,28 9,-24 c 5,-13 6,-30 4,-37 z m -102,22 c 14,-21 14,-25 2,-25 -8,0 -20,-2 -28,-5 -7,-3 -20,-1 -28,4 -12,8 -12,13 4,30 24,27 30,26 50,-4 z"
       id="path37-2" />
    <path
       d="m 8686.3397,1398.564 291,-2 -3,-488.00005 -2,-486.99996 -666,-3 -666,-2 2,488.99996 3,489.00005 375,4 c 206,2 506,2 666,0 z m 244,-26 c 0,-2 7,-9 15,-16 12,-10 15,-10 15,4 0,9 -7,16 -15,16 -8,0 -15,-2 -15,-4 z m -48,-51 c 31,-30 61,-55 67,-55 20,0 12,36 -17,73 -23,31 -33,36 -67,36 l -40,1 z m -112,4 c 111,-101 177,-159 184,-159 3,0 6,13 6,30 0,21 -9,38 -32,57 -18,16 -55,49 -83,75 -42,40 -56,48 -90,47 h -40 z m -110,8 c 245,-231 290,-269 296,-252 12,31 -10,60 -136,178 -116,107 -128,116 -165,116 l -40,1 z m -75,-25 c 38,-37 135,-127 215,-201 l 145,-134.00005 3,34.00005 c 3,30 -2,40 -46,79 -204,187 -279,257 -290,272 -9,12 -26,18 -55,18 h -42 z m -134,32 c 33,-36 283,-268 421,-391.00005 38,-35 73,-62.99996 78,-62.99996 17,0 11,48.99996 -8,67.99996 -10,9 -101,94.00005 -203,187.00005 -101,94 -198,185 -214,202 -24,26 -38,33 -69,33 h -40 z m -252,24 c 0,-10 -2,-10 -6,0 -3,7 -22,12 -46,12 h -41 l 30,-31 c 16,-17 42,-40 57,-51 l 28,-20 -2,51 c -2,28 -6,51 -11,51 -4,0 -8,-6 -9,-12 z m -89,-90 105,-100 3,35 c 3,31 -2,41 -38,73 -101,91 -105,94 -140,93 h -35 z m -185,74 c 90,-86 284,-262 289,-262 3,0 6,13 6,29 0,24 -20,48 -123,145 -113,108 -125,116 -162,116 h -40 z m -125,25 c 0,-5 325,-307 381,-355 l 39,-34.00005 v 35.00005 c 0,31 -14,47 -173,195 -158,148 -175,161 -210,161 -20,1 -37,-1 -37,-2 z m -35,-65 c 123,-118 409,-381.00005 432,-397.00005 23,-15.99996 23,-14.99996 23,18 0,25 -7,39 -23,50 -12,9 -112,101.00005 -222,206.00005 -190,181 -202,190 -240,190 l -40,1 z m -58,-42 c 122,-114 432,-401.00001 471,-435.00001 l 43,-39 -3,40 c -3,37 -13,48 -153,176.00001 -83,75 -206,188 -275,251 l -125,115 -3,-31 c -3,-27 4,-39 45,-77 z m 693,56 c 0,-32 13,-47 161,-183 347,-319.00001 384,-353.00001 391,-353.00001 5,0 8,13 8,30 0,22 -11,39 -42,67 -23,20.99996 -96,87.99996 -161,148.00001 -229,211 -352,325 -355,325 -1,0 -2,-15 -2,-34 z m -740,-76 c 0,-24 13,-42 67,-93 37,-34 108,-100 158,-147 192,-180.00001 324,-300.00001 329,-300.00001 3,0 6,13 6,28 0,23 -20,47 -98,123 -144,138.99996 -451,419.00001 -459,419.00001 -2,0 -3,-14 -3,-30 z m 772,-84 c 48,-41 360,-329.00001 444,-408.00001 39,-38 74,-68 77,-68 12,0 8,56 -6,71 -15,19 -350,329.00001 -460,426.00001 l -82,72 -3,-32 c -3,-26 3,-37 30,-61 z m -772,-9 c 0,-29 16,-48 167,-187.00005 92,-84.99996 214,-198.99996 272,-251.99996 58,-54 108,-98 113,-98 4,0 8,12 8,27 0,33 10,22 -498,490.00001 -31,29 -58,52 -60,53 -1,0 -2,-15 -2,-33 z m 740,-20 c 0,-31 15,-48 167,-188.00005 91,-84.99996 214,-197.99996 272,-250.99996 58,-54 108,-98 113,-98 9,0 11,31 2,53 -3,8 -76,80 -162,158 -85,79 -208,191.99996 -271,252.00001 -63,59 -117,107 -118,107 -2,0 -3,-15 -3,-33 z m -740,-76 c 0,-30 39,-72.00005 258,-272.00001 256,-234 297,-269 300,-253 8,36 -13,64 -120,161 -62,56 -183,167 -268,246.99996 -85,80.00005 -158,145.00005 -163,145.00005 -4,1 -7,-12 -7,-28 z m 740,-25 c 0,-26 7,-40.00005 29,-58.00005 16,-13 101,-89.99996 190,-172.99996 197,-182 324,-295 332,-295 3,0 3,15 0,34 -5,27 -39,63 -201,212 -107,98 -227,208.99996 -265,245.99996 -39,37.00005 -73,68.00005 -78,68.00005 -4,0 -7,-15 -7,-34 z m -740,-73.00005 c 0,-33 7,-43 53,-81.99996 59,-49 382,-347 439,-403 43,-44 68,-49 68,-14 0,18 -26,48 -102,118 -57,51 -141,129 -188,174 -84,80 -263,242.99996 -268,243.99996 -1,0 -2,-17 -2,-37 z m 747,-56 c 4,-6.99996 44,-44.99996 88,-83.99996 44,-39 156,-141 249,-227 118,-108 177,-156 193,-156 13,0 23,6 23,14 0,13 -147,153 -449,428 -104,94.99996 -106,95.99996 -109,67.99996 -2,-16 0,-36 5,-43 z m -690,-119.99996 c 32,-28 96,-88 143,-132 223,-210 230,-215 267,-215 32,0 34,2 22,17 -18,21 -306,288 -407,376 l -77,67 -3,-30 c -3,-26 5,-38 55,-83 z m 745,-25 c 35,-31 103,-95 153,-141 49,-47 113,-107 142,-133 46,-43 57,-49 90,-46 l 37,3 -162,150 c -90,83 -198,180 -240,218 l -77,67 -3,-31 c -3,-27 5,-38 60,-87 z m -764,-52 c 22,-19 96,-88 165,-153 120,-112 128,-118 163,-115 l 38,3 -94,85 c -51,47 -141,129 -199,184 l -106,99 -3,-34 c -3,-29 2,-39 36,-69 z m 750,-30 c 27,-25 97,-89 154,-142 96,-89 109,-98 144,-98 l 39,1 -85,77 c -47,42 -132,122 -190,176 l -105,100 -3,-35 c -3,-30 2,-39 46,-79 z m -788,-2 c 1,-29 14,-45 115,-136 106,-95 117,-103 151,-100 l 36,3 -144,132 c -79,72 -146,132 -151,132 -4,1 -7,-14 -7,-31 z m 740,-15 c 0,-35 7,-44 103,-130 92,-83 106,-93 141,-93 h 39 l -64,57 c -35,32 -98,90 -139,130 -41,40 -76,73 -78,73 -1,0 -2,-17 -2,-37 z m -678,-165 c 54,-50 69,-58 102,-58 h 40 l -60,53 c -32,28 -77,69 -99,89 l -40,37 -3,-32 c -3,-28 4,-39 60,-89 z m 678,65 c 1,-34 7,-43 55,-81 44,-35 60,-43 88,-40 l 35,3 -87,77 c -47,42 -87,77 -89,78 -1,0 -2,-17 -2,-37 z m -736,-109 c 3,-9 20,-14 48,-14 l 43,1 -45,42 -45,42 -3,-28 c -2,-16 -1,-35 2,-43 z m 736,16 c 0,-28 2,-30 37,-30 l 38,1 -33,29 c -18,17 -34,30 -37,30 -3,0 -5,-13 -5,-30 z"
       id="path31-6-5" />
    <path
       d="m 7918.0441,1397.889 -273,-3 V 904.88895 414.88899 h 665 665 V 904.88895 1394.889 h -275 -275 l 1,-32 c 1,-24 3,-27 6,-10 4,18 11,22 39,22 42,0 43,-13 5,-41 -27,-20 -41,-48 -46,-91 -1,-9 2,-15 7,-12 4,3 8,13 8,22 0,9 23,41 51,70 38,39 57,52 80,52 16,0 29,-4 29,-9 0,-8 -85,-86 -169,-158 -9,-7 -9,-63 0,-63 6,0 9,7 7,15 -2,9 42,58 102,115 81,77 111,100 133,100 15,0 27,-4 27,-9 0,-6 -63,-67 -140,-137 -77,-69 -140,-133 -140,-140 0,-8 -4,-14 -8,-14 -4,0 -6,74 -4,165 l 4,165 -113,-2 c -63,-2 -237,-4 -386,-5 z m -213,-63 c 5,0 10,9 10,20 0,16 7,20 35,20 19,0 35,-3 35,-7 0,-12 -87,-93 -99,-93 -7,0 -11,21 -10,53 0,41 2,47 9,30 5,-13 14,-23 20,-23 z m 180,33 c 0,-13 -84,-93 -97,-93 -7,0 -13,-4 -13,-9 0,-14 -73,-81 -87,-81 -8,0 -13,14 -13,35 0,23 4,33 13,30 6,-2 39,24 72,59 48,51 66,64 93,65 17,0 32,-2 32,-6 z m 100,-2 c 0,-10 -179,-181 -190,-181 -4,0 -13,6 -19,14 -10,12 2,29 66,94 63,64 84,79 111,80 17,1 32,-2 32,-7 z m 25,-79 c -191,-184 -217,-205 -227,-191 -8,11 -8,10 -4,-4 6,-18 -44,-74 -86,-98.00005 -16,-8 -18,-5 -18,26.00005 0,22 6,38 15,41 18,7 142,122 250,230 72,74 84,81 120,82 l 40,2 z m 196,-34 c 0,-68 2,-277.00005 3,-465.00001 4,-372 4,-368 -50,-318 -29,27 -46,26 -24,0 17,-21 9,-27 -35,-23 l -36,3 38,41 c 21,22 47,46 58,52 20,12 20,12 -5,31 -27,21 -40,20 -21,-2 15,-19 -19,-50 -44,-41 -14,6 -16,3 -11,-13 4,-13 0,-26 -12,-36 -18,-16 -20,-16 -38,4 -18,20 -18,21 56,89 41,38 78,69 83,70 4,0 7,5 7,10 0,26 -34,2 -127,-90 -101,-100 -101,-101 -117,-79 -15,22 -13,25 77,109 51,48 108,101 128,118 20,18 39,41 42,53 6,24 -23,-2 -210,-182 -118,-113 -122,-116 -139,-98 -16,18 -13,23 92,122 60,57 144,134 187,171 70,61 90,86 70,86 -9,0 -125,-104 -278,-247 -54,-51 -104,-93 -110,-93 -6,0 -15,-10 -20,-22 -12,-28 -40,-35 -49,-12 -7,19 31,58 296,301 143,131.99996 181,172.99996 159,172.99996 -4,0 -18,-12 -32,-26 -13,-15 -85,-80.99996 -159,-148.99996 -74,-67 -166,-153 -205,-189 -96,-92 -105,-96 -105,-51 0,21 5,35 13,35 6,0 77,62 157,138 280,265.99996 350,338.00001 349,358.00001 0,18 -1,18 -11,-2 -10,-22 -300,-296.00001 -369,-349.00001 -22,-16 -42,-37 -45,-47 -3,-10 -12,-18 -19,-18 -8,0 -19,-9 -25,-20 -6,-11 -19,-24 -30,-30 -18,-10 -20,-7 -20,22 0,27 8,40 48,71 26,21 83,73 127,115 44,43 140,132.99996 213,201.00001 72,68 132,130 132,139 0,8 -33,-17 -72,-55 -40,-39 -129,-121.00005 -197,-184.00005 -68,-62.99996 -149,-137.99996 -180,-165.99996 -31,-29 -59,-53 -63,-53 -5,0 -8,18 -8,40 0,28 4,40 14,40 16,0 58,36 205,175.99996 106,100.00005 199,185.00005 249,226.00005 38,31 38,34 12,48 -15,8 -18,8 -14,-3 3,-8 -28,-42 -73,-83 -43,-38 -118,-107 -168,-154.00005 -134,-125.99996 -207,-189.99996 -216,-189.99996 -5,0 -9,16 -9,35 0,23 5,35 14,35 13,0 208,176.00001 390,353.00001 73,70 82,76 93,61 11,-15 13,-16 13,-2 0,9 -16,30 -35,47 -19,17 -35,33 -35,36 0,3 20,5 45,5 h 45 z m 599,113 c 0,-5 -85,-89 -190,-187 -104,-97 -190,-183.00005 -190,-191.00005 0,-13 102,78.00005 333,299.00005 80,77 97,88 127,88 h 35 l -87,-86 c -49,-47 -88,-89 -88,-95 0,-5 -6,-9 -12,-9 -13,0 -39,-23 -168,-144 -36,-33 -82,-76.00005 -103,-94.00005 -20,-18 -37,-40 -37,-48.99996 0,-10 18,0 53,32.99996 29,27 106,99.00005 171,159.00005 66,61 144,134 175,163 51,50 56,53 68,36 7,-10 13,-21 13,-24 0,-3 -39,-42 -87,-85 -49,-44 -133,-123 -188,-175 -55,-53.00005 -124,-116.00001 -154,-142.00001 -29,-25 -51,-52 -49,-59 4,-13 52,29 238,206.00001 58,55 143,135 190,177 l 85,77 -23,24 c -28,29 -27,31 3,61 l 25,25 v -100 c 0,-69 -3,-98 -11,-94 -6,4 -18,-1 -28,-11 -10,-11 -122,-116 -249,-234.00005 -172,-158.99996 -232,-219.99996 -232,-236.99996 0,-13 4,-23 10,-23 5,0 7,6 4,13 -3,8 16,33 43,57 26,24 86,80 133,125 115,109.99996 319,295.00001 325,295.00001 3,0 5,-81 5,-179.00005 0,-144.99996 -3,-179.99996 -14,-182.99996 -14,-3 -221,-191 -282,-255 -17,-18 -34,-33 -38,-33 -4,0 -16,-10 -26,-22 -18,-22 -20,-22 -37,-5 -17,16 -15,20 44,77 35,33 115,108 180,167 65,59 129,117 143,130 13,12 21,25 17,29 -6,6 -134,-105 -259,-225 -51,-48 -59,-53 -74,-40 -15,12 -16,12 -10,-8 4,-14 1,-26 -9,-35 -8,-7 -37,-34 -64,-60 -27,-27 -52,-48 -55,-48 -3,0 -10,9 -16,19 -8,16 -1,28 52,78 34,32 82,78 107,103 25,24 64,60 86,78 86,73 245,224.99996 245,233.99996 0,17.00005 -17,4 -112,-86.99996 -145,-138 -261,-240 -270,-237 -4,1 -8,-4 -8,-11 0,-13 -82,-87 -96,-87 -4,0 -4,3 -1,7 4,3 2,12 -4,20 -12,14 9,37 191,203 249,227.00001 321,300.00001 296,300.00001 -3,0 -58,-51 -123,-114.00005 -65,-62 -138,-129.99996 -163,-150.99996 -24,-20 -49,-43 -55,-50 -5,-7 -39,-38 -75,-70 -79,-69 -106,-111 -84,-132 10,-10 11,-19 4,-33 -14,-27 -12,-58 4,-67 8,-4 15,-12 15,-18 2,-20 17,-14 38,16 l 21,31 17,-26 c 22,-33 40,-33 69,-1 l 23,24 22,-29 22,-30 -73,-1 c -40,0 -99,-2 -131,-4 l -58,-3 5,311 4,311.00001 104,95 c 56,53 130,123 163,157 47,48 67,61 93,63 17,0 32,-3 32,-8 z m -670,-36 c 11,-13 9,-19 -10,-35 -19,-16 -26,-18 -39,-7 -14,10 -14,10 -4,-4 11,-14 1,-27 -74,-95 -48,-43 -134,-123 -191,-176 -56,-54.00005 -112,-102.00005 -122,-108.00005 -18,-9.99996 -20,-6.99996 -20,25 0,22 5,35 13,35 12,0 158,133.00005 331,302.00005 44,43 85,78 92,78 6,0 17,-7 24,-15 z m -362,-151 c 2,-13 -13,-32 -42,-57 -25,-20 -47,-37 -50,-37 -3,0 -6,15 -6,34 0,25 5,36 19,41 10,3 27,15 36,25 22,24 39,21 43,-6 z m 1172,-433.00001 c 0,-28 -4,-38 -14,-37 -8,0 -59,-43 -114,-96 -75,-74 -102,-94 -110,-86 -7,7 -12,9 -12,4 0,-4 14,-21 30,-38 39,-39 38,-48 -7,-47 -30,0 -43,7 -62,31 l -25,31 85,79 c 97,92 217,198 224,198 3,0 5,-17 5,-39 z m 0,-96 c 0,-42 -2,-45 -19,-36 -15,9 -20,7 -24,-10 -3,-11 -15,-23 -26,-26 -12,-3 -21,-11 -21,-17 0,-7 -6,-21 -14,-31 -11,-16 -16,-17 -29,-7 -13,11 -15,10 -11,-5 3,-11 -3,-26 -14,-36 -18,-16 -20,-16 -37,3 -18,20 -18,21 36,74 61,59 148,136 155,136 2,0 4,-20 4,-45 z m 2,-122 c -6,-17 -17,-16 -36,3 -22,22 -20,39 7,51 19,9 23,7 28,-16 3,-14 3,-32 1,-38 z m -54,-4 c 23,-37 -20,-67 -48,-34 -10,13 -10,19 5,35 23,25 27,25 43,-1 z m -1176,-53 c 17,-23 17,-24 -8,-30 -34,-9 -41,-2 -36,33 5,33 18,32 44,-3 z m 95,-27 c -12,-3 -30,-2 -40,3 -18,9 -18,11 4,34 l 23,24 18,-27 c 18,-28 17,-28 -5,-34 z m 112,0 c -18,-11 -30,-11 -48,0 -11,7 -10,13 4,35 l 17,26 21,-26 c 16,-22 18,-27 6,-35 z m 99,32 21,-29 -29,-4 c -44,-7 -55,5 -35,36 10,14 18,26 19,26 1,0 12,-13 24,-29 z m 928,-28 c -6,-15 -52,-18 -60,-4 -3,5 6,21 21,37 l 26,28 9,-24 c 5,-13 6,-30 4,-37 z m -102,22 c 14,-21 14,-25 2,-25 -8,0 -20,-2 -28,-5 -7,-3 -20,-1 -28,4 -12,8 -12,13 4,30 24,27 30,26 50,-4 z"
       id="path37-3"
       style="display:inline" />
    <path
       d="M8686 2444 c-4 -10 -1 -14 6 -12 15 5 23 28 10 28 -5 0 -13 -7 -16 -16z"
       id="path38" />
    <path
       d="M3333 1846 c-26 -22 -28 -30 -28 -94 0 -83 18 -112 71 -112 43 0 74 32 74 77 0 47 -32 77 -76 70 -36 -6 -45 8 -22 31 15 15 48 16 48 2 0 -5 9 -10 20 -10 26 0 27 36 1 50 -31 16 -58 12 -88 -14z m73 -122 c8 -30 -6 -47 -32 -42 -35 6 -30 68 5 68 14 0 23 -9 27 -26z"
       id="path39" />
    <path
       d="M5758 1863 c-33 -3 -48 -9 -48 -19 0 -10 13 -14 49 -14 l50 0 -29 -62 c-38 -83 -42 -122 -14 -126 18 -3 22 3 27 39 3 23 22 73 41 110 23 44 32 69 24 69 -7 0 -22 2 -33 4 -11 1 -41 1 -67 -1z"
       id="path40" />
    <path
       d="M8162 1854 c-18 -13 -22 -24 -21 -62 1 -26 -2 -59 -6 -74 -12 -44 16 -78 64 -78 24 0 44 7 54 18 20 22 22 83 5 100 -9 9 -9 15 0 24 19 19 14 55 -10 72 -29 20 -58 20 -86 0z m64 -35 c8 -14 -21 -43 -35 -35 -6 4 -11 16 -11 27 0 21 34 27 46 8z m2 -96 c13 -26 4 -43 -24 -43 -26 0 -40 20 -30 45 8 21 43 19 54 -2z"
       id="path41" />
    <path
       d="M905 1823 c-3 -21 -8 -49 -11 -62 -5 -21 -3 -23 23 -17 60 15 68 13 71 -20 4 -42 -21 -64 -46 -40 -22 19 -52 21 -52 3 0 -23 35 -47 67 -47 48 0 78 30 78 80 0 48 -21 70 -67 70 -48 0 -35 28 14 32 31 2 44 8 46 21 3 15 -5 17 -57 17 l-60 0 -6 -37z"
       id="path42" />
    <path
       d="M257 1583 c-3 -5 -5 -308 -4 -674 l2 -664 800 -2 800 -2 95 84 c52 47 138 123 190 169 219 192 340 342 340 421 0 45 -65 149 -150 238 -71 75 -366 338 -450 401 l-38 28 -790 5 c-456 3 -792 1 -795 -4z m1574 -23 c20 -6 66 -38 110 -78 40 -37 106 -94 144 -126 241 -203 375 -360 375 -441 0 -90 -170 -275 -553 -603 l-61 -52 -783 0 -783 0 0 655 0 655 758 0 c467 0 771 -4 793 -10z"
       id="path43" />
    <path
       d="M673 1403 l-283 -3 0 -490 0 -490 665 0 665 0 0 490 0 490 -197 0 c-109 0 -281 2 -383 4 -102 1 -312 1 -467 -1z m220 -81 c-34 -32 -127 -117 -206 -189 -126 -116 -149 -133 -178 -133 l-34 0 90 88 c218 211 307 287 344 292 20 3 38 4 41 2 3 -2 -23 -29 -57 -60z m281 46 c4 7 26 12 48 12 l41 0 -19 -21 c-10 -12 -36 -35 -56 -51 l-38 -30 1 59 c0 37 3 51 8 39 5 -14 10 -16 15 -8z m-734 8 c0 -2 -7 -9 -15 -16 -12 -10 -15 -10 -15 4 0 9 7 16 15 16 8 0 15 -2 15 -4z m40 -58 l-65 -60 -3 32 c-5 48 38 90 92 90 l41 -1 -65 -61z m75 -24 c-49 -47 -102 -94 -117 -105 l-28 -20 0 33 c0 28 10 41 66 88 36 30 70 63 75 73 7 12 22 17 52 17 l42 -1 -90 -85z m94 -7 c-53 -51 -128 -121 -167 -156 l-72 -63 0 38 c0 35 6 44 63 91 34 29 91 81 127 117 58 58 69 65 105 65 l40 0 -96 -92z m101 0 c-161 -156 -311 -288 -323 -284 -22 7 -18 33 11 63 15 16 80 76 143 134 63 57 130 121 149 142 29 32 41 38 75 38 l40 0 -95 -93z m525 7 c-116 -109 -125 -114 -125 -74 0 24 13 43 68 95 60 57 71 64 107 64 l40 0 -90 -85z m100 0 c-49 -47 -120 -112 -157 -146 l-68 -60 0 35 c0 32 9 44 103 128 56 51 108 101 115 111 9 13 26 18 55 18 l42 -1 -90 -85z m105 3 c-47 -45 -139 -131 -205 -192 -115 -105 -120 -109 -123 -82 -4 35 17 59 185 212 73 66 135 126 137 133 3 7 23 12 48 12 l43 0 -85 -83z m140 37 c-25 -25 -116 -111 -202 -190 -130 -120 -162 -144 -187 -144 -17 0 -30 3 -30 8 1 4 47 50 103 101 55 52 142 135 193 183 82 79 96 88 130 88 l37 0 -44 -46z m80 12 c0 -29 -11 -44 -77 -108 -43 -42 -119 -112 -170 -157 -81 -72 -97 -82 -125 -79 -32 3 -31 4 92 118 69 63 158 148 200 187 41 40 76 73 78 73 1 0 2 -15 2 -34z m-817 -128 c-188 -182 -234 -218 -272 -218 l-36 0 75 73 c42 39 127 120 190 178 l115 106 3 -32 c3 -28 -6 -40 -75 -107z m776 -45 c-24 -21 -77 -68 -118 -105 -62 -57 -80 -68 -109 -68 l-35 0 19 21 c10 12 78 75 149 140 l130 117 3 -33 c3 -29 -3 -40 -39 -72z m-796 -70 c-99 -93 -122 -107 -164 -101 -20 3 -3 22 116 130 l140 126 3 -31 c3 -29 -6 -41 -95 -124z m791 -26 c-26 -23 -56 -50 -67 -59 -17 -15 -87 -26 -87 -14 0 3 44 44 98 93 l97 88 3 -33 c3 -29 -3 -39 -44 -75z m-746 -26 c-44 -42 -59 -51 -90 -51 -21 0 -38 2 -38 4 0 2 39 39 88 82 l87 78 3 -31 c3 -26 -5 -39 -50 -82z m789 -37 c-2 -2 -26 -6 -53 -10 l-49 -5 50 46 50 46 3 -37 c2 -20 2 -38 -1 -40z m-737 21 c0 -35 -1 -35 -42 -35 l-43 1 39 34 c22 19 41 35 43 35 1 0 3 -16 3 -35z m-520 -225 c-20 -13 -43 -13 -35 0 3 6 16 10 28 10 18 0 19 -2 7 -10z m45 -54 l-70 -64 -3 35 c-5 48 44 92 103 93 l39 0 -69 -64z m140 36 c-17 -15 -72 -68 -122 -117 l-93 -89 0 37 c0 34 8 45 83 117 74 72 86 79 122 80 l40 0 -30 -28z m125 24 c0 -7 -303 -287 -322 -297 -15 -8 -18 -6 -18 18 0 23 25 52 132 155 122 116 136 127 171 128 20 0 37 -2 37 -4z m38 -64 c-291 -274 -334 -312 -355 -312 -13 0 -23 6 -23 14 0 18 19 39 105 117 39 34 114 105 168 156 90 85 102 93 138 93 l39 0 -72 -68z m87 -15 c-49 -45 -141 -130 -205 -189 -106 -100 -118 -108 -155 -108 l-40 0 85 78 c46 42 139 128 205 189 112 105 123 113 160 113 l40 -1 -90 -82z m384 76 c-1 -5 -25 -30 -55 -57 l-54 -49 0 41 c0 31 5 45 22 56 23 16 89 22 87 9z m5 -97 l-109 -104 -3 34 c-3 29 4 40 70 103 64 62 78 70 112 71 l38 0 -108 -104z m126 24 c-47 -44 -120 -112 -162 -151 l-78 -71 0 33 c0 30 14 47 123 151 114 109 125 117 162 117 l40 0 -85 -79z m90 -11 c-159 -151 -313 -289 -322 -289 -4 0 -8 13 -8 29 0 24 20 46 123 139 67 61 144 133 172 161 43 45 54 51 90 51 l40 -1 -95 -90z m129 24 c-40 -38 -132 -123 -204 -190 -122 -115 -132 -123 -170 -122 l-40 0 90 82 c49 45 141 130 204 190 105 99 117 107 154 107 l39 0 -73 -67z m-1 -96 c-223 -210 -234 -219 -271 -215 -34 3 -33 4 162 185 195 180 196 181 199 150 4 -29 -5 -40 -90 -120z m-648 95 c0 -23 -15 -43 -67 -92 -38 -35 -105 -99 -150 -143 -75 -72 -84 -78 -118 -75 l-37 3 178 167 c99 93 182 168 187 168 4 0 7 -13 7 -28z m713 -130 c-15 -14 -65 -60 -110 -104 -76 -74 -84 -79 -119 -76 l-38 3 144 135 145 134 3 -34 c3 -28 -2 -39 -25 -58z m-810 -87 c-88 -84 -102 -94 -135 -95 -21 0 -38 2 -38 4 0 2 60 59 133 127 l132 123 3 -32 c3 -29 -6 -41 -95 -127z m780 -40 c-50 -47 -63 -54 -98 -54 l-40 0 95 88 95 89 3 -34 c3 -30 -4 -40 -55 -89z m-729 -8 c-37 -37 -54 -47 -80 -47 -19 0 -34 2 -34 4 0 2 35 38 78 79 l77 76 3 -33 c3 -27 -4 -40 -44 -79z m786 -7 l0 -40 -40 0 c-22 0 -40 2 -40 5 0 4 72 74 78 75 1 0 2 -18 2 -40z m-740 -10 c0 -27 -3 -30 -30 -30 -16 0 -30 2 -30 5 0 5 51 54 58 55 1 0 2 -13 2 -30z"
       id="path44" />
    <path
       d="M2670 913 l0 -673 800 0 800 0 147 133 c82 72 170 150 197 172 70 56 218 225 250 286 16 28 28 66 28 84 0 69 -82 182 -234 322 -115 107 -315 282 -362 318 l-39 29 -793 1 -794 1 0 -673z m1558 650 c36 -5 61 -21 175 -120 308 -268 420 -386 463 -488 14 -35 14 -42 -1 -82 -38 -98 -229 -296 -538 -556 l-67 -57 -785 0 -785 0 0 650 0 649 103 4 c176 6 1390 6 1435 0z"
       id="path45" />
    <path
       d="M2805 1391 c-3 -5 -4 -226 -3 -490 l3 -481 668 0 667 0 0 490 0 490 -664 0 c-398 0 -667 -4 -671 -9z m1313 -198 l-3 -188 -645 0 -645 0 -3 175 c-1 96 0 180 2 187 4 10 134 13 651 13 l645 0 -2 -187z m0 -565 l2 -188 -650 0 -650 0 0 190 0 190 648 -2 647 -3 3 -187z"
       id="path46" />
    <path
       d="M5153 1583 l-73 -4 0 -669 0 -670 801 0 802 0 74 68 c41 37 114 100 162 140 244 208 391 384 391 469 0 39 -63 142 -132 218 -59 64 -411 379 -470 421 l-33 23 -725 4 c-399 2 -758 2 -797 0z m1489 -22 c52 -8 59 -14 303 -232 238 -212 345 -343 345 -419 0 -73 -141 -242 -353 -422 -73 -61 -160 -138 -194 -170 l-61 -58 -791 0 -791 0 0 650 0 649 63 4 c128 7 1434 5 1479 -2z"
       id="path47" />
    <path
       d="M5503 1403 l-283 -3 0 -490 0 -490 665 0 665 0 0 490 0 490 -182 0 c-101 0 -273 2 -383 3 -110 2 -327 2 -482 0z m287 -213 l0 -190 -275 0 -275 0 0 190 0 190 275 0 275 0 0 -190z m740 0 l0 -190 -275 0 -275 0 0 190 0 190 275 0 275 0 0 -190z m-740 -560 l0 -190 -275 0 -275 0 0 190 0 190 275 0 275 0 0 -190z m740 0 l0 -190 -275 0 -275 0 0 190 0 190 275 0 275 0 0 -190z"
       id="path48" />
    <path
       d="m 7922.9346,1397.3229 -283,-3 v -489.99997 -490 h 665 665 v 490 489.99997 h -182 c -101,0 -273,2 -383,3 -110,2 -327,2 -482,0 z m 287,-213 V 994.32293 h -275 -275 v 189.99997 190 h 275 275 z m 740,0 V 994.32293 h -275 -275 v 189.99997 190 h 275 275 z m -740,-559.99997 v -190 h -275 -275 v 190 190 h 275 275 z m 740,0 v -190 h -275 -275 v 190 190 h 275 275 z"
       id="path48-9"
       style="display:inline" />
    <path
       d="m 4828.0792,8486.5444 291,-2 -3,-488 -2,-487 -666.0005,-3 -666,-2 2,489 3,489 375,4 c 206,2 506.0005,2 666.0005,0 z m 244,-26 c 0,-2 7,-9 15,-16 12,-10 15,-10 15,4 0,9 -7,16 -15,16 -8,0 -15,-2 -15,-4 z m -48,-51 c 31,-30 61,-55 67,-55 20,0 12,36 -17,73 -23,31 -33,36 -67,36 l -40,1 z m -112,4 c 111,-101 177,-159 184,-159 3,0 6,13 6,30 0,21 -9,38 -32,57 -18,16 -55,49 -83,75 -42,40 -56,48 -90,47 h -40 z m -110,8 c 245,-231 290,-269 296,-252 12,31 -10,60 -136,178 -116,107 -128,116 -165,116 l -40,1 z m -75,-25 c 38,-37 135,-127 215,-201 l 145,-134 3,34 c 3,30 -2,40 -46,79 -204,187 -279,257 -290,272 -9,12 -26,18 -55,18 h -42 z m -134.0005,32 c 33.0005,-36 283.0005,-268 421.0005,-391 38,-35 73,-63 78,-63 17,0 11,49 -8,68 -10,9 -101,94 -203,187 -101,94 -198,185 -214,202 -24,26 -38,33 -69.0005,33 h -40 z m -252,24 c 0,-10 -2,-10 -6,0 -3,7 -22,12 -46,12 h -41 l 30,-31 c 16,-17 42,-40 57,-51 l 28,-20 -2,51 c -2,28 -6,51 -11,51 -4,0 -8,-6 -9,-12 z m -89,-90 105,-100 3,35 c 3,31 -2,41 -38,73 -101,91 -105,94 -140,93 h -35 z m -185,74 c 90,-86 284,-262 289,-262 3,0 6,13 6,29 0,24 -20,48 -123,145 -113,108 -125,116 -162,116 h -40 z m -125,25 c 0,-5 325,-307 381,-355 l 39,-34 v 35 c 0,31 -14,47 -173,195 -158,148 -175,161 -210,161 -20,1 -37,-1 -37,-2 z m -35,-65 c 123,-118 409,-381 432,-397 23,-16 23,-15 23,18 0,25 -7,39 -23,50 -12,9 -112,101 -222,206 -190,181 -202,190 -240,190 l -40,1 z m -58,-42 c 122,-114 432,-401 471,-435 l 43,-39 -3,40 c -3,37 -13,48 -153,176 -83,75 -206,188 -275,251 l -125,115 -3,-31 c -3,-27 4,-39 45,-77 z m 693,56 c 0,-32 13,-47 161.0005,-183 347,-319 384,-353 391,-353 5,0 8,13 8,30 0,22 -11,39 -42,67 -23,21 -96,88 -161,148 -229,211 -352.0005,325 -355.0005,325 -1,0 -2,-15 -2,-34 z m -740,-76 c 0,-24 13,-42 67,-93 37,-34 108,-100 158,-147 192,-180 324,-300 329,-300 3,0 6,13 6,28 0,23 -20,47 -98,123 -144,139 -451,419 -459,419 -2,0 -3,-14 -3,-30 z m 772,-84 c 48.0005,-41 360.0005,-329 444.0005,-408 39,-38 74,-68 77,-68 12,0 8,56 -6,71 -15,19 -350,329 -460,426 l -82.0005,72 -3,-32 c -3,-26 3,-37 30,-61 z m -772,-9 c 0,-29 16,-48 167,-187 92,-85 214,-199 272,-252 58,-54 108,-98 113,-98 4,0 8,12 8,27 0,33 10,22 -498,490 -31,29 -58,52 -60,53 -1,0 -2,-15 -2,-33 z m 740,-20 c 0,-31 15,-48 167.0005,-188 91,-85 214,-198 272,-251 58,-54 108,-98 113,-98 9,0 11,31 2,53 -3,8 -76,80 -162,158 -85,79 -208,192 -271,252 -63.0005,59 -117.0005,107 -118.0005,107 -2,0 -3,-15 -3,-33 z m -740,-76 c 0,-30 39,-72 258,-272 256,-234 297,-269 300,-253 8,36 -13,64 -120,161 -62,56 -183,167 -268,247 -85,80 -158,145 -163,145 -4,1 -7,-12 -7,-28 z m 740,-25 c 0,-26 7,-40 29,-58 16,-13 101.0005,-90 190.0005,-173 197,-182 324,-295 332,-295 3,0 3,15 0,34 -5,27 -39,63 -201,212 -107,98 -227,209 -265,246 -39.0005,37 -73.0005,68 -78.0005,68 -4,0 -7,-15 -7,-34 z m -740,-73 c 0,-33 7,-43 53,-82 59,-49 382,-347 439,-403 43,-44 68,-49 68,-14 0,18 -26,48 -102,118 -57,51 -141,129 -188,174 -84,80 -263,243 -268,244 -1,0 -2,-17 -2,-37 z m 747,-56 c 4,-7 44,-45 88.0005,-84 44,-39 156,-141 249,-227 118,-108 177,-156 193,-156 13,0 23,6 23,14 0,13 -147,153 -449,428 -104.0005,95 -106.0005,96 -109.0005,68 -2,-16 0,-36 5,-43 z m -690,-120 c 32,-28 96,-88 143,-132 223,-210 230,-215 267,-215 32,0 34,2 22,17 -18,21 -306,288 -407,376 l -77,67 -3,-30 c -3,-26 5,-38 55,-83 z m 745,-25 c 35.0005,-31 103.0005,-95 153.0005,-141 49,-47 113,-107 142,-133 46,-43 57,-49 90,-46 l 37,3 -162,150 c -90,83 -198,180 -240,218 l -77.0005,67 -3,-31 c -3,-27 5,-38 60,-87 z m -764,-52 c 22,-19 96,-88 165,-153 120,-112 128,-118 163,-115 l 38,3 -94,85 c -51,47 -141,129 -199,184 l -106,99 -3,-34 c -3,-29 2,-39 36,-69 z m 750,-30 c 27.0005,-25 97.0005,-89 154.0005,-142 96,-89 109,-98 144,-98 l 39,1 -85,77 c -47,42 -132,122 -190,176 l -105.0005,100 -3,-35 c -3,-30 2,-39 46,-79 z m -788,-2 c 1,-29 14,-45 115,-136 106,-95 117,-103 151,-100 l 36,3 -144,132 c -79,72 -146,132 -151,132 -4,1 -7,-14 -7,-31 z m 740,-15 c 0,-35 7,-44 103.0005,-130 92,-83 106,-93 141,-93 h 39 l -64,57 c -35,32 -98,90 -139,130 -41.0005,40 -76.0005,73 -78.0005,73 -1,0 -2,-17 -2,-37 z m -678,-165 c 54,-50 69,-58 102,-58 h 40 l -60,53 c -32,28 -77,69 -99,89 l -40,37 -3,-32 c -3,-28 4,-39 60,-89 z m 678,65 c 1,-34 7,-43 55,-81 44.0005,-35 60.0005,-43 88.0005,-40 l 35,3 -87,77 c -47.0005,42 -87.0005,77 -89.0005,78 -1,0 -2,-17 -2,-37 z m -736,-109 c 3,-9 20,-14 48,-14 l 43,1 -45,42 -45,42 -3,-28 c -2,-16 -1,-35 2,-43 z m 736,16 c 0,-28 2,-30 37,-30 l 38.0005,1 -33.0005,29 c -18,17 -34,30 -37,30 -3,0 -5,-13 -5,-30 z"
       id="path31-6-5-9"
       style="display:inline" />
    <path
       d="m 4059.7831,8485.8694 -273,-3 v -490 -490 h 665 665.0001 v 490 490 h -275 -275.0001 l 1,-32 c 1,-24 3,-27 6,-10 4,18 11,22 39,22 42.0001,0 43.0001,-13 5.0001,-41 -27.0001,-20 -41.0001,-48 -46.0001,-91 -1,-9 2,-15 7,-12 4,3 8,13 8,22 0,9 23,41 51.0001,70 38,39 57,52 80,52 16,0 29,-4 29,-9 0,-8 -85,-86 -169.0001,-158 -9,-7 -9,-63 0,-63 6,0 9,7 7,15 -2,9 42.0001,58 102.0001,115 81,77 111,100 133,100 15,0 27,-4 27,-9 0,-6 -63,-67 -140,-137 -77,-69 -140.0001,-133 -140.0001,-140 0,-8 -4,-14 -8,-14 -4,0 -6,74 -4,165 l 4,165 -113,-2 c -63,-2 -237,-4 -386,-5 z m -213,-63 c 5,0 10,9 10,20 0,16 7,20 35,20 19,0 35,-3 35,-7 0,-12 -87,-93 -99,-93 -7,0 -11,21 -10,53 0,41 2,47 9,30 5,-13 14,-23 20,-23 z m 180,33 c 0,-13 -84,-93 -97,-93 -7,0 -13,-4 -13,-9 0,-14 -73,-81 -87,-81 -8,0 -13,14 -13,35 0,23 4,33 13,30 6,-2 39,24 72,59 48,51 66,64 93,65 17,0 32,-2 32,-6 z m 100,-2 c 0,-10 -179,-181 -190,-181 -4,0 -13,6 -19,14 -10,12 2,29 66,94 63,64 84,79 111,80 17,1 32,-2 32,-7 z m 25,-79 c -191,-184 -217,-205 -227,-191 -8,11 -8,10 -4,-4 6,-18 -44,-74 -86,-98 -16,-8 -18,-5 -18,26 0,22 6,38 15,41 18,7 142,122 250,230 72,74 84,81 120,82 l 40,2 z m 196,-34 c 0,-68 2,-277 3,-465 4,-372 4,-368 -50,-318 -29,27 -46,26 -24,0 17,-21 9,-27 -35,-23 l -36,3 38,41 c 21,22 47,46 58,52 20,12 20,12 -5,31 -27,21 -40,20 -21,-2 15,-19 -19,-50 -44,-41 -14,6 -16,3 -11,-13 4,-13 0,-26 -12,-36 -18,-16 -20,-16 -38,4 -18,20 -18,21 56,89 41,38 78,69 83,70 4,0 7,5 7,10 0,26 -34,2 -127,-90 -101,-100 -101,-101 -117,-79 -15,22 -13,25 77,109 51,48 108,101 128,118 20,18 39,41 42,53 6,24 -23,-2 -210,-182 -118,-113 -122,-116 -139,-98 -16,18 -13,23 92,122 60,57 144,134 187,171 70,61 90,86 70,86 -9,0 -125,-104 -278,-247 -54,-51 -104,-93 -110,-93 -6,0 -15,-10 -20,-22 -12,-28 -40,-35 -49,-12 -7,19 31,58 296,301 143,132 181,173 159,173 -4,0 -18,-12 -32,-26 -13,-15 -85,-81 -159,-149 -74,-67 -166,-153 -205,-189 -96,-92 -105,-96 -105,-51 0,21 5,35 13,35 6,0 77,62 157,138 280,266 350,338 349,358 0,18 -1,18 -11,-2 -10,-22 -300,-296 -369,-349 -22,-16 -42,-37 -45,-47 -3,-10 -12,-18 -19,-18 -8,0 -19,-9 -25,-20 -6,-11 -19,-24 -30,-30 -18,-10 -20,-7 -20,22 0,27 8,40 48,71 26,21 83,73 127,115 44,43 140,133 213,201 72,68 132,130 132,139 0,8 -33,-17 -72,-55 -40,-39 -129,-121 -197,-184 -68,-63 -149,-138 -180,-166 -31,-29 -59,-53 -63,-53 -5,0 -8,18 -8,40 0,28 4,40 14,40 16,0 58,36 205,176 106,100 199,185 249,226 38,31 38,34 12,48 -15,8 -18,8 -14,-3 3,-8 -28,-42 -73,-83 -43,-38 -118,-107 -168,-154 -134,-126 -207,-190 -216,-190 -5,0 -9,16 -9,35 0,23 5,35 14,35 13,0 208,176 390,353 73,70 82,76 93,61 11,-15 13,-16 13,-2 0,9 -16,30 -35,47 -19,17 -35,33 -35,36 0,3 20,5 45,5 h 45 z m 599.0001,113 c 0,-5 -85,-89 -190,-187 -104,-97 -190.0001,-183 -190.0001,-191 0,-13 102.0001,78 333.0001,299 80,77 97,88 127,88 h 35 l -87,-86 c -49,-47 -88,-89 -88,-95 0,-5 -6,-9 -12,-9 -13,0 -39,-23 -168,-144 -36,-33 -82,-76 -103.0001,-94 -20,-18 -37,-40 -37,-49 0,-10 18,0 53.0001,33 29,27 106,99 171,159 66,61 144,134 175,163 51,50 56,53 68,36 7,-10 13,-21 13,-24 0,-3 -39,-42 -87,-85 -49,-44 -133,-123 -188,-175 -55,-53 -124,-116 -154,-142 -29.0001,-25 -51.0001,-52 -49.0001,-59 4,-13 52.0001,29 238.0001,206 58,55 143,135 190,177 l 85,77 -23,24 c -28,29 -27,31 3,61 l 25,25 v -100 c 0,-69 -3,-98 -11,-94 -6,4 -18,-1 -28,-11 -10,-11 -122,-116 -249,-234 -172,-159 -232.0001,-220 -232.0001,-237 0,-13 4,-23 10,-23 5,0 7,6 4,13 -3,8 16,33 43.0001,57 26,24 86,80 133,125 115,110 319,295 325,295 3,0 5,-81 5,-179 0,-145 -3,-180 -14,-183 -14,-3 -221,-191 -282,-255 -17,-18 -34,-33 -38,-33 -4,0 -16,-10 -26,-22 -18,-22 -20,-22 -37,-5 -17,16 -15,20 44,77 35,33 115,108 180,167 65,59 129,117 143,130 13,12 21,25 17,29 -6,6 -134,-105 -259,-225 -51,-48 -59,-53 -74,-40 -15,12 -16,12 -10,-8 4,-14 1,-26 -9,-35 -8,-7 -37,-34 -64,-60 -27,-27 -52.0001,-48 -55.0001,-48 -3,0 -10,9 -16,19 -8,16 -1,28 52.0001,78 34,32 82,78 107,103 25,24 64,60 86,78 86,73 245,225 245,234 0,17 -17,4 -112,-87 -145,-138 -261,-240 -270,-237 -4,1 -8,-4 -8,-11 0,-13 -82.0001,-87 -96.0001,-87 -4,0 -4,3 -1,7 4,3 2,12 -4,20 -12,14 9,37 191.0001,203 249,227 321,300 296,300 -3,0 -58,-51 -123,-114 -65,-62 -138,-130 -163,-151 -24,-20 -49,-43 -55,-50 -5,-7 -39,-38 -75,-70 -79.0001,-69 -106.0001,-111 -84.0001,-132 10,-10 11,-19 4,-33 -14,-27 -12,-58 4,-67 8,-4 15,-12 15,-18 2,-20 17,-14 38.0001,16 l 21,31 17,-26 c 22,-33 40,-33 69,-1 l 23,24 22,-29 22,-30 -73,-1 c -40,0 -99,-2 -131.0001,-4 l -58,-3 5,311 4,311 104.0001,95 c 56,53 130,123 163,157 47,48 67,61 93,63 17,0 32,-3 32,-8 z m -670.0001,-36 c 11,-13 9,-19 -10,-35 -19,-16 -26,-18 -39,-7 -14,10 -14,10 -4,-4 11,-14 1,-27 -74,-95 -48,-43 -134,-123 -191,-176 -56,-54 -112,-102 -122,-108 -18,-10 -20,-7 -20,25 0,22 5,35 13,35 12,0 158,133 331,302 44,43 85,78 92,78 6,0 17,-7 24,-15 z m -362,-151 c 2,-13 -13,-32 -42,-57 -25,-20 -47,-37 -50,-37 -3,0 -6,15 -6,34 0,25 5,36 19,41 10,3 27,15 36,25 22,24 39,21 43,-6 z m 1172.0001,-433 c 0,-28 -4,-38 -14,-37 -8,0 -59,-43 -114,-96 -75,-74 -102,-94 -110,-86 -7,7 -12,9 -12,4 0,-4 14,-21 30,-38 39,-39 38,-48 -7,-47 -30,0 -43,7 -62,31 l -25,31 85,79 c 97,92 217,198 224,198 3,0 5,-17 5,-39 z m 0,-96 c 0,-42 -2,-45 -19,-36 -15,9 -20,7 -24,-10 -3,-11 -15,-23 -26,-26 -12,-3 -21,-11 -21,-17 0,-7 -6,-21 -14,-31 -11,-16 -16,-17 -29,-7 -13,11 -15,10 -11,-5 3,-11 -3,-26 -14,-36 -18,-16 -20,-16 -37,3 -18,20 -18,21 36,74 61,59 148,136 155,136 2,0 4,-20 4,-45 z m 2,-122 c -6,-17 -17,-16 -36,3 -22,22 -20,39 7,51 19,9 23,7 28,-16 3,-14 3,-32 1,-38 z m -54,-4 c 23,-37 -20,-67 -48,-34 -10,13 -10,19 5,35 23,25 27,25 43,-1 z m -1176.0001,-53 c 17,-23 17,-24 -8,-30 -34,-9 -41,-2 -36,33 5,33 18,32 44,-3 z m 95,-27 c -12,-3 -30,-2 -40,3 -18,9 -18,11 4,34 l 23,24 18,-27 c 18,-28 17,-28 -5,-34 z m 112,0 c -18,-11 -30,-11 -48,0 -11,7 -10,13 4,35 l 17,26 21,-26 c 16,-22 18,-27 6,-35 z m 99,32 21,-29 -29,-4 c -44,-7 -55,5 -35,36 10,14 18,26 19,26 1,0 12,-13 24,-29 z m 928.0001,-28 c -6,-15 -52,-18 -60,-4 -3,5 6,21 21,37 l 26,28 9,-24 c 5,-13 6,-30 4,-37 z m -102,22 c 14,-21 14,-25 2,-25 -8,0 -20,-2 -28,-5 -7,-3 -20,-1 -28,4 -12,8 -12,13 4,30 24,27 30,26 50,-4 z"
       id="path37-3-3"
       style="display:inline" />
    <path
       d="m 4064.6736,8485.3033 -283,-3 v -490 -490 h 665 664.9996 v 490 490 h -182 c -101,0 -273,2 -382.9996,3 -110,2 -327,2 -482,0 z m 287,-213 v -190 h -275 -275 v 190 190 h 275 275 z m 739.9996,0 v -190 h -275 -274.9996 v 190 190 h 274.9996 275 z m -739.9996,-560 v -190 h -275 -275 v 190 190 h 275 275 z m 739.9996,0 v -190 h -275 -274.9996 v 190 190 h 274.9996 275 z"
       id="path48-9-6"
       style="display:inline" />
    <path
       d="M7500 915 l0 -675 793 0 794 0 39 28 c22 16 73 60 115 98 41 38 126 114 188 169 129 115 242 239 271 300 38 79 17 152 -77 269 -49 60 -436 407 -507 455 l-40 26 -788 3 -788 3 0 -676z m1571 645 c35 -10 95 -58 300 -241 160 -142 230 -213 275 -280 84 -122 70 -185 -72 -338 -66 -71 -337 -318 -452 -414 l-34 -27 -784 0 -784 0 0 655 0 655 758 0 c480 0 770 -4 793 -10z"
       id="path49" />
  </g>
</svg>
