<?xml version="1.0" standalone="no"?>
<!DOCTYPE svg PUBLIC "-//W3C//DTD SVG 20010904//EN"
 "http://www.w3.org/TR/2001/REC-SVG-20010904/DTD/svg10.dtd">
<svg version="1.0" xmlns="http://www.w3.org/2000/svg"
 width="996.000000pt" height="922.000000pt" viewBox="0 0 996.000000 922.000000"
 preserveAspectRatio="xMidYMid meet">
<metadata>
Created by potrace 1.16, written by Peter Selinger 2001-2019
</metadata>
<g transform="translate(0.000000,922.000000) scale(0.100000,-0.100000)"
fill="#FFFFFF" stroke="none">
<path d="M257 8858 c-9 -186 -9 -4563 0 -4690 l6 -98 2939 0 2938 0 0 2465 0
2465 -2938 0 -2939 0 -6 -142z m5863 -2323 l0 -2445 -2918 0 -2919 0 -6 268
c-9 367 -10 4024 -1 4355 l7 267 2919 0 2918 0 0 -2445z"/>
<path d="M2836 8469 c-15 -18 -39 -55 -54 -83 -24 -45 -27 -62 -27 -148 l0
-96 -172 169 c-94 93 -178 169 -187 169 -40 0 -3 -47 167 -218 144 -145 176
-181 152 -175 -46 12 -155 6 -205 -12 -57 -20 -140 -73 -140 -89 0 -15 76 -71
127 -93 21 -9 73 -19 116 -22 l78 -6 -155 -162 c-86 -89 -156 -166 -156 -172
0 -6 10 -11 21 -11 14 0 77 56 188 168 l166 167 0 -100 c0 -109 13 -146 78
-229 l31 -39 23 29 c78 94 107 220 76 329 -3 11 75 -60 174 -157 99 -98 185
-178 191 -178 7 0 12 10 12 22 0 16 -49 72 -160 183 l-160 160 88 0 c74 1 94
5 137 27 28 15 65 40 84 56 l35 29 -49 33 c-72 49 -140 73 -215 74 -36 0 -76
-3 -90 -6 -17 -5 35 53 153 171 170 170 197 206 162 218 -5 1 -87 -73 -181
-165 l-171 -167 1 86 c1 81 -1 90 -38 162 -21 42 -46 83 -56 92 -16 15 -19 14
-44 -16z"/>
<path d="M1174 8475 c-77 -17 -133 -45 -210 -106 -227 -180 -241 -513 -29
-724 151 -151 375 -186 568 -89 70 36 181 145 212 208 97 200 64 415 -87 572
-70 73 -152 120 -245 139 -82 18 -129 18 -209 0z m198 -16 c131 -27 260 -122
320 -235 106 -198 62 -447 -104 -585 -157 -131 -343 -154 -523 -65 -75 37
-168 124 -201 188 -74 144 -79 291 -14 434 86 189 317 306 522 263z"/>
<path d="M1132 8303 c2 -5 20 -42 41 -83 43 -87 60 -170 34 -170 -35 0 -169
49 -201 74 -18 14 -36 22 -40 19 -11 -11 -7 -291 5 -299 6 -3 23 5 37 19 31
29 107 61 171 72 l44 7 -6 -48 c-4 -27 -24 -83 -44 -124 -21 -41 -39 -78 -41
-82 -2 -5 62 -8 142 -8 80 0 146 4 146 8 0 5 -13 33 -29 63 -29 52 -67 177
-58 186 13 12 134 -24 191 -57 l64 -38 7 105 c7 95 3 178 -8 189 -2 2 -33 -11
-69 -30 -64 -33 -172 -65 -184 -53 -11 11 27 133 61 194 l35 63 -151 0 c-83 0
-149 -3 -147 -7z"/>
<path d="M4012 8470 c-70 -43 -75 -131 -11 -185 72 -60 179 -2 179 96 0 23
-10 41 -39 70 -45 45 -78 50 -129 19z"/>
<path d="M4775 8472 c-38 -24 -51 -40 -59 -74 -14 -59 47 -138 106 -138 102 0
153 112 86 185 -41 45 -90 54 -133 27z"/>
<path d="M4240 7995 l0 -205 205 0 205 0 0 205 0 205 -205 0 -205 0 0 -205z"/>
<path d="M3996 7700 c-18 -17 -37 -42 -40 -56 -10 -37 10 -89 45 -119 94 -79
228 46 160 149 -42 63 -110 74 -165 26z"/>
<path d="M4775 7712 c-54 -34 -73 -79 -54 -129 27 -71 95 -100 156 -67 69 37
83 113 31 169 -41 45 -90 54 -133 27z"/>
<path d="M853 7011 c-79 -36 -93 -119 -32 -181 25 -25 39 -30 76 -30 38 0 50
5 79 34 54 54 44 127 -25 173 -41 28 -45 28 -98 4z"/>
<path d="M1239 6988 c-74 -101 -94 -210 -60 -318 11 -35 19 -65 18 -67 -2 -1
-23 5 -47 13 -70 25 -181 15 -261 -23 -35 -16 -75 -39 -89 -50 l-24 -20 29
-27 c96 -86 251 -116 366 -71 15 6 15 1 2 -57 -9 -37 -13 -83 -9 -112 6 -54
51 -155 89 -200 l24 -30 27 28 c14 16 38 54 53 85 24 49 28 68 28 146 0 50 -4
102 -9 118 -8 26 -7 27 16 18 54 -20 134 -23 199 -7 67 17 174 83 174 107 0
19 -75 67 -140 90 -66 23 -166 25 -225 4 -23 -8 -44 -15 -45 -15 -1 0 6 24 16
53 26 75 24 178 -4 248 -24 57 -73 129 -88 129 -5 0 -23 -19 -40 -42z"/>
<path d="M1626 7020 c-63 -19 -96 -78 -77 -140 16 -53 52 -80 108 -80 38 0 50
5 79 34 24 24 34 43 34 65 0 44 -25 88 -63 111 -35 22 -39 22 -81 10z"/>
<path d="M3960 6998 c0 -6 89 -101 197 -210 109 -109 195 -198 192 -198 -17 0
-128 43 -167 65 -24 14 -46 25 -48 25 -2 0 -4 -67 -4 -150 0 -82 2 -150 5
-150 3 0 22 11 43 25 21 13 71 36 112 50 l75 25 -203 -203 c-111 -112 -202
-208 -202 -215 0 -35 54 6 232 178 l197 191 -15 -53 c-9 -29 -29 -75 -46 -102
-16 -26 -26 -51 -23 -55 7 -6 274 -10 287 -3 4 1 -3 20 -17 40 -23 35 -65 142
-65 166 0 6 87 -76 194 -183 139 -139 199 -192 210 -188 9 4 16 12 16 19 0 7
-89 102 -197 211 l-198 197 59 -20 c33 -11 84 -34 113 -50 l53 -30 0 151 0
151 -42 -25 c-43 -24 -158 -70 -163 -65 -2 2 82 91 186 198 104 107 189 201
189 208 0 36 -53 -6 -229 -180 -179 -178 -193 -190 -187 -158 3 19 24 70 46
113 l40 77 -150 0 c-82 0 -150 -2 -150 -5 0 -2 16 -35 36 -72 19 -37 39 -85
44 -107 8 -36 -2 -28 -184 153 -130 129 -200 191 -215 191 -11 0 -21 -5 -21
-12z"/>
<path d="M2667 6733 c-4 -3 -7 -96 -7 -205 l0 -198 199 0 199 0 6 31 c3 17 6
107 6 199 l0 167 -77 7 c-100 8 -318 8 -326 -1z"/>
<path d="M863 6259 c-35 -10 -70 -48 -79 -86 -9 -34 24 -101 57 -119 50 -25
97 -18 136 21 33 33 35 39 30 81 -8 78 -72 123 -144 103z"/>
<path d="M1626 6260 c-126 -38 -100 -220 32 -220 102 0 149 129 71 194 -17 14
-34 26 -39 26 -5 0 -14 2 -22 4 -7 2 -26 0 -42 -4z"/>
<path d="M3655 5728 c-3 -7 -4 -310 -3 -673 l3 -660 795 0 795 0 30 23 c155
122 504 458 555 535 57 85 60 117 20 196 -52 99 -179 225 -554 549 l-49 42
-794 0 c-626 0 -795 -3 -798 -12z m1605 -25 c47 -32 355 -307 440 -393 88 -89
160 -196 160 -239 0 -78 -128 -226 -415 -479 l-200 -177 -785 0 -785 0 -3 600
c-2 330 0 624 3 653 l6 52 777 0 c714 0 780 -1 802 -17z"/>
<path d="M3950 5071 l0 -489 23 -6 c12 -3 234 -5 492 -3 l470 2 3 493 2 492
-495 0 -495 0 0 -489z m970 -4 l0 -473 -469 1 -469 0 -6 35 c-8 48 -8 672 1
803 l6 107 469 0 468 0 0 -473z"/>
<path d="M2423 5540 c-39 -23 -53 -48 -53 -92 0 -83 84 -139 155 -105 81 38
95 125 30 185 -41 38 -84 42 -132 12z"/>
<path d="M3164 5526 c-28 -28 -34 -42 -34 -76 0 -119 140 -159 207 -59 24 36
25 43 14 79 -16 53 -62 90 -113 90 -32 0 -47 -7 -74 -34z"/>
<path d="M800 5529 c0 -13 56 -78 157 -180 l157 -160 -59 -59 c-66 -67 -67
-57 14 -143 l46 -47 -158 -158 c-109 -109 -157 -164 -157 -180 0 -12 6 -22 12
-22 7 0 86 73 176 163 l163 162 61 -63 61 -63 63 62 c35 35 67 59 71 55 5 -4
77 -75 161 -157 142 -138 192 -173 192 -135 0 7 -73 86 -162 174 l-163 161 65
66 65 65 -63 62 -62 63 160 160 c151 152 182 195 143 195 -9 0 -89 -72 -178
-160 l-161 -160 -59 60 c-33 33 -62 60 -66 60 -4 0 -34 -27 -66 -61 l-59 -61
-166 161 c-91 89 -171 161 -177 161 -6 0 -11 -9 -11 -21z"/>
<path d="M2720 5369 c0 -6 9 -24 21 -40 23 -33 53 -114 63 -171 6 -30 4 -38
-8 -38 -32 0 -164 48 -201 73 -21 14 -42 24 -47 21 -12 -8 -10 -294 2 -294 6
0 28 11 48 24 44 28 114 53 173 62 40 7 40 7 34 -22 -20 -86 -29 -114 -56
-163 -16 -30 -29 -58 -29 -63 0 -4 66 -8 146 -8 80 0 144 3 142 8 -1 4 -20 41
-41 82 -22 43 -40 97 -44 127 l-6 52 74 -20 c41 -11 96 -33 122 -49 27 -17 53
-30 58 -30 5 0 9 62 9 145 0 91 -4 145 -10 145 -6 0 -34 -13 -63 -29 -53 -30
-175 -67 -185 -56 -12 12 19 122 53 188 l34 67 -144 0 c-99 0 -145 -4 -145
-11z"/>
<path d="M2404 4764 c-47 -49 -47 -100 -1 -151 30 -32 39 -36 81 -36 54 1 81
20 103 72 18 43 9 83 -29 121 -24 25 -38 30 -75 30 -39 0 -50 -5 -79 -36z"/>
<path d="M3164 4766 c-26 -26 -34 -42 -34 -70 0 -73 43 -119 111 -118 50 1 72
14 99 57 30 48 21 93 -26 134 -50 45 -104 43 -150 -3z"/>
<path d="M6360 6045 l0 -267 143 4 c156 4 184 13 231 69 44 52 58 97 60 189 1
98 -13 147 -57 196 -52 60 -76 68 -234 72 l-143 4 0 -267z m288 178 c59 -44
67 -66 67 -178 0 -89 -3 -107 -21 -131 -41 -56 -66 -66 -168 -72 l-96 -5 0
200 c0 110 3 203 8 207 4 5 47 6 96 3 66 -3 95 -9 114 -24z"/>
<path d="M7114 6035 c-16 -7 -35 -24 -42 -39 -18 -40 -15 -135 6 -176 16 -32
21 -35 61 -35 58 0 83 31 89 113 8 107 -42 167 -114 137z m62 -40 c35 -53 26
-163 -16 -185 -13 -7 -24 -5 -42 9 -20 17 -23 28 -23 89 0 55 4 74 19 91 25
28 42 27 62 -4z"/>
<path d="M6918 6009 c-44 -36 -55 -72 -13 -45 13 9 27 16 30 16 3 0 5 -45 5
-100 0 -93 1 -100 20 -100 19 0 20 7 20 130 0 146 -2 148 -62 99z"/>
<path d="M936 3819 c-25 -22 -46 -45 -46 -50 0 -13 34 -11 48 3 9 9 12 -6 12
-70 0 -81 0 -82 25 -82 l25 0 0 114 c0 63 -4 117 -9 120 -5 3 -29 -13 -55 -35z"/>
<path d="M8232 3852 c-19 -6 -112 -142 -112 -164 0 -12 7 -18 23 -18 39 0 66
-12 72 -31 8 -24 34 -25 42 -1 3 9 13 25 21 34 13 16 13 18 -2 24 -12 5 -16
20 -17 63 -1 69 -10 99 -27 93z m-16 -117 c-5 -26 -12 -35 -26 -35 -26 0 -25
14 2 50 26 36 33 32 24 -15z"/>
<path d="M3322 3830 c-12 -12 -22 -27 -22 -35 0 -20 29 -19 51 1 10 9 25 14
34 11 20 -8 19 -41 -2 -58 -24 -20 -93 -109 -93 -120 0 -6 33 -9 77 -7 65 3
78 6 81 21 3 14 -4 17 -37 17 -48 0 -51 8 -15 41 37 34 57 84 44 109 -23 43
-83 53 -118 20z"/>
<path d="M5742 3834 c-12 -8 -22 -21 -22 -29 0 -23 20 -28 39 -11 21 19 37 20
47 4 4 -6 -5 -21 -21 -34 l-29 -23 26 -10 c27 -10 44 -43 33 -61 -9 -15 -41
-12 -55 5 -16 19 -29 19 -37 0 -9 -25 26 -55 64 -55 62 0 96 68 56 112 -13 14
-14 21 -5 30 31 31 -4 88 -53 88 -11 0 -31 -7 -43 -16z"/>
<path d="M349 3542 l-86 -3 -6 -127 c-9 -165 -9 -968 0 -1105 l6 -107 793 0
792 0 80 68 c381 322 552 509 552 607 0 74 -119 223 -313 392 -55 49 -145 127
-200 176 -55 48 -109 89 -121 92 -26 5 -1377 12 -1497 7z m1445 -18 c51 -6 66
-13 112 -53 29 -25 95 -82 146 -126 287 -246 408 -385 408 -470 0 -66 -119
-218 -287 -368 -246 -219 -296 -263 -316 -274 -17 -9 -206 -12 -798 -13 l-776
0 -6 173 c-9 222 -9 747 0 960 l6 166 91 3 c202 6 1365 8 1420 2z"/>
<path d="M591 3343 c-8 -15 1 -29 51 -79 l60 -62 -32 -46 c-17 -26 -43 -72
-58 -104 -24 -51 -27 -68 -27 -172 0 -127 19 -197 72 -272 16 -22 32 -45 38
-53 7 -11 -5 -30 -53 -78 -59 -59 -61 -64 -45 -80 16 -16 21 -14 79 44 l61 60
62 -40 c95 -61 149 -76 271 -76 122 0 176 15 271 76 l62 40 56 -55 c54 -54 83
-67 96 -46 4 6 -21 39 -55 74 l-61 64 35 49 c65 91 80 143 81 283 0 121 -1
127 -33 195 -18 38 -44 84 -58 103 l-26 33 61 65 c34 35 61 69 61 74 0 6 -10
10 -22 10 -14 0 -45 -22 -80 -56 l-57 -57 -30 26 c-128 108 -359 129 -521 47
-25 -12 -60 -34 -78 -47 l-34 -25 -62 61 c-34 33 -65 61 -68 61 -4 0 -11 -8
-17 -17z m679 -45 c41 -20 85 -45 98 -55 l22 -18 -160 -160 -160 -160 -155
155 c-85 85 -155 159 -155 165 0 16 102 74 167 96 45 15 81 18 163 16 98 -2
110 -5 180 -39z m-393 -585 l-158 -158 -20 25 c-124 155 -131 395 -17 562 l33
48 160 -160 160 -160 -158 -157z m626 350 c31 -65 32 -73 32 -193 0 -138 -12
-181 -79 -275 l-32 -44 -159 159 -160 160 159 159 159 159 24 -28 c13 -15 38
-59 56 -97z m-143 -565 c-14 -11 -58 -37 -99 -56 -124 -60 -279 -56 -409 9
-32 16 -67 38 -77 49 -18 20 -17 23 136 178 l154 158 160 -159 160 -158 -25
-21z"/>
<path d="M2670 2873 l0 -673 799 0 799 0 229 204 c361 322 433 428 373 545
-31 61 -110 155 -208 245 -124 114 -320 286 -362 318 l-35 26 -797 4 -798 4 0
-673z m1767 500 c289 -254 397 -370 430 -466 12 -34 11 -43 -7 -84 -26 -58
-106 -157 -207 -253 -99 -95 -325 -297 -366 -327 l-31 -23 -783 0 -783 0 0
650 0 650 789 0 789 0 169 -147z"/>
<path d="M3420 3359 c-113 -16 -187 -54 -279 -142 -106 -100 -146 -197 -145
-347 0 -83 5 -106 33 -178 27 -68 46 -97 99 -154 105 -111 210 -159 352 -159
287 -2 518 241 497 522 -10 123 -54 217 -148 317 -59 61 -120 99 -199 122 -84
24 -142 30 -210 19z m-8 -90 c-34 -67 -37 -78 -37 -158 1 -66 6 -97 22 -133
l22 -48 -32 18 c-25 13 -56 17 -133 17 -98 0 -104 -1 -173 -37 -39 -21 -71
-34 -71 -30 1 36 34 150 56 193 61 121 239 245 356 248 l26 1 -36 -71z m217
52 c33 -10 80 -30 105 -45 59 -34 140 -127 177 -201 28 -59 57 -170 46 -181
-3 -3 -22 6 -44 20 -65 42 -134 59 -221 54 -44 -3 -91 -12 -109 -21 l-32 -17
22 48 c17 36 22 66 22 132 0 88 -10 124 -52 193 l-23 37 24 0 c13 0 51 -8 85
-19z m-414 -576 c38 -5 76 -3 117 7 l60 15 -6 -26 c-27 -113 -13 -219 39 -295
14 -21 24 -41 21 -44 -10 -10 -111 18 -174 48 -117 55 -214 180 -246 318 l-13
59 72 -38 c45 -23 95 -40 130 -44z m745 77 c0 -4 -7 -34 -15 -67 -44 -167
-163 -288 -334 -339 -93 -27 -94 -26 -53 55 35 67 37 77 37 163 0 57 -6 100
-14 115 -12 22 -12 23 5 17 47 -18 121 -27 169 -21 52 6 167 53 179 74 8 13
26 15 26 3z"/>
<path d="M5084 3541 c-2 -2 -4 -305 -4 -673 l0 -668 803 0 802 1 55 50 c30 28
114 101 185 164 264 230 385 376 385 464 0 34 -59 132 -124 207 -55 63 -410
382 -470 423 l-40 26 -794 5 c-436 3 -796 3 -798 1z m1624 -48 c114 -78 475
-421 532 -506 69 -103 65 -138 -30 -266 -63 -84 -142 -162 -300 -296 -58 -49
-133 -115 -167 -147 l-61 -58 -791 0 -791 0 0 650 0 650 783 0 784 0 41 -27z"/>
<path d="M5427 3353 c-19 -18 8 -52 185 -230 106 -106 190 -193 187 -193 -20
0 -130 45 -162 66 -21 13 -42 22 -47 19 -12 -7 -13 -264 -2 -282 6 -9 18 -6
45 13 37 25 85 45 142 58 24 6 -7 -30 -162 -186 -106 -106 -193 -201 -193
-210 0 -45 34 -19 222 168 215 215 223 219 151 66 -19 -41 -32 -77 -28 -80 8
-8 263 -7 271 1 3 3 -4 24 -17 48 -23 46 -61 150 -56 155 2 2 88 -82 192 -186
178 -179 225 -214 225 -173 0 10 -87 105 -192 211 -210 210 -214 221 -56 143
43 -21 80 -36 83 -33 10 10 5 281 -5 287 -6 3 -23 -3 -40 -15 -34 -24 -102
-55 -145 -64 -24 -6 6 29 163 186 105 107 192 202 192 210 0 45 -34 19 -222
-168 -232 -230 -234 -230 -110 19 4 8 -282 10 -291 1 -3 -3 7 -28 23 -54 26
-44 64 -149 57 -156 -2 -2 -90 84 -197 191 -107 107 -197 195 -201 195 -3 0
-9 -3 -12 -7z"/>
<path d="M7500 2870 l0 -670 798 0 797 0 67 58 c256 220 469 426 521 506 60
93 44 172 -60 300 -46 55 -383 361 -486 439 l-49 37 -794 0 -794 0 0 -670z
m1611 632 c36 -23 314 -268 412 -361 43 -42 98 -105 123 -142 84 -122 70 -184
-75 -341 -71 -77 -375 -353 -452 -411 l-36 -27 -781 0 -782 0 0 650 0 650 783
0 c727 0 784 -1 808 -18z"/>
<path d="M8271 3320 c-42 -61 -70 -141 -71 -197 l0 -42 -42 -3 -43 -3 -3 -52
-3 -53 -43 0 c-24 0 -68 -9 -99 -19 -66 -23 -150 -78 -144 -94 2 -6 28 -28 58
-49 55 -37 146 -68 201 -68 25 0 28 -3 28 -34 0 -35 15 -46 66 -46 19 0 22 -7
27 -61 6 -69 51 -170 92 -209 l26 -25 20 25 c42 54 81 148 86 209 l6 60 43 7
c42 6 44 8 44 39 0 32 1 32 58 39 63 7 159 49 207 90 l30 26 -25 21 c-51 44
-141 80 -232 94 -37 6 -38 7 -38 49 0 48 -9 56 -61 56 -27 0 -29 3 -29 38 0
21 -7 63 -16 93 -18 59 -79 159 -97 159 -7 0 -27 -22 -46 -50z"/>
<path d="M3328 1840 c-29 -29 -30 -34 -26 -95 5 -77 25 -105 75 -105 67 0 98
79 52 129 -17 18 -29 22 -55 18 -23 -4 -34 -2 -34 7 0 32 53 49 64 21 7 -20
36 -8 36 16 0 21 -28 39 -60 39 -12 0 -35 -14 -52 -30z m82 -124 c0 -22 -18
-38 -36 -34 -26 5 -31 48 -8 65 16 12 21 11 31 -4 7 -9 13 -22 13 -27z"/>
<path d="M5763 1863 c-38 -3 -53 -8 -53 -19 0 -10 13 -14 49 -14 l50 0 -30
-64 c-38 -81 -42 -120 -13 -124 18 -3 22 3 27 39 3 23 22 73 41 110 26 50 32
69 22 69 -8 0 -20 1 -28 3 -7 2 -37 2 -65 0z"/>
<path d="M8154 1845 c-18 -18 -23 -31 -18 -43 9 -20 8 -47 -1 -84 -12 -45 16
-78 65 -78 30 0 43 6 59 26 25 32 26 52 5 83 -12 17 -13 26 -5 34 18 18 13 55
-11 71 -32 23 -65 20 -94 -9z m72 -26 c8 -14 -21 -43 -35 -35 -6 4 -11 16 -11
27 0 21 34 27 46 8z m-1 -109 c0 -18 -6 -26 -23 -28 -13 -2 -25 3 -28 12 -10
26 4 48 28 44 17 -2 23 -10 23 -28z"/>
<path d="M905 1823 c-3 -21 -8 -49 -11 -62 -5 -21 -3 -23 23 -17 60 15 68 13
71 -20 4 -45 -18 -60 -51 -33 -27 21 -47 19 -47 -5 0 -41 92 -63 123 -28 23
25 30 67 16 94 -16 30 -28 38 -61 38 -48 0 -35 28 14 32 31 2 44 8 46 21 3 15
-5 17 -57 17 l-60 0 -6 -37z"/>
<path d="M256 1460 c-8 -164 -8 -1011 0 -1128 l7 -92 793 0 793 0 85 72 c407
347 558 518 543 615 -14 83 -122 217 -308 379 -56 49 -147 128 -202 177 -55
48 -109 90 -121 92 -11 3 -372 6 -802 8 l-781 2 -7 -125z m1335 101 l257 -1
45 -37 c45 -38 124 -107 315 -276 147 -130 252 -268 252 -331 0 -91 -206 -315
-564 -613 l-51 -43 -782 0 -783 0 0 650 0 650 303 2 c166 2 403 2 527 1 124
-1 340 -2 481 -2z"/>
<path d="M988 1400 c-76 -13 -140 -38 -198 -76 -29 -19 -57 -36 -61 -37 -4 -1
-35 25 -69 58 -58 56 -63 58 -76 41 -12 -17 -10 -24 18 -58 17 -22 43 -49 59
-60 l27 -21 -39 -57 c-60 -88 -81 -158 -83 -270 -1 -117 19 -187 79 -274 l42
-62 -58 -61 c-62 -64 -69 -80 -43 -90 10 -4 35 13 75 53 44 43 63 56 72 49
108 -81 201 -115 316 -115 113 0 213 32 298 96 17 13 35 24 40 24 4 0 33 -25
64 -56 39 -38 63 -55 73 -51 26 10 19 25 -41 88 -41 44 -54 64 -48 73 85 114
108 181 108 316 0 120 -16 176 -82 278 l-39 60 59 58 c32 32 59 64 59 70 0 29
-29 17 -89 -37 l-63 -57 -61 39 c-100 65 -237 96 -339 79z m-6 -91 c-35 -67
-37 -77 -37 -163 l1 -91 -103 104 c-73 74 -100 107 -93 116 27 33 192 104 242
105 l26 0 -36 -71z m209 55 c50 -14 178 -82 179 -94 0 -3 -46 -51 -102 -107
l-103 -103 0 88 c0 77 -4 95 -32 156 -18 37 -33 70 -33 72 0 8 39 3 91 -12z
m272 -217 c37 -67 52 -108 62 -175 l7 -42 -73 37 c-64 32 -84 38 -160 41 -56
3 -94 0 -110 -8 -13 -7 30 42 95 109 91 91 123 118 133 110 7 -6 28 -39 46
-72z m-647 -36 l109 -108 -71 5 c-88 6 -158 -10 -220 -49 -25 -17 -49 -28 -52
-25 -9 9 18 117 44 174 26 58 61 112 73 112 4 0 57 -49 117 -109z m-1 -326
l75 0 -92 -92 c-51 -51 -95 -93 -98 -93 -9 1 -66 94 -84 139 -9 25 -21 63 -25
86 l-8 41 79 -40 c70 -36 86 -40 153 -41z m708 48 c-12 -81 -90 -239 -113
-231 -5 2 -50 44 -102 93 l-93 90 75 1 c60 0 87 6 137 28 35 16 68 35 74 42
20 24 28 15 22 -23z m-574 -85 c-21 -74 -2 -182 46 -264 l27 -47 -48 8 c-26 4
-70 16 -97 26 -51 20 -137 75 -137 87 0 6 211 222 217 222 1 0 -3 -15 -8 -32z
m369 -137 c29 -30 49 -57 44 -60 -84 -56 -122 -76 -173 -92 -101 -32 -103 -30
-61 52 34 66 37 78 37 159 l0 88 50 -46 c28 -26 74 -71 103 -101z"/>
<path d="M2708 1584 l-38 -5 0 -670 0 -669 799 0 800 0 228 204 c125 112 248
227 272 256 63 75 109 146 121 188 15 55 -30 139 -133 249 -82 86 -403 378
-465 421 l-32 23 -758 4 c-416 2 -774 1 -794 -1z m1583 -45 c19 -15 79 -66
134 -115 297 -263 393 -364 437 -463 19 -41 19 -45 3 -88 -37 -97 -231 -298
-538 -556 l-67 -57 -785 0 -785 0 0 650 0 650 293 2 c160 2 513 3 783 3 l491
0 34 -26z"/>
<path d="M3015 1369 c-30 -27 -35 -37 -35 -76 0 -38 5 -50 34 -79 28 -28 41
-34 78 -34 37 0 49 6 76 33 45 46 45 102 1 152 -27 30 -37 35 -75 35 -34 0
-51 -6 -79 -31z"/>
<path d="M3775 1369 c-30 -27 -35 -37 -35 -75 0 -34 6 -51 31 -79 27 -30 37
-35 76 -35 38 0 50 5 79 34 47 47 48 100 3 151 -27 30 -37 35 -75 35 -34 0
-51 -6 -79 -31z"/>
<path d="M3320 1224 c0 -4 14 -29 30 -56 28 -44 77 -194 68 -204 -8 -8 -151
37 -201 64 -29 15 -55 28 -59 30 -5 2 -8 -64 -8 -147 0 -83 2 -151 5 -151 2 0
34 16 70 36 58 32 182 71 192 60 10 -9 -31 -136 -63 -194 -29 -54 -32 -64 -18
-69 18 -7 274 4 282 12 3 3 -2 13 -10 22 -34 38 -59 101 -82 206 -7 28 -6 28
31 21 62 -11 139 -41 180 -68 21 -14 41 -26 45 -26 5 0 8 68 8 150 0 83 -2
150 -5 150 -2 0 -33 -16 -67 -35 -56 -30 -186 -71 -196 -60 -9 8 30 130 60
187 18 35 34 66 36 71 2 4 -64 7 -147 7 -83 0 -151 -3 -151 -6z"/>
<path d="M3820 643 c-8 -3 -30 -19 -47 -36 -28 -26 -33 -38 -33 -75 0 -37 6
-50 34 -78 47 -47 100 -48 151 -3 31 27 35 37 35 78 0 40 -5 52 -32 78 -33 31
-80 47 -108 36z"/>
<path d="M3015 609 c-30 -27 -35 -37 -35 -76 0 -38 5 -50 34 -79 29 -29 41
-34 79 -34 39 0 49 5 76 35 25 28 31 45 31 80 0 37 -5 49 -32 74 -46 43 -103
43 -153 0z"/>
<path d="M5133 1583 l-53 -4 0 -670 0 -669 803 0 802 1 55 50 c30 28 114 101
185 163 248 215 385 380 385 463 0 35 -57 132 -123 207 -62 72 -430 400 -484
432 l-42 26 -738 3 c-406 1 -762 1 -790 -2z m1508 -23 c58 -11 64 -16 304
-231 275 -248 366 -367 341 -447 -27 -82 -159 -232 -351 -396 -71 -61 -158
-137 -192 -168 l-62 -58 -791 0 -790 0 0 650 0 649 68 3 c191 9 1426 7 1473
-2z"/>
<path d="M5855 1378 c-67 -79 -103 -221 -76 -300 9 -25 -25 4 -162 140 -116
115 -181 172 -196 172 -11 0 -21 -6 -21 -12 0 -7 81 -94 180 -193 l180 -180
-79 3 c-52 3 -97 -1 -132 -12 -64 -18 -154 -75 -154 -96 0 -21 100 -86 155
-101 25 -7 73 -13 106 -14 l61 0 -158 -163 c-88 -89 -159 -169 -159 -177 0
-38 46 -4 180 131 80 80 156 154 170 164 l25 18 0 -87 c0 -77 3 -93 32 -152
18 -35 43 -75 57 -88 l25 -24 21 24 c11 13 34 52 51 86 36 72 50 178 30 235
-9 26 24 -2 166 -144 98 -98 183 -178 190 -178 6 0 14 7 17 17 5 12 -36 59
-153 177 l-160 161 75 1 c62 1 85 7 137 33 34 17 76 43 92 56 l30 26 -25 20
c-14 12 -52 35 -85 53 -56 29 -67 31 -162 31 l-103 0 182 182 c174 174 182
184 165 200 -17 17 -26 10 -191 -157 l-174 -175 5 66 c4 44 0 83 -10 120 -17
58 -75 160 -93 166 -6 2 -24 -11 -39 -29z"/>
<path d="M7505 1582 c-3 -3 -5 -306 -5 -674 l0 -668 793 0 794 0 39 28 c22 16
73 60 115 98 42 38 124 112 183 164 128 114 247 246 277 307 59 121 -19 236
-360 534 -84 74 -176 151 -203 172 l-50 37 -207 1 c-654 5 -1372 5 -1376 1z
m1611 -44 c49 -35 307 -262 407 -357 43 -42 98 -105 123 -142 84 -122 70 -188
-73 -339 -75 -80 -379 -356 -454 -413 l-36 -27 -781 0 -782 0 0 649 c0 510 3
650 13 654 6 3 357 4 778 3 l766 -1 39 -27z"/>
<path d="M7853 1380 c-93 -56 -44 -200 67 -200 66 0 110 47 110 116 0 28 -8
44 -34 70 -40 40 -92 46 -143 14z"/>
<path d="M8614 1381 c-42 -26 -60 -78 -44 -126 17 -50 53 -75 110 -75 42 0 52
4 79 35 23 27 31 45 31 75 0 59 -48 110 -104 110 -23 0 -55 -9 -72 -19z"/>
<path d="M8203 1295 c-182 -49 -302 -202 -303 -386 0 -61 32 -163 69 -218 39
-59 124 -127 191 -152 69 -27 183 -30 261 -6 76 23 175 100 216 168 76 127 80
254 12 389 -86 171 -265 253 -446 205z m239 -34 c156 -60 263 -252 230 -416
-33 -161 -150 -276 -315 -306 -106 -20 -202 7 -295 81 -131 103 -175 277 -110
436 13 34 40 80 59 102 36 44 140 105 205 121 58 15 161 6 226 -18z"/>
<path d="M7895 642 c-65 -15 -108 -88 -85 -143 20 -47 65 -79 112 -79 55 0
108 51 108 104 0 81 -62 136 -135 118z"/>
<path d="M8612 624 c-59 -41 -63 -121 -10 -174 24 -24 38 -30 75 -30 84 0 140
89 102 163 -20 38 -51 57 -99 57 -25 0 -55 -7 -68 -16z"/>
</g>
</svg>
