<?xml version="1.0" standalone="no"?>
<!DOCTYPE svg PUBLIC "-//W3C//DTD SVG 20010904//EN"
 "http://www.w3.org/TR/2001/REC-SVG-20010904/DTD/svg10.dtd">
<svg version="1.0" xmlns="http://www.w3.org/2000/svg"
 width="996.000000pt" height="922.000000pt" viewBox="0 0 996.000000 922.000000"
 preserveAspectRatio="xMidYMid meet">
<metadata>
Created by potrace 1.16, written by Peter Selinger 2001-2019
</metadata>
<g transform="translate(0.000000,922.000000) scale(0.100000,-0.100000)"
fill="#FFFFFF" stroke="none">
<path d="M258 7133 c-2 -1028 -2 -2137 0 -2465 l2 -598 2940 0 2940 0 0 2465
0 2465 -2940 0 -2940 0 -2 -1867z m5862 -598 l0 -2445 -2918 0 -2919 0 -6 153
c-9 204 -9 3757 -1 4305 l7 432 2919 0 2918 0 0 -2445z"/>
<path d="M2787 8263 c-152 -282 -347 -650 -347 -656 0 -4 191 -7 425 -7 l424
0 -36 68 c-38 72 -141 265 -271 507 -44 83 -89 167 -100 188 l-20 38 -75 -138z
m224 -180 c79 -148 166 -312 195 -365 l52 -98 -394 0 c-217 0 -394 2 -394 5 0
3 44 87 99 188 54 100 138 256 186 347 80 151 102 190 110 190 2 0 68 -120
146 -267z"/>
<path d="M1310 8375 c-224 -51 -399 -233 -504 -522 -36 -102 -69 -249 -51
-232 2 3 20 59 39 124 60 211 142 361 250 463 175 163 378 200 638 115 43 -14
76 -29 73 -33 -3 -4 -22 -11 -42 -15 -103 -19 -250 -144 -277 -235 -35 -117
-4 -257 84 -385 47 -68 54 -54 9 20 -86 142 -110 284 -65 380 25 54 106 134
167 165 57 30 142 60 167 60 39 0 24 14 -41 38 -169 64 -328 84 -447 57z"/>
<path d="M4374 8253 c-6 -5 -28 -42 -49 -83 -86 -173 -192 -284 -338 -355 -51
-24 -111 -47 -135 -51 -23 -4 -45 -11 -48 -15 -3 -5 276 -9 637 -9 354 0 639
4 634 8 -6 5 -41 19 -80 31 -91 29 -187 86 -256 153 -74 72 -103 112 -163 226
l-51 97 -70 3 c-38 1 -75 -1 -81 -5z m140 -29 c9 -8 37 -56 63 -107 38 -74 65
-110 138 -183 74 -74 106 -99 175 -132 l85 -42 -525 1 -525 0 60 28 c137 64
269 198 349 354 21 39 42 77 48 84 15 19 113 17 132 -3z"/>
<path d="M1266 6908 c-2 -7 -9 -40 -16 -73 -40 -202 -148 -407 -271 -519 -67
-60 -234 -150 -301 -162 -21 -3 -38 -10 -38 -15 0 -5 288 -9 640 -9 592 0 724
5 594 25 -25 3 -87 27 -137 53 -128 64 -251 187 -319 317 -55 107 -103 240
-119 330 -10 60 -25 83 -33 53z m132 -384 c81 -156 180 -254 346 -343 33 -17
61 -33 62 -34 1 -1 -236 -1 -527 1 l-529 2 74 39 c163 84 262 190 354 377 27
55 59 139 73 187 l23 86 37 -108 c20 -59 59 -153 87 -207z"/>
<path d="M2981 6904 c-232 -63 -423 -302 -506 -633 -15 -57 -24 -109 -21 -117
4 -12 74 -14 411 -14 223 0 405 3 405 6 0 3 -18 36 -40 72 -100 168 -112 302
-39 416 l29 46 -58 118 c-56 115 -58 117 -92 119 -19 1 -59 -4 -89 -13z m166
-117 l52 -107 -29 -43 c-34 -47 -55 -140 -45 -196 11 -67 46 -158 80 -216 19
-32 35 -59 35 -61 0 -2 -172 -3 -382 -2 l-383 3 3 25 c6 53 45 188 71 251 36
86 116 220 164 274 80 92 264 187 352 182 28 -2 34 -10 82 -110z"/>
<path d="M4427 6898 c-8 -13 -72 -131 -142 -263 -70 -132 -159 -298 -197 -368
-66 -122 -84 -172 -40 -110 18 26 183 332 329 611 36 67 68 122 72 122 4 0 17
-21 30 -47 44 -92 344 -649 363 -676 39 -55 29 -18 -20 69 -26 49 -120 223
-207 387 -87 163 -162 297 -166 297 -5 0 -15 -10 -22 -22z"/>
<path d="M3652 5068 l3 -673 782 -3 c438 -1 792 2 805 7 29 11 266 220 426
376 132 128 197 214 208 273 11 56 -42 147 -146 256 -85 89 -381 354 -454 408
l-39 28 -794 0 -793 0 2 -672z m1614 630 c44 -33 246 -211 363 -318 142 -131
231 -250 231 -311 0 -42 -41 -108 -128 -205 -99 -110 -470 -441 -504 -449 -13
-3 -367 -4 -788 -3 l-765 3 -3 610 c-2 336 0 629 3 653 l6 42 778 0 778 0 29
-22z"/>
<path d="M2842 5397 c-14 -74 -66 -235 -95 -292 -100 -200 -239 -328 -430
-397 -51 -18 -84 -34 -73 -36 27 -6 163 45 226 85 110 69 223 199 289 331 33
66 91 234 91 264 0 43 17 11 43 -80 50 -173 145 -333 265 -444 68 -63 148
-107 256 -142 89 -29 86 -29 86 -18 0 4 -26 16 -57 27 -219 72 -355 191 -461
402 -31 60 -93 250 -107 326 -4 20 -10 37 -14 37 -4 0 -13 -28 -19 -63z"/>
<path d="M1127 5315 c-13 -12 -63 -104 -243 -441 -18 -34 -30 -65 -27 -68 9
-9 843 -7 843 2 0 7 -52 106 -190 367 -35 66 -70 128 -78 138 -13 15 -34 17
-153 17 -107 0 -141 -3 -152 -15z m342 -102 c28 -54 85 -161 126 -238 41 -77
75 -143 75 -147 0 -5 -178 -8 -396 -8 l-396 0 63 118 c35 64 91 171 126 236
34 66 68 123 75 128 7 4 72 8 145 8 l131 0 51 -97z"/>
<path d="M6360 6045 l0 -267 143 4 c156 4 184 13 231 69 47 55 59 97 60 194 0
80 -3 98 -28 148 -21 44 -38 63 -74 84 -44 26 -56 28 -189 32 l-143 3 0 -267z
m238 196 c52 -10 97 -50 114 -100 19 -58 13 -164 -12 -216 -29 -61 -61 -75
-176 -82 l-94 -6 0 200 c0 110 3 203 7 206 9 10 109 8 161 -2z"/>
<path d="M6918 6009 c-48 -39 -53 -67 -8 -44 l30 16 0 -101 c0 -92 1 -100 20
-100 18 0 19 8 18 130 0 90 -4 130 -12 130 -6 -1 -28 -14 -48 -31z"/>
<path d="M7098 6009 c-44 -36 -55 -72 -13 -45 13 9 27 16 30 16 3 0 5 -45 5
-100 0 -82 3 -100 15 -100 13 0 15 21 15 130 0 72 -3 130 -7 130 -5 -1 -25
-14 -45 -31z"/>
<path d="M930 3814 c-22 -20 -40 -40 -40 -45 0 -13 34 -11 48 3 9 9 12 -6 12
-70 0 -81 0 -82 25 -82 l25 0 0 115 c0 133 -5 138 -70 79z"/>
<path d="M3322 3827 c-12 -13 -22 -29 -22 -35 0 -17 35 -15 50 3 18 22 50 19
50 -4 0 -10 -25 -49 -55 -86 -30 -37 -53 -71 -49 -76 3 -5 39 -9 80 -9 67 0
74 2 74 20 0 17 -7 20 -47 20 l-47 0 36 38 c36 38 58 72 58 92 0 6 -11 22 -25
35 -31 32 -74 33 -103 2z"/>
<path d="M5742 3834 c-12 -8 -22 -21 -22 -29 0 -23 20 -28 39 -11 22 20 51 21
51 2 0 -8 -12 -23 -27 -34 l-26 -19 29 -14 c33 -16 43 -49 19 -69 -13 -11 -19
-9 -40 10 -23 22 -45 20 -45 -4 0 -22 35 -46 68 -46 59 0 94 70 55 112 -13 14
-14 21 -5 30 31 31 -4 88 -53 88 -11 0 -31 -7 -43 -16z"/>
<path d="M8201 3819 c-51 -68 -81 -118 -81 -132 0 -10 15 -17 46 -22 34 -5 48
-12 51 -26 8 -30 30 -22 49 17 13 26 14 38 5 47 -6 6 -11 28 -11 48 0 54 -11
99 -24 99 -7 0 -22 -14 -35 -31z m15 -84 c-5 -26 -12 -35 -26 -35 -26 0 -25
15 1 52 26 36 34 31 25 -17z"/>
<path d="M299 3543 l-37 -4 -7 -397 c-4 -218 -5 -518 -2 -667 l5 -270 795 -3
796 -2 95 82 c229 199 297 261 386 355 96 101 136 164 147 227 12 75 -91 210
-303 397 -59 52 -149 131 -200 176 -51 45 -103 88 -116 95 -18 10 -173 13
-773 14 -412 1 -766 -1 -786 -3z m1500 -19 c44 -5 62 -14 107 -53 29 -25 106
-92 171 -147 250 -215 383 -369 383 -447 0 -72 -119 -220 -320 -398 -52 -46
-124 -110 -159 -142 -35 -32 -82 -72 -104 -88 l-40 -29 -779 0 -778 0 0 650 0
649 68 3 c145 6 1400 8 1451 2z"/>
<path d="M1060 3242 c0 -45 -82 -289 -125 -370 -48 -91 -138 -202 -205 -253
-65 -49 -172 -102 -241 -120 -43 -11 -67 -29 -38 -29 25 0 168 54 216 81 171
98 319 316 383 564 10 39 20 63 22 55 105 -376 278 -591 547 -679 35 -12 69
-21 75 -21 22 0 -12 19 -74 40 -160 55 -269 141 -369 290 -66 98 -110 205
-149 354 -27 109 -42 139 -42 88z"/>
<path d="M2676 3542 c-3 -3 -6 -306 -6 -674 l0 -668 798 0 798 0 115 100 c63
56 156 137 207 181 107 94 232 232 273 304 77 134 12 229 -406 595 -66 58
-138 119 -159 135 l-39 30 -788 2 c-433 0 -790 -2 -793 -5z m1557 -18 c29 -5
67 -32 170 -122 315 -273 430 -396 464 -493 12 -37 11 -45 -7 -86 -26 -58
-106 -157 -207 -253 -99 -95 -325 -297 -366 -327 l-31 -23 -783 0 -783 0 0
649 0 650 53 4 c93 6 1451 7 1490 1z"/>
<path d="M3607 3245 c-115 -32 -242 -122 -324 -229 -70 -93 -149 -265 -183
-401 -17 -64 -27 -121 -24 -126 6 -10 824 -13 824 -3 0 3 -11 20 -24 37 -61
82 -108 211 -108 299 0 50 6 73 37 133 l36 72 -58 117 c-57 116 -58 116 -93
115 -19 0 -57 -7 -83 -14z m162 -113 l53 -107 -32 -53 c-27 -43 -34 -65 -38
-125 -5 -90 13 -161 69 -265 21 -41 39 -75 39 -78 0 -2 -171 -4 -380 -4 l-380
0 0 24 c0 13 12 64 26 112 91 315 244 506 463 581 118 40 119 40 180 -85z"/>
<path d="M5086 3542 c-3 -3 -6 -306 -6 -674 l0 -668 803 0 803 0 84 78 c47 42
128 114 180 159 123 104 267 254 315 326 55 83 57 125 8 206 -21 35 -63 91
-94 125 -72 78 -428 394 -477 423 l-38 23 -786 4 c-433 2 -789 1 -792 -2z
m1542 -18 c54 -8 93 -35 239 -164 356 -316 451 -438 412 -532 -37 -90 -173
-239 -361 -396 -48 -39 -121 -104 -162 -142 l-76 -70 -790 0 -790 0 0 650 0
649 113 3 c253 7 1375 8 1415 2z"/>
<path d="M5901 3244 c-252 -68 -466 -361 -526 -719 -12 -71 11 -24 33 68 45
189 139 374 242 477 69 69 165 126 259 154 70 20 225 21 311 1 76 -18 150 -45
150 -55 0 -3 -24 -14 -54 -23 -70 -23 -164 -84 -204 -135 -51 -64 -66 -108
-66 -197 0 -67 6 -93 32 -160 30 -74 98 -183 108 -172 2 2 -13 33 -34 68 -112
184 -119 341 -21 453 22 25 60 58 84 71 49 29 156 75 200 85 27 6 28 8 10 15
-11 4 -51 20 -90 35 -38 16 -97 33 -129 39 -82 15 -240 13 -305 -5z"/>
<path d="M7500 2870 l0 -670 794 0 795 0 70 58 c196 160 473 428 522 503 62
97 47 173 -58 303 -46 55 -383 361 -486 439 l-49 37 -794 0 -794 0 0 -670z
m1647 603 c217 -175 451 -398 504 -480 78 -119 63 -181 -80 -335 -80 -86 -396
-371 -457 -413 l-37 -25 -778 0 -779 0 0 650 0 650 785 0 784 0 58 -47z"/>
<path d="M8130 2933 c-96 -181 -189 -357 -209 -392 -19 -35 -28 -62 -21 -59
12 4 57 84 309 556 91 171 105 191 116 175 7 -10 85 -155 174 -323 90 -168
177 -329 194 -357 53 -90 50 -58 -4 45 -29 53 -84 158 -124 232 -40 74 -98
185 -130 245 -66 125 -114 205 -124 205 -4 0 -85 -147 -181 -327z"/>
<path d="M3329 1841 c-25 -25 -29 -37 -29 -83 0 -75 27 -118 75 -118 46 0 75
29 75 75 0 49 -31 79 -76 72 -37 -6 -39 -5 -24 24 13 23 43 25 60 4 7 -8 16
-12 21 -9 16 10 9 43 -10 54 -33 17 -61 11 -92 -19z m77 -117 c8 -30 -6 -47
-32 -42 -35 6 -30 68 5 68 14 0 23 -9 27 -26z"/>
<path d="M8163 1858 c-26 -13 -32 -33 -20 -70 5 -17 5 -34 -2 -47 -29 -53 0
-101 62 -101 27 0 41 7 56 26 25 31 25 40 7 76 -12 22 -12 34 -3 59 11 28 10
33 -12 50 -26 21 -54 23 -88 7z m63 -39 c8 -14 -21 -43 -35 -35 -6 4 -11 16
-11 27 0 21 34 27 46 8z m2 -108 c4 -29 -15 -43 -40 -30 -18 10 -24 39 -11 53
15 15 48 1 51 -23z"/>
<path d="M905 1823 c-14 -90 -15 -85 14 -77 55 15 66 11 69 -24 4 -37 -19 -53
-49 -34 -42 26 -67 2 -33 -32 24 -25 81 -20 109 9 27 26 31 54 14 88 -16 29
-28 37 -61 37 -48 0 -35 28 14 32 31 2 44 8 46 21 3 15 -5 17 -57 17 l-60 0
-6 -37z"/>
<path d="M5710 1845 c0 -11 12 -15 50 -15 l50 0 -21 -41 c-26 -51 -50 -130
-43 -141 3 -4 14 -8 25 -8 13 0 19 7 19 24 0 34 25 100 54 143 15 21 26 41 26
45 0 5 -36 8 -80 8 -64 0 -80 -3 -80 -15z"/>
<path d="M257 1413 c-3 -98 -5 -401 -4 -673 l2 -495 797 -3 796 -2 85 72 c387
330 547 505 547 602 0 75 -121 228 -311 392 -51 43 -136 118 -189 166 -54 47
-108 92 -121 100 -19 10 -174 14 -810 16 l-786 3 -6 -178z m1566 148 c22 -5
59 -28 90 -55 29 -26 104 -91 167 -145 242 -206 380 -367 380 -441 0 -71 -113
-217 -289 -375 -167 -150 -283 -250 -309 -267 -25 -17 -71 -18 -804 -18 l-778
0 0 655 0 655 753 0 c413 0 769 -4 790 -9z"/>
<path d="M1051 1285 c-233 -66 -418 -303 -507 -652 -19 -76 -22 -98 -12 -105
7 -4 195 -8 417 -8 l403 0 -16 25 c-111 169 -144 321 -92 430 41 89 157 174
296 217 22 7 40 15 40 18 0 3 -15 10 -32 17 -18 6 -67 24 -108 39 -64 23 -94
27 -205 30 -95 3 -145 0 -184 -11z m314 -20 c120 -25 209 -65 146 -65 -42 0
-179 -80 -226 -132 -72 -80 -79 -100 -79 -208 0 -105 16 -159 78 -263 l35 -57
-385 0 -384 0 0 24 c0 52 54 208 117 336 58 120 74 144 142 211 80 80 159 128
254 154 69 18 215 18 302 0z"/>
<path d="M2677 1584 c-4 -4 -7 -308 -7 -676 l0 -668 799 0 800 0 143 127 c79
71 170 151 202 178 78 66 222 228 248 279 47 93 41 128 -41 240 -62 84 -377
379 -525 491 l-39 30 -787 3 c-432 2 -789 0 -793 -4z m1719 -136 c315 -273
433 -398 470 -496 17 -42 17 -42 -15 -107 -25 -50 -61 -95 -154 -189 -112
-112 -310 -293 -402 -366 l-38 -30 -783 0 -784 0 0 650 0 650 789 0 789 0 128
-112z"/>
<path d="M3355 1124 c-8 -9 -25 -35 -37 -58 -60 -118 -152 -218 -256 -278 -26
-16 -87 -42 -137 -60 -50 -18 -82 -34 -71 -36 30 -6 167 48 239 94 109 70 166
136 251 287 l27 47 97 0 98 0 38 -67 c108 -189 276 -319 466 -362 65 -15 37 4
-58 38 -174 62 -306 175 -396 340 l-39 71 -103 0 c-81 0 -106 -3 -119 -16z"/>
<path d="M5138 1583 l-58 -4 0 -669 0 -670 803 0 802 1 55 50 c30 28 114 101
185 163 164 143 240 216 295 286 50 64 90 144 90 181 0 32 -60 131 -125 205
-64 75 -427 398 -485 432 l-45 27 -730 1 c-401 0 -756 -1 -787 -3z m1308 -21
l221 -2 40 -27 c65 -44 343 -295 441 -397 90 -94 142 -177 142 -226 0 -67
-145 -247 -317 -391 -48 -41 -135 -116 -192 -166 l-104 -93 -789 0 -788 0 0
650 0 649 93 3 c98 3 882 3 1253 0z"/>
<path d="M5733 1168 c-6 -7 -61 -110 -123 -228 -62 -118 -119 -224 -127 -235
-15 -22 -18 -49 -4 -41 8 5 162 288 224 412 40 80 41 80 164 83 159 3 153 6
214 -112 83 -164 200 -376 210 -383 18 -11 7 15 -77 171 -47 88 -103 194 -124
236 -58 114 -49 109 -209 109 -99 0 -141 -4 -148 -12z"/>
<path d="M7506 1583 c-3 -4 -6 -307 -6 -675 l0 -668 794 0 794 0 49 36 c26 20
77 64 113 98 36 33 106 96 155 140 125 109 268 266 295 323 58 124 -16 234
-359 534 -226 198 -237 205 -315 213 -81 8 -1511 7 -1520 -1z m1609 -45 c55
-39 395 -341 453 -401 27 -29 66 -78 86 -109 81 -122 59 -187 -131 -376 -138
-138 -344 -323 -407 -366 l-39 -26 -778 0 -779 0 0 649 c0 510 3 650 13 654 6
3 357 4 778 3 l766 -1 38 -27z"/>
<path d="M8422 1284 c-124 -33 -254 -124 -329 -230 -73 -105 -141 -254 -177
-391 -19 -70 -32 -130 -29 -133 5 -6 823 -13 823 -7 0 2 -20 39 -45 83 -52 90
-85 187 -85 248 0 59 26 139 56 175 l25 30 -61 120 c-68 137 -66 136 -178 105z
m163 -116 c55 -110 55 -112 36 -132 -34 -38 -52 -86 -58 -154 -4 -55 -1 -80
20 -143 14 -42 42 -103 61 -135 l34 -59 -376 -3 c-207 -1 -380 2 -385 7 -16
16 46 227 101 336 58 117 111 192 175 251 87 78 220 140 310 143 26 1 32 -7
82 -111z"/>
</g>
</svg>
