<?xml version="1.0" standalone="no"?>
<!DOCTYPE svg PUBLIC "-//W3C//DTD SVG 20010904//EN"
 "http://www.w3.org/TR/2001/REC-SVG-20010904/DTD/svg10.dtd">
<svg version="1.0" xmlns="http://www.w3.org/2000/svg"
 width="996.000000pt" height="922.000000pt" viewBox="0 0 996.000000 922.000000"
 preserveAspectRatio="xMidYMid meet">
<metadata>
Created by potrace 1.16, written by Peter Selinger 2001-2019
</metadata>
<g transform="translate(0.000000,922.000000) scale(0.100000,-0.100000)"
fill="#FFFFFF" stroke="none">
<path d="M256 8890 c-3 -61 -6 -1170 -6 -2465 l1 -2355 2944 0 2945 0 0 2465
0 2465 -2938 0 -2939 0 -7 -110z m5864 -2355 l0 -2445 -2918 0 -2919 0 -6 108
c-9 141 -9 4466 0 4644 l6 138 2919 0 2918 0 0 -2445z"/>
<path d="M880 8155 l0 -125 123 0 122 0 -1 123 0 122 -122 3 -122 3 0 -126z
m228 -2 l4 -103 -106 0 -106 0 0 105 0 106 102 -3 102 -3 4 -102z"/>
<path d="M4010 8215 l-5 -70 -63 -3 c-79 -4 -72 -22 8 -22 l59 0 4 -62 3 -63
2 63 2 62 43 1 c23 1 56 5 72 9 23 6 12 8 -42 9 l-72 1 -3 73 -4 72 -4 -70z"/>
<path d="M4440 8211 l0 -71 -65 0 c-37 0 -65 -4 -65 -10 0 -6 28 -10 65 -10
l65 0 0 -65 c0 -86 18 -84 22 3 l3 67 59 2 c81 3 84 13 3 13 l-67 0 0 64 c0
36 -4 68 -10 71 -6 4 -10 -20 -10 -64z"/>
<path d="M4870 8205 l0 -65 -65 0 c-37 0 -65 -4 -65 -10 0 -6 28 -10 65 -10
l65 0 0 -65 c0 -37 4 -65 10 -65 6 0 10 28 10 65 l0 65 59 0 c33 0 63 5 66 10
4 6 -18 10 -59 10 l-66 0 0 65 c0 37 -4 65 -10 65 -6 0 -10 -28 -10 -65z"/>
<path d="M1430 8095 l0 -125 125 0 125 0 0 125 0 125 -125 0 -125 0 0 -125z
m230 0 l0 -105 -105 0 -105 0 0 105 0 105 105 0 105 0 0 -105z"/>
<path d="M2390 8170 c0 -7 163 -10 470 -10 307 0 470 3 470 10 0 7 -163 10
-470 10 -307 0 -470 -3 -470 -10z"/>
<path d="M2390 8050 c0 -7 163 -10 470 -10 307 0 470 3 470 10 0 7 -163 10
-470 10 -307 0 -470 -3 -470 -10z"/>
<path d="M4258 7971 c-5 -18 -8 -51 -8 -72 l0 -39 -66 0 c-41 0 -63 -4 -59
-10 3 -5 33 -10 66 -10 l59 0 0 -60 c0 -33 4 -60 10 -60 6 0 10 27 10 60 l0
60 59 0 c81 0 88 18 9 22 l-63 3 -5 70 c-4 61 -6 65 -12 36z"/>
<path d="M4638 7994 c-5 -4 -8 -36 -8 -71 l0 -63 -66 0 c-41 0 -63 -4 -59 -10
3 -5 33 -10 65 -10 l59 0 3 -57 c4 -76 20 -75 22 2 l1 60 55 1 c80 2 84 7 10
13 l-65 6 -5 68 c-3 38 -8 65 -12 61z"/>
<path d="M1157 7953 c-4 -3 -7 -60 -7 -125 l0 -118 125 0 125 0 0 125 0 125
-118 0 c-65 0 -122 -3 -125 -7z m223 -118 l0 -106 -102 3 -103 3 -3 89 c-2 49
-1 95 2 103 4 10 31 13 106 13 l100 0 0 -105z"/>
<path d="M2393 7934 c7 -7 929 -5 936 2 2 2 -209 4 -469 4 -260 0 -471 -3
-467 -6z"/>
<path d="M2390 7820 c0 -7 163 -10 470 -10 307 0 470 3 470 10 0 7 -163 10
-470 10 -307 0 -470 -3 -470 -10z"/>
<path d="M1003 6606 c-131 -128 -252 -245 -270 -260 -36 -30 -118 -126 -108
-126 8 0 593 572 612 599 8 12 12 21 9 21 -3 0 -112 -105 -243 -234z"/>
<path d="M1156 6592 c-138 -137 -275 -270 -303 -297 -29 -26 -53 -52 -53 -57
0 -17 91 66 328 298 215 209 304 304 287 304 -4 0 -121 -112 -259 -248z"/>
<path d="M1270 6536 c-167 -167 -306 -310 -308 -317 -5 -14 252 234 463 447
152 154 171 174 159 174 -5 0 -146 -137 -314 -304z"/>
<path d="M1440 6535 c-167 -167 -301 -307 -298 -311 7 -7 594 570 609 599 5 9
6 17 2 17 -5 0 -145 -137 -313 -305z"/>
<path d="M1860 6778 c-150 -140 -560 -551 -556 -556 6 -6 604 576 617 601 5 9
8 17 7 17 -2 0 -32 -28 -68 -62z"/>
<path d="M4090 6794 c-19 -25 -54 -63 -77 -85 -24 -22 -43 -43 -43 -47 0 -4
38 -45 84 -91 l85 -84 76 74 c42 41 81 82 86 92 8 14 -5 32 -77 100 -47 45
-89 83 -93 84 -3 1 -22 -18 -41 -43z m199 -122 c3 -1 -30 -38 -73 -81 l-77
-77 -73 75 -74 75 72 77 71 78 75 -72 c41 -40 77 -73 79 -75z"/>
<path d="M4481 6756 l-84 -85 38 -43 c22 -24 60 -64 86 -89 l47 -46 81 81 c45
45 81 87 81 95 0 13 -147 171 -159 171 -4 0 -44 -38 -90 -84z m166 -19 l73
-72 -75 -75 -75 -75 -75 75 -75 74 73 76 c39 41 74 74 77 73 3 -2 38 -36 77
-76z"/>
<path d="M2560 6755 c0 -3 18 -25 40 -49 l40 -43 -31 -29 c-17 -16 -35 -38
-41 -49 -6 -11 9 -1 34 23 24 23 48 42 53 42 6 -1 28 -18 49 -40 22 -22 42
-37 45 -34 3 2 -14 24 -37 47 l-42 41 42 43 c51 52 43 57 -11 8 -44 -40 -58
-39 -96 11 -23 30 -45 44 -45 29z"/>
<path d="M3008 6709 l44 -41 -38 -39 c-50 -51 -35 -64 16 -14 l40 39 40 -39
c22 -21 42 -36 45 -34 2 3 -13 23 -35 44 l-40 39 42 43 c51 52 43 57 -12 7
l-39 -36 -29 21 c-16 11 -35 27 -42 36 -7 8 -18 15 -24 15 -6 0 9 -19 32 -41z"/>
<path d="M4245 6490 c-44 -44 -75 -80 -69 -80 5 0 41 31 79 70 l69 70 64 -63
c95 -93 95 -87 12 -171 l-71 -73 -79 81 c-43 44 -82 77 -86 73 -4 -3 32 -46
79 -94 47 -48 87 -85 89 -82 2 2 40 43 85 90 l83 84 -88 88 -87 87 -80 -80z"/>
<path d="M4667 6482 l-87 -88 86 -86 87 -87 64 62 c36 34 74 74 84 89 l19 27
-65 75 c-37 42 -74 80 -84 85 -14 8 -34 -6 -104 -77z m159 -161 l-79 -80 -26
32 c-14 18 -46 51 -70 73 l-45 41 75 81 74 81 75 -74 75 -75 -79 -79z"/>
<path d="M2790 6483 c0 -4 18 -26 41 -49 l40 -41 -34 -30 c-34 -30 -53 -53
-42 -53 3 0 25 18 49 40 l44 41 41 -47 c23 -26 43 -45 46 -42 3 3 -13 26 -36
52 l-41 46 42 41 c23 22 39 43 36 47 -4 3 -26 -13 -49 -36 l-43 -42 -30 31
c-31 33 -64 55 -64 42z"/>
<path d="M3655 5728 c-3 -7 -4 -310 -3 -673 l3 -660 770 -3 c424 -1 784 0 801
3 57 10 530 447 604 558 56 83 59 113 21 192 -48 96 -191 240 -520 523 l-83
72 -795 0 c-626 0 -795 -3 -798 -12z m1607 -26 c51 -33 435 -380 481 -434 61
-71 117 -166 117 -197 0 -78 -122 -219 -410 -474 l-205 -182 -785 0 -785 0 -3
610 c-2 336 0 629 3 653 l6 42 777 0 c726 0 779 -1 804 -18z"/>
<path d="M2962 5347 c-29 -29 -38 -32 -91 -32 -47 0 -65 5 -97 28 -54 36 -60
34 -28 -9 21 -27 29 -50 32 -95 4 -53 1 -62 -27 -100 -37 -51 -32 -64 8 -25
41 39 88 47 150 26 28 -9 60 -25 71 -35 28 -25 25 -8 -7 38 -39 56 -39 128 1
186 36 52 30 61 -12 18z m-73 -53 l38 6 -1 -53 c-1 -28 3 -63 7 -75 8 -22 7
-23 -11 -13 -12 6 -43 11 -71 11 l-51 0 0 54 c0 30 -3 61 -6 70 -5 14 -2 14
26 5 17 -6 48 -9 69 -5z"/>
<path d="M2300 5363 c0 -4 9 -16 19 -27 24 -26 40 -110 29 -152 -4 -17 -17
-39 -28 -49 -11 -10 -20 -25 -20 -33 0 -9 13 -3 37 18 34 30 40 32 99 28 48
-3 69 -9 87 -26 42 -39 51 -21 15 29 -35 46 -32 134 5 179 34 40 27 53 -11 17
-49 -47 -153 -45 -197 3 -18 20 -35 26 -35 13z m160 -68 l35 6 1 -68 1 -69
-66 1 -66 0 0 71 0 71 30 -9 c16 -4 46 -6 65 -3z"/>
<path d="M3391 5345 c-46 -40 -113 -43 -175 -10 -27 14 -50 24 -52 22 -3 -2 6
-17 18 -33 19 -23 23 -41 23 -95 0 -57 -4 -71 -24 -93 -30 -32 -19 -47 12 -17
49 45 145 45 194 -1 26 -24 44 -16 25 10 -47 64 -53 152 -15 195 44 49 41 61
-6 22z m-73 -50 l42 6 -6 -40 c-3 -22 -2 -53 4 -69 l10 -29 -72 1 -71 1 0 71
0 72 25 -10 c14 -5 44 -7 68 -3z"/>
<path d="M1115 5316 l-26 -35 -30 32 -30 32 20 -35 c30 -56 35 -97 15 -128 -9
-15 -24 -37 -32 -49 -24 -38 5 -26 31 12 l24 35 27 -41 c36 -54 45 -43 12 14
-33 56 -33 102 0 150 33 49 25 60 -11 13z"/>
<path d="M1430 5303 c38 -59 38 -87 -1 -147 -37 -59 -31 -74 8 -17 15 22 30
40 33 40 3 0 16 -17 30 -39 35 -59 45 -49 10 10 -38 65 -38 100 0 156 17 24
26 44 21 44 -6 0 -21 -16 -33 -35 -13 -19 -25 -35 -28 -35 -3 0 -16 16 -29 35
-36 53 -45 42 -11 -12z"/>
<path d="M2500 5031 c0 -5 7 -14 14 -21 22 -18 49 -107 41 -138 -3 -15 -20
-46 -36 -69 -36 -51 -31 -54 21 -12 36 29 44 31 98 27 45 -3 69 -11 95 -31 49
-37 55 -34 21 10 -22 30 -29 50 -32 100 -4 59 -2 65 27 99 40 45 33 55 -14 20
-19 -15 -50 -30 -68 -33 -43 -7 -109 12 -132 37 -19 21 -35 26 -35 11z m160
-68 l38 5 4 -67 3 -67 -67 1 -67 0 0 51 c1 29 -2 61 -6 73 -6 19 -4 20 25 9
17 -6 49 -8 70 -5z"/>
<path d="M2945 5010 c26 -27 30 -39 33 -103 4 -69 3 -73 -27 -101 -46 -44 -38
-49 19 -14 44 27 56 30 108 26 46 -3 65 -10 87 -31 39 -35 44 -26 12 20 -14
21 -28 48 -32 61 -11 39 5 102 37 138 36 41 17 46 -25 7 -24 -24 -37 -28 -85
-28 -45 0 -66 6 -99 28 -55 35 -64 34 -28 -3z m152 -47 l33 6 -6 -39 c-4 -21
-2 -52 4 -67 l9 -29 -68 1 -67 0 -4 71 -3 71 34 -9 c19 -6 50 -8 68 -5z"/>
<path d="M1020 5027 c0 -4 11 -24 24 -45 37 -56 41 -84 17 -130 -11 -22 -25
-43 -31 -47 -5 -3 -10 -10 -10 -16 0 -20 17 -7 42 32 22 34 27 37 32 21 7 -20
56 -71 56 -58 0 4 -10 21 -21 38 -12 16 -24 50 -27 74 -4 37 0 50 22 79 15 20
26 41 24 47 -2 6 -17 -5 -32 -25 l-29 -37 -33 37 c-18 21 -33 35 -34 30z"/>
<path d="M1400 5027 c0 -4 14 -26 30 -49 39 -54 39 -93 -1 -147 -17 -24 -28
-46 -24 -49 6 -7 33 20 56 57 8 13 11 13 16 2 3 -7 19 -28 35 -45 l29 -31 -30
56 c-37 67 -39 109 -7 152 39 53 40 64 2 25 l-36 -38 -35 38 c-19 20 -35 34
-35 29z"/>
<path d="M6360 6045 l0 -267 143 4 c156 4 184 13 231 69 46 54 59 97 60 194 1
80 -2 97 -27 148 -22 44 -39 63 -75 84 -44 26 -56 28 -189 32 l-143 3 0 -267z
m288 178 c63 -47 88 -129 71 -233 -17 -106 -61 -139 -192 -147 l-97 -6 0 200
c0 110 3 203 8 207 4 5 47 6 96 3 66 -3 95 -9 114 -24z"/>
<path d="M6918 6009 c-44 -36 -55 -72 -13 -45 13 9 27 16 30 16 3 0 5 -45 5
-100 0 -92 2 -100 19 -100 18 0 20 8 19 130 -1 86 -5 130 -12 130 -6 -1 -28
-14 -48 -31z"/>
<path d="M7081 6014 c-21 -27 -28 -54 -13 -54 4 0 19 14 34 30 14 17 33 30 42
30 18 0 56 -34 56 -51 0 -5 -34 -46 -75 -89 -41 -43 -75 -84 -75 -89 0 -7 33
-11 90 -11 73 0 90 3 90 15 0 12 -14 15 -67 15 l-66 0 66 69 c37 38 67 78 67
89 0 10 -9 31 -21 46 -16 21 -29 26 -64 26 -35 0 -48 -5 -64 -26z"/>
<path d="M930 3814 c-56 -50 -52 -66 10 -40 13 5 15 -6 12 -74 l-4 -80 26 0
26 0 0 115 c0 133 -5 138 -70 79z"/>
<path d="M3322 3830 c-12 -12 -22 -27 -22 -35 0 -20 29 -19 51 1 10 9 25 14
34 11 23 -9 18 -41 -11 -68 -31 -28 -84 -98 -84 -111 0 -5 35 -8 77 -6 65 3
78 6 81 21 3 14 -4 17 -44 17 l-48 0 36 38 c45 46 62 86 48 112 -23 43 -83 53
-118 20z"/>
<path d="M5743 3833 c-25 -17 -31 -53 -9 -53 7 0 19 7 26 15 16 19 50 20 50 1
0 -8 -12 -23 -27 -34 l-26 -19 29 -14 c20 -10 29 -22 29 -39 0 -31 -29 -39
-55 -15 -20 18 -40 13 -40 -9 0 -45 97 -63 124 -24 21 29 20 67 -1 90 -13 14
-14 21 -5 30 19 19 14 56 -10 72 -28 20 -56 20 -85 -1z"/>
<path d="M8170 3778 c-65 -92 -65 -105 0 -114 40 -5 50 -10 50 -25 0 -24 29
-25 37 -1 3 9 13 25 21 34 13 16 13 18 -2 24 -12 5 -16 19 -16 58 0 65 -9 96
-26 96 -7 0 -36 -32 -64 -72z m46 -43 c-5 -26 -12 -35 -26 -35 -26 0 -25 14 2
50 26 36 33 32 24 -15z"/>
<path d="M548 3543 l-288 -3 0 -670 0 -670 794 0 794 0 85 73 c389 330 547
504 547 602 0 54 -67 153 -180 265 -104 104 -348 321 -418 372 l-37 26 -505 4
c-278 2 -634 2 -792 1z m1316 -36 c14 -9 54 -43 88 -75 35 -32 104 -92 153
-134 214 -180 355 -346 355 -419 0 -53 -58 -142 -162 -249 -106 -109 -294
-279 -399 -362 l-60 -48 -780 0 -779 0 0 650 0 649 153 4 c83 2 434 3 779 2
565 -2 629 -3 652 -18z"/>
<path d="M716 3138 c10 -13 30 -33 43 -46 l24 -24 -44 -44 c-24 -24 -39 -44
-33 -44 5 0 27 18 49 39 l38 40 45 -40 c25 -21 50 -39 56 -39 6 1 -11 19 -37
42 l-48 41 43 44 c51 52 44 57 -12 7 l-40 -36 -45 41 c-48 44 -70 55 -39 19z"/>
<path d="M1387 3119 l-47 -40 -37 35 c-21 20 -42 36 -48 36 -5 0 10 -19 33
-41 l44 -41 -38 -39 c-21 -22 -33 -39 -28 -39 6 0 23 14 39 30 16 17 33 30 39
30 6 0 30 -19 53 -42 24 -23 43 -38 43 -32 0 5 -18 28 -40 49 l-40 39 28 31
c68 73 67 85 -1 24z"/>
<path d="M714 2747 c10 -15 30 -36 45 -46 l26 -20 -31 -33 c-16 -18 -37 -42
-45 -53 -13 -19 -13 -19 6 -6 11 8 35 28 53 45 l32 30 40 -39 c22 -21 42 -36
45 -34 2 3 -11 21 -30 39 -19 19 -35 39 -35 45 0 6 16 26 35 45 19 18 32 36
30 39 -3 2 -23 -13 -45 -34 l-40 -39 -32 30 c-18 17 -42 37 -52 45 -19 14 -19
13 -2 -14z"/>
<path d="M1395 2730 c-21 -22 -43 -40 -48 -40 -4 0 -25 16 -45 34 -48 46 -56
36 -9 -12 l37 -36 -42 -43 c-52 -53 -43 -57 12 -6 l41 36 44 -43 c57 -56 66
-48 15 11 l-39 46 30 29 c28 26 55 64 46 64 -1 0 -21 -18 -42 -40z"/>
<path d="M2674 3541 c-2 -2 -4 -305 -4 -673 l0 -668 800 0 799 0 228 204 c360
322 433 428 374 544 -33 64 -108 153 -207 244 -129 119 -321 287 -364 320
l-35 26 -793 4 c-437 2 -796 1 -798 -1z m1552 -20 c38 -1 53 -11 170 -113 316
-274 443 -409 474 -503 28 -85 -76 -215 -423 -524 -71 -63 -142 -125 -160
-138 l-31 -23 -783 0 -783 0 0 650 0 650 663 2 c625 3 775 3 873 -1z"/>
<path d="M3144 3158 c31 -42 46 -87 46 -135 0 -39 -5 -52 -32 -80 -43 -44 -30
-52 24 -13 38 28 49 31 93 28 33 -3 64 -13 90 -31 54 -37 63 -34 27 8 -54 61
-55 149 -1 206 38 41 30 49 -15 14 -61 -47 -167 -44 -211 5 -25 27 -41 25 -21
-2z m191 -118 l0 -66 -62 1 -63 0 0 45 c0 25 -3 54 -6 65 -5 19 0 20 63 20
l68 0 0 -65z"/>
<path d="M3560 3172 c0 -5 9 -17 20 -27 23 -21 40 -74 40 -130 0 -30 -7 -46
-32 -72 -42 -44 -32 -49 22 -13 66 44 138 39 197 -14 34 -29 36 -15 5 28 -22
32 -27 49 -27 100 0 53 4 67 28 95 38 45 26 51 -19 11 -36 -31 -40 -32 -102
-27 -51 4 -69 10 -91 31 -28 27 -41 32 -41 18z m202 -109 c-2 -23 1 -56 7 -73
10 -29 9 -31 -7 -24 -9 4 -41 10 -69 12 l-53 4 0 48 c0 27 -2 54 -5 62 -4 10
10 13 63 13 l69 0 -5 -42z"/>
<path d="M3337 2818 c34 -37 45 -67 46 -124 1 -48 -2 -57 -33 -89 -18 -19 -32
-37 -29 -39 2 -3 25 9 49 26 41 27 50 30 108 25 48 -4 69 -10 88 -28 30 -28
45 -17 17 14 -50 54 -48 154 5 210 33 35 13 35 -28 1 -48 -41 -102 -43 -174
-5 -69 37 -76 38 -49 9z m160 -55 l33 6 0 -54 c0 -29 2 -60 5 -67 4 -11 -9
-14 -64 -13 l-69 0 -4 71 -3 71 34 -9 c19 -6 50 -8 68 -5z"/>
<path d="M5084 3541 c-2 -2 -4 -305 -4 -673 l0 -668 803 0 802 1 55 50 c30 28
114 101 185 164 264 230 385 376 385 464 0 34 -59 132 -123 205 -63 73 -430
400 -486 434 l-44 26 -785 0 c-431 1 -786 -1 -788 -3z m1606 -37 c26 -14 67
-49 261 -220 224 -198 339 -339 339 -414 0 -73 -140 -240 -353 -422 -73 -62
-160 -139 -194 -170 l-62 -58 -791 0 -790 0 0 650 0 650 723 3 c774 3 829 2
867 -19z"/>
<path d="M5908 3209 c38 -68 62 -149 62 -210 0 -53 -30 -159 -59 -205 -18 -30
-23 -31 -98 -36 -94 -7 -165 -37 -239 -103 -51 -44 -119 -145 -112 -166 2 -6
20 16 40 48 78 125 185 193 318 201 l75 4 22 -46 c62 -128 211 -216 365 -216
78 0 63 17 -20 23 -150 10 -269 82 -327 198 l-25 48 31 65 c42 90 57 179 41
254 -13 64 -70 183 -90 190 -8 2 -1 -19 16 -49z"/>
<path d="M7508 3545 c-5 -5 -8 -309 -8 -677 l0 -668 794 0 795 0 70 58 c217
177 460 412 519 499 65 99 52 175 -55 307 -48 59 -436 408 -503 452 l-35 23
-785 7 c-432 3 -788 3 -792 -1z m1611 -50 c50 -35 392 -339 449 -398 74 -79
124 -159 129 -210 7 -63 -29 -127 -134 -238 -94 -99 -365 -343 -440 -396 l-45
-33 -779 0 -779 0 0 650 0 649 143 3 c78 2 430 2 782 0 l640 -3 34 -24z"/>
<path d="M8018 3093 c-49 -47 -88 -89 -88 -93 0 -3 38 -44 85 -89 l85 -84 90
89 90 88 -77 78 c-42 42 -79 76 -81 73 -7 -7 35 -59 83 -104 l46 -43 -73 -77
-73 -78 -76 74 -76 74 71 72 c82 84 102 107 90 107 -5 0 -48 -39 -96 -87z"/>
<path d="M8442 3096 c-45 -46 -82 -87 -82 -91 0 -4 37 -45 82 -91 l82 -85 88
88 87 87 -82 85 c-45 47 -84 87 -87 89 -3 1 -43 -35 -88 -82z m161 -168 l-77
-78 -73 77 -73 76 72 77 73 76 78 -75 77 -76 -77 -77z"/>
<path d="M8203 2821 l-82 -86 86 -88 87 -88 64 63 c35 35 73 76 84 91 l21 29
-84 84 c-46 46 -86 83 -89 83 -3 -1 -42 -40 -87 -88z m164 -159 l-78 -78 -74
75 -73 75 76 77 77 77 75 -74 75 -74 -78 -78z"/>
<path d="M3334 1847 c-23 -20 -28 -34 -31 -83 -5 -80 20 -124 71 -124 45 0 76
32 76 77 0 47 -32 77 -76 70 -37 -6 -43 3 -18 27 18 18 40 21 49 6 11 -17 35
-11 35 10 0 42 -65 52 -106 17z m74 -142 c-2 -14 -11 -20 -28 -20 -32 0 -41
42 -14 62 16 12 21 11 32 -4 7 -10 11 -27 10 -38z"/>
<path d="M5743 1862 c-21 -2 -33 -9 -33 -18 0 -10 13 -14 49 -14 l50 0 -29
-62 c-38 -83 -42 -122 -14 -126 18 -3 22 3 27 39 3 23 22 73 41 110 36 68 36
69 14 71 -48 3 -74 3 -105 0z"/>
<path d="M8162 1854 c-18 -13 -22 -24 -21 -62 1 -26 -2 -59 -6 -74 -12 -44 16
-78 64 -78 60 0 93 51 66 104 -11 20 -12 33 -5 40 17 17 11 54 -12 70 -29 20
-58 20 -86 0z m64 -35 c8 -14 -21 -43 -35 -35 -6 4 -11 16 -11 27 0 21 34 27
46 8z m2 -111 c3 -24 0 -28 -22 -28 -30 0 -40 13 -31 41 10 31 49 21 53 -13z"/>
<path d="M906 1838 c-3 -13 -7 -40 -10 -61 -5 -38 -5 -39 22 -32 56 16 67 12
70 -23 4 -37 -19 -53 -49 -34 -43 27 -67 2 -31 -31 23 -21 71 -22 99 -2 27 19
38 67 22 97 -16 30 -28 38 -61 38 -48 0 -35 28 14 32 31 2 44 8 46 21 3 15 -5
17 -57 17 -55 0 -61 -2 -65 -22z"/>
<path d="M260 913 l0 -673 794 0 794 0 85 73 c286 242 479 434 516 510 39 80
38 107 -4 182 -44 79 -125 167 -271 296 -59 52 -149 131 -200 176 -51 45 -103
88 -116 95 -18 10 -178 13 -810 13 l-788 0 0 -672z m1535 652 c51 -7 65 -14
119 -61 34 -29 111 -96 171 -147 238 -203 375 -363 375 -437 0 -96 -160 -272
-553 -608 l-61 -52 -783 0 -783 0 0 650 0 650 328 2 c180 2 508 5 729 6 220 2
427 0 458 -3z"/>
<path d="M940 1175 c-88 -19 -190 -60 -240 -96 -23 -17 -40 -32 -38 -35 3 -2
33 12 69 31 148 80 319 110 459 81 43 -9 113 -34 163 -60 48 -24 86 -39 84
-33 -2 7 -41 31 -88 55 -134 68 -268 87 -409 57z"/>
<path d="M1015 1054 c-115 -16 -227 -54 -307 -106 -76 -48 -56 -49 36 -1 149
77 307 103 451 73 48 -9 137 -46 238 -98 4 -2 7 1 7 6 0 16 -152 91 -216 106
-67 17 -165 26 -209 20z"/>
<path d="M920 901 c-87 -23 -158 -51 -217 -89 -69 -44 -49 -45 35 -3 128 64
211 86 332 86 123 0 210 -23 304 -80 64 -38 66 -39 66 -26 0 17 -100 71 -178
97 -105 36 -238 41 -342 15z"/>
<path d="M898 760 c-79 -23 -168 -61 -209 -91 -52 -36 -26 -31 72 16 117 55
199 75 309 75 105 0 181 -19 280 -68 94 -46 101 -49 70 -22 -39 35 -134 79
-202 95 -88 21 -237 18 -320 -5z"/>
<path d="M2670 917 l0 -677 799 0 800 0 148 132 c82 73 171 151 197 173 72 58
224 232 253 289 14 27 25 64 25 82 0 69 -82 180 -247 333 -110 102 -351 313
-371 324 -8 4 -372 11 -809 14 l-795 6 0 -676z m1609 631 c47 -33 414 -363
462 -416 65 -71 109 -136 126 -186 13 -37 13 -43 -16 -100 -47 -96 -230 -280
-518 -523 l-74 -63 -784 0 -785 0 0 650 0 649 128 3 c70 2 422 3 783 2 576 -1
659 -3 678 -16z"/>
<path d="M3400 1154 c-122 -24 -224 -63 -288 -111 -53 -40 -31 -37 49 6 218
116 441 116 633 0 33 -20 63 -35 66 -32 13 13 -104 79 -193 110 -71 24 -210
38 -267 27z"/>
<path d="M3335 969 c-65 -15 -126 -39 -192 -77 -93 -54 -76 -57 30 -7 122 59
191 75 313 76 114 0 225 -29 304 -79 25 -15 51 -31 58 -36 6 -4 12 -3 12 3 0
18 -115 82 -193 106 -64 21 -97 25 -185 24 -59 -1 -125 -5 -147 -10z"/>
<path d="M3384 806 c-40 -8 -89 -19 -110 -26 -56 -18 -168 -76 -183 -94 -19
-23 -8 -20 52 13 129 73 285 108 403 92 101 -15 191 -45 253 -86 62 -41 77
-41 29 0 -98 83 -297 128 -444 101z"/>
<path d="M5087 1584 c-4 -4 -7 -308 -7 -676 l0 -668 803 0 802 1 65 60 c36 33
108 96 160 140 242 205 388 374 397 461 4 37 -1 52 -34 105 -21 34 -60 88 -87
119 -56 64 -406 379 -476 428 l-45 31 -785 3 c-432 2 -789 0 -793 -4z m1551
-23 c55 -11 76 -26 265 -194 272 -241 387 -377 387 -457 0 -72 -148 -250 -346
-416 -63 -53 -148 -127 -189 -165 l-75 -69 -790 0 -790 0 0 649 0 650 53 4
c110 7 1444 6 1485 -2z"/>
<path d="M5530 910 c0 -180 4 -280 10 -280 6 0 10 100 10 280 0 180 -4 280
-10 280 -6 0 -10 -100 -10 -280z"/>
<path d="M5700 911 c0 -181 4 -281 10 -281 6 0 10 98 10 274 0 173 -4 277 -10
281 -7 4 -10 -90 -10 -274z"/>
<path d="M5881 911 c-1 -156 1 -282 4 -279 9 9 13 510 4 538 -4 14 -8 -103 -8
-259z"/>
<path d="M6050 914 c0 -163 4 -273 9 -270 13 9 15 546 1 546 -7 0 -10 -91 -10
-276z"/>
<path d="M6220 912 c0 -186 3 -281 10 -277 13 8 13 525 0 545 -6 10 -10 -82
-10 -268z"/>
<path d="M7500 915 l0 -675 788 0 c731 0 790 1 819 18 30 16 114 89 347 299
109 99 217 220 242 271 11 21 19 59 19 87 0 98 -90 208 -370 453 -220 192
-238 205 -298 213 -29 4 -388 8 -799 8 l-748 1 0 -675z m1616 623 c51 -37 309
-264 411 -362 101 -97 164 -189 170 -250 7 -60 -30 -126 -127 -229 -82 -87
-397 -372 -456 -412 l-37 -25 -778 0 -779 0 0 649 c0 511 3 650 13 654 6 2
357 4 778 3 l766 -1 39 -27z"/>
<path d="M7816 1051 c-11 -17 76 -21 469 -20 493 1 614 12 251 22 -353 10
-714 9 -720 -2z"/>
<path d="M7810 910 c0 -7 170 -10 490 -10 320 0 490 3 490 10 0 7 -170 10
-490 10 -320 0 -490 -3 -490 -10z"/>
<path d="M7800 780 c0 -7 172 -10 495 -10 323 0 495 3 495 10 0 7 -172 10
-495 10 -323 0 -495 -3 -495 -10z"/>
</g>
</svg>
