<?xml version="1.0" standalone="no"?>
<!DOCTYPE svg PUBLIC "-//W3C//DTD SVG 20010904//EN"
 "http://www.w3.org/TR/2001/REC-SVG-20010904/DTD/svg10.dtd">
<svg version="1.0" xmlns="http://www.w3.org/2000/svg"
 width="996.000000pt" height="922.000000pt" viewBox="0 0 996.000000 922.000000"
 preserveAspectRatio="xMidYMid meet">
<metadata>
Created by potrace 1.16, written by Peter Selinger 2001-2019
</metadata>
<g transform="translate(0.000000,922.000000) scale(0.100000,-0.100000)"
fill="#FFFFFF" stroke="none">
<path d="M257 8828 c-9 -224 -9 -4567 0 -4675 l6 -83 2938 0 2939 0 0 2465 0
2465 -2938 0 -2939 0 -6 -172z m5863 -2293 l0 -2445 -2918 0 -2919 0 -6 303
c-9 416 -9 3900 -1 4280 l7 307 2919 0 2918 0 0 -2445z"/>
<path d="M1245 8553 c-62 -63 -102 -194 -89 -295 3 -29 20 -87 36 -128 23 -60
27 -79 19 -98 -28 -60 10 -118 72 -110 34 4 35 3 63 -67 25 -61 29 -83 29
-170 0 -90 -3 -106 -28 -154 -15 -30 -39 -67 -53 -84 -14 -16 -22 -32 -19 -35
11 -11 57 45 88 107 30 61 32 73 32 166 0 88 -4 109 -31 176 -29 71 -30 77
-16 107 14 28 13 33 -2 56 -26 40 -61 59 -84 47 -17 -9 -22 -4 -45 47 -37 82
-51 175 -38 247 13 67 49 150 81 183 32 33 18 38 -15 5z"/>
<path d="M2866 8567 c4 -6 18 -25 30 -42 80 -107 90 -260 27 -405 -22 -51 -28
-58 -44 -50 -24 14 -24 14 -64 -21 -38 -33 -42 -50 -21 -88 11 -21 9 -32 -18
-95 -27 -64 -30 -82 -31 -176 0 -93 3 -111 26 -160 26 -55 77 -125 86 -116 3
2 -12 28 -31 56 -80 116 -88 274 -20 413 16 33 22 37 55 37 60 0 96 59 68 111
-8 16 -4 39 21 107 38 103 44 216 16 292 -21 56 -72 136 -92 144 -10 4 -13 2
-8 -7z"/>
<path d="M4413 8548 c-44 -47 -71 -106 -85 -187 -10 -60 -9 -80 5 -143 10 -40
29 -92 42 -116 l25 -43 -22 -30 c-21 -28 -21 -31 -6 -63 16 -32 15 -36 -9 -96
-37 -94 -49 -180 -34 -253 14 -66 46 -135 85 -182 30 -37 46 -30 93 39 68 99
81 220 38 353 -14 43 -29 84 -34 92 -6 9 -3 26 7 48 15 32 15 37 -1 64 -16 29
-16 32 2 67 59 115 66 260 19 362 -24 54 -73 120 -87 120 -4 0 -21 -15 -38
-32z m105 -88 c36 -79 41 -186 14 -277 -28 -89 -40 -105 -86 -108 -37 -2 -39
0 -62 50 -63 137 -50 294 31 401 l27 35 25 -23 c14 -13 37 -48 51 -78z m-10
-583 c65 -147 52 -312 -34 -425 l-26 -33 -30 41 c-72 97 -92 213 -59 335 30
107 39 120 90 122 39 2 41 0 59 -40z"/>
<path d="M1481 6639 c-41 -10 -89 -28 -108 -39 -32 -18 -36 -19 -58 -4 -50 32
-119 -13 -113 -74 l3 -35 -85 -30 c-147 -52 -263 -38 -380 48 -27 20 -50 32
-50 27 0 -6 23 -27 50 -47 121 -89 241 -102 396 -43 79 29 94 32 110 21 28
-20 53 -16 86 17 25 25 29 36 24 61 -5 28 -3 31 42 50 159 69 286 58 426 -36
56 -37 78 -37 31 0 -71 57 -197 106 -270 104 -16 0 -63 -9 -104 -20z"/>
<path d="M2462 6644 c-61 -16 -101 -35 -159 -77 -64 -46 -44 -44 34 2 38 22
100 48 138 58 64 16 74 16 144 1 42 -9 97 -25 123 -37 45 -19 47 -22 42 -50
-5 -25 -1 -36 24 -61 34 -33 57 -37 89 -15 19 13 27 12 85 -14 118 -54 231
-59 333 -17 48 21 141 89 127 94 -6 2 -26 -8 -45 -22 -114 -87 -241 -103 -383
-47 -78 30 -80 32 -76 61 6 42 -20 78 -64 86 -26 5 -40 2 -51 -9 -14 -13 -21
-12 -70 9 -63 28 -164 54 -208 53 -16 0 -54 -7 -83 -15z"/>
<path d="M4058 6649 c-54 -12 -149 -62 -177 -93 l-24 -26 24 -26 c53 -56 218
-112 296 -99 52 9 131 34 173 55 31 16 38 16 55 4 25 -18 60 -18 90 2 21 14
26 14 47 0 52 -34 143 -58 219 -59 67 -1 84 3 150 35 77 37 119 69 119 92 0
18 -94 82 -149 101 -104 36 -220 25 -319 -30 -40 -22 -46 -23 -65 -10 -27 19
-81 19 -96 1 -10 -12 -21 -10 -74 15 -96 45 -187 58 -269 38z m175 -25 c33 -8
78 -24 99 -35 37 -19 39 -22 36 -62 l-3 -42 -75 -28 c-97 -38 -188 -40 -275
-7 -63 24 -135 67 -135 81 0 20 98 73 172 93 70 19 108 19 181 0z m672 -23
c83 -39 113 -64 97 -83 -20 -25 -134 -77 -190 -88 -62 -11 -154 4 -234 39 -46
19 -48 22 -48 60 0 37 3 42 40 61 109 56 232 60 335 11z"/>
<path d="M3655 5728 c-3 -7 -4 -310 -3 -673 l3 -660 795 0 795 0 30 23 c71 56
291 257 416 382 196 196 220 258 145 375 -58 91 -242 271 -510 498 l-79 67
-794 0 c-626 0 -795 -3 -798 -12z m1766 -160 c242 -213 367 -339 407 -414 17
-34 32 -72 32 -85 0 -76 -130 -226 -415 -477 l-200 -177 -781 -3 -781 -2 -7
31 c-8 41 -8 1192 0 1242 l7 37 781 0 782 0 175 -152z"/>
<path d="M2860 5657 c0 -5 9 -22 20 -37 11 -16 35 -59 52 -96 49 -106 45 -214
-14 -341 -17 -37 -23 -42 -44 -37 -15 4 -34 0 -50 -10 -24 -16 -27 -16 -77 7
-148 70 -297 62 -423 -24 -60 -41 -80 -70 -24 -36 117 72 148 82 255 82 91 0
106 -3 166 -31 61 -29 66 -34 62 -58 -3 -15 1 -36 10 -50 9 -13 12 -27 7 -32
-5 -5 -20 -44 -34 -86 -30 -89 -34 -187 -11 -265 16 -54 71 -144 92 -151 7 -2
-3 20 -22 50 -79 119 -87 259 -23 410 18 43 22 46 43 36 17 -8 28 -6 48 6 24
16 28 16 88 -8 34 -14 88 -31 121 -38 105 -22 234 15 315 89 l38 35 -35 -21
c-121 -72 -162 -86 -250 -86 -72 0 -97 5 -160 31 -72 30 -75 32 -72 62 2 17
-2 40 -8 52 -9 17 -6 33 14 83 52 130 52 248 2 351 -25 50 -85 129 -86 113z"/>
<path d="M1237 5618 c-94 -125 -108 -275 -41 -426 21 -47 23 -60 13 -79 -6
-12 -9 -37 -6 -56 l5 -34 -98 -33 c-84 -28 -108 -32 -164 -28 -64 6 -140 35
-226 88 -33 21 -33 20 8 -19 55 -50 136 -82 227 -88 61 -3 83 1 170 31 93 33
101 34 124 20 18 -12 29 -14 46 -6 21 10 25 7 43 -36 34 -79 45 -138 40 -220
-5 -81 -22 -125 -80 -209 -16 -24 -25 -43 -20 -43 14 0 58 61 88 121 48 95 42
251 -14 368 -16 32 -17 41 -5 56 7 11 13 33 13 51 0 29 5 34 63 60 55 26 73
29 163 29 100 0 103 -1 185 -42 93 -48 116 -50 43 -3 -136 86 -271 94 -421 23
-50 -23 -53 -23 -77 -7 -16 10 -35 14 -50 10 -21 -5 -27 0 -49 48 -66 139 -55
282 31 410 35 52 26 63 -11 14z"/>
<path d="M6360 6045 l0 -265 200 0 200 0 0 30 0 30 -162 2 -163 3 -3 87 -3 87
148 3 148 3 0 30 c0 26 -3 30 -25 26 -14 -2 -80 0 -148 4 l-123 7 3 77 3 76
158 3 158 3 -3 27 -3 27 -192 3 -193 2 0 -265z"/>
<path d="M6875 6004 c-42 -36 -46 -44 -28 -44 12 0 25 5 28 10 17 28 25 1 25
-91 0 -87 2 -100 16 -97 14 3 16 20 15 133 -1 71 -3 130 -4 131 -1 1 -24 -18
-52 -42z"/>
<path d="M930 3814 c-22 -20 -40 -40 -40 -45 0 -13 34 -11 48 3 9 9 12 -6 12
-70 0 -81 0 -82 25 -82 l25 0 0 115 c0 133 -5 138 -70 79z"/>
<path d="M3322 3830 c-12 -12 -22 -27 -22 -35 0 -20 29 -19 51 1 10 9 25 14
34 11 23 -9 18 -41 -11 -68 -39 -35 -85 -100 -78 -110 3 -5 39 -9 80 -9 67 0
74 2 74 20 0 17 -7 20 -46 20 l-47 0 42 45 c32 34 41 52 41 79 0 60 -72 88
-118 46z"/>
<path d="M5742 3834 c-12 -8 -22 -24 -22 -35 0 -23 9 -24 36 -4 24 18 54 19
54 1 0 -8 -12 -23 -27 -34 l-26 -19 29 -14 c35 -17 44 -53 16 -68 -15 -8 -23
-6 -37 9 -22 24 -34 25 -42 5 -17 -46 78 -74 117 -35 23 23 26 72 5 90 -11 9
-12 17 -5 30 23 44 -5 90 -55 90 -11 0 -31 -7 -43 -16z"/>
<path d="M8171 3778 c-65 -92 -65 -104 -1 -113 40 -6 50 -11 50 -26 0 -24 28
-25 37 -1 3 9 13 25 21 34 13 16 13 18 -2 24 -12 5 -16 19 -16 58 0 64 -9 96
-25 96 -8 0 -36 -32 -64 -72z m45 -43 c-5 -26 -12 -35 -26 -35 -26 0 -25 14 2
50 26 36 33 32 24 -15z"/>
<path d="M266 3542 c-8 -14 -16 -849 -9 -1094 l6 -248 793 0 793 0 95 83 c230
198 297 260 388 356 135 142 169 220 130 297 -39 77 -110 161 -228 269 -167
153 -333 298 -369 321 -28 18 -58 19 -812 21 -430 2 -784 -1 -787 -5z m1551
-21 c29 -6 59 -23 95 -55 29 -25 94 -81 143 -123 280 -240 405 -384 405 -466
0 -80 -124 -226 -405 -476 -175 -156 -208 -179 -255 -181 -19 -1 -369 -2 -777
-1 l-743 1 0 655 0 655 748 -1 c411 0 766 -3 789 -8z"/>
<path d="M1079 3432 c5 -10 16 -24 24 -30 24 -21 66 -125 73 -183 7 -62 -14
-166 -46 -229 -18 -34 -25 -40 -53 -40 -18 0 -42 -6 -52 -14 -16 -12 -25 -10
-65 10 -116 58 -247 66 -345 20 -60 -28 -135 -82 -135 -97 0 -6 16 1 35 15 53
41 152 84 209 91 59 8 165 -14 226 -45 36 -18 40 -24 40 -57 0 -20 7 -44 14
-52 13 -14 11 -24 -14 -76 -69 -142 -55 -292 40 -424 17 -23 34 -40 38 -37 3
4 -4 19 -15 34 -39 52 -71 128 -83 192 -9 52 -9 75 5 134 8 39 26 89 38 111
20 36 26 40 58 37 23 -2 40 2 48 12 11 14 19 12 63 -10 28 -14 80 -32 117 -39
109 -23 234 6 322 76 55 44 48 56 -8 15 -131 -92 -261 -103 -423 -34 -43 17
-46 21 -42 51 2 18 -3 41 -11 51 -13 17 -12 25 10 68 74 147 61 310 -35 436
-26 34 -49 44 -33 14z"/>
<path d="M2674 3541 c-2 -2 -4 -305 -4 -673 l0 -668 799 0 799 0 105 93 c287
253 338 300 403 378 145 171 148 225 24 380 -28 35 -83 93 -123 129 -151 139
-314 283 -364 321 l-52 41 -791 1 c-436 1 -794 0 -796 -2z m1603 -31 c59 -46
341 -299 419 -375 98 -97 150 -166 171 -229 13 -37 13 -43 -17 -102 -23 -46
-62 -95 -153 -187 -116 -118 -342 -324 -410 -374 l-31 -23 -783 0 -783 0 0
650 0 650 263 3 c144 1 497 2 784 2 433 -1 525 -4 540 -15z"/>
<path d="M3450 3423 c-101 -115 -116 -305 -37 -448 23 -40 23 -41 5 -70 -24
-40 -23 -48 12 -85 25 -27 35 -31 61 -26 29 6 31 3 62 -62 29 -61 32 -75 32
-168 0 -94 -2 -104 -34 -167 -18 -36 -42 -74 -52 -83 -11 -9 -19 -22 -19 -27
0 -17 50 35 77 80 68 116 69 257 4 395 -18 36 -20 51 -12 67 30 55 -1 109 -66
118 -38 5 -43 9 -62 53 -64 149 -53 281 34 399 49 67 46 82 -5 24z"/>
<path d="M5188 3543 l-108 -4 0 -669 0 -670 803 0 803 0 84 78 c47 42 114 102
150 132 268 227 401 391 386 478 -7 45 -58 129 -121 200 -66 74 -429 397 -480
427 l-40 23 -685 5 c-377 2 -733 2 -792 0z m1425 -18 c72 -9 95 -25 288 -197
267 -237 375 -362 386 -445 9 -80 -109 -227 -345 -430 -75 -65 -165 -144 -199
-175 l-62 -58 -791 0 -790 0 0 650 0 649 158 3 c420 8 1304 9 1355 3z"/>
<path d="M5912 3313 c45 -56 71 -138 65 -215 -4 -67 -41 -163 -62 -163 -5 0
-26 34 -47 75 -47 97 -109 153 -197 180 -69 22 -106 26 -96 10 3 -5 15 -10 25
-10 11 0 45 -10 77 -21 79 -30 153 -104 182 -183 28 -75 18 -83 -58 -48 -42
20 -76 28 -136 30 -77 4 -83 2 -154 -35 -41 -21 -77 -44 -79 -52 -3 -9 22 1
61 23 79 44 146 59 207 45 56 -13 140 -49 140 -60 0 -5 -24 -20 -52 -34 -88
-42 -163 -107 -191 -167 -23 -49 -46 -148 -34 -148 3 0 14 31 26 68 11 38 31
84 43 102 48 70 199 161 218 130 4 -7 -3 -35 -18 -68 -34 -76 -41 -182 -16
-251 19 -54 67 -121 86 -121 7 0 2 10 -9 23 -60 65 -87 187 -63 286 13 54 45
105 61 95 5 -3 25 -38 45 -77 44 -90 73 -120 149 -158 63 -30 155 -49 155 -32
0 6 -21 13 -46 17 -105 14 -191 76 -236 171 -46 98 -38 111 45 75 109 -49 258
-32 335 37 l37 33 -73 -37 c-95 -48 -175 -55 -272 -21 -88 31 -88 47 -5 83 79
33 151 99 183 168 25 54 40 137 25 137 -6 0 -13 -21 -17 -47 -7 -58 -53 -140
-97 -177 -63 -53 -169 -95 -169 -66 0 5 12 44 26 87 34 101 31 175 -11 258
-17 32 -41 66 -55 74 l-25 16 27 -32z"/>
<path d="M7508 3544 c-5 -4 -8 -308 -8 -676 l0 -668 794 0 795 0 70 58 c194
159 474 429 523 506 22 33 33 64 36 100 3 45 -1 58 -32 109 -50 82 -116 157
-220 247 -50 43 -140 122 -201 175 -60 54 -126 108 -145 121 l-36 24 -784 6
c-432 3 -788 3 -792 -2z m1611 -49 c46 -32 305 -260 404 -354 43 -42 98 -105
123 -142 84 -122 70 -184 -75 -341 -80 -86 -396 -371 -457 -413 l-37 -25 -778
0 -779 0 0 650 0 650 723 3 c397 2 749 1 782 0 43 -3 70 -11 94 -28z"/>
<path d="M7920 2986 c-61 -17 -138 -58 -174 -91 l-30 -28 29 -23 c84 -67 207
-109 290 -98 28 3 89 19 137 36 68 23 91 27 107 19 28 -15 62 -14 81 4 14 12
21 11 65 -10 77 -38 179 -56 251 -45 68 11 169 58 203 94 24 26 24 26 5 47
-36 42 -107 78 -182 95 -64 14 -85 15 -144 4 -38 -6 -94 -25 -125 -40 l-56
-28 -27 19 c-25 19 -28 19 -67 4 -38 -15 -44 -15 -73 0 -41 21 -175 55 -214
54 -17 0 -51 -6 -76 -13z m165 -20 c33 -8 82 -24 108 -35 45 -19 47 -22 47
-60 0 -38 -2 -41 -47 -61 -80 -36 -177 -52 -239 -41 -51 10 -214 85 -214 100
0 6 64 48 107 70 30 15 122 40 153 40 14 0 52 -6 85 -13z m607 3 c65 -14 135
-49 166 -82 l23 -24 -48 -31 c-58 -37 -92 -51 -160 -63 -60 -11 -167 7 -231
40 -35 18 -40 25 -44 62 -4 41 -3 42 38 60 52 23 140 47 176 48 15 1 51 -4 80
-10z"/>
<path d="M3329 1841 c-25 -25 -29 -37 -29 -83 0 -75 27 -118 75 -118 46 0 75
29 75 75 0 49 -31 79 -76 72 -37 -6 -39 -5 -24 24 11 20 45 26 55 9 9 -15 35
-12 35 3 0 21 -34 47 -59 47 -12 0 -36 -13 -52 -29z m77 -117 c8 -30 -6 -47
-32 -42 -35 6 -30 68 5 68 14 0 23 -9 27 -26z"/>
<path d="M5758 1863 c-33 -3 -48 -9 -48 -19 0 -10 12 -14 45 -14 25 0 45 -4
45 -9 0 -5 -11 -33 -24 -62 -34 -75 -37 -113 -10 -117 18 -3 22 3 27 39 3 23
22 73 41 110 23 44 32 69 24 69 -7 0 -22 2 -33 4 -11 1 -41 1 -67 -1z"/>
<path d="M8162 1858 c-19 -10 -23 -19 -22 -62 1 -28 -2 -66 -5 -84 -10 -45 15
-72 66 -72 62 0 92 47 65 102 -11 21 -13 35 -6 42 14 14 12 52 -3 65 -21 17
-69 22 -95 9z m64 -39 c8 -14 -21 -43 -35 -35 -6 4 -11 16 -11 27 0 21 34 27
46 8z m2 -111 c3 -24 0 -28 -22 -28 -30 0 -40 13 -31 41 10 31 49 21 53 -13z"/>
<path d="M906 1830 c-3 -16 -9 -44 -12 -61 -6 -31 -5 -32 22 -25 60 15 69 13
72 -17 2 -16 -2 -35 -9 -43 -10 -13 -15 -13 -35 1 -29 19 -54 19 -54 2 0 -24
35 -47 72 -47 41 0 65 22 74 69 8 41 -25 81 -68 81 -48 0 -35 28 14 32 31 2
44 8 46 21 3 15 -5 17 -56 17 -59 0 -61 -1 -66 -30z"/>
<path d="M256 1433 c-4 -87 -6 -391 -5 -676 l2 -517 798 0 797 0 85 73 c389
330 547 504 547 602 0 73 -116 220 -305 385 -54 47 -142 124 -196 172 -54 48
-109 93 -121 100 -18 10 -186 14 -809 16 l-786 3 -7 -158z m1543 131 c47 -6
62 -14 115 -60 34 -30 102 -89 151 -131 155 -131 265 -236 304 -288 58 -77 91
-139 91 -169 0 -92 -164 -271 -559 -609 l-55 -47 -782 0 -781 0 -5 197 c-4
109 -4 351 -3 538 2 187 4 392 4 456 l1 116 733 2 c402 1 756 -2 786 -5z"/>
<path d="M1079 1453 c90 -112 104 -264 40 -414 -20 -46 -24 -49 -58 -49 -57 0
-81 -23 -81 -76 0 -44 -1 -46 -45 -65 -78 -35 -179 -51 -241 -40 -65 12 -135
42 -180 76 -44 34 -54 31 -20 -4 34 -35 125 -77 194 -91 75 -14 186 7 276 52
27 14 37 16 33 6 -3 -7 -18 -42 -33 -78 -25 -56 -29 -78 -28 -160 0 -108 21
-178 75 -243 41 -50 48 -41 10 14 -83 124 -92 280 -23 415 18 36 24 40 50 36
45 -6 92 39 92 88 0 38 1 39 58 60 31 12 81 26 109 32 91 18 220 -19 302 -87
17 -15 31 -22 31 -17 0 19 -83 82 -134 101 -113 42 -211 36 -335 -20 -72 -33
-71 -36 -25 71 24 56 28 79 29 160 0 82 -4 103 -26 150 -27 58 -74 120 -90
120 -6 0 4 -17 20 -37z"/>
<path d="M2898 1583 l-228 -3 0 -670 0 -670 800 0 799 0 143 128 c79 70 170
150 202 177 130 110 260 275 279 356 12 47 -45 140 -152 252 -90 93 -358 336
-444 401 l-38 29 -567 2 c-312 1 -669 0 -794 -2z m1393 -44 c19 -15 81 -68
139 -119 298 -264 400 -373 436 -468 17 -42 16 -42 -14 -105 -48 -97 -229
-279 -519 -524 l-74 -63 -784 0 -785 0 0 650 0 650 313 2 c171 2 524 3 783 3
l471 0 34 -26z"/>
<path d="M3430 1343 c-31 -38 -60 -116 -60 -160 l0 -24 -34 26 c-34 26 -113
57 -175 69 l-34 6 6 -49 c7 -59 41 -143 68 -167 25 -23 24 -34 -4 -34 -47 0
-124 -30 -163 -64 l-39 -34 20 -22 c23 -26 73 -52 130 -69 22 -7 46 -14 52
-16 9 -3 3 -20 -17 -52 -37 -59 -60 -157 -42 -175 18 -18 134 14 185 52 l41
30 13 -55 c15 -65 43 -123 73 -150 l22 -20 28 32 c30 34 70 129 70 168 0 32 3
31 48 -4 40 -32 137 -64 176 -59 l24 3 -19 75 c-11 41 -31 92 -45 113 -14 21
-24 40 -22 41 2 1 26 7 53 14 74 19 140 62 140 92 0 33 -89 87 -157 96 -53 7
-57 13 -29 38 27 25 62 111 64 159 2 37 -1 42 -21 45 -32 5 -123 -24 -164 -52
-36 -24 -48 -24 -48 0 0 47 -75 184 -100 184 -5 0 -23 -17 -40 -37z m74 -25
c14 -24 32 -69 40 -100 l15 -58 -47 -90 -46 -90 -16 43 c-9 23 -28 62 -42 87
l-26 45 17 66 c15 61 56 139 73 139 4 0 18 -19 32 -42z m-216 -129 c53 -26 70
-41 103 -91 47 -74 58 -121 34 -148 -16 -18 -19 -18 -59 -3 -120 48 -190 129
-211 247 l-6 39 38 -6 c20 -4 66 -21 101 -38z m502 28 c0 -33 -33 -118 -60
-155 -37 -51 -124 -111 -173 -119 -32 -5 -38 -3 -49 21 -8 20 -9 35 -1 55 18
50 74 126 111 152 65 46 172 75 172 46z m-404 -297 c7 0 14 -4 14 -10 0 -5 -7
-10 -17 -10 -9 0 -49 -18 -88 -39 -66 -37 -75 -39 -114 -30 -58 13 -163 67
-158 82 6 20 89 61 146 72 53 11 57 10 128 -27 41 -21 81 -38 89 -38z m458 44
c17 -9 41 -26 53 -37 l23 -20 -35 -24 c-42 -28 -76 -42 -133 -53 -39 -7 -49
-4 -100 27 -31 19 -69 37 -84 40 -38 8 -35 18 10 31 20 6 57 24 82 40 41 26
49 28 99 20 29 -5 67 -16 85 -24z m-414 -99 c30 -36 -36 -163 -110 -214 -50
-34 -136 -65 -158 -56 -32 12 20 145 79 203 38 37 123 82 155 82 12 0 27 -7
34 -15z m186 -10 c91 -45 151 -126 170 -229 l7 -39 -39 7 c-109 21 -210 104
-240 199 -14 46 -15 59 -4 71 18 22 48 20 106 -9z m-136 -29 c0 -8 16 -45 35
-82 45 -86 45 -121 -1 -213 -19 -39 -38 -71 -42 -71 -13 0 -54 69 -68 116 -21
70 -18 97 21 167 19 35 35 71 35 80 0 9 5 17 10 17 6 0 10 -6 10 -14z"/>
<path d="M5085 1581 c-3 -2 -5 -305 -5 -673 l0 -668 803 0 802 1 55 50 c30 28
114 101 185 163 260 227 385 377 385 465 0 36 -61 135 -131 214 -58 65 -405
377 -473 425 l-39 27 -788 1 c-434 0 -792 -2 -794 -5z m1553 -20 c53 -10 79
-29 229 -161 196 -173 366 -348 396 -409 35 -72 34 -94 -10 -169 -51 -86 -150
-191 -311 -329 -75 -64 -165 -143 -199 -175 l-61 -58 -791 0 -791 0 0 650 0
649 63 4 c136 7 1435 6 1475 -2z"/>
<path d="M5849 1467 c-15 -18 -39 -57 -55 -87 -26 -50 -28 -65 -29 -155 0 -89
4 -108 32 -178 36 -89 42 -85 -72 -41 -136 53 -290 31 -387 -55 l-43 -39 28
-30 c58 -61 205 -110 290 -97 55 8 132 33 181 57 27 14 37 16 33 6 -60 -138
-61 -142 -62 -243 0 -83 4 -108 23 -149 25 -55 82 -135 96 -136 25 -1 87 101
110 179 27 93 16 196 -34 309 -11 25 -19 47 -16 49 2 2 19 -5 37 -15 76 -44
187 -64 273 -51 91 15 216 86 216 123 0 18 -91 78 -155 102 -91 35 -235 19
-332 -37 -41 -23 -49 -10 -23 40 25 50 50 152 50 207 0 88 -78 264 -121 272
-8 1 -26 -13 -40 -31z m100 -82 c53 -110 52 -237 -4 -346 -19 -38 -26 -44 -49
-41 -15 2 -34 -2 -41 -8 -10 -8 -19 6 -41 67 -24 64 -29 94 -29 168 0 97 18
153 71 223 24 31 27 32 44 17 9 -8 31 -45 49 -80z m-218 -402 l72 -28 0 -43
c0 -42 -2 -45 -44 -64 -81 -36 -167 -51 -232 -39 -62 11 -146 46 -187 79 -21
18 -22 22 -10 37 18 21 80 53 150 77 72 24 155 18 251 -19z m608 2 c30 -14 70
-37 89 -52 l34 -26 -53 -33 c-131 -81 -253 -89 -405 -24 -43 19 -45 22 -42 56
4 48 32 68 128 94 93 25 171 20 249 -15z m-444 -157 c23 11 26 9 45 -28 34
-66 53 -158 47 -227 -5 -63 -45 -165 -84 -212 l-19 -24 -36 54 c-81 122 -88
239 -26 397 17 43 23 50 35 41 10 -9 20 -9 38 -1z"/>
<path d="M7753 1582 l-253 -2 0 -670 0 -670 793 0 794 0 39 28 c22 16 73 60
115 98 41 38 126 114 188 169 131 116 241 239 272 302 58 121 -19 236 -360
534 -240 210 -232 205 -343 213 -86 6 -608 5 -1245 -2z m1362 -44 c55 -39 395
-341 453 -401 74 -79 124 -159 129 -210 7 -61 -28 -125 -124 -227 -86 -92
-397 -373 -457 -414 l-39 -26 -778 0 -779 0 0 650 0 650 423 3 c232 1 582 3
778 2 l357 0 37 -27z"/>
<path d="M8317 1470 c66 -111 78 -144 82 -223 3 -82 -8 -142 -41 -219 -18 -43
-22 -47 -49 -41 -55 11 -116 -82 -75 -116 12 -10 10 -22 -17 -79 -26 -57 -31
-81 -35 -167 -3 -84 0 -109 17 -156 21 -55 83 -139 103 -139 5 0 -7 19 -26 42
-92 108 -104 277 -30 433 14 30 19 33 45 28 23 -4 34 0 59 27 33 35 37 64 15
94 -12 16 -12 23 5 55 36 72 52 149 48 235 -2 69 -8 92 -37 148 -18 37 -45 77
-59 90 l-25 23 20 -35z"/>
</g>
</svg>
