<?xml version="1.0" standalone="no"?>
<!DOCTYPE svg PUBLIC "-//W3C//DTD SVG 20010904//EN"
 "http://www.w3.org/TR/2001/REC-SVG-20010904/DTD/svg10.dtd">
<svg version="1.0" xmlns="http://www.w3.org/2000/svg"
 width="900.000000pt" height="922.000000pt" viewBox="0 0 900.000000 922.000000"
 preserveAspectRatio="xMidYMid meet">
<metadata>
Created by potrace 1.16, written by Peter Selinger 2001-2019
</metadata>
<g transform="translate(0.000000,922.000000) scale(0.100000,-0.100000)"
fill="#FFFFFF" stroke="none">
<path d="M216 8538 c-5 -380 -3 -3495 2 -3800 l2 -88 3390 0 3390 0 0 2175 0
2175 -3389 0 -3389 0 -6 -462z m6764 -1710 l0 -2153 -3370 0 -3370 0 -1 335
c-4 1080 -5 3121 0 3513 l4 457 3369 0 3368 0 0 -2152z"/>
<path d="M592 8818 c-16 -46 -32 -93 -36 -105 -5 -15 -23 -27 -59 -39 -107
-35 -157 -56 -157 -66 0 -6 9 -8 20 -5 10 3 20 1 22 -4 2 -5 40 -21 86 -37
l83 -28 36 -107 c19 -59 38 -107 42 -107 3 0 22 49 42 108 l36 107 106 35 c59
19 107 37 107 40 0 3 -48 24 -107 46 l-106 39 -35 103 c-18 56 -37 102 -42
102 -4 0 -21 -37 -38 -82z m68 -48 l28 -82 -28 -31 -29 -32 -31 31 -32 31 29
85 c15 47 30 84 31 83 2 -2 16 -40 32 -85z m-76 -129 l28 -29 -25 -28 -26 -28
-85 24 c-47 14 -86 27 -86 30 0 7 136 58 156 59 5 1 23 -12 38 -28z m214 -1
c69 -23 92 -40 55 -40 -10 0 -48 -11 -85 -23 l-68 -23 -26 27 c-29 30 -26 42
16 76 17 15 13 15 108 -17z m-135 -178 c-14 -43 -29 -81 -33 -85 -7 -7 -50
124 -50 151 0 8 10 27 21 44 l21 30 33 -32 33 -32 -25 -76z"/>
<path d="M1330 8799 c-19 -55 -39 -104 -45 -108 -5 -5 -54 -23 -107 -40 -54
-18 -98 -37 -98 -43 0 -6 9 -8 20 -5 11 3 20 1 20 -4 0 -5 40 -21 88 -35 l88
-26 34 -102 c18 -55 36 -105 40 -109 4 -4 24 40 45 99 42 119 32 109 172 155
40 13 73 27 73 31 0 3 -37 20 -82 37 -133 50 -128 45 -162 150 -17 52 -36 96
-41 98 -6 2 -26 -42 -45 -98z m73 -141 l-30 -30 -27 23 c-32 28 -32 35 0 133
l27 79 30 -88 30 -87 -30 -30z m-76 -17 l33 -27 -30 -29 -30 -29 -73 23 c-39
12 -79 25 -87 28 -11 4 123 60 150 62 3 0 20 -12 37 -28z m226 -1 c31 -12 57
-24 57 -28 0 -4 -36 -18 -80 -31 l-81 -24 -29 28 -30 29 27 29 c31 32 43 32
136 -3z m-145 -81 l24 -30 -28 -79 c-16 -44 -32 -76 -35 -72 -4 4 -17 42 -29
85 l-21 77 23 29 c26 32 34 31 66 -10z"/>
<path d="M2075 8795 c-29 -77 -45 -107 -60 -111 -115 -31 -230 -84 -182 -84 6
0 56 -14 109 -31 l97 -32 27 -76 c14 -42 31 -91 38 -108 6 -18 13 -33 16 -33
3 0 12 24 22 53 9 28 26 78 38 109 l21 57 102 33 c100 32 136 48 107 48 -8 0
-60 17 -114 38 l-99 37 -35 103 c-19 56 -38 102 -41 102 -4 0 -25 -47 -46
-105z m76 -30 l25 -75 -31 -30 -31 -30 -29 30 -28 29 28 76 c15 41 30 75 34
75 5 0 19 -34 32 -75z m-78 -123 l27 -28 -29 -28 -29 -28 -69 22 c-37 12 -74
24 -82 26 -8 2 -12 7 -9 9 6 7 140 54 154 55 5 0 22 -13 37 -28z m205 1 c78
-26 103 -43 64 -43 -10 0 -46 -9 -80 -21 -59 -20 -64 -20 -88 -4 -36 23 -40
43 -14 71 13 13 26 24 29 24 3 0 43 -12 89 -27z m-124 -178 c-14 -38 -29 -74
-33 -78 -4 -4 -20 29 -34 75 l-27 82 27 28 27 28 33 -32 32 -33 -25 -70z"/>
<path d="M2842 8852 c-10 -26 -27 -69 -37 -97 -10 -27 -21 -54 -25 -58 -4 -5
-49 -23 -100 -40 -52 -18 -95 -37 -97 -43 -2 -7 40 -25 101 -45 l105 -34 26
-85 c48 -150 46 -150 91 -23 l38 110 101 33 c96 32 134 50 105 50 -7 0 -57 17
-111 38 l-99 37 -30 97 c-17 53 -34 99 -39 102 -5 3 -18 -16 -29 -42z m57 -91
l23 -74 -31 -30 -30 -31 -26 24 c-14 13 -25 33 -25 44 0 29 52 158 60 149 3
-4 16 -41 29 -82z m-84 -121 l29 -30 -27 -27 -26 -27 -78 24 c-43 13 -81 26
-86 30 -6 5 131 58 154 60 3 0 18 -14 34 -30z m207 3 c43 -16 78 -30 78 -33 0
-6 -143 -50 -162 -50 -8 0 -25 11 -38 25 l-24 25 29 30 c16 17 31 30 34 30 3
0 40 -12 83 -27z m-126 -188 c-15 -47 -29 -85 -31 -85 -2 0 -15 36 -30 80 -27
82 -27 89 9 128 l20 23 30 -30 30 -30 -28 -86z"/>
<path d="M3565 8795 l-37 -104 -92 -31 c-91 -30 -125 -46 -116 -53 3 -2 52
-19 109 -39 l105 -35 34 -106 c19 -59 38 -107 43 -107 5 0 9 5 9 12 0 6 16 55
36 108 l36 96 91 33 c51 18 98 34 106 37 20 7 15 10 -98 51 l-104 38 -35 103
c-19 56 -38 102 -43 102 -4 0 -24 -47 -44 -105z m77 -24 l26 -79 -32 -31 -32
-31 -28 29 -28 29 28 81 c16 45 31 81 34 81 3 0 17 -36 32 -79z m-77 -131 l29
-30 -24 -25 c-29 -30 -43 -31 -117 -4 -32 11 -65 23 -73 26 -13 4 117 60 146
62 5 1 23 -12 39 -29z m202 5 c75 -29 99 -45 65 -45 -11 0 -50 -11 -86 -24
l-65 -23 -31 32 -31 32 31 27 c17 14 36 26 41 26 4 0 39 -11 76 -25z m-107
-134 c-20 -63 -43 -127 -50 -134 -6 -7 -50 126 -50 153 0 7 10 25 21 42 l21
30 33 -32 c28 -27 32 -36 25 -59z"/>
<path d="M4310 8799 c-36 -106 -41 -113 -80 -123 -57 -16 -170 -59 -170 -65 0
-3 49 -21 108 -40 l108 -33 34 -102 c18 -55 36 -105 40 -109 4 -5 20 27 35 70
54 150 42 136 143 171 50 18 96 32 102 32 5 0 10 4 10 9 0 5 -37 23 -82 40
-129 48 -125 45 -161 150 -18 52 -36 96 -42 98 -5 2 -26 -42 -45 -98z m75 -30
l27 -81 -27 -28 -28 -29 -28 22 c-16 11 -29 29 -29 38 0 17 49 159 55 159 2 0
15 -36 30 -81z m-76 -126 l32 -28 -30 -29 -31 -30 -77 24 c-43 13 -81 26 -86
30 -6 5 131 58 153 60 3 0 21 -12 39 -27z m193 8 c113 -39 114 -41 14 -68
l-89 -24 -29 28 -28 28 25 28 c31 32 36 33 107 8z m-101 -103 c11 -20 -39
-185 -51 -171 -4 4 -18 43 -30 86 l-23 78 28 29 c27 29 29 29 48 13 10 -10 23
-26 28 -35z"/>
<path d="M5055 8795 l-40 -106 -108 -36 c-59 -20 -104 -40 -100 -43 5 -4 54
-22 110 -40 l103 -33 19 -51 c10 -28 27 -77 37 -108 17 -53 34 -75 34 -46 0 6
16 55 36 109 l36 98 101 33 c100 32 136 48 107 48 -8 0 -60 17 -114 38 l-99
37 -35 103 c-19 56 -38 102 -42 102 -3 0 -24 -47 -45 -105z m79 -31 l25 -75
-32 -29 -32 -29 -29 29 -29 29 27 75 c16 42 32 76 36 76 5 0 20 -34 34 -76z
m-81 -122 l27 -28 -29 -28 -28 -27 -74 22 c-41 12 -78 25 -82 29 -6 5 129 58
154 60 3 0 17 -13 32 -28z m215 -2 c39 -13 72 -26 72 -29 0 -4 -37 -16 -82
-29 -75 -21 -83 -21 -105 -7 -38 25 -40 45 -9 72 16 13 33 23 40 21 6 -2 44
-14 84 -28z m-136 -182 c-15 -43 -30 -78 -33 -78 -3 0 -18 37 -32 82 l-27 82
27 28 27 28 33 -32 32 -33 -27 -77z"/>
<path d="M5822 8853 c-11 -27 -27 -71 -36 -100 -20 -59 -26 -66 -81 -83 -84
-27 -145 -52 -145 -60 0 -4 47 -23 105 -42 l104 -33 27 -85 c14 -47 32 -96 39
-109 11 -22 13 -20 40 55 54 151 42 137 143 172 50 18 98 32 107 32 36 0 10
17 -67 44 -138 48 -133 43 -169 156 -18 55 -36 100 -40 100 -4 0 -16 -21 -27
-47z m38 -16 c0 -6 10 -42 22 -80 l21 -68 -31 -32 -31 -31 -26 28 c-14 15 -25
32 -25 39 0 23 55 165 62 161 5 -3 8 -10 8 -17z m-67 -192 c33 -30 34 -35 2
-65 l-25 -24 -73 23 c-39 12 -79 25 -87 28 -11 4 122 59 150 62 3 0 17 -11 33
-24z m209 -1 c78 -28 105 -44 73 -44 -10 0 -49 -10 -87 -22 l-68 -22 -30 29
-30 29 27 28 c15 15 30 28 34 28 4 0 41 -12 81 -26z m-125 -189 c-16 -47 -30
-85 -32 -85 -9 0 -56 161 -49 172 4 7 16 23 28 36 l20 23 30 -31 30 -30 -27
-85z"/>
<path d="M6551 8808 c-17 -51 -35 -98 -39 -105 -4 -6 -52 -27 -106 -47 -96
-34 -114 -43 -105 -49 2 -2 51 -19 109 -39 l105 -35 34 -107 c19 -58 37 -106
40 -106 3 0 20 42 36 93 17 50 40 102 51 114 12 12 63 34 113 50 50 15 91 31
91 34 0 4 -35 19 -77 35 -149 52 -134 39 -171 152 -18 56 -37 102 -42 102 -5
0 -22 -42 -39 -92z m72 -41 l26 -78 -29 -32 -29 -32 -30 30 -30 30 27 87 c15
48 30 84 33 80 4 -4 18 -42 32 -85z m-78 -127 l29 -30 -24 -25 c-13 -14 -31
-25 -40 -25 -14 0 -97 25 -150 46 -13 5 117 62 146 63 5 1 23 -12 39 -29z
m208 3 c73 -25 97 -43 60 -43 -10 0 -48 -11 -85 -24 l-67 -24 -27 29 c-28 30
-26 42 15 77 19 16 14 16 104 -15z m-130 -181 c-14 -43 -29 -81 -33 -85 -6 -7
-50 126 -50 153 0 6 10 24 22 40 l22 30 32 -31 32 -31 -25 -76z"/>
<path d="M592 8104 c-18 -52 -32 -100 -32 -108 0 -11 -181 -86 -209 -86 -34 0
2 -20 97 -53 l107 -38 24 -80 c13 -44 28 -82 33 -85 12 -8 10 4 -12 76 -26 84
-25 102 3 128 l23 22 29 -30 30 -31 -33 -97 c-33 -99 -38 -122 -24 -122 4 0
22 50 41 110 l34 110 66 25 c37 14 69 25 72 25 4 0 24 7 45 16 l38 16 -55 20
c-29 11 -79 28 -110 39 l-55 19 -34 106 c-18 58 -36 107 -40 109 -4 2 -21 -39
-38 -91z m68 -48 l27 -85 -29 -28 -29 -28 -29 32 -28 31 26 85 c15 47 29 83
31 81 2 -2 16 -42 31 -88z m-67 -129 c23 -19 22 -29 -11 -60 l-29 -27 -76 27
c-42 15 -77 30 -77 33 0 4 33 18 73 32 72 26 80 25 120 -5z m197 4 c50 -17 79
-31 70 -35 -35 -14 -163 -56 -164 -53 -1 1 -12 14 -25 30 l-25 27 29 30 c16
17 29 30 29 30 1 0 39 -13 86 -29z"/>
<path d="M1331 8090 l-34 -109 -76 -27 c-42 -15 -80 -31 -85 -36 -6 -4 -21 -8
-34 -8 -29 0 -21 -16 12 -24 13 -3 60 -20 104 -36 l80 -31 32 -102 c18 -56 36
-106 40 -110 4 -5 22 38 40 95 17 57 38 108 46 115 9 6 58 26 110 44 52 18 94
36 94 39 0 3 -48 24 -106 45 l-106 40 -36 108 c-19 59 -38 107 -41 107 -3 0
-21 -50 -40 -110z m72 -142 c-15 -15 -30 -28 -34 -28 -4 0 -17 13 -29 30 l-21
29 27 88 26 87 29 -89 29 -89 -27 -28z m-70 -16 l27 -28 -33 -32 -33 -32 -69
26 c-39 15 -73 30 -77 33 -7 6 120 57 148 60 5 1 22 -12 37 -27z m207 0 c92
-31 94 -27 -25 -68 l-70 -25 -27 33 -27 33 26 28 c15 15 29 27 33 27 3 0 44
-13 90 -28z m-133 -81 l23 -29 -27 -81 c-15 -45 -30 -78 -34 -74 -13 16 -50
154 -43 166 14 24 37 47 48 46 6 0 21 -13 33 -28z"/>
<path d="M2091 8127 c-48 -148 -49 -149 -132 -176 -41 -14 -78 -28 -83 -33 -6
-4 -21 -8 -35 -8 -40 0 -16 -13 95 -50 l105 -35 37 -113 c20 -61 39 -112 42
-112 3 0 18 43 34 95 16 53 35 104 43 114 7 11 54 33 110 51 105 35 132 49 93
51 -14 0 -65 17 -115 37 l-90 37 -32 90 c-18 50 -33 98 -33 108 0 36 -16 14
-39 -56z m61 -75 l27 -77 -29 -30 -30 -30 -30 30 -30 30 28 81 c15 45 29 80
32 77 2 -2 17 -39 32 -81z m-77 -122 l29 -30 -29 -30 -30 -29 -70 25 c-38 14
-74 29 -78 34 -7 6 111 55 144 59 3 1 18 -13 34 -29z m204 1 c45 -16 79 -31
74 -34 -6 -4 -44 -17 -86 -30 l-76 -24 -27 28 -28 29 29 30 c16 17 29 30 29
30 1 0 39 -13 85 -29z m-125 -175 c-13 -39 -27 -78 -31 -86 -3 -9 -17 19 -33
70 l-27 85 25 33 25 33 33 -32 32 -31 -24 -72z"/>
<path d="M2824 8091 l-38 -109 -103 -38 c-57 -21 -103 -40 -103 -44 0 -3 48
-24 106 -46 l107 -39 22 -75 c12 -41 29 -91 37 -110 l15 -35 37 111 c41 124
32 116 163 159 81 27 112 45 78 45 -10 0 -61 16 -111 36 l-93 36 -36 109 c-20
60 -38 109 -40 109 -1 0 -20 -49 -41 -109z m71 -37 l24 -79 -28 -29 -29 -29
-30 29 -30 29 31 83 c16 45 32 81 34 79 2 -3 15 -40 28 -83z m-82 -119 c33
-29 33 -32 3 -69 l-24 -28 -64 21 c-109 36 -111 43 -26 73 40 15 75 27 78 27
3 0 17 -11 33 -24z m287 -36 c0 -4 -37 -18 -82 -32 l-83 -26 -30 30 -30 30 31
28 31 28 81 -26 c45 -14 82 -29 82 -32z m-206 -48 l28 -29 -30 -89 -29 -88
-27 88 -27 87 21 30 c12 17 25 30 29 30 4 0 20 -13 35 -29z"/>
<path d="M3569 8090 l-34 -109 -75 -26 c-41 -15 -79 -31 -84 -36 -6 -5 -20 -9
-33 -9 -13 0 -23 -4 -23 -10 0 -5 5 -10 12 -10 6 0 54 -16 107 -36 l96 -35 24
-80 c13 -44 28 -82 33 -85 12 -8 10 8 -12 78 -25 81 -25 100 3 126 l23 22 29
-30 30 -31 -33 -97 c-18 -53 -32 -103 -32 -109 0 -20 20 -15 20 4 0 20 59 183
72 200 5 7 40 22 76 34 37 12 83 29 101 37 l35 14 -50 18 c-27 10 -76 28 -110
40 l-60 23 -33 103 c-18 57 -36 106 -40 109 -4 2 -23 -45 -42 -105z m71 -34
l27 -85 -28 -27 c-28 -27 -29 -27 -49 -9 -11 10 -22 27 -26 38 -6 19 36 180
45 171 2 -2 16 -42 31 -88z m-77 -121 c34 -30 34 -35 -1 -68 l-28 -27 -77 28
c-42 15 -77 30 -77 33 0 5 135 57 150 58 3 0 17 -11 33 -24z m210 -5 c40 -13
65 -26 60 -31 -5 -5 -41 -20 -80 -33 l-71 -24 -28 29 -28 29 29 30 c16 17 34
29 40 27 5 -2 41 -14 78 -27z"/>
<path d="M4340 8189 c0 -7 -14 -56 -30 -109 l-30 -98 -98 -36 c-54 -20 -104
-36 -110 -36 -23 0 -11 -18 16 -23 15 -3 64 -20 109 -37 l82 -31 33 -102 c18
-56 35 -106 39 -110 3 -5 21 38 40 95 18 57 38 108 44 114 5 6 54 26 108 45
53 18 97 36 97 39 0 4 -47 24 -105 45 l-104 38 -36 108 c-20 60 -41 109 -46
109 -5 0 -9 -5 -9 -11z m44 -240 c-15 -16 -30 -29 -33 -28 -3 0 -16 13 -29 29
l-23 29 27 86 27 86 29 -86 30 -87 -28 -29z m-72 -16 l28 -27 -31 -32 -32 -33
-71 26 c-39 14 -74 28 -79 32 -5 5 121 55 152 60 3 1 18 -11 33 -26z m216 -4
c82 -26 81 -27 -31 -65 l-72 -25 -27 33 -28 33 31 28 c17 16 36 26 42 24 7 -2
45 -15 85 -28z m-144 -74 l26 -34 -27 -81 c-15 -44 -30 -77 -34 -73 -4 5 -14
35 -23 68 -10 33 -19 67 -22 76 -4 13 39 79 51 79 1 0 15 -16 29 -35z"/>
<path d="M5060 8094 c-19 -58 -39 -109 -45 -114 -5 -4 -41 -17 -80 -30 -38
-12 -74 -26 -79 -31 -6 -5 -21 -9 -35 -9 -40 0 -14 -14 99 -54 l105 -37 35
-109 c19 -61 37 -110 40 -110 3 0 18 43 34 95 16 53 35 104 43 114 7 11 54 33
110 51 105 35 132 50 93 51 -14 0 -65 17 -114 37 l-90 37 -35 107 c-20 59 -38
107 -41 108 -3 0 -21 -48 -40 -106z m72 -42 l27 -77 -30 -30 -29 -30 -30 31
-31 30 28 77 c15 42 30 77 33 77 3 0 17 -35 32 -78z m-77 -122 l29 -30 -30
-31 -30 -30 -69 26 c-39 15 -74 30 -78 35 -7 6 111 55 144 59 3 1 18 -13 34
-29z m205 1 c95 -32 97 -28 -25 -70 l-60 -21 -30 30 -29 30 29 30 c16 16 29
30 29 30 1 0 39 -13 86 -29z m-127 -79 l26 -27 -25 -70 c-13 -39 -27 -77 -31
-85 -3 -9 -17 20 -34 70 l-27 85 26 28 c14 15 29 27 32 27 3 0 18 -12 33 -28z"/>
<path d="M5806 8093 c-22 -60 -40 -109 -41 -111 -1 -1 -35 -14 -76 -28 -41
-15 -78 -30 -83 -35 -6 -5 -18 -9 -28 -9 -41 0 -12 -18 88 -55 l106 -40 33
-103 c18 -57 36 -106 38 -109 3 -2 21 45 42 106 23 69 42 112 53 116 9 4 55
20 102 37 83 29 118 48 90 48 -7 0 -57 16 -111 36 l-98 36 -36 109 c-20 60
-38 109 -39 109 -1 0 -19 -48 -40 -107z m69 -33 c25 -76 26 -82 10 -106 -24
-37 -41 -39 -73 -7 l-30 28 31 83 c16 45 31 82 33 82 1 0 14 -36 29 -80z m-79
-128 l32 -27 -28 -34 -28 -33 -65 21 c-108 36 -110 43 -25 73 40 15 75 27 78
27 3 0 19 -12 36 -27z m212 -2 c39 -13 72 -27 72 -30 0 -3 -37 -18 -82 -33
l-83 -27 -22 28 c-13 15 -23 30 -23 33 0 14 43 60 54 57 6 -2 44 -14 84 -28z
m-134 -79 l28 -29 -29 -88 -29 -87 -28 92 -28 92 23 25 c12 13 25 24 29 24 3
0 19 -13 34 -29z"/>
<path d="M6550 8090 l-35 -109 -55 -20 c-30 -11 -80 -28 -109 -39 l-55 -20 35
-14 c18 -8 68 -27 109 -42 l75 -27 24 -80 c13 -44 29 -83 34 -86 6 -4 8 3 4
18 -4 13 -14 54 -24 92 l-17 67 25 25 25 25 29 -30 30 -31 -33 -97 c-33 -99
-38 -122 -24 -122 4 0 20 43 36 95 16 53 35 104 43 114 7 11 54 33 108 51 85
28 126 50 95 50 -6 0 -55 16 -108 36 l-97 36 -35 109 c-19 60 -37 109 -40 109
-3 0 -21 -49 -40 -110z m68 -23 c28 -91 28 -98 -4 -128 l-26 -24 -24 30 c-13
17 -24 35 -24 40 0 16 44 155 50 155 3 0 15 -33 28 -73z m-72 -133 c30 -32 30
-35 -4 -67 l-28 -27 -77 27 c-42 15 -77 30 -77 34 0 5 136 57 154 58 5 1 19
-10 32 -25z m207 -4 c38 -12 65 -26 60 -31 -4 -4 -40 -19 -80 -32 l-72 -25
-27 29 -28 29 29 30 c16 17 34 29 40 27 5 -2 41 -14 78 -27z"/>
<path d="M590 7383 c-18 -54 -40 -105 -50 -114 -10 -9 -59 -29 -109 -45 -50
-16 -91 -31 -91 -34 0 -5 64 -31 165 -68 49 -17 49 -18 71 -89 25 -83 46 -133
55 -133 4 0 9 10 12 23 14 56 65 179 78 187 8 5 56 24 107 42 87 31 114 48 75
48 -10 0 -58 15 -108 34 l-90 34 -34 106 c-20 58 -38 106 -42 106 -4 0 -22
-44 -39 -97z m69 -32 c27 -82 26 -92 -4 -121 l-26 -24 -29 30 -30 29 27 82
c15 46 30 79 34 75 3 -4 16 -36 28 -71z m-68 -137 l27 -26 -34 -30 -34 -30
-62 21 c-67 23 -95 37 -88 44 7 7 132 45 149 46 8 1 27 -11 42 -25z m194 4
c41 -12 75 -25 75 -28 0 -6 -146 -60 -161 -60 -3 0 -16 14 -28 31 l-23 31 23
24 c27 29 22 29 114 2z m-124 -80 l27 -33 -25 -70 c-13 -38 -27 -77 -30 -85
-3 -8 -18 25 -34 75 l-28 90 26 27 c15 16 29 28 32 28 2 0 17 -15 32 -32z"/>
<path d="M1330 7373 l-36 -107 -101 -35 c-56 -20 -104 -39 -107 -42 -4 -3 42
-22 102 -43 l108 -37 34 -104 c19 -58 38 -105 42 -105 6 0 11 13 58 142 11 31
26 61 33 66 7 5 54 25 105 43 83 30 114 49 80 49 -7 0 -53 15 -103 34 l-90 34
-39 106 c-22 58 -42 106 -45 106 -3 -1 -22 -49 -41 -107z m70 -137 l-29 -30
-26 24 c-31 29 -31 35 2 128 l27 75 28 -84 28 -83 -30 -30z m-69 -22 l27 -26
-33 -29 -33 -29 -76 27 c-42 15 -76 30 -76 33 0 6 123 47 149 49 8 0 27 -11
42 -25z m195 6 c32 -11 66 -23 74 -26 9 -3 -19 -18 -69 -36 l-83 -31 -32 32
-31 32 28 25 c34 29 38 29 113 4z m-121 -189 c-14 -44 -30 -81 -34 -81 -4 0
-18 37 -30 82 l-22 81 28 29 27 28 29 -29 29 -29 -27 -81z"/>
<path d="M2110 7468 c0 -6 -17 -55 -37 -108 l-37 -98 -108 -33 c-59 -19 -108
-36 -108 -39 0 -3 48 -21 106 -40 118 -39 108 -28 160 -172 16 -43 31 -78 35
-78 3 0 21 44 39 98 18 53 38 102 44 108 6 6 54 26 106 44 102 35 129 50 90
50 -14 0 -65 15 -115 34 l-89 34 -36 106 c-31 94 -50 129 -50 94z m39 -120
c13 -40 26 -78 28 -84 2 -7 -10 -22 -27 -34 l-32 -23 -31 31 -30 30 29 76 c16
42 31 76 35 76 3 0 16 -33 28 -72z m-74 -132 l30 -25 -30 -30 -30 -31 -83 27
c-45 15 -82 30 -82 33 0 6 127 47 150 49 8 0 29 -10 45 -23z m206 2 c38 -13
69 -26 69 -29 0 -3 -35 -17 -77 -32 l-76 -27 -29 27 -28 27 27 28 c15 15 31
28 36 28 6 0 41 -10 78 -22z m-128 -76 l27 -28 -24 -72 c-14 -40 -28 -77 -32
-84 -4 -7 -19 23 -36 72 l-28 84 27 28 c15 15 30 28 33 28 3 0 18 -13 33 -28z"/>
<path d="M2823 7374 l-40 -107 -92 -32 c-51 -18 -97 -37 -103 -43 -7 -7 16
-20 74 -41 45 -18 93 -36 104 -41 16 -6 30 -31 48 -87 15 -43 33 -89 40 -102
13 -23 14 -21 44 55 17 44 33 91 37 106 6 23 20 31 116 64 102 36 133 54 92
54 -10 0 -60 15 -110 32 l-93 33 -31 100 c-17 55 -34 104 -38 108 -5 5 -26
-40 -48 -99z m73 -29 l27 -86 -28 -29 -29 -30 -28 27 c-15 15 -28 34 -28 42 0
14 52 161 57 161 1 0 14 -38 29 -85z m-74 -132 l28 -27 -27 -28 c-15 -15 -31
-28 -36 -28 -18 0 -157 53 -157 59 0 7 122 48 149 50 8 0 28 -11 43 -26z m195
5 c38 -11 72 -24 76 -28 4 -4 -29 -19 -74 -34 l-82 -27 -28 27 -29 28 27 28
c15 15 30 28 35 28 4 0 38 -10 75 -22z m-97 -114 c0 -23 -52 -154 -59 -150 -4
3 -18 39 -31 80 l-24 76 29 30 29 30 28 -27 c15 -15 28 -32 28 -39z"/>
<path d="M3566 7371 l-38 -109 -71 -23 c-40 -12 -88 -29 -107 -37 l-35 -15 25
-10 c14 -5 63 -24 109 -41 l84 -31 35 -102 c19 -57 38 -103 41 -103 3 0 23 47
44 105 l39 104 51 19 c29 11 76 27 105 37 52 19 68 35 33 35 -20 0 -169 57
-188 72 -7 6 -27 54 -45 109 -18 54 -35 99 -39 99 -3 0 -23 -49 -43 -109z m73
-20 c27 -82 26 -92 -4 -121 l-26 -24 -29 30 -30 29 27 82 c15 46 30 79 34 75
3 -4 16 -36 28 -71z m141 -137 c36 -13 67 -24 70 -24 3 -1 -33 -14 -80 -31
l-84 -29 -30 30 -30 30 29 30 c19 20 35 28 45 24 8 -4 44 -18 80 -30z m-209 0
l27 -26 -34 -30 -34 -31 -75 28 c-41 15 -75 30 -75 34 0 7 116 47 144 50 11 0
32 -11 47 -25z m72 -72 l27 -28 -25 -75 c-14 -41 -28 -81 -31 -89 -7 -16 -53
119 -54 154 0 19 36 66 50 66 3 0 18 -13 33 -28z"/>
<path d="M4346 7470 c-3 -8 -20 -58 -39 -110 l-33 -95 -107 -35 c-58 -19 -106
-38 -107 -41 0 -3 49 -23 109 -43 l108 -37 34 -105 c19 -57 37 -104 41 -104 4
0 16 25 27 55 12 30 30 79 41 109 17 43 26 55 48 60 48 11 172 60 172 68 0 5
-6 8 -12 8 -16 0 -185 64 -194 73 -3 3 -19 45 -35 93 -37 107 -45 125 -53 104z
m38 -123 l26 -78 -22 -29 c-29 -36 -38 -37 -68 -5 l-24 26 28 85 c15 47 29 84
30 82 2 -2 15 -38 30 -81z m206 -157 c0 -3 -37 -18 -82 -33 l-82 -27 -23 22
c-30 28 -29 52 1 76 24 18 25 18 105 -7 44 -14 81 -28 81 -31z m-277 25 l28
-25 -32 -28 c-18 -15 -35 -27 -38 -27 -15 0 -151 49 -151 55 0 7 125 47 150
49 8 0 28 -11 43 -24z m72 -184 c-16 -45 -32 -78 -37 -73 -4 4 -17 41 -29 82
l-20 73 28 29 27 28 30 -29 29 -29 -28 -81z"/>
<path d="M5090 7469 c0 -6 -16 -54 -36 -108 l-36 -97 -96 -32 c-54 -18 -103
-32 -109 -32 -37 1 -1 -19 97 -54 l109 -38 19 -52 c11 -28 27 -75 37 -103 11
-29 22 -53 25 -53 4 0 22 44 40 98 18 53 36 102 41 107 4 6 55 26 113 45 103
34 129 50 84 50 -13 0 -63 15 -113 34 l-89 34 -36 106 c-31 93 -50 129 -50 95z
m39 -121 c13 -40 26 -78 28 -84 2 -7 -10 -22 -27 -34 l-32 -23 -30 30 -30 30
28 77 c16 42 31 76 35 76 3 0 16 -33 28 -72z m-72 -132 l28 -25 -31 -32 -32
-31 -53 20 c-128 48 -124 41 -39 67 95 30 93 30 127 1z m199 3 c38 -12 73 -24
78 -27 6 -3 -28 -18 -74 -34 l-84 -28 -31 30 -30 31 28 25 c34 29 29 29 113 3z
m-122 -79 l25 -30 -24 -70 c-13 -38 -27 -75 -31 -82 -4 -7 -19 23 -36 72 l-28
84 27 28 c15 15 30 28 34 28 4 0 19 -14 33 -30z"/>
<path d="M5812 7398 c-18 -46 -36 -94 -41 -108 -7 -20 -23 -30 -82 -49 -41
-13 -87 -30 -103 -38 l-30 -16 35 -17 c18 -10 67 -28 107 -41 70 -22 73 -24
83 -64 19 -69 61 -167 69 -158 4 4 22 50 40 100 18 51 38 97 44 101 6 5 55 24
109 43 86 30 121 50 85 49 -7 0 -56 14 -109 32 l-96 32 -33 100 c-18 56 -36
105 -40 109 -4 4 -21 -29 -38 -75z m63 -54 l28 -85 -29 -30 -28 -29 -28 27
c-15 15 -28 33 -28 42 0 12 52 161 56 161 0 0 14 -38 29 -86z m-71 -130 l29
-26 -31 -31 -31 -31 -85 29 c-47 16 -83 31 -80 34 9 10 128 49 149 50 11 0 33
-11 49 -25z m201 4 c41 -12 75 -25 75 -28 0 -4 -36 -19 -81 -35 l-80 -28 -30
29 -29 28 27 28 c15 15 30 28 35 28 5 0 42 -10 83 -22z m-105 -114 c0 -23 -52
-154 -60 -149 -4 2 -17 39 -29 80 l-23 77 28 29 28 29 28 -27 c15 -15 28 -32
28 -39z"/>
<path d="M6547 7372 l-38 -107 -100 -35 c-55 -19 -103 -38 -105 -41 -2 -4 31
-19 74 -35 147 -52 133 -40 171 -153 19 -55 37 -101 40 -101 4 0 22 44 40 98
19 53 40 102 48 109 8 6 57 26 109 44 52 18 94 36 94 39 0 4 -12 10 -27 13
-16 3 -64 19 -107 35 l-80 29 -34 107 c-20 58 -38 106 -41 106 -4 0 -24 -48
-44 -108z m71 -16 c28 -93 28 -94 -4 -127 l-26 -27 -29 32 -28 33 27 81 c15
45 29 82 32 82 3 0 15 -34 28 -74z m202 -166 c0 -7 -160 -65 -163 -59 -1 2
-13 16 -26 32 l-25 27 28 29 28 29 79 -26 c43 -15 79 -29 79 -32z m-270 25
l24 -26 -31 -31 -32 -31 -75 27 c-42 16 -76 31 -76 35 0 8 118 49 146 50 11 1
31 -10 44 -24z m72 -75 l27 -30 -26 -78 c-14 -42 -29 -80 -32 -84 -4 -4 -18
31 -33 78 l-26 85 25 30 c14 16 28 29 32 29 3 0 18 -14 33 -30z"/>
<path d="M592 6678 c-16 -46 -32 -93 -36 -105 -6 -20 -75 -51 -193 -87 -28 -9
-31 -30 -3 -23 10 3 20 1 22 -4 2 -5 41 -21 87 -37 l83 -28 36 -107 c19 -59
39 -107 44 -107 4 0 8 5 8 12 0 20 62 182 74 196 15 15 163 72 189 72 39 0 11
17 -91 56 l-107 41 -33 101 c-18 56 -37 102 -42 102 -4 0 -21 -37 -38 -82z
m69 -43 l26 -84 -31 -30 -32 -31 -28 29 -28 29 28 86 c16 47 31 86 34 86 3 0
17 -38 31 -85z m-76 -135 l29 -30 -28 -29 -28 -29 -71 24 c-40 13 -79 27 -87
30 -9 4 17 17 65 34 44 16 83 29 86 29 3 1 18 -12 34 -29z m201 4 c77 -28 100
-44 66 -44 -11 0 -50 -11 -86 -24 l-65 -23 -30 31 -31 32 27 27 c15 15 33 27
39 27 6 0 43 -12 80 -26z m-123 -182 c-14 -43 -29 -81 -33 -85 -7 -7 -50 124
-50 151 0 8 10 27 21 44 l21 30 33 -32 33 -32 -25 -76z"/>
<path d="M1365 6750 c-4 -7 -22 -53 -40 -103 -18 -51 -39 -95 -46 -98 -8 -4
-56 -22 -106 -39 -51 -18 -93 -35 -93 -39 0 -3 49 -21 108 -40 l108 -33 32
-97 c18 -53 32 -102 32 -108 0 -35 21 -4 46 65 53 149 41 135 142 170 50 18
96 32 102 32 45 0 -80 62 -172 85 -24 6 -31 19 -59 103 -34 104 -43 120 -54
102z m38 -232 l-30 -30 -27 23 c-32 28 -32 35 0 133 l27 79 30 -88 30 -87 -30
-30z m-73 -16 l31 -27 -30 -29 -29 -28 -79 23 c-43 12 -81 25 -85 28 -6 6 130
59 154 60 4 1 22 -11 38 -27z m209 2 c39 -15 71 -29 71 -33 0 -3 -36 -17 -81
-30 l-80 -24 -30 29 -29 29 25 28 c32 33 37 33 124 1z m-114 -104 c6 -20 -49
-178 -57 -164 -3 5 -16 44 -28 87 l-23 78 28 29 29 30 23 -22 c12 -11 25 -29
28 -38z"/>
<path d="M2075 6655 l-39 -104 -108 -38 c-59 -20 -108 -41 -108 -46 0 -5 11
-7 25 -5 13 3 26 1 27 -4 2 -4 41 -20 87 -36 l84 -27 29 -85 c16 -47 31 -95
35 -107 8 -35 16 -28 37 35 10 31 27 80 38 109 l19 52 92 30 c51 17 100 31
110 31 9 0 17 5 17 10 0 6 -6 10 -12 10 -7 0 -57 17 -112 38 l-98 37 -30 80
c-16 44 -32 90 -35 103 -3 12 -8 22 -12 22 -4 0 -24 -47 -46 -105z m76 -30
l27 -73 -32 -31 -32 -31 -28 29 -28 29 28 80 c16 45 31 78 33 76 3 -3 17 -38
32 -79z m-78 -123 l27 -28 -28 -27 -29 -27 -81 22 c-45 13 -82 25 -82 28 0 6
138 58 156 59 5 1 22 -12 37 -27z m210 1 c42 -15 77 -30 77 -33 0 -3 -37 -15
-82 -28 -75 -21 -83 -21 -105 -7 -13 9 -27 23 -30 31 -6 16 33 64 51 64 6 0
46 -12 89 -27z m-132 -187 c-17 -43 -32 -80 -34 -82 -2 -2 -16 35 -31 83 l-26
86 27 29 27 28 33 -32 33 -33 -29 -79z"/>
<path d="M2849 6733 c-6 -15 -21 -59 -35 -97 -29 -83 -36 -93 -77 -102 -47
-10 -157 -55 -157 -64 0 -5 47 -23 104 -42 l105 -33 31 -100 c18 -55 35 -104
40 -108 4 -5 20 27 35 70 54 150 42 136 143 171 50 18 98 32 107 32 8 0 15 5
15 10 0 6 -5 10 -11 10 -6 0 -55 17 -110 37 l-99 36 -31 99 c-17 54 -35 101
-40 104 -5 3 -14 -7 -20 -23z m46 -100 l27 -86 -30 -29 -29 -30 -31 29 -31 28
32 87 c18 48 33 88 33 88 1 0 14 -39 29 -87z m-78 -132 l33 -27 -29 -28 -30
-29 -87 25 c-55 16 -82 28 -74 33 13 8 140 54 150 54 3 0 20 -12 37 -28z m205
2 c43 -16 78 -30 78 -33 0 -3 -35 -16 -79 -29 -82 -24 -101 -22 -131 14 -11
13 -9 20 15 45 16 17 31 30 34 30 3 0 40 -12 83 -27z m-125 -188 c-16 -47 -30
-85 -32 -85 -9 0 -55 163 -49 173 4 7 16 22 28 35 l20 23 30 -31 30 -30 -27
-85z"/>
<path d="M3568 6658 l-34 -103 -107 -39 c-59 -22 -107 -43 -107 -49 0 -5 9 -7
20 -4 10 3 20 1 22 -4 2 -5 41 -21 87 -37 l83 -28 25 -79 c14 -44 29 -84 34
-89 5 -6 9 -18 9 -28 0 -40 17 -13 45 74 17 50 37 100 45 110 15 19 161 78
193 78 41 0 10 19 -90 56 l-107 39 -34 103 c-18 56 -37 102 -42 102 -5 0 -24
-46 -42 -102z m73 -23 l26 -84 -32 -31 -32 -31 -26 30 -25 30 27 85 c14 47 28
86 31 86 3 0 17 -38 31 -85z m-72 -136 l23 -30 -23 -25 c-28 -29 -41 -30 -116
-3 -32 12 -65 23 -73 26 -15 5 122 61 150 62 8 0 26 -14 39 -30z m200 5 c39
-15 71 -29 71 -33 0 -3 -36 -17 -80 -32 l-80 -25 -30 31 -30 31 27 27 c15 15
33 27 40 27 6 0 44 -12 82 -26z m-126 -182 c-14 -43 -29 -81 -33 -85 -7 -7
-50 124 -50 151 0 8 10 27 21 44 l21 30 33 -32 33 -32 -25 -76z"/>
<path d="M4340 6748 c0 -7 -13 -47 -29 -88 l-28 -75 -74 -5 -74 -5 -3 -41 c-3
-39 -5 -42 -38 -48 -45 -9 -45 -29 1 -24 l35 4 0 -348 0 -348 -30 0 c-16 0
-30 -4 -30 -10 0 -5 14 -10 30 -10 l30 0 0 -340 c0 -265 -3 -340 -12 -340 -9
0 -8 -4 2 -11 11 -7 5 -8 -22 -3 -57 10 -47 -12 15 -31 28 -9 77 -26 108 -37
l55 -19 35 -105 c18 -57 37 -104 41 -104 3 0 20 37 37 83 47 127 49 129 121
155 57 20 84 23 217 24 141 0 157 -2 222 -27 77 -29 68 -15 126 -182 11 -29
22 -53 26 -53 4 0 17 30 30 68 48 144 49 146 126 170 59 19 91 22 223 21 144
0 159 -2 219 -27 59 -25 66 -31 82 -72 9 -25 27 -71 39 -103 13 -32 26 -55 31
-50 4 4 22 50 39 100 18 51 37 96 44 101 6 5 55 24 109 41 53 18 97 36 97 40
0 4 -22 13 -50 20 -27 7 -50 15 -50 17 0 6 89 86 240 216 141 122 231 210 317
313 l42 50 -21 -70 c-22 -78 -38 -104 -38 -62 0 15 -5 27 -11 27 -7 0 -9 -9
-5 -22 4 -13 9 -35 12 -50 4 -16 10 -28 14 -28 4 0 22 48 40 108 18 59 38 110
44 114 6 4 53 22 103 39 84 28 124 49 92 49 -7 0 -48 14 -93 31 l-81 31 -48
96 c-26 54 -47 105 -47 115 0 9 -4 17 -10 17 -5 0 -10 -8 -10 -17 0 -12 -29
11 -82 63 -107 104 -302 282 -351 318 -34 26 -36 30 -20 41 16 12 13 14 -23
24 -22 6 -64 29 -94 51 -29 22 -64 40 -77 40 -13 0 -25 6 -28 13 -2 6 -14 47
-26 90 -12 42 -25 77 -29 77 -9 0 -43 -77 -61 -137 l-12 -43 -306 0 -306 0
-17 53 c-30 94 -43 127 -49 127 -3 0 -19 -39 -36 -87 l-30 -88 -304 -3 -304
-2 -31 87 c-27 78 -54 118 -54 81z m60 -159 c0 -5 -20 -9 -45 -9 -25 0 -45 4
-45 8 0 4 10 37 21 72 l22 63 23 -63 c13 -34 24 -66 24 -71z m1479 31 l9 -40
-44 0 c-24 0 -44 3 -44 8 0 4 10 35 22 70 l23 63 12 -30 c7 -17 17 -48 22 -71z
m-755 33 c24 -69 22 -73 -28 -73 l-45 0 21 60 c11 33 23 60 28 60 4 0 15 -21
24 -47z m876 -125 c20 -18 75 -64 121 -103 109 -91 414 -378 457 -429 35 -41
102 -166 102 -188 0 -29 -52 -122 -103 -185 -83 -103 -403 -404 -594 -558 -24
-20 -41 -20 -886 -22 -474 -2 -881 0 -904 3 l-43 5 0 755 0 754 906 0 907 0
37 -32z m823 -769 c-5 -3 -35 -15 -68 -27 -33 -11 -67 -23 -77 -27 -14 -6 -14
-1 4 47 l19 54 65 -20 c35 -11 61 -23 57 -27z m-750 -699 c36 0 5 -19 -75 -44
-51 -17 -85 -23 -91 -17 -15 15 2 31 32 31 16 0 39 9 52 20 14 11 33 18 44 15
11 -3 28 -5 38 -5z m-1773 -50 c0 -19 -25 -21 -61 -6 l-34 15 48 1 c26 0 47
-5 47 -10z m91 -12 c10 -13 18 -27 19 -31 1 -22 -54 -157 -61 -150 -4 4 -17
41 -29 82 l-21 73 22 24 c28 30 46 30 70 2z m71 6 c-33 -14 -52 -12 -52 7 0 5
19 9 43 8 l42 -1 -33 -14z m582 1 c-7 -18 -20 -18 -59 0 l-30 13 47 1 c38 1
46 -2 42 -14z m92 -12 l21 -27 -23 -68 c-12 -37 -26 -73 -30 -80 -5 -7 -19 21
-34 68 -27 79 -27 79 -8 107 24 34 46 34 74 0z m74 12 c-32 -19 -47 -19 -54 0
-4 12 3 15 37 15 41 -1 42 -1 17 -15z m580 0 c-15 -18 -26 -18 -65 0 -30 13
-30 13 24 14 46 1 52 -1 41 -14z m94 -12 c18 -25 18 -27 1 -82 -31 -100 -35
-107 -46 -91 -5 8 -19 46 -30 83 l-21 68 23 25 c29 31 49 30 73 -3z"/>
<path d="M6545 6656 l-37 -105 -81 -29 c-45 -16 -92 -33 -104 -36 -13 -4 -23
-11 -23 -15 0 -3 48 -22 107 -42 l107 -35 34 -107 c19 -59 38 -107 41 -107 3
0 23 49 45 110 l38 110 104 32 c57 18 104 36 104 39 0 4 -35 19 -77 35 -149
52 -134 39 -171 152 -18 56 -37 102 -41 102 -5 0 -25 -47 -46 -104z m78 -28
l25 -76 -32 -31 -32 -31 -28 29 -28 29 29 85 c15 47 31 82 34 79 4 -4 18 -41
32 -84z m-80 -123 c33 -30 33 -32 1 -66 l-26 -28 -72 26 c-39 14 -78 27 -86
30 -13 4 116 59 145 61 6 1 22 -10 38 -23z m210 -2 c73 -25 97 -43 60 -43 -10
0 -48 -11 -85 -23 l-68 -23 -30 31 -30 31 27 27 c15 15 32 27 38 27 5 0 45
-12 88 -27z m-114 -135 c-13 -46 -41 -122 -49 -131 -6 -7 -50 127 -50 153 0 6
10 24 22 40 l22 30 32 -31 c28 -27 31 -35 23 -61z"/>
<path d="M589 5950 l-34 -109 -75 -26 c-41 -15 -79 -31 -84 -36 -6 -5 -20 -9
-33 -9 -46 0 -21 -16 85 -53 l107 -38 35 -109 c19 -61 37 -110 40 -110 3 0 18
43 34 95 16 53 35 104 43 115 8 11 54 32 113 52 55 18 100 36 100 40 0 4 -5 8
-11 8 -6 0 -54 16 -108 36 l-97 36 -33 104 c-18 57 -36 106 -40 109 -4 2 -23
-45 -42 -105z m74 -42 l25 -76 -29 -28 -29 -28 -25 24 c-14 13 -25 33 -25 44
0 30 43 157 51 149 3 -5 18 -42 32 -85z m-80 -113 c34 -30 34 -35 -1 -68 l-29
-27 -76 27 c-42 15 -77 30 -77 33 0 5 134 58 150 59 3 0 17 -11 33 -24z m210
-4 c37 -13 65 -26 62 -30 -5 -9 -156 -65 -158 -59 -1 2 -13 15 -26 31 l-25 27
29 30 c16 17 34 29 40 27 5 -2 40 -14 78 -26z m-132 -183 c-12 -40 -25 -80
-28 -88 -6 -16 -52 121 -53 154 0 11 10 30 22 43 l22 24 30 -30 30 -30 -23
-73z"/>
<path d="M1331 5950 l-34 -110 -46 -16 c-25 -8 -69 -24 -96 -35 -28 -10 -57
-19 -65 -19 -28 0 6 -18 95 -49 50 -18 96 -35 102 -39 6 -4 25 -52 43 -107 19
-55 36 -103 40 -108 4 -4 22 38 40 94 19 56 40 107 47 114 6 7 55 27 107 45
53 18 96 36 96 39 0 4 -47 24 -106 46 l-105 40 -36 108 c-20 59 -39 107 -42
107 -3 0 -21 -50 -40 -110z m73 -141 c-15 -16 -31 -29 -35 -29 -4 0 -18 14
-30 31 l-22 31 28 84 28 85 29 -87 29 -87 -27 -28z m-71 -17 l27 -28 -33 -32
-32 -31 -70 25 c-39 14 -74 29 -79 34 -6 7 116 54 155 59 3 1 17 -12 32 -27z
m207 0 c92 -31 94 -27 -25 -68 l-70 -25 -27 33 -27 33 26 28 c15 15 29 27 33
27 3 0 44 -13 90 -28z m-137 -80 l27 -28 -28 -84 c-16 -46 -31 -80 -34 -74
-15 25 -48 156 -42 167 11 20 37 47 44 47 3 0 18 -13 33 -28z"/>
<path d="M2091 5987 c-48 -148 -49 -149 -132 -176 -41 -14 -78 -28 -83 -33 -6
-4 -20 -8 -33 -8 -47 0 -20 -16 82 -49 57 -18 108 -38 113 -45 5 -6 24 -57 43
-113 19 -57 36 -103 39 -103 3 0 18 43 34 95 16 53 35 104 43 114 7 11 54 33
110 51 105 35 132 49 93 51 -14 0 -65 17 -115 37 l-90 37 -35 107 c-19 59 -37
108 -40 108 -3 0 -16 -33 -29 -73z m61 -75 l27 -77 -29 -30 -30 -30 -30 30
-30 31 27 81 c16 45 30 79 33 76 2 -2 17 -39 32 -81z m-77 -122 l29 -30 -29
-30 -30 -29 -70 25 c-38 14 -73 29 -78 33 -6 6 117 57 144 60 3 1 18 -13 34
-29z m213 -1 c39 -12 72 -26 72 -29 0 -3 -38 -17 -85 -31 l-84 -26 -27 29 -28
28 29 30 c16 17 34 29 40 27 5 -3 43 -15 83 -28z m-134 -173 c-13 -39 -27 -78
-30 -86 -4 -9 -18 19 -35 69 l-29 84 26 35 26 34 33 -32 33 -32 -24 -72z"/>
<path d="M2826 5952 l-37 -110 -77 -28 c-42 -15 -81 -31 -86 -36 -6 -4 -18 -8
-28 -8 -41 0 -12 -18 86 -54 l104 -38 27 -87 c47 -150 46 -149 88 -25 20 59
43 111 49 116 7 4 53 21 103 38 93 33 124 50 90 50 -10 0 -61 16 -111 36 l-93
36 -27 81 c-52 157 -46 155 -88 29z m66 -144 l-30 -30 -29 26 -29 26 30 90 31
90 29 -86 28 -86 -30 -30z m-78 -17 l28 -29 -23 -31 c-12 -17 -25 -31 -28 -31
-10 0 -146 53 -154 59 -6 6 118 57 144 60 3 1 18 -12 33 -28z m286 -31 c0 -3
-37 -18 -82 -33 l-83 -27 -28 28 -28 29 29 31 29 31 82 -27 c44 -14 81 -29 81
-32z m-206 -49 l28 -29 -30 -89 -29 -88 -27 87 c-27 87 -27 97 2 131 20 23 24
22 56 -12z"/>
<path d="M3569 5950 l-34 -109 -96 -36 c-52 -19 -101 -35 -107 -35 -7 0 -12
-4 -12 -10 0 -5 5 -10 12 -10 6 0 54 -16 107 -36 l96 -35 24 -80 c13 -44 28
-82 33 -85 12 -8 10 4 -12 76 -26 84 -25 102 3 128 l23 22 29 -30 30 -31 -33
-97 c-18 -53 -32 -104 -32 -111 0 -30 18 6 50 102 18 53 38 102 45 107 6 5 51
23 101 41 86 30 123 49 94 49 -7 0 -56 16 -109 36 l-97 36 -33 104 c-18 57
-36 106 -40 109 -4 2 -23 -45 -42 -105z m71 -34 l27 -85 -28 -27 c-28 -27 -29
-27 -49 -9 -11 10 -22 27 -26 38 -6 19 36 180 45 171 2 -2 16 -42 31 -88z
m-77 -121 c34 -30 34 -35 -1 -68 l-29 -27 -76 27 c-42 15 -77 29 -77 33 0 4
130 55 150 59 3 0 17 -11 33 -24z m215 -8 c34 -12 62 -24 62 -27 0 -6 -162
-63 -164 -58 0 2 -12 15 -25 31 l-25 27 29 30 c18 19 35 28 45 25 8 -4 43 -16
78 -28z"/>
<path d="M586 5232 l-36 -108 -105 -34 c-58 -19 -105 -38 -105 -41 0 -4 35
-19 78 -35 137 -49 139 -49 145 -82 8 -39 60 -172 67 -172 3 0 22 46 41 103
l36 102 107 40 c100 38 128 55 89 55 -10 0 -58 16 -108 34 l-90 35 -35 105
c-19 58 -37 106 -41 106 -4 0 -24 -49 -43 -108z m73 -21 c27 -82 26 -89 -5
-122 l-26 -27 -29 32 -28 33 26 81 c15 45 30 78 34 74 3 -4 16 -36 28 -71z
m201 -158 c9 -3 -21 -18 -70 -34 l-84 -29 -30 30 -30 30 27 28 27 28 73 -23
c39 -13 79 -27 87 -30z m-273 23 l28 -24 -30 -32 c-22 -23 -35 -30 -53 -25
-45 11 -132 47 -132 54 0 8 115 49 142 50 9 1 30 -10 45 -23z m75 -74 l25 -29
-26 -81 c-14 -45 -29 -82 -33 -82 -4 0 -18 37 -32 82 l-25 83 26 27 c15 16 30
28 33 28 4 0 18 -13 32 -28z"/>
<path d="M1329 5234 l-35 -107 -99 -34 c-55 -19 -104 -38 -108 -43 -5 -4 40
-24 100 -44 l109 -36 34 -105 c19 -58 38 -105 42 -105 3 0 20 37 37 83 48 128
45 125 154 165 87 32 119 52 85 52 -14 0 -176 61 -194 73 -7 4 -15 19 -18 34
-12 48 -58 173 -65 173 -4 0 -22 -48 -42 -106z m72 -140 l-29 -32 -28 29 -28
29 23 73 c12 39 25 79 28 87 3 8 18 -22 34 -69 l29 -84 -29 -33z m-70 -20 l27
-26 -32 -29 -33 -29 -77 26 c-42 14 -76 29 -76 33 0 7 121 48 149 50 8 0 27
-11 42 -25z m205 4 c41 -13 74 -25 74 -28 0 -3 -37 -18 -81 -34 l-81 -28 -31
31 -31 30 24 26 c29 31 34 31 126 3z m-131 -187 c-14 -44 -30 -81 -34 -81 -4
0 -18 37 -30 81 l-22 81 27 29 28 29 29 -29 29 -29 -27 -81z"/>
<path d="M2077 5232 l-39 -107 -105 -35 c-57 -19 -106 -37 -108 -41 -3 -3 42
-21 98 -40 56 -18 107 -40 114 -47 6 -7 26 -56 44 -108 18 -52 35 -94 38 -94
3 0 23 47 44 105 l39 104 51 19 c29 11 78 28 110 38 56 17 75 34 38 34 -10 0
-60 15 -112 34 l-93 33 -36 107 c-19 58 -37 106 -40 106 -3 0 -22 -49 -43
-108z m72 -24 c13 -40 26 -78 28 -84 2 -7 -10 -22 -27 -34 l-32 -23 -30 30
-30 31 28 76 c16 42 31 76 34 76 3 0 17 -33 29 -72z m-70 -134 l24 -25 -29
-30 -29 -29 -83 27 c-45 15 -82 30 -82 33 0 7 129 48 155 49 11 0 31 -11 44
-25z m195 5 c39 -12 75 -24 80 -26 4 -3 -29 -19 -75 -34 l-83 -29 -30 29 -29
29 29 26 c16 14 31 26 33 26 2 0 36 -9 75 -21z m-122 -81 l25 -33 -17 -50
c-43 -122 -39 -121 -71 -26 l-29 85 27 28 c15 15 30 28 34 28 4 0 18 -15 31
-32z"/>
<path d="M2823 5233 l-40 -108 -92 -31 c-50 -17 -96 -35 -102 -41 -11 -11 50
-41 143 -68 46 -13 57 -20 63 -43 14 -55 67 -182 74 -177 4 2 23 49 42 104
l34 100 107 38 c100 35 132 53 91 53 -9 0 -58 15 -110 33 l-93 32 -31 100
c-17 55 -34 104 -39 108 -4 5 -25 -40 -47 -100z m72 -29 l28 -85 -29 -30 -28
-29 -28 27 c-15 15 -28 33 -28 42 0 12 52 161 56 161 0 0 14 -38 29 -86z m-72
-132 l27 -28 -29 -28 -30 -29 -80 28 c-45 16 -81 31 -81 35 0 7 124 47 151 49
8 0 27 -12 42 -27z m190 7 c40 -12 75 -25 80 -28 4 -4 -29 -20 -73 -36 l-81
-28 -30 29 -29 28 27 28 c15 15 29 28 31 28 2 0 36 -10 75 -21z m-113 -184
c-13 -42 -27 -78 -31 -81 -4 -2 -19 32 -34 77 l-27 81 28 29 28 29 30 -29 30
-30 -24 -76z"/>
<path d="M3566 5233 l-36 -108 -101 -35 c-55 -19 -103 -38 -105 -41 -2 -4 31
-19 74 -35 127 -45 142 -52 142 -68 0 -21 63 -186 71 -186 3 0 21 44 39 98 18
53 38 102 44 108 6 6 55 26 109 44 90 31 121 50 80 50 -10 0 -58 15 -108 34
l-90 34 -34 106 c-20 58 -38 106 -42 106 -4 0 -23 -48 -43 -107z m77 -35 l25
-76 -29 -28 -29 -28 -29 29 -29 30 26 82 c15 46 29 79 33 75 3 -4 18 -41 32
-84z m-73 -123 l24 -26 -31 -31 -32 -31 -75 27 c-42 16 -76 31 -76 35 0 8 118
49 146 50 11 1 31 -10 44 -24z m190 5 c36 -11 72 -23 80 -26 12 -5 -140 -65
-159 -63 -3 0 -17 14 -30 30 l-23 30 23 25 c27 29 27 29 109 4z m-121 -76 c12
-15 21 -34 21 -44 0 -14 -27 -101 -46 -150 -4 -9 -18 23 -35 75 l-28 90 26 27
c33 34 36 34 62 2z"/>
<path d="M6546 5232 l-37 -108 -70 -23 c-94 -30 -142 -51 -135 -58 3 -3 51
-22 107 -42 l102 -36 35 -102 c19 -57 38 -103 42 -103 4 0 23 46 42 102 l35
103 107 40 c58 21 106 42 106 45 0 3 -47 21 -105 40 l-105 34 -37 108 c-21 59
-41 108 -44 108 -3 0 -23 -49 -43 -108z m68 -6 c32 -92 32 -107 1 -136 l-25
-24 -29 28 -28 27 23 75 c13 41 24 81 24 89 0 28 7 15 34 -59z m-64 -151 l24
-26 -31 -31 -31 -31 -81 29 c-44 15 -78 31 -75 34 9 9 128 48 150 49 11 1 31
-10 44 -24z m194 4 c39 -12 75 -24 80 -27 6 -3 -28 -18 -74 -34 l-84 -28 -30
30 -30 29 24 26 c28 30 26 30 114 4z m-121 -77 l27 -28 -27 -82 c-15 -45 -30
-82 -33 -82 -8 0 -50 131 -50 155 0 18 36 65 50 65 3 0 18 -13 33 -28z"/>
<path d="M7411 7228 c-53 -136 -221 -579 -221 -583 0 -3 19 -5 43 -3 l42 3 28
79 c15 44 31 84 36 90 6 7 53 10 133 8 l124 -3 33 -90 33 -89 48 0 48 0 -93
228 c-50 125 -106 262 -124 305 l-33 77 -44 0 c-37 0 -46 -4 -53 -22z m108
-204 c23 -61 41 -116 41 -122 0 -8 -29 -12 -95 -12 -52 0 -95 3 -95 7 0 4 21
68 47 142 34 96 49 129 54 115 4 -10 25 -69 48 -130z"/>
<path d="M7806 6928 c-5 -17 -26 -129 -26 -140 0 -13 24 -10 59 8 26 13 38 14
57 5 70 -32 35 -146 -40 -127 -15 4 -32 17 -38 30 -12 27 -38 24 -38 -3 0 -33
43 -61 92 -61 62 0 98 39 98 106 0 64 -34 97 -96 92 -44 -3 -44 -3 -44 29 0
29 3 33 28 33 54 0 102 13 102 26 0 19 -149 20 -154 2z"/>
<path d="M1001 4350 c-70 -55 -69 -84 2 -55 15 6 17 -1 17 -84 0 -90 0 -91 25
-91 l25 0 0 135 c0 74 -4 135 -9 135 -5 0 -32 -18 -60 -40z"/>
<path d="M3951 4354 c-12 -15 -21 -33 -21 -40 0 -21 33 -17 53 6 20 24 55 26
63 5 7 -18 -9 -44 -75 -120 -28 -32 -51 -64 -51 -72 0 -10 21 -13 90 -13 89 0
90 0 90 25 0 23 -3 25 -52 25 l-52 0 47 48 c84 85 71 162 -27 162 -36 0 -48
-5 -65 -26z"/>
<path d="M7080 4353 c-29 -37 -11 -52 35 -28 24 14 38 16 45 9 14 -14 3 -42
-21 -49 -27 -9 -23 -32 8 -47 31 -15 41 -42 23 -63 -18 -21 -47 -18 -64 6 -16
23 -46 20 -46 -4 0 -29 40 -57 81 -57 72 0 117 81 69 125 -17 16 -18 19 -4 40
18 28 10 71 -16 85 -37 20 -87 12 -110 -17z"/>
<path d="M215 3868 c-4 -101 -5 -451 -4 -778 l4 -595 915 0 c801 0 918 2 936
15 12 8 79 67 150 130 423 379 521 486 555 604 27 92 -73 229 -346 476 -228
206 -355 309 -394 320 -23 6 -364 10 -922 10 l-887 0 -7 -182z m1815 152 c84
-23 636 -538 692 -645 43 -83 44 -108 10 -178 -39 -77 -168 -221 -328 -364
-66 -59 -165 -148 -220 -197 -54 -49 -109 -95 -122 -104 -19 -13 -138 -14
-919 -13 -493 1 -899 3 -901 6 -8 8 -14 989 -7 1238 l7 267 877 0 c541 0 889
-4 911 -10z"/>
<path d="M1221 3462 c-19 -53 -37 -101 -42 -107 -4 -5 -55 -26 -113 -45 -58
-19 -106 -37 -106 -40 0 -3 49 -20 110 -39 l109 -34 37 -101 c20 -56 40 -105
44 -109 4 -5 22 34 39 86 18 52 37 101 44 109 13 17 171 78 200 78 27 0 19 17
-10 23 -30 6 -171 57 -189 69 -7 4 -15 20 -18 35 -9 41 -60 173 -66 173 -3 0
-20 -44 -39 -98z m69 -147 l-30 -30 -30 30 -29 30 25 70 c13 39 27 77 30 85 4
9 18 -20 35 -70 l29 -84 -30 -31z m-70 -70 c-13 -14 -31 -25 -40 -25 -15 0
-107 29 -150 46 -9 4 19 18 70 35 l85 28 30 -29 29 -29 -24 -26z m188 61 c40
-14 77 -28 83 -31 6 -4 -27 -20 -73 -35 l-83 -29 -30 30 -29 29 29 30 c16 16
29 30 30 30 1 0 34 -11 73 -24z m-115 -84 l27 -28 -24 -72 c-14 -40 -28 -77
-31 -83 -4 -6 -20 27 -35 73 l-28 83 26 28 c14 15 29 27 32 27 3 0 18 -13 33
-28z"/>
<path d="M3200 3276 l0 -774 93 -6 c50 -4 468 -5 927 -4 l835 3 35 25 c19 13
65 52 101 85 36 33 126 113 200 177 304 264 420 411 405 513 -17 112 -192 298
-594 632 -100 83 -142 112 -170 117 -20 3 -441 6 -934 6 l-898 0 0 -774z m65
744 c3 -5 -1 -10 -9 -10 -9 0 -16 -4 -16 -10 0 -9 15 -14 34 -11 20 4 58 -33
72 -69 9 -22 20 -40 25 -40 24 0 -12 82 -46 104 -30 20 -33 36 -5 36 13 0 20
-7 20 -19 0 -10 9 -21 19 -24 12 -3 21 -16 23 -33 l4 -29 11 26 c12 27 56 49
98 49 34 0 73 -37 87 -82 l12 -41 17 40 c10 23 29 49 44 59 15 11 37 29 50 42
22 21 93 33 80 13 -6 -11 22 -41 39 -41 19 0 54 -41 61 -72 10 -38 17 -35 38
17 16 38 25 46 59 56 66 17 107 -4 129 -66 l18 -50 15 37 c9 21 16 41 16 47 0
9 60 41 79 41 6 0 11 9 11 20 0 17 7 20 48 20 82 0 122 -10 122 -31 0 -25 27
-24 35 1 4 12 15 20 28 20 19 0 19 -2 -10 -32 -17 -18 -35 -42 -41 -53 -10
-18 -11 -17 -12 10 0 23 -8 35 -33 50 -36 21 -79 25 -85 7 -2 -7 5 -12 17 -12
49 0 101 -48 101 -95 0 -27 15 -16 35 28 17 33 29 45 62 56 57 20 97 3 127
-56 l22 -45 19 43 c15 32 29 46 62 61 24 10 43 25 43 33 0 10 10 15 30 15 23
0 30 -4 28 -17 -2 -11 7 -19 26 -24 38 -11 63 -35 76 -75 11 -31 30 -47 30
-24 0 40 -71 130 -104 130 -10 0 -17 3 -14 6 11 10 78 -8 78 -22 0 -7 9 -18
19 -24 11 -5 21 -22 23 -37 l4 -28 11 26 c11 25 55 49 89 49 19 0 94 -69 94
-87 0 -8 6 -13 13 -10 14 5 57 -25 151 -107 49 -43 64 -62 53 -64 -29 -6 -19
-17 33 -35 49 -17 50 -19 51 -60 3 -87 -9 -108 -67 -127 -40 -14 -45 -30 -8
-30 32 0 70 -38 79 -80 9 -41 19 -38 39 14 20 53 55 71 115 61 46 -8 81 -43
81 -82 0 -18 4 -23 14 -20 18 7 40 -44 40 -90 0 -45 -51 -96 -92 -91 l-27 3
29 15 c21 11 33 28 42 60 25 85 11 95 -16 13 -13 -37 -23 -48 -53 -61 -68 -27
-147 21 -147 88 0 36 -17 21 -29 -24 -9 -39 -15 -45 -56 -60 -25 -10 -45 -21
-45 -25 0 -4 18 -14 39 -21 32 -10 43 -21 55 -52 9 -21 16 -47 16 -57 0 -30
-46 -78 -80 -85 -17 -3 -29 -10 -26 -15 6 -9 87 -51 99 -51 16 0 -7 29 -28 34
-23 6 -23 6 13 42 20 20 38 32 39 27 2 -6 10 -19 18 -29 24 -33 29 -5 7 35
-12 21 -22 46 -22 55 0 30 32 81 58 94 36 17 57 15 103 -8 l40 -21 -18 -30
c-10 -17 -42 -54 -71 -82 -30 -29 -89 -88 -132 -132 l-79 -80 -21 23 c-23 24
-59 29 -78 10 -18 -18 -15 -39 9 -65 l22 -22 -24 -21 c-13 -11 -36 -27 -50
-35 -26 -14 -27 -13 -42 23 -8 20 -18 46 -22 57 -8 22 -6 24 -36 -53 -5 -13
-25 -30 -46 -38 -33 -14 -40 -14 -80 1 -39 15 -45 22 -55 61 -7 24 -15 44 -19
44 -4 0 -13 -17 -20 -37 -16 -51 -22 -58 -69 -73 -22 -7 -40 -16 -40 -19 0 -4
21 -13 46 -20 50 -15 64 -36 64 -97 l0 -34 -135 0 -135 0 0 35 c0 65 37 105
97 105 13 0 23 5 23 10 0 6 -8 10 -17 10 -34 0 -84 40 -103 82 -18 42 -19 42
-28 18 -5 -14 -11 -34 -13 -45 -8 -39 -82 -57 -146 -35 -23 8 -31 20 -41 55
-12 47 -39 66 -28 20 3 -14 9 -37 12 -52 5 -19 2 -30 -11 -39 -16 -12 -17 -14
-2 -20 11 -4 17 -17 17 -36 0 -17 -4 -27 -10 -23 -5 3 -10 17 -10 31 0 21 -4
24 -37 24 -40 0 -35 16 7 22 21 2 25 9 28 38 l2 35 -15 -26 c-9 -18 -29 -30
-60 -39 -25 -7 -45 -16 -45 -19 0 -4 22 -13 48 -20 41 -10 50 -17 60 -45 7
-18 12 -44 12 -59 l0 -27 -134 0 c-150 0 -156 3 -136 66 13 37 57 74 89 74 12
0 21 5 21 10 0 6 -8 10 -17 10 -35 0 -81 38 -93 77 -15 47 -30 65 -30 36 0
-43 -28 -88 -62 -101 -32 -11 -85 -4 -114 16 -16 11 -34 48 -34 71 0 36 -15
23 -28 -24 -7 -27 -19 -48 -30 -51 -45 -15 -72 -27 -72 -33 0 -3 20 -14 44
-24 49 -20 73 -59 62 -102 l-6 -25 -136 0 -137 0 6 47 c6 52 30 80 79 90 39 8
35 17 -13 33 -40 14 -52 29 -74 95 -6 17 -10 12 -24 -25 -12 -33 -26 -49 -53
-64 -35 -18 -39 -18 -81 -2 -24 9 -49 27 -55 39 -10 21 -11 20 -11 -9 -1 -34
-10 -29 140 -75 41 -13 59 -41 59 -94 l0 -35 -100 0 -100 0 0 27 c0 46 21 90
49 101 25 10 25 10 -11 11 -34 1 -38 -2 -38 -23 0 -14 -4 -28 -10 -31 -14 -9
-12 39 2 53 10 10 9 16 -4 28 -14 15 -15 21 -2 57 17 47 17 57 4 57 -6 0 -15
-20 -22 -45 -11 -41 -16 -46 -60 -62 -26 -9 -48 -21 -48 -25 0 -11 1 -10 51 7
34 12 44 13 51 3 5 -9 -2 -15 -25 -19 l-32 -5 26 -13 c28 -14 54 -76 43 -104
-6 -17 -83 -32 -114 -22 -19 6 -20 15 -20 132 0 116 1 125 20 130 14 4 20 14
20 34 0 18 -8 34 -20 41 -19 12 -20 24 -20 230 0 185 2 218 15 218 8 0 19 9
25 20 9 17 6 25 -15 46 l-25 25 0 213 c0 205 1 214 20 219 13 3 20 14 20 31 0
15 -8 30 -20 36 -17 9 -20 21 -20 75 0 58 2 65 19 65 11 0 23 -4 26 -10z m596
0 c12 0 19 -7 19 -19 0 -19 23 -35 34 -24 3 4 6 15 6 25 0 22 16 24 24 3 3 -8
1 -15 -5 -15 -5 0 -16 -14 -23 -32 l-14 -32 -16 32 c-9 18 -20 32 -24 32 -4 0
-18 10 -32 21 -18 15 -20 19 -7 15 10 -3 27 -6 38 -6z m-431 -9 c0 -5 -7 -14
-16 -22 -13 -10 -17 -10 -25 2 -14 23 -11 29 16 29 14 0 25 -4 25 -9z m152
-13 c2 -13 10 -23 18 -23 8 0 16 10 18 23 3 16 10 22 28 22 24 0 24 -1 -11
-35 -19 -20 -35 -41 -35 -48 0 -7 -10 4 -21 23 -12 19 -29 40 -38 47 -14 11
-13 12 11 13 20 0 27 -5 30 -22z m395 16 c-3 -3 -12 -4 -19 -1 -8 3 -5 6 6 6
11 1 17 -2 13 -5z m153 -33 c9 -28 9 -43 1 -57 -9 -16 -10 -13 -11 18 0 34 -4
39 -42 57 l-43 20 41 1 c39 0 41 -2 54 -39z m70 36 c0 -2 -11 -14 -25 -27
l-25 -23 0 26 c0 22 5 27 25 27 14 0 25 -1 25 -3z m440 -17 c0 -11 2 -20 4
-20 2 0 11 -3 20 -6 12 -5 16 0 16 20 0 22 5 26 27 26 l27 0 -26 -27 c-14 -16
-28 -37 -32 -47 -6 -18 -9 -17 -26 11 -10 17 -29 38 -41 47 l-23 16 27 0 c20
0 27 -5 27 -20z m388 4 c-9 -9 -24 -14 -32 -11 -27 11 -17 27 16 27 30 0 31
-1 16 -16z m571 -456 l52 -57 -41 3 c-47 3 -90 35 -90 68 0 13 -3 34 -7 47 -6
23 -5 23 14 10 11 -8 43 -40 72 -71z m-47 -58 c7 0 7 -5 -1 -14 -11 -13 -17
-10 -41 17 -34 38 -28 60 7 23 13 -14 29 -26 35 -26z m-61 -20 c22 -21 28 -34
21 -45 -7 -13 -10 -12 -22 9 -7 14 -21 28 -32 32 -19 6 -23 16 -11 27 10 11
12 9 44 -23z m64 -271 c27 -12 28 -13 8 -16 -30 -6 -73 25 -73 51 l0 21 18
-22 c9 -12 31 -28 47 -34z m-75 -9 c0 -13 -30 -13 -50 0 -11 7 -7 10 18 10 17
0 32 -4 32 -10z m35 -39 c-3 -12 -11 -21 -16 -21 -14 0 -11 38 4 43 17 6 20 2
12 -22z m-1386 -467 c-7 -15 -21 -24 -35 -24 -35 0 -38 17 -4 24 27 5 30 10
31 43 l1 38 10 -28 c8 -21 7 -35 -3 -53z m884 -2 c34 -4 36 -22 2 -22 -14 0
-28 -7 -30 -15 -15 -46 -19 -50 -23 -21 -2 17 2 32 10 37 10 7 10 11 0 21 -13
13 -16 50 -4 62 4 4 9 -7 12 -26 4 -27 10 -34 33 -36z m-295 -4 l27 -12 -32
-4 c-24 -2 -33 -8 -33 -22 0 -10 -4 -22 -10 -25 -6 -3 -10 5 -10 19 0 13 6 26
13 29 9 3 7 9 -6 24 -11 12 -15 27 -11 38 6 15 9 14 21 -9 8 -15 26 -32 41
-38z m492 34 c-1 -24 -46 -54 -73 -49 -20 3 -19 5 10 16 19 8 33 22 37 37 7
27 26 24 26 -4z m-1600 -8 c0 -8 -4 -14 -9 -14 -5 0 -17 -7 -26 -16 -13 -13
-21 -14 -38 -6 -21 10 -21 11 6 11 20 1 30 8 37 27 10 26 30 25 30 -2z m365
-32 c106 -29 116 -34 130 -62 8 -16 15 -43 15 -60 l0 -30 -100 0 -100 0 0 34
c0 50 15 82 42 91 l23 8 -24 4 c-39 8 -71 33 -71 57 0 20 1 20 23 -5 12 -14
40 -31 62 -37z m-305 -2 c0 -5 -11 -10 -25 -10 -14 0 -25 5 -25 10 0 6 11 10
25 10 14 0 25 -4 25 -10z m210 0 c0 -5 -16 -10 -36 -10 -21 0 -33 4 -29 10 3
6 19 10 36 10 16 0 29 -4 29 -10z m315 0 c-3 -5 -17 -10 -31 -10 -20 0 -24 -5
-24 -30 0 -16 -4 -30 -10 -30 -16 0 -12 42 7 62 17 19 69 26 58 8z m320 0 c16
-7 13 -9 -17 -9 -21 -1 -38 4 -38 9 0 12 27 12 55 0z m125 0 c0 -5 -17 -10
-37 -11 l-38 0 37 -15 c38 -16 48 -35 48 -91 l0 -33 -100 0 -100 0 1 38 c1 62
11 74 80 98 70 25 109 29 109 14z m300 0 c0 -5 -14 -10 -31 -10 -17 0 -28 4
-24 10 3 6 17 10 31 10 13 0 24 -4 24 -10z m-1335 -33 c0 -26 -20 -25 -23 2
-3 16 1 22 10 19 7 -3 13 -12 13 -21z m310 -6 c-3 -12 -11 -21 -16 -21 -14 0
-11 38 4 43 17 6 20 2 12 -22z m1220 12 c19 -9 35 -20 35 -24 0 -9 -73 -74
-97 -87 -17 -10 -54 -15 -80 -13 -16 1 -17 45 -1 87 18 49 82 66 143 37z"/>
<path d="M3722 3894 c-27 -18 -28 -45 -4 -67 24 -22 45 -21 65 1 22 25 21 37
-5 62 -26 24 -28 24 -56 4z"/>
<path d="M4251 3886 c-19 -20 -21 -28 -12 -45 18 -33 44 -42 69 -25 28 20 28
59 0 78 -29 21 -30 20 -57 -8z"/>
<path d="M4792 3894 c-12 -8 -22 -26 -22 -39 0 -13 10 -31 22 -39 19 -13 25
-14 43 -2 12 8 20 24 20 41 0 17 -8 33 -20 41 -18 12 -24 11 -43 -2z"/>
<path d="M3579 3802 c-11 -37 -22 -51 -50 -66 -35 -19 -38 -19 -83 -2 -42 16
-48 22 -58 62 -7 24 -15 44 -19 44 -4 0 -13 -17 -20 -37 -16 -51 -25 -61 -70
-75 -22 -6 -39 -15 -39 -20 0 -5 9 -7 19 -3 22 7 66 -29 87 -71 11 -20 11 -34
2 -69 -11 -40 -16 -45 -62 -63 l-51 -19 53 -23 c28 -12 52 -28 52 -36 0 -19
22 -64 32 -64 4 0 8 6 8 14 0 24 28 69 52 83 41 22 87 16 119 -16 16 -16 29
-39 29 -50 0 -37 20 -32 36 10 14 33 26 45 63 62 45 20 45 20 21 30 -56 22
-69 31 -81 59 -12 30 -7 91 10 112 6 7 29 19 51 26 22 7 40 16 40 20 0 4 -18
13 -41 20 -41 14 -69 49 -69 89 0 39 -17 29 -31 -17z m-199 -46 c0 -18 9 -27
43 -40 23 -9 47 -16 52 -16 37 0 83 -23 93 -46 19 -40 15 -98 -9 -128 -17 -22
-28 -26 -73 -26 -68 0 -93 18 -101 74 -8 48 14 106 40 106 7 0 17 5 20 10 4 6
-7 10 -24 10 -25 0 -34 -6 -45 -32 -14 -32 -14 -32 -15 -7 -1 14 4 30 11 37 9
9 8 16 -3 29 -16 19 -15 53 2 53 5 0 9 -11 9 -24z m222 -28 c-17 -17 -25 -3
-17 29 l7 28 11 -23 c7 -16 7 -26 -1 -34z m-258 -13 c4 -11 -1 -15 -19 -15
-29 0 -34 16 -7 23 9 3 18 5 18 6 1 0 4 -6 8 -14z m226 -5 c0 -12 -8 -12 -35
0 -18 8 -17 9 8 9 15 1 27 -3 27 -9z m100 0 c0 -5 -11 -10 -25 -10 -14 0 -25
5 -25 10 0 6 11 10 25 10 14 0 25 -4 25 -10z m-61 -22 c0 -7 -4 -22 -8 -33 -8
-19 -8 -19 -15 2 -8 24 -1 43 15 43 5 0 9 -6 8 -12z m-229 -167 c0 -10 12 -22
28 -28 22 -8 24 -11 10 -17 -21 -9 -58 26 -58 55 0 11 5 17 10 14 6 -3 10 -14
10 -24z m272 -31 c8 -1 5 -7 -7 -18 -11 -9 -28 -27 -37 -40 l-16 -23 -6 25
c-3 13 -15 28 -26 31 -25 8 -26 25 -1 32 11 3 22 14 25 26 5 20 6 20 30 -6 14
-15 31 -27 38 -27z m-312 -4 c0 -21 -20 -30 -33 -17 -9 9 -8 14 3 21 21 14 30
12 30 -4z m40 -58 c0 -34 -13 -29 -25 10 -5 16 -2 22 9 22 11 0 16 -10 16 -32z"/>
<path d="M3582 3484 c2 -11 11 -20 22 -22 13 -3 17 1 14 14 -2 11 -11 20 -22
22 -13 3 -17 -1 -14 -14z"/>
<path d="M4120 3837 c0 -10 -5 -34 -12 -55 -10 -31 -19 -40 -48 -50 -36 -11
-87 -4 -116 16 -16 11 -34 48 -34 71 0 36 -15 23 -28 -23 -10 -39 -17 -46 -57
-62 -45 -19 -63 -41 -24 -31 12 3 18 3 15 -1 -4 -3 7 -11 23 -18 72 -30 54
-171 -23 -186 -33 -6 -27 -22 17 -43 34 -16 44 -27 53 -60 l11 -39 23 47 c30
59 77 79 137 56 31 -12 40 -22 54 -64 l18 -50 15 37 c9 21 16 41 16 46 0 9 28
26 75 42 26 10 28 13 12 21 -9 6 -21 8 -26 5 -15 -10 -59 33 -71 69 -10 30 -9
41 7 73 15 30 27 40 68 54 39 13 46 18 30 23 -62 19 -90 41 -105 82 -18 48
-30 64 -30 40z m11 -110 c-14 -22 -6 -36 11 -19 15 15 62 16 53 2 -3 -5 -17
-10 -31 -10 -20 0 -24 -5 -24 -31 0 -17 -4 -28 -10 -24 -5 3 -10 17 -10 29 0
18 -7 25 -32 31 l-33 8 30 6 c26 5 30 11 34 46 l3 40 11 -29 c7 -21 6 -35 -2
-49z m-131 -22 c102 -26 97 -21 131 -148 8 -35 19 -52 36 -60 24 -11 26 -28 5
-35 -7 -2 -16 8 -21 21 -6 14 -15 28 -20 32 -6 3 -11 18 -11 33 l-1 27 -15
-27 c-8 -15 -23 -32 -34 -38 -28 -15 -103 -12 -127 5 -47 33 -35 146 17 168
l25 11 -24 4 c-38 6 -71 32 -71 56 0 20 1 19 23 -6 15 -19 41 -32 87 -43z
m-120 5 c0 -5 -11 -10 -25 -10 -14 0 -25 5 -25 10 0 6 11 10 25 10 14 0 25 -4
25 -10z m31 -41 c-8 -22 -10 -22 -16 -5 -5 11 -3 21 6 26 19 12 21 7 10 -21z
m40 -179 c7 0 0 -11 -15 -25 -14 -13 -26 -30 -26 -37 -1 -8 -8 -5 -18 8 -10
12 -28 27 -41 34 -19 10 -21 14 -10 21 22 14 36 10 42 -11 3 -11 12 -20 21
-20 9 0 16 8 16 20 0 11 -7 20 -15 20 -9 0 -15 9 -15 21 0 21 1 21 25 -5 13
-14 29 -26 36 -26z m169 -3 c0 -22 -11 -27 -33 -16 -16 9 -17 13 -6 20 21 13
39 11 39 -4z m20 -49 c0 -13 -5 -30 -10 -38 -7 -11 -10 -5 -10 23 0 20 5 37
10 37 6 0 10 -10 10 -22z"/>
<path d="M4420 3829 c0 -7 5 -29 11 -50 10 -31 9 -42 -2 -55 -11 -13 -11 -18
-1 -21 6 -3 12 -18 12 -34 0 -18 -4 -28 -10 -24 -5 3 -10 17 -10 31 0 19 -5
24 -24 24 -14 0 -28 5 -31 10 -4 6 7 10 24 10 29 0 31 3 31 36 0 21 -4 33 -10
29 -5 -3 -10 -14 -10 -24 0 -12 -14 -21 -51 -31 -52 -14 -74 -30 -42 -30 10 0
34 -5 54 -10 30 -8 38 -17 49 -50 19 -57 0 -111 -47 -134 -18 -9 -40 -16 -48
-16 -8 0 -15 -4 -15 -10 0 -5 10 -10 23 -10 31 0 87 -36 88 -57 1 -10 4 -5 8
11 3 16 11 31 18 33 9 3 9 -4 2 -29 -6 -18 -13 -41 -16 -50 -10 -35 15 -17 30
20 20 49 34 61 88 68 36 5 49 2 72 -16 15 -12 27 -25 27 -30 0 -5 5 -21 11
-37 l11 -28 19 43 c19 41 37 54 104 77 16 6 10 11 -30 24 -33 11 -54 24 -62
41 -15 30 -17 84 -3 111 12 22 61 49 90 49 11 0 20 5 20 10 0 6 -9 10 -19 10
-37 0 -80 34 -100 80 l-20 45 -10 -28 c-6 -16 -11 -34 -11 -41 0 -35 -74 -59
-131 -42 -38 11 -44 17 -57 59 -14 43 -32 63 -32 36z m262 -84 c2 -12 13 -21
26 -23 29 -4 28 -22 -2 -22 -17 0 -26 -8 -34 -32 l-10 -33 -1 32 c-1 17 5 33
12 36 9 3 7 9 -6 24 -10 12 -15 27 -11 37 8 20 20 10 26 -19z m-122 -48 c76
-26 93 -49 86 -116 -5 -56 -34 -80 -93 -81 -87 0 -117 40 -97 132 8 35 15 43
44 54 l35 12 -37 1 c-21 1 -38 6 -38 11 0 15 27 11 100 -13z m80 13 c0 -12
-17 -12 -45 0 -17 7 -15 9 13 9 17 1 32 -3 32 -9z m-208 -208 c-7 -2 -12 -10
-12 -17 0 -18 -15 -26 -34 -19 -24 9 -19 23 9 30 20 5 25 13 26 38 l1 31 10
-29 c8 -22 8 -31 0 -34z m276 -10 l27 -9 -23 -12 c-21 -11 -24 -10 -29 9 -3
12 -12 20 -21 18 -24 -5 -26 -29 -3 -35 22 -6 26 -19 12 -42 -7 -11 -10 -9
-16 8 -3 12 -18 29 -31 38 l-25 16 31 18 c16 10 30 27 31 36 0 12 4 9 10 -9 6
-15 22 -31 37 -36z m-218 -7 c0 -1 -7 -8 -15 -15 -13 -10 -15 -9 -15 8 0 15 5
20 15 16 8 -4 15 -7 15 -9z"/>
<path d="M4950 3803 c-17 -51 -23 -57 -70 -73 -39 -13 -54 -30 -25 -30 27 0
85 -34 85 -50 0 -9 4 -20 9 -25 5 -6 4 -29 -2 -57 -11 -47 -30 -62 -97 -81 -8
-2 8 -14 38 -27 28 -12 52 -28 52 -34 0 -16 23 -66 31 -66 3 0 11 18 18 40 13
45 50 70 101 70 37 0 90 -47 90 -79 0 -37 18 -31 40 13 16 34 30 48 62 61 32
13 39 19 27 26 -7 5 -21 9 -31 9 -25 0 -68 57 -68 90 0 49 20 78 66 97 24 10
44 21 44 24 0 3 -18 12 -41 19 -40 14 -52 28 -74 95 -8 22 -7 23 -36 -52 -4
-12 -24 -29 -44 -39 -53 -25 -102 -4 -132 55 -29 58 -29 58 -43 14z m32 -53
c2 -16 10 -26 23 -28 11 -2 29 -7 40 -12 11 -4 41 -14 66 -20 53 -14 69 -37
69 -101 0 -58 -34 -89 -97 -89 -62 0 -89 19 -98 69 -7 45 16 111 39 111 8 0
18 5 21 10 4 6 -7 10 -24 10 -25 0 -34 -6 -45 -32 -14 -32 -14 -32 -15 -7 -1
15 6 32 15 40 14 11 14 13 0 21 -9 5 -16 22 -16 40 0 37 16 27 22 -12z m228
-6 c0 -8 -8 -18 -17 -21 -10 -4 -21 -11 -25 -17 -4 -6 -14 -6 -30 1 -23 12
-23 12 5 12 20 1 30 8 37 27 10 26 30 25 30 -2z m-270 -34 c0 -13 -20 -13 -40
0 -12 8 -9 10 13 10 15 0 27 -4 27 -10z m325 0 c-3 -5 -15 -10 -26 -10 -10 0
-19 5 -19 10 0 6 12 10 26 10 14 0 23 -4 19 -10z m-59 -25 c4 -8 3 -23 -1 -32
-7 -17 -8 -16 -15 2 -5 11 -9 26 -9 33 -1 17 18 15 25 -3z m-226 -159 c0 -18
8 -27 28 -34 23 -8 24 -11 9 -17 -12 -5 -24 0 -37 15 -21 24 -27 60 -10 60 6
0 10 -11 10 -24z m253 -65 c-11 -9 -25 -25 -31 -36 -10 -17 -11 -17 -12 -3 0
9 -12 29 -27 43 -28 25 -28 26 -6 31 11 3 24 15 26 26 5 19 8 19 38 -12 33
-32 33 -32 12 -49z m-293 19 c0 -23 -13 -26 -29 -6 -9 11 -9 15 1 19 23 10 28
7 28 -13z m40 -45 c0 -14 -4 -25 -10 -25 -5 0 -10 4 -10 9 0 5 -3 16 -6 25 -4
11 -1 16 10 16 10 0 16 -9 16 -25z"/>
<path d="M5182 3484 c2 -11 11 -20 22 -22 13 -3 17 1 14 14 -2 11 -11 20 -22
22 -13 3 -17 -1 -14 -14z"/>
<path d="M4792 3374 c-12 -8 -22 -26 -22 -39 0 -13 10 -31 22 -39 19 -13 25
-14 43 -2 12 8 20 24 20 41 0 17 -8 33 -20 41 -18 12 -24 11 -43 -2z"/>
<path d="M5322 3374 c-28 -20 -28 -45 1 -72 l24 -22 26 21 c32 25 34 42 7 69
-24 24 -29 24 -58 4z"/>
<path d="M3712 3368 c-19 -19 -14 -42 13 -68 l25 -23 25 23 c29 27 31 42 9 64
-18 19 -55 21 -72 4z"/>
<path d="M4246 3358 c-16 -22 -10 -44 18 -67 34 -28 85 40 56 74 -18 22 -57
18 -74 -7z"/>
<path d="M4120 3317 c0 -10 -5 -35 -12 -56 -15 -49 -58 -66 -125 -49 -46 11
-73 44 -73 88 0 35 -15 22 -28 -24 -10 -39 -17 -46 -57 -62 -45 -19 -63 -41
-25 -31 11 3 20 2 20 -2 0 -4 10 -13 23 -18 34 -16 52 -82 34 -125 -16 -39
-32 -53 -69 -62 -32 -7 -38 -26 -8 -26 34 0 78 -39 85 -76 8 -45 18 -43 36 9
34 92 158 91 189 -2 7 -23 16 -41 20 -41 8 0 30 46 30 64 0 15 58 46 84 46 9
0 16 5 16 10 0 11 -2 11 -38 15 -57 6 -91 81 -66 145 13 32 22 40 60 50 44 13
60 30 27 30 -35 0 -81 38 -93 77 -14 44 -30 65 -30 40z m11 -110 c-14 -22 -6
-36 11 -19 15 15 55 16 63 2 4 -6 -8 -10 -29 -10 -33 0 -36 -2 -36 -31 0 -17
-4 -28 -10 -24 -5 3 -10 17 -10 29 0 18 -7 25 -32 32 l-33 8 33 3 c30 4 32 7
33 46 1 42 1 42 11 13 8 -22 8 -34 -1 -49z m-131 -22 c86 -22 96 -29 110 -69
16 -49 -4 -114 -39 -128 -65 -25 -143 -1 -155 47 -11 42 13 114 43 130 25 14
25 14 3 15 -31 0 -82 39 -75 57 5 12 10 9 27 -11 14 -17 42 -30 86 -41z m-120
5 c0 -5 -11 -10 -25 -10 -14 0 -25 5 -25 10 0 6 11 10 25 10 14 0 25 -4 25
-10z m34 -37 c-9 -36 -12 -39 -20 -19 -7 20 1 46 16 46 6 0 8 -11 4 -27z m253
-176 c23 -10 26 -28 7 -34 -6 -2 -16 8 -22 22 -6 14 -16 25 -22 25 -5 0 -10
15 -9 33 l1 32 11 -34 c6 -18 21 -38 34 -44z m-217 -7 c6 0 8 -4 5 -10 -10
-15 -35 -12 -35 5 0 8 -9 15 -20 15 -25 0 -26 -26 -1 -40 13 -7 17 -16 14 -31
-6 -21 -6 -21 -19 3 -7 13 -25 30 -41 37 l-28 14 33 13 c17 8 32 21 32 30 0
13 6 11 25 -10 13 -14 29 -26 35 -26z m168 -7 c-2 -12 -11 -17 -23 -15 -28 5
-32 12 -15 22 24 15 42 11 38 -7z m22 -52 c0 -17 -4 -33 -10 -36 -6 -4 -10 8
-10 29 0 20 5 36 10 36 6 0 10 -13 10 -29z"/>
<path d="M4420 3316 c0 -10 -5 -35 -11 -56 -10 -33 -17 -38 -60 -50 -45 -13
-66 -30 -36 -30 6 0 28 -5 48 -10 29 -8 38 -17 49 -49 10 -32 10 -46 -2 -82
-13 -39 -20 -45 -61 -59 -47 -15 -62 -30 -30 -30 29 0 91 -33 86 -46 -2 -6 0
-15 6 -19 6 -3 11 -15 11 -26 0 -32 17 -21 34 22 17 42 60 69 109 69 25 0 77
-34 77 -50 0 -5 5 -21 10 -36 l11 -28 22 45 c19 37 29 46 69 59 27 8 48 17 48
20 0 3 -20 11 -45 18 -59 16 -79 47 -72 109 6 54 43 93 90 93 15 0 27 5 27 10
0 6 -8 10 -18 10 -41 0 -75 26 -97 73 -25 53 -28 52 -44 -9 -9 -35 -16 -43
-42 -48 -87 -17 -130 1 -149 62 -15 44 -30 64 -30 38z m12 -108 c-9 -9 -12 -1
-11 33 l1 44 11 -33 c7 -24 7 -36 -1 -44z m276 -6 c30 -5 28 -22 -3 -22 -19 0
-26 -7 -34 -32 l-9 -33 -1 32 c-1 17 5 33 12 36 10 4 10 7 0 18 -7 7 -13 27
-12 44 l1 30 12 -35 c8 -23 20 -36 34 -38z m-298 -12 c0 -13 -11 -13 -30 0
-12 8 -11 10 8 10 12 0 22 -4 22 -10z m177 -22 c49 -18 52 -21 58 -61 7 -46
-7 -93 -33 -113 -21 -17 -93 -18 -126 -3 -29 13 -41 65 -30 124 5 29 14 40 38
51 l31 13 -32 1 c-18 0 -33 5 -33 10 0 14 58 4 127 -22z m53 22 c0 -6 -11 -8
-27 -4 -40 10 -41 14 -5 14 18 0 32 -5 32 -10z m-200 -41 c0 -17 -4 -28 -10
-24 -5 3 -10 17 -10 31 0 13 5 24 10 24 6 0 10 -14 10 -31z m-14 -174 c-8 -8
-16 -19 -18 -25 -4 -12 -48 -1 -48 11 0 5 14 12 30 16 26 5 30 10 31 42 l1 36
9 -33 c8 -25 6 -36 -5 -47z m282 -2 l27 -10 -27 -13 c-14 -7 -29 -24 -33 -39
l-7 -26 -12 23 c-6 12 -22 30 -35 39 l-24 16 26 13 c14 8 29 24 33 36 l7 23 9
-26 c5 -14 21 -30 36 -36z m-224 -2 c3 -5 -1 -14 -9 -21 -13 -10 -15 -9 -15 9
0 21 14 28 24 12z m-39 -53 c-11 -36 -25 -45 -25 -17 0 27 7 39 22 39 5 0 6
-10 3 -22z"/>
<path d="M4645 2970 c-8 -14 3 -30 21 -30 8 0 14 9 14 20 0 21 -24 28 -35 10z"/>
<path d="M3349 3275 c-12 -42 -18 -47 -61 -63 -50 -17 -67 -39 -23 -28 15 4
25 2 25 -4 0 -6 10 -15 23 -21 31 -14 45 -63 33 -115 -7 -33 -16 -45 -43 -58
-18 -9 -40 -16 -48 -16 -8 0 -15 -4 -15 -10 0 -5 7 -10 15 -10 33 0 83 -33 89
-59 7 -33 23 -57 32 -49 3 4 -1 25 -10 48 -20 49 -20 50 -2 50 9 0 16 -13 18
-32 l4 -33 11 26 c12 27 56 49 100 49 30 0 83 -51 83 -79 0 -38 19 -32 38 13
16 34 28 47 56 57 36 13 44 35 13 33 -23 -2 -65 39 -73 72 -4 16 -1 44 7 68
12 33 21 42 57 55 23 8 42 18 42 21 0 4 -18 13 -41 20 -40 14 -52 28 -74 95
-8 22 -7 23 -36 -53 -5 -12 -24 -29 -43 -38 -30 -15 -38 -15 -77 -2 -40 13
-46 19 -59 61 -8 26 -18 47 -21 47 -4 0 -13 -20 -20 -45z m81 -81 c25 -7 63
-17 86 -23 47 -12 64 -40 64 -102 0 -58 -34 -89 -97 -89 -62 0 -89 19 -98 70
-9 55 9 104 43 117 l27 11 -32 1 c-28 1 -35 -4 -47 -31 l-14 -33 -1 32 c-1 17
5 34 12 37 9 3 7 9 -6 19 -15 12 -16 19 -5 43 l11 29 6 -34 c5 -30 11 -35 51
-47z m180 30 c0 -21 -49 -46 -68 -35 -14 9 -13 10 9 11 22 0 28 6 33 33 5 25
9 29 16 17 5 -8 10 -20 10 -26z m-270 -29 c0 -8 -9 -15 -20 -15 -25 0 -26 17
-2 23 9 3 18 5 20 6 1 0 2 -6 2 -14z m320 -5 c-20 -13 -40 -13 -40 0 0 6 12
10 28 10 21 0 24 -2 12 -10z m-55 -51 l-8 -24 -8 24 c-10 27 -2 48 13 33 6 -6
7 -20 3 -33z m-225 -138 c0 -10 12 -22 28 -28 23 -9 24 -11 9 -18 -12 -5 -23
0 -37 16 -20 25 -28 65 -10 54 6 -3 10 -14 10 -24z m268 -31 c15 -1 14 -3 -3
-18 -11 -9 -28 -27 -37 -40 l-16 -23 -6 25 c-3 13 -15 28 -26 31 -26 8 -26 25
0 32 10 3 22 15 26 26 6 20 7 20 26 -6 11 -15 27 -27 36 -27z m-308 -10 c0
-22 -8 -25 -30 -10 -13 9 -13 11 0 20 22 15 30 12 30 -10z"/>
<path d="M3582 2964 c2 -11 11 -20 22 -22 13 -3 17 1 14 14 -2 11 -11 20 -22
22 -13 3 -17 -1 -14 -14z"/>
<path d="M4948 3279 c-14 -43 -53 -77 -90 -78 -22 -1 -24 -21 -3 -21 8 0 29
-7 48 -16 41 -20 56 -61 43 -120 -7 -33 -16 -45 -43 -58 -18 -9 -40 -16 -48
-16 -8 0 -15 -4 -15 -10 0 -5 7 -10 15 -10 24 0 85 -33 85 -46 0 -20 22 -64
32 -64 4 0 8 6 8 13 0 31 32 76 62 86 70 25 110 5 140 -68 l14 -35 25 49 c19
39 31 52 57 59 37 10 38 30 2 32 -51 3 -85 90 -57 148 11 23 26 36 56 46 23 7
41 16 41 20 0 4 -18 13 -41 20 -40 14 -52 28 -74 95 -8 22 -7 23 -36 -53 -5
-12 -24 -30 -43 -39 -33 -15 -38 -15 -80 1 -40 16 -63 44 -70 88 -4 23 -16 13
-28 -23z m34 -53 c2 -15 23 -25 89 -44 96 -27 109 -40 109 -113 0 -58 -34 -89
-98 -89 -56 0 -86 22 -97 69 -10 45 12 106 44 118 26 11 25 11 -10 12 -32 1
-37 -2 -47 -31 -9 -30 -10 -31 -11 -7 -1 14 4 30 11 37 9 9 9 15 0 24 -7 7
-12 23 -12 37 0 28 16 18 22 -13z m228 -2 c0 -22 -47 -44 -72 -35 -22 9 -21
10 8 10 27 1 32 5 38 34 5 25 9 29 16 17 5 -8 10 -20 10 -26z m-270 -34 c0
-13 -20 -13 -40 0 -12 8 -9 10 13 10 15 0 27 -4 27 -10z m330 0 c0 -5 -11 -10
-25 -10 -14 0 -25 5 -25 10 0 6 11 10 25 10 14 0 25 -4 25 -10z m-68 -51 l-9
-24 -7 23 c-8 26 2 48 15 35 6 -6 6 -19 1 -34z m-222 -133 c0 -18 8 -27 28
-34 23 -8 24 -11 9 -17 -12 -5 -23 0 -37 16 -21 26 -27 59 -10 59 6 0 10 -11
10 -24z m258 -60 c-8 -6 -21 -21 -30 -34 l-16 -23 -6 26 c-4 14 -10 25 -14 25
-4 0 -13 4 -21 9 -11 7 -8 15 15 39 l29 29 28 -31 c24 -24 26 -32 15 -40z
m-298 14 c0 -22 -8 -25 -30 -10 -13 9 -13 11 0 20 22 15 30 12 30 -10z m40
-52 c0 -34 -13 -29 -25 10 -5 16 -2 22 9 22 11 0 16 -10 16 -32z"/>
<path d="M5182 2964 c2 -11 11 -20 22 -22 13 -3 17 1 14 14 -2 11 -11 20 -22
22 -13 3 -17 -1 -14 -14z"/>
<path d="M5740 3266 c0 -8 5 -18 10 -21 6 -3 10 3 10 14 0 12 -4 21 -10 21 -5
0 -10 -6 -10 -14z"/>
<path d="M5480 2960 c0 -13 7 -20 20 -20 13 0 20 7 20 20 0 13 -7 20 -20 20
-13 0 -20 -7 -20 -20z"/>
<path d="M3722 2854 c-29 -20 -28 -45 3 -74 l25 -23 25 23 c30 28 31 44 5 70
-24 24 -29 24 -58 4z"/>
<path d="M4792 2854 c-30 -21 -28 -59 3 -80 24 -16 27 -16 46 2 25 22 22 62
-6 80 -18 12 -24 11 -43 -2z"/>
<path d="M4246 2841 c-19 -21 -12 -45 18 -71 22 -17 66 12 66 43 0 47 -52 64
-84 28z"/>
<path d="M6220 3276 l0 -774 68 -6 c37 -3 450 -5 918 -3 l851 2 31 25 c117 96
486 438 544 504 154 176 173 231 120 339 -17 34 -51 85 -74 114 -49 58 -269
268 -402 382 -49 42 -115 99 -147 127 -32 28 -73 54 -90 58 -17 3 -434 6 -925
6 l-894 0 0 -774z m1832 745 c13 -5 50 -33 84 -62 433 -381 543 -491 593 -589
17 -35 31 -78 31 -97 0 -94 -140 -257 -479 -558 -196 -174 -222 -195 -244
-195 -12 -1 -420 -1 -907 -1 l-885 1 -3 755 -2 755 894 0 c494 0 905 -4 918
-9z"/>
<path d="M6950 3815 l0 -75 -75 0 c-43 0 -75 -4 -75 -10 0 -6 32 -10 75 -10
l75 0 0 -71 c0 -44 4 -68 10 -64 6 3 10 35 10 71 l0 64 69 0 c39 0 73 5 76 10
4 6 -22 10 -69 10 l-76 0 0 75 c0 43 -4 75 -10 75 -6 0 -10 -32 -10 -75z"/>
<path d="M7800 3816 l0 -76 -81 0 c-51 0 -78 -4 -74 -10 3 -5 40 -10 81 -10
l74 0 1 -77 c1 -91 17 -73 18 20 l1 57 70 0 c40 0 70 4 70 10 0 6 -30 10 -70
10 l-70 0 0 69 c0 39 -4 73 -10 76 -6 4 -10 -22 -10 -69z"/>
<path d="M6520 3355 l0 -75 -70 0 c-40 0 -70 -4 -70 -10 0 -6 30 -10 70 -10
l70 0 0 -75 c0 -43 4 -75 10 -75 6 0 10 32 10 75 l0 75 81 0 c51 0 78 4 74 10
-3 6 -40 10 -81 10 l-74 0 0 75 c0 43 -4 75 -10 75 -6 0 -10 -32 -10 -75z"/>
<path d="M7378 3395 c-4 -22 -8 -57 -8 -77 l0 -38 -75 0 c-43 0 -75 -4 -75
-10 0 -6 32 -10 75 -10 l75 0 0 -69 c0 -39 5 -73 10 -76 6 -4 10 22 10 69 l0
76 75 0 c43 0 75 4 75 10 0 6 -32 10 -75 10 l-74 0 -3 78 c-3 67 -4 72 -10 37z"/>
<path d="M8220 3355 l0 -75 -75 0 c-43 0 -75 -4 -75 -10 0 -6 32 -10 75 -10
l75 0 0 -76 c0 -47 4 -73 10 -69 6 3 10 37 10 76 l0 69 69 0 c39 0 73 5 76 10
4 6 -22 10 -69 10 l-76 0 0 75 c0 43 -4 75 -10 75 -6 0 -10 -32 -10 -75z"/>
<path d="M6950 2905 l0 -75 -75 0 c-43 0 -75 -4 -75 -10 0 -6 32 -10 75 -10
l75 0 0 -75 c0 -43 4 -75 10 -75 6 0 10 32 10 75 l0 75 75 0 c43 0 75 4 75 10
0 6 -32 10 -75 10 l-75 0 0 75 c0 43 -4 75 -10 75 -6 0 -10 -32 -10 -75z"/>
<path d="M7800 2908 l0 -78 -80 0 c-103 0 -105 -18 -2 -22 l77 -3 3 -73 c4
-93 22 -86 22 9 l0 69 70 0 c40 0 70 4 70 10 0 6 -30 10 -70 10 l-70 0 0 63
c0 34 -5 69 -10 77 -7 10 -10 -9 -10 -62z"/>
<path d="M1048 2117 c-26 -20 -118 -159 -118 -178 0 -18 27 -29 77 -29 25 0
32 -5 35 -22 5 -40 35 -33 59 13 19 38 20 44 6 54 -12 8 -17 33 -19 90 -3 80
-11 94 -40 72z m-16 -159 c-6 -6 -19 -7 -31 -3 -20 6 -20 7 7 48 l27 41 3 -38
c2 -21 -1 -43 -6 -48z"/>
<path d="M3951 2070 c-19 -90 -18 -92 39 -84 46 6 50 5 59 -17 11 -30 -1 -63
-24 -67 -9 -2 -28 6 -41 19 -22 20 -26 21 -40 8 -13 -14 -12 -18 7 -43 18 -23
27 -27 67 -24 55 4 87 38 85 94 -1 45 -27 73 -75 80 -58 10 -49 32 15 36 44 3
52 6 52 23 0 18 -8 20 -67 23 l-66 3 -11 -51z"/>
<path d="M7089 2091 c-26 -26 -29 -36 -29 -90 0 -100 26 -141 89 -141 51 0 81
32 81 87 0 53 -37 87 -87 81 -36 -4 -42 7 -18 38 13 18 15 18 45 2 42 -24 50
-23 50 7 0 52 -84 62 -131 16z m86 -146 c0 -34 -3 -40 -22 -43 -17 -3 -26 3
-33 23 -13 35 4 67 33 63 18 -2 22 -10 22 -43z"/>
<path d="M217 1628 c-9 -227 -9 -1052 -1 -1235 l7 -153 911 0 912 0 31 23 c17
12 86 72 154 132 368 329 472 437 522 543 26 56 28 67 19 103 -20 78 -75 152
-227 304 -83 83 -191 184 -240 225 -50 41 -125 105 -167 141 -45 38 -91 69
-109 73 -17 3 -431 6 -919 6 l-887 0 -6 -162z m1834 126 c52 -27 378 -315 515
-455 96 -100 138 -151 162 -198 18 -35 32 -74 32 -85 0 -27 -40 -111 -74 -156
-46 -61 -225 -237 -385 -379 -211 -186 -223 -196 -248 -209 -16 -9 -259 -12
-916 -12 l-894 0 -6 83 c-9 108 -9 1149 0 1305 l6 122 889 0 c787 0 892 -2
919 -16z"/>
<path d="M774 1223 c-44 -126 -52 -143 -66 -143 -20 0 -188 -63 -188 -71 0 -4
10 -9 23 -12 12 -3 60 -19 106 -35 l83 -30 35 -106 c20 -58 38 -106 42 -106 4
0 22 45 40 100 22 69 39 105 54 114 12 8 61 27 109 42 80 26 110 44 75 44 -7
0 -55 17 -107 38 l-93 38 -35 102 c-19 56 -39 102 -43 102 -4 0 -19 -35 -35
-77z m66 -53 l28 -82 -28 -31 -29 -32 -31 31 -31 30 28 86 c15 47 30 84 31 83
2 -2 16 -40 32 -85z m-75 -130 l29 -30 -28 -29 -28 -29 -71 24 c-40 13 -79 27
-87 30 -9 4 17 17 65 34 44 16 83 29 86 29 3 1 18 -12 34 -29z m197 4 c78 -28
104 -44 73 -44 -11 0 -50 -11 -87 -24 l-66 -23 -30 30 -30 30 29 28 c16 16 32
29 34 29 2 0 37 -12 77 -26z m-119 -182 c-14 -43 -29 -81 -33 -85 -6 -7 -50
123 -50 151 0 7 10 26 22 42 l22 30 32 -31 32 -31 -25 -76z"/>
<path d="M1552 1218 c-16 -46 -32 -93 -36 -104 -5 -16 -32 -31 -111 -60 -58
-21 -105 -41 -105 -44 0 -4 47 -22 105 -41 l104 -34 37 -107 c21 -60 40 -108
43 -108 3 0 22 48 42 107 l35 107 107 35 c95 32 130 51 95 51 -6 0 -41 11 -77
25 -133 52 -123 42 -160 154 -19 55 -37 101 -41 101 -5 0 -21 -37 -38 -82z
m65 -41 c28 -90 28 -90 -1 -124 l-25 -28 -31 31 -31 30 28 86 c15 47 30 84 32
82 3 -2 15 -37 28 -77z m-72 -137 l29 -30 -24 -25 c-13 -14 -31 -25 -40 -25
-14 0 -97 25 -150 46 -13 5 117 62 146 63 5 1 23 -12 39 -29z m176 11 c127
-44 125 -39 29 -70 l-85 -28 -27 25 c-16 14 -28 29 -28 32 0 8 47 60 53 60 2
0 28 -9 58 -19z m-81 -121 c0 -20 -40 -142 -50 -153 -6 -7 -39 85 -52 143 -2
9 8 30 22 47 l25 31 28 -26 c15 -14 27 -33 27 -42z"/>
<path d="M3220 1015 l0 -775 917 0 916 0 36 27 c20 15 70 59 112 98 41 38 137
124 213 190 217 188 366 376 366 460 0 18 -14 60 -31 95 -39 78 -247 295 -424
443 -66 56 -147 125 -180 155 -32 30 -74 61 -92 68 -26 12 -195 14 -933 14
l-900 0 0 -775z m1827 744 c15 -5 61 -40 103 -77 41 -37 118 -104 170 -147
137 -115 359 -344 400 -411 28 -47 35 -69 35 -110 0 -46 -6 -60 -50 -125 -67
-98 -186 -221 -347 -360 -73 -63 -162 -141 -198 -175 -36 -33 -76 -68 -90 -77
-22 -16 -102 -17 -927 -17 l-903 0 0 755 0 755 889 0 c603 0 899 -3 918 -11z"/>
<path d="M4221 1388 c-34 -106 -65 -201 -69 -211 -6 -14 -66 -38 -220 -89
-187 -63 -244 -88 -198 -88 19 0 397 -127 407 -137 10 -10 126 -351 136 -395
3 -16 8 -28 12 -28 3 0 38 96 76 213 l70 212 195 67 c107 37 203 67 213 68 29
0 19 15 -20 28 -21 6 -117 38 -212 70 l-175 58 -70 212 c-39 117 -73 212 -76
212 -4 0 -34 -87 -69 -192z m135 -52 l62 -184 -64 -63 -64 -63 -63 62 -63 63
52 161 c29 89 56 175 60 191 3 15 9 26 12 22 3 -3 34 -88 68 -189z m-143 -388
l-62 -61 -178 58 c-98 31 -181 60 -185 64 -5 4 74 34 175 68 l182 61 65 -64
65 -64 -62 -62z m552 78 l40 -17 -90 -30 c-49 -16 -134 -43 -188 -60 l-99 -32
-61 61 -62 62 63 63 63 64 147 -47 c81 -26 165 -55 187 -64z m-410 -96 l61
-60 -58 -173 c-32 -94 -61 -179 -64 -187 -3 -8 -34 68 -68 170 l-61 185 60 63
c32 34 62 62 64 62 3 0 33 -27 66 -60z"/>
<path d="M6220 1010 l0 -780 913 0 914 0 39 29 c21 15 48 38 59 51 11 13 108
100 215 195 204 179 315 292 378 383 33 49 37 61 37 116 -1 102 -24 137 -234
347 -102 102 -226 219 -275 260 -49 41 -110 91 -135 112 -86 72 -16 67 -1011
67 l-900 0 0 -780z m140 756 c0 -2 -19 -11 -42 -19 -24 -8 -51 -18 -60 -22
-15 -6 -18 -2 -18 19 0 25 2 26 60 26 33 0 60 -2 60 -4z m118 -33 l-36 -36
-25 29 -26 29 42 6 c85 12 85 12 45 -28z m631 33 c-2 -2 -50 -20 -107 -41 -57
-21 -100 -41 -95 -45 4 -4 53 -23 107 -42 l99 -35 33 -94 c18 -52 33 -102 34
-111 0 -41 17 -11 48 87 19 57 41 110 50 118 10 7 59 29 109 47 51 18 90 37
87 42 -3 5 -12 7 -20 4 -7 -3 -16 -1 -19 4 -3 4 -42 21 -88 37 l-82 28 148 3
c81 1 213 1 295 0 l147 -3 -65 -22 c-103 -34 -157 -60 -140 -66 8 -3 58 -21
110 -39 l95 -33 33 -95 c18 -52 37 -104 41 -115 6 -16 16 3 42 85 18 58 37
110 42 117 5 7 32 21 60 31 105 39 95 41 209 -57 57 -49 165 -149 241 -222
l137 -134 -31 -85 -32 -86 -108 -34 c-60 -19 -109 -37 -109 -40 0 -3 50 -21
110 -40 l110 -35 17 -53 17 -53 -70 -70 c-58 -60 -253 -237 -419 -382 l-43
-37 -43 18 c-43 18 -45 21 -79 117 -20 54 -41 100 -47 102 -7 3 -25 -39 -45
-99 l-33 -103 -105 -37 c-143 -50 -230 -51 -357 -7 -48 17 -98 37 -110 44 -14
10 -32 46 -53 110 -17 52 -35 95 -40 95 -9 0 -44 -87 -62 -156 -13 -48 -18
-51 -162 -100 -74 -26 -213 -33 -258 -14 -13 5 -60 23 -105 40 l-82 31 -17 52
c-27 84 -56 147 -64 142 -5 -3 -22 -47 -40 -99 l-31 -94 -49 -21 c-86 -37 -80
-61 -80 295 0 303 1 315 19 309 10 -3 38 -11 62 -18 42 -12 45 -16 67 -77 43
-126 54 -151 61 -145 3 4 22 52 41 108 l35 101 107 35 c96 32 132 51 96 51 -7
0 -57 16 -110 36 l-97 37 -31 91 c-17 50 -34 98 -40 106 -10 16 -7 22 -56
-117 l-29 -82 -53 -21 c-30 -11 -58 -20 -63 -20 -5 0 -9 133 -9 316 l0 317 28
-6 c15 -3 43 -13 63 -21 34 -14 39 -22 75 -126 28 -80 41 -106 46 -93 4 10 22
61 40 113 l33 95 102 35 c96 33 131 50 105 50 -7 0 -13 -1 -14 -1 -2 -1 -21 7
-43 19 -22 11 -66 28 -98 37 -31 9 -57 18 -57 21 0 2 133 4 297 4 163 0 294
-2 292 -4z m113 -33 l-35 -37 -23 28 c-14 15 -22 32 -19 37 4 5 30 9 59 9 l53
0 -35 -37z m746 28 l23 -6 -30 -29 -30 -29 -25 29 -25 29 22 7 c27 8 36 8 65
-1z m-1572 -43 c30 -29 30 -36 -2 -69 l-25 -27 -52 20 c-91 34 -94 52 -11 82
54 20 63 19 90 -6z m198 1 c39 -11 75 -24 79 -29 5 -4 -28 -20 -73 -35 l-82
-27 -29 28 -29 28 27 28 c15 15 29 28 31 28 3 0 37 -9 76 -21z m556 -4 l23
-24 -28 -36 c-19 -26 -32 -34 -44 -30 -9 4 -41 16 -71 27 -30 11 -59 24 -63
28 -5 4 15 17 45 28 29 10 60 22 68 25 30 11 47 7 70 -18z m204 -1 l79 -27
-84 -32 -84 -32 -30 28 -29 29 29 30 c16 16 31 30 34 30 3 0 41 -12 85 -26z
m539 -2 l27 -28 -29 -28 c-33 -31 -40 -31 -137 5 -31 12 -53 24 -49 27 9 9
126 50 146 51 8 1 27 -12 42 -27z m193 4 c28 -13 54 -28 58 -34 3 -5 -26 -21
-64 -34 l-69 -25 -30 31 -31 32 27 27 c34 33 44 33 109 3z m-862 -180 c-13
-39 -27 -78 -30 -86 -6 -14 -53 117 -54 148 0 8 10 26 23 42 l22 28 32 -30 31
-30 -24 -72z m742 -10 c-15 -47 -29 -86 -31 -86 -2 0 -16 38 -31 86 l-27 85
29 30 28 29 30 -29 29 -29 -27 -86z m-1489 110 l28 -24 -28 -86 c-16 -47 -30
-86 -32 -86 -3 0 -16 39 -31 86 l-26 86 23 24 c28 30 31 30 66 0z m-2 -512
l28 -85 -29 -30 -28 -29 -23 22 c-35 33 -37 53 -7 133 14 41 28 75 29 75 1 0
15 -38 30 -86z m2256 -41 c9 -29 7 -36 -18 -68 l-28 -35 -33 33 -33 33 21 60
c12 32 24 66 26 74 6 17 47 -45 65 -97z m-2329 -135 c-30 -32 -49 -34 -112
-10 -62 24 -58 42 15 68 l60 22 31 -27 31 -26 -25 -27z m208 51 c30 -11 62
-22 70 -25 8 -3 -25 -18 -75 -35 l-90 -29 -28 30 -28 30 33 30 c19 17 39 27
48 24 8 -3 40 -15 70 -25z m2050 -29 c0 -3 -14 -17 -31 -29 l-31 -23 -79 23
c-43 13 -79 26 -79 29 0 3 37 17 83 31 l82 26 28 -26 c15 -13 27 -28 27 -31z
m100 28 c-1 -13 -6 -33 -13 -46 l-13 -23 -19 21 c-18 20 -18 21 5 45 29 31 40
32 40 3z m-2283 -183 c-16 -47 -30 -85 -32 -85 -2 0 -16 38 -31 85 l-28 85 29
30 29 30 30 -30 30 -30 -27 -85z m2228 115 c18 -20 18 -21 -12 -62 -17 -23
-35 -44 -40 -45 -5 -2 -15 15 -22 38 -12 38 -11 43 10 65 27 29 40 30 64 4z
m-2220 -616 c-24 -37 -43 -40 -73 -11 l-26 27 28 87 29 87 29 -82 c29 -79 29
-84 13 -108z m733 112 c28 -93 28 -97 -3 -126 l-26 -24 -29 30 -30 29 27 83
c15 45 30 82 33 82 3 0 15 -34 28 -74z m771 -87 c1 -8 -10 -26 -23 -38 -20
-19 -28 -21 -45 -12 -47 26 -47 49 6 201 5 15 61 -121 62 -151z m-1591 -50
l24 -29 -86 0 c-47 0 -86 3 -86 8 0 6 98 47 120 50 3 1 15 -12 28 -29z m261
-24 c2 -3 -40 -5 -94 -5 l-99 0 28 29 29 30 65 -25 c36 -13 68 -27 71 -29z
m481 28 l22 -28 -46 -3 c-73 -5 -145 2 -121 11 11 5 40 17 65 27 59 24 55 24
80 -7z m215 -7 l60 -21 -94 -3 c-51 -1 -96 0 -99 3 -11 10 42 56 58 49 8 -4
42 -16 75 -28z m533 3 l24 -29 -98 0 c-53 0 -94 3 -90 7 7 7 122 50 136 51 3
1 15 -12 28 -29z m158 15 c36 -15 37 -17 19 -30 -10 -8 -38 -14 -62 -14 l-44
0 23 30 c12 17 23 30 24 30 1 0 19 -7 40 -16z"/>
<path d="M7155 1178 c-45 -133 -40 -129 -154 -167 -56 -19 -101 -37 -101 -41
0 -3 48 -23 106 -42 l106 -36 29 -84 c17 -45 33 -93 36 -105 3 -13 8 -23 12
-23 3 0 22 46 41 101 22 64 42 106 55 114 11 7 59 26 107 41 48 16 88 31 88
34 0 3 -24 13 -53 22 -30 9 -78 28 -108 41 l-54 24 -35 102 c-18 55 -37 101
-41 101 -3 0 -19 -37 -34 -82z m67 -51 l27 -82 -29 -30 -30 -30 -30 30 -30 30
28 82 c15 46 29 83 32 83 3 -1 17 -38 32 -83z m-77 -127 l29 -30 -30 -30 -30
-30 -54 19 c-30 10 -68 24 -85 31 l-30 12 80 28 c44 16 83 29 86 29 3 1 18
-13 34 -29z m191 5 c38 -14 76 -28 84 -31 8 -3 -25 -18 -74 -35 -49 -16 -89
-28 -90 -27 0 2 -12 15 -25 31 l-25 27 29 30 c16 17 30 30 31 30 1 0 33 -11
70 -25z m-97 -139 c-5 -17 -13 -42 -19 -56 -5 -14 -15 -38 -21 -55 -12 -30
-12 -29 -39 55 l-27 85 26 31 26 31 32 -29 c28 -27 30 -33 22 -62z"/>
<path d="M7890 1153 l-35 -107 -107 -34 c-60 -19 -108 -38 -108 -42 0 -4 10
-10 23 -13 12 -3 60 -19 107 -35 l85 -31 33 -93 c18 -51 35 -99 38 -107 7 -22
14 -8 53 100 l36 102 103 35 c56 19 102 38 102 42 0 3 -47 23 -105 44 l-104
38 -17 52 c-31 96 -55 156 -62 156 -4 0 -23 -48 -42 -107z m72 -136 l-32 -32
-27 27 -27 28 23 72 c12 40 25 80 28 88 3 8 18 -21 36 -68 l30 -83 -31 -32z
m-73 -73 l-31 -32 -72 24 c-39 13 -78 27 -86 30 -8 3 22 17 70 33 l85 27 32
-25 32 -26 -30 -31z m211 55 c30 -11 62 -22 70 -25 8 -3 -22 -18 -70 -33 l-85
-28 -33 31 -33 31 31 28 c21 19 38 26 48 22 10 -4 42 -16 72 -26z m-114 -119
c-2 -14 -16 -55 -29 -90 l-24 -65 -29 87 -28 88 29 30 29 30 29 -27 c21 -21
27 -34 23 -53z"/>
</g>
</svg>
