<?xml version="1.0" standalone="no"?>
<!DOCTYPE svg PUBLIC "-//W3C//DTD SVG 20010904//EN"
 "http://www.w3.org/TR/2001/REC-SVG-20010904/DTD/svg10.dtd">
<svg version="1.0" xmlns="http://www.w3.org/2000/svg"
 width="996.000000pt" height="922.000000pt" viewBox="0 0 996.000000 922.000000"
 preserveAspectRatio="xMidYMid meet">
<metadata>
Created by potrace 1.16, written by Peter Selinger 2001-2019
</metadata>
<g transform="translate(0.000000,922.000000) scale(0.100000,-0.100000)"
fill="#FFFFFF" stroke="none">
<path d="M257 8803 c-9 -254 -9 -4507 0 -4635 l6 -98 2939 0 2938 0 0 2465 0
2465 -2938 0 -2939 0 -6 -197z m5863 -2268 l0 -2445 -2918 0 -2919 0 -6 123
c-9 162 -9 4304 -1 4565 l7 202 2919 0 2918 0 0 -2445z"/>
<path d="M1246 8448 c-54 -95 -72 -241 -42 -343 19 -62 8 -80 -64 -101 -78
-23 -126 -49 -183 -102 -41 -39 -117 -140 -117 -157 0 -3 20 -5 44 -5 115 0
237 47 322 123 30 27 62 47 75 47 13 0 43 -20 74 -49 62 -59 113 -86 197 -106
69 -16 158 -20 158 -7 0 22 -82 132 -122 165 -49 40 -135 83 -186 93 -18 4
-40 16 -48 29 -13 19 -13 30 1 86 19 82 19 140 0 214 -16 61 -62 155 -76 155
-5 0 -19 -19 -33 -42z m61 -101 c31 -90 16 -267 -23 -267 -32 0 -49 51 -49
145 0 89 26 192 46 180 4 -3 16 -29 26 -58z m-108 -391 c37 -44 -118 -150
-247 -170 -39 -6 -42 -5 -33 12 15 28 104 108 142 128 30 15 102 41 120 43 4
1 12 -5 18 -13z m230 -1 c62 -22 150 -83 182 -128 16 -22 27 -42 25 -44 -7 -7
-128 28 -168 48 -52 27 -118 87 -118 108 0 35 17 38 79 16z"/>
<path d="M4420 8458 c-20 -32 -60 -148 -60 -172 0 -7 -19 -23 -42 -36 -102
-57 -158 -151 -158 -265 0 -46 -4 -54 -41 -90 -42 -42 -99 -124 -99 -143 0
-18 77 -14 165 8 l77 20 29 -24 c43 -37 93 -49 175 -44 61 4 83 11 125 37 l52
32 41 -17 c48 -19 196 -32 196 -17 0 19 -77 129 -110 157 -31 26 -34 33 -36
90 -2 104 -54 191 -150 252 -45 29 -52 38 -57 73 -5 43 -64 171 -79 171 -4 0
-17 -15 -28 -32z m54 -105 c24 -69 22 -73 -30 -73 -33 0 -45 4 -42 13 3 6 13
36 22 65 10 28 21 50 26 47 4 -3 15 -26 24 -52z m23 -108 c3 -9 -1 -48 -8 -88
-12 -60 -18 -73 -35 -75 -27 -4 -45 35 -52 116 l-5 62 47 0 c33 0 48 -5 53
-15z m-118 -155 c12 -37 -15 -75 -61 -85 -27 -6 -66 -22 -132 -53 -5 -3 -7 23
-4 59 8 99 50 165 138 218 l35 21 7 -66 c3 -36 11 -78 17 -94z m265 79 c47
-53 76 -122 76 -186 0 -33 -8 -41 -26 -24 -5 5 -44 21 -86 36 -43 15 -82 33
-88 40 -7 9 -6 32 5 76 8 35 15 81 15 102 l0 38 29 -15 c15 -8 49 -38 75 -67z
m-275 -213 c6 -7 9 -21 5 -29 -5 -14 -86 -81 -121 -101 -11 -6 -53 50 -53 72
0 13 49 40 105 58 52 16 51 16 64 0z m221 -2 c45 -12 110 -46 110 -57 0 -5
-12 -25 -26 -44 l-25 -33 -32 21 c-52 36 -97 82 -97 99 0 22 10 31 29 26 9 -2
27 -8 41 -12z m-55 -103 c31 -28 61 -51 66 -51 24 0 4 -22 -41 -45 -57 -29
-135 -35 -196 -15 -43 14 -84 38 -84 50 0 4 10 12 23 17 12 6 46 31 74 56 66
57 85 56 158 -12z m-335 0 c11 -22 17 -42 12 -44 -12 -8 -125 -27 -130 -23 -4
4 87 106 94 106 2 0 13 -18 24 -39z m570 -11 c24 -28 40 -53 38 -56 -7 -6
-111 16 -122 26 -7 7 28 80 39 80 2 0 22 -23 45 -50z"/>
<path d="M2778 8270 c-74 -22 -170 -114 -188 -179 -5 -20 -10 -65 -10 -101 0
-85 30 -151 97 -211 58 -52 105 -69 190 -69 119 0 237 87 269 199 54 183 -85
372 -271 370 -33 0 -72 -4 -87 -9z m197 -34 c55 -25 93 -64 128 -130 30 -58
31 -174 0 -232 -67 -127 -228 -180 -358 -118 -59 27 -98 68 -126 129 -25 55
-25 166 0 220 25 53 96 121 146 139 63 23 151 20 210 -8z"/>
<path d="M2811 8054 c-41 -34 -42 -75 -2 -115 34 -33 51 -36 92 -12 55 32 57
93 5 135 -30 25 -60 22 -95 -8z"/>
<path d="M2736 7009 c-112 -27 -252 -138 -308 -246 -46 -88 -62 -161 -56 -259
12 -190 141 -368 315 -434 70 -28 196 -37 274 -21 158 33 300 152 359 301 104
263 -49 575 -319 654 -60 17 -200 20 -265 5z m277 -30 c126 -42 211 -118 272
-243 66 -135 66 -273 1 -411 -38 -80 -92 -140 -176 -194 -165 -107 -404 -91
-550 36 -337 295 -142 831 303 833 63 0 105 -6 150 -21z"/>
<path d="M2819 6597 c-27 -18 -35 -30 -37 -60 -6 -75 80 -116 133 -62 37 36
34 86 -6 119 -37 32 -47 32 -90 3z"/>
<path d="M4310 7004 c-75 -20 -134 -56 -212 -132 -102 -98 -139 -190 -139
-345 0 -139 36 -229 131 -331 63 -68 115 -101 206 -132 70 -23 90 -26 174 -21
117 5 199 36 286 106 228 184 246 516 40 726 -97 99 -210 145 -350 144 -45 0
-106 -7 -136 -15z m279 -23 c33 -10 80 -30 103 -44 49 -29 152 -133 144 -146
-3 -4 -35 -11 -70 -13 -83 -7 -179 -51 -244 -112 -27 -26 -59 -46 -71 -46 -12
0 -52 25 -88 55 -79 65 -151 95 -252 104 l-74 6 64 66 c67 69 117 100 209 130
75 24 201 24 279 0z m-545 -259 c21 -40 107 -125 158 -155 24 -14 69 -32 99
-41 31 -9 64 -25 72 -34 15 -16 15 -23 2 -66 -28 -93 -15 -239 29 -324 10 -19
15 -36 12 -39 -11 -11 -119 17 -184 48 -113 54 -207 171 -242 299 -20 73 -15
199 10 274 12 37 23 66 26 66 2 0 10 -12 18 -28z m193 -17 c55 -25 143 -99
143 -121 0 -32 -90 -19 -159 24 -34 20 -131 114 -131 125 0 15 91 -3 147 -28z
m543 -5 c-52 -66 -179 -140 -239 -140 -38 0 -33 31 12 75 63 60 154 101 230
104 l29 1 -32 -40z m115 -12 c10 -29 20 -91 22 -138 8 -142 -47 -275 -154
-370 -59 -53 -177 -109 -244 -117 l-51 -6 21 41 c27 54 51 145 51 197 0 22 -7
71 -15 110 -18 86 -15 90 102 135 87 33 152 83 208 159 17 22 33 41 36 41 3 0
14 -24 24 -52z m-414 -275 c19 -47 16 -172 -5 -235 -10 -32 -22 -58 -27 -58
-20 0 -44 98 -43 180 0 97 14 140 44 140 13 0 24 -10 31 -27z"/>
<path d="M850 6759 c22 -40 98 -134 128 -156 44 -32 124 -71 164 -78 20 -4 45
-17 56 -28 19 -21 20 -25 6 -77 -29 -111 -14 -232 43 -344 24 -48 26 -49 40
-30 46 61 83 175 83 254 0 25 -7 74 -15 109 -15 63 -15 65 6 88 13 12 28 23
35 23 32 0 129 45 174 81 49 39 140 150 140 171 0 7 -32 9 -88 6 -106 -5 -195
-42 -270 -112 -27 -26 -59 -46 -71 -46 -12 0 -52 25 -88 55 -86 71 -153 97
-267 103 l-88 5 12 -24z m213 -53 c53 -24 126 -77 140 -101 4 -7 4 -21 1 -30
-5 -13 -14 -15 -43 -10 -66 12 -135 53 -196 116 l-60 61 53 -6 c29 -4 77 -17
105 -30z m545 -8 c-46 -56 -116 -103 -185 -125 -53 -17 -56 -17 -69 2 -12 17
-11 22 9 43 54 59 179 120 251 121 l29 1 -35 -42z m-301 -280 c27 -52 23 -189
-6 -253 l-23 -50 -19 40 c-37 82 -37 237 2 276 25 25 26 25 46 -13z"/>
<path d="M3655 5728 c-3 -7 -4 -310 -3 -673 l3 -660 796 0 795 0 35 29 c95 80
287 254 392 356 126 122 192 209 203 266 10 57 -41 148 -147 258 -90 94 -432
401 -472 423 -32 18 -1596 18 -1602 1z m1605 -25 c30 -20 227 -192 368 -322
160 -147 240 -261 228 -329 -8 -51 -60 -123 -173 -238 -104 -107 -399 -371
-439 -392 -18 -9 -191 -12 -796 -10 l-773 3 -3 610 c-2 336 0 629 3 653 l6 42
777 0 c711 0 780 -1 802 -17z"/>
<path d="M1237 5503 c-36 -83 -40 -98 -46 -195 l-6 -87 -54 34 c-30 19 -83 41
-122 49 -67 16 -169 22 -169 10 0 -3 16 -30 36 -60 46 -69 122 -137 179 -160
25 -11 45 -21 45 -24 0 -3 -24 -18 -53 -33 -64 -33 -129 -93 -168 -155 -45
-70 -41 -76 41 -68 86 9 167 36 226 75 l44 30 0 -72 c0 -40 6 -95 14 -123 16
-60 59 -149 72 -149 5 0 27 36 49 79 38 75 40 85 40 171 l0 90 55 -33 c30 -18
77 -39 105 -47 58 -18 185 -31 185 -20 0 4 -14 31 -30 61 -37 64 -112 133
-182 168 l-51 25 47 21 c56 23 144 104 186 170 16 26 30 50 30 55 0 4 -39 5
-87 2 -77 -5 -98 -11 -173 -49 l-85 -43 3 46 c2 25 -1 72 -7 105 -13 68 -66
184 -85 184 -7 0 -25 -26 -39 -57z m57 -51 c8 -16 20 -58 26 -94 13 -75 0
-172 -26 -198 -41 -40 -76 91 -55 207 10 57 29 113 37 113 2 0 10 -13 18 -28z
m-299 -187 c86 -14 226 -113 212 -149 -17 -43 -159 13 -237 94 -52 53 -62 75
-32 67 9 -3 35 -8 57 -12z m627 -12 c-82 -113 -272 -201 -272 -126 0 17 53 66
105 98 39 23 130 53 168 54 17 1 17 -1 -1 -26z m-415 -229 c16 -43 -146 -149
-249 -161 l-52 -6 29 35 c52 61 125 112 205 141 30 11 61 7 67 -9z m238 -5
c30 -11 77 -38 104 -59 48 -38 97 -97 89 -105 -8 -8 -116 24 -161 46 -60 30
-127 87 -127 108 0 37 18 39 95 10z m-136 -71 c26 -85 20 -203 -16 -272 l-16
-31 -21 45 c-17 36 -21 65 -20 145 0 107 11 145 44 145 12 0 22 -11 29 -32z"/>
<path d="M2745 5546 c-120 -29 -267 -141 -317 -241 -77 -151 -77 -318 -2 -467
34 -66 130 -167 192 -201 85 -46 154 -60 273 -55 100 4 113 7 185 42 143 71
236 194 270 355 17 85 9 171 -26 264 -86 230 -336 361 -575 303z m270 -31
c171 -58 283 -197 317 -393 22 -127 -33 -284 -133 -385 -68 -68 -173 -121
-266 -136 -143 -22 -325 38 -415 138 -50 55 -102 153 -117 221 -25 108 -6 246
46 343 52 94 178 189 294 222 68 19 204 14 274 -10z"/>
<path d="M2805 5351 c-86 -22 -173 -92 -206 -165 -27 -60 -26 -183 2 -239 27
-54 83 -113 134 -140 32 -17 57 -22 125 -22 102 0 142 18 212 93 103 110 102
267 -3 386 -57 66 -185 108 -264 87z m161 -36 c44 -18 112 -82 135 -126 25
-51 34 -134 19 -189 -17 -65 -79 -143 -137 -171 -39 -19 -63 -24 -128 -23 -95
0 -122 12 -186 81 -59 63 -73 105 -67 205 4 67 9 85 34 121 76 107 215 150
330 102z"/>
<path d="M2845 5148 c-72 -39 -87 -98 -34 -142 40 -34 64 -33 100 3 34 35 40
89 12 113 -34 29 -57 37 -78 26z"/>
<path d="M6360 6045 l0 -265 200 0 200 0 0 30 0 30 -162 2 -163 3 -3 87 -3 87
148 3 148 3 0 30 0 30 -148 3 -148 3 3 77 3 77 155 5 155 5 0 25 0 25 -192 3
-193 2 0 -265z"/>
<path d="M6860 6033 c-27 -14 -36 -25 -38 -48 l-3 -30 30 33 c16 17 38 32 49
32 21 0 52 -29 52 -49 0 -7 -31 -45 -70 -86 -38 -41 -70 -81 -70 -89 0 -13 15
-16 85 -16 69 0 85 3 85 15 0 12 -13 15 -60 15 -33 0 -60 3 -60 6 0 3 27 32
60 64 48 46 60 64 60 89 0 29 -29 71 -49 71 -5 0 -15 2 -23 5 -7 3 -29 -3 -48
-12z"/>
<path d="M8229 3848 c-29 -23 -109 -139 -109 -158 0 -14 11 -20 45 -25 31 -5
46 -13 50 -26 8 -24 34 -25 42 -1 3 9 13 25 21 34 13 16 13 18 -2 24 -12 5
-16 20 -17 63 -1 31 -4 66 -7 79 -6 20 -9 21 -23 10z m-13 -113 c-5 -26 -12
-35 -26 -35 -26 0 -25 14 2 50 26 36 33 32 24 -15z"/>
<path d="M927 3811 c-44 -41 -45 -62 -2 -43 l25 12 0 -80 c0 -79 0 -80 25 -80
l25 0 0 115 c0 134 -5 139 -73 76z"/>
<path d="M3322 3830 c-12 -11 -22 -27 -22 -35 0 -20 29 -19 51 1 21 19 49 12
49 -11 0 -9 -25 -45 -55 -80 -30 -36 -55 -70 -55 -75 0 -6 34 -10 80 -10 73 0
80 2 80 20 0 17 -7 20 -40 20 -22 0 -40 4 -40 8 0 5 13 21 29 36 16 16 35 42
42 58 10 25 9 33 -8 56 -26 36 -79 41 -111 12z"/>
<path d="M5742 3834 c-24 -17 -30 -54 -8 -54 7 0 19 7 26 15 15 18 36 19 46 3
4 -6 -4 -21 -21 -34 l-27 -22 28 -13 c20 -10 29 -22 29 -39 0 -31 -29 -38 -56
-14 -15 14 -21 15 -34 4 -14 -12 -13 -16 6 -37 45 -47 129 -18 129 44 0 14 -8
35 -17 45 -13 14 -14 21 -5 30 31 31 -4 88 -53 88 -11 0 -31 -7 -43 -16z"/>
<path d="M299 3543 l-37 -4 -7 -359 c-4 -198 -4 -499 0 -670 l7 -310 794 0
794 0 90 78 c411 355 540 498 540 597 0 54 -67 153 -180 265 -102 102 -342
315 -422 375 l-40 30 -751 1 c-414 1 -768 0 -788 -3z m1412 -19 l142 -7 53
-46 c29 -25 95 -82 146 -126 179 -153 280 -250 327 -315 88 -119 96 -149 60
-226 -27 -56 -181 -223 -309 -335 -52 -45 -126 -112 -165 -147 -123 -113 -19
-102 -907 -102 l-778 0 0 649 c0 510 3 650 13 654 20 7 1267 8 1418 1z"/>
<path d="M960 3405 c-157 -35 -316 -155 -378 -286 -41 -86 -66 -213 -58 -293
14 -130 93 -286 188 -372 76 -68 251 -134 358 -134 110 0 279 65 362 139 155
138 224 385 160 573 -93 271 -367 433 -632 373z m212 -16 c134 -28 267 -119
339 -231 202 -315 28 -725 -341 -803 -88 -19 -116 -19 -205 0 -206 43 -350
186 -405 401 -25 97 -25 141 0 238 28 109 72 186 146 256 127 118 308 172 466
139z"/>
<path d="M1005 3360 c-64 -10 -139 -36 -190 -65 -65 -37 -162 -146 -198 -222
-28 -60 -32 -80 -35 -170 -6 -155 30 -256 127 -364 99 -111 207 -159 357 -159
120 0 202 25 283 86 131 98 194 206 211 359 10 98 0 168 -38 250 -36 75 -142
191 -209 227 -90 49 -214 72 -308 58z m30 -37 c-36 -86 -48 -129 -53 -197 l-7
-80 -68 112 c-57 92 -67 115 -57 127 15 18 123 54 164 54 23 1 27 -2 21 -16z
m219 -17 c57 -25 58 -27 44 -48 -8 -13 -42 -66 -74 -118 l-59 -95 -6 86 c-4
62 -13 101 -32 143 -15 32 -27 61 -27 64 0 12 101 -9 154 -32z m-160 -67 c38
-94 28 -279 -14 -279 -34 0 -52 43 -53 127 -2 77 24 193 42 193 5 0 16 -19 25
-41z m-186 -120 c39 -63 79 -132 88 -152 18 -37 17 -38 -3 -58 -11 -11 -33
-21 -49 -22 -92 -3 -321 5 -332 12 -11 7 -12 19 -2 65 18 90 72 185 141 251
56 54 61 56 73 39 7 -11 45 -71 84 -135z m499 78 c28 -29 64 -80 81 -113 34
-68 60 -170 46 -183 -7 -8 -283 -17 -346 -12 -25 2 -58 40 -51 60 3 9 47 84
97 167 71 119 94 150 106 144 9 -5 39 -33 67 -63z m-558 -330 c21 -2 15 -8
-37 -40 -55 -34 -152 -134 -152 -158 0 -5 -4 -9 -10 -9 -14 0 -50 125 -50 174
l0 41 113 -3 c61 -1 123 -4 136 -5z m688 -57 c-5 -59 -33 -150 -47 -150 -4 0
-11 10 -17 23 -19 41 -65 88 -136 138 l-70 49 138 0 138 0 -6 -60z m-537 11
c0 -27 -73 -89 -144 -121 -65 -30 -146 -48 -146 -32 0 19 122 124 172 147 66
31 118 33 118 6z m266 -10 c34 -16 84 -51 112 -80 74 -74 70 -82 -24 -57 -68
18 -144 60 -184 101 -64 66 -10 86 96 36z m-146 -58 c37 -47 161 -286 156
-299 -9 -23 -116 -48 -206 -48 -83 0 -193 24 -205 44 -6 9 136 282 163 313 23
26 67 22 92 -10z m-207 -151 c-89 -164 -74 -150 -121 -116 -49 36 -114 113
-106 125 3 5 19 9 35 9 52 0 157 31 201 60 24 16 44 29 46 29 2 1 -23 -47 -55
-107z m427 29 c25 -6 64 -11 88 -11 23 0 42 -4 42 -9 0 -20 -154 -161 -164
-150 -6 7 -126 229 -126 234 0 2 26 -9 58 -25 31 -16 77 -34 102 -39z"/>
<path d="M2674 3541 c-2 -2 -4 -305 -4 -673 l0 -668 799 0 799 0 229 204 c361
322 433 428 373 545 -31 63 -115 160 -213 250 -134 122 -317 282 -358 314
l-36 27 -792 3 c-436 1 -795 0 -797 -2z m1606 -34 c46 -32 413 -363 461 -415
64 -70 109 -136 126 -185 12 -34 11 -43 -7 -84 -40 -91 -145 -203 -413 -442
-71 -63 -142 -125 -160 -138 l-31 -23 -783 0 -783 0 0 650 0 650 273 2 c149 2
502 2 784 2 438 -2 514 -4 533 -17z"/>
<path d="M3348 3346 c-91 -24 -228 -130 -288 -221 -42 -64 -65 -154 -64 -255
2 -150 48 -254 162 -362 66 -63 116 -92 199 -113 223 -58 466 51 568 253 97
193 64 397 -91 561 -71 76 -122 108 -213 135 -65 19 -205 20 -273 2z m281 -25
c233 -73 377 -329 316 -564 -23 -87 -61 -155 -124 -218 -229 -229 -617 -167
-755 121 -67 140 -69 282 -6 418 51 108 169 208 295 248 62 20 203 17 274 -5z"/>
<path d="M3392 3144 c-24 -9 -70 -41 -103 -71 -71 -66 -95 -128 -87 -228 7
-78 34 -131 98 -189 112 -100 258 -100 370 0 69 63 92 111 98 205 4 63 1 82
-18 120 -28 56 -94 125 -145 151 -53 28 -155 33 -213 12z m176 -19 c63 -19
143 -95 168 -161 25 -66 15 -170 -22 -231 -33 -53 -107 -108 -167 -124 -123
-33 -270 47 -312 170 -45 132 8 265 129 328 70 36 125 41 204 18z"/>
<path d="M3435 2929 c-42 -37 -45 -66 -9 -108 19 -23 34 -31 59 -31 25 0 40 8
59 31 40 47 33 83 -24 122 -34 23 -44 22 -85 -14z"/>
<path d="M5080 2870 l0 -670 803 0 803 0 84 78 c47 43 119 107 160 141 226
188 380 374 380 459 0 35 -60 136 -125 209 -61 70 -415 386 -474 424 l-45 29
-793 0 -793 0 0 -670z m1615 631 c62 -39 351 -297 456 -409 86 -89 139 -174
139 -219 0 -78 -152 -259 -370 -440 -47 -38 -120 -102 -164 -142 l-78 -71
-789 0 -789 0 0 650 0 650 783 0 c749 0 783 -1 812 -19z"/>
<path d="M5855 3363 c-118 -15 -232 -73 -315 -159 -72 -75 -107 -145 -126
-257 -13 -71 -13 -92 0 -159 45 -236 245 -408 474 -408 263 0 460 171 502 435
29 180 -87 398 -258 488 -85 45 -200 70 -277 60z m15 -28 c0 -4 -7 -20 -17
-38 -43 -84 -56 -222 -28 -312 8 -27 13 -50 12 -51 -1 -1 -27 4 -57 12 -101
26 -238 11 -317 -36 l-33 -19 0 28 c0 49 38 155 78 217 32 50 105 117 161 149
55 31 201 67 201 50z m240 -42 c132 -64 223 -183 254 -333 7 -36 12 -66 11
-68 -1 -2 -19 7 -38 18 -81 48 -208 62 -320 36 -57 -13 -57 -13 -51 8 39 120
28 259 -27 355 l-20 34 58 -7 c36 -4 87 -20 133 -43z m-183 -60 c12 -32 18
-74 18 -128 0 -91 -17 -145 -46 -145 -52 0 -62 196 -16 297 15 33 23 29 44
-24z m-173 -323 c50 -11 74 -33 57 -53 -16 -20 -131 -40 -183 -32 -59 9 -138
35 -138 45 0 8 64 35 105 43 36 8 119 7 159 -3z m523 -20 l48 -22 -52 -18
c-75 -27 -152 -34 -216 -20 -63 13 -86 32 -67 55 33 39 204 42 287 5z m-762
-82 c70 -28 175 -34 255 -15 36 9 66 15 67 13 1 -1 -5 -26 -14 -55 -22 -78
-14 -197 20 -281 14 -35 24 -66 21 -69 -10 -10 -115 19 -177 48 -65 31 -150
108 -189 171 -28 47 -68 158 -68 194 0 23 3 27 18 21 9 -4 40 -16 67 -27z
m855 8 c0 -46 -41 -154 -79 -212 -66 -98 -205 -185 -320 -200 l-55 -7 22 36
c51 86 65 211 38 317 -8 30 -13 56 -12 58 2 1 32 -5 67 -14 82 -21 188 -13
267 20 73 30 72 30 72 2z m-430 -98 c8 -29 10 -73 6 -107 -7 -65 -34 -151 -46
-151 -12 0 -38 84 -46 146 -8 63 11 160 34 173 24 14 38 -2 52 -61z"/>
<path d="M7500 2870 l0 -670 794 0 795 0 70 58 c195 159 474 429 523 504 88
138 30 239 -307 537 -104 92 -212 184 -238 204 l-49 37 -794 0 -794 0 0 -670z
m1611 632 c36 -23 314 -268 412 -361 43 -42 98 -105 123 -142 84 -122 70 -184
-74 -340 -72 -78 -378 -356 -453 -412 l-36 -27 -781 0 -782 0 0 650 0 650 783
0 c727 0 784 -1 808 -18z"/>
<path d="M8290 3338 c-22 -36 -53 -130 -65 -193 -6 -33 -15 -45 -53 -70 -63
-41 -104 -109 -110 -183 -4 -55 -7 -59 -64 -111 -51 -47 -118 -139 -118 -164
0 -15 132 4 207 29 l72 24 36 -21 35 -21 -31 -59 c-17 -32 -48 -77 -67 -100
-47 -54 -141 -115 -192 -124 -109 -18 -10 -25 381 -25 277 0 418 3 414 10 -3
6 -14 10 -24 10 -34 0 -156 69 -198 112 -41 43 -113 152 -113 172 0 6 17 19
38 29 36 17 39 17 91 -3 56 -22 196 -44 213 -34 22 14 -91 164 -152 201 -21
12 -25 21 -22 47 8 67 -15 117 -88 188 -64 64 -69 71 -84 140 -14 63 -67 178
-81 178 -3 0 -14 -15 -25 -32z m68 -175 l5 -43 -48 0 -48 0 6 44 c4 24 14 63
24 87 l17 43 19 -44 c11 -25 22 -64 25 -87z m2 -95 c0 -58 -19 -108 -40 -108
-11 0 -24 9 -30 20 -13 25 -29 108 -22 115 3 3 25 5 49 5 42 0 43 -1 43 -32z
m133 -51 c37 -46 57 -94 57 -140 0 -19 -4 -28 -12 -24 -7 2 -39 13 -71 23 -88
28 -93 37 -72 133 18 79 18 79 41 64 13 -8 38 -33 57 -56z m-267 36 c3 -16 11
-49 18 -74 17 -61 7 -74 -81 -104 -37 -14 -71 -25 -75 -25 -12 0 -9 48 4 94
12 40 95 136 117 136 6 0 13 -12 17 -27z m19 -230 c5 -13 -6 -29 -41 -60 -27
-24 -53 -43 -59 -43 -13 0 -45 52 -45 73 0 9 18 22 43 30 58 21 93 21 102 0z
m248 -6 l48 -22 -23 -34 c-13 -19 -28 -36 -33 -38 -6 -2 -32 17 -58 41 -77 70
-38 102 66 53z m-96 -85 c29 -25 53 -47 53 -49 0 -1 -18 -12 -40 -23 -63 -32
-199 -22 -224 18 -3 5 22 33 56 61 71 60 77 60 155 -7z m-299 10 l22 -39 -23
-10 c-31 -15 -137 -36 -144 -29 -7 7 97 116 112 116 6 0 21 -17 33 -38z m531
-19 c45 -46 52 -58 38 -61 -18 -4 -157 35 -157 43 0 13 44 75 53 75 6 0 36
-26 66 -57z m-219 -165 c42 -73 131 -167 183 -191 20 -10 37 -20 37 -22 0 -3
-142 -5 -317 -5 l-316 0 61 40 c61 39 132 122 173 203 19 37 20 37 82 37 l62
0 35 -62z"/>
<path d="M3334 1847 c-38 -33 -46 -125 -15 -174 40 -64 131 -34 131 42 0 49
-31 79 -76 72 -37 -6 -39 -5 -24 24 13 23 39 25 55 2 14 -19 35 -9 35 17 0 42
-65 52 -106 17z m76 -131 c0 -22 -18 -38 -36 -34 -26 5 -31 48 -8 65 16 12 21
11 31 -4 7 -9 13 -22 13 -27z"/>
<path d="M8162 1854 c-18 -13 -22 -24 -21 -62 1 -26 -2 -59 -6 -74 -12 -44 16
-78 64 -78 60 0 93 51 66 104 -11 20 -12 33 -5 40 17 17 11 54 -12 70 -29 20
-58 20 -86 0z m64 -35 c8 -14 -21 -43 -35 -35 -6 4 -11 16 -11 27 0 21 34 27
46 8z m2 -110 c4 -31 -18 -44 -43 -25 -25 18 -11 58 18 54 15 -2 23 -11 25
-29z"/>
<path d="M905 1823 c-3 -21 -8 -49 -11 -62 -5 -21 -3 -23 23 -16 57 16 68 12
71 -23 4 -37 -19 -53 -49 -34 -43 27 -67 2 -31 -31 25 -23 74 -21 103 2 18 14
24 29 24 61 0 48 -21 70 -67 70 -48 0 -35 28 14 32 31 2 44 8 46 21 3 15 -5
17 -57 17 l-60 0 -6 -37z"/>
<path d="M5710 1845 c0 -11 12 -15 49 -15 l50 0 -29 -62 c-38 -82 -42 -122
-15 -126 18 -2 22 6 32 53 7 31 26 79 43 106 16 27 30 51 30 54 0 3 -36 5 -80
5 -64 0 -80 -3 -80 -15z"/>
<path d="M257 1414 c-9 -254 -9 -915 -1 -1055 l7 -119 793 0 793 0 85 73 c295
252 479 435 518 515 12 26 23 65 23 87 0 82 -97 206 -301 386 -59 52 -149 131
-200 176 -51 45 -102 87 -114 93 -14 8 -261 13 -809 17 l-788 6 -6 -179z
m1607 132 c14 -9 54 -42 88 -74 35 -32 95 -84 133 -117 196 -164 285 -257 348
-366 35 -59 34 -88 -3 -158 -47 -86 -272 -309 -528 -523 l-57 -47 -781 -1
-781 0 -7 225 c-4 124 -4 418 0 654 l7 428 778 -2 c700 -2 781 -4 803 -19z"/>
<path d="M1027 1369 c-37 -65 -59 -151 -59 -236 l1 -74 -34 25 c-56 43 -133
68 -227 74 -49 2 -88 2 -88 -2 0 -3 12 -25 26 -48 41 -65 124 -142 181 -169
29 -13 52 -26 53 -29 0 -3 -20 -13 -45 -23 -24 -10 -65 -37 -91 -60 -52 -46
-129 -156 -117 -168 11 -10 147 7 201 26 26 8 67 29 92 45 l45 30 6 -98 c4
-53 13 -115 22 -137 26 -71 51 -115 61 -112 6 2 25 33 43 69 37 73 58 171 49
235 l-6 43 51 -31 c28 -18 77 -40 111 -50 68 -21 178 -26 178 -7 0 22 -63 109
-111 152 -27 24 -69 52 -94 62 -25 11 -45 22 -45 26 0 3 14 11 32 17 53 19
135 88 182 155 25 35 46 66 46 70 0 12 -138 5 -191 -10 -30 -9 -75 -29 -102
-45 -26 -16 -49 -29 -52 -29 -2 0 -1 15 2 33 12 74 -30 227 -79 291 -14 18
-16 17 -41 -25z m71 -202 c5 -101 -12 -169 -42 -165 -48 7 -61 188 -20 287
l18 44 20 -44 c13 -27 22 -73 24 -122z m-249 -84 c59 -28 141 -97 141 -119 0
-22 -38 -26 -90 -9 -58 19 -139 77 -183 131 l-31 37 54 -7 c29 -4 79 -19 109
-33z m539 -4 c-41 -51 -131 -112 -192 -129 -42 -12 -49 -11 -64 4 -16 16 -14
20 32 62 72 66 148 100 229 103 l28 1 -33 -41z m-403 -209 c21 -34 -105 -127
-209 -155 -88 -24 -97 -18 -51 34 82 91 235 162 260 121z m273 -25 c79 -40
179 -137 148 -143 -32 -7 -152 37 -205 75 -61 43 -77 63 -68 87 10 25 48 19
125 -19z m-167 -67 c15 -57 6 -192 -16 -247 -15 -36 -20 -40 -28 -26 -34 61
-46 190 -26 271 9 36 15 44 35 44 19 0 25 -8 35 -42z"/>
<path d="M2743 1583 l-73 -4 0 -669 0 -670 800 0 799 0 223 199 c225 202 292
270 354 362 50 75 58 113 33 168 -26 59 -87 139 -163 213 -74 73 -367 333
-417 371 l-35 26 -725 5 c-398 2 -757 2 -796 -1z m1548 -44 c19 -15 79 -66
134 -115 297 -263 393 -364 437 -463 19 -41 19 -45 3 -88 -18 -47 -75 -124
-154 -207 -43 -45 -344 -317 -419 -379 l-34 -27 -784 0 -784 0 0 650 0 650
283 3 c155 1 507 3 783 2 l501 0 34 -26z"/>
<path d="M3395 1398 c-151 -20 -321 -151 -380 -293 -27 -64 -29 -80 -30 -195
0 -123 0 -126 36 -201 75 -157 203 -254 376 -284 107 -19 231 7 337 69 63 37
144 129 176 199 91 201 56 413 -94 563 -113 113 -262 163 -421 142z m45 -22
c0 -2 -9 -24 -20 -48 -11 -25 -24 -68 -30 -95 -9 -40 -16 -52 -33 -57 -12 -3
-33 -15 -45 -26 -22 -21 -24 -21 -92 -6 -38 9 -82 16 -97 16 -56 0 -55 13 2
72 63 64 126 104 205 129 50 16 110 25 110 15z m232 -39 c56 -26 88 -50 138
-103 l65 -69 -70 -6 c-38 -3 -86 -11 -106 -18 -34 -11 -40 -10 -87 20 -46 28
-52 36 -61 80 -6 28 -20 67 -31 89 -11 22 -20 42 -20 46 0 16 105 -8 172 -39z
m-178 -57 c26 -67 22 -80 -24 -80 -26 0 -40 4 -40 13 0 23 31 107 40 107 4 0
15 -18 24 -40z m23 -169 c-8 -98 -27 -127 -65 -102 -16 10 -38 130 -29 154 5
13 19 17 53 17 l47 0 -6 -69z m-135 -1 c1 -28 2 -50 0 -50 -1 0 -21 13 -43 30
l-41 29 34 21 c18 11 36 20 40 20 3 0 8 -23 10 -50z m223 33 c19 -9 35 -19 35
-22 0 -6 -66 -51 -75 -51 -3 0 -5 20 -5 45 0 25 2 45 5 45 2 0 20 -8 40 -17z
m-545 -33 c0 -5 27 -38 60 -73 59 -63 60 -66 60 -122 0 -54 -2 -59 -51 -113
-28 -32 -56 -67 -62 -79 -15 -32 -21 -29 -42 20 -12 28 -19 77 -22 152 -4 95
-2 118 17 168 19 50 40 75 40 47z m130 -1 c27 -6 50 -12 50 -14 0 -2 -10 -20
-21 -40 l-22 -36 -43 42 c-64 62 -59 68 36 48z m640 3 c0 -10 -88 -97 -94 -91
-9 10 -37 71 -34 74 16 16 128 31 128 17z m95 -76 c20 -65 19 -189 -1 -257
-25 -84 -32 -87 -70 -30 -18 27 -47 59 -64 71 -28 20 -30 25 -30 87 l0 65 60
65 c33 36 60 71 60 77 1 22 31 -30 45 -78z m-205 -32 c0 -9 -99 -53 -133 -59
-28 -6 -38 -4 -43 8 -9 26 13 53 77 96 l62 41 18 -41 c11 -23 19 -43 19 -45z
m-380 31 c47 -36 61 -51 58 -68 -2 -14 -11 -23 -26 -25 -26 -4 -152 52 -152
67 0 17 35 71 46 71 7 0 40 -20 74 -45z m-50 -125 c0 -3 -17 -12 -37 -20 -21
-8 -41 -16 -45 -18 -5 -2 -8 17 -8 42 l0 46 45 -22 c25 -12 45 -25 45 -28z
m447 -36 c-2 -2 -25 5 -52 17 l-47 21 48 22 49 23 3 -40 c2 -21 1 -41 -1 -43z
m-337 -12 c0 -25 -105 -122 -131 -122 -13 0 -50 70 -43 81 11 19 107 59 142
59 24 0 32 -4 32 -18z m269 -12 c28 -13 51 -28 51 -34 0 -15 -38 -76 -47 -76
-15 1 -103 70 -119 94 -33 52 15 59 115 16z m-163 -67 c4 -21 8 -60 8 -88 l1
-50 -45 0 -45 0 2 61 c3 83 16 114 47 114 21 0 26 -6 32 -37z m-283 -14 c9
-17 17 -34 17 -38 0 -10 -113 -35 -129 -30 -11 4 71 99 85 99 5 0 17 -14 27
-31z m569 -11 c38 -41 46 -58 28 -58 -12 0 -114 22 -118 25 -6 5 32 75 41 75
6 0 27 -19 49 -42z m-410 -40 c-2 -29 -6 -54 -7 -56 -4 -5 -63 26 -69 36 -4 6
62 64 80 72 1 0 -1 -24 -4 -52z m246 -20 c-7 -5 -25 -15 -40 -24 l-28 -15 0
51 0 50 40 -26 c30 -20 37 -30 28 -36z m190 -38 c50 0 52 -1 42 -20 -20 -37
-113 -118 -164 -143 -87 -42 -196 -72 -196 -53 0 2 11 29 25 60 14 31 28 73
31 94 5 31 14 42 56 68 l50 30 51 -17 c29 -10 76 -18 105 -19z m-500 5 c20
-14 42 -25 49 -25 7 0 15 -12 18 -27 6 -29 37 -124 50 -157 8 -17 5 -18 -41
-11 -106 16 -218 76 -279 151 -41 49 -39 64 8 64 18 0 55 7 82 14 69 19 71 19
113 -9z m192 -58 c0 -24 -32 -107 -41 -107 -7 0 -39 90 -39 112 0 4 18 8 40 8
26 0 40 -4 40 -13z"/>
<path d="M5085 1581 c-3 -2 -5 -305 -5 -673 l0 -668 801 0 802 0 74 68 c41 37
113 100 161 140 252 214 392 381 392 468 0 38 -58 134 -128 214 -65 74 -428
396 -483 429 l-40 23 -785 2 c-431 1 -787 0 -789 -3z m1553 -20 c55 -11 77
-27 263 -193 262 -233 370 -355 385 -435 16 -86 -114 -249 -368 -461 -48 -39
-121 -104 -162 -142 l-76 -70 -790 0 -790 0 0 650 0 649 73 4 c158 7 1425 6
1465 -2z"/>
<path d="M5737 1380 c-117 -37 -246 -147 -295 -253 -69 -145 -67 -299 4 -439
32 -63 133 -170 193 -206 110 -65 266 -79 398 -37 178 57 302 204 335 396 39
225 -115 470 -341 539 -83 26 -214 26 -294 0z m292 -19 c34 -10 83 -33 111
-51 47 -30 140 -123 140 -140 0 -4 -33 -10 -74 -13 -91 -7 -168 -41 -243 -108
-29 -27 -63 -49 -75 -49 -11 0 -46 21 -77 46 -93 76 -177 112 -278 116 l-51 2
19 27 c28 40 108 108 154 132 115 59 260 74 374 38z m-505 -315 c52 -62 137
-118 214 -140 33 -9 65 -23 72 -31 12 -15 12 -22 -10 -128 -14 -72 -3 -158 33
-246 l25 -61 -22 0 c-34 0 -125 29 -181 58 -27 13 -76 52 -108 85 -128 133
-169 323 -106 492 19 50 23 55 32 39 6 -10 29 -41 51 -68z m91 59 c66 -17 112
-43 168 -93 43 -39 47 -59 14 -67 -52 -14 -195 66 -251 140 -32 42 -24 44 69
20z m581 -44 c-87 -88 -224 -148 -240 -105 -5 12 3 28 26 52 60 62 162 110
238 111 l34 1 -58 -59z m139 -6 c72 -215 -33 -464 -237 -564 -60 -30 -172 -60
-182 -50 -3 3 5 27 18 54 47 98 53 180 25 307 -15 66 -3 82 78 108 88 27 161
78 220 151 26 32 51 55 54 51 4 -4 15 -29 24 -57z m-416 -266 c17 -49 13 -177
-8 -234 -9 -27 -21 -50 -26 -50 -17 0 -43 102 -44 169 -1 93 15 146 45 146 16
0 25 -9 33 -31z"/>
<path d="M7504 1581 c-2 -2 -4 -305 -4 -673 l0 -668 794 0 794 0 49 36 c26 20
75 62 108 93 33 32 94 87 135 123 110 96 268 259 303 312 42 66 46 122 14 188
-37 76 -119 170 -239 274 -56 50 -148 131 -203 179 -55 48 -118 100 -139 114
l-40 26 -784 0 c-431 0 -786 -2 -788 -4z m1603 -36 c42 -27 406 -350 464 -412
72 -77 121 -156 126 -206 7 -62 -27 -123 -133 -236 -82 -87 -343 -325 -438
-398 l-41 -32 -782 -1 -783 0 0 649 c0 493 3 650 12 653 6 2 356 4 777 4 748
-1 767 -1 798 -21z"/>
<path d="M8266 1362 c-55 -108 -69 -222 -42 -337 8 -33 13 -61 11 -63 -10 -10
-128 80 -143 108 -27 52 -47 60 -78 28 -20 -19 -25 -32 -21 -50 9 -34 48 -54
76 -39 18 10 30 7 71 -15 27 -15 57 -35 65 -44 15 -16 13 -18 -22 -25 -107
-19 -244 -120 -292 -213 -31 -61 -29 -64 37 -57 131 15 210 48 299 126 l58 51
3 -78 c3 -72 1 -79 -24 -106 l-28 -28 21 -28 c25 -33 47 -38 78 -18 32 21 32
47 0 84 -21 25 -25 40 -25 96 0 36 3 66 8 66 4 0 30 -20 59 -45 86 -76 160
-105 301 -119 39 -4 52 -2 52 8 0 24 -77 132 -117 164 -52 41 -147 88 -196 97
-35 7 -37 9 -22 25 8 9 38 29 66 44 45 25 53 27 81 15 29 -12 32 -11 55 17 30
37 26 53 -16 78 l-34 20 -23 -28 c-13 -15 -24 -33 -24 -40 0 -14 -128 -101
-136 -93 -3 3 2 33 11 68 31 117 4 275 -59 354 l-24 29 -26 -52z m59 -84 c23
-58 29 -162 13 -223 -11 -43 -16 -50 -38 -50 -22 0 -27 7 -38 50 -8 29 -11 75
-8 110 5 64 32 155 46 155 4 0 15 -19 25 -42z m-98 -414 c15 -41 -150 -147
-251 -161 l-49 -6 28 37 c74 97 252 182 272 130z m249 -5 c39 -15 77 -41 123
-84 36 -35 63 -66 59 -70 -11 -11 -105 13 -163 41 -55 27 -125 88 -125 108 0
32 29 34 106 5z"/>
</g>
</svg>
