<?xml version="1.0" standalone="no"?>
<!DOCTYPE svg PUBLIC "-//W3C//DTD SVG 20010904//EN"
 "http://www.w3.org/TR/2001/REC-SVG-20010904/DTD/svg10.dtd">
<svg version="1.0" xmlns="http://www.w3.org/2000/svg"
 width="996.000000pt" height="922.000000pt" viewBox="0 0 996.000000 922.000000"
 preserveAspectRatio="xMidYMid meet">
<metadata>
Created by potrace 1.16, written by Peter Selinger 2001-2019
</metadata>
<g transform="translate(0.000000,922.000000) scale(0.100000,-0.100000)"
fill="#FFFFFF" stroke="none">
<path d="M257 8828 c-9 -224 -9 -4567 0 -4675 l6 -83 2938 0 2939 0 0 2465 0
2465 -2938 0 -2939 0 -6 -172z m5863 -2293 l0 -2445 -2918 0 -2919 0 -6 318
c-9 438 -9 3887 -1 4265 l7 307 2919 0 2918 0 0 -2445z"/>
<path d="M1163 8495 c-196 -43 -358 -215 -393 -418 -7 -43 -10 -81 -6 -85 4
-4 120 -8 257 -10 l249 -4 0 -235 c0 -130 3 -233 8 -229 10 10 9 1 11 246 l1
220 235 0 c150 0 235 4 235 10 0 6 -85 10 -235 10 l-235 0 -1 210 c-1 116 -3
215 -4 220 -1 6 -3 26 -4 45 -1 31 -4 35 -28 34 -16 0 -56 -7 -90 -14z m100
-127 c9 -105 9 -248 1 -315 l-7 -53 -213 0 c-117 0 -215 4 -218 8 -9 16 22
139 49 193 53 104 176 201 296 233 89 24 85 26 92 -66z"/>
<path d="M4350 8499 c-147 -24 -294 -138 -364 -281 -39 -81 -65 -203 -46 -222
7 -7 96 -12 255 -14 l245 -3 2 -247 3 -247 23 -3 c39 -6 184 37 239 70 144 88
253 265 253 412 l0 36 -250 0 -250 0 0 233 c0 127 -3 242 -6 255 -7 24 -15 25
-104 11z m88 -271 l-3 -223 -180 -3 c-99 -2 -199 0 -222 3 l-42 6 6 37 c31
195 171 347 357 387 34 7 67 14 74 14 10 1 12 -47 10 -221z m459 -285 c-34
-211 -185 -363 -394 -398 l-43 -7 0 221 0 221 221 0 222 0 -6 -37z"/>
<path d="M2850 8240 l0 -240 -235 0 c-150 0 -235 -4 -235 -10 0 -6 85 -10 235
-10 l235 0 0 -237 c0 -131 4 -244 9 -252 8 -12 21 -12 83 -2 159 25 307 132
376 273 33 68 67 200 58 224 -4 11 -59 14 -253 16 l-248 3 -3 238 c-1 146 -6
237 -12 237 -6 0 -10 -90 -10 -240z m460 -289 c0 -16 -9 -57 -19 -90 -49 -158
-175 -272 -340 -307 -36 -7 -69 -14 -73 -14 -5 0 -8 99 -8 220 l0 220 220 0
220 0 0 -29z"/>
<path d="M1268 6784 l-3 -239 -170 0 c-93 0 -200 4 -236 9 -62 8 -66 7 -72
-13 -6 -26 7 -33 88 -50 99 -22 163 -58 241 -136 77 -78 106 -135 126 -247 10
-55 12 -58 39 -58 l30 0 -7 53 c-3 28 -9 68 -13 87 -3 19 -5 101 -3 183 l3
147 235 0 c149 0 234 4 234 10 0 6 -85 10 -235 10 l-235 0 -2 128 c-4 411 -16
477 -20 116z m2 -389 c0 -69 -2 -125 -4 -125 -2 0 -15 17 -27 38 -37 59 -109
132 -173 174 l-59 38 131 0 132 0 0 -125z"/>
<path d="M2834 6988 c4 -18 9 -126 13 -240 l5 -208 -236 0 c-151 0 -236 -4
-236 -10 0 -6 85 -10 235 -10 l235 0 0 -234 c0 -146 4 -237 10 -241 7 -4 10
77 10 236 l0 241 213 -5 c116 -4 223 -8 237 -9 21 -2 25 1 25 21 0 22 -7 26
-77 42 -101 24 -169 59 -235 122 -66 62 -117 160 -133 256 -12 70 -12 71 -42
71 -29 0 -30 -2 -24 -32z m170 -356 c30 -27 71 -57 93 -68 l38 -19 -119 -3
c-66 -1 -126 0 -133 2 -10 4 -12 35 -11 129 l3 124 38 -58 c21 -31 62 -80 91
-107z"/>
<path d="M4423 7004 c-3 -9 -1 -51 6 -93 6 -42 11 -143 11 -225 l0 -149 -197
7 c-109 3 -217 9 -241 12 -43 6 -44 6 -40 -22 3 -26 7 -29 73 -41 102 -19 182
-62 252 -136 67 -72 98 -130 120 -226 21 -91 21 -91 35 -91 34 1 39 15 29 81
-6 35 -11 140 -11 233 l0 169 218 -6 c119 -3 226 -7 237 -9 15 -2 20 3 20 21
0 22 -7 26 -60 37 -123 26 -226 80 -286 153 -46 55 -88 148 -102 226 -11 60
-16 70 -35 73 -14 2 -25 -3 -29 -14z m112 -313 c49 -58 83 -87 138 -120 20
-12 37 -25 37 -27 0 -2 -56 -4 -125 -4 l-125 0 0 133 c0 126 1 131 16 101 9
-18 35 -55 59 -83z m-95 -303 l0 -131 -39 59 c-46 70 -107 130 -176 173 l-50
31 133 0 132 0 0 -132z"/>
<path d="M3655 5728 c-3 -7 -4 -310 -3 -673 l3 -660 795 0 795 0 30 23 c75 59
293 259 416 382 201 201 221 254 144 377 -56 88 -213 242 -504 491 l-83 72
-795 0 c-626 0 -795 -3 -798 -12z m1735 -134 c311 -272 397 -360 449 -461 11
-23 21 -52 21 -64 0 -76 -132 -227 -418 -480 l-203 -179 -778 0 -778 0 -7 31
c-8 41 -8 1192 0 1242 l7 37 781 0 781 0 145 -126z"/>
<path d="M1153 5566 c-88 -22 -164 -66 -234 -135 -75 -75 -121 -157 -145 -258
-25 -109 -16 -122 105 -147 93 -19 162 -57 234 -128 64 -63 113 -154 122 -227
12 -88 13 -91 46 -91 l30 0 -6 48 c-4 26 -10 70 -13 97 -4 28 -6 114 -4 193
l3 142 234 0 c150 0 235 4 235 10 0 6 -85 10 -235 10 l-235 0 0 158 c0 88 -3
200 -6 250 l-7 92 -36 -1 c-20 0 -59 -6 -88 -13z m111 -68 c8 -30 7 -366 -1
-397 l-6 -23 -196 5 c-108 2 -206 8 -217 12 -21 7 -21 8 -8 67 39 165 167 298
332 343 71 20 89 18 96 -7z m6 -570 l0 -133 -36 55 c-47 72 -87 113 -154 158
-30 20 -59 40 -64 44 -6 4 49 8 122 8 l132 0 0 -132z"/>
<path d="M2847 5553 c-15 -4 -18 -11 -12 -36 3 -18 9 -123 12 -234 l5 -203
-236 0 c-151 0 -236 -4 -236 -10 0 -6 85 -10 235 -10 l234 0 3 -249 c2 -137 6
-252 9 -256 11 -10 139 15 201 40 153 62 270 208 303 377 19 98 7 117 -89 135
-206 38 -336 171 -380 392 -11 56 -17 62 -49 54z m119 -348 c18 -22 60 -58 94
-80 l62 -40 -113 -3 c-62 -1 -119 0 -126 2 -10 4 -13 37 -13 133 l0 127 31
-49 c18 -28 46 -68 65 -90z m276 -157 l70 -11 -6 -46 c-17 -124 -126 -271
-242 -326 -56 -26 -172 -56 -186 -48 -5 2 -8 103 -8 224 l0 219 151 0 c82 0
182 -5 221 -12z"/>
<path d="M6360 6045 l0 -265 200 0 200 0 0 30 0 30 -162 2 -163 3 -3 87 -3 87
148 3 148 3 0 28 0 28 -80 3 c-44 2 -111 4 -148 5 l-68 1 3 78 3 77 158 3 158
3 -3 27 -3 27 -192 3 -193 2 0 -265z"/>
<path d="M6842 6024 c-21 -14 -31 -54 -14 -54 5 0 18 11 30 25 24 28 34 30 63
15 29 -16 24 -48 -11 -68 -34 -19 -39 -32 -12 -32 24 0 52 -31 52 -56 0 -48
-68 -62 -96 -19 -20 31 -34 32 -34 2 0 -35 30 -57 78 -57 32 0 45 6 61 26 26
33 27 78 2 103 -17 17 -18 21 -5 32 20 16 18 63 -4 82 -23 21 -81 22 -110 1z"/>
<path d="M930 3814 c-22 -20 -40 -40 -40 -45 0 -13 34 -11 48 3 9 9 12 -6 12
-70 0 -81 0 -82 25 -82 l25 0 0 115 c0 133 -5 138 -70 79z"/>
<path d="M3322 3830 c-12 -12 -22 -27 -22 -35 0 -19 34 -19 50 0 7 8 21 15 31
15 24 0 26 -42 2 -61 -23 -20 -93 -109 -93 -120 0 -5 36 -9 80 -9 73 0 80 2
80 20 0 17 -7 20 -46 20 l-47 0 42 45 c33 36 41 52 41 83 0 32 -5 41 -25 50
-38 17 -68 15 -93 -8z"/>
<path d="M5750 3837 c-14 -7 -26 -23 -28 -35 -4 -26 6 -28 34 -7 24 18 54 19
54 1 0 -8 -12 -23 -27 -34 l-26 -19 29 -14 c20 -10 29 -22 29 -39 0 -31 -29
-39 -55 -15 -20 18 -40 13 -40 -9 0 -22 35 -46 68 -46 61 0 94 69 55 112 -13
14 -14 21 -5 30 19 19 14 56 -10 72 -27 19 -45 20 -78 3z"/>
<path d="M8170 3778 c-56 -80 -63 -108 -26 -108 37 0 76 -18 76 -35 0 -21 29
-19 37 3 3 9 13 25 21 34 13 16 13 18 -2 24 -12 5 -16 19 -16 58 0 65 -9 96
-26 96 -7 0 -36 -32 -64 -72z m46 -43 c-5 -26 -12 -35 -26 -35 -25 0 -25 5 1
47 25 41 34 37 25 -12z"/>
<path d="M266 3541 c-3 -4 -6 -307 -7 -672 l-1 -664 795 -3 796 -2 90 77 c401
345 541 499 541 597 0 42 -62 147 -130 220 -33 34 -107 105 -166 157 -59 52
-151 133 -204 181 -54 47 -108 92 -121 100 -20 10 -173 13 -806 15 -430 1
-784 -1 -787 -6z m1522 -18 c71 -6 49 9 295 -204 257 -224 377 -364 377 -442
0 -73 -127 -230 -330 -407 -52 -46 -122 -108 -155 -138 -33 -31 -77 -68 -99
-84 l-39 -28 -779 0 -778 0 0 655 0 655 723 0 c397 -1 750 -4 785 -7z"/>
<path d="M1044 3347 c-3 -8 0 -43 5 -78 6 -35 11 -137 11 -226 l0 -163 -240 0
c-153 0 -240 -4 -240 -10 0 -6 87 -10 240 -10 l240 0 2 -247 3 -248 36 -3 c46
-4 148 22 209 53 108 55 213 182 250 303 22 69 26 157 10 167 -6 4 -46 15 -90
26 -108 25 -162 53 -231 117 -71 65 -125 166 -142 265 -10 60 -13 67 -34 67
-13 0 -26 -6 -29 -13z m170 -375 c30 -27 70 -57 90 -66 20 -9 36 -19 36 -21 0
-3 -58 -5 -130 -5 l-130 0 0 131 0 131 40 -60 c23 -34 65 -83 94 -110z m249
-121 c26 -4 50 -11 54 -14 11 -11 -17 -114 -48 -175 -32 -65 -108 -143 -179
-185 -46 -26 -146 -57 -187 -57 l-23 0 0 220 0 220 168 -1 c92 0 188 -4 215
-8z"/>
<path d="M2674 3541 c-2 -2 -4 -305 -4 -673 l0 -668 798 0 799 0 100 88 c336
294 434 393 495 500 77 131 16 219 -412 596 -63 56 -131 114 -151 129 l-36 27
-793 3 c-435 1 -794 0 -796 -2z m1549 -18 c44 -5 60 -17 215 -152 293 -257
396 -369 429 -465 13 -37 13 -42 -16 -100 -17 -34 -65 -98 -107 -144 -67 -73
-380 -360 -458 -420 l-29 -22 -783 0 -784 0 0 650 0 650 228 3 c473 6 1259 6
1305 0z"/>
<path d="M3466 3358 c-9 -12 -16 -35 -16 -49 0 -44 -35 -145 -68 -196 -66
-103 -170 -173 -295 -200 -103 -22 -121 -39 -112 -107 26 -202 182 -380 379
-432 107 -29 166 -9 166 55 0 46 35 146 69 200 68 105 177 177 311 205 105 21
113 36 85 155 -41 174 -166 309 -337 367 -92 31 -161 32 -182 2z m156 -59
c156 -52 261 -166 303 -326 8 -31 12 -60 7 -64 -17 -17 -136 -29 -280 -29
l-154 0 4 208 c1 114 7 213 11 220 11 17 38 15 109 -9z m-142 -284 l0 -135
-137 0 -138 1 50 26 c62 32 161 132 195 196 14 26 26 47 27 47 2 0 3 -61 3
-135z m0 -292 c0 -153 -17 -292 -36 -300 -18 -6 -118 24 -175 52 -92 47 -187
162 -214 260 -30 110 -31 102 28 113 28 5 130 10 225 11 l172 1 0 -137z m220
101 c-73 -48 -114 -87 -161 -158 l-39 -58 0 126 0 126 127 0 128 0 -55 -36z"/>
<path d="M5183 3543 l-103 -4 0 -669 0 -670 801 0 802 0 74 68 c41 37 114 100
162 140 242 205 391 383 391 467 0 40 -61 142 -131 219 -72 78 -428 394 -477
423 -37 22 -39 22 -727 26 -379 2 -736 2 -792 0z m1503 -36 c17 -9 91 -69 165
-134 293 -257 422 -401 436 -485 13 -83 -123 -250 -369 -456 -48 -39 -121
-104 -162 -142 l-76 -70 -790 0 -790 0 0 650 0 650 308 3 c169 1 519 2 777 1
405 -1 475 -4 501 -17z"/>
<path d="M5874 3313 c4 -27 9 -135 12 -242 l6 -194 -198 7 c-110 3 -218 9
-241 12 -41 6 -43 5 -43 -20 0 -20 6 -27 28 -32 164 -36 220 -63 297 -142 68
-69 102 -133 124 -234 16 -78 19 -83 45 -86 28 -4 28 -3 22 45 -3 26 -9 135
-12 242 l-6 194 208 -7 c115 -3 223 -7 239 -8 24 -3 31 1 33 20 4 24 6 23 -93
46 -100 23 -166 60 -235 132 -69 72 -105 143 -122 245 -12 67 -13 69 -41 69
-29 0 -29 0 -23 -47z m163 -335 c28 -25 69 -56 92 -67 22 -12 41 -24 41 -26 0
-3 -58 -5 -130 -5 l-130 0 0 132 0 131 38 -59 c22 -32 61 -80 89 -106z m-147
-245 l0 -128 -34 51 c-47 70 -119 140 -180 174 l-51 30 133 0 132 0 0 -127z"/>
<path d="M7507 3544 c-4 -4 -7 -308 -7 -676 l0 -668 794 0 795 0 70 58 c227
185 504 459 539 533 12 25 22 61 22 81 0 41 -38 117 -95 190 -41 51 -441 411
-505 454 l-35 23 -785 6 c-432 4 -788 3 -793 -1z m1610 -47 c50 -36 310 -264
410 -361 101 -97 164 -189 170 -250 7 -61 -29 -124 -136 -238 -90 -96 -361
-341 -438 -395 l-45 -33 -779 0 -779 0 0 650 0 650 248 2 c136 2 487 3 780 2
l532 -1 37 -26z"/>
<path d="M8150 3357 c-359 -123 -466 -576 -200 -846 108 -110 241 -158 410
-149 76 5 101 11 165 41 96 46 155 95 210 177 110 160 124 346 39 518 -59 121
-162 212 -294 259 -91 32 -237 32 -330 0z m150 -257 l0 -220 -221 0 -221 0 6
38 c24 136 84 238 184 314 64 49 159 86 220 87 l32 1 0 -220z m151 200 c164
-51 282 -196 314 -383 l6 -37 -223 2 -223 3 -3 218 -2 217 34 0 c19 0 62 -9
97 -20z m-151 -660 l0 -220 -24 0 c-45 0 -153 40 -213 79 -60 38 -123 110
-158 179 -13 28 -44 146 -45 175 0 4 99 7 220 7 l220 0 0 -220z m470 217 c0
-2 -5 -29 -11 -61 -22 -123 -91 -229 -191 -296 -62 -41 -168 -80 -219 -80
l-29 0 0 220 0 220 225 0 c124 0 225 -1 225 -3z"/>
<path d="M3328 1840 c-29 -29 -30 -34 -26 -95 5 -79 24 -105 79 -105 45 0 69
27 69 77 0 47 -32 77 -76 70 -37 -6 -39 -5 -24 24 11 20 45 26 55 9 11 -17 35
-11 35 10 0 22 -27 40 -60 40 -12 0 -35 -14 -52 -30z m80 -135 c-2 -14 -11
-20 -28 -20 -32 0 -41 42 -14 62 16 12 21 11 32 -4 7 -10 11 -27 10 -38z"/>
<path d="M5763 1863 c-38 -3 -53 -8 -53 -19 0 -10 13 -14 50 -14 l50 0 -21
-41 c-19 -38 -49 -123 -49 -141 0 -5 11 -8 24 -8 20 0 25 6 30 45 4 24 23 73
42 110 25 47 31 65 20 65 -8 0 -20 1 -28 3 -7 2 -37 2 -65 0z"/>
<path d="M8155 1846 c-21 -21 -23 -28 -14 -55 7 -21 7 -36 0 -50 -29 -53 0
-101 62 -101 60 0 90 48 63 102 -11 21 -13 35 -6 42 17 17 11 54 -12 70 -32
23 -65 20 -93 -8z m71 -27 c8 -14 -21 -43 -35 -35 -6 4 -11 16 -11 27 0 21 34
27 46 8z m-1 -109 c0 -16 -6 -26 -19 -28 -25 -5 -39 12 -31 38 10 31 50 24 50
-10z"/>
<path d="M905 1823 c-3 -21 -8 -49 -11 -62 -5 -21 -3 -23 23 -17 59 15 68 13
71 -17 2 -16 -2 -35 -9 -43 -10 -13 -15 -13 -35 1 -29 19 -54 19 -54 2 0 -43
92 -64 123 -29 45 50 18 132 -44 132 -48 0 -37 28 13 32 31 2 44 8 46 21 3 15
-5 17 -57 17 l-60 0 -6 -37z"/>
<path d="M256 1413 c-4 -98 -6 -401 -4 -673 l3 -495 797 -3 797 -2 90 77 c403
347 541 499 541 597 0 75 -131 239 -318 398 -47 40 -129 112 -182 160 -54 47
-108 92 -121 100 -19 10 -174 14 -810 16 l-787 3 -6 -178z m1567 148 c22 -5
60 -28 90 -55 29 -26 104 -91 167 -145 243 -207 380 -367 380 -442 0 -96 -157
-268 -559 -612 l-55 -47 -781 0 -782 0 -6 179 c-4 99 -4 394 0 655 l6 475 751
0 c413 1 768 -3 789 -8z"/>
<path d="M888 1397 c-168 -58 -294 -200 -334 -376 -28 -121 -6 -150 100 -132
35 6 135 11 224 11 l161 0 3 -147 c2 -82 -2 -182 -9 -223 -10 -68 -10 -77 7
-100 37 -52 188 -22 313 64 107 73 183 195 209 337 9 48 8 59 -7 83 -19 28
-20 28 -84 20 -36 -5 -142 -9 -236 -9 l-170 0 -3 90 c-2 50 2 154 9 232 10
115 10 145 -1 158 -19 22 -103 19 -182 -8z m132 -56 c0 -37 -38 -142 -70 -191
-42 -65 -108 -123 -184 -160 -53 -26 -155 -54 -164 -45 -7 7 23 105 50 163 51
108 157 198 283 238 60 19 85 17 85 -5z m20 -296 l0 -125 -132 0 -132 0 60 36
c74 44 121 90 165 159 19 30 35 55 37 55 1 0 2 -56 2 -125z m221 -186 c-66
-44 -129 -110 -168 -176 -14 -24 -27 -43 -29 -43 -3 0 -4 59 -3 130 l1 130
130 0 130 0 -61 -41z m243 -6 c-31 -142 -96 -246 -195 -312 -54 -36 -168 -81
-205 -81 -19 0 -18 27 5 99 46 148 168 264 321 307 72 20 81 18 74 -13z"/>
<path d="M3083 1583 l-413 -3 0 -670 0 -670 800 0 799 0 228 204 c302 270 392
378 392 471 1 99 -128 244 -512 573 l-107 92 -194 0 c-106 0 -280 2 -387 3
-107 2 -380 2 -606 0z m1068 -23 l117 0 128 -112 c314 -273 432 -397 470 -496
17 -42 16 -42 -14 -105 -48 -97 -229 -279 -519 -524 l-74 -63 -784 0 -785 0 0
650 0 649 153 4 c83 2 386 2 672 0 286 -1 572 -2 636 -3z"/>
<path d="M3319 1401 c-88 -28 -154 -69 -218 -135 -98 -103 -141 -212 -141
-357 0 -288 222 -509 510 -509 186 0 347 91 440 249 52 88 70 157 70 261 0
151 -51 271 -157 370 -107 101 -209 140 -357 139 -58 0 -111 -6 -147 -18z
m121 -50 c0 -6 -11 -46 -25 -90 -53 -166 -178 -273 -367 -315 -23 -5 -28 -3
-28 12 0 28 30 122 52 166 27 53 112 142 166 173 75 44 202 78 202 54z m159
-10 c159 -49 276 -176 312 -339 7 -28 10 -54 8 -57 -8 -8 -122 26 -174 51 -58
29 -146 112 -179 169 -22 38 -47 107 -60 168 -8 34 7 35 93 8z m-139 -291 l0
-130 -132 0 -131 0 59 38 c67 44 140 119 175 180 13 23 25 42 27 42 1 0 2 -58
2 -130z m154 -38 c30 -27 70 -57 90 -66 20 -9 36 -19 36 -21 0 -3 -58 -5 -130
-5 l-130 0 0 131 0 131 40 -60 c23 -34 65 -83 94 -110z m-154 -244 l0 -133
-25 43 c-46 81 -129 162 -210 205 -29 16 -25 16 103 17 l132 0 0 -132z m255
115 c-82 -44 -164 -123 -210 -205 l-25 -43 0 133 0 132 133 0 c127 -1 131 -1
102 -17z m-575 -34 c103 -36 202 -123 253 -224 19 -38 50 -155 43 -162 -3 -3
-37 2 -76 12 -116 28 -238 122 -289 224 -20 39 -51 141 -51 169 0 16 34 11
120 -19z m775 -11 c-24 -144 -120 -271 -252 -333 -52 -25 -150 -51 -159 -42
-3 2 0 26 7 53 40 169 170 305 330 348 82 22 82 22 74 -26z"/>
<path d="M5133 1583 l-53 -4 0 -670 0 -669 803 0 802 1 55 50 c30 28 114 101
185 163 248 216 373 362 382 448 4 37 -1 52 -34 105 -21 34 -60 88 -88 119
-62 73 -427 398 -480 429 l-40 23 -740 5 c-407 2 -764 3 -792 0z m1552 -35
c17 -9 96 -73 175 -143 292 -256 416 -396 427 -482 9 -80 -108 -226 -345 -430
-75 -65 -166 -144 -201 -176 l-65 -57 -788 0 -788 0 0 649 0 650 53 4 c28 2
378 3 777 3 656 -1 728 -3 755 -18z"/>
<path d="M5370 915 l0 -515 515 0 515 0 -2 513 -3 512 -512 3 -513 2 0 -515z
m507 308 c-4 -75 -7 -174 -7 -220 l0 -83 -220 0 -220 0 0 220 0 220 227 0 226
0 -6 -137z m461 -80 l-3 -218 -217 -3 -218 -2 0 220 0 220 220 0 220 0 -2
-217z m-467 -265 c0 -13 1 -112 2 -220 l2 -198 -222 0 -223 0 0 220 0 220 220
0 220 0 1 -22z m469 -198 l0 -220 -220 0 -220 0 0 220 0 220 220 0 220 0 0
-220z"/>
<path d="M7500 913 l0 -673 793 0 c759 0 793 1 821 19 67 44 422 372 513 474
165 185 122 281 -286 638 -240 210 -234 206 -343 214 -51 3 -409 5 -795 3
l-703 -3 0 -672z m1607 632 c39 -25 310 -263 420 -369 100 -96 164 -189 170
-249 7 -61 -28 -125 -124 -227 -86 -92 -397 -373 -457 -414 l-39 -26 -778 0
-779 0 0 650 0 649 138 3 c75 2 425 3 777 3 623 0 641 -1 672 -20z"/>
<path d="M8160 1406 c-192 -54 -339 -226 -374 -438 -10 -55 21 -83 104 -97
185 -31 338 -184 370 -371 7 -36 19 -73 27 -82 20 -22 69 -23 148 -3 169 44
314 192 361 368 30 112 15 149 -65 162 -206 34 -359 180 -392 375 -6 36 -18
73 -27 83 -18 20 -84 22 -152 3z m115 -73 c3 -16 9 -115 12 -220 l5 -193 -157
0 c-87 0 -187 5 -222 12 l-65 12 6 45 c21 151 168 313 325 357 73 20 88 18 96
-13z m73 -210 c39 -61 124 -143 182 -177 l45 -26 -132 0 -133 0 0 125 c0 69 1
125 3 125 2 0 18 -21 35 -47z m-58 -348 c0 -69 -2 -125 -4 -125 -2 0 -16 19
-29 43 -41 67 -132 153 -202 190 -29 16 -25 16 103 17 l132 0 0 -125z m400
115 c30 -6 56 -12 58 -15 9 -9 -17 -104 -43 -160 -32 -67 -100 -143 -162 -183
-48 -30 -197 -81 -208 -70 -14 14 -25 136 -25 281 l0 157 164 0 c90 0 187 -5
216 -10z"/>
</g>
</svg>
