<?xml version="1.0" standalone="no"?>
<!DOCTYPE svg PUBLIC "-//W3C//DTD SVG 20010904//EN"
 "http://www.w3.org/TR/2001/REC-SVG-20010904/DTD/svg10.dtd">
<svg version="1.0" xmlns="http://www.w3.org/2000/svg"
 width="996.000000pt" height="922.000000pt" viewBox="0 0 996.000000 922.000000"
 preserveAspectRatio="xMidYMid meet">
<metadata>
Created by potrace 1.16, written by Peter Selinger 2001-2019
</metadata>
<g transform="translate(0.000000,922.000000) scale(0.100000,-0.100000)"
fill="#FFFFFF" stroke="none">
<path d="M257 8903 c-9 -128 -9 -4574 0 -4720 l6 -113 2939 0 2938 0 0 2465 0
2465 -2938 0 -2939 0 -6 -97z m5863 -2368 l0 -2445 -2918 0 -2919 0 -6 128
c-9 166 -9 4365 0 4590 l6 172 2919 0 2918 0 0 -2445z"/>
<path d="M787 8494 c-4 -4 -7 -229 -7 -501 l0 -493 493 0 494 0 7 491 c3 271
5 493 4 494 -8 6 -985 14 -991 9z m963 -73 c0 -39 -13 -41 -331 -41 l-269 0 0
35 0 35 300 0 300 0 0 -29z m-254 -61 c248 0 254 0 254 -20 0 -20 -5 -20 -302
-18 -261 3 -303 5 -304 18 -1 28 8 32 54 26 25 -3 159 -6 298 -6z m252 -82
l-3 -23 -297 -2 -298 -2 0 24 0 25 301 0 300 0 -3 -22z m0 -65 l-3 -28 -297
-3 -298 -2 0 30 0 30 301 0 300 0 -3 -27z m-1 -59 c-3 -3 -83 -6 -179 -6 -95
0 -227 -3 -293 -7 -99 -6 -67 -8 178 -9 l297 -2 0 -305 0 -305 -305 0 -305 0
0 289 c0 159 3 303 6 320 l7 31 300 0 c165 0 298 -3 294 -6z m-857 -328 c0
-282 -1 -294 -19 -299 -11 -3 -22 -2 -25 1 -3 3 -6 135 -6 294 0 182 -4 288
-10 288 -6 0 -11 -109 -13 -292 l-2 -293 -3 298 -2 297 40 0 40 0 0 -294z m65
-1 l1 -295 -23 0 -23 0 0 295 0 295 23 0 22 0 0 -295z m65 -5 c0 -293 0 -300
-20 -300 -20 0 -20 7 -20 300 0 293 0 300 20 300 20 0 20 -7 20 -300z m88 63
l-2 -238 -6 215 -6 215 1 -272 0 -272 -22 -4 c-13 -2 -25 -2 -28 1 -3 3 -5
137 -5 299 l0 293 35 0 35 0 -2 -237z"/>
<path d="M2682 7998 l3 -493 178 -3 177 -2 0 495 0 495 -180 0 -180 0 2 -492z
m104 55 c-3 -42 -6 -179 -6 -305 0 -221 -1 -228 -20 -228 -20 0 -20 7 -20 294
0 186 -4 297 -10 301 -7 4 -10 -97 -10 -295 0 -198 -3 -299 -10 -295 -11 7
-14 587 -3 598 3 4 24 7 46 7 l40 0 -7 -77z m64 -218 c0 -162 1 -298 3 -302 1
-5 -8 -9 -20 -11 l-23 -3 0 305 c0 299 0 306 20 306 20 0 20 -7 20 -295z m70
-10 c0 -298 0 -305 -20 -305 -20 0 -20 7 -20 305 0 298 0 305 20 305 20 0 20
-7 20 -305z m91 133 c-1 -92 -6 -205 -11 -250 -14 -116 -13 -181 2 -172 7 4 8
3 4 -4 -4 -7 -20 -12 -37 -12 l-29 0 0 306 0 305 36 -3 36 -3 -1 -167z"/>
<path d="M2994 7935 c0 -93 2 -133 3 -88 2 45 2 122 0 170 -1 48 -3 12 -3 -82z"/>
<path d="M4120 7995 l0 -495 325 0 325 0 0 208 c0 115 3 338 7 495 l6 287
-331 0 -332 0 0 -495z m628 422 l-3 -32 -297 -3 -298 -2 0 33 0 34 301 1 300
0 -3 -31z m-101 -57 c96 0 103 -1 103 -20 0 -20 -7 -20 -305 -20 l-305 0 4 23
c3 12 5 24 5 26 1 2 89 1 198 -2 108 -4 243 -7 300 -7z m101 -82 l-3 -23 -297
-3 -298 -2 0 25 0 25 301 0 300 0 -3 -22z m0 -65 l-3 -28 -297 -3 -298 -2 0
30 0 30 301 0 300 0 -3 -27z m0 -59 c-4 -3 -96 -6 -205 -5 -109 0 -232 -4
-273 -8 -54 -6 3 -8 203 -10 l277 -1 0 -305 0 -305 -305 0 -305 0 0 305 0 305
23 1 c16 1 18 2 5 6 -10 2 -18 9 -18 14 0 5 123 9 302 9 166 0 299 -3 296 -6z"/>
<path d="M798 6714 c-16 -5 -18 -23 -18 -185 l0 -179 180 0 180 0 0 55 0 55
305 0 305 0 0 -29 c0 -34 0 -34 -250 -55 l-165 -13 186 -2 c103 0 201 -4 218
-7 l31 -6 0 181 0 181 -268 0 c-148 0 -363 2 -478 5 -115 2 -217 2 -226 -1z
m952 -73 l0 -30 -102 -3 c-57 -2 -194 -1 -305 0 -203 4 -203 4 -203 26 0 13 3
26 7 29 3 4 141 7 305 7 l298 0 0 -29z m0 -76 l0 -25 -305 0 -305 0 0 25 0 25
305 0 305 0 0 -25z m0 -65 c0 -20 -7 -20 -305 -20 -298 0 -305 0 -305 20 0 20
7 20 305 20 298 0 305 0 305 -20z"/>
<path d="M2682 6533 l3 -178 178 -3 177 -2 0 180 0 180 -180 0 -180 0 2 -177z"/>
<path d="M4120 6533 l0 -178 326 0 327 0 -1 53 c0 28 -1 108 -1 177 l-1 125
-325 0 -325 0 0 -177z m630 105 l0 -28 -305 0 -305 0 0 28 0 27 305 0 305 0 0
-27z m0 -73 l0 -25 -305 0 -305 0 0 25 0 25 305 0 305 0 0 -25z m0 -65 c0 -27
-24 -31 -160 -26 -63 2 -190 4 -282 5 -161 1 -168 2 -168 21 0 20 7 20 305 20
297 0 305 0 305 -20z m2 -57 c2 -10 2 -29 0 -43 l-4 -25 -156 -3 c-99 -2 -181
2 -221 10 -51 10 -65 10 -69 0 -4 -14 -152 -17 -152 -3 0 5 8 12 18 14 13 4
11 5 -5 6 -19 1 -23 7 -23 31 l0 30 304 0 c282 0 305 -1 308 -17z"/>
<path d="M3652 5068 l3 -673 770 -3 c424 -1 784 0 801 3 37 6 263 203 465 404
151 151 196 221 186 286 -16 98 -155 247 -546 583 l-83 72 -799 0 -799 0 2
-672z m1624 623 c84 -62 441 -389 487 -446 69 -85 100 -150 93 -193 -12 -79
-163 -245 -449 -495 l-168 -147 -782 2 -782 3 -3 600 c-2 330 0 624 3 653 l6
52 778 0 778 0 39 -29z"/>
<path d="M3955 5528 c-3 -18 -4 -240 -3 -493 l3 -460 490 0 490 0 3 493 2 492
-489 0 -490 0 -6 -32z m965 -463 l0 -475 -469 0 -468 0 -7 31 c-8 42 -8 676 1
812 l6 107 469 0 468 0 0 -475z"/>
<path d="M788 5395 c-5 -5 -8 -154 -8 -332 l0 -323 495 0 495 0 0 325 0 325
-218 0 c-120 0 -340 3 -488 6 -148 4 -272 3 -276 -1z m29 -477 c-1 -84 -3 -16
-3 152 0 168 2 236 3 153 2 -84 2 -222 0 -305z m63 152 c0 -293 0 -300 -20
-300 -20 0 -20 7 -20 300 0 293 0 300 20 300 20 0 20 -7 20 -300z m70 0 l0
-300 -25 0 -25 0 0 293 c0 162 3 297 7 300 3 4 15 7 25 7 17 0 18 -16 18 -300z
m70 0 l0 -300 -23 0 -22 0 1 293 c1 160 2 295 3 300 0 4 10 7 21 7 20 0 20 -7
20 -300z m63 -2 l3 -298 -23 0 -23 0 0 301 c0 296 0 300 20 297 20 -3 21 -10
23 -300z m37 2 c0 -193 -4 -300 -10 -300 -6 0 -10 104 -10 293 0 259 3 307 17
307 2 0 3 -135 3 -300z m630 -5 l0 -305 -305 0 -305 0 0 305 0 305 305 0 305
0 0 -305z"/>
<path d="M2682 5068 l3 -323 178 -3 177 -2 0 325 0 325 -180 0 -180 0 2 -322z
m38 -4 c0 -201 -3 -303 -10 -299 -6 4 -10 117 -10 306 0 193 4 299 10 299 6 0
10 -109 10 -306z m70 49 c-1 -307 -5 -353 -31 -353 -18 0 -19 14 -19 305 l0
305 25 0 25 0 0 -257z m62 -23 c1 -154 2 -290 2 -302 1 -16 -6 -24 -21 -26
l-23 -3 0 305 c0 299 0 306 20 306 19 0 20 -7 22 -280z m68 -26 l0 -305 -22 3
c-13 2 -22 6 -20 11 1 4 2 140 2 302 0 288 0 295 20 295 20 0 20 -7 20 -306z
m72 114 l2 -193 6 160 6 160 -3 -170 c-1 -93 -5 -216 -8 -272 -6 -101 -7 -103
-31 -103 l-24 0 0 305 0 305 25 0 25 0 2 -192z m25 150 c-3 -7 -5 -2 -5 12 0
14 2 19 5 13 2 -7 2 -19 0 -25z m-10 -550 c-3 -7 -5 -2 -5 12 0 14 2 19 5 13
2 -7 2 -19 0 -25z"/>
<path d="M6360 6045 l0 -265 200 0 200 0 0 30 0 30 -165 0 -165 0 0 90 0 89
148 3 147 3 0 30 c0 29 -1 30 -50 30 -27 0 -94 2 -148 3 l-98 2 3 78 3 77 158
3 158 3 -3 27 -3 27 -192 3 -193 2 0 -265z"/>
<path d="M6898 6007 c-55 -67 -98 -134 -98 -151 0 -13 12 -16 60 -16 l60 0 0
-31 c0 -37 23 -35 28 2 2 13 10 28 18 32 19 11 18 27 -1 27 -12 0 -15 16 -15
84 0 47 -4 87 -9 90 -5 3 -24 -13 -43 -37z m18 -123 c-5 -13 -76 -21 -76 -9 0
5 40 67 65 102 7 10 11 1 13 -33 2 -26 1 -53 -2 -60z"/>
<path d="M935 3819 c-36 -32 -46 -59 -21 -59 8 0 18 6 23 13 5 7 10 -22 13
-68 5 -74 7 -80 28 -83 22 -3 22 -2 22 112 0 132 -5 138 -65 85z"/>
<path d="M3322 3830 c-12 -12 -22 -27 -22 -35 0 -19 34 -19 50 0 7 8 21 15 31
15 34 0 21 -39 -36 -106 -30 -36 -55 -69 -55 -75 0 -5 36 -9 80 -9 73 0 80 2
80 20 0 17 -7 20 -46 20 l-47 0 42 45 c32 34 41 52 41 79 0 60 -72 88 -118 46z"/>
<path d="M5742 3834 c-12 -8 -22 -21 -22 -29 0 -23 20 -28 39 -11 21 19 37 20
47 4 4 -6 -4 -21 -21 -34 l-27 -22 28 -13 c35 -17 43 -53 16 -68 -15 -8 -23
-6 -37 9 -23 25 -45 26 -45 2 0 -48 82 -70 120 -32 24 24 26 67 3 92 -13 14
-14 21 -5 30 31 31 -4 88 -53 88 -11 0 -31 -7 -43 -16z"/>
<path d="M8172 3778 c-67 -91 -67 -104 -2 -113 40 -6 50 -11 50 -26 0 -24 28
-25 37 -1 3 9 13 25 21 34 13 16 13 18 -2 24 -11 4 -16 19 -16 49 0 60 -10
105 -25 105 -6 0 -35 -32 -63 -72z m44 -43 c-5 -26 -12 -35 -26 -35 -26 0 -25
14 2 50 26 36 33 32 24 -15z"/>
<path d="M264 3539 c-10 -17 -18 -1021 -9 -1191 l7 -148 793 0 794 0 90 78
c405 347 541 498 541 597 0 53 -68 153 -180 266 -103 103 -341 315 -421 374
l-41 30 -783 2 c-560 2 -786 -1 -791 -8z m1539 -16 c51 -6 52 -7 219 -151 184
-161 312 -281 347 -327 56 -74 91 -139 91 -166 0 -47 -49 -128 -132 -217 -82
-89 -376 -358 -452 -413 l-39 -29 -777 0 -777 0 -8 345 c-8 399 2 946 18 957
13 8 1445 10 1510 1z"/>
<path d="M747 3043 c-10 -9 -9 -341 1 -346 4 -3 25 -1 47 3 37 7 38 8 9 9 -28
1 -33 5 -38 36 -4 20 -4 40 -1 45 4 6 122 10 311 10 l304 0 0 -23 c0 -13 -5
-28 -12 -35 -9 -9 -9 -12 0 -12 7 0 12 -5 12 -11 0 -5 -4 -8 -9 -4 -6 3 -54 2
-108 -2 l-98 -8 70 -6 c39 -4 91 -7 118 -8 l47 -1 0 180 0 180 -323 0 c-178 0
-327 -3 -330 -7z m631 -64 l3 -26 -122 -8 c-67 -4 -207 -4 -310 0 l-189 8 0
23 c0 22 4 23 78 27 42 2 181 3 307 3 l230 -1 3 -26z m2 -74 l0 -25 -310 0
c-294 0 -310 1 -310 18 0 10 3 22 7 25 3 4 143 7 310 7 l303 0 0 -25z m-2 -67
c-3 -23 -4 -23 -218 -26 -118 -2 -257 0 -307 3 -83 6 -93 9 -93 26 0 18 12 19
311 19 l310 0 -3 -22z"/>
<path d="M1318 2738 c9 -9 15 -9 24 0 9 9 7 12 -12 12 -19 0 -21 -3 -12 -12z"/>
<path d="M938 2703 c12 -2 32 -2 45 0 12 2 2 4 -23 4 -25 0 -35 -2 -22 -4z"/>
<path d="M2674 3541 c-2 -2 -4 -305 -4 -673 l0 -668 799 0 800 0 98 88 c358
317 433 393 495 500 61 104 22 189 -173 378 -99 97 -350 319 -396 352 l-32 23
-792 2 c-435 1 -793 0 -795 -2z m1554 -18 c36 -5 60 -21 175 -121 314 -274
425 -391 463 -490 17 -42 17 -42 -15 -107 -25 -50 -61 -95 -154 -189 -117
-117 -344 -324 -410 -373 l-31 -23 -783 0 -783 0 0 650 0 649 63 4 c97 6 1427
6 1475 0z"/>
<path d="M3160 2876 l0 -326 325 0 325 0 0 323 0 323 -325 3 -325 2 0 -325z
m599 298 l31 -6 0 -299 0 -299 -305 0 -305 0 0 298 c0 164 3 302 7 305 8 9
530 9 572 1z"/>
<path d="M5085 3542 c-3 -3 -5 -306 -5 -674 l0 -668 803 0 802 1 65 60 c36 33
115 102 175 153 136 116 290 273 339 348 69 103 57 163 -61 303 -69 82 -438
414 -503 453 l-45 27 -783 1 c-430 0 -784 -2 -787 -4z m1600 -34 c47 -26 360
-305 461 -410 90 -95 144 -179 144 -225 0 -79 -147 -253 -372 -441 -48 -39
-121 -104 -162 -142 l-76 -70 -790 0 -790 0 0 650 0 650 313 3 c171 1 521 3
777 2 415 0 468 -2 495 -17z"/>
<path d="M5713 3363 l-313 -3 0 -490 0 -490 168 0 c93 0 318 -3 500 -7 l332
-6 0 501 0 502 -187 -2 c-104 -2 -329 -4 -500 -5z m327 -323 l0 -300 -304 0
-304 0 -6 23 c-8 30 -8 562 1 570 3 4 143 7 310 7 l303 0 0 -300z m100 0 l0
-300 -35 0 -35 0 0 300 0 300 35 0 35 0 0 -300z m60 0 c0 -293 0 -300 -20
-300 -20 0 -20 7 -20 300 0 293 0 300 20 300 20 0 20 -7 20 -300z m70 0 l0
-300 -25 0 -25 0 0 300 0 300 25 0 25 0 0 -300z m68 3 l-3 -298 -22 -3 -23 -3
0 300 0 301 25 0 25 0 -2 -297z m39 164 c-2 -23 -3 -1 -3 48 0 50 1 68 3 42 2
-26 2 -67 0 -90z m-5 -325 c2 -72 0 -132 -4 -132 -5 0 -7 89 -6 198 2 199 6
176 10 -66z m-342 -169 c0 -5 -135 -9 -300 -10 -165 -1 -300 2 -300 6 0 5 135
9 300 10 165 1 300 -2 300 -6z m0 -58 l0 -25 -300 0 -300 0 0 25 0 25 300 0
300 0 0 -25z m0 -65 c0 -22 40 -20 -525 -24 -65 -1 -70 1 -73 22 l-3 22 300 0
c294 0 301 0 301 -20z m-47 -50 c40 0 47 -3 47 -20 0 -20 -7 -20 -300 -20
-290 0 -300 1 -300 19 0 26 5 26 275 24 127 -1 251 -2 278 -3z m47 -95 l0 -35
-300 0 -300 0 0 35 0 35 300 0 300 0 0 -35z"/>
<path d="M6084 3120 c0 -63 1 -89 3 -57 2 31 2 83 0 115 -2 31 -3 5 -3 -58z"/>
<path d="M6083 2885 c0 -33 2 -45 4 -27 2 18 2 45 0 60 -2 15 -4 0 -4 -33z"/>
<path d="M5583 2423 c81 -2 213 -2 295 0 81 1 14 3 -148 3 -162 0 -229 -2
-147 -3z"/>
<path d="M7500 2870 l0 -670 793 0 794 0 41 30 c23 16 72 58 109 92 37 35 88
81 113 102 98 84 301 291 331 338 46 71 49 127 12 195 -15 29 -46 76 -68 104
-38 49 -389 367 -488 442 l-49 37 -794 0 -794 0 0 -670z m1616 628 c86 -66
399 -345 455 -405 73 -78 121 -156 126 -207 7 -59 -27 -122 -126 -228 -80 -86
-396 -371 -457 -413 l-37 -25 -778 0 -779 0 0 650 0 650 784 0 783 0 29 -22z"/>
<path d="M8136 2873 c-3 -267 -5 -487 -3 -489 1 -2 84 -4 182 -4 l180 -2 3
491 2 491 -178 0 -179 0 -7 -487z m54 -123 c6 0 10 110 10 301 0 281 1 300 18
297 16 -3 17 -27 20 -306 l2 -302 -40 0 -40 0 0 298 c0 164 3 302 8 306 4 4 8
-128 10 -293 1 -189 6 -301 12 -301z m290 295 c0 -197 -4 -305 -10 -305 -6 0
-10 103 -10 289 0 259 3 321 16 321 2 0 4 -137 4 -305z m-170 -5 l0 -300 -25
0 -25 0 0 300 0 300 25 0 25 0 0 -300z m60 0 c0 -293 0 -300 -20 -300 -20 0
-20 7 -20 300 0 293 0 300 20 300 20 0 20 -7 20 -300z m70 0 l0 -300 -23 0
-24 0 -2 282 c-1 154 1 289 4 300 4 10 15 18 26 18 18 0 19 -10 19 -300z"/>
<path d="M3328 1840 c-29 -29 -30 -34 -26 -95 5 -77 25 -105 75 -105 44 0 73
30 73 75 0 49 -31 79 -76 72 -26 -4 -34 -2 -34 9 0 21 47 41 62 26 18 -18 38
-14 38 8 0 22 -27 40 -60 40 -12 0 -35 -14 -52 -30z m80 -129 c-2 -20 -9 -26
-28 -26 -32 0 -41 42 -14 62 24 17 46 -2 42 -36z"/>
<path d="M5736 1861 c-47 -10 -36 -26 21 -29 l51 -3 -29 -64 c-38 -79 -42
-119 -14 -123 18 -2 22 6 32 53 7 31 26 79 43 107 17 28 30 52 28 53 -7 8
-105 12 -132 6z"/>
<path d="M8155 1846 c-21 -21 -23 -28 -14 -55 7 -21 7 -36 0 -50 -29 -53 0
-101 62 -101 27 0 41 7 56 26 25 32 26 40 6 78 -11 20 -12 33 -5 40 17 17 11
54 -12 70 -32 23 -65 20 -93 -8z m71 -27 c8 -14 -21 -43 -35 -35 -6 4 -11 16
-11 27 0 21 34 27 46 8z m2 -111 c3 -24 0 -28 -23 -28 -27 0 -41 20 -31 46 10
27 51 13 54 -18z"/>
<path d="M906 1838 c-3 -13 -8 -41 -11 -62 l-6 -39 33 7 c59 13 63 12 66 -17
2 -16 -2 -35 -9 -43 -10 -13 -15 -13 -35 1 -46 30 -75 7 -36 -28 43 -39 132
-1 132 56 0 37 -36 77 -71 77 -48 0 -37 28 13 32 31 2 44 8 46 21 3 15 -5 17
-57 17 -55 0 -61 -2 -65 -22z"/>
<path d="M256 1483 c-8 -137 -8 -1053 1 -1160 l6 -83 793 0 792 0 70 58 c203
170 457 414 507 487 19 27 40 72 47 98 12 47 11 50 -21 113 -39 76 -138 184
-282 310 -56 49 -147 128 -202 177 -55 48 -109 89 -121 92 -11 2 -372 6 -802
9 l-781 4 -7 -105z m1607 65 c14 -10 55 -44 89 -76 35 -32 104 -93 154 -135
213 -178 354 -345 354 -418 0 -76 -134 -241 -345 -424 -44 -38 -107 -94 -140
-124 -33 -30 -77 -67 -99 -83 l-39 -28 -777 0 -777 0 -7 183 c-8 213 -8 718 1
957 l6 165 776 0 c723 0 779 -1 804 -17z"/>
<path d="M880 916 l0 -324 95 -7 c52 -4 132 -4 177 0 l83 7 1 318 2 318 -30 6
c-17 3 -97 6 -179 6 l-149 0 0 -324z m53 162 c8 130 10 142 28 142 18 0 19
-12 19 -305 0 -298 0 -305 -20 -305 -18 0 -20 7 -21 73 -2 120 -17 135 -18 18
-1 -57 -4 -101 -8 -97 -10 10 -16 585 -6 605 5 9 10 -46 13 -129 l5 -145 8
143z m117 -163 l0 -305 -25 0 -25 0 0 305 0 305 25 0 25 0 0 -305z m60 298 c1
-5 2 -142 3 -306 l2 -297 -22 0 -23 0 0 305 c0 298 0 305 20 305 11 0 20 -3
20 -7z m70 -298 c0 -296 -1 -305 -19 -305 -19 0 -20 9 -23 143 -2 78 -2 215 0
305 3 152 4 162 23 162 18 0 19 -10 19 -305z m40 -7 c0 -172 -3 -308 -7 -302
-8 9 -6 614 2 614 3 0 5 -140 5 -312z"/>
<path d="M2670 916 l0 -676 799 0 800 0 228 204 c365 326 434 427 373 545 -30
60 -110 154 -202 239 -112 105 -324 291 -372 327 l-39 30 -794 3 -793 4 0
-676z m1563 647 c31 -5 71 -34 205 -151 283 -246 396 -369 429 -466 13 -37 13
-42 -16 -100 -17 -34 -60 -94 -97 -133 -64 -71 -291 -281 -427 -396 l-67 -57
-785 0 -785 0 0 650 0 649 73 4 c135 6 1432 7 1470 0z"/>
<path d="M3600 1090 l0 -310 -310 0 -310 0 0 -178 0 -179 487 -7 c267 -3 490
-3 495 2 5 5 5 228 2 495 l-7 487 -179 0 -178 0 0 -310z m40 -6 c0 -201 -3
-303 -10 -299 -6 4 -10 115 -10 299 0 258 3 306 17 306 2 0 3 -138 3 -306z
m64 289 c-1 -7 -2 -143 -2 -303 -2 -283 -2 -290 -22 -290 -20 0 -20 7 -20 306
l0 305 23 -3 c12 -2 22 -9 21 -15z m134 -291 l2 -302 -26 0 c-26 0 -27 1 -20
53 3 28 6 166 6 305 0 236 1 253 18 250 16 -3 17 -27 20 -306z m-61 1 l-7
-298 -22 0 -23 0 -2 185 c-2 102 0 236 3 298 6 112 6 112 31 112 l26 0 -6
-297z m133 -3 l0 -300 -25 0 -25 0 0 300 0 300 25 0 25 0 0 -300z m30 5 c0
-190 -4 -295 -10 -295 -6 0 -10 100 -10 279 0 250 3 311 16 311 2 0 4 -133 4
-295z m-341 -329 c-8 -9 -599 -13 -599 -4 0 4 136 8 302 8 166 0 299 -2 297
-4z m1 -61 l0 -25 -300 0 -300 0 0 25 0 25 300 0 300 0 0 -25z m-223 -45 l224
0 -3 -22 -3 -23 -297 -3 -298 -3 0 32 0 32 77 -7 c42 -3 177 -6 300 -6z m-47
-68 c263 -2 270 -3 270 -22 0 -20 -7 -20 -300 -20 l-300 0 0 24 c0 19 5 23 30
21 17 -1 152 -2 300 -3z m270 -87 l0 -25 -300 0 -300 0 0 25 0 25 300 0 300 0
0 -25z m0 -42 c0 -9 -589 -7 -598 2 -3 3 130 5 296 5 166 0 302 -3 302 -7z"/>
<path d="M5298 1583 l-218 -3 0 -670 0 -670 803 0 803 0 90 83 c49 45 114 103
144 128 254 213 390 376 390 465 0 37 -56 132 -124 210 -62 71 -428 397 -481
429 l-40 24 -575 4 c-316 2 -673 2 -792 0z m1409 -50 c62 -42 337 -290 435
-391 94 -97 148 -180 148 -227 0 -78 -127 -232 -348 -422 -75 -65 -166 -144
-201 -175 l-65 -58 -788 0 -788 0 0 650 0 650 783 0 784 0 40 -27z"/>
<path d="M5705 912 l1 -177 177 -3 177 -2 0 180 0 180 -177 0 -178 0 0 -178z"/>
<path d="M7500 915 l0 -675 794 0 794 0 49 37 c26 20 86 71 133 114 47 43 123
112 170 154 109 98 233 235 255 281 30 64 31 107 2 166 -43 86 -116 165 -317
343 -259 229 -271 237 -333 246 -29 4 -388 8 -799 8 l-748 1 0 -675z m1615
623 c55 -39 395 -341 453 -401 74 -79 124 -159 129 -210 7 -61 -28 -125 -124
-227 -86 -92 -397 -373 -457 -414 l-39 -26 -778 0 -779 0 0 649 c0 510 3 650
13 655 6 2 357 4 778 3 l766 -2 38 -27z"/>
<path d="M8300 1090 l0 -170 -180 0 -180 0 2 -177 3 -178 358 -3 357 -2 -2
347 -3 348 -177 3 -178 2 0 -170z m100 -10 l0 -160 -37 0 -36 0 6 113 c4 61 7
133 7 160 0 46 1 47 30 47 l30 0 0 -160z m60 0 c0 -153 -1 -160 -20 -160 -19
0 -20 7 -20 160 0 153 1 160 20 160 19 0 20 -7 20 -160z m68 3 c-3 -155 -3
-158 -25 -161 l-23 -3 0 160 0 161 25 0 26 0 -3 -157z m72 -3 l0 -160 -25 0
-25 0 0 160 0 160 25 0 25 0 0 -160z m40 -1 c0 -104 -3 -158 -10 -154 -6 4
-10 66 -10 154 0 130 3 161 17 161 2 0 3 -72 3 -161z m-340 -189 c0 -6 -64
-10 -171 -10 -111 0 -168 3 -164 10 4 6 72 10 171 10 103 0 164 -4 164 -10z
m100 0 c0 -5 -16 -10 -36 -10 -21 0 -33 4 -29 10 3 6 19 10 36 10 16 0 29 -4
29 -10z m60 0 c0 -5 -9 -10 -20 -10 -11 0 -20 5 -20 10 0 6 9 10 20 10 11 0
20 -4 20 -10z m70 0 c0 -5 -11 -10 -25 -10 -14 0 -25 5 -25 10 0 6 11 10 25
10 14 0 25 -4 25 -10z m70 0 c0 -5 -11 -10 -25 -10 -14 0 -25 5 -25 10 0 6 11
10 25 10 14 0 25 -4 25 -10z m-140 -51 c0 -12 -7 -19 -20 -19 -19 0 -28 28
-14 43 11 11 34 -5 34 -24z m61 21 c5 0 9 -9 9 -20 0 -15 -7 -20 -25 -20 -20
0 -25 5 -25 26 0 20 4 25 16 20 9 -3 20 -6 25 -6z m-221 -20 c0 -19 -7 -20
-170 -20 -163 0 -170 1 -170 20 0 19 7 20 170 20 163 0 170 -1 170 -20z m100
0 c0 -16 -7 -20 -35 -20 -28 0 -35 4 -35 20 0 16 7 20 35 20 28 0 35 -4 35
-20z m200 0 c0 -15 -7 -20 -25 -20 -18 0 -25 5 -25 20 0 15 7 20 25 20 18 0
25 -5 25 -20z m-300 -65 l0 -25 -163 0 c-90 0 -166 3 -169 6 -3 3 -4 14 -1 25
5 18 15 19 169 19 l164 0 0 -25z m100 0 c0 -21 -5 -25 -30 -25 -25 0 -30 4
-30 25 0 21 5 25 30 25 25 0 30 -4 30 -25z m60 0 c0 -18 -5 -25 -20 -25 -15 0
-20 7 -20 25 0 18 5 25 20 25 15 0 20 -7 20 -25z m70 0 c0 -20 -5 -25 -25 -25
-20 0 -25 5 -25 25 0 20 5 25 25 25 20 0 25 -5 25 -25z m70 0 c0 -20 -5 -25
-25 -25 -20 0 -25 5 -25 25 0 20 5 25 25 25 20 0 25 -5 25 -25z m-300 -70 l0
-25 -164 0 c-91 0 -167 4 -170 9 -4 5 -3 16 0 25 5 14 29 16 170 16 l164 0 0
-25z m98 3 c-2 -17 -11 -24 -30 -26 -24 -3 -28 0 -28 22 0 22 4 26 31 26 26 0
30 -3 27 -22z m62 -3 c0 -18 -5 -25 -20 -25 -15 0 -20 7 -20 25 0 18 5 25 20
25 15 0 20 -7 20 -25z m70 0 c0 -20 -5 -25 -25 -25 -20 0 -25 5 -25 25 0 20 5
25 25 25 20 0 25 -5 25 -25z m70 0 c0 -20 -5 -25 -25 -25 -20 0 -25 5 -25 25
0 20 5 25 25 25 20 0 25 -5 25 -25z m-300 -64 c0 -23 -37 -28 -210 -26 -120 1
-125 2 -128 23 -3 22 -2 22 167 22 160 0 171 -1 171 -19z m100 -1 c0 -16 -7
-20 -34 -20 -29 0 -33 3 -29 20 4 14 14 20 34 20 22 0 29 -5 29 -20z m60 0 c0
-13 -7 -20 -20 -20 -13 0 -20 7 -20 20 0 13 7 20 20 20 13 0 20 -7 20 -20z
m70 0 c0 -15 -7 -20 -25 -20 -18 0 -25 5 -25 20 0 15 7 20 25 20 18 0 25 -5
25 -20z m70 1 c0 -12 -9 -20 -25 -23 -21 -4 -25 -1 -25 18 0 19 5 24 25 24 18
0 25 -5 25 -19z m-303 -48 c-10 -10 -327 -12 -333 -2 -3 5 71 9 167 9 95 0
169 -3 166 -7z m99 -2 c-5 -8 -56 -3 -56 5 0 2 14 4 31 4 16 0 28 -4 25 -9z
m56 -3 c-9 -9 -15 -9 -24 0 -9 9 -7 12 12 12 19 0 21 -3 12 -12z m73 2 c-3 -5
-12 -10 -20 -10 -8 0 -17 5 -20 10 -4 6 5 10 20 10 15 0 24 -4 20 -10z m68 3
c-7 -2 -21 -2 -30 0 -10 3 -4 5 12 5 17 0 24 -2 18 -5z"/>
</g>
</svg>
