<?xml version="1.0" standalone="no"?>
<!DOCTYPE svg PUBLIC "-//W3C//DTD SVG 20010904//EN"
 "http://www.w3.org/TR/2001/REC-SVG-20010904/DTD/svg10.dtd">
<svg version="1.0" xmlns="http://www.w3.org/2000/svg"
 width="996.000000pt" height="922.000000pt" viewBox="0 0 996.000000 922.000000"
 preserveAspectRatio="xMidYMid meet">
<metadata>
Created by potrace 1.16, written by Peter Selinger 2001-2019
</metadata>
<g transform="translate(0.000000,922.000000) scale(0.100000,-0.100000)"
fill="#FFFFFF" stroke="none">
<path d="M256 8890 c-3 -61 -6 -1170 -6 -2465 l1 -2355 2944 0 2945 0 0 2465
0 2465 -2938 0 -2939 0 -7 -110z m5864 -2355 l0 -2445 -2918 0 -2919 0 -6 107
c-9 138 -9 4489 0 4656 l6 127 2919 0 2918 0 0 -2445z"/>
<path d="M928 8526 c-67 -24 -131 -78 -161 -138 -24 -45 -29 -68 -29 -126 0
-82 22 -137 76 -194 34 -37 34 -38 11 -38 -26 0 -50 -32 -41 -56 3 -8 17 -14
31 -14 14 0 25 -2 25 -4 0 -2 -16 -21 -36 -42 -20 -21 -43 -54 -52 -74 -19
-45 -19 -165 1 -210 77 -181 296 -236 440 -110 l46 40 3 -27 c3 -24 8 -28 33
-28 27 0 30 4 33 33 l3 33 54 -49 c63 -58 120 -77 200 -69 66 7 111 28 169 78
110 97 114 297 7 393 -26 24 -27 36 -2 36 13 0 20 9 23 30 5 36 2 40 -30 40
-23 0 -22 2 20 48 99 106 88 293 -23 386 -64 54 -109 71 -189 71 -83 0 -114
-12 -187 -72 l-43 -34 0 25 c0 23 -4 26 -35 26 -28 0 -35 -4 -35 -20 0 -27 -5
-26 -52 14 -71 61 -176 82 -260 52z m200 -37 c76 -38 116 -82 107 -118 -16
-63 -71 -159 -121 -208 -54 -54 -177 -123 -220 -123 -13 0 -36 11 -53 25 -125
106 -110 328 28 409 95 55 170 60 259 15z m504 11 c66 -24 131 -89 153 -149
35 -99 9 -213 -62 -280 -31 -28 -41 -32 -72 -27 -138 22 -295 179 -326 324 -6
29 -3 38 22 64 77 81 183 106 285 68z m-308 -288 c52 -79 126 -151 184 -181
22 -11 43 -24 45 -28 3 -5 -55 -7 -129 -5 l-134 3 0 107 c0 59 -4 122 -9 140
-5 17 -8 32 -6 32 2 0 24 -31 49 -68z m-58 -199 c-4 -10 -38 -13 -138 -13
l-133 0 44 25 c74 43 139 104 183 173 l43 66 3 -119 c1 -65 0 -125 -2 -132z
m3 -160 c0 -103 -2 -124 -12 -109 -54 85 -105 141 -168 185 l-72 51 126 0 127
0 -1 -127z m240 107 c-58 -31 -144 -116 -189 -185 -37 -60 -64 -90 -40 -46 5
11 10 72 10 135 l0 116 128 0 127 -1 -36 -19z m-529 -41 c35 -16 83 -46 106
-65 56 -45 120 -143 140 -212 l17 -56 -42 -37 c-87 -77 -182 -97 -283 -59
-101 38 -162 132 -162 250 1 65 21 117 67 167 48 52 69 54 157 12z m750 -6
c97 -110 94 -271 -6 -363 -60 -55 -116 -80 -185 -80 -103 0 -228 87 -215 151
22 109 128 240 240 294 94 46 125 46 166 -2z"/>
<path d="M972 8297 c-37 -40 -22 -84 34 -101 25 -8 74 27 74 53 0 28 -39 71
-64 71 -12 0 -32 -10 -44 -23z"/>
<path d="M1500 8300 c-47 -47 1 -124 63 -101 59 23 40 121 -23 121 -11 0 -29
-9 -40 -20z"/>
<path d="M987 7782 c-37 -23 -43 -49 -20 -81 26 -34 59 -38 89 -10 31 29 30
54 -1 84 -28 29 -32 30 -68 7z"/>
<path d="M1506 7779 c-15 -12 -26 -30 -26 -45 0 -29 33 -64 60 -64 27 0 60 35
60 64 0 22 -40 66 -60 66 -4 0 -19 -9 -34 -21z"/>
<path d="M2529 8531 c-72 -23 -152 -87 -181 -144 -13 -25 -23 -69 -26 -110 -6
-84 15 -143 71 -204 39 -43 39 -43 13 -43 -19 0 -27 -6 -32 -24 -7 -31 1 -46
27 -46 26 0 24 -6 -20 -56 -61 -69 -78 -172 -44 -270 25 -73 104 -148 178
-170 101 -29 182 -10 272 62 l42 34 3 -27 c3 -24 8 -28 33 -28 25 0 31 5 35
28 l5 28 30 -31 c53 -56 100 -75 190 -75 86 0 129 16 193 70 109 92 113 301 6
401 l-35 34 31 0 c29 0 31 2 28 32 -2 24 -9 34 -26 38 l-23 5 30 29 c73 70 96
218 47 314 -47 93 -154 162 -251 162 -52 0 -121 -26 -175 -64 -45 -33 -50 -34
-50 -15 0 17 -5 20 -37 17 -32 -2 -38 -7 -37 -25 0 -21 -1 -21 -33 7 -54 48
-112 72 -178 76 -33 2 -72 0 -86 -5z m154 -27 c26 -9 68 -35 94 -58 l46 -42
-13 -52 c-33 -141 -193 -291 -329 -309 -35 -5 -41 -2 -74 39 -20 25 -43 61
-52 81 -29 70 -12 199 33 252 75 89 192 124 295 89z m528 1 c147 -50 216 -224
146 -367 -50 -102 -101 -117 -207 -64 -129 65 -196 148 -244 302 -12 40 66
108 154 135 42 12 104 10 151 -6z m-227 -389 c34 -34 87 -75 119 -92 l59 -31
-58 -28 c-72 -35 -169 -132 -210 -208 l-31 -58 -39 67 c-46 78 -127 157 -206
199 l-57 30 57 30 c73 37 179 144 217 216 l28 56 30 -60 c17 -33 57 -87 91
-121z m-406 -202 c107 -52 222 -196 239 -298 4 -29 0 -37 -42 -74 -89 -79
-202 -92 -306 -36 -61 34 -95 76 -115 140 -30 101 -11 191 57 268 30 35 37 38
72 33 21 -3 64 -18 95 -33z m734 -1 c50 -51 70 -103 70 -184 1 -148 -113 -260
-266 -259 -62 1 -109 22 -172 78 l-48 43 20 57 c41 121 149 239 259 282 74 28
95 26 137 -17z"/>
<path d="M4438 8243 l-3 -238 -240 -5 c-132 -3 -232 -8 -222 -12 10 -5 120 -8
243 -8 l224 0 0 -236 c0 -154 3 -233 10 -229 6 4 10 93 10 236 l0 229 234 0
c146 0 237 4 241 10 4 7 -77 10 -234 10 l-241 0 0 234 c0 143 -4 237 -10 241
-6 4 -11 -80 -12 -232z"/>
<path d="M4142 8297 c-30 -32 -28 -50 9 -81 38 -32 44 -32 74 -1 28 27 30 37
14 68 -24 44 -64 50 -97 14z"/>
<path d="M4665 8295 c-31 -30 -31 -36 1 -74 30 -37 42 -38 78 -10 31 25 34 61
6 89 -27 27 -56 25 -85 -5z"/>
<path d="M4146 7775 c-31 -29 -33 -58 -6 -85 27 -27 56 -25 85 4 27 27 25 46
-8 84 -26 28 -38 28 -71 -3z"/>
<path d="M4676 7779 c-31 -25 -34 -61 -6 -89 28 -28 54 -25 84 11 29 34 25 55
-16 83 -28 20 -30 20 -62 -5z"/>
<path d="M1246 7008 c-3 -7 -7 -37 -10 -67 -18 -176 -183 -338 -382 -374 -59
-10 -69 -15 -72 -34 -2 -17 3 -24 20 -27 163 -34 219 -58 289 -123 94 -87 134
-164 147 -278 7 -59 8 -60 40 -63 30 -3 32 -1 32 30 0 49 24 129 56 189 62
115 187 206 319 230 33 7 65 13 71 15 7 1 9 13 7 27 -4 21 -12 26 -49 32 -110
16 -234 81 -295 154 -47 57 -90 154 -102 230 -11 68 -12 71 -40 71 -15 0 -29
-6 -31 -12z m65 -238 c40 -76 132 -169 203 -206 31 -16 56 -31 56 -34 0 -3
-23 -16 -52 -30 -67 -32 -175 -139 -212 -211 l-30 -56 -25 51 c-33 68 -152
186 -218 217 -29 13 -52 26 -52 29 0 3 23 16 52 29 68 32 184 149 216 219 14
28 26 52 27 52 2 0 17 -27 35 -60z"/>
<path d="M2822 6944 c-15 -96 -56 -174 -128 -246 -65 -65 -133 -102 -229 -124
-98 -22 -95 -21 -95 -43 0 -14 9 -23 28 -27 162 -36 218 -62 299 -141 65 -63
111 -155 126 -253 l11 -71 30 3 c30 3 31 5 37 63 20 188 173 351 364 386 86
17 87 17 83 40 -2 19 -16 25 -82 41 -103 24 -184 68 -246 134 -57 60 -110 162
-117 227 -9 81 -11 87 -41 87 -28 0 -29 -2 -40 -76z m172 -302 c34 -31 85 -68
113 -82 29 -14 52 -27 52 -30 0 -3 -23 -16 -52 -29 -67 -31 -185 -149 -219
-219 l-26 -52 -29 56 c-38 77 -134 173 -211 211 l-62 31 58 33 c97 54 170 129
219 223 l25 50 35 -67 c23 -42 59 -89 97 -125z"/>
<path d="M977 6832 c-32 -34 -33 -42 -6 -76 25 -32 59 -33 87 -3 28 30 28 52
-3 82 -31 32 -45 31 -78 -3z"/>
<path d="M1506 6839 c-15 -12 -26 -30 -26 -45 0 -29 33 -64 60 -64 27 0 60 35
60 63 0 24 -37 67 -57 67 -6 0 -22 -9 -37 -21z"/>
<path d="M4145 6835 c-14 -13 -25 -33 -25 -44 0 -21 44 -61 67 -61 18 0 63 48
63 67 0 19 -45 63 -65 63 -9 0 -27 -11 -40 -25z"/>
<path d="M4676 6839 c-14 -11 -26 -31 -26 -43 0 -25 38 -66 61 -66 22 0 59 43
59 67 0 19 -42 63 -60 63 -4 0 -19 -9 -34 -21z"/>
<path d="M1506 6319 c-34 -27 -34 -68 -1 -99 23 -21 27 -22 51 -10 53 29 56
88 5 115 -27 13 -31 13 -55 -6z"/>
<path d="M976 6309 c-33 -26 -33 -40 0 -78 32 -38 44 -39 78 -5 32 32 33 57 4
84 -28 25 -48 25 -82 -1z"/>
<path d="M4141 6306 c-29 -30 -23 -68 14 -92 23 -15 27 -15 50 0 40 26 47 48
25 84 -24 39 -57 42 -89 8z"/>
<path d="M4682 6323 c-7 -3 -19 -17 -27 -33 -13 -26 -13 -30 6 -54 23 -29 54
-33 87 -10 52 36 -5 122 -66 97z"/>
<path d="M3655 5728 c-3 -7 -4 -310 -3 -673 l3 -660 795 0 795 0 30 23 c62 48
275 241 393 357 132 129 195 211 206 271 11 57 -39 149 -138 252 -70 73 -304
286 -445 405 l-45 37 -793 0 c-626 0 -795 -3 -798 -12z m1645 -55 c191 -165
426 -382 466 -431 48 -59 94 -143 94 -175 0 -73 -135 -228 -415 -475 l-200
-177 -785 0 -785 0 -3 610 c-2 336 0 629 3 653 l6 42 782 0 782 0 55 -47z"/>
<path d="M930 5598 c-19 -5 -58 -27 -87 -48 -137 -104 -145 -308 -16 -427 l46
-43 -42 0 c-22 0 -41 -4 -41 -10 0 -5 20 -10 45 -10 l44 0 -49 -46 c-70 -65
-90 -112 -90 -209 0 -97 20 -144 89 -208 84 -79 203 -97 305 -45 23 11 64 43
93 71 l52 51 50 -51 c69 -70 129 -98 211 -98 166 2 291 136 278 299 -7 79 -37
140 -96 193 l-47 43 37 0 c20 0 40 5 43 10 4 6 -11 10 -37 10 l-43 0 48 41
c60 52 88 107 95 185 13 163 -116 304 -278 304 -79 0 -138 -27 -205 -94 l-61
-61 -50 54 c-82 90 -183 121 -294 89z m185 -27 c55 -25 101 -65 130 -116 25
-41 25 -47 23 -206 l-3 -164 -173 -3 -173 -2 -42 29 c-89 61 -120 119 -120
221 0 123 68 216 183 251 46 14 134 9 175 -10z m516 4 c95 -32 159 -119 167
-225 7 -93 -11 -137 -84 -207 l-65 -63 -180 0 -179 0 0 174 0 174 33 48 c63
95 195 137 308 99z m-364 -678 c5 -181 -1 -208 -57 -266 -60 -62 -112 -85
-195 -85 -153 -1 -257 106 -258 264 0 46 6 77 21 105 26 52 99 123 137 135 16
4 102 8 189 7 l159 -2 4 -158z m362 157 c41 -8 116 -76 143 -127 26 -52 34
-143 18 -201 -16 -59 -70 -120 -134 -154 -68 -35 -161 -37 -223 -4 -54 28
-110 77 -127 111 -16 30 -32 301 -21 349 l7 32 153 0 c84 0 167 -3 184 -6z"/>
<path d="M2518 5600 c-45 -13 -95 -48 -137 -96 -102 -116 -72 -324 59 -404 22
-14 38 -28 37 -31 -1 -4 -22 -22 -47 -41 -97 -74 -135 -199 -95 -319 33 -98
157 -189 258 -189 84 0 186 55 239 129 l32 44 15 -24 c61 -98 174 -158 273
-145 250 33 341 343 147 496 -30 23 -55 45 -57 49 -1 3 14 15 34 26 111 60
162 230 104 349 -32 67 -100 131 -161 151 -63 21 -158 17 -213 -10 -41 -20
-100 -72 -130 -115 -17 -24 -17 -25 -28 -5 -24 43 -106 112 -153 129 -51 17
-131 20 -177 6z m197 -35 c48 -23 107 -83 130 -131 l17 -35 31 52 c90 150 278
186 402 77 61 -54 88 -114 88 -197 0 -74 -20 -131 -61 -175 -36 -38 -97 -76
-122 -76 -28 0 -25 -17 3 -24 13 -3 47 -23 76 -43 71 -53 101 -114 101 -207 0
-90 -22 -138 -85 -194 -136 -120 -324 -78 -413 91 l-20 39 -18 -38 c-23 -49
-82 -107 -136 -136 -63 -33 -156 -31 -224 4 -201 105 -192 372 16 478 45 23
51 33 18 28 -22 -3 -32 3 -104 65 -73 63 -95 217 -45 315 23 44 86 97 144 119
45 18 154 11 202 -12z"/>
<path d="M1271 5511 c-1 -34 2 -42 11 -33 8 8 8 20 1 44 l-11 33 -1 -44z"/>
<path d="M1270 4619 c0 -22 4 -38 8 -35 8 5 4 76 -4 76 -2 0 -4 -18 -4 -41z"/>
<path d="M6360 6045 l0 -265 200 0 200 0 0 30 0 30 -162 2 -163 3 -3 87 -3 87
148 3 148 3 0 30 0 30 -148 3 -148 3 3 77 3 77 158 3 158 3 -3 27 -3 27 -192
3 -193 2 0 -265z"/>
<path d="M6836 6013 c-3 -15 -8 -50 -12 -76 l-7 -49 43 22 c39 20 43 20 66 5
26 -17 32 -52 14 -86 -16 -28 -64 -25 -88 6 -25 31 -32 31 -32 2 0 -37 31 -59
80 -55 52 4 84 39 84 93 0 50 -27 75 -81 75 -42 0 -44 1 -41 28 3 26 6 27 61
30 82 4 71 26 -15 30 -65 3 -66 3 -72 -25z"/>
<path d="M927 3811 c-44 -41 -45 -62 -2 -43 l25 12 0 -80 c0 -79 0 -80 25 -80
l25 0 0 115 c0 134 -5 139 -73 76z"/>
<path d="M3322 3830 c-12 -12 -22 -27 -22 -35 0 -20 29 -19 51 1 10 9 25 14
34 11 23 -9 18 -41 -11 -68 -31 -28 -84 -98 -84 -111 0 -4 36 -8 80 -8 73 0
80 2 80 20 0 17 -7 20 -40 20 -47 0 -49 8 -14 41 37 34 57 84 44 109 -23 43
-83 53 -118 20z"/>
<path d="M5743 3833 c-25 -17 -31 -53 -9 -53 7 0 19 7 26 15 16 19 50 19 50 0
0 -8 -9 -20 -20 -27 -26 -17 -25 -31 3 -43 14 -7 22 -19 22 -35 0 -31 -29 -39
-55 -15 -20 18 -40 13 -40 -9 0 -45 97 -63 124 -24 21 29 20 67 -1 90 -13 14
-14 21 -5 30 18 18 14 53 -6 71 -23 21 -60 21 -89 0z"/>
<path d="M8170 3778 c-63 -90 -64 -105 -5 -113 31 -5 46 -13 50 -26 8 -24 34
-25 42 -1 3 9 13 25 21 34 13 16 13 18 -2 24 -12 5 -16 19 -16 58 0 65 -9 96
-26 96 -7 0 -36 -32 -64 -72z m46 -43 c-5 -26 -12 -35 -26 -35 -26 0 -25 14 2
50 26 36 33 32 24 -15z"/>
<path d="M643 3543 l-383 -3 -2 -670 -3 -670 797 0 797 0 90 78 c208 178 291
255 387 354 103 107 142 169 151 236 9 75 -99 214 -302 392 -54 47 -142 124
-196 172 -54 48 -106 91 -116 96 -21 11 -681 19 -1220 15z m1174 -22 c31 -6
60 -24 109 -67 36 -33 103 -90 148 -129 256 -216 386 -367 386 -447 0 -68
-118 -220 -287 -371 -246 -219 -296 -263 -316 -274 -17 -9 -206 -12 -799 -13
l-778 0 0 650 0 650 348 3 c822 6 1150 6 1189 -2z"/>
<path d="M1060 3121 l0 -241 -240 0 c-153 0 -240 -4 -240 -10 0 -6 87 -10 240
-10 l240 0 0 -240 c0 -153 4 -240 10 -240 6 0 10 87 10 240 l0 240 241 0 c157
0 238 3 234 10 -4 6 -95 10 -241 10 l-234 0 0 234 c0 146 -4 237 -10 241 -7 4
-10 -77 -10 -234z"/>
<path d="M2676 3542 c-3 -3 -6 -306 -6 -674 l0 -668 798 0 799 0 100 88 c342
300 432 390 495 500 76 129 6 230 -408 593 -65 57 -136 117 -157 134 l-39 29
-788 2 c-434 1 -791 -1 -794 -4z m1537 -18 c56 -6 60 -9 185 -117 308 -268
419 -384 464 -486 19 -41 19 -45 3 -88 -22 -56 -110 -166 -211 -263 -101 -96
-326 -297 -367 -327 l-31 -23 -783 0 -783 0 0 650 0 650 178 2 c407 7 1291 8
1345 2z"/>
<path d="M3155 3406 c-133 -43 -215 -150 -215 -277 0 -57 35 -140 75 -179 42
-41 43 -48 8 -52 -29 -3 -39 -23 -25 -46 5 -7 40 -18 78 -23 95 -15 168 -53
241 -125 68 -67 123 -166 123 -220 0 -63 -118 -137 -220 -137 -221 0 -338 263
-194 432 42 48 32 56 -13 9 -43 -45 -64 -91 -70 -152 -7 -66 8 -120 53 -187
43 -66 81 -93 157 -113 91 -24 199 5 270 72 l27 26 0 -27 c0 -24 4 -27 35 -27
33 0 35 2 35 31 l0 32 46 -42 c56 -52 101 -72 164 -73 101 0 167 28 228 97 53
60 76 129 69 206 -5 63 -46 149 -84 179 -31 24 -29 30 8 30 27 0 30 3 27 28
-2 21 -9 28 -30 30 -34 4 -35 9 -5 32 38 30 79 116 84 179 7 77 -16 146 -69
206 -58 66 -127 99 -208 98 -79 0 -124 -18 -184 -74 l-46 -42 0 32 c0 29 -2
31 -35 31 -31 0 -35 -3 -35 -25 l0 -25 -47 37 c-27 20 -62 42 -79 49 -48 20
-125 25 -169 10z m180 -38 c22 -11 56 -36 76 -55 33 -31 36 -38 29 -69 -26
-113 -129 -238 -240 -292 -106 -51 -112 -51 -164 2 -200 206 42 542 299 414z
m486 16 c72 -21 159 -107 178 -177 28 -97 -6 -209 -80 -272 -37 -31 -52 -29
-144 15 -94 45 -158 108 -205 202 -22 44 -40 89 -40 100 0 46 71 108 153 134
56 17 74 17 138 -2z m-345 -491 c-4 -10 -38 -13 -138 -13 l-133 1 46 24 c67
35 149 114 189 182 l35 60 3 -120 c1 -67 0 -127 -2 -134z m147 81 c23 -19 61
-47 85 -61 23 -14 42 -27 42 -29 0 -2 -56 -4 -125 -4 l-125 0 0 126 0 126 41
-61 c22 -33 59 -77 82 -97z m-143 -251 l-1 -138 -24 46 c-34 65 -106 142 -178
189 l-62 40 133 0 132 0 0 -137z m228 108 c-71 -45 -128 -100 -170 -165 l-38
-59 0 126 0 127 127 0 127 0 -46 -29z m224 -38 c49 -52 69 -96 75 -163 10
-110 -48 -211 -150 -258 -104 -48 -197 -32 -283 50 l-53 50 24 64 c43 115 116
198 220 251 102 52 121 53 167 6z"/>
<path d="M3182 3177 c-28 -30 -28 -58 1 -85 30 -28 48 -28 81 3 32 30 33 49 1
80 -30 31 -55 32 -83 2z"/>
<path d="M3722 3193 c-7 -3 -19 -17 -27 -32 -18 -35 -2 -71 38 -85 22 -8 31
-6 52 14 32 30 32 63 -1 89 -27 21 -38 24 -62 14z"/>
<path d="M3701 2644 c-28 -36 -27 -48 10 -78 38 -32 44 -32 74 -1 31 30 32 55
2 83 -31 29 -61 28 -86 -4z"/>
<path d="M3180 2650 c-27 -27 -25 -62 4 -89 29 -27 56 -22 86 16 26 33 25 39
-5 68 -29 30 -58 32 -85 5z"/>
<path d="M5085 3541 c-3 -2 -5 -305 -5 -673 l0 -668 803 0 802 1 55 50 c30 28
114 101 185 163 244 211 373 363 382 448 4 37 -1 52 -34 105 -21 34 -60 88
-87 119 -64 74 -428 398 -486 432 l-45 27 -783 0 c-430 1 -785 -1 -787 -4z
m1602 -35 c52 -27 354 -297 469 -419 81 -86 134 -170 134 -214 0 -80 -134
-238 -380 -448 -63 -54 -141 -123 -172 -152 l-57 -53 -790 0 -791 0 0 650 0
650 338 3 c185 2 536 2 779 0 364 -2 448 -5 470 -17z"/>
<path d="M5577 3410 c-55 -14 -88 -33 -134 -79 -58 -55 -76 -94 -81 -176 -5
-94 23 -171 85 -232 l45 -43 -41 0 c-23 0 -41 -4 -41 -10 0 -5 21 -10 46 -10
l47 0 -48 -42 c-65 -57 -95 -123 -95 -210 0 -37 5 -80 12 -95 55 -128 191
-207 313 -181 73 15 117 41 167 97 l43 50 -3 -38 c-2 -21 1 -42 7 -45 7 -5 11
7 11 35 l0 42 51 -52 c84 -86 158 -111 259 -87 77 17 129 54 176 122 31 45 39
66 42 116 3 33 -1 86 -8 117 -11 47 -21 64 -71 113 l-60 58 41 0 c22 0 40 5
40 10 0 6 -19 10 -41 10 l-42 0 48 42 c63 56 95 124 95 204 0 77 -13 116 -61
181 -106 142 -302 145 -429 6 l-50 -55 -47 52 c-76 85 -182 123 -276 100z
m130 -25 c67 -20 136 -74 162 -128 19 -39 21 -61 21 -210 l0 -167 -167 0
c-149 0 -171 2 -210 21 -178 86 -177 369 2 462 75 38 119 43 192 22z m529 0
c203 -60 251 -337 81 -462 l-51 -38 -179 -3 -178 -3 3 178 3 178 34 48 c40 55
85 86 151 103 60 17 78 17 136 -1z m-346 -698 c0 -144 -3 -177 -17 -197 -61
-92 -143 -140 -238 -140 -146 0 -254 109 -255 258 0 76 19 124 68 176 71 74
77 76 270 76 l172 0 0 -173z m414 142 c53 -35 88 -78 105 -128 15 -47 14 -155
-3 -195 -33 -79 -123 -146 -215 -160 -88 -14 -205 48 -260 138 -19 30 -21 49
-21 205 l0 171 173 0 174 0 47 -31z"/>
<path d="M5897 3353 c-11 -10 -8 -83 3 -83 6 0 10 20 10 45 0 46 -2 50 -13 38z"/>
<path d="M7507 3543 c-4 -3 -7 -307 -7 -675 l0 -668 793 0 794 0 39 28 c22 16
73 60 115 98 41 38 126 114 188 169 131 117 242 239 272 302 42 88 5 181 -126
317 -74 76 -355 326 -435 387 l-48 36 -488 6 c-626 9 -1089 9 -1097 0z m1599
-38 c52 -34 421 -362 476 -423 65 -72 110 -148 115 -195 7 -61 -26 -122 -123
-226 -83 -89 -398 -374 -460 -416 l-37 -25 -778 0 -779 0 0 650 0 649 148 3
c81 2 433 2 782 0 521 -2 638 -5 656 -17z"/>
<path d="M7976 3195 c4 -8 10 -15 16 -15 5 0 6 -15 3 -33 -9 -44 30 -83 74
-74 27 6 37 -2 131 -101 l101 -107 -104 -102 c-96 -94 -108 -102 -135 -97 -43
9 -76 -26 -69 -72 3 -19 2 -34 -3 -34 -4 0 -10 -7 -14 -15 -7 -19 9 -20 26 -1
10 10 19 11 35 3 18 -8 27 -6 44 9 32 29 41 51 30 72 -8 16 7 36 97 125 l107
107 103 -103 c81 -81 102 -108 102 -131 0 -35 29 -86 50 -86 9 0 22 6 29 13
10 10 16 7 31 -13 10 -14 22 -21 27 -16 4 4 -2 16 -14 25 -15 12 -18 22 -12
32 26 42 -13 95 -65 85 -29 -6 -38 1 -136 99 l-105 105 105 105 c57 57 101
107 98 110 -3 4 -53 -41 -110 -99 l-105 -106 -106 107 c-88 90 -104 110 -96
125 6 11 7 28 4 38 -9 27 -59 52 -89 44 -13 -3 -27 -1 -30 5 -11 17 -26 13
-20 -4z"/>
<path d="M8625 3199 c-4 -6 -5 -13 -2 -16 7 -7 27 6 27 18 0 12 -17 12 -25 -2z"/>
<path d="M8540 3174 c-23 -20 -29 -31 -24 -48 17 -57 65 -72 102 -33 28 30 28
58 -1 85 -30 28 -39 28 -77 -4z"/>
<path d="M3329 1841 c-25 -25 -29 -37 -29 -83 0 -75 27 -118 75 -118 46 0 75
29 75 75 0 49 -31 79 -76 72 -37 -6 -43 3 -18 27 18 18 40 21 49 6 11 -17 35
-11 35 10 0 22 -27 40 -60 40 -12 0 -35 -13 -51 -29z m79 -136 c-2 -14 -11
-20 -28 -20 -32 0 -41 42 -14 62 16 12 21 11 32 -4 7 -10 11 -27 10 -38z"/>
<path d="M5743 1862 c-21 -2 -33 -9 -33 -18 0 -10 13 -14 49 -14 l50 0 -29
-62 c-38 -83 -42 -122 -14 -126 18 -3 22 3 27 39 3 23 22 73 41 110 34 65 35
69 16 71 -39 3 -75 3 -107 0z"/>
<path d="M8162 1854 c-18 -13 -22 -24 -21 -62 1 -26 -2 -59 -6 -74 -12 -44 16
-78 65 -78 63 0 93 47 66 102 -11 21 -13 35 -6 42 17 17 11 54 -12 70 -29 20
-58 20 -86 0z m64 -35 c8 -14 -21 -43 -35 -35 -6 4 -11 16 -11 27 0 21 34 27
46 8z m2 -96 c13 -26 4 -43 -23 -43 -29 0 -38 13 -30 40 8 25 41 26 53 3z"/>
<path d="M906 1838 c-3 -13 -7 -40 -10 -61 -5 -38 -5 -39 22 -32 56 16 67 12
70 -23 4 -37 -19 -53 -49 -34 -43 27 -67 2 -31 -31 23 -21 71 -22 99 -2 27 19
38 67 22 97 -16 30 -28 38 -61 38 -48 0 -35 28 14 32 31 2 44 8 46 21 3 15 -5
17 -57 17 -55 0 -61 -2 -65 -22z"/>
<path d="M260 930 c0 -362 -3 -665 -6 -674 -6 -15 69 -16 795 -16 l800 0 85
72 c267 227 463 420 509 499 15 25 29 66 33 90 5 38 0 52 -33 109 -46 77 -140
179 -276 297 -55 49 -140 123 -188 165 -48 42 -99 84 -113 93 -24 16 -96 18
-816 21 l-790 3 0 -659z m1557 631 c30 -6 59 -23 95 -55 29 -25 107 -92 172
-148 242 -207 376 -363 376 -441 0 -49 -48 -124 -143 -226 -82 -88 -281 -272
-421 -389 l-51 -42 -782 0 -783 0 0 650 0 650 193 3 c454 6 1305 5 1344 -2z"/>
<path d="M737 1449 c-80 -19 -163 -83 -199 -153 -25 -49 -34 -137 -19 -191 17
-63 66 -133 116 -163 24 -15 44 -29 44 -32 0 -3 -20 -18 -44 -33 -226 -144
-117 -506 152 -507 35 0 82 7 105 16 48 19 122 84 145 127 l14 29 40 -54 c46
-61 106 -105 156 -114 64 -12 159 2 207 30 164 96 194 301 62 432 -28 28 -60
56 -71 63 -13 8 -16 14 -8 17 29 12 90 69 116 106 76 114 55 262 -51 359 -58
54 -104 72 -182 72 -98 1 -168 -37 -240 -131 l-26 -32 -29 40 c-39 52 -118
107 -175 119 -52 12 -62 12 -113 0z m170 -41 c49 -23 109 -85 129 -135 l15
-35 38 60 c63 97 134 138 236 136 108 -3 184 -54 230 -155 23 -53 27 -71 23
-123 -3 -34 -15 -80 -26 -103 -25 -48 -91 -108 -139 -125 -35 -13 -44 -28 -17
-28 23 0 100 -56 129 -93 51 -68 67 -158 43 -241 -18 -60 -109 -148 -171 -166
-137 -38 -241 10 -325 149 -19 31 -22 33 -28 15 -4 -10 -24 -42 -45 -71 -116
-157 -348 -136 -442 41 -17 32 -22 58 -22 117 0 67 3 81 30 124 34 56 104 113
146 122 34 6 39 23 8 23 -49 0 -143 87 -169 157 -46 124 -10 234 104 316 68
49 168 55 253 15z"/>
<path d="M2670 915 l0 -675 800 0 799 0 137 123 c75 67 172 153 215 190 129
112 246 258 268 334 19 66 -42 164 -193 312 -101 99 -328 301 -398 354 l-37
29 -795 4 -796 5 0 -676z m1566 646 c26 -1 64 -29 200 -148 289 -252 398 -370
431 -467 13 -37 13 -42 -16 -100 -17 -34 -60 -94 -97 -133 -64 -71 -291 -281
-427 -396 l-67 -57 -785 0 -785 0 0 650 0 649 143 3 c134 3 1336 2 1403 -1z"/>
<path d="M3165 1214 c-14 -15 -25 -32 -25 -39 0 -18 47 -65 65 -65 22 0 65 45
65 69 0 21 -44 61 -67 61 -8 0 -25 -12 -38 -26z"/>
<path d="M3691 1214 c-28 -36 -26 -58 6 -84 33 -26 60 -23 86 11 24 33 16 64
-23 84 -39 20 -45 19 -69 -11z"/>
<path d="M3162 687 c-28 -29 -28 -51 0 -77 29 -27 73 -26 92 2 22 31 20 51 -7
76 -30 28 -58 28 -85 -1z"/>
<path d="M3692 687 c-29 -30 -28 -45 5 -79 34 -36 45 -35 77 3 32 38 32 44 1
74 -30 31 -55 32 -83 2z"/>
<path d="M5080 916 l0 -676 803 0 802 1 65 60 c36 33 115 102 175 153 137 116
299 284 344 354 50 78 51 123 6 196 -20 33 -57 85 -83 115 -48 56 -420 392
-488 440 l-37 26 -793 3 -794 3 0 -675z m1605 632 c46 -25 368 -312 466 -416
87 -91 139 -174 139 -222 0 -73 -140 -240 -353 -422 -73 -62 -160 -139 -194
-170 l-62 -58 -791 0 -790 0 0 649 0 650 53 4 c28 2 378 3 777 3 657 -1 728
-3 755 -18z"/>
<path d="M5570 1451 c-60 -14 -88 -29 -136 -73 -70 -64 -89 -108 -89 -203 0
-100 20 -141 106 -219 38 -34 56 -56 46 -56 -9 0 -41 -24 -71 -54 -59 -58 -86
-121 -86 -201 0 -145 135 -279 280 -277 103 1 179 41 235 124 l33 50 15 -28
c22 -42 96 -111 139 -129 21 -8 67 -15 106 -15 214 0 348 228 244 413 -25 45
-84 103 -124 121 -11 5 -11 7 0 12 45 21 100 76 127 129 39 76 42 176 7 242
-57 109 -145 167 -252 166 -36 0 -81 -7 -101 -15 -44 -19 -103 -70 -140 -121
-24 -33 -28 -35 -33 -19 -11 33 -95 112 -140 132 -54 23 -120 31 -166 21z
m161 -43 c54 -23 113 -82 135 -134 l14 -35 43 63 c106 155 284 180 406 56 126
-128 95 -335 -63 -419 -25 -13 -46 -26 -46 -29 0 -3 14 -11 32 -19 46 -20 106
-78 130 -124 26 -52 34 -135 18 -192 -16 -58 -79 -129 -141 -160 -55 -28 -134
-33 -203 -13 -48 15 -123 85 -149 141 -10 20 -20 37 -22 37 -3 0 -14 -18 -25
-40 -50 -98 -133 -151 -238 -151 -70 0 -125 21 -175 69 -62 59 -82 105 -82
192 0 57 5 84 22 115 28 53 105 124 143 132 31 6 42 23 14 23 -23 0 -100 56
-129 93 -115 151 -41 362 145 414 54 15 106 10 171 -19z"/>
<path d="M5586 1219 c-31 -25 -33 -57 -6 -87 25 -27 51 -28 78 -4 34 29 37 58
8 87 -31 30 -45 31 -80 4z"/>
<path d="M6100 1208 c-11 -18 -20 -37 -20 -41 0 -13 48 -57 63 -57 25 0 67 41
67 65 0 26 -42 65 -71 65 -11 0 -28 -14 -39 -32z"/>
<path d="M5582 694 c-29 -20 -29 -64 1 -92 29 -27 38 -27 71 -1 66 52 -2 142
-72 93z"/>
<path d="M6101 684 c-12 -15 -21 -30 -21 -35 0 -21 15 -41 42 -55 27 -14 32
-14 54 0 36 24 41 62 13 92 -29 31 -62 31 -88 -2z"/>
<path d="M7500 915 l0 -675 786 0 c677 0 790 2 817 15 18 8 73 52 123 97 50
46 141 128 203 183 129 115 242 239 271 300 11 23 20 57 20 77 0 42 -38 117
-95 189 -43 55 -440 412 -507 457 l-42 27 -788 3 -788 3 0 -676z m1607 630
c39 -25 310 -263 420 -369 101 -97 164 -189 170 -250 7 -60 -30 -126 -127
-229 -82 -87 -397 -372 -456 -412 l-37 -25 -778 0 -779 0 0 649 c0 468 3 650
11 653 6 2 356 4 778 3 749 0 767 0 798 -20z"/>
<path d="M8266 1388 c-3 -7 -7 -38 -9 -69 -15 -172 -185 -339 -376 -370 -71
-12 -96 -28 -74 -50 6 -6 41 -17 79 -26 206 -46 354 -198 372 -381 l7 -67 35
0 35 0 3 53 c9 180 165 350 357 392 28 5 60 12 73 15 14 3 22 13 22 26 0 22 2
21 -92 42 -196 46 -328 183 -359 372 -11 73 -12 75 -41 75 -16 0 -30 -6 -32
-12z m21 -465 c-3 -2 -62 -2 -133 -1 -128 3 -129 3 -93 19 50 23 158 127 194
187 l30 50 3 -125 c1 -69 1 -127 -1 -130z m75 177 c44 -58 120 -128 163 -149
25 -12 45 -24 45 -27 0 -2 -58 -4 -130 -4 l-130 0 0 133 c1 127 1 131 17 102
9 -16 24 -41 35 -55z m-72 -324 c0 -68 3 -133 6 -143 3 -10 -8 6 -25 35 -49
87 -134 172 -216 215 -29 16 -25 16 103 17 l132 0 0 -124z m234 95 c-63 -37
-130 -101 -178 -172 l-36 -54 0 128 0 127 133 0 132 0 -51 -29z"/>
</g>
</svg>
