<?xml version="1.0" standalone="no"?>
<!DOCTYPE svg PUBLIC "-//W3C//DTD SVG 20010904//EN"
 "http://www.w3.org/TR/2001/REC-SVG-20010904/DTD/svg10.dtd">
<svg version="1.0" xmlns="http://www.w3.org/2000/svg"
 width="996.000000pt" height="922.000000pt" viewBox="0 0 996.000000 922.000000"
 preserveAspectRatio="xMidYMid meet">
<metadata>
Created by potrace 1.16, written by Peter Selinger 2001-2019
</metadata>
<g transform="translate(0.000000,922.000000) scale(0.100000,-0.100000)"
fill="#FFFFFF" stroke="none">
<path d="M256 8753 c-8 -315 -8 -4385 1 -4555 l6 -128 2938 0 2939 0 0 2465 0
2465 -2938 0 -2939 0 -7 -247z m5864 -2218 l0 -2445 -2918 0 -2919 0 -6 343
c-9 472 -10 3950 -1 4280 l7 267 2919 0 2918 0 0 -2445z"/>
<path d="M780 7995 l0 -495 495 0 495 0 0 495 0 495 -495 0 -495 0 0 -495z
m970 0 l0 -475 -475 0 -475 0 0 475 0 475 475 0 475 0 0 -475z"/>
<path d="M1228 8057 c-35 -33 -42 -60 -23 -96 29 -58 81 -67 126 -22 40 40 39
81 -2 115 -38 32 -69 33 -101 3z"/>
<path d="M2370 7995 l0 -495 495 0 495 0 -2 493 -3 492 -492 3 -493 2 0 -495z
m480 285 l0 -189 -45 -46 -46 -45 -184 0 -185 0 0 235 0 235 230 0 230 0 0
-190z m485 -45 l0 -230 -190 0 -190 0 -42 45 -42 45 -1 181 c0 99 3 184 7 188
4 3 108 5 232 4 l226 -3 0 -230z m-539 -284 c10 -16 26 -32 36 -34 17 -5 18
-20 18 -201 l0 -196 -230 0 -230 0 0 230 0 230 194 0 195 0 17 -29z m544 -201
l0 -230 -232 2 -233 3 -3 188 -2 188 37 38 38 38 198 2 197 1 0 -230z"/>
<path d="M4440 8285 l0 -196 -47 -44 -47 -45 -194 0 c-126 0 -191 -3 -187 -10
4 -6 83 -10 204 -10 l198 0 11 -25 c7 -14 23 -30 37 -35 l25 -10 0 -200 c0
-132 3 -199 10 -195 6 4 10 80 10 196 l0 189 40 40 40 40 194 0 c119 0 197 4
201 10 4 7 -62 10 -190 10 l-197 0 -44 45 -44 46 0 189 c0 115 -4 191 -10 195
-7 4 -10 -62 -10 -190z"/>
<path d="M2819 7026 c-4 -4 -106 -7 -228 -6 l-221 0 -2 -207 c0 -115 0 -334 1
-488 l2 -280 495 -3 494 -2 0 490 0 490 -178 0 c-99 0 -219 3 -268 6 -49 4
-92 3 -95 0z m-319 -150 c0 -4 -13 -24 -29 -44 -16 -20 -41 -59 -55 -86 l-26
-49 0 151 0 151 55 -58 c30 -32 55 -61 55 -65z m135 93 c-27 -17 -64 -44 -80
-60 l-31 -29 -59 60 -59 60 139 0 140 0 -50 -31z m213 -166 c-3 -189 -4 -198
-23 -201 -14 -2 -59 36 -154 132 -153 154 -151 142 -46 205 57 35 134 59 193
60 l32 1 -2 -197z m213 155 c41 -20 87 -47 104 -61 l30 -25 -135 -136 c-148
-150 -174 -164 -186 -100 -3 19 -4 106 0 192 3 86 6 161 6 166 0 20 110 -2
181 -36z m249 37 c0 -9 -96 -105 -105 -105 -5 0 -20 11 -35 25 -14 13 -50 38
-80 54 l-55 31 138 0 c75 0 137 -2 137 -5z m28 -232 l-3 -78 -28 55 c-16 30
-42 72 -59 93 l-30 39 58 59 59 60 3 -76 c2 -41 2 -110 0 -152z m-680 -37 c73
-74 132 -140 132 -148 0 -34 -22 -38 -213 -38 l-190 0 7 61 c4 34 18 85 31
115 26 59 81 144 94 144 4 0 67 -60 139 -134z m629 6 c26 -52 38 -91 41 -133
l4 -59 -196 0 c-108 0 -196 2 -196 4 0 2 -3 12 -6 21 -5 11 33 55 132 156
l139 140 23 -28 c12 -15 39 -61 59 -101z m-497 -231 c9 -17 -8 -38 -131 -161
-77 -78 -142 -140 -143 -138 -67 88 -113 186 -122 261 l-7 57 196 0 c184 0
197 -1 207 -19z m540 -26 c0 -58 -31 -139 -82 -216 l-41 -61 -134 134 c-130
129 -151 157 -138 178 4 6 81 10 201 10 l194 0 0 -45z m-480 -228 l0 -189 -62
7 c-73 9 -110 23 -195 77 l-65 41 143 143 c185 185 179 188 179 -79z m215 73
c77 -77 126 -134 120 -138 -6 -4 -32 -22 -57 -40 -64 -44 -125 -69 -191 -77
-54 -7 -56 -6 -62 17 -4 14 -5 99 -3 190 3 174 12 208 47 188 9 -5 75 -68 146
-140z m275 -97 l0 -158 -61 61 -61 61 41 54 c23 30 48 73 57 97 9 23 18 42 20
42 2 0 4 -71 4 -157z m-866 7 l32 -45 -58 -55 -58 -55 0 150 0 150 26 -50 c15
-28 41 -70 58 -95z m846 -167 c0 -2 -66 -3 -147 -3 l-148 1 40 20 c22 10 63
36 90 58 l50 38 58 -55 c31 -31 57 -58 57 -59z m-766 82 c18 -14 57 -39 87
-55 l54 -30 -145 0 -144 0 54 55 c30 30 56 55 58 55 2 0 18 -11 36 -25z"/>
<path d="M780 6530 l0 -490 495 0 495 0 0 490 0 490 -495 0 -495 0 0 -490z
m421 27 c-8 -19 -7 -35 1 -53 11 -24 4 -33 -195 -232 l-207 -207 0 466 0 465
205 -206 c197 -198 205 -208 196 -233z m333 242 l-201 -201 -36 13 c-31 11
-39 11 -54 -2 -17 -14 -34 1 -218 188 l-200 203 455 0 455 0 -201 -201z m216
-268 l0 -458 -205 205 c-139 139 -202 209 -195 216 13 13 13 56 0 76 -7 12 34
59 193 218 111 111 203 202 204 202 2 0 3 -206 3 -459z m-466 -469 c-246 -1
-450 0 -453 3 -3 3 83 94 192 203 l197 197 32 -13 c26 -10 36 -9 53 2 19 14
32 3 223 -187 l202 -202 -446 -3z"/>
<path d="M4310 7005 c-75 -21 -134 -58 -208 -129 -163 -156 -194 -416 -71
-607 91 -142 248 -229 414 -229 277 0 496 220 495 498 -1 184 -115 359 -287
439 -71 33 -87 37 -183 40 -73 2 -122 -2 -160 -12z m130 -190 l0 -184 -45 -46
-46 -45 -190 0 -190 0 6 38 c29 175 116 301 255 372 56 29 124 48 173 49 l37
1 0 -185z m149 166 c83 -26 137 -60 198 -123 59 -63 105 -149 122 -226 21
-100 38 -92 -184 -92 l-195 0 -10 25 c-5 14 -21 30 -35 37 l-25 11 0 194 0
193 34 0 c19 0 61 -8 95 -19z m-211 -485 c6 -14 23 -32 37 -42 l25 -16 0 -191
0 -190 -55 7 c-205 24 -385 201 -402 397 l-6 59 195 0 195 0 11 -24z m538 -27
c-9 -66 -42 -153 -77 -205 -67 -99 -210 -187 -321 -200 l-58 -7 0 197 0 196
25 10 c14 5 30 21 35 35 l10 25 196 0 197 0 -7 -51z"/>
<path d="M3655 5728 c-3 -7 -4 -310 -3 -673 l3 -660 796 0 795 0 35 29 c95 80
287 254 392 356 128 124 190 207 201 266 11 54 -39 148 -128 242 -80 85 -435
405 -481 433 -29 18 -66 19 -818 19 -621 0 -789 -3 -792 -12z m1605 -25 c31
-21 231 -196 369 -323 161 -148 239 -260 227 -328 -12 -79 -161 -243 -446
-493 l-164 -144 -786 0 -785 0 -3 610 c-2 336 0 629 3 653 l6 42 777 0 c714 0
780 -1 802 -17z"/>
<path d="M2745 5546 c-68 -17 -135 -51 -182 -91 l-40 -34 -44 45 c-47 48 -99
90 -99 79 0 -4 28 -35 61 -70 l61 -64 -29 -38 c-66 -84 -103 -190 -103 -298 0
-118 32 -214 103 -307 l35 -46 -64 -63 c-35 -35 -64 -68 -64 -73 0 -6 31 20
69 58 l69 68 51 -40 c112 -89 272 -117 436 -77 46 12 105 44 153 83 l44 35 69
-69 c37 -37 72 -65 75 -61 4 4 -22 37 -59 73 l-66 66 44 64 c123 179 116 417
-16 585 l-28 36 58 64 c33 35 57 66 55 68 -3 3 -33 -23 -67 -56 l-62 -62 -35
30 c-107 91 -283 130 -425 95z m270 -30 c50 -18 175 -92 175 -105 0 -3 -60
-66 -134 -140 l-133 -133 -39 6 c-22 3 -45 2 -53 -3 -19 -12 -40 6 -183 154
l-112 117 29 24 c46 36 117 72 176 89 68 19 206 14 274 -9z m-225 -410 c-13
-13 -13 -56 0 -76 7 -12 -21 -45 -128 -152 -75 -76 -140 -138 -143 -138 -11 0
-79 109 -101 163 -18 42 -22 73 -22 162 -1 129 14 183 76 276 l41 61 143 -143
c94 -94 140 -147 134 -153z m490 179 c17 -33 38 -95 47 -137 15 -71 15 -83 0
-159 -17 -89 -51 -166 -94 -217 l-28 -33 -141 140 c-109 109 -138 144 -131
156 4 9 7 31 5 49 -3 31 7 44 131 171 l133 136 25 -22 c13 -13 37 -50 53 -84z
m-445 -297 c19 -9 31 -8 52 1 26 12 30 8 165 -126 l139 -138 -28 -23 c-97 -79
-254 -122 -371 -102 -95 16 -252 92 -252 122 0 7 255 271 267 277 1 1 14 -4
28 -11z"/>
<path d="M875 5458 c49 -51 143 -148 209 -215 l119 -122 1 -58 1 -58 -203
-204 c-112 -112 -200 -206 -197 -209 3 -3 99 88 214 202 194 194 210 207 231
196 17 -9 29 -9 53 1 l31 13 90 -96 c121 -127 336 -333 336 -323 0 5 -95 105
-212 222 -166 166 -210 215 -200 225 15 15 16 64 1 74 -6 3 77 95 200 219 116
116 211 216 211 221 0 5 -46 -37 -102 -93 -330 -327 -325 -322 -358 -310 -24
9 -35 9 -52 -2 -20 -12 -34 0 -232 198 -116 116 -215 211 -220 211 -5 0 30
-42 79 -92z"/>
<path d="M6360 6045 l0 -265 200 0 200 0 0 30 0 30 -162 2 -163 3 -3 87 -3 87
148 3 148 3 0 30 c0 29 -2 30 -45 30 -25 1 -91 2 -148 3 l-103 2 3 78 3 77
158 3 158 3 -3 27 -3 27 -192 3 -193 2 0 -265z"/>
<path d="M6884 6038 c-54 -14 -69 -41 -69 -123 0 -94 21 -128 83 -133 56 -4
82 22 82 83 0 71 -52 106 -112 74 -29 -15 -34 -4 -15 35 22 48 52 55 87 21 32
-31 51 -18 27 19 -19 28 -42 35 -83 24z m60 -150 c13 -38 -6 -78 -38 -78 -33
0 -56 25 -56 60 0 54 76 69 94 18z"/>
<path d="M8232 3852 c-19 -6 -112 -142 -112 -164 0 -12 7 -18 23 -18 39 0 66
-12 72 -31 8 -24 34 -25 42 -1 3 9 13 25 21 34 13 16 13 18 -2 24 -12 5 -16
20 -17 63 -1 69 -10 99 -27 93z m-16 -117 c-5 -26 -12 -35 -26 -35 -26 0 -25
14 2 50 26 36 33 32 24 -15z"/>
<path d="M927 3811 c-44 -41 -45 -62 -2 -43 l25 12 0 -80 c0 -79 0 -80 25 -80
l25 0 0 115 c0 134 -5 139 -73 76z"/>
<path d="M3322 3830 c-12 -12 -22 -27 -22 -35 0 -20 29 -19 51 1 10 9 25 14
34 11 20 -8 19 -41 -2 -58 -23 -20 -93 -109 -93 -120 0 -5 36 -9 80 -9 73 0
80 2 80 20 0 17 -7 20 -47 20 l-47 0 36 38 c46 48 61 77 52 105 -15 49 -83 63
-122 27z"/>
<path d="M5742 3834 c-24 -17 -30 -54 -8 -54 7 0 19 7 26 15 16 19 50 19 50 0
0 -8 -9 -20 -20 -27 -26 -17 -25 -31 3 -43 14 -7 22 -19 22 -35 0 -31 -29 -39
-55 -15 -21 19 -40 13 -40 -12 0 -42 85 -58 120 -23 24 24 26 72 5 90 -11 9
-13 16 -5 24 31 31 -5 96 -55 96 -11 0 -31 -7 -43 -16z"/>
<path d="M374 3543 l-111 -4 -7 -161 c-4 -89 -6 -391 -5 -670 l3 -508 797 0
798 0 90 78 c401 344 541 498 541 596 0 33 -46 121 -96 183 -50 61 -426 402
-509 460 -30 22 -36 22 -710 26 -374 2 -730 2 -791 0z m1267 -23 l208 0 55
-47 c30 -27 97 -84 148 -128 164 -141 278 -249 317 -300 56 -74 91 -139 91
-166 0 -75 -126 -231 -325 -405 -55 -48 -127 -112 -160 -142 -33 -30 -77 -68
-99 -84 l-39 -28 -777 0 -777 0 -6 188 c-9 240 -9 664 0 915 l6 196 81 4 c45
3 303 3 575 1 272 -2 588 -4 702 -4z"/>
<path d="M580 2870 l0 -490 490 0 490 0 0 490 0 490 -490 0 -490 0 0 -490z
m960 0 l0 -470 -470 0 -470 0 0 470 0 470 470 0 470 0 0 -470z"/>
<path d="M1029 2937 c-59 -39 -48 -118 19 -146 26 -11 34 -10 57 5 60 39 64
99 9 143 -34 27 -43 26 -85 -2z"/>
<path d="M2674 3541 c-2 -2 -4 -305 -4 -673 l0 -668 798 0 799 0 105 93 c288
253 333 294 394 365 85 99 124 166 124 215 0 101 -110 226 -483 548 l-137 119
-98 1 c-513 3 -1495 3 -1498 0z m1559 -18 c30 -4 66 -30 165 -116 311 -271
441 -409 472 -501 28 -87 -74 -213 -423 -525 -71 -63 -142 -125 -160 -138
l-31 -23 -783 0 -783 0 0 650 0 649 103 4 c200 6 1403 7 1440 0z"/>
<path d="M2990 2870 l0 -490 495 0 495 0 0 490 0 490 -495 0 -495 0 0 -490z
m490 281 c0 -153 -3 -191 -15 -201 -8 -6 -19 -10 -24 -8 -12 4 -287 272 -355
345 l-48 53 221 0 221 0 0 -189z m265 -11 c-145 -145 -206 -200 -220 -198 -19
3 -20 12 -23 201 l-2 197 222 0 223 0 -200 -200z m-325 -227 c0 -27 -43 -33
-224 -33 l-186 0 0 227 0 228 205 -205 c113 -113 205 -210 205 -217z m540 192
l0 -225 -197 2 c-195 3 -198 3 -198 24 0 15 65 89 195 222 107 111 196 201
198 202 1 0 2 -101 2 -225z m-546 -267 c9 -15 -18 -47 -189 -221 -110 -112
-204 -205 -208 -205 -4 -1 -7 99 -7 223 l1 225 196 -2 c173 -3 197 -5 207 -20z
m546 -202 l0 -224 -197 200 c-130 131 -199 208 -201 224 l-3 24 200 0 201 0 0
-224z m-490 145 c6 -12 10 -95 10 -200 l0 -181 -220 0 c-121 0 -220 2 -220 4
0 10 396 396 407 396 7 0 17 -9 23 -19z m275 -181 l200 -200 -223 0 -222 0 0
200 0 200 23 0 c16 0 80 -58 222 -200z"/>
<path d="M5084 3541 c-2 -2 -4 -305 -4 -673 l0 -668 803 0 803 0 84 78 c47 42
128 114 181 159 211 180 359 362 359 440 0 35 -53 126 -118 202 -58 68 -438
407 -493 440 l-41 24 -785 1 c-431 1 -787 -1 -789 -3z m1601 -33 c17 -9 57
-41 91 -70 444 -386 545 -509 503 -610 -20 -49 -120 -176 -190 -244 -35 -34
-116 -105 -179 -159 -63 -54 -141 -123 -172 -152 l-57 -53 -790 0 -791 0 0
650 0 650 278 3 c152 1 502 3 777 2 452 0 503 -2 530 -17z"/>
<path d="M5760 3342 c-120 -40 -217 -113 -279 -211 -123 -191 -91 -445 78
-611 100 -99 200 -140 342 -140 236 0 434 165 483 403 44 210 -69 429 -270
529 -81 40 -89 42 -192 45 -84 2 -119 -1 -162 -15z m130 -195 l0 -194 -24 -11
c-14 -6 -32 -23 -42 -37 l-16 -25 -189 0 c-103 0 -190 3 -192 8 -10 17 27 151
56 207 70 133 233 240 375 244 l32 1 0 -193z m196 159 c160 -73 261 -207 280
-371 l7 -55 -186 0 -186 0 -46 44 -45 44 0 188 0 187 62 -7 c34 -3 85 -17 114
-30z m-266 -460 c0 -8 16 -27 35 -42 l35 -26 0 -191 0 -190 -55 7 c-129 15
-248 88 -320 196 -48 72 -85 170 -85 225 l0 35 195 0 c164 0 195 -2 195 -14z
m550 -20 c0 -55 -37 -160 -79 -222 -67 -100 -212 -189 -325 -201 l-56 -6 0
190 0 191 25 16 c14 10 31 28 37 42 l11 24 194 0 193 0 0 -34z"/>
<path d="M7758 3543 l-258 -3 0 -670 0 -670 793 0 c761 0 793 1 821 19 16 11
81 66 144 123 375 335 462 435 462 530 0 41 -38 115 -95 189 -42 53 -444 415
-505 454 -35 23 -36 23 -570 27 -294 2 -651 2 -792 1z m1352 -40 c35 -22 317
-271 422 -372 96 -92 159 -185 165 -245 7 -59 -28 -122 -126 -228 -80 -86
-396 -371 -457 -413 l-37 -25 -778 0 -779 0 0 650 0 650 363 2 c199 2 550 2
780 1 385 -2 420 -3 447 -20z"/>
<path d="M8038 3362 l-218 -2 0 -490 0 -490 495 0 495 0 0 493 0 492 -278 0
c-152 0 -375 -1 -494 -3z m-87 -140 c5 -2 -9 -26 -29 -55 -20 -28 -47 -71 -59
-96 l-22 -46 -1 158 0 157 52 -57 c28 -32 55 -59 59 -61z m143 90 c-28 -16
-67 -41 -88 -57 l-37 -28 -57 56 -57 57 145 0 145 0 -51 -28z m204 -169 c-3
-189 -4 -198 -23 -201 -14 -2 -59 36 -154 132 -150 151 -147 141 -60 197 58
37 148 68 202 68 l37 1 -2 -197z m215 157 c34 -16 78 -43 97 -59 l35 -29 -137
-136 c-76 -75 -145 -136 -153 -136 -28 0 -35 48 -35 227 l0 176 65 -6 c42 -4
87 -17 128 -37z m247 31 c0 -5 -23 -30 -52 -55 l-51 -45 -32 25 c-18 13 -56
38 -86 54 l-54 30 138 0 c77 0 137 -4 137 -9z m28 -228 l-3 -78 -21 45 c-12
25 -38 67 -58 94 l-38 49 59 59 58 59 3 -76 c2 -41 2 -110 0 -152z m-682 -38
c99 -100 134 -142 134 -160 l0 -25 -201 0 -202 0 7 51 c9 69 36 138 83 209 21
33 40 60 42 60 2 0 64 -61 137 -135z m637 2 c29 -60 37 -86 37 -131 l0 -56
-190 0 c-183 0 -190 1 -201 21 -10 20 1 34 127 161 l139 139 25 -30 c14 -16
42 -63 63 -104z m-499 -223 c4 -9 1 -24 -6 -33 -22 -28 -263 -261 -270 -261
-26 0 -114 181 -122 253 l-7 57 199 0 c175 0 201 -2 206 -16z m534 -46 c-4
-70 -46 -170 -94 -226 l-29 -33 -139 139 c-126 127 -137 141 -127 161 11 20
18 21 203 21 l190 0 -4 -62z m-478 -205 l0 -195 -57 7 c-65 7 -145 40 -215 88
l-48 32 142 142 c185 186 178 189 178 -74z m254 24 c100 -100 187 -190 195
-200 13 -16 5 -17 -125 -16 -112 0 -135 3 -120 12 10 7 45 29 77 49 33 21 59
42 59 48 0 6 -17 0 -37 -13 -103 -64 -153 -85 -217 -92 l-66 -7 0 194 c0 107
3 198 7 201 22 23 58 -4 227 -176z m-636 -35 l40 -58 -59 -57 -59 -57 1 158 0
157 19 -42 c11 -24 37 -69 58 -101z m872 -24 l0 -152 -59 58 -60 59 45 63 c24
34 49 76 55 93 6 17 13 31 15 31 2 0 4 -68 4 -152z m-782 -75 c20 -15 58 -39
86 -55 l51 -28 -145 0 -144 0 54 55 c30 30 56 55 59 55 2 0 20 -12 39 -27z"/>
<path d="M3328 1840 c-29 -29 -30 -34 -26 -95 5 -77 25 -105 75 -105 44 0 73
30 73 75 0 49 -31 79 -76 72 -37 -6 -39 -5 -24 24 13 23 39 25 55 2 14 -19 35
-9 35 17 0 22 -28 40 -60 40 -12 0 -35 -14 -52 -30z m80 -135 c-2 -14 -11 -20
-28 -20 -32 0 -41 42 -14 62 16 12 21 11 32 -4 7 -10 11 -27 10 -38z"/>
<path d="M8168 1859 c-30 -17 -39 -45 -26 -74 9 -19 9 -28 0 -37 -18 -18 -14
-73 6 -91 30 -27 87 -22 111 9 25 32 26 52 5 83 -12 17 -13 26 -5 34 44 44
-34 110 -91 76z m58 -40 c8 -14 -21 -43 -35 -35 -6 4 -11 16 -11 27 0 21 34
27 46 8z m4 -98 c14 -28 -13 -55 -41 -41 -20 11 -23 19 -13 44 8 22 41 20 54
-3z"/>
<path d="M905 1823 c-3 -21 -8 -49 -11 -62 -5 -21 -3 -23 23 -17 61 15 68 13
71 -22 4 -37 -19 -53 -49 -34 -26 16 -49 15 -49 -2 0 -43 79 -62 119 -28 51
42 24 132 -40 132 -48 0 -37 28 13 32 31 2 44 8 46 21 3 15 -5 17 -57 17 l-60
0 -6 -37z"/>
<path d="M5710 1845 c0 -11 12 -15 49 -15 l50 0 -30 -64 c-38 -80 -42 -120
-14 -124 18 -2 22 6 32 53 7 31 26 79 43 106 16 27 30 51 30 54 0 3 -36 5 -80
5 -64 0 -80 -3 -80 -15z"/>
<path d="M509 1583 l-246 -3 -6 -137 c-9 -175 -9 -1012 0 -1120 l6 -83 796 0
796 1 82 72 c244 216 316 282 395 366 101 105 136 160 144 222 5 38 0 52 -33
109 -46 77 -140 179 -276 297 -55 49 -142 125 -193 170 -51 45 -103 88 -116
95 -18 10 -136 13 -563 13 -297 1 -651 -1 -786 -2z m1308 -22 c30 -6 59 -23
95 -55 29 -25 94 -81 143 -123 160 -137 275 -247 314 -298 57 -76 91 -139 91
-169 0 -93 -143 -249 -553 -603 l-61 -53 -782 0 -781 0 -7 129 c-8 152 -7 770
1 1007 l6 164 266 3 c634 6 1229 6 1268 -2z"/>
<path d="M908 1381 c-245 -81 -391 -331 -334 -574 22 -95 57 -157 132 -237
108 -114 220 -157 386 -148 116 7 207 49 305 141 123 117 175 278 142 439 -31
150 -139 288 -276 355 -73 35 -85 37 -188 40 -87 2 -122 -1 -167 -16z m294
-21 c214 -66 358 -301 320 -523 -24 -138 -87 -236 -201 -313 -280 -189 -641
-49 -726 281 -39 151 2 307 111 425 56 60 159 122 230 139 71 17 197 12 266
-9z"/>
<path d="M1017 984 c-51 -28 -57 -85 -14 -131 27 -30 68 -29 106 3 41 34 40
67 -3 110 -38 38 -48 40 -89 18z"/>
<path d="M2728 1583 l-58 -4 0 -669 0 -670 798 0 799 0 114 101 c63 56 159
141 214 189 161 142 271 278 296 364 12 40 -21 109 -90 196 -53 66 -269 268
-440 411 l-94 79 -326 0 c-179 0 -513 2 -741 4 -228 2 -441 2 -472 -1z m1503
-22 c32 -1 54 -16 165 -113 314 -273 432 -397 470 -496 17 -42 17 -42 -14
-105 -18 -35 -64 -97 -108 -145 -65 -71 -341 -324 -452 -415 l-34 -27 -784 0
-784 0 0 650 0 650 318 2 c260 3 1083 1 1223 -1z"/>
<path d="M2980 1393 c0 -4 96 -103 212 -220 192 -192 212 -215 201 -232 -9
-15 -10 -28 -1 -51 11 -32 11 -32 -128 -171 l-139 -139 -43 63 c-63 94 -85
170 -79 287 5 120 27 181 103 288 10 13 12 22 5 22 -17 0 -78 -89 -102 -150
-14 -37 -23 -86 -26 -151 -7 -121 16 -207 82 -305 l46 -68 -68 -68 c-37 -37
-64 -70 -61 -73 3 -4 38 24 77 60 l71 67 31 -27 c164 -138 447 -139 614 -1 44
36 23 43 -22 8 -21 -17 -67 -43 -103 -58 -58 -25 -77 -28 -175 -29 -128 0
-180 14 -276 76 l-62 41 143 143 c138 138 144 143 165 129 18 -12 27 -12 49
-2 27 11 31 7 241 -202 118 -118 217 -211 220 -208 4 3 -24 38 -60 77 l-67 71
27 31 c138 165 138 453 -1 618 l-27 32 55 57 c64 67 84 92 72 92 -4 0 -104
-95 -221 -212 -208 -208 -213 -211 -238 -198 -21 11 -29 11 -50 0 -25 -14 -29
-11 -165 126 l-139 139 44 34 c25 18 73 45 107 60 56 23 76 26 183 26 133 0
177 -14 272 -81 26 -18 49 -32 51 -29 16 16 -83 82 -167 111 -49 18 -88 24
-151 24 -127 0 -223 -32 -313 -103 l-38 -29 -68 66 c-67 64 -81 74 -81 59z
m869 -198 c85 -114 114 -284 72 -423 -19 -64 -94 -194 -109 -191 -4 1 -67 64
-141 140 -122 126 -133 140 -124 161 7 15 7 32 0 51 -9 27 -4 35 124 166 74
76 136 139 139 139 3 1 20 -19 39 -43z"/>
<path d="M5118 1583 l-38 -4 0 -670 0 -669 803 0 803 0 84 78 c47 42 130 116
185 163 140 120 221 202 282 284 87 116 91 159 24 261 -66 102 -163 197 -464
457 -132 113 -36 102 -892 103 -412 1 -767 -1 -787 -3z m1500 -20 c67 -7 92
-25 283 -195 312 -278 411 -403 385 -486 -13 -39 -84 -139 -147 -206 -35 -38
-124 -120 -199 -184 -74 -64 -163 -142 -197 -174 l-61 -58 -791 0 -791 0 0
650 0 649 73 3 c145 6 1393 7 1445 1z"/>
<path d="M5400 1393 c0 -4 95 -103 210 -218 116 -115 210 -213 210 -217 0 -3
-7 -14 -16 -22 -13 -13 -46 -16 -210 -16 -120 0 -194 -4 -194 -10 0 -6 78 -11
201 -12 179 -3 203 -5 213 -20 9 -15 -20 -48 -204 -233 -118 -118 -212 -216
-209 -219 3 -3 95 85 204 194 110 110 211 205 224 212 20 11 25 10 38 -7 12
-16 14 -50 12 -170 -3 -204 -1 -241 11 -229 5 5 11 96 12 209 3 187 4 200 22
203 14 3 77 -54 227 -204 115 -114 211 -206 214 -203 3 4 -87 99 -200 213
-160 161 -206 212 -203 229 3 22 6 22 206 25 123 1 202 6 202 12 0 6 -74 10
-194 10 -164 0 -197 3 -210 16 -9 8 -16 18 -16 22 0 3 95 102 212 219 117 117
208 213 203 213 -6 0 -102 -92 -215 -205 -148 -149 -211 -205 -225 -203 -19 3
-20 12 -23 203 -1 113 -7 204 -12 209 -7 7 -10 -60 -10 -191 0 -168 -2 -203
-15 -213 -26 -21 -53 1 -254 205 -188 192 -211 213 -211 198z"/>
<path d="M7506 1582 c-4 -3 -6 -306 -6 -674 l0 -668 794 0 794 0 49 36 c26 20
77 64 113 98 36 33 116 106 178 161 132 116 243 239 273 302 42 88 5 182 -126
317 -76 78 -357 328 -435 387 l-48 36 -353 7 c-395 8 -1225 7 -1233 -2z m1601
-37 c42 -27 406 -350 464 -412 72 -77 121 -156 126 -207 7 -59 -27 -122 -125
-227 -82 -88 -395 -371 -456 -413 l-39 -26 -778 0 -779 0 0 650 0 649 73 4
c39 2 389 3 777 3 688 -1 706 -2 737 -21z"/>
<path d="M8023 1402 l-223 -2 0 -490 0 -490 498 0 497 0 -2 487 c-1 268 -6
488 -10 490 -18 4 -554 8 -760 5z m38 -59 c-78 -47 -170 -143 -206 -217 -15
-31 -29 -56 -31 -56 -2 0 -4 70 -4 155 l0 155 152 0 153 0 -64 -37z m424 4
c89 -41 132 -74 181 -139 79 -102 97 -155 102 -293 l4 -120 -42 -82 c-50 -99
-128 -177 -233 -230 -71 -36 -74 -37 -197 -37 -125 -1 -125 -1 -202 37 -104
50 -173 119 -224 222 l-39 79 0 127 0 126 44 88 c36 70 57 97 104 136 114 95
182 119 332 116 97 -2 117 -5 170 -30z m285 -124 l0 -156 -30 60 c-42 84 -131
176 -210 218 l-65 35 153 0 152 0 0 -157z m-811 -663 c36 -36 89 -76 116 -90
l50 -25 -149 -3 c-82 -1 -151 -1 -153 2 -3 2 -1 71 3 152 l7 148 30 -60 c17
-34 57 -86 96 -124z m811 30 l0 -150 -152 0 -153 0 64 37 c83 46 179 143 210
211 14 28 26 52 28 52 2 0 3 -67 3 -150z"/>
<path d="M8251 974 c-40 -33 -43 -83 -6 -119 64 -65 168 14 125 96 -10 18 -59
49 -79 49 -5 0 -23 -12 -40 -26z"/>
</g>
</svg>
