<?xml version="1.0" standalone="no"?>
<!DOCTYPE svg PUBLIC "-//W3C//DTD SVG 20010904//EN"
 "http://www.w3.org/TR/2001/REC-SVG-20010904/DTD/svg10.dtd">
<svg version="1.0" xmlns="http://www.w3.org/2000/svg"
 width="996.000000pt" height="922.000000pt" viewBox="0 0 996.000000 922.000000"
 preserveAspectRatio="xMidYMid meet">
<metadata>
Created by potrace 1.16, written by Peter Selinger 2001-2019
</metadata>
<g transform="translate(0.000000,922.000000) scale(0.100000,-0.100000)"
fill="#FFFFFF" stroke="none">
<path d="M256 8758 c-8 -307 -8 -4389 1 -4560 l6 -128 2938 0 2939 0 0 2465 0
2465 -2938 0 -2939 0 -7 -242z m5864 -2223 l0 -2445 -2920 0 -2920 0 0 2445 0
2445 2920 0 2920 0 0 -2445z"/>
<path d="M1270 8325 l0 -115 -115 0 c-70 0 -115 -4 -115 -10 0 -6 45 -10 115
-10 l115 0 0 -109 0 -109 -104 -210 c-84 -168 -102 -211 -90 -216 28 -11 414
-7 414 4 0 6 -45 101 -101 211 -99 200 -101 203 -106 289 -3 48 -3 99 1 114
l6 26 110 0 c67 0 110 4 110 10 0 6 -43 10 -110 10 l-110 0 -2 63 c-1 34 -1
86 0 115 2 31 -1 52 -7 52 -7 0 -11 -41 -11 -115z m105 -578 c47 -92 85 -172
85 -177 0 -6 -70 -10 -186 -10 -114 0 -184 4 -182 10 2 5 43 90 93 189 56 113
92 176 97 168 5 -7 47 -87 93 -180z"/>
<path d="M2850 8333 l0 -106 -74 71 c-41 40 -77 72 -80 72 -14 0 16 -38 78
-100 36 -35 66 -68 66 -73 0 -4 -29 -35 -66 -69 -60 -57 -93 -98 -78 -98 3 0
39 32 80 72 l74 71 0 -95 0 -96 -59 -7 c-32 -4 -78 -5 -101 -4 l-43 3 1 -208
c0 -115 4 -212 9 -217 5 -5 101 -8 214 -7 l204 3 3 212 2 212 -102 3 -103 3
-3 100 -3 100 81 -80 c44 -44 80 -73 80 -66 0 7 -35 49 -77 92 l-76 79 76 79
c42 43 77 82 77 87 0 8 -30 -17 -107 -90 l-53 -50 0 107 c0 65 -4 107 -10 107
-6 0 -10 -42 -10 -107z m173 -379 l37 -7 -2 -191 -3 -191 -192 -3 -193 -2 0
200 0 200 158 0 c86 0 174 -3 195 -6z"/>
<path d="M4440 8326 l0 -116 -115 0 c-70 0 -115 -4 -115 -10 0 -6 45 -10 115
-10 l115 0 0 -107 0 -108 -102 0 -103 0 0 -215 0 -215 213 -3 212 -2 0 215 0
215 -100 0 -100 0 0 110 0 110 110 0 c67 0 110 4 110 10 0 6 -43 10 -110 10
l-110 0 0 109 c0 63 -4 112 -10 116 -6 4 -10 -35 -10 -109z m88 -374 l112 -2
0 -195 0 -195 -192 2 -193 3 -3 145 c-2 80 0 168 3 195 l6 50 77 -1 c42 0 128
-2 190 -2z"/>
<path d="M1270 7023 c0 -22 -6 -33 -19 -38 -34 -11 -71 -56 -71 -88 0 -40 34
-93 65 -101 24 -6 25 -9 25 -97 0 -50 -5 -100 -11 -112 -6 -12 -72 -84 -147
-160 l-137 -137 145 -145 c80 -80 149 -145 155 -145 6 0 77 66 158 148 l147
147 -145 145 -145 145 0 101 0 101 37 24 c48 31 61 70 39 116 -9 19 -30 42
-46 51 -16 9 -30 24 -30 32 0 8 -5 22 -10 30 -7 11 -10 7 -10 -17z m147 -870
l-138 -137 -139 139 -139 139 137 141 136 140 141 -143 140 -143 -138 -136z"/>
<path d="M2837 6949 c-25 -69 -97 -141 -164 -165 -29 -10 -53 -22 -53 -25 0
-3 20 -14 44 -23 54 -21 134 -103 171 -177 l28 -54 17 40 c24 57 104 142 167
177 54 31 67 48 35 48 -54 0 -177 119 -202 195 -6 19 -15 35 -18 35 -4 0 -15
-23 -25 -51z"/>
<path d="M4440 6943 c0 -23 -6 -36 -22 -44 -44 -22 -68 -52 -68 -83 0 -40 33
-94 65 -106 24 -9 25 -12 25 -103 l0 -93 -46 -12 c-98 -26 -154 -101 -154
-206 0 -169 169 -267 315 -182 161 95 128 340 -51 385 l-44 11 0 99 c0 88 2
100 18 105 38 12 62 45 62 86 0 53 -7 66 -46 91 -19 11 -34 28 -34 37 0 9 -5
24 -10 32 -7 11 -10 7 -10 -17z m73 -465 c86 -26 134 -108 124 -211 -5 -56
-27 -90 -84 -130 -73 -52 -160 -46 -229 16 -48 42 -64 77 -64 142 0 141 115
224 253 183z"/>
<path d="M2793 6477 c-58 -22 -121 -83 -134 -130 -29 -107 10 -203 104 -257
79 -45 165 -37 233 22 82 73 102 178 48 264 -57 93 -162 135 -251 101z m140
-20 c65 -28 127 -122 127 -192 -1 -32 -35 -97 -66 -127 -64 -59 -142 -72 -214
-35 -114 58 -147 202 -67 294 57 65 148 90 220 60z"/>
<path d="M3655 5728 c-3 -7 -4 -310 -3 -673 l3 -660 795 0 795 0 30 23 c75 59
292 258 411 376 149 149 188 206 188 276 0 94 -127 239 -468 533 l-159 137
-794 0 c-626 0 -795 -3 -798 -12z m1770 -165 c99 -87 220 -198 270 -248 91
-91 165 -200 165 -242 0 -78 -129 -229 -404 -471 -103 -92 -198 -172 -210
-179 -16 -9 -206 -12 -792 -13 l-771 0 -7 31 c-8 41 -8 1158 0 1227 l7 52 781
0 781 0 180 -157z"/>
<path d="M1270 5486 l0 -116 -115 0 c-70 0 -115 -4 -115 -10 0 -6 45 -10 115
-10 l115 0 0 -112 0 -111 -147 -149 -148 -148 151 -151 151 -151 153 152 153
152 -147 147 -146 146 0 113 0 112 110 0 c67 0 110 4 110 10 0 6 -43 10 -110
10 l-110 0 0 109 c0 63 -4 112 -10 116 -6 4 -10 -35 -10 -109z m150 -521 l135
-135 -139 -139 -138 -139 -137 140 -136 140 135 134 c74 73 137 134 140 134 3
0 66 -61 140 -135z"/>
<path d="M2858 5504 c-5 -4 -8 -52 -8 -107 l0 -100 -70 69 c-101 99 -111 92
-12 -8 l83 -84 -83 -82 c-45 -44 -80 -84 -76 -87 3 -4 41 26 83 66 l76 72 -3
-98 -3 -99 -31 -7 c-119 -24 -198 -169 -152 -279 82 -194 342 -184 409 17 33
102 -53 239 -164 262 l-32 7 -1 103 -1 102 79 -78 c43 -42 78 -73 78 -68 0 5
-35 44 -77 87 l-77 77 78 81 c43 45 75 84 72 88 -4 3 -40 -27 -81 -68 l-74
-74 -3 108 c-2 59 -6 104 -10 100z m92 -499 c59 -31 110 -117 110 -184 -1 -35
-32 -101 -61 -128 -52 -48 -143 -66 -206 -42 -38 14 -92 67 -109 106 -31 71
-9 167 49 221 51 48 152 60 217 27z"/>
<path d="M6360 6045 l0 -265 200 0 200 0 0 30 0 30 -162 2 -163 3 -3 88 -3 87
145 0 146 0 6 25 c8 32 1 40 -39 41 -18 0 -83 1 -145 2 l-113 2 3 78 3 77 158
3 158 3 -3 27 -3 27 -192 3 -193 2 0 -265z"/>
<path d="M6810 6025 c0 -12 14 -15 65 -15 l65 0 -30 -48 c-29 -47 -67 -168
-56 -179 11 -11 36 7 36 26 0 35 30 111 66 166 19 30 34 57 34 60 0 3 -40 5
-90 5 -73 0 -90 -3 -90 -15z"/>
<path d="M930 3814 c-56 -50 -52 -66 10 -40 13 5 15 -6 12 -74 l-4 -80 26 0
26 0 0 115 c0 133 -5 138 -70 79z"/>
<path d="M3322 3827 c-12 -13 -22 -29 -22 -35 0 -17 30 -15 51 4 20 18 49 12
49 -10 0 -8 -25 -44 -56 -80 -30 -36 -52 -70 -49 -76 3 -5 40 -10 81 -10 67 0
74 2 74 20 0 17 -7 20 -46 20 l-47 0 42 45 c32 34 41 52 41 79 0 62 -75 89
-118 43z"/>
<path d="M5742 3834 c-24 -17 -30 -54 -8 -54 7 0 19 7 26 15 16 19 50 20 50 1
0 -8 -12 -23 -27 -34 l-26 -19 29 -14 c20 -10 29 -22 29 -39 0 -31 -29 -39
-55 -15 -20 18 -40 13 -40 -9 0 -22 35 -46 68 -46 61 0 94 69 55 112 -13 14
-14 21 -5 30 31 31 -4 88 -53 88 -11 0 -31 -7 -43 -16z"/>
<path d="M8188 3803 c-82 -117 -84 -129 -17 -139 29 -5 43 -13 46 -25 7 -24
32 -25 40 -1 3 9 12 24 20 33 11 14 11 18 -2 29 -8 7 -15 29 -15 50 0 57 -11
100 -25 100 -7 0 -28 -21 -47 -47z m28 -68 c-5 -26 -12 -35 -26 -35 -26 0 -25
14 2 50 26 36 33 32 24 -15z"/>
<path d="M267 3544 c-4 -4 -7 -308 -7 -676 l0 -668 795 0 795 0 106 93 c58 50
143 124 188 163 126 110 281 277 310 336 14 28 26 66 26 83 0 32 -50 123 -102
189 -44 55 -418 392 -506 457 l-34 24 -782 3 c-430 2 -785 0 -789 -4z m1526
-19 c48 -6 66 -14 107 -49 418 -354 560 -507 560 -602 0 -91 -150 -255 -548
-596 l-67 -58 -782 0 -783 0 0 650 0 649 83 3 c185 7 1376 9 1430 3z"/>
<path d="M1058 3203 l-3 -118 -105 -1 c-144 -3 -147 -7 -10 -13 l115 -6 3
-106 3 -106 -43 -11 c-90 -23 -157 -110 -158 -205 -1 -188 219 -287 353 -159
122 116 73 317 -89 362 l-44 13 0 109 0 110 73 -5 c39 -4 92 -2 117 2 36 7 22
9 -72 10 l-118 1 0 114 c0 155 -19 162 -22 9z m102 -400 c66 -34 100 -90 100
-164 0 -85 -38 -144 -115 -180 -55 -25 -102 -24 -161 6 -81 41 -118 122 -100
220 14 72 107 144 187 145 19 0 60 -12 89 -27z"/>
<path d="M5458 3542 l-378 -2 0 -670 0 -670 803 0 802 1 55 50 c30 28 114 101
185 163 244 212 373 363 382 448 4 36 -2 53 -34 107 -21 35 -63 91 -94 125
-73 79 -428 394 -477 423 -36 21 -48 21 -452 25 -228 1 -585 2 -792 0z m1183
-21 c37 -2 87 -38 262 -194 269 -239 387 -377 387 -454 0 -80 -138 -243 -380
-448 -58 -49 -133 -115 -167 -147 l-61 -58 -791 0 -791 0 0 650 0 650 338 2
c309 3 1142 2 1203 -1z"/>
<path d="M5890 3194 l0 -116 -110 3 c-60 1 -112 0 -115 -3 -8 -8 94 -20 106
-13 5 4 34 3 64 0 l55 -7 0 -104 0 -104 -105 0 -105 0 2 -212 3 -213 218 -3
217 -2 0 215 0 215 -105 0 -106 0 3 108 3 107 60 -2 c33 -2 85 1 115 6 55 8
55 9 -31 10 -48 0 -101 4 -118 7 l-31 7 0 108 c0 66 -4 109 -10 109 -6 0 -10
-45 -10 -116z m205 -562 l0 -192 -195 2 -195 3 -3 180 c-1 98 0 185 3 192 3
11 46 13 197 11 l193 -3 0 -193z"/>
<path d="M7753 3543 l-253 -3 0 -670 0 -670 784 0 c441 0 795 4 808 9 13 5 49
31 80 58 272 234 448 404 505 490 65 97 53 173 -49 302 -44 55 -446 416 -508
457 l-35 22 -540 4 c-297 3 -654 3 -792 1z m1353 -38 c21 -13 120 -98 264
-224 226 -199 318 -310 327 -395 7 -59 -28 -122 -126 -228 -80 -86 -396 -371
-457 -413 l-37 -25 -778 0 -779 0 0 650 0 649 88 3 c48 2 400 2 782 0 549 -4
699 -7 716 -17z"/>
<path d="M8308 3314 c-5 -4 -8 -58 -8 -121 l0 -113 -112 -1 c-93 -1 -104 -3
-62 -9 29 -4 79 -7 113 -6 l61 2 0 -117 0 -118 -100 -200 c-55 -110 -100 -202
-100 -205 0 -4 97 -6 215 -6 118 0 215 2 215 5 0 4 -47 100 -105 215 l-106
209 3 108 3 108 35 -2 c19 -1 73 2 120 5 l85 7 -120 5 -120 5 -5 118 c-3 65
-8 115 -12 111z m191 -866 c1 -5 -82 -8 -184 -8 -102 0 -185 2 -185 5 0 3 42
88 92 190 l93 185 92 -182 c51 -101 92 -186 92 -190z"/>
<path d="M2670 2870 l0 -670 800 0 799 0 148 131 c81 72 180 160 218 194 86
76 205 214 234 272 64 127 -5 224 -409 579 -69 60 -141 122 -161 137 l-36 27
-796 0 -797 0 0 -670z m1236 650 l362 0 169 -147 c308 -270 435 -414 435 -496
0 -89 -102 -208 -425 -496 -71 -63 -142 -125 -160 -138 l-31 -23 -783 0 -783
0 0 650 0 650 323 3 c177 2 369 2 426 0 57 -2 267 -3 467 -3z"/>
<path d="M3480 3283 c0 -25 -6 -35 -27 -45 -28 -13 -73 -71 -73 -93 0 -22 45
-80 73 -93 26 -13 27 -15 27 -105 l0 -93 -47 -13 c-65 -17 -106 -51 -137 -113
-45 -91 -31 -166 48 -245 36 -36 62 -53 89 -58 99 -19 202 31 242 118 58 123
4 249 -124 292 l-51 17 0 99 c0 54 4 99 9 99 5 0 23 12 40 26 26 21 31 33 31
69 0 38 -5 48 -40 78 -22 19 -40 40 -40 48 0 8 -5 21 -10 29 -7 11 -10 7 -10
-17z m85 -474 c143 -67 155 -252 23 -335 -110 -70 -245 -20 -287 105 -40 122
54 249 187 251 18 0 52 -9 77 -21z"/>
<path d="M3328 1840 c-29 -29 -30 -34 -26 -95 5 -77 25 -105 75 -105 64 0 96
73 57 129 -14 20 -23 22 -56 18 -32 -4 -39 -2 -36 10 5 27 35 40 58 25 28 -17
40 -15 40 8 0 22 -27 40 -60 40 -12 0 -35 -14 -52 -30z m80 -135 c-2 -14 -11
-20 -28 -20 -32 0 -41 42 -14 62 16 12 21 11 32 -4 7 -10 11 -27 10 -38z"/>
<path d="M8163 1858 c-26 -12 -36 -44 -22 -70 7 -13 6 -29 -3 -54 -10 -30 -10
-39 3 -62 12 -21 23 -28 56 -30 34 -3 44 1 62 24 25 32 26 40 6 78 -11 20 -12
33 -5 40 17 17 11 54 -12 70 -26 18 -53 19 -85 4z m61 -37 c8 -13 -20 -45 -32
-37 -20 12 -14 46 7 46 11 0 22 -4 25 -9z m1 -111 c0 -16 -6 -26 -19 -28 -25
-5 -39 12 -31 38 10 31 50 24 50 -10z"/>
<path d="M905 1823 c-3 -21 -8 -49 -11 -62 -5 -21 -3 -23 23 -17 59 15 68 13
71 -17 2 -16 -2 -35 -9 -43 -10 -13 -15 -13 -35 1 -29 19 -54 19 -54 1 0 -48
85 -62 125 -21 27 26 31 54 14 88 -16 29 -28 37 -61 37 -48 0 -35 28 14 32 31
2 44 8 46 21 3 15 -5 17 -57 17 l-60 0 -6 -37z"/>
<path d="M5710 1845 c0 -11 12 -15 49 -15 l50 0 -29 -62 c-39 -84 -42 -122
-12 -126 18 -3 22 1 22 21 0 34 23 97 54 146 14 22 26 43 26 46 0 3 -36 5 -80
5 -64 0 -80 -3 -80 -15z"/>
<path d="M260 1562 c-9 -652 -11 -1030 -5 -1159 l7 -163 794 0 793 0 85 72
c386 329 546 505 546 602 0 77 -124 231 -324 404 -56 48 -140 121 -187 163
-48 43 -97 83 -110 91 -20 10 -172 13 -811 15 l-788 2 0 -27z m1563 -1 c24 -6
62 -30 103 -68 36 -32 103 -89 148 -128 211 -178 297 -268 359 -376 35 -59 34
-88 -3 -158 -48 -88 -317 -354 -531 -523 l-60 -48 -778 0 -778 0 -7 252 c-4
138 -4 432 0 653 l7 402 751 1 c413 1 768 -2 789 -7z"/>
<path d="M1046 1418 c-3 -13 -6 -60 -6 -105 l0 -83 -69 73 c-38 39 -73 68 -77
64 -4 -4 28 -43 71 -87 l79 -80 -82 -84 c-45 -46 -82 -87 -82 -90 0 -13 53 31
103 83 27 28 52 51 55 51 4 0 6 -43 6 -95 l-2 -94 -40 -48 c-22 -27 -80 -86
-128 -133 -136 -129 -139 -100 27 -266 79 -79 148 -144 154 -144 6 0 75 65
155 145 l144 144 -19 23 c-11 13 -75 80 -144 150 l-125 127 -1 105 0 106 77
-77 c43 -42 80 -75 82 -72 3 3 -28 38 -69 79 -41 41 -75 78 -75 83 0 5 34 47
76 93 42 46 72 84 67 84 -4 0 -40 -31 -78 -70 -38 -38 -73 -70 -78 -70 -4 0
-7 45 -6 100 2 101 -3 130 -15 88z m283 -750 c-3 -2 -65 -63 -140 -136 l-135
-133 -136 138 -137 137 137 141 136 140 140 -142 c77 -79 138 -144 135 -145z"/>
<path d="M3043 1583 l-373 -3 0 -670 0 -670 799 0 800 0 223 199 c303 270 401
388 401 482 0 50 -74 159 -172 257 -82 81 -362 329 -425 377 l-39 30 -421 1
c-232 0 -589 -1 -793 -3z m1170 -20 c56 -5 59 -7 185 -116 313 -272 431 -397
468 -495 17 -42 16 -43 -14 -105 -49 -98 -208 -260 -514 -519 l-79 -68 -784 0
-785 0 0 650 0 650 323 2 c651 6 1143 6 1200 1z"/>
<path d="M3460 1327 c0 -28 -6 -38 -37 -58 -51 -32 -65 -82 -37 -130 11 -19
32 -40 47 -47 27 -13 27 -15 27 -108 l0 -94 -100 0 -100 0 0 -215 0 -215 210
0 210 0 0 215 0 215 -100 0 -100 0 0 100 c0 66 4 100 11 100 6 0 24 9 40 20
56 41 43 139 -22 163 -24 9 -29 17 -29 44 0 17 -4 35 -10 38 -6 4 -10 -8 -10
-28z m200 -652 l0 -195 -190 0 -190 0 0 195 0 195 190 0 190 0 0 -195z"/>
<path d="M7658 1582 l-158 -3 0 -669 0 -670 794 0 794 0 49 36 c26 20 77 64
113 98 36 33 112 102 169 151 191 166 301 309 301 391 0 40 -42 119 -105 196
-50 60 -428 400 -496 445 l-37 24 -633 2 c-349 1 -705 1 -791 -1z m1385 -18
c54 -7 89 -32 287 -207 187 -166 268 -247 316 -318 91 -133 73 -190 -126 -389
-133 -134 -340 -320 -404 -364 l-39 -26 -778 0 -779 0 0 649 c0 511 3 650 13
654 19 6 1456 7 1510 1z"/>
<path d="M8290 1248 c-1 -109 -1 -112 -19 -93 -44 49 -142 138 -133 120 6 -11
40 -49 76 -85 36 -35 66 -68 66 -73 0 -4 -27 -33 -60 -64 -59 -55 -108 -113
-95 -113 4 0 43 35 86 77 l79 76 0 -100 0 -101 -46 -11 c-106 -27 -179 -146
-154 -251 29 -120 168 -201 275 -160 45 17 104 71 125 115 56 115 -12 264
-137 298 l-43 11 0 100 0 101 80 -80 c44 -44 80 -75 80 -70 0 5 -36 46 -80 90
l-80 80 75 75 c41 41 75 78 75 83 0 5 -33 -21 -72 -57 l-73 -65 -3 104 c-4
142 -22 136 -22 -7z m88 -397 c56 -29 93 -74 108 -130 22 -87 -14 -166 -102
-217 -39 -23 -53 -26 -101 -21 -105 11 -175 87 -176 192 -2 139 150 238 271
176z"/>
<path d="M5080 910 l0 -670 803 0 802 1 55 50 c30 28 100 89 155 137 290 250
415 397 415 488 0 37 -56 132 -124 210 -60 68 -414 386 -475 425 l-45 29 -793
0 -793 0 0 -670z m1608 636 c15 -8 93 -71 172 -141 292 -256 416 -396 427
-482 9 -79 -115 -234 -346 -431 -69 -60 -158 -137 -196 -170 l-69 -62 -788 0
-788 0 0 649 c0 509 3 650 12 653 7 3 358 3 781 1 638 -2 772 -5 795 -17z"/>
<path d="M5877 1373 c-2 -5 -10 -26 -17 -47 -19 -58 -90 -129 -161 -161 l-62
-27 62 -30 c68 -32 129 -99 162 -175 10 -24 20 -43 22 -43 3 0 17 25 31 55 39
79 125 153 211 180 16 5 8 12 -40 35 -87 42 -130 82 -166 155 -33 67 -35 70
-42 58z"/>
<path d="M5818 858 c-82 -22 -148 -115 -148 -208 1 -80 90 -192 164 -206 90
-16 183 24 230 99 58 94 42 193 -44 271 -57 52 -121 66 -202 44z m153 -31 c31
-16 54 -39 77 -77 39 -67 41 -112 7 -180 -32 -64 -85 -100 -156 -106 -138 -13
-245 129 -195 259 41 108 166 157 267 104z"/>
</g>
</svg>
