<?xml version="1.0" standalone="no"?>
<!DOCTYPE svg PUBLIC "-//W3C//DTD SVG 20010904//EN"
 "http://www.w3.org/TR/2001/REC-SVG-20010904/DTD/svg10.dtd">
<svg version="1.0" xmlns="http://www.w3.org/2000/svg"
 width="996.000000pt" height="922.000000pt" viewBox="0 0 996.000000 922.000000"
 preserveAspectRatio="xMidYMid meet">
<metadata>
Created by potrace 1.16, written by Peter Selinger 2001-2019
</metadata>
<g transform="translate(0.000000,922.000000) scale(0.100000,-0.100000)"
fill="#FFFFFF" stroke="none">
<path d="M256 8788 c-8 -271 -8 -4432 1 -4596 l6 -122 2939 0 2938 0 0 2465 0
2465 -2938 0 -2939 0 -7 -212z m5864 -2253 l0 -2445 -2920 0 -2920 0 0 2445 0
2445 2920 0 2920 0 0 -2445z"/>
<path d="M1150 8465 c-145 -31 -323 -109 -381 -168 -47 -47 -107 -158 -125
-230 -14 -55 -15 -77 -5 -124 15 -77 60 -167 114 -228 l45 -50 483 0 484 0 0
330 0 330 -95 47 c-185 91 -374 125 -520 93z m314 -34 c112 -30 320 -131 267
-131 -5 0 -106 -64 -223 -142 -117 -78 -220 -142 -228 -142 -15 -1 -459 284
-460 295 0 3 28 20 63 37 223 109 387 133 581 83z m-436 -284 l231 -152 -226
-150 c-124 -83 -229 -151 -234 -153 -13 -5 -107 137 -125 191 -10 29 -18 81
-18 117 -1 55 5 76 35 140 31 64 92 160 102 160 2 0 107 -69 235 -153z m722
-155 l0 -298 -226 149 c-124 82 -222 153 -217 157 12 12 433 290 439 290 2 0
4 -134 4 -298z m-249 -157 c121 -79 219 -146 219 -147 0 -2 -200 -3 -444 -3
-244 0 -442 2 -439 5 12 13 429 289 437 289 5 1 107 -64 227 -144z"/>
<path d="M2719 8460 c-91 -19 -231 -72 -303 -114 l-43 -25 -5 -83 c-2 -46 -2
-193 1 -328 l6 -245 481 0 c551 0 492 -10 567 99 59 87 80 148 80 234 0 68 -3
80 -47 167 -58 115 -108 163 -219 215 -211 97 -342 118 -518 80z m331 -30 c73
-20 271 -108 269 -119 -1 -12 -443 -296 -459 -295 -8 0 -108 62 -222 137 -115
76 -215 140 -223 143 -8 4 -15 9 -15 14 0 8 177 92 232 109 138 44 282 48 418
11z m331 -172 c16 -24 46 -75 66 -116 31 -63 36 -82 37 -146 0 -68 -3 -81 -42
-159 -24 -46 -57 -98 -75 -114 l-32 -31 -228 151 c-223 147 -227 150 -205 166
73 52 434 290 440 290 5 1 22 -18 39 -41z m-736 -131 c99 -66 184 -123 188
-127 4 -4 -77 -62 -180 -130 -103 -68 -205 -137 -225 -153 l-38 -29 0 302 0
302 38 -23 c20 -13 118 -77 217 -142z m449 -297 c119 -78 216 -143 216 -144 0
0 -200 -1 -445 -1 -337 0 -441 3 -432 12 33 31 424 282 434 279 6 -3 109 -69
227 -146z"/>
<path d="M4365 8473 c-124 -19 -307 -88 -385 -143 l-29 -21 2 -322 2 -322 493
-3 492 -2 0 329 0 329 -33 21 c-50 31 -194 90 -271 111 -70 20 -216 32 -271
23z m266 -42 c76 -19 279 -108 279 -121 0 -4 -8 -11 -17 -15 -10 -3 -113 -69
-230 -147 -117 -77 -216 -138 -221 -136 -22 8 -451 294 -451 300 -2 21 248
119 351 137 72 13 198 5 289 -18z m-389 -312 l187 -124 -222 -147 -222 -148
-6 158 c-4 86 -4 219 -1 294 l5 136 36 -22 c20 -13 120 -79 223 -147z m678
-124 c0 -162 -2 -295 -5 -295 -11 0 -445 293 -440 298 12 12 431 291 438 291
4 1 7 -132 7 -294z m-240 -165 c118 -78 216 -143 217 -144 1 0 -201 -1 -447
-1 -247 0 -446 3 -442 6 4 4 84 57 177 119 94 61 188 124 210 140 22 16 47 28
55 26 8 -2 112 -67 230 -146z"/>
<path d="M783 6845 c-31 -22 -108 -141 -128 -200 -11 -29 -18 -79 -18 -120 0
-59 5 -82 36 -148 58 -125 104 -172 222 -228 134 -64 228 -89 355 -96 136 -7
240 17 403 94 l117 56 0 329 0 328 -483 0 c-414 0 -486 -2 -504 -15z m719
-154 l-224 -149 -206 135 c-114 75 -214 142 -222 149 -12 12 52 14 430 14
l445 0 -223 -149z m-472 -8 c121 -80 219 -150 218 -154 -2 -3 -100 -71 -218
-149 -118 -79 -218 -147 -221 -151 -17 -28 -119 132 -145 227 -21 77 -13 136
31 232 26 57 89 142 105 142 5 0 108 -66 230 -147z m718 -301 l-3 -148 -222
145 c-123 80 -223 148 -223 151 0 3 100 71 223 152 l222 148 3 -150 c1 -83 1
-217 0 -298z m-243 -12 c124 -82 225 -154 225 -159 0 -12 -164 -85 -252 -113
-61 -19 -94 -23 -203 -22 -119 0 -138 3 -225 32 -111 38 -225 93 -222 107 1 7
434 301 449 304 1 1 104 -66 228 -149z"/>
<path d="M2370 6537 c0 -376 -13 -336 127 -396 145 -63 217 -82 333 -88 88 -5
120 -2 194 17 96 24 219 72 290 114 80 47 165 183 187 300 17 95 -27 222 -118
334 l-34 42 -490 0 -489 0 0 -323z m925 294 c-6 -5 -105 -72 -222 -149 l-211
-141 -214 141 c-117 77 -217 144 -222 149 -6 5 177 9 434 9 254 0 440 -4 435
-9z m-508 -262 c56 -36 61 -44 39 -52 -8 -3 -109 -69 -225 -146 l-211 -141 0
300 0 300 173 -113 c94 -62 196 -129 224 -148z m593 224 c42 -52 88 -147 100
-210 12 -64 0 -134 -35 -210 -24 -52 -90 -143 -105 -143 -3 0 -105 65 -226
145 -120 80 -223 147 -229 150 -7 3 -7 7 0 10 6 3 107 70 225 149 118 80 220
145 227 145 6 1 26 -16 43 -36z m-297 -419 c122 -81 226 -150 231 -154 12 -11
-114 -73 -227 -113 -84 -29 -103 -31 -217 -32 -90 0 -143 5 -190 18 -65 18
-235 89 -264 110 -14 10 17 35 211 164 126 83 230 152 231 152 2 1 104 -65
225 -145z"/>
<path d="M3956 6851 c-3 -5 -5 -151 -3 -324 2 -367 -14 -321 143 -391 130 -57
197 -75 310 -83 145 -9 259 17 442 104 l92 44 0 329 0 330 -489 0 c-276 0
-492 -4 -495 -9z m929 -19 c-6 -4 -108 -73 -228 -152 l-217 -143 -23 20 c-12
11 -112 80 -221 152 l-200 131 449 0 c247 0 445 -4 440 -8z m-465 -301 c-1 -7
-431 -294 -435 -289 -5 5 -10 288 -7 441 l2 147 220 -147 c121 -80 220 -149
220 -152z m500 0 l0 -300 -225 147 c-123 81 -224 149 -224 152 0 4 440 300
447 300 1 0 2 -135 2 -299z m-231 -171 c121 -80 221 -147 221 -150 0 -8 -165
-78 -249 -107 -99 -33 -246 -41 -348 -20 -79 17 -274 91 -305 117 -19 15 -10
22 208 167 134 90 233 149 240 145 7 -4 111 -72 233 -152z"/>
<path d="M3655 5728 c-3 -7 -4 -310 -3 -673 l3 -660 795 0 795 0 30 23 c63 50
285 252 405 369 129 126 187 204 197 266 8 54 -45 144 -151 255 -91 95 -430
397 -469 419 -32 18 -1596 18 -1602 1z m1605 -25 c47 -32 334 -288 429 -383
97 -96 171 -203 171 -247 0 -79 -122 -221 -410 -476 l-205 -182 -785 0 -785 0
-3 570 c-2 314 0 607 3 653 l7 82 777 0 c712 0 779 -1 801 -17z"/>
<path d="M758 5358 c-22 -24 -58 -81 -81 -127 -39 -78 -42 -90 -41 -162 0 -71
4 -86 42 -161 22 -46 57 -102 77 -125 l37 -43 489 0 489 0 0 329 0 330 -486 1
-487 1 -39 -43z m957 13 c-6 -5 -106 -72 -223 -150 l-214 -142 -224 146 c-123
81 -224 149 -224 151 0 2 201 4 447 4 256 0 443 -4 438 -9z m-686 -152 l229
-151 -231 -154 -232 -154 -23 27 c-40 49 -94 152 -109 211 -17 65 -13 115 17
195 19 50 101 177 115 177 3 0 109 -68 234 -151z m718 -445 c-4 -4 -426 272
-442 288 -7 7 -7 12 0 14 6 3 107 69 225 147 l215 144 3 -295 c1 -162 1 -297
-1 -298z m-227 122 c96 -64 180 -117 185 -120 36 -13 -51 -16 -435 -14 l-434
3 220 145 219 145 35 -22 c19 -12 114 -74 210 -137z"/>
<path d="M2370 5070 l0 -330 489 0 489 0 37 43 c47 54 91 141 111 217 26 102
-6 212 -99 337 l-46 62 -491 1 -490 0 0 -330z m926 302 c-3 -5 -101 -72 -219
-151 l-215 -143 -223 147 c-123 80 -226 148 -228 151 -2 2 197 4 443 4 246 0
445 -4 442 -8z m-469 -289 c7 -3 13 -9 11 -13 -2 -6 -374 -257 -435 -294 -10
-6 -13 56 -13 293 l0 300 211 -140 c117 -77 218 -143 226 -146z m557 241 c87
-113 119 -233 91 -331 -22 -77 -69 -164 -108 -200 l-32 -29 -228 151 -227 151
222 151 c123 83 228 151 235 152 7 0 28 -20 47 -45z m-298 -416 l217 -143
-216 -3 c-118 -1 -316 -1 -439 0 l-223 3 210 142 c116 78 215 142 222 142 6 1
109 -63 229 -141z"/>
<path d="M6360 6045 l0 -265 200 0 200 0 0 30 0 30 -162 2 -163 3 -3 87 -3 87
148 3 148 3 0 30 c0 35 10 33 -178 34 l-118 1 3 78 3 77 155 5 154 5 0 25 0
25 -192 3 -192 2 0 -265z"/>
<path d="M6863 6035 c-39 -17 -52 -55 -30 -88 13 -21 13 -25 -5 -47 -22 -28
-19 -72 9 -102 23 -26 96 -25 123 2 25 25 27 86 3 112 -13 14 -14 21 -5 30 25
25 4 98 -28 98 -5 0 -14 2 -22 5 -7 2 -27 -2 -45 -10z m71 -37 c15 -24 -3 -52
-37 -56 -18 -2 -29 3 -37 18 -24 45 47 80 74 38z m-2 -105 c26 -23 23 -59 -7
-79 -23 -15 -27 -15 -50 0 -25 16 -29 26 -25 56 2 18 28 40 49 40 8 0 23 -7
33 -17z"/>
<path d="M8176 3783 c-31 -43 -56 -85 -56 -94 0 -18 28 -29 73 -29 20 0 27 -5
27 -20 0 -33 28 -23 47 17 12 27 14 38 5 41 -7 2 -12 18 -12 36 0 54 -12 126
-21 126 -5 0 -33 -35 -63 -77z m40 -48 c-5 -26 -12 -35 -26 -35 -26 0 -25 14
2 50 26 36 33 32 24 -15z"/>
<path d="M927 3811 c-44 -41 -45 -62 -2 -43 l25 12 0 -80 c0 -79 0 -80 25 -80
l25 0 0 115 c0 134 -5 139 -73 76z"/>
<path d="M3322 3830 c-12 -12 -22 -27 -22 -35 0 -20 29 -19 51 1 10 9 25 14
34 11 23 -9 18 -41 -11 -68 -39 -35 -85 -100 -78 -110 3 -5 39 -9 80 -9 67 0
74 2 74 20 0 17 -7 20 -47 20 l-47 0 36 38 c36 38 58 72 58 92 0 6 -11 22 -25
35 -30 31 -73 32 -103 5z"/>
<path d="M5742 3834 c-24 -17 -30 -54 -8 -54 7 0 19 7 26 15 15 18 36 19 46 3
4 -6 -4 -21 -21 -34 l-27 -22 28 -13 c20 -10 29 -22 29 -39 0 -31 -29 -39 -55
-15 -20 18 -40 13 -40 -9 0 -45 97 -63 124 -24 21 29 20 67 -1 90 -13 14 -14
21 -5 30 31 31 -4 88 -53 88 -11 0 -31 -7 -43 -16z"/>
<path d="M333 3543 l-73 -4 -2 -665 c-2 -366 -1 -668 1 -670 2 -2 361 -4 797
-4 l793 0 84 73 c409 353 527 481 543 583 12 84 -84 214 -299 401 -55 48 -144
127 -198 175 -53 47 -105 90 -115 96 -19 9 -1383 23 -1531 15z m1052 -20 l468
-6 53 -46 c29 -25 106 -92 171 -147 246 -210 383 -370 383 -444 0 -49 -49
-128 -136 -223 -85 -91 -365 -346 -448 -408 l-39 -29 -779 0 -778 0 0 649 0
650 53 4 c100 7 586 7 1052 0z"/>
<path d="M975 3345 c-97 -15 -184 -44 -292 -96 -45 -21 -86 -39 -91 -39 -15 0
-24 -246 -16 -465 l7 -205 91 -44 c266 -129 473 -139 724 -33 45 20 102 47
127 62 l45 26 0 319 0 320 -37 24 c-52 34 -224 102 -303 120 -102 22 -169 25
-255 11z m258 -35 c77 -19 254 -84 271 -101 6 -5 -175 -9 -434 -9 -244 0 -441
2 -438 5 14 14 223 94 283 108 120 28 190 27 318 -3z m65 -275 c-120 -80 -222
-145 -226 -145 -7 0 -188 117 -429 277 -14 9 79 12 427 12 l445 1 -217 -145z
m-471 -17 c117 -78 212 -146 211 -149 -3 -8 -425 -289 -433 -289 -3 0 -5 131
-5 290 0 160 3 290 7 290 3 0 103 -64 220 -142z m713 -148 c0 -159 -2 -290 -4
-290 -2 0 -84 53 -183 118 -98 65 -195 128 -215 141 -21 12 -38 26 -38 29 0 8
420 291 433 291 4 1 7 -129 7 -289z m-230 -171 l204 -134 -222 -3 c-122 -1
-321 -1 -442 0 l-221 3 218 146 c191 127 220 144 238 133 11 -6 112 -71 225
-145z m190 -164 c0 -9 -123 -62 -212 -91 -72 -24 -100 -27 -208 -28 -91 -1
-142 4 -190 17 -67 18 -228 83 -244 98 -6 5 181 9 422 9 238 0 432 -2 432 -5z"/>
<path d="M2676 3543 c-3 -4 -6 -307 -6 -675 l0 -668 798 0 799 0 114 101 c63
55 156 137 208 182 108 94 230 229 272 302 57 100 30 173 -125 333 -84 87
-335 314 -433 391 l-42 34 -790 3 c-434 1 -792 0 -795 -3z m1557 -20 c31 -5
71 -34 205 -151 282 -245 396 -369 429 -465 12 -34 11 -43 -7 -84 -26 -58
-106 -157 -207 -253 -99 -95 -325 -297 -366 -327 l-31 -23 -783 0 -783 0 0
650 0 649 93 4 c178 6 1412 7 1450 0z"/>
<path d="M3415 3349 c-119 -15 -272 -66 -371 -124 -97 -57 -190 -208 -201
-326 -7 -81 19 -168 76 -256 61 -92 109 -127 259 -187 240 -96 455 -85 694 35
99 50 140 86 187 168 84 144 92 245 27 375 -67 137 -147 202 -326 264 -137 48
-245 64 -345 51z m292 -53 c45 -14 112 -41 150 -59 l68 -32 -223 -3 c-123 -1
-321 -1 -440 0 l-217 3 50 23 c71 33 150 63 225 84 98 27 277 20 387 -16z
m213 -121 c0 -5 -408 -275 -427 -282 -10 -4 -443 273 -443 283 0 2 196 4 435
4 239 0 435 -2 435 -5z m-502 -274 c23 -14 42 -28 41 -31 -1 -7 -433 -290
-442 -290 -4 0 -7 133 -7 295 l0 294 183 -121 c100 -66 201 -132 225 -147z
m-423 -32 l0 -291 -33 38 c-43 50 -79 126 -94 197 -14 68 -2 143 37 222 19 40
80 125 88 125 1 0 2 -131 2 -291z m965 1 c0 -159 -2 -290 -5 -290 -3 0 -105
65 -226 145 l-221 146 218 144 c121 80 222 145 227 145 4 0 7 -130 7 -290z
m118 141 c38 -82 41 -170 9 -249 -28 -70 -87 -172 -99 -172 -4 0 -8 129 -8
287 l0 288 36 -50 c20 -28 48 -74 62 -104z m-363 -307 l210 -139 -217 -3
c-119 -1 -317 -1 -440 0 l-223 3 220 146 c121 80 225 143 230 139 6 -4 105
-70 220 -146z m195 -169 c0 -8 -101 -56 -160 -77 -187 -65 -359 -62 -546 8
-72 27 -144 62 -144 69 0 3 191 5 425 5 234 0 425 -2 425 -5z"/>
<path d="M5193 3543 l-113 -4 0 -669 0 -670 803 0 803 0 90 83 c49 45 127 114
174 154 113 94 277 265 319 331 51 79 51 122 4 199 -21 35 -55 83 -75 107 -63
75 -476 441 -513 456 -22 8 -1303 20 -1492 13z m1474 -29 c38 -7 346 -277 484
-422 85 -89 139 -174 139 -219 0 -35 -32 -92 -98 -174 -66 -83 -128 -143 -282
-274 -58 -49 -134 -115 -169 -147 l-64 -58 -788 0 -789 0 0 650 0 650 358 2
c442 4 1179 -1 1209 -8z"/>
<path d="M5410 3192 c0 -4 105 -78 233 -162 269 -179 245 -162 232 -166 -33
-13 -464 -308 -459 -315 6 -11 974 -12 974 -1 -1 10 -59 51 -277 192 -106 69
-192 127 -192 130 -1 3 105 74 234 159 129 84 235 157 235 162 0 4 -220 9
-490 9 -269 0 -490 -3 -490 -8z m925 -21 c-6 -5 -106 -72 -223 -149 l-214
-140 -211 140 c-117 77 -216 144 -221 149 -6 5 177 9 434 9 261 0 440 -4 435
-9z m-208 -461 l228 -150 -449 0 c-327 0 -447 3 -439 11 8 8 420 284 430 288
2 1 105 -66 230 -149z"/>
<path d="M7500 2876 l0 -676 794 0 795 0 70 58 c207 169 463 416 519 499 65
99 52 175 -55 307 -49 59 -436 408 -506 454 l-38 25 -789 5 -790 4 0 -676z
m1571 644 c34 -10 87 -53 340 -276 197 -175 277 -275 286 -358 7 -60 -29 -123
-131 -233 -86 -91 -368 -346 -443 -400 l-45 -33 -779 0 -779 0 0 655 0 655
758 0 c467 0 771 -4 793 -10z"/>
<path d="M8552 3038 c-224 -148 -244 -160 -260 -145 -26 23 -445 297 -455 297
-19 0 13 -23 227 -166 124 -82 226 -151 226 -154 0 -3 -99 -69 -219 -148 -120
-78 -227 -152 -237 -163 l-19 -22 25 13 c14 7 124 79 245 159 121 80 225 145
230 145 6 -1 114 -70 240 -153 127 -84 233 -155 238 -158 4 -2 7 0 7 6 0 6
-102 79 -227 162 -126 83 -229 155 -231 158 -1 4 91 69 205 144 214 142 259
174 252 182 -3 2 -114 -68 -247 -157z"/>
<path d="M3329 1841 c-25 -25 -29 -37 -29 -83 0 -75 27 -118 75 -118 66 0 99
72 59 129 -14 20 -23 22 -56 18 -32 -4 -39 -2 -36 10 5 27 35 40 58 25 28 -17
40 -15 40 8 0 22 -27 40 -60 40 -12 0 -35 -13 -51 -29z m77 -117 c8 -30 -6
-47 -32 -42 -35 6 -30 68 5 68 14 0 23 -9 27 -26z"/>
<path d="M8162 1854 c-18 -13 -22 -24 -21 -62 0 -26 -3 -62 -6 -80 -10 -45 15
-72 66 -72 29 0 42 6 58 26 25 32 26 40 6 78 -11 20 -12 33 -5 40 17 17 11 54
-12 70 -29 20 -58 20 -86 0z m62 -33 c8 -13 -20 -45 -32 -37 -20 12 -14 46 7
46 11 0 22 -4 25 -9z m4 -112 c4 -31 -18 -44 -43 -25 -25 18 -11 58 18 54 15
-2 23 -11 25 -29z"/>
<path d="M905 1823 c-3 -21 -8 -49 -11 -62 -5 -25 0 -25 63 -6 18 6 25 2 32
-16 5 -14 5 -31 -1 -41 -9 -19 -43 -24 -53 -8 -9 15 -45 12 -45 -3 0 -23 35
-47 66 -47 60 0 100 61 73 112 -16 30 -28 38 -61 38 -48 0 -35 28 14 32 31 2
44 8 46 21 3 15 -5 17 -57 17 l-60 0 -6 -37z"/>
<path d="M5710 1845 c0 -11 12 -15 50 -15 l50 0 -21 -41 c-26 -51 -50 -130
-43 -141 3 -4 13 -8 23 -8 14 0 20 10 24 41 3 23 22 73 41 110 l36 69 -80 0
c-64 0 -80 -3 -80 -15z"/>
<path d="M258 915 l-3 -675 797 0 797 0 90 77 c403 347 541 499 541 596 0 77
-119 228 -310 392 -51 44 -137 119 -191 167 -54 48 -109 93 -121 100 -18 10
-186 14 -810 16 l-788 3 -2 -676z m1573 645 c20 -6 66 -38 110 -78 40 -37 115
-102 164 -144 213 -179 355 -346 355 -418 0 -70 -115 -219 -287 -373 -181
-162 -285 -252 -311 -269 -25 -17 -71 -18 -804 -18 l-778 0 0 655 0 655 758 0
c467 0 771 -4 793 -10z"/>
<path d="M560 910 l0 -330 489 0 489 0 41 48 c52 59 98 150 113 224 21 102
-24 238 -113 341 l-41 47 -489 0 -489 0 0 -330z m930 305 c0 -3 -99 -71 -220
-152 l-221 -146 -22 20 c-12 11 -107 76 -212 143 -104 68 -194 127 -199 132
-6 4 189 8 432 8 243 0 442 -2 442 -5z m-677 -155 c119 -79 217 -147 217 -150
0 -3 -73 -52 -162 -110 -89 -58 -188 -124 -220 -147 -32 -24 -60 -43 -63 -43
-3 0 -5 135 -5 301 0 165 3 299 8 297 4 -1 105 -68 225 -148z m754 118 c63
-68 113 -188 113 -273 0 -107 -122 -321 -164 -290 -8 6 -109 73 -225 150 -116
77 -211 142 -211 145 0 7 433 297 446 299 5 0 24 -14 41 -31z m-287 -426 c113
-74 209 -138 214 -143 6 -5 -180 -9 -432 -9 -243 0 -442 3 -441 8 1 13 433
291 444 284 5 -3 102 -67 215 -140z"/>
<path d="M2674 1581 c-2 -2 -4 -305 -4 -673 l0 -668 799 0 799 0 229 204 c296
265 395 383 395 471 0 66 -70 165 -210 300 -95 90 -326 294 -383 337 l-35 28
-793 2 c-436 2 -795 1 -797 -1z m1620 -44 c18 -14 121 -104 229 -201 238 -213
322 -310 347 -397 18 -63 -53 -172 -212 -324 -102 -99 -328 -301 -371 -332
l-31 -23 -783 0 -783 0 0 650 0 650 663 3 c892 5 900 4 941 -26z"/>
<path d="M2980 910 l0 -330 490 0 490 0 0 330 0 330 -490 0 -490 0 0 -330z
m925 301 c-6 -5 -106 -72 -224 -149 l-214 -140 -211 140 c-116 77 -215 144
-220 149 -6 5 180 9 434 9 258 0 440 -4 435 -9z m-465 -301 c0 -8 -423 -290
-434 -290 -3 0 -6 133 -6 295 l0 295 220 -147 c121 -80 220 -149 220 -153z
m500 0 l0 -299 -226 150 -226 150 224 149 c122 82 224 149 226 149 1 1 2 -134
2 -299z m-260 -149 c116 -77 217 -142 223 -144 39 -14 -46 -17 -439 -15 l-439
3 220 147 c121 80 221 147 222 147 1 1 97 -62 213 -138z"/>
<path d="M5313 1583 l-233 -3 0 -670 0 -670 803 0 802 1 55 50 c30 28 100 89
155 137 286 246 415 398 415 488 0 37 -59 136 -125 212 -65 73 -428 397 -480
427 l-40 23 -560 4 c-308 3 -665 3 -792 1z m1337 -24 c48 -11 64 -23 295 -230
238 -212 345 -343 345 -419 0 -73 -134 -233 -348 -417 -75 -64 -166 -143 -201
-175 l-64 -58 -788 0 -789 0 0 650 0 649 58 4 c146 9 1450 6 1492 -4z"/>
<path d="M5812 1389 c-170 -21 -370 -106 -446 -190 -108 -120 -148 -267 -107
-391 45 -135 110 -212 231 -273 280 -141 531 -138 805 8 143 77 229 216 230
373 0 73 -3 87 -38 156 -54 110 -110 168 -209 216 -131 63 -234 92 -378 106
-14 1 -53 -1 -88 -5z m283 -49 c82 -26 245 -100 245 -110 0 -5 -103 -76 -229
-158 l-229 -151 -223 150 c-123 82 -227 149 -231 149 -25 0 14 -29 212 -160
121 -80 220 -147 220 -150 0 -3 -91 -65 -203 -138 -231 -151 -243 -160 -235
-168 3 -3 109 62 234 145 l228 150 232 -152 c127 -84 229 -155 225 -159 -16
-18 -223 -101 -295 -118 -185 -45 -399 -6 -601 110 -91 52 -185 217 -185 325
0 83 44 191 114 278 39 49 198 129 322 163 117 32 290 29 399 -6z m359 -244
c41 -70 61 -150 52 -220 -10 -91 -116 -276 -150 -263 -7 3 -112 71 -234 152
l-222 147 118 76 c64 42 169 111 232 154 l115 77 27 -32 c15 -18 43 -59 62
-91z"/>
<path d="M7506 1583 c-3 -4 -6 -307 -6 -675 l0 -668 794 0 794 0 49 37 c130
99 500 456 545 526 44 68 48 123 13 191 -45 88 -114 164 -316 342 -278 246
-269 240 -376 248 -112 8 -1488 7 -1497 -1z m1610 -45 c49 -35 307 -262 407
-357 43 -42 98 -105 123 -142 84 -122 70 -184 -74 -340 -82 -88 -395 -371
-456 -413 l-39 -26 -778 0 -779 0 0 649 c0 510 3 650 13 654 6 3 357 4 778 3
l766 -1 39 -27z"/>
<path d="M7800 933 c0 -170 3 -318 6 -331 7 -25 71 -61 197 -111 229 -91 446
-78 684 41 l102 51 3 312 c2 171 2 319 0 328 -3 16 -45 17 -498 17 l-494 0 0
-307z m939 283 c-2 -2 -102 -69 -222 -149 l-219 -145 -208 136 c-114 76 -216
142 -226 149 -15 9 79 12 430 12 247 1 447 -1 445 -3z m-464 -301 c7 -3 7 -7
0 -10 -5 -3 -107 -70 -227 -149 l-216 -143 -6 30 c-8 39 -8 496 0 535 l6 30
217 -144 c119 -79 221 -146 226 -149z m493 -153 l-3 -148 -222 146 c-122 80
-222 147 -222 150 0 3 100 71 222 151 l222 147 3 -149 c1 -82 1 -216 0 -297z
m-236 -17 l232 -154 -104 -50 c-244 -115 -424 -120 -678 -19 -172 69 -179 49
85 225 125 83 229 152 230 152 1 1 107 -69 235 -154z"/>
</g>
</svg>
