<?xml version="1.0" standalone="no"?>
<!DOCTYPE svg PUBLIC "-//W3C//DTD SVG 20010904//EN"
 "http://www.w3.org/TR/2001/REC-SVG-20010904/DTD/svg10.dtd">
<svg version="1.0" xmlns="http://www.w3.org/2000/svg"
 width="996.000000pt" height="922.000000pt" viewBox="0 0 996.000000 922.000000"
 preserveAspectRatio="xMidYMid meet">
<metadata>
Created by potrace 1.16, written by Peter Selinger 2001-2019
</metadata>
<g transform="translate(0.000000,922.000000) scale(0.100000,-0.100000)"
fill="#FFFFFF" stroke="none">
<path d="M256 8838 c-8 -208 -8 -4482 1 -4646 l6 -122 2939 0 2938 0 0 2465 0
2465 -2938 0 -2939 0 -7 -162z m5864 -2303 l0 -2445 -2919 0 -2918 0 -7 473
c-5 381 -3 3826 3 4295 l1 122 2920 0 2920 0 0 -2445z"/>
<path d="M2735 8281 c-71 -65 -130 -122 -132 -127 -2 -5 51 -43 117 -84 114
-71 136 -90 108 -90 -11 0 -212 -121 -227 -136 -7 -6 239 -238 256 -242 16 -4
265 226 260 241 -1 5 -51 39 -111 76 -59 36 -108 71 -108 76 0 6 48 39 105 75
58 36 109 69 114 73 4 5 -50 65 -122 133 -71 68 -130 124 -130 124 0 -1 -58
-54 -130 -119z m244 -12 l105 -109 -225 0 -224 1 115 109 c63 60 117 109 120
108 3 0 52 -50 109 -109z m85 -138 c-16 -14 -195 -121 -204 -121 -7 0 -196
113 -208 124 -3 3 91 6 208 6 119 0 210 -4 204 -9z m-105 -206 c48 -30 99 -63
112 -75 l24 -20 -65 -60 c-36 -33 -89 -81 -118 -106 l-52 -46 -116 108 -116
108 28 20 c39 29 197 125 207 126 4 0 47 -25 96 -55z"/>
<path d="M2650 7840 c-10 -6 60 -10 208 -10 146 0 221 3 217 10 -8 13 -405 13
-425 0z"/>
<path d="M990 8146 c-42 -16 -343 -147 -349 -152 -2 -2 5 -7 15 -10 10 -4 93
-39 184 -78 l165 -71 275 0 275 0 172 75 c95 41 173 77 173 80 0 11 -71 45
-219 106 l-154 64 -251 -1 c-180 0 -261 -4 -286 -13z m485 -15 c-6 -4 -53 -34
-105 -66 -87 -53 -96 -57 -117 -44 -12 8 -58 36 -103 62 -44 27 -80 51 -80 53
0 2 93 4 207 4 115 0 203 -4 198 -9z m-379 -39 c33 -21 81 -52 107 -69 l48
-30 -96 -58 c-53 -32 -98 -62 -101 -67 -3 -4 -14 -8 -25 -8 -19 0 -316 116
-332 130 -9 8 289 138 319 139 12 1 48 -16 80 -37z m582 -16 c70 -29 139 -59
155 -66 28 -14 36 -30 14 -30 -7 0 -76 -27 -153 -60 -76 -33 -146 -60 -155
-60 -20 0 -224 123 -224 135 0 12 197 133 218 134 9 1 75 -23 145 -53z m-296
-158 l103 -63 -108 -3 c-59 -1 -153 -1 -207 0 l-99 3 97 62 c53 33 100 62 104
62 4 1 53 -27 110 -61z"/>
<path d="M4185 8151 c3 -6 57 -42 120 -81 63 -39 115 -75 115 -79 0 -4 -12
-13 -27 -20 -44 -20 -212 -126 -213 -133 0 -5 119 -8 265 -8 146 0 265 2 265
5 0 6 -129 92 -192 129 -27 15 -48 28 -48 30 0 1 54 36 120 77 66 41 120 77
120 81 0 4 -120 7 -266 8 -170 0 -263 -3 -259 -9z m461 -19 c-6 -11 -189 -122
-200 -122 -9 0 -206 120 -206 126 0 2 93 4 206 4 113 0 203 -4 200 -8z m-86
-218 l95 -59 -108 -3 c-59 -1 -153 -1 -208 0 l-100 3 98 62 c54 34 105 61 113
59 8 -1 58 -29 110 -62z"/>
<path d="M2731 6813 l-131 -117 0 -162 0 -161 129 -122 c118 -111 151 -135
151 -113 0 5 45 48 100 97 148 131 150 134 150 289 0 147 -9 175 -74 232 -22
21 -74 68 -113 106 -40 37 -75 68 -77 68 -3 0 -64 -53 -135 -117z m291 -52
l77 -74 -120 -74 -121 -73 -29 20 c-15 12 -69 45 -119 74 l-91 54 88 78 c48
44 103 93 122 111 l36 32 40 -37 c22 -20 75 -70 117 -111z m-274 -171 c50 -30
92 -58 92 -61 0 -3 -12 -11 -27 -18 -16 -7 -63 -35 -105 -62 -42 -27 -79 -49
-82 -49 -4 0 -6 58 -6 130 0 151 -13 145 128 60z m362 -64 l0 -134 -107 65
c-60 35 -108 69 -108 74 0 10 192 129 208 129 4 0 7 -60 7 -134z m-127 -80
c91 -55 114 -73 105 -83 -6 -7 -59 -58 -118 -113 l-108 -100 -83 78 c-46 43
-101 94 -122 113 l-37 34 117 71 c65 40 121 71 124 70 3 0 58 -32 122 -70z"/>
<path d="M845 6621 c-88 -37 -171 -73 -184 -80 l-24 -13 34 -13 c19 -7 97 -40
174 -73 77 -32 150 -62 162 -66 17 -5 48 9 130 59 59 37 115 71 123 77 12 8
38 -4 115 -52 168 -105 137 -102 316 -26 188 80 209 90 209 96 0 8 -140 72
-260 120 -122 48 -105 52 -267 -50 -52 -33 -98 -60 -101 -60 -3 0 -19 11 -36
23 -52 40 -202 127 -217 126 -8 0 -86 -31 -174 -68z m166 -63 c1 -57 2 -117 4
-134 l3 -32 -127 53 c-69 29 -144 60 -166 69 l-40 17 150 64 c83 35 156 64
163 64 9 1 12 -26 13 -101z m136 40 c57 -34 103 -64 103 -67 -1 -10 -205 -129
-212 -124 -10 6 -10 253 -1 253 4 0 54 -28 110 -62z m373 -69 c0 -72 -4 -129
-8 -127 -22 9 -211 124 -211 128 -1 6 201 129 212 130 4 0 7 -59 7 -131z m207
64 c115 -48 157 -73 124 -73 -5 0 -73 -27 -150 -60 -78 -33 -146 -60 -151 -60
-6 0 -10 51 -10 131 l0 131 27 -6 c14 -4 86 -32 160 -63z"/>
<path d="M4180 6530 c0 -88 4 -160 9 -160 7 0 167 94 237 139 18 12 28 8 100
-37 44 -27 103 -62 132 -76 l52 -26 0 161 c0 145 -2 161 -16 155 -26 -10 -207
-117 -226 -133 -15 -13 -26 -9 -105 40 -86 53 -167 97 -178 97 -3 0 -5 -72 -5
-160z m137 68 c57 -35 103 -65 103 -68 -1 -5 -192 -122 -211 -128 -5 -2 -9 51
-9 127 0 72 3 131 7 131 4 0 54 -28 110 -62z m371 -133 l-3 -64 -107 62 c-59
34 -107 64 -107 67 -1 3 48 33 107 68 l107 62 3 -65 c2 -36 2 -94 0 -130z"/>
<path d="M3655 5718 c-3 -13 -4 -315 -3 -673 l3 -650 796 0 795 0 35 29 c95
80 287 254 392 356 126 122 192 209 203 266 10 55 -41 147 -139 250 -70 74
-298 282 -446 407 l-45 37 -793 0 -793 0 -5 -22z m1642 -45 c102 -83 315 -275
403 -363 88 -89 160 -196 160 -239 0 -78 -128 -226 -415 -479 l-200 -177 -785
0 -785 0 -3 590 c-2 325 0 618 3 653 l7 62 778 0 779 0 58 -47z"/>
<path d="M2731 5349 c-92 -86 -128 -126 -121 -134 5 -6 60 -42 120 -79 l111
-68 -120 -75 c-67 -41 -121 -78 -121 -82 0 -10 256 -241 267 -241 5 0 65 54
133 121 144 139 146 113 -12 211 -54 33 -98 63 -98 66 0 4 33 26 74 49 40 24
92 57 115 74 50 36 59 21 -100 170 l-118 110 -130 -122z m312 -70 l59 -55
-114 -69 c-62 -39 -118 -70 -123 -70 -6 0 -63 31 -128 70 l-118 70 68 60 c37
33 92 83 122 112 l54 52 61 -58 c34 -31 87 -82 119 -112z m-86 -280 c54 -34
108 -67 120 -75 21 -13 19 -16 -80 -111 -56 -53 -106 -103 -110 -110 -4 -7
-13 -13 -18 -13 -12 0 -239 209 -239 220 0 4 47 35 105 70 58 34 108 66 111
71 8 13 4 15 111 -52z"/>
<path d="M1000 5223 c-38 -14 -346 -147 -352 -152 -4 -4 79 -43 184 -88 l191
-81 46 27 c25 15 82 50 127 78 l81 51 119 -74 c65 -40 126 -74 135 -74 32 0
369 146 369 160 0 4 -8 10 -17 13 -10 3 -63 25 -118 49 -55 25 -131 57 -168
72 l-68 27 -32 -19 c-18 -11 -74 -45 -126 -77 -85 -53 -96 -57 -115 -44 -58
37 -232 139 -236 138 -3 0 -12 -3 -20 -6z m136 -80 c63 -38 113 -70 113 -73 1
-3 -50 -37 -113 -76 l-113 -71 -161 70 c-89 38 -162 72 -162 76 0 5 303 138
319 140 3 1 55 -29 117 -66z m571 -6 c84 -34 153 -65 153 -68 0 -6 -254 -115
-306 -132 -27 -8 -40 -3 -142 59 -103 63 -128 84 -102 84 5 0 56 29 112 64 57
36 110 63 118 60 8 -2 84 -33 167 -67z"/>
<path d="M6360 6045 l0 -265 200 0 200 0 0 30 0 30 -162 2 -163 3 -3 87 -3 87
148 3 148 3 0 30 0 30 -148 3 -148 3 3 77 3 77 158 3 158 3 -3 27 -3 27 -192
3 -193 2 0 -265z"/>
<path d="M6875 6042 c-52 -11 -75 -68 -51 -125 17 -41 42 -52 91 -38 30 8 35
7 35 -8 0 -49 -61 -79 -94 -46 -18 19 -36 19 -36 2 0 -36 67 -59 115 -41 48
19 68 169 29 220 -21 29 -55 43 -89 36z m55 -42 c11 -11 20 -30 20 -42 0 -45
-58 -76 -88 -46 -17 17 -15 68 5 90 21 23 38 23 63 -2z"/>
<path d="M930 3814 c-56 -50 -52 -66 10 -40 13 5 15 -6 12 -74 l-4 -80 26 0
26 0 0 115 c0 133 -5 138 -70 79z"/>
<path d="M3322 3830 c-12 -12 -22 -27 -22 -35 0 -20 29 -19 51 1 10 9 25 14
34 11 20 -8 19 -41 -2 -58 -24 -20 -93 -109 -93 -120 0 -6 33 -9 77 -7 65 3
78 6 81 21 3 14 -4 17 -37 17 -23 0 -41 3 -41 6 0 4 16 24 35 45 26 29 35 48
35 73 0 60 -72 88 -118 46z"/>
<path d="M5742 3834 c-12 -8 -22 -21 -22 -29 0 -23 20 -28 39 -11 22 20 51 21
51 1 0 -8 -9 -20 -20 -27 -23 -15 -27 -38 -5 -38 18 0 38 -37 31 -56 -7 -17
-30 -18 -55 -2 -10 6 -26 8 -36 4 -17 -6 -16 -8 5 -31 46 -49 130 -21 130 44
0 16 -7 34 -15 41 -11 9 -12 17 -5 30 34 64 -37 117 -98 74z"/>
<path d="M8170 3778 c-65 -92 -65 -104 0 -113 40 -6 50 -11 50 -26 0 -32 28
-21 47 18 12 27 14 38 5 41 -7 2 -12 24 -12 55 0 66 -9 97 -26 97 -7 0 -36
-32 -64 -72z m46 -43 c-5 -26 -12 -35 -26 -35 -26 0 -25 14 2 50 26 36 33 32
24 -15z"/>
<path d="M2670 2874 l0 -674 799 0 799 0 229 204 c361 322 433 428 373 545
-29 58 -106 149 -195 232 -122 114 -346 312 -380 335 -30 21 -38 21 -827 27
l-798 5 0 -674z m1623 623 c17 -13 77 -64 132 -113 297 -263 393 -364 437
-463 19 -41 19 -45 3 -88 -22 -56 -110 -166 -211 -263 -101 -96 -326 -297
-367 -327 l-31 -23 -783 0 -783 0 0 650 0 650 288 2 c158 2 511 2 785 1 l498
-1 32 -25z"/>
<path d="M3365 3164 c-123 -118 -152 -138 -286 -193 -149 -61 -219 -93 -219
-100 0 -8 17 -15 211 -98 l159 -66 125 -120 c69 -65 129 -117 135 -115 5 1 63
54 129 116 125 117 132 122 351 217 47 21 100 42 118 49 33 11 43 26 17 26 -8
0 -29 8 -47 18 -18 10 -96 45 -173 77 l-140 59 -126 118 c-70 65 -131 118
-135 118 -5 -1 -58 -48 -119 -106z m238 -22 l107 -107 -223 3 c-122 2 -222 4
-223 5 -2 3 221 206 226 206 3 1 54 -47 113 -107z m71 -141 c-16 -10 -65 -40
-110 -68 l-81 -50 -56 36 c-30 20 -78 50 -106 66 l-52 31 217 1 c210 1 215 1
188 -16z m343 -104 c29 -12 53 -24 53 -27 0 -5 -300 -130 -312 -130 -5 0 -8
61 -8 135 l0 134 108 -45 c59 -25 131 -55 159 -67z m-797 -31 l0 -133 -160 66
c-88 36 -160 68 -160 71 0 6 291 129 308 130 9 0 12 -33 12 -134z m129 72 c56
-34 101 -64 101 -67 -1 -7 -194 -131 -204 -131 -3 0 -6 59 -6 130 0 72 2 130
4 130 3 0 50 -28 105 -62z m381 -72 l0 -134 -72 47 c-40 27 -88 56 -106 65
-18 10 -32 22 -30 28 4 10 186 126 201 127 4 1 7 -59 7 -133z m-94 -101 c30
-19 54 -36 54 -37 0 -2 -61 -1 -137 1 -140 3 -283 -5 -283 -17 0 -4 100 -6
223 -4 l222 3 -113 -111 -112 -112 -98 90 c-118 109 -137 130 -128 139 4 4 55
37 113 74 l106 66 50 -29 c27 -16 73 -44 103 -63z"/>
<path d="M5138 3543 l-58 -4 0 -669 0 -670 801 0 802 0 74 68 c41 37 114 100
162 141 253 215 391 380 391 467 0 36 -56 132 -123 209 -65 74 -430 400 -487
433 l-45 27 -730 1 c-401 0 -756 -1 -787 -3z m1482 -19 c63 -8 96 -30 247
-164 356 -316 451 -438 412 -532 -37 -90 -170 -235 -369 -404 -58 -49 -133
-115 -167 -146 l-62 -58 -791 0 -790 0 0 649 c0 510 3 650 13 654 20 7 1451 8
1507 1z"/>
<path d="M6132 3024 c-12 -8 -69 -44 -128 -79 l-106 -65 -122 75 c-68 41 -126
75 -130 75 -18 0 13 -23 121 -91 67 -42 111 -75 103 -77 -21 -7 -192 -111
-212 -130 -47 -41 -6 -23 112 49 l130 79 125 -76 c70 -42 129 -74 132 -71 6 7
-117 88 -190 127 -26 14 -47 27 -47 30 1 3 43 29 94 59 102 59 154 96 145 105
-3 3 -15 -1 -27 -10z"/>
<path d="M7504 3541 c-2 -2 -4 -305 -4 -673 l0 -668 794 0 795 0 73 60 c199
163 462 417 516 498 72 108 45 203 -103 356 -75 78 -355 327 -437 389 l-50 37
-352 3 c-544 3 -1227 2 -1232 -2z m1613 -44 c47 -33 345 -296 431 -380 83 -82
143 -175 149 -231 7 -61 -29 -124 -136 -238 -90 -96 -361 -341 -438 -395 l-45
-33 -779 0 -779 0 0 649 c0 510 3 650 13 654 6 3 357 4 779 3 l766 -2 39 -27z"/>
<path d="M8180 3152 l-125 -118 -187 -79 c-103 -44 -188 -82 -188 -85 0 -3 33
-18 73 -34 270 -109 292 -122 428 -248 70 -65 130 -118 134 -118 3 0 58 50
123 112 125 119 134 124 399 239 57 24 103 46 103 49 0 6 -66 36 -205 95 -156
66 -173 76 -297 194 -65 61 -121 111 -125 111 -5 -1 -64 -54 -133 -118z m248
-9 c117 -107 132 -123 115 -123 -5 0 -59 -31 -120 -69 l-111 -69 -29 20 c-15
10 -66 42 -113 70 -47 27 -86 51 -88 52 -2 3 221 226 226 226 2 0 56 -48 120
-107z m-259 -198 c57 -36 108 -65 114 -65 19 0 -3 -16 -117 -85 l-110 -66
-163 68 c-89 37 -163 70 -163 73 0 6 309 138 325 139 6 1 57 -28 114 -64z
m568 -2 c145 -61 186 -83 152 -83 -6 0 -41 -13 -77 -29 -37 -16 -106 -45 -154
-66 l-87 -37 -93 57 c-51 32 -103 64 -116 72 -23 14 -21 16 90 83 62 38 115
70 118 70 3 0 78 -30 167 -67z m-307 -155 c66 -40 118 -75 117 -78 -1 -3 -54
-54 -118 -112 l-115 -106 -115 105 c-63 58 -115 108 -117 112 -1 3 45 34 103
69 57 34 107 67 110 72 3 6 9 10 11 10 3 0 59 -33 124 -72z"/>
<path d="M257 3263 c-9 -354 -9 -651 0 -881 l6 -182 793 0 793 0 95 83 c230
198 297 260 388 356 99 104 136 163 145 229 7 57 -51 147 -177 272 -98 98
-335 310 -417 373 l-36 27 -792 0 -792 0 -6 -277z m1647 210 c30 -27 97 -84
148 -128 164 -141 278 -249 317 -300 56 -74 91 -139 91 -166 0 -50 -49 -128
-141 -227 -91 -97 -419 -394 -463 -419 -16 -9 -207 -12 -797 -13 l-777 0 -3
438 c-2 240 -2 533 0 650 l3 212 784 0 783 0 55 -47z"/>
<path d="M805 3032 c-3 -3 -5 -77 -5 -164 l0 -158 270 0 270 0 0 159 0 158
-152 7 c-161 8 -374 6 -383 -2z m464 -26 c-8 -7 -56 -38 -108 -70 l-93 -57
-77 50 c-42 27 -88 55 -103 62 -16 7 -28 15 -28 18 0 3 95 7 212 8 171 1 208
-1 197 -11z m-277 -102 c27 -16 48 -31 48 -34 -1 -6 -191 -124 -207 -128 -10
-3 -13 27 -13 126 0 71 3 131 6 134 3 4 31 -11 62 -31 31 -20 78 -50 104 -67z
m328 -35 c0 -99 -3 -130 -12 -127 -18 4 -208 122 -208 128 0 8 194 129 208
129 9 1 12 -31 12 -130z m-139 -75 c60 -37 109 -67 109 -68 0 0 -97 -1 -214
-1 -118 0 -212 3 -207 7 8 9 194 127 200 128 2 0 53 -30 112 -66z"/>
<path d="M3329 1844 c-21 -22 -24 -35 -24 -94 0 -81 19 -110 71 -110 43 0 74
32 74 77 0 47 -32 77 -76 70 -37 -6 -39 -5 -24 24 11 20 45 26 55 9 9 -15 35
-12 35 3 0 21 -34 47 -62 47 -13 0 -35 -11 -49 -26z m77 -120 c8 -30 -6 -47
-32 -42 -35 6 -30 68 5 68 14 0 23 -9 27 -26z"/>
<path d="M5763 1862 c-38 -2 -53 -7 -53 -18 0 -10 13 -14 49 -14 l50 0 -29
-62 c-38 -83 -42 -122 -14 -126 18 -3 22 3 27 39 3 23 21 72 41 109 l35 68
-27 3 c-15 2 -51 3 -79 1z"/>
<path d="M8162 1858 c-20 -10 -23 -18 -21 -62 0 -28 -2 -63 -6 -78 -12 -44 16
-78 65 -78 30 0 43 6 59 26 25 31 26 52 6 80 -12 18 -12 27 -2 54 11 29 10 33
-12 51 -26 21 -54 23 -89 7z m64 -39 c8 -14 -21 -43 -35 -35 -6 4 -11 16 -11
27 0 21 34 27 46 8z m-1 -109 c0 -18 -6 -26 -23 -28 -13 -2 -25 3 -28 12 -10
26 4 48 28 44 17 -2 23 -10 23 -28z"/>
<path d="M906 1838 c-3 -13 -7 -40 -10 -61 -6 -42 -10 -41 61 -21 18 5 25 1
32 -17 5 -14 5 -31 -1 -41 -9 -19 -43 -24 -53 -8 -9 15 -45 12 -45 -3 0 -23
35 -47 66 -47 60 0 100 61 73 112 -16 30 -28 38 -61 38 -18 0 -28 5 -28 15 0
10 10 15 29 15 39 0 61 9 61 26 0 10 -15 14 -60 14 -54 0 -60 -2 -64 -22z"/>
<path d="M260 916 l0 -675 732 -3 c402 -2 761 -1 798 2 64 5 67 6 147 75 286
246 460 417 508 500 21 36 29 62 30 99 0 46 -6 59 -53 128 -53 76 -151 176
-287 293 -38 33 -111 97 -161 141 -50 45 -101 88 -115 95 -20 12 -165 15 -811
17 l-788 3 0 -675z m1562 645 c21 -5 58 -26 82 -47 24 -22 77 -68 118 -102
324 -281 438 -411 438 -499 0 -88 -197 -301 -558 -606 l-57 -47 -782 0 -783 0
0 655 0 655 753 0 c413 0 769 -4 789 -9z"/>
<path d="M790 910 c0 -88 4 -160 8 -160 11 0 212 118 234 137 15 13 29 8 136
-56 65 -39 126 -73 136 -77 14 -6 16 9 16 155 0 89 -2 161 -5 161 -13 0 -185
-99 -245 -141 -12 -8 -42 6 -136 65 -67 42 -126 76 -133 76 -8 0 -11 -46 -11
-160z m136 68 c57 -35 104 -65 104 -68 0 -3 -24 -18 -53 -34 -28 -16 -74 -44
-102 -63 -27 -18 -53 -33 -57 -33 -5 0 -8 59 -8 130 0 72 3 130 6 130 3 0 53
-28 110 -62z m374 -69 c0 -72 -4 -129 -8 -127 -24 10 -212 123 -212 128 0 6
201 129 213 130 4 0 7 -59 7 -131z"/>
<path d="M2670 914 l0 -674 799 0 799 0 143 128 c79 70 173 152 208 182 83 71
211 217 246 281 15 28 27 66 27 84 0 53 -49 131 -146 233 -86 89 -345 325
-437 397 l-44 34 -797 5 -798 5 0 -675z m1646 603 c137 -113 411 -366 461
-427 30 -36 66 -89 80 -118 25 -52 25 -53 8 -98 -38 -99 -227 -296 -538 -557
l-67 -57 -785 0 -785 0 0 650 0 649 133 3 c72 2 425 3 783 3 l651 0 59 -48z"/>
<path d="M3202 913 l3 -168 268 -2 267 -1 0 168 0 168 -270 2 -270 1 2 -168z
m209 100 l51 -36 36 22 c70 42 123 62 154 59 31 -3 28 -6 -57 -57 -50 -30 -97
-60 -106 -68 -14 -12 -29 -5 -115 48 -128 80 -131 83 -66 75 38 -5 67 -17 103
-43z m129 33 c0 -6 -69 -46 -78 -46 -4 1 -20 12 -37 25 l-30 25 73 0 c39 0 72
-2 72 -4z m-205 -68 c57 -34 102 -65 99 -69 -5 -8 -200 -129 -208 -129 -3 0
-6 11 -6 25 0 19 14 32 72 66 47 28 67 44 58 48 -28 11 -115 65 -122 76 -9 12
-10 45 -2 45 3 0 52 -28 109 -62z m383 40 c-3 -22 -99 -96 -125 -97 -19 -1
-16 -18 5 -24 9 -3 40 -19 67 -35 38 -21 51 -35 53 -55 2 -15 0 -27 -3 -27
-10 0 -215 124 -215 130 0 6 9 12 124 82 44 26 83 48 88 48 5 0 8 -10 6 -22z
m-437 -80 c22 -12 39 -24 39 -27 0 -3 -19 -16 -42 -29 -32 -17 -43 -19 -50
-10 -13 22 -7 88 9 88 3 0 23 -10 44 -22z m431 -25 c-2 -27 -6 -49 -7 -51 -4
-5 -85 42 -85 48 0 7 73 49 86 50 8 0 10 -16 6 -47z m-145 -75 c127 -80 129
-82 65 -74 -38 5 -67 17 -101 41 -27 19 -55 35 -62 35 -8 0 -39 -16 -68 -36
-38 -26 -69 -38 -100 -41 l-46 -4 24 18 c19 15 181 119 188 122 2 1 47 -27
100 -61z m-52 -43 l30 -24 -80 -1 -79 0 34 25 c44 31 58 31 95 0z"/>
<path d="M5087 1584 c-4 -4 -7 -308 -7 -676 l0 -668 803 0 802 1 65 60 c36 33
115 102 175 153 136 116 290 274 340 349 55 83 57 125 8 205 -62 104 -184 226
-476 475 -132 113 -32 102 -922 105 -430 1 -784 0 -788 -4z m1551 -23 c55 -11
77 -27 263 -193 312 -277 411 -403 385 -486 -26 -81 -168 -242 -344 -389 -62
-52 -146 -126 -187 -164 l-75 -69 -790 0 -790 0 0 650 0 649 63 4 c134 7 1434
6 1475 -2z"/>
<path d="M5794 1231 c-49 -47 -108 -103 -132 -124 -23 -21 -41 -41 -38 -46 3
-4 57 -39 120 -77 64 -38 116 -71 116 -74 -1 -3 -44 -31 -98 -63 -53 -32 -108
-66 -121 -76 l-24 -18 44 -39 c24 -21 83 -76 130 -121 47 -46 88 -83 92 -83 6
0 46 35 202 181 l71 66 -123 74 c-68 41 -123 76 -123 79 0 3 55 39 123 80
l122 75 -136 126 -135 127 -90 -87z m216 -55 c60 -60 109 -110 108 -111 -2 -1
-55 -34 -120 -73 l-116 -72 -59 38 c-32 21 -84 53 -116 71 -32 18 -57 37 -55
41 5 13 232 219 240 217 4 -1 57 -51 118 -111z m2 -354 c59 -37 107 -69 107
-72 0 -3 -53 -53 -116 -112 l-116 -107 -99 92 c-54 50 -110 99 -125 108 l-26
18 47 28 c26 15 80 49 119 75 40 25 79 44 87 42 8 -3 63 -35 122 -72z"/>
<path d="M7504 1581 c-2 -2 -4 -305 -4 -673 l0 -668 793 0 c759 0 793 1 821
19 26 18 136 113 335 294 114 103 225 228 252 283 59 122 -19 237 -360 535
-235 205 -234 205 -333 214 -84 7 -1496 4 -1504 -4z m1612 -43 c49 -35 307
-262 407 -357 43 -42 98 -105 123 -142 84 -122 70 -188 -73 -339 -86 -92 -397
-373 -457 -414 l-39 -26 -778 0 -779 0 0 649 c0 510 3 650 13 654 6 3 357 4
778 3 l766 -1 39 -27z"/>
<path d="M8075 1130 l-219 -220 221 -222 222 -222 223 222 223 222 -210 210
c-115 116 -217 215 -226 220 -12 7 -64 -40 -234 -210z m562 -297 l-78 -78 2
146 c1 81 -1 152 -5 158 -9 13 -28 4 -161 -79 l-98 -61 -36 25 c-78 53 -205
125 -213 120 -4 -3 -8 -73 -8 -156 l0 -152 -78 75 -78 74 206 211 205 210 210
-208 210 -208 -78 -77z m-434 124 l78 -49 -38 -20 c-21 -12 -61 -35 -88 -53
-28 -17 -61 -37 -73 -44 l-22 -12 0 131 0 131 33 -17 c17 -9 67 -39 110 -67z
m337 -48 c0 -72 -3 -129 -7 -127 -26 11 -212 124 -212 128 0 6 201 129 212
129 4 1 7 -58 7 -130z m-111 -88 l123 -74 -127 -127 -128 -128 -117 122 c-65
66 -119 125 -121 130 -4 8 230 157 242 153 3 -1 60 -35 128 -76z"/>
</g>
</svg>
