<?xml version="1.0" standalone="no"?>
<!DOCTYPE svg PUBLIC "-//W3C//DTD SVG 20010904//EN"
 "http://www.w3.org/TR/2001/REC-SVG-20010904/DTD/svg10.dtd">
<svg version="1.0" xmlns="http://www.w3.org/2000/svg"
 width="996.000000pt" height="922.000000pt" viewBox="0 0 996.000000 922.000000"
 preserveAspectRatio="xMidYMid meet">
<metadata>
Created by potrace 1.16, written by Peter Selinger 2001-2019
</metadata>
<g transform="translate(0.000000,922.000000) scale(0.100000,-0.100000)"
fill="#FFFFFF" stroke="none">
<path d="M257 8848 c-9 -196 -9 -4552 0 -4680 l6 -98 2939 0 2938 0 0 2465 0
2465 -2938 0 -2939 0 -6 -152z m5863 -2313 l0 -2445 -2918 0 -2919 0 -6 273
c-9 371 -9 4005 -1 4345 l7 272 2919 0 2918 0 0 -2445z"/>
<path d="M2360 7995 l0 -495 500 0 500 0 0 495 0 495 -500 0 -500 0 0 -495z
m260 240 c-124 -124 -226 -225 -227 -225 -2 0 -3 101 -3 225 l0 225 227 0 227
0 -224 -225z m715 215 c4 -6 3 -105 -1 -221 l-7 -211 -218 218 c-120 120 -221
216 -224 213 -5 -5 409 -423 434 -439 7 -4 -81 -98 -216 -233 -125 -124 -224
-229 -220 -233 4 -5 106 91 227 212 l220 220 1 -111 c1 -60 1 -162 2 -225 l0
-115 -231 0 -232 0 -235 235 -235 235 232 232 233 233 232 0 c147 0 234 -4
238 -10z m-707 -928 c-117 -1 -218 0 -225 2 -10 4 -13 57 -13 228 l0 223 225
-225 225 -225 -212 -3z"/>
<path d="M2469 8381 c-35 -36 -36 -41 -3 -80 29 -35 61 -40 92 -13 35 29 38
67 8 96 -33 34 -61 33 -97 -3z"/>
<path d="M3160 8390 c-41 -41 -12 -120 45 -120 29 0 75 40 75 65 0 24 -55 75
-79 75 -12 0 -30 -9 -41 -20z"/>
<path d="M3172 7723 c-20 -8 -44 -62 -37 -83 7 -23 52 -60 72 -60 20 0 73 55
73 75 0 9 -13 30 -29 46 -28 27 -50 34 -79 22z"/>
<path d="M2476 7709 c-34 -27 -35 -71 -1 -104 31 -32 46 -31 84 1 38 32 40 66
6 99 -30 30 -54 31 -89 4z"/>
<path d="M3957 8483 c-4 -3 -7 -226 -7 -495 l0 -488 495 0 495 0 0 495 0 495
-488 0 c-269 0 -492 -3 -495 -7z m253 -238 c-201 -201 -226 -223 -232 -203 -8
32 -9 161 -1 306 l6 122 226 0 226 0 -225 -225z m710 0 c0 -124 -3 -224 -7
-223 -5 0 -107 102 -228 225 l-220 223 228 0 227 0 0 -225z m-232 -26 l232
-235 0 -232 0 -232 -225 0 c-124 0 -225 3 -225 7 0 4 100 108 222 230 123 123
218 223 213 223 -6 0 -111 -101 -235 -225 l-224 -225 -231 230 -231 230 231
233 c126 129 232 233 235 233 3 -1 110 -107 238 -237z m-268 -691 c0 -5 -98
-8 -219 -8 l-219 0 -4 23 c-2 12 -2 114 0 226 l4 203 219 -218 c121 -120 219
-222 219 -226z"/>
<path d="M4375 8166 c-38 -17 -91 -73 -104 -109 -27 -70 -7 -140 58 -202 41
-39 43 -40 116 -40 84 0 110 13 159 83 24 33 30 52 29 90 -1 61 -32 122 -79
158 -43 33 -130 43 -179 20z m155 -28 c71 -49 102 -129 75 -195 -32 -75 -86
-113 -163 -113 -34 0 -59 7 -82 23 -41 27 -80 98 -80 144 0 62 51 133 110 156
38 14 108 6 140 -15z"/>
<path d="M891 8384 c-39 -32 -39 -57 -2 -95 36 -35 54 -36 86 -4 34 33 33 77
-1 104 -34 27 -46 26 -83 -5z"/>
<path d="M1588 8394 c-53 -28 -43 -99 18 -126 21 -10 28 -8 54 17 34 33 38 63
13 93 -25 28 -53 34 -85 16z"/>
<path d="M1215 8167 c-47 -22 -96 -68 -111 -104 -42 -100 20 -225 127 -253 69
-19 159 14 200 72 35 48 39 143 8 197 -45 80 -150 121 -224 88z m160 -41 c47
-36 65 -74 65 -136 0 -60 -18 -100 -60 -130 -75 -54 -165 -45 -224 20 -77 86
-51 209 56 264 47 24 118 16 163 -18z"/>
<path d="M885 7695 c-14 -13 -25 -31 -25 -39 0 -24 50 -76 74 -76 31 0 66 40
66 77 0 61 -70 84 -115 38z"/>
<path d="M1571 7694 c-12 -15 -21 -34 -21 -43 0 -24 52 -71 77 -71 27 0 63 44
63 76 0 60 -82 86 -119 38z"/>
<path d="M811 7000 c7 -14 83 -97 170 -185 l157 -160 -17 -25 c-10 -14 -23
-38 -28 -55 l-10 -30 -146 -3 c-197 -3 -195 -22 1 -22 l149 0 11 -38 c6 -20
18 -46 26 -57 14 -19 5 -30 -156 -192 -94 -95 -169 -175 -167 -178 3 -3 82 72
175 165 l169 170 49 -25 c27 -14 55 -25 63 -25 10 0 13 -31 13 -145 0 -90 4
-145 10 -145 6 0 10 54 10 143 l0 142 58 27 57 27 173 -172 c94 -94 172 -166
172 -159 0 7 -48 61 -108 120 -59 59 -134 135 -166 170 -55 57 -58 63 -43 80
8 9 19 33 24 52 l9 35 147 3 c195 3 196 22 2 22 -130 0 -146 2 -152 18 -3 9
-14 37 -26 61 l-20 43 167 167 c91 91 166 171 166 176 0 5 -78 -68 -174 -164
l-174 -174 -27 21 c-14 11 -39 24 -55 27 l-30 7 0 149 c0 93 -4 149 -10 149
-6 0 -10 -57 -10 -150 0 -119 -3 -150 -14 -150 -7 0 -33 -11 -58 -24 l-46 -24
-177 176 c-97 98 -171 166 -164 152z m459 -371 l0 -72 -49 44 c-27 24 -49 47
-50 51 -1 9 68 47 87 48 8 0 12 -21 12 -71z m97 44 l24 -16 -48 -49 c-26 -26
-43 -48 -37 -48 5 0 28 18 49 40 21 22 42 40 45 40 9 0 40 -67 40 -86 0 -12
-13 -14 -72 -12 l-73 3 -3 79 -3 78 27 -6 c14 -4 37 -14 51 -23z m-162 -83
l49 -50 -72 0 c-57 0 -72 3 -72 15 0 18 31 85 40 85 3 0 28 -22 55 -50z m35
-78 c0 -9 -83 -92 -92 -92 -6 0 -38 75 -38 90 0 6 29 10 65 10 36 0 65 -4 65
-8z m200 -12 c0 -12 -7 -35 -16 -51 l-15 -30 -47 42 c-26 23 -51 46 -56 51 -6
4 22 8 62 8 66 0 72 -2 72 -20z m-174 -127 c-5 -11 -12 -11 -43 2 -61 26 -61
31 -8 86 l50 50 3 -62 c2 -34 1 -68 -2 -76z m96 16 c-15 -9 -37 -20 -49 -24
-22 -6 -23 -4 -23 66 l0 73 50 -49 50 -49 -28 -17z"/>
<path d="M2380 7016 c0 -5 53 -63 117 -128 l117 -118 -119 -120 -120 -120 119
-119 119 -120 -116 -117 c-64 -65 -117 -122 -117 -128 0 -6 55 44 123 112
l122 122 115 -115 c63 -63 117 -115 121 -115 3 0 58 53 123 118 l116 117 120
-121 c65 -67 113 -109 105 -95 -7 14 -57 69 -109 121 -53 52 -96 99 -96 105 0
6 47 57 105 115 58 58 105 112 105 121 0 10 -49 66 -109 125 l-110 107 115
119 c62 66 114 124 114 130 0 6 -53 -45 -119 -113 l-118 -124 -109 107 c-59
59 -110 105 -113 102 -3 -2 42 -52 99 -109 l104 -105 -34 -37 c-19 -20 -69
-72 -110 -115 l-75 -79 -112 113 -112 113 120 123 c66 68 118 127 114 130 -3
3 -61 -49 -128 -116 l-122 -122 -122 122 c-68 68 -123 119 -123 114z m365
-376 l109 -110 -109 -110 c-61 -60 -112 -110 -115 -110 -3 0 -56 50 -117 111
l-110 110 111 109 c61 60 113 110 116 110 3 0 55 -49 115 -110z m470 0 l109
-109 -112 -113 -112 -113 -112 112 -113 113 110 110 c60 60 112 110 115 110 3
0 55 -49 115 -110z m-233 -456 c-59 -61 -110 -112 -113 -113 -3 0 -56 50 -117
112 l-111 112 112 113 112 112 112 -112 113 -112 -108 -112z"/>
<path d="M4200 6775 l-245 -244 245 -246 245 -246 245 246 245 245 -245 245
c-134 135 -245 245 -245 245 0 -1 -110 -111 -245 -245z m240 75 c0 -110 -2
-130 -15 -130 -55 0 -149 -85 -161 -145 l-6 -35 -129 0 c-71 0 -129 1 -129 3
0 4 434 437 438 437 1 0 2 -58 2 -130z m245 -90 l220 -220 -131 0 -131 0 -17
44 c-20 53 -90 121 -135 131 l-31 7 0 129 c0 71 1 129 3 129 1 0 101 -99 222
-220z m-245 -140 l0 -80 -80 0 c-70 0 -80 2 -80 18 1 36 45 96 89 119 69 36
71 34 71 -57z m76 64 c40 -19 94 -88 94 -121 0 -23 -2 -24 -72 -21 l-73 3 -3
78 c-3 85 -1 87 54 61z m-256 -179 c0 -27 38 -92 70 -118 17 -15 49 -32 70
-38 l40 -12 0 -129 c0 -70 -1 -128 -3 -128 -1 0 -101 99 -222 220 l-220 220
133 0 c112 0 132 -2 132 -15z m180 -65 l0 -80 -27 6 c-50 12 -91 44 -112 88
-32 65 -31 66 59 66 l80 0 0 -80z m180 70 c0 -40 -75 -121 -127 -138 l-33 -11
0 80 0 79 80 0 c49 0 80 -4 80 -10z m65 -210 l-220 -220 -3 122 c-1 67 -1 127
2 133 2 6 22 17 44 23 46 14 104 73 123 126 l13 36 130 0 131 0 -220 -220z"/>
<path d="M3655 5728 c-3 -7 -4 -310 -3 -673 l3 -660 795 0 795 0 30 23 c62 48
275 241 393 357 132 129 195 211 206 271 11 58 -38 146 -142 256 -86 89 -380
354 -456 410 l-39 28 -789 0 c-622 0 -790 -3 -793 -12z m1611 -30 c42 -32 243
-207 357 -311 142 -130 237 -258 237 -318 0 -76 -133 -229 -415 -478 l-200
-176 -785 0 -785 0 -3 620 c-1 341 0 635 3 653 l6 32 778 0 778 0 29 -22z"/>
<path d="M2368 5073 c-2 -269 -3 -489 -3 -490 0 -1 223 -3 495 -4 l495 -2 3
491 2 492 -495 0 -495 0 -2 -487z m970 -5 l2 -468 -27 0 c-119 -2 -888 2 -891
4 -1 2 10 17 26 33 24 24 36 28 64 25 29 -3 39 1 57 24 15 19 21 37 18 54 -5
21 15 46 134 170 l139 144 143 -139 c139 -137 142 -141 138 -178 -5 -48 19
-77 65 -77 36 0 74 37 74 72 0 44 -78 86 -106 58 -6 -6 -57 38 -149 130 -77
78 -142 143 -144 145 -2 2 61 66 139 142 131 127 145 138 175 135 39 -4 70 21
81 64 6 22 2 32 -20 51 -32 27 -63 29 -95 7 -20 -14 -23 -23 -18 -59 l4 -43
-141 -141 -142 -142 -146 147 c-143 144 -145 147 -134 176 10 27 8 32 -18 55
-23 20 -37 24 -63 20 -27 -5 -39 0 -65 23 -43 40 -50 28 -8 -15 26 -27 31 -37
21 -48 -13 -17 -6 -43 22 -74 22 -24 61 -31 73 -12 4 7 66 -48 155 -137 l149
-149 -142 -142 c-117 -117 -145 -140 -159 -132 -28 14 -44 11 -74 -17 -23 -21
-27 -31 -22 -61 6 -32 2 -41 -28 -75 l-35 -38 0 470 0 470 473 -2 472 -3 3
-467z"/>
<path d="M3280 5495 c-13 -14 -20 -28 -17 -32 6 -5 57 41 57 53 0 11 -19 2
-40 -21z"/>
<path d="M3260 4667 c0 -10 50 -60 55 -56 7 7 -33 59 -46 59 -5 0 -9 -2 -9 -3z"/>
<path d="M808 5534 c6 -11 24 -35 40 -52 19 -20 26 -35 21 -44 -15 -24 -9 -49
17 -73 34 -31 64 -32 92 -2 49 52 15 123 -55 114 -34 -4 -43 0 -82 37 -25 24
-39 32 -33 20z"/>
<path d="M1270 5318 l0 -233 -140 140 c-76 76 -142 136 -145 133 -4 -3 52 -64
124 -135 72 -71 131 -132 131 -136 0 -4 -101 -7 -225 -7 -143 0 -225 -4 -225
-10 0 -6 85 -10 234 -10 l233 0 -140 -139 c-117 -117 -143 -138 -157 -129 -46
29 -114 -38 -91 -88 8 -19 6 -28 -20 -55 -50 -54 -55 -77 -6 -30 40 38 52 44
89 45 39 1 45 5 60 35 12 23 14 40 8 51 -7 14 17 43 128 153 l137 136 5 -232
c3 -127 9 -225 13 -216 4 8 6 113 5 232 -2 119 0 217 3 217 4 0 65 -61 137
-136 120 -126 130 -139 125 -168 -7 -44 32 -81 79 -73 28 4 39 -1 77 -37 24
-22 39 -32 33 -21 -6 11 -22 31 -36 44 -22 21 -25 30 -20 63 6 32 3 43 -16 63
-25 27 -59 32 -78 13 -10 -10 -43 18 -155 130 l-142 142 233 0 c148 0 232 4
232 10 0 6 -83 10 -229 10 -127 0 -232 4 -235 8 -3 4 -6 110 -7 235 -2 125 -7
227 -11 227 -4 0 -8 -105 -8 -232z"/>
<path d="M1713 5510 c-30 -35 -36 -38 -73 -33 -33 5 -45 2 -65 -17 -26 -24
-32 -59 -15 -76 7 -7 -34 -55 -127 -147 -76 -75 -134 -139 -130 -143 4 -5 67
51 140 124 129 129 133 131 168 126 31 -5 39 -2 58 22 17 21 21 37 18 61 -4
21 -1 36 9 44 20 16 57 69 52 74 -2 2 -18 -14 -35 -35z"/>
<path d="M6360 6045 l0 -265 200 0 200 0 0 30 0 30 -162 2 -163 3 -3 87 -3 87
148 3 148 3 0 30 0 30 -148 3 -148 3 3 77 3 77 158 3 158 3 -3 27 -3 27 -192
3 -193 2 0 -265z"/>
<path d="M6876 6007 c-50 -44 -53 -66 -5 -41 l29 15 0 -101 c0 -93 1 -100 20
-100 18 0 19 7 19 130 -1 72 -4 132 -8 134 -4 3 -28 -14 -55 -37z"/>
<path d="M7049 6021 c-22 -18 -24 -27 -24 -109 0 -74 3 -94 19 -111 28 -31 88
-29 115 5 39 50 39 171 0 213 -25 27 -79 28 -110 2z m88 -27 c21 -33 23 -121
4 -157 -19 -36 -41 -42 -65 -17 -29 29 -30 148 -2 179 25 28 42 26 63 -5z"/>
<path d="M8228 3849 c-21 -12 -108 -142 -108 -162 0 -15 28 -27 67 -27 13 0
24 -8 28 -20 10 -31 32 -24 52 17 12 27 14 38 5 41 -7 2 -12 27 -13 65 -1 78
-8 99 -31 86z m-12 -114 c-5 -26 -12 -35 -26 -35 -26 0 -25 14 2 50 26 36 33
32 24 -15z"/>
<path d="M930 3814 c-22 -20 -40 -40 -40 -45 0 -13 34 -11 48 3 9 9 12 -6 12
-70 0 -81 0 -82 25 -82 l25 0 0 115 c0 133 -5 138 -70 79z"/>
<path d="M3322 3830 c-12 -11 -22 -27 -22 -35 0 -20 29 -19 51 1 10 9 25 14
34 11 20 -8 19 -41 -2 -58 -31 -26 -93 -111 -87 -120 3 -5 39 -9 80 -9 67 0
74 2 74 20 0 17 -7 20 -40 20 -22 0 -40 4 -40 8 0 5 13 21 29 36 16 16 35 42
42 58 10 25 9 33 -8 56 -26 36 -79 41 -111 12z"/>
<path d="M5742 3834 c-12 -8 -22 -21 -22 -29 0 -23 20 -28 39 -11 10 9 23 16
29 16 23 0 22 -21 -3 -44 l-26 -24 28 -14 c19 -9 28 -21 28 -38 0 -31 -29 -39
-55 -15 -20 18 -40 13 -40 -9 0 -22 35 -46 68 -46 61 0 94 69 55 112 -13 14
-14 21 -5 30 31 31 -4 88 -53 88 -11 0 -31 -7 -43 -16z"/>
<path d="M379 3543 l-116 -4 -6 -121 c-9 -156 -9 -959 0 -1105 l6 -113 793 0
793 0 90 78 c305 261 473 428 511 507 38 78 37 111 -7 184 -21 36 -63 92 -94
125 -53 57 -94 95 -373 340 -59 53 -118 98 -130 100 -26 6 -1310 13 -1467 9z
m1486 -37 c13 -9 53 -42 87 -74 35 -32 95 -84 133 -117 123 -103 234 -208 279
-265 58 -75 96 -142 96 -171 0 -70 -117 -221 -288 -372 -224 -200 -284 -252
-309 -268 -27 -18 -68 -19 -804 -19 l-776 0 -6 152 c-9 195 -9 767 0 981 l6
166 111 4 c61 2 411 3 778 1 596 -1 670 -3 693 -18z"/>
<path d="M580 2870 l0 -490 490 0 490 0 0 490 0 490 -490 0 -490 0 0 -490z
m960 0 l0 -470 -470 0 -470 0 0 470 0 470 470 0 470 0 0 -470z"/>
<path d="M682 3264 c-29 -20 -30 -72 -2 -102 34 -36 82 -25 108 25 17 31 15
41 -13 68 -28 29 -61 32 -93 9z"/>
<path d="M1366 3259 c-33 -26 -33 -49 0 -88 31 -37 62 -40 92 -8 64 68 -18
154 -92 96z"/>
<path d="M1035 3051 c-45 -11 -68 -26 -107 -69 -64 -71 -58 -172 15 -245 43
-43 73 -57 123 -57 71 0 140 44 175 112 24 47 24 91 0 144 -20 43 -94 114
-120 114 -9 0 -25 2 -36 4 -11 3 -33 1 -50 -3z m118 -38 c41 -20 87 -98 87
-145 0 -147 -193 -222 -289 -113 -89 102 -47 234 89 276 30 9 74 2 113 -18z"/>
<path d="M682 2577 c-28 -30 -28 -68 1 -95 29 -28 57 -28 91 -1 31 25 33 57 5
93 -26 33 -68 34 -97 3z"/>
<path d="M1366 2574 c-31 -32 -33 -53 -5 -88 31 -40 83 -37 109 7 25 40 25 39
-6 76 -32 38 -63 40 -98 5z"/>
<path d="M2670 2873 l0 -673 800 0 799 0 228 204 c361 323 433 428 373 545
-29 59 -106 150 -195 232 -123 114 -336 302 -375 331 l-35 26 -797 4 -798 3 0
-672z m1621 626 c19 -15 102 -86 184 -160 267 -237 360 -340 392 -432 12 -34
11 -43 -7 -84 -26 -58 -106 -157 -207 -253 -99 -95 -325 -297 -366 -327 l-31
-23 -783 0 -783 0 0 650 0 649 98 4 c53 2 406 3 783 3 l686 -1 34 -26z"/>
<path d="M2990 2870 l0 -490 495 0 495 0 0 490 0 490 -495 0 -495 0 0 -490z
m490 240 l0 -230 -235 0 -235 0 0 230 0 230 235 0 235 0 0 -230z m480 0 l0
-230 -230 0 -230 0 0 230 0 230 230 0 230 0 0 -230z m-480 -480 l0 -230 -235
0 -235 0 0 230 0 230 235 0 235 0 0 -230z m480 0 l0 -230 -230 0 -230 0 0 230
0 230 230 0 230 0 0 -230z"/>
<path d="M5084 3541 c-2 -2 -4 -305 -4 -673 l0 -668 801 0 802 0 75 68 c41 37
113 100 161 141 261 225 391 380 391 466 0 64 -88 185 -228 313 -202 186 -338
304 -380 329 l-43 25 -785 2 c-432 0 -788 -1 -790 -3z m1601 -33 c31 -18 71
-51 266 -224 224 -199 339 -339 339 -414 0 -14 -16 -53 -35 -85 -68 -112 -115
-159 -470 -469 l-109 -96 -788 0 -788 0 0 650 0 650 303 3 c166 1 516 3 777 2
429 0 478 -2 505 -17z"/>
<path d="M5400 2870 l0 -490 500 0 500 0 0 490 0 490 -500 0 -500 0 0 -490z
m490 240 l0 -230 -232 2 -233 3 -3 215 c-1 118 0 220 2 227 4 10 58 13 236 13
l230 0 0 -230z m490 152 c0 -44 -3 -147 -7 -231 l-6 -151 -226 2 -226 3 -3
228 -2 227 235 0 235 0 0 -78z m-490 -632 l0 -230 -235 0 -235 0 0 230 0 230
235 0 235 0 0 -230z m483 73 c4 -87 7 -191 7 -230 l0 -73 -235 0 -235 0 0 230
0 230 228 0 229 0 6 -157z"/>
<path d="M5508 3261 c-29 -26 -31 -32 -23 -56 6 -16 23 -37 38 -49 26 -19 30
-19 55 -5 33 18 56 62 47 89 -6 19 -52 50 -74 50 -6 0 -25 -13 -43 -29z"/>
<path d="M6214 3280 c-11 -4 -27 -22 -34 -39 -11 -26 -10 -35 4 -56 26 -40 60
-51 90 -31 35 22 48 50 37 78 -16 42 -59 63 -97 48z"/>
<path d="M5510 2580 c-27 -27 -26 -71 3 -98 29 -27 57 -28 85 -2 34 32 38 67
11 96 -28 30 -71 32 -99 4z"/>
<path d="M6192 2580 c-12 -12 -22 -29 -22 -40 0 -28 48 -80 75 -80 25 0 75 51
75 76 0 8 -11 26 -25 39 -30 31 -73 32 -103 5z"/>
<path d="M7500 2874 l0 -674 793 0 794 0 41 30 c23 16 72 58 109 92 37 35 88
81 113 102 94 80 302 293 332 339 61 94 45 172 -59 301 -49 59 -419 393 -496
446 l-42 30 -792 4 -793 4 0 -674z m1647 599 c213 -172 441 -388 499 -474 85
-124 70 -186 -85 -351 -80 -85 -342 -323 -435 -395 l-41 -32 -782 -1 -783 0 0
650 0 650 785 0 784 0 58 -47z"/>
<path d="M7840 3346 c0 -5 16 -28 35 -52 22 -26 33 -48 29 -58 -19 -49 47
-112 89 -86 18 11 28 3 100 -69 l81 -80 -22 -39 c-30 -54 -29 -124 2 -179 l24
-42 -79 -75 c-72 -68 -82 -74 -112 -69 -57 9 -107 -50 -79 -95 6 -8 -5 -27
-30 -53 -49 -52 -41 -65 10 -16 33 32 42 36 73 31 31 -5 39 -2 58 22 16 20 21
39 19 61 -4 29 4 40 74 110 72 71 79 76 95 61 27 -24 90 -41 126 -34 18 3 50
15 71 27 l39 21 78 -78 c70 -69 77 -80 72 -108 -3 -22 1 -39 17 -59 22 -28 63
-37 76 -16 4 7 25 -8 55 -37 59 -58 63 -53 10 12 -31 37 -38 51 -30 65 14 27
11 43 -12 68 -18 19 -29 22 -63 18 -40 -6 -43 -5 -117 70 l-77 75 24 42 c31
54 31 118 0 172 l-24 42 82 81 c62 62 84 78 96 71 25 -16 40 -12 72 20 25 26
29 36 24 63 -5 27 -2 38 20 58 41 38 53 70 13 34 -19 -16 -37 -34 -40 -39 -4
-5 -22 -6 -41 -2 -27 5 -41 2 -63 -15 -24 -19 -27 -27 -22 -61 5 -38 2 -42
-73 -120 l-77 -81 -32 24 c-46 34 -146 34 -191 1 l-32 -24 -82 81 c-57 55 -80
84 -75 93 19 29 9 66 -22 89 -29 21 -34 21 -58 8 -25 -15 -27 -14 -68 30 -23
26 -42 42 -43 37z m550 -327 l45 -20 -60 -58 -60 -57 -57 55 c-32 30 -54 58
-50 62 41 41 115 48 182 18z m-141 -96 l53 -56 -57 -54 c-32 -29 -59 -52 -60
-51 -17 21 -35 76 -35 108 0 40 25 110 39 110 4 0 31 -25 60 -57z m217 11 c8
-18 14 -49 14 -68 0 -34 -27 -106 -40 -106 -3 0 -30 25 -60 55 l-54 55 54 55
c29 30 58 51 63 48 5 -3 15 -20 23 -39z m-46 -190 c0 -10 -85 -44 -110 -44
-14 0 -45 9 -69 21 l-45 20 60 60 59 60 53 -56 c28 -30 52 -57 52 -61z"/>
<path d="M3334 1847 c-23 -20 -28 -34 -31 -83 -5 -80 20 -124 71 -124 45 0 76
32 76 77 0 47 -32 77 -76 70 -37 -6 -39 -5 -24 24 13 23 39 25 55 2 14 -19 35
-9 35 17 0 42 -65 52 -106 17z m71 -116 c9 -29 -5 -52 -29 -49 -37 5 -34 68 3
68 11 0 22 -8 26 -19z"/>
<path d="M5738 1863 c-16 -2 -28 -11 -28 -19 0 -10 13 -14 49 -14 l50 0 -29
-62 c-39 -84 -42 -122 -12 -126 18 -3 22 1 22 21 0 35 24 99 56 146 15 23 25
43 23 45 -7 7 -102 13 -131 9z"/>
<path d="M8162 1854 c-18 -13 -22 -24 -21 -62 0 -26 -3 -62 -6 -80 -10 -45 15
-72 66 -72 29 0 42 6 58 26 25 32 26 40 6 78 -11 20 -12 33 -5 40 17 17 11 54
-12 70 -29 20 -58 20 -86 0z m64 -35 c8 -14 -21 -43 -35 -35 -6 4 -11 16 -11
27 0 21 34 27 46 8z m2 -108 c4 -29 -15 -43 -40 -30 -18 10 -24 39 -11 53 15
15 48 1 51 -23z"/>
<path d="M905 1823 c-3 -21 -8 -49 -11 -62 -5 -21 -3 -23 23 -16 48 13 65 11
73 -11 6 -15 3 -29 -7 -43 -14 -21 -16 -21 -39 -7 -46 31 -75 9 -36 -27 23
-21 71 -22 99 -2 27 19 38 67 22 97 -16 30 -28 38 -61 38 -48 0 -35 28 14 32
31 2 44 8 46 21 3 15 -5 17 -57 17 l-60 0 -6 -37z"/>
<path d="M255 1415 c-4 -93 -5 -395 -3 -670 l3 -500 797 -3 797 -2 69 57 c125
106 246 217 377 348 134 134 172 189 182 263 9 74 -106 223 -308 398 -51 43
-139 121 -196 172 -58 50 -115 94 -127 97 -11 3 -373 6 -803 8 l-781 2 -7
-170z m1176 145 l418 0 55 -47 c30 -27 97 -84 148 -128 240 -206 341 -312 392
-412 22 -43 20 -69 -8 -129 -40 -85 -271 -317 -540 -542 l-51 -42 -782 0 -783
0 0 650 0 650 308 3 c169 2 334 2 366 0 32 -2 247 -3 477 -3z"/>
<path d="M560 910 l0 -490 495 0 495 0 0 490 0 490 -495 0 -495 0 0 -490z
m921 439 c-29 -26 -39 -30 -68 -24 -27 5 -38 1 -59 -20 -22 -22 -25 -33 -21
-61 6 -34 1 -40 -111 -156 -64 -66 -130 -129 -145 -140 l-29 -21 -139 139
c-76 76 -141 136 -144 133 -3 -3 59 -69 138 -147 l142 -142 -140 -138 c-137
-136 -141 -139 -178 -134 -45 5 -87 -26 -87 -65 0 -31 42 -73 74 -73 35 0 69
46 64 87 -4 30 6 43 137 173 l141 141 138 -141 c76 -77 141 -138 144 -135 3 3
-57 69 -133 145 l-140 140 147 147 c125 124 149 145 162 134 37 -31 100 30 92
89 -5 31 -1 38 29 63 l35 29 0 -461 c0 -254 -3 -461 -7 -460 -5 0 -23 18 -40
38 -30 35 -32 40 -21 69 11 28 10 34 -12 57 -42 45 -120 21 -120 -39 0 -51 73
-101 96 -65 6 11 74 -46 74 -63 0 -4 -207 -8 -460 -8 l-460 0 0 470 0 470 467
0 467 0 -33 -31z"/>
<path d="M600 1367 c0 -5 11 -23 25 -41 15 -20 23 -40 19 -50 -12 -30 6 -66
40 -82 31 -15 35 -15 60 1 49 32 48 89 -2 118 -29 17 -35 17 -54 5 -20 -13
-24 -11 -54 21 -19 20 -34 32 -34 28z"/>
<path d="M625 490 c-16 -17 -24 -30 -19 -30 13 0 59 48 52 55 -2 3 -17 -9 -33
-25z"/>
<path d="M2713 1583 l-43 -4 0 -670 0 -669 800 0 799 0 228 204 c125 112 248
227 272 256 63 75 109 146 121 188 23 85 -83 220 -385 488 -84 74 -173 150
-198 170 l-45 35 -753 4 c-415 2 -773 1 -796 -2z m1578 -44 c19 -15 79 -66
134 -115 297 -263 393 -364 437 -463 19 -41 19 -45 3 -88 -37 -97 -231 -298
-538 -556 l-67 -57 -785 0 -785 0 0 650 0 649 148 3 c81 2 433 3 783 3 l636 0
34 -26z"/>
<path d="M2980 910 l0 -490 490 0 490 0 0 490 0 490 -490 0 -490 0 0 -490z
m480 250 c0 -121 -1 -220 -3 -220 -1 0 -101 99 -222 220 l-220 220 223 0 222
0 0 -220z m460 217 c0 -1 -99 -101 -220 -222 l-220 -220 0 223 0 222 220 0
c121 0 220 -1 220 -3z m-695 -235 l220 -222 -223 0 -222 0 0 227 c0 124 1 224
3 222 1 -3 101 -105 222 -227z m715 -2 l0 -220 -220 0 c-121 0 -220 1 -220 3
0 3 434 437 437 437 2 0 3 -99 3 -220z m-500 -243 c0 -1 -99 -101 -220 -222
l-220 -220 0 223 0 222 220 0 c121 0 220 -1 220 -3z m500 -220 l0 -223 -220
220 c-121 122 -220 222 -220 223 0 2 99 3 220 3 l220 0 0 -223z m-480 -17 l0
-220 -220 0 c-121 0 -220 1 -220 3 0 4 434 437 438 437 1 0 2 -99 2 -220z
m245 0 l220 -220 -223 0 -222 0 0 220 c0 121 1 220 3 220 1 0 101 -99 222
-220z"/>
<path d="M5133 1583 l-53 -4 0 -670 0 -669 803 0 803 0 90 83 c49 45 130 117
179 158 136 115 244 226 300 308 44 64 50 79 50 125 0 57 -31 112 -122 216
-63 72 -427 395 -478 425 l-40 23 -740 5 c-407 2 -764 2 -792 0z m1550 -32
c32 -13 367 -312 468 -419 87 -91 139 -174 139 -222 0 -72 -148 -250 -346
-416 -63 -53 -148 -127 -189 -165 l-75 -69 -790 0 -790 0 0 650 0 649 98 4
c175 8 1462 -3 1485 -12z"/>
<path d="M5390 910 l0 -490 495 0 495 0 0 490 0 490 -495 0 -495 0 0 -490z
m84 361 c-10 -50 46 -102 87 -80 18 9 25 7 47 -15 l26 -26 -104 -108 c-58 -60
-108 -110 -112 -111 -5 0 -8 100 -8 224 l0 225 35 -39 c30 -32 34 -43 29 -70z
m281 -1 l-110 -111 -23 28 c-16 20 -21 36 -16 56 4 18 0 37 -10 52 -13 20 -25
25 -61 25 -32 0 -51 6 -69 24 -15 13 -26 26 -26 30 0 3 96 6 212 6 l213 0
-110 -110z m556 76 c-29 -29 -38 -34 -67 -29 -76 12 -117 -70 -58 -116 35 -27
59 -26 89 4 26 25 33 63 15 81 -7 7 3 23 30 49 l40 39 0 -224 0 -225 -111 111
-112 112 22 23 c27 29 18 39 -12 11 l-22 -21 -111 109 -111 110 221 0 220 0
-33 -34z m-431 -110 l0 -123 -59 -29 -59 -30 -51 46 -50 45 107 108 c58 59
108 107 109 107 2 0 3 -56 3 -124z m181 -140 l-49 -49 -29 21 c-16 11 -41 24
-56 27 l-27 7 0 131 0 131 105 -110 105 -109 -49 -49z m-339 -98 c-11 -24 -23
-51 -26 -60 -5 -16 -20 -18 -133 -18 l-127 0 105 108 104 108 49 -47 49 -48
-21 -43z m514 25 l108 -103 -132 0 -132 0 -10 28 c-6 15 -17 39 -25 54 -8 14
-15 29 -15 32 0 11 83 97 90 94 4 -2 56 -49 116 -105z m-356 -13 c0 -38 -1
-70 -3 -70 -2 0 -25 20 -51 45 -52 48 -52 59 -2 81 53 23 56 20 56 -56z m78
50 c17 -11 32 -23 32 -28 0 -4 -20 -28 -45 -52 l-45 -44 0 72 c0 80 5 84 58
52z m-143 -90 l49 -50 -72 0 c-66 0 -72 2 -72 21 0 21 29 79 40 79 3 0 28 -22
55 -50z m221 4 c22 -52 19 -54 -51 -54 -36 0 -65 3 -65 7 0 14 84 92 93 86 5
-3 15 -20 23 -39z m-336 -91 c0 -10 11 -37 24 -60 l24 -41 -49 -48 -49 -49
-108 108 -107 107 133 0 c119 0 132 -2 132 -17z m115 -33 c-26 -27 -53 -47
-58 -43 -10 6 -37 66 -37 83 0 6 29 10 72 10 l72 0 -49 -50z m235 33 c0 -10
-9 -33 -20 -51 l-21 -34 -44 48 c-25 26 -45 49 -45 51 0 2 29 3 65 3 55 0 65
-3 65 -17z m294 11 c14 -5 16 -35 16 -224 0 -189 -2 -219 -16 -224 -23 -9
-436 -7 -432 2 2 4 51 53 109 110 101 98 106 102 122 84 10 -11 17 -35 17 -57
0 -76 68 -110 115 -59 32 34 32 64 0 94 -20 19 -31 22 -63 16 -31 -5 -43 -2
-57 14 -10 11 -15 23 -11 28 3 4 50 51 103 104 54 53 94 100 91 104 -4 3 -53
-39 -110 -94 l-103 -100 -52 47 -52 46 19 23 c11 13 22 39 26 58 l6 34 128 0
c71 0 135 -3 144 -6z m-690 -452 c-114 -1 -209 0 -213 3 -3 3 11 21 31 39 23
22 40 30 46 24 31 -31 113 43 92 83 -8 14 -6 23 11 40 24 24 17 39 -8 17 -11
-10 -29 -14 -48 -11 -47 7 -82 -11 -90 -47 -4 -19 -2 -36 5 -45 10 -12 6 -22
-21 -54 -19 -22 -37 -40 -41 -40 -5 -1 -8 99 -8 221 l0 223 225 -225 225 -225
-206 -3z m222 312 c-6 -16 -62 -2 -85 21 -14 14 -10 20 34 64 l50 49 3 -60 c2
-34 1 -67 -2 -74z m96 15 c-15 -9 -37 -20 -49 -24 -22 -6 -23 -4 -23 66 l0 73
50 -49 50 -49 -28 -17z m-168 -24 c27 -14 55 -25 63 -25 10 0 13 -29 13 -132
l0 -133 -110 110 -110 109 47 48 c26 27 47 48 48 48 0 0 22 -11 49 -25z m259
-23 l47 -48 -105 -104 -105 -105 0 128 0 127 28 10 c15 5 38 16 52 24 35 20
31 21 83 -32z"/>
<path d="M6280 513 c0 -13 50 -56 57 -49 4 3 -4 17 -17 31 -23 25 -40 32 -40
18z"/>
<path d="M7505 1582 c-3 -3 -5 -306 -5 -674 l0 -668 794 0 794 0 49 37 c26 20
89 74 138 119 50 45 126 114 170 154 108 96 229 231 254 284 59 122 -6 224
-320 502 -268 237 -272 240 -358 248 -81 8 -1508 6 -1516 -2z m1611 -44 c49
-35 307 -262 407 -357 43 -42 98 -105 123 -142 84 -122 70 -185 -72 -338 -74
-79 -377 -355 -455 -414 l-36 -27 -781 0 -782 0 0 649 c0 510 3 650 13 655 6
2 357 4 778 3 l766 -2 39 -27z"/>
<path d="M8280 1386 c0 -8 -3 -16 -7 -18 -5 -2 -109 -106 -233 -231 l-224
-227 229 -230 c127 -127 231 -237 233 -245 2 -8 7 -15 10 -15 4 0 117 110 252
245 l245 245 -240 243 c-132 134 -246 245 -252 245 -7 1 -13 -4 -13 -12z m10
-154 l0 -129 -40 -12 c-55 -16 -115 -76 -129 -128 l-12 -43 -132 0 -132 0 220
220 c121 121 221 220 223 220 1 0 2 -58 2 -128z m248 -97 l217 -215 -133 0
c-97 0 -134 3 -136 13 -3 6 -7 24 -10 39 -10 44 -63 96 -117 115 l-49 18 0
122 c0 68 3 123 6 123 3 0 103 -97 222 -215z m-248 -135 l0 -80 -73 0 c-41 0
-76 3 -79 6 -11 11 12 68 38 95 27 28 79 58 102 59 8 0 12 -23 12 -80z m73 66
c46 -20 87 -67 94 -110 l6 -37 -74 3 -74 3 -3 78 c-3 84 -1 86 51 63z m-247
-183 c28 -88 79 -144 145 -158 l29 -7 0 -131 0 -132 -215 215 c-118 118 -215
218 -215 222 0 5 56 8 125 8 111 0 126 -2 131 -17z m174 -64 c0 -79 0 -80 -22
-74 -67 20 -128 83 -128 131 0 23 3 24 75 24 l75 0 0 -81z m174 54 c-14 -56
-68 -108 -131 -128 -23 -6 -23 -5 -23 74 l0 81 80 0 80 0 -6 -27z m267 10 c-9
-16 -311 -317 -388 -387 l-33 -30 0 125 0 125 55 23 c63 26 100 65 115 121
l11 40 125 0 c116 0 124 -1 115 -17z"/>
</g>
</svg>
