<?xml version="1.0" standalone="no"?>
<!DOCTYPE svg PUBLIC "-//W3C//DTD SVG 20010904//EN"
 "http://www.w3.org/TR/2001/REC-SVG-20010904/DTD/svg10.dtd">
<svg version="1.0" xmlns="http://www.w3.org/2000/svg"
 width="996.000000pt" height="922.000000pt" viewBox="0 0 996.000000 922.000000"
 preserveAspectRatio="xMidYMid meet">
<metadata>
Created by potrace 1.16, written by Peter Selinger 2001-2019
</metadata>
<g transform="translate(0.000000,922.000000) scale(0.100000,-0.100000)"
fill="#FFFFFF" stroke="none">
<path d="M256 8798 c-8 -261 -8 -4455 1 -4610 l6 -118 2939 0 2938 0 0 2465 0
2465 -2938 0 -2939 0 -7 -202z m5864 -2263 l0 -2445 -2920 0 -2920 0 0 2445 0
2445 2920 0 2920 0 0 -2445z"/>
<path d="M770 8011 c0 -176 -3 -326 -6 -335 -6 -14 43 -16 512 -15 295 1 500
5 474 10 -25 4 -251 8 -502 8 l-458 1 0 325 c0 210 -4 325 -10 325 -6 0 -10
-113 -10 -319z"/>
<path d="M2351 8023 c1 -170 5 -321 9 -338 6 -22 17 499 13 603 -1 6 0 12 1
12 4 0 281 -181 359 -234 50 -35 67 -52 67 -69 0 -13 11 -34 25 -47 23 -22 29
-23 57 -12 31 11 37 8 232 -120 111 -72 211 -137 224 -146 12 -8 22 -10 22 -4
0 5 -99 74 -219 153 -210 138 -219 145 -223 179 -4 47 -44 71 -82 50 -24 -12
-30 -11 -78 22 -29 19 -120 80 -203 134 l-150 99 483 3 c310 1 482 6 482 12 0
7 -180 10 -510 10 l-510 0 1 -307z"/>
<path d="M3930 8326 c0 -2 101 -70 224 -151 182 -120 225 -152 229 -173 7 -32
42 -72 63 -72 9 0 29 14 45 31 32 35 28 56 -17 85 -21 14 -29 15 -49 4 -27
-15 -15 -21 -257 137 -86 56 -159 107 -163 113 -4 7 148 10 474 10 319 0 481
3 481 10 0 7 -173 10 -515 10 -283 0 -515 -2 -515 -4z"/>
<path d="M1239 8031 c-35 -36 -36 -41 -4 -75 29 -31 58 -33 85 -6 26 26 25 51
-1 84 -26 33 -44 33 -80 -3z"/>
<path d="M4504 7951 c3 -5 94 -67 202 -137 l196 -129 -487 -3 c-318 -1 -484
-6 -480 -12 9 -14 1025 -14 1025 0 0 6 -4 10 -9 10 -5 0 -36 18 -68 39 -167
113 -366 241 -375 241 -5 0 -7 -4 -4 -9z"/>
<path d="M1610 6760 c-305 -201 -283 -189 -309 -172 -20 14 -25 13 -49 -5 -17
-12 -28 -31 -30 -50 -2 -22 -14 -36 -45 -56 -253 -164 -417 -273 -417 -279 0
-4 232 -7 516 -8 l515 0 -3 340 c-2 187 -5 340 -8 339 -3 0 -79 -49 -170 -109z
m152 -240 l3 -305 -468 -1 c-257 -1 -467 2 -467 6 0 4 91 66 201 139 189 123
203 131 219 116 14 -12 23 -14 37 -7 28 15 51 45 55 70 2 18 50 55 207 158
112 74 205 133 207 131 1 -1 4 -139 6 -307z"/>
<path d="M2350 6530 l0 -342 515 3 c283 2 515 6 514 9 0 3 -103 72 -230 154
-205 133 -229 152 -229 176 0 24 23 42 210 164 190 125 265 181 219 164 -8 -3
-111 -69 -228 -147 -200 -132 -214 -139 -235 -126 -18 12 -25 12 -48 1 -26
-14 -32 -11 -135 58 -156 103 -336 220 -345 224 -4 2 -8 -150 -8 -338z m244
164 c185 -123 206 -140 206 -164 0 -25 -21 -41 -207 -163 -173 -113 -209 -133
-215 -119 -10 27 -9 582 1 582 5 0 102 -61 215 -136z m288 -220 c16 12 26 13
42 4 23 -12 377 -246 388 -257 4 -3 -200 -6 -452 -6 -252 0 -456 3 -452 7 4 4
97 65 207 137 191 124 201 129 223 115 20 -13 25 -13 44 0z"/>
<path d="M3940 6530 c0 -220 4 -340 10 -340 6 0 10 113 10 320 0 176 3 320 6
320 3 0 65 -39 137 -86 287 -187 287 -187 281 -207 -13 -41 63 -86 93 -56 9 9
69 -26 243 -140 127 -83 233 -151 235 -151 8 0 5 647 -2 667 -5 10 -10 -129
-13 -308 l-5 -326 -217 141 c-188 123 -216 144 -211 163 9 41 -63 83 -93 53
-6 -6 -59 22 -154 84 -207 133 -283 183 -297 195 -7 6 -15 11 -18 11 -3 0 -5
-153 -5 -340z"/>
<path d="M3652 5068 l3 -673 770 -3 c424 -1 784 0 801 3 57 10 530 447 604
558 57 85 60 117 20 195 -18 35 -67 99 -108 144 -78 83 -370 347 -455 411
l-49 37 -794 0 -794 0 2 -672z m1645 605 c64 -52 188 -161 332 -292 138 -127
231 -252 231 -312 0 -75 -130 -225 -415 -477 l-200 -177 -785 0 -785 0 -3 600
c-2 330 0 624 3 653 l6 52 779 0 779 0 58 -47z"/>
<path d="M770 5065 c0 -184 2 -335 5 -335 2 0 104 65 226 145 l221 146 35 -13
c33 -12 36 -11 59 15 13 16 24 38 24 50 0 17 35 45 166 132 92 61 188 122 213
137 l46 27 2 -317 c2 -174 3 -319 4 -322 0 -3 5 6 9 20 9 28 13 650 4 650 -11
0 -101 -55 -277 -171 -167 -110 -179 -116 -206 -106 -40 15 -78 -11 -83 -53
-3 -29 -22 -43 -213 -169 l-210 -138 -3 319 c-1 200 -6 318 -12 318 -6 0 -10
-121 -10 -335z"/>
<path d="M2350 5390 c0 -7 160 -10 482 -10 312 0 479 -3 472 -10 -5 -5 -97
-66 -203 -135 -134 -87 -197 -123 -205 -115 -30 30 -96 -8 -96 -55 0 -21 -31
-45 -222 -171 -123 -81 -227 -150 -233 -155 -5 -5 211 -9 514 -9 345 0 520 3
516 10 -4 6 -177 10 -486 10 -270 0 -478 4 -475 9 3 5 93 65 200 135 182 119
195 126 220 115 23 -11 31 -10 54 8 16 12 28 31 30 49 2 24 16 38 80 79 106
68 376 246 381 250 2 2 -229 4 -513 5 -345 0 -516 -3 -516 -10z"/>
<path d="M6360 6045 l0 -265 200 0 200 0 0 30 0 30 -162 2 -163 3 -3 88 -3 87
145 0 146 0 6 24 c3 14 3 30 -1 35 -4 7 -60 11 -151 11 l-145 0 3 78 3 77 158
3 158 3 -3 27 -3 27 -192 3 -193 2 0 -265z"/>
<path d="M6875 6005 c-50 -43 -57 -72 -11 -41 14 9 28 16 31 16 3 0 5 -45 5
-101 0 -86 2 -100 16 -97 13 2 15 24 16 131 0 70 -1 130 -3 132 -3 2 -27 -16
-54 -40z"/>
<path d="M7055 6004 c-47 -43 -45 -51 8 -29 15 7 17 -2 17 -94 0 -83 3 -101
15 -101 13 0 15 22 15 135 0 74 -1 135 -2 135 -2 0 -25 -21 -53 -46z"/>
<path d="M930 3814 c-56 -50 -52 -66 10 -40 13 5 15 -6 12 -74 l-4 -80 26 0
26 0 0 115 c0 133 -5 138 -70 79z"/>
<path d="M3322 3830 c-12 -12 -22 -27 -22 -35 0 -19 34 -19 50 0 7 8 21 15 31
15 28 0 24 -42 -7 -71 -31 -28 -84 -98 -84 -111 0 -4 36 -8 80 -8 73 0 80 2
80 20 0 17 -7 20 -47 20 l-47 0 36 38 c45 46 62 86 48 112 -23 43 -83 53 -118
20z"/>
<path d="M5742 3834 c-24 -17 -30 -54 -8 -54 7 0 19 7 26 15 15 18 36 19 46 3
4 -6 -4 -21 -21 -34 l-27 -22 28 -13 c20 -10 29 -22 29 -39 0 -31 -29 -39 -55
-15 -20 18 -40 13 -40 -9 0 -22 35 -46 68 -46 61 0 94 69 55 112 -13 14 -14
21 -5 30 31 31 -4 88 -53 88 -11 0 -31 -7 -43 -16z"/>
<path d="M8198 3818 c-41 -54 -78 -117 -78 -132 0 -9 16 -16 44 -20 32 -5 47
-13 51 -27 10 -30 32 -22 52 18 12 27 14 38 5 41 -7 2 -12 24 -12 55 0 102
-19 121 -62 65z m18 -83 c-5 -26 -12 -35 -26 -35 -26 0 -25 14 2 50 26 36 33
32 24 -15z"/>
<path d="M389 3543 l-126 -4 -6 -247 c-9 -316 -9 -766 0 -949 l6 -143 793 0
792 0 85 73 c287 244 475 430 516 511 12 26 25 64 28 84 9 75 -99 215 -302
392 -54 47 -142 124 -196 172 -54 48 -106 91 -116 96 -18 10 -1237 22 -1474
15z m1434 -22 c22 -5 60 -29 90 -55 29 -26 104 -91 167 -145 245 -209 380
-367 380 -444 0 -47 -47 -123 -133 -216 -81 -88 -376 -357 -451 -412 l-39 -29
-779 0 -778 0 0 649 c0 510 3 650 13 654 24 9 1492 7 1530 -2z"/>
<path d="M560 2871 l0 -341 510 0 510 0 0 341 c0 316 -1 341 -17 335 -21 -8
-914 -8 -965 0 l-38 7 0 -342z m937 294 c-13 -12 -106 -74 -207 -140 -163
-105 -184 -116 -195 -102 -15 21 -24 21 -46 1 -16 -14 -25 -11 -116 47 -163
103 -303 199 -303 207 0 4 201 7 446 7 l445 0 -24 -20z m-487 -295 c0 -24 -16
-37 -137 -116 -76 -49 -173 -113 -215 -141 l-78 -52 0 309 0 309 215 -141
c193 -126 215 -143 215 -168z m548 -153 l-3 -153 -212 139 c-188 124 -213 143
-213 167 0 23 25 42 213 166 l212 140 3 -153 c1 -84 1 -222 0 -306z m-460 97
c16 13 36 2 217 -115 110 -72 204 -134 209 -139 5 -5 -191 -8 -453 -8 -254 1
-458 5 -454 9 5 4 98 66 207 137 199 130 200 130 229 116 26 -14 31 -14 45 0z"/>
<path d="M2674 3541 c-2 -2 -4 -305 -4 -673 l0 -668 799 0 799 0 229 204 c360
321 433 428 374 545 -29 56 -88 126 -187 222 -93 91 -323 294 -386 343 l-37
28 -792 1 c-435 1 -793 0 -795 -2z m1544 -18 c50 -5 59 -11 180 -116 308 -268
419 -384 464 -486 19 -41 19 -45 3 -88 -22 -56 -110 -166 -211 -263 -101 -96
-326 -297 -367 -327 l-31 -23 -783 0 -783 0 0 650 0 649 103 4 c169 6 1368 6
1425 0z"/>
<path d="M2987 3190 c7 -8 108 -77 225 -154 183 -121 213 -145 213 -166 0 -21
-30 -45 -212 -165 -215 -142 -246 -165 -226 -165 6 0 111 65 233 145 208 137
224 145 240 130 17 -15 20 -15 43 0 24 15 28 13 241 -125 119 -77 224 -143
234 -147 38 -13 -15 26 -221 162 -182 120 -212 144 -212 165 0 21 30 45 215
167 118 78 217 148 219 154 5 15 -25 -3 -263 -158 -180 -118 -189 -123 -207
-107 -16 15 -23 15 -43 4 -14 -7 -31 -10 -40 -7 -8 3 -104 65 -214 136 -192
126 -253 161 -225 131z"/>
<path d="M5087 3543 c-4 -3 -7 -307 -7 -675 l0 -668 801 0 802 0 74 68 c41 37
114 100 162 140 246 209 391 383 391 471 0 34 -59 132 -123 205 -64 74 -430
400 -487 434 l-45 27 -781 3 c-429 1 -783 -1 -787 -5z m1536 -19 c60 -8 94
-32 244 -164 356 -316 451 -438 412 -532 -38 -91 -158 -222 -369 -402 -58 -49
-133 -116 -167 -148 l-61 -58 -791 0 -791 0 0 650 0 649 138 3 c313 7 1340 8
1385 2z"/>
<path d="M6390 2880 l0 -330 -507 0 c-332 0 -503 -4 -493 -10 9 -6 210 -10
518 -10 l502 0 0 340 c0 220 -4 340 -10 340 -6 0 -10 -117 -10 -330z"/>
<path d="M5866 2919 c-15 -12 -26 -30 -26 -45 0 -25 40 -74 60 -74 20 0 60 49
60 74 0 16 -10 32 -29 45 -35 26 -33 26 -65 0z"/>
<path d="M7888 3542 l-388 -2 0 -670 0 -670 794 0 794 0 49 36 c26 20 75 62
108 93 33 32 80 74 105 95 92 78 302 292 332 338 60 94 46 171 -54 297 -44 54
-445 415 -508 457 -35 23 -36 23 -440 26 -223 2 -579 2 -792 0z m1218 -37 c21
-14 126 -103 264 -224 147 -130 241 -225 282 -290 38 -57 43 -72 43 -121 0
-65 -26 -108 -134 -223 -75 -80 -391 -364 -447 -402 l-37 -25 -778 0 -779 0 0
650 0 650 703 3 c780 4 853 2 883 -18z"/>
<path d="M7800 2869 l0 -339 510 0 510 0 0 338 0 337 -510 2 -510 1 0 -339z
m1000 -4 l0 -315 -487 2 -488 3 -3 312 -2 312 82 3 c46 2 266 2 491 0 l407 -2
0 -315z"/>
<path d="M8269 2904 c-22 -23 -22 -27 -9 -51 8 -14 25 -32 36 -40 19 -12 25
-11 53 12 37 32 40 67 9 89 -32 23 -61 20 -89 -10z"/>
<path d="M3328 1840 c-29 -29 -30 -34 -26 -95 5 -77 25 -105 74 -105 66 0 98
80 53 129 -17 18 -29 22 -55 18 -26 -4 -34 -2 -34 9 0 21 47 41 62 26 18 -18
38 -14 38 8 0 22 -27 40 -60 40 -12 0 -35 -14 -52 -30z m78 -116 c8 -30 -6
-47 -32 -42 -35 6 -30 68 5 68 14 0 23 -9 27 -26z"/>
<path d="M5733 1864 c-13 -3 -23 -12 -23 -20 0 -10 13 -14 50 -14 l50 0 -21
-41 c-19 -38 -49 -123 -49 -141 0 -5 11 -8 25 -8 20 0 25 5 25 24 0 34 24 98
56 145 15 23 24 44 22 47 -8 8 -109 13 -135 8z"/>
<path d="M8163 1858 c-26 -13 -36 -44 -21 -71 7 -14 7 -27 -1 -44 -27 -59 -1
-103 62 -103 27 0 41 7 56 26 25 32 26 40 6 78 -11 20 -12 33 -5 40 17 17 11
54 -12 70 -26 18 -53 19 -85 4z m63 -39 c8 -14 -21 -43 -35 -35 -6 4 -11 16
-11 27 0 21 34 27 46 8z m2 -111 c3 -24 0 -28 -23 -28 -27 0 -41 20 -31 46 10
27 51 13 54 -18z"/>
<path d="M906 1838 c-3 -13 -7 -40 -10 -61 -5 -38 -5 -39 22 -32 56 16 67 12
70 -23 4 -37 -19 -53 -49 -34 -43 27 -67 2 -31 -31 23 -21 71 -22 99 -2 27 19
38 67 22 97 -16 30 -28 38 -61 38 -48 0 -35 28 14 32 31 2 44 8 46 21 3 15 -5
17 -57 17 -55 0 -61 -2 -65 -22z"/>
<path d="M260 1529 c-1 -35 -3 -266 -6 -514 -4 -247 -3 -523 1 -612 l7 -163
793 0 793 0 85 73 c387 328 547 505 547 600 0 77 -129 239 -317 398 -47 41
-130 113 -184 161 -54 48 -107 92 -118 98 -14 7 -280 12 -811 17 l-790 6 0
-64z m1147 31 l442 0 63 -55 c35 -31 114 -99 177 -152 234 -198 371 -359 371
-436 0 -68 -115 -215 -289 -372 -167 -150 -283 -250 -309 -267 -25 -17 -71
-18 -803 -18 l-776 0 -5 208 c-3 114 -5 261 -4 327 0 66 2 266 3 445 l3 325
342 -2 c189 -2 542 -3 785 -3z"/>
<path d="M541 916 c-1 -214 3 -337 9 -341 7 -4 10 103 10 314 0 177 3 321 8
321 5 0 346 -450 466 -615 12 -17 16 -18 31 -5 10 8 119 150 244 315 l226 300
3 -317 c1 -201 6 -318 12 -318 6 0 10 123 10 340 0 187 -3 340 -7 339 -10 0
-6 5 -233 -299 -101 -135 -202 -268 -225 -297 l-42 -51 -243 324 c-133 178
-248 324 -255 324 -10 0 -13 -70 -14 -334z"/>
<path d="M1021 954 c-39 -33 -39 -55 0 -88 26 -22 34 -24 52 -14 51 27 59 62
22 102 -30 32 -36 32 -74 0z"/>
<path d="M2676 1583 c-3 -4 -6 -307 -6 -675 l0 -668 799 0 799 0 224 199 c304
271 401 387 401 484 0 54 -67 148 -195 274 -103 101 -328 302 -402 358 l-39
30 -788 2 c-432 1 -789 -1 -793 -4z m1566 -22 c18 -1 66 -36 160 -118 321
-281 426 -392 464 -491 17 -42 16 -42 -14 -105 -48 -97 -229 -279 -519 -524
l-74 -63 -784 0 -785 0 0 650 0 649 143 3 c138 3 1355 2 1409 -1z"/>
<path d="M2960 910 l0 -341 510 2 c281 0 510 4 510 9 0 4 -102 74 -226 155
-179 118 -225 152 -221 166 6 21 -35 69 -58 69 -9 0 -24 -4 -33 -9 -17 -9 -33
0 -337 198 -66 43 -126 81 -132 85 -10 6 -13 -64 -13 -334z m242 164 c189
-124 208 -139 208 -164 0 -20 9 -35 30 -50 27 -19 31 -20 52 -6 23 15 32 10
223 -115 110 -72 204 -135 210 -140 5 -5 -191 -9 -468 -9 l-477 0 0 310 c0
171 3 310 7 310 3 0 100 -61 215 -136z"/>
<path d="M5233 1583 l-153 -4 0 -669 0 -670 801 0 802 0 74 68 c41 37 113 100
161 140 137 115 285 265 337 341 66 97 69 135 18 219 -21 35 -61 89 -88 120
-64 72 -428 396 -480 427 l-40 24 -640 4 c-352 2 -709 2 -792 0z m1455 -37
c42 -22 365 -310 463 -414 87 -91 139 -174 139 -222 0 -73 -134 -233 -348
-417 -75 -64 -166 -143 -201 -175 l-64 -58 -788 0 -789 0 0 650 0 650 693 3
c790 4 857 3 895 -17z"/>
<path d="M6376 1219 c-3 -17 -6 -162 -6 -321 0 -161 -4 -288 -9 -286 -5 2
-101 64 -215 138 -159 104 -205 139 -200 152 3 10 -7 30 -24 49 -24 27 -31 30
-49 20 -12 -6 -28 -11 -35 -11 -7 0 -110 63 -228 140 -200 131 -230 149 -230
135 0 -3 101 -72 225 -154 124 -81 222 -150 219 -154 -12 -12 6 -55 31 -71 23
-15 27 -15 49 -1 23 15 29 12 232 -122 l209 -138 -490 -5 c-272 -3 -482 -9
-473 -13 9 -5 240 -7 513 -5 l497 3 -1 335 c-1 184 -3 336 -5 338 -2 1 -6 -12
-10 -29z"/>
<path d="M7753 1583 l-253 -3 0 -670 0 -670 793 0 c759 0 793 1 821 19 26 18
136 113 335 294 112 101 225 228 250 281 28 57 26 103 -6 165 -49 90 -113 159
-308 332 -253 224 -276 241 -333 250 -44 7 -721 8 -1299 2z m1287 -18 c58 -8
93 -33 295 -213 195 -173 263 -242 311 -313 91 -133 73 -190 -124 -388 -135
-135 -342 -321 -406 -365 l-39 -26 -778 0 -779 0 0 650 0 649 158 3 c408 7
1317 9 1362 3z"/>
<path d="M7790 910 l0 -340 493 1 c270 0 501 4 512 9 12 5 -193 9 -482 9
l-503 1 0 330 c0 213 -4 330 -10 330 -6 0 -10 -120 -10 -340z"/>
<path d="M8266 959 c-29 -23 -33 -54 -10 -87 19 -28 57 -29 84 -2 27 27 25 56
-5 85 -29 30 -35 31 -69 4z"/>
</g>
</svg>
