<?xml version="1.0" standalone="no"?>
<!DOCTYPE svg PUBLIC "-//W3C//DTD SVG 20010904//EN"
 "http://www.w3.org/TR/2001/REC-SVG-20010904/DTD/svg10.dtd">
<svg version="1.0" xmlns="http://www.w3.org/2000/svg"
 width="900.000000pt" height="922.000000pt" viewBox="0 0 900.000000 922.000000"
 preserveAspectRatio="xMidYMid meet">
<metadata>
Created by potrace 1.16, written by Peter Selinger 2001-2019
</metadata>
<g transform="translate(0.000000,922.000000) scale(0.100000,-0.100000)"
fill="#FFFFFF" stroke="none">
<path d="M215 8948 c-3 -29 -5 -1007 -3 -2173 l3 -2120 3392 -3 3393 -2 0
2175 0 2175 -3389 0 -3390 0 -6 -52z m6768 17 c-5 -16 -6745 -14 -6751 3 -3
10 673 12 3375 10 2246 -2 3377 -6 3376 -13z m-5 -392 l3 -113 -3343 -1
c-1839 -1 -3355 -3 -3370 -5 l-28 -3 0 120 0 119 3368 -2 3367 -3 3 -112z
m-50 -379 l52 -7 0 -113 0 -114 -3370 0 -3370 0 0 120 0 120 3318 0 c1824 0
3341 -3 3370 -6z m52 -608 c0 -109 -1 -114 -22 -120 -13 -3 -1529 -6 -3370 -6
l-3348 0 0 120 0 120 3370 0 3370 0 0 -114z m-2 -498 l-3 -113 -3367 -3 -3368
-2 0 115 0 115 3370 0 3371 0 -3 -112z m2 -493 l0 -116 -453 3 -453 3 -56 48
-55 47 -914 -2 -914 -3 -3 -47 -3 -48 -1945 0 -1944 0 0 115 0 115 3370 0
3370 0 0 -115z m-962 -84 c31 -28 113 -98 182 -157 69 -60 188 -171 266 -249
117 -116 147 -152 176 -212 33 -65 35 -76 27 -114 -21 -90 -160 -249 -413
-472 -83 -72 -183 -162 -223 -199 l-72 -68 -874 0 c-481 0 -889 3 -906 6 l-31
7 0 753 0 754 906 0 906 0 56 -49z m-1888 -411 l0 -120 -1945 0 -1945 0 0 120
0 120 1945 0 1945 0 0 -120z m2850 0 l0 -120 -179 0 -178 0 -121 120 -120 120
299 0 299 0 0 -120z m-2850 -495 l0 -115 -1945 0 -1945 0 0 115 0 115 1945 0
1945 0 0 -115z m2850 0 l0 -115 -247 0 -246 0 19 23 c10 12 35 41 56 64 20 22
53 64 73 92 l37 51 154 0 154 0 0 -115z m-2848 -477 l3 -103 914 -3 914 -2 84
77 c47 43 101 90 121 106 l36 27 388 0 388 0 0 -115 0 -115 -3370 0 -3370 0 0
115 0 115 1945 0 1944 0 3 -102z m2848 -423 l0 -35 -3302 0 c-1817 0 -3333 3
-3370 7 -67 6 -68 6 -68 34 l0 29 3370 0 3370 0 0 -35z"/>
<path d="M7409 7223 c-6 -16 -24 -62 -39 -103 -16 -41 -62 -163 -104 -270 -42
-107 -76 -199 -76 -203 0 -5 19 -7 42 -5 l41 3 31 85 32 85 130 3 130 3 33
-91 34 -90 48 0 47 0 -50 123 c-27 67 -83 204 -125 305 l-75 182 -44 0 c-39 0
-46 -3 -55 -27z m151 -325 c0 -4 -43 -8 -95 -8 -55 0 -95 4 -95 10 0 5 15 51
34 102 19 51 40 112 47 136 l13 43 48 -137 c26 -75 48 -141 48 -146z"/>
<path d="M7810 6912 c-51 -51 -53 -183 -4 -242 21 -25 33 -30 67 -30 64 1 97
36 97 103 0 70 -68 114 -129 82 -30 -15 -31 -15 -31 5 0 71 68 105 112 55 23
-26 38 -25 38 4 0 30 -33 51 -79 51 -33 0 -49 -6 -71 -28z m110 -131 c15 -29
12 -72 -7 -93 -35 -39 -93 -8 -93 51 0 20 5 42 12 49 20 20 76 15 88 -7z"/>
<path d="M1030 4373 c-43 -28 -80 -66 -80 -81 0 -14 13 -13 53 3 15 6 17 -1
17 -84 0 -90 0 -91 25 -91 l25 0 0 135 c0 74 -3 135 -8 135 -4 0 -19 -7 -32
-17z"/>
<path d="M3951 4354 c-12 -15 -21 -33 -21 -40 0 -21 38 -17 50 6 12 23 58 27
66 6 8 -21 -12 -53 -73 -119 -75 -82 -72 -87 38 -87 88 0 90 1 87 23 -3 19 -9
22 -50 21 -27 0 -48 2 -48 4 0 3 23 29 50 58 56 59 65 99 30 134 -31 31 -102
28 -129 -6z"/>
<path d="M7082 4357 c-42 -45 -20 -62 37 -30 21 13 33 15 41 7 14 -14 3 -42
-21 -49 -27 -9 -23 -32 8 -47 31 -15 41 -42 23 -63 -18 -21 -47 -18 -64 6 -9
13 -21 19 -30 16 -44 -17 7 -77 64 -77 70 0 111 67 72 119 -17 24 -18 29 -6
46 50 68 -65 135 -124 72z"/>
<path d="M222 3273 l3 -778 908 -3 909 -2 27 22 c27 22 275 240 430 377 88 79
223 238 254 301 48 99 10 193 -143 355 -93 97 -133 135 -330 305 -52 45 -125
108 -162 141 l-67 59 -915 0 -916 0 2 -777z m56 2 c1 -492 -1 -752 -8 -759
-29 -29 -33 17 -38 496 -2 266 -1 604 3 751 7 240 9 268 24 265 15 -3 16 -68
19 -753z m522 -4 l0 -760 -114 5 c-63 2 -122 4 -130 4 -14 0 -16 74 -16 755
l0 755 130 0 130 0 0 -759z m528 3 l-3 -756 -120 -2 c-66 -1 -126 0 -132 2
-10 3 -13 162 -13 751 0 411 3 751 7 754 3 4 64 7 135 7 l128 0 -2 -756z m522
-5 l0 -761 -22 6 c-13 3 -71 6 -130 6 l-108 0 0 755 0 755 130 0 130 0 0 -761z
m405 578 l125 -108 0 -462 0 -463 -47 -45 c-60 -56 -194 -173 -211 -183 -10
-6 -12 128 -12 684 1 415 4 690 10 688 5 -2 66 -51 135 -111z m475 -491 c16
-33 30 -70 30 -84 0 -29 -49 -123 -90 -172 l-29 -35 0 210 0 210 29 -35 c17
-19 43 -62 60 -94z"/>
<path d="M3220 3270 l0 -780 918 0 917 0 86 78 c47 42 135 120 195 172 161
139 333 315 389 398 41 62 49 81 53 130 3 52 0 62 -35 118 -69 111 -251 294
-506 507 -45 38 -102 89 -127 113 l-46 44 -922 0 -922 0 0 -780z m2193 440
l42 -39 -1107 -1 -1108 0 0 40 0 40 1065 0 1066 0 42 -40z m347 -450 l0 -40
-67 0 c-38 0 -605 -1 -1261 -2 l-1192 -3 0 43 0 42 1260 0 1260 0 0 -40z
m-340 -423 c0 -2 -22 -20 -49 -40 l-48 -37 -1042 0 -1041 0 0 40 0 40 1090 0
c600 0 1090 -1 1090 -3z"/>
<path d="M6220 3276 l0 -774 893 -4 c490 -1 907 -1 925 1 24 2 54 23 115 79
45 41 120 107 167 145 133 110 350 333 408 420 47 72 52 84 52 135 0 50 -5 65
-42 122 -47 72 -214 241 -414 419 -206 182 -241 210 -269 221 -17 6 -350 10
-931 10 l-904 0 0 -774z m1856 732 c37 -29 54 -45 54 -52 0 -3 -425 -6 -945
-6 l-945 0 0 40 0 40 904 0 903 0 29 -22z m484 -433 c60 -60 110 -113 110
-117 0 -5 -547 -8 -1215 -8 l-1215 0 0 120 0 120 1105 -2 1105 -3 110 -110z
m148 -431 c-18 -26 -62 -78 -98 -115 l-65 -69 -1153 0 -1152 0 0 115 0 115
1251 0 1250 0 -33 -46z m-538 -526 c-47 -44 -98 -86 -115 -92 -21 -8 -284 -10
-922 -8 l-893 3 0 89 0 90 1008 0 1007 -1 -85 -81z"/>
<path d="M1048 2118 c-26 -20 -118 -160 -118 -179 0 -21 20 -29 70 -29 32 0
39 -4 42 -22 5 -39 34 -33 58 14 19 37 20 43 6 53 -11 8 -16 33 -18 90 -3 80
-11 95 -40 73z m-18 -158 c-7 -4 -20 -5 -31 -3 -16 5 -16 8 9 46 l27 41 3 -39
c2 -22 -2 -41 -8 -45z"/>
<path d="M3951 2070 c-19 -90 -18 -93 38 -85 43 6 51 4 60 -14 8 -14 8 -27 -1
-45 -14 -32 -34 -33 -64 -5 -13 12 -30 19 -38 16 -21 -8 -20 -19 5 -51 15 -20
29 -26 58 -26 46 0 76 21 91 64 19 59 -21 116 -82 116 -18 0 -28 5 -28 14 0
11 15 16 53 18 44 3 52 6 52 23 0 18 -8 20 -67 23 l-66 3 -11 -51z"/>
<path d="M7089 2091 c-26 -27 -29 -36 -29 -96 0 -69 17 -118 45 -129 9 -3 32
-6 50 -6 66 0 98 87 54 145 -18 22 -28 26 -60 23 -41 -4 -45 1 -29 33 13 23
37 25 61 3 21 -19 39 -11 39 16 0 47 -87 54 -131 11z m89 -140 c4 -40 -8 -55
-36 -47 -22 7 -33 36 -25 67 4 15 12 19 32 17 22 -2 27 -9 29 -37z"/>
<path d="M218 1015 l-3 -775 921 0 921 0 204 181 c350 312 496 475 515 576 8
42 -30 125 -95 207 -68 86 -233 242 -450 429 l-184 157 -913 0 -914 0 -2 -775z"/>
<path d="M3220 1013 l0 -778 922 2 922 1 106 99 c58 54 167 150 241 215 141
121 271 262 327 352 77 124 50 196 -157 408 -75 78 -203 198 -286 268 -82 71
-168 146 -190 169 l-39 41 -923 0 -923 0 0 -777z m1615 739 c-11 -11 -103 -88
-205 -173 -102 -85 -241 -202 -309 -259 -189 -160 -165 -148 -214 -109 -67 53
-610 509 -637 535 l-25 24 705 0 c685 0 704 -1 685 -18z m715 -434 c160 -163
205 -229 205 -304 0 -46 -6 -60 -48 -122 -71 -105 -198 -234 -393 -402 l-174
-150 -317 267 c-449 377 -460 387 -460 398 0 6 178 159 395 342 l394 332 131
-112 c72 -62 192 -174 267 -249z m-1823 -126 c116 -98 212 -181 212 -187 0 -5
-95 -89 -211 -185 -115 -96 -269 -226 -341 -287 -73 -62 -135 -113 -139 -113
-5 0 -8 266 -8 590 l0 591 138 -117 c75 -63 232 -195 349 -292z m613 -518
c102 -86 249 -209 327 -275 78 -66 145 -124 148 -129 4 -7 -229 -10 -671 -10
-385 0 -674 4 -668 9 14 13 583 491 629 529 22 17 42 32 45 32 3 0 88 -70 190
-156z"/>
<path d="M6220 1015 l0 -775 163 -1 c89 -1 501 -2 915 -2 l753 0 39 29 c21 16
99 83 172 149 73 66 173 156 223 201 99 89 242 253 271 312 29 57 25 136 -10
197 -54 94 -552 568 -677 644 -34 21 -39 21 -941 21 l-908 0 0 -775z m310 -6
c0 -690 -1 -761 -16 -755 -9 3 -74 6 -145 6 l-129 0 0 755 0 755 145 0 145 0
0 -761z m1208 4 l2 -753 -475 0 -475 0 0 755 0 755 473 -2 472 -3 3 -752z
m315 746 c49 -26 313 -258 472 -415 303 -299 306 -347 40 -623 -44 -46 -127
-124 -185 -175 -58 -50 -145 -129 -195 -175 -101 -93 -118 -106 -157 -115
l-28 -6 0 760 c0 828 -4 778 53 749z"/>
</g>
</svg>
