<?xml version="1.0" standalone="no"?>
<!DOCTYPE svg PUBLIC "-//W3C//DTD SVG 20010904//EN"
 "http://www.w3.org/TR/2001/REC-SVG-20010904/DTD/svg10.dtd">
<svg version="1.0" xmlns="http://www.w3.org/2000/svg"
 width="996.000000pt" height="922.000000pt" viewBox="0 0 996.000000 922.000000"
 preserveAspectRatio="xMidYMid meet">
<metadata>
Created by potrace 1.16, written by Peter Selinger 2001-2019
</metadata>
<g transform="translate(0.000000,922.000000) scale(0.100000,-0.100000)"
fill="#FFFFFF" stroke="none">
<path d="M256 8788 c-8 -272 -8 -4432 1 -4596 l6 -122 2939 0 2938 0 0 2465 0
2465 -2938 0 -2939 0 -7 -212z m5864 -2253 l0 -2445 -2920 0 -2920 0 0 2445 0
2445 2920 0 2920 0 0 -2445z"/>
<path d="M1236 8432 c-16 -3 -18 -12 -14 -80 3 -43 8 -84 11 -92 5 -11 -10
-25 -54 -50 -178 -102 -232 -232 -165 -403 14 -37 26 -73 26 -80 0 -7 -15 -19
-34 -25 -32 -12 -106 -82 -106 -101 0 -5 9 -19 19 -32 16 -20 23 -22 47 -14
25 9 84 80 96 115 2 7 19 4 49 -8 136 -59 210 -52 382 36 4 2 7 -7 7 -20 0
-31 52 -113 81 -129 20 -10 26 -8 46 15 13 15 23 38 23 51 0 26 -50 74 -99 95
-26 10 -31 17 -26 34 14 50 23 202 14 250 -17 89 -113 193 -215 232 -24 9 -44
20 -44 24 0 4 9 27 20 51 22 50 26 102 8 116 -17 13 -49 20 -72 15z m62 -49
c2 -18 -6 -54 -18 -80 -19 -42 -23 -45 -30 -28 -5 11 -9 48 -9 83 -1 63 -1 63
27 60 22 -2 28 -8 30 -35z m29 -178 c61 -27 139 -96 176 -155 18 -30 22 -49
21 -130 0 -52 -6 -118 -13 -146 l-12 -52 -82 -38 c-71 -34 -91 -39 -147 -38
-73 1 -210 48 -210 72 0 7 -11 46 -24 85 -37 108 -40 138 -21 202 13 45 28 69
68 109 44 43 155 115 179 116 4 0 33 -11 65 -25z m236 -521 c69 -35 86 -74 48
-108 -18 -16 -20 -16 -41 6 -24 25 -50 78 -50 103 0 19 4 19 43 -1z m-523 -7
c0 -19 -57 -97 -76 -104 -9 -3 -22 1 -31 9 -13 14 -13 19 3 43 31 47 104 83
104 52z"/>
<path d="M4392 8285 c-65 -18 -85 -29 -140 -73 -140 -115 -138 -327 4 -452 53
-46 93 -60 171 -60 83 0 167 36 238 101 103 95 112 190 29 324 -88 143 -182
193 -302 160z m166 -37 c37 -17 92 -72 92 -91 0 -4 -10 -7 -22 -7 -31 0 -106
-46 -113 -71 -21 -66 89 -62 143 6 23 30 33 22 57 -45 19 -53 19 -113 1 -148
-23 -44 -112 -121 -172 -149 -67 -30 -150 -34 -209 -9 -55 23 -120 89 -145
148 -25 59 -28 158 -7 210 44 105 193 196 297 181 19 -3 54 -14 78 -25z m102
-127 c0 -5 -16 -23 -36 -41 -25 -21 -44 -30 -62 -28 -37 4 -34 28 7 55 33 23
91 31 91 14z"/>
<path d="M2772 8269 c-18 -6 -58 -33 -87 -62 -30 -29 -67 -63 -83 -78 -38 -32
-56 -96 -47 -163 9 -70 21 -89 110 -167 83 -74 118 -89 203 -89 85 0 124 23
260 153 43 42 57 165 24 225 -25 47 -168 170 -211 182 -44 12 -124 12 -169 -1z
m182 -24 c18 -9 47 -28 65 -43 l33 -27 -45 -32 c-53 -39 -75 -82 -59 -118 7
-14 17 -25 24 -25 6 0 1 -11 -11 -24 -30 -32 -20 -68 36 -122 l44 -43 -23 -21
c-86 -81 -227 -82 -310 -3 l-27 26 44 41 c52 49 65 88 40 116 -17 19 -17 21
-2 38 27 30 21 68 -19 112 -20 22 -43 40 -50 40 -8 0 -14 4 -14 8 0 15 54 61
90 76 46 20 143 20 184 1z m94 -155 c-5 -14 -21 -37 -35 -52 -20 -21 -30 -25
-40 -17 -24 20 -14 51 29 92 37 36 42 38 49 21 3 -10 2 -30 -3 -44z m-394 11
c4 -25 18 -53 40 -76 l34 -36 -23 -15 c-28 -18 -55 -72 -55 -111 l-1 -28 -33
36 c-39 42 -53 108 -37 178 8 39 44 91 61 91 4 0 10 -18 14 -39z m81 8 c17
-21 25 -41 23 -58 -7 -57 -70 -14 -84 57 -6 28 -4 32 14 32 11 0 32 -14 47
-31z m392 -19 c31 -57 31 -131 1 -190 -30 -57 -45 -61 -54 -14 -4 24 -20 50
-43 72 l-36 34 36 38 c22 23 39 53 43 75 9 45 23 41 53 -15z m-369 -147 c3
-21 -60 -103 -79 -103 -13 0 -11 47 2 73 30 58 71 74 77 30z m265 -3 c25 -30
44 -86 33 -98 -10 -9 -59 32 -80 67 -34 59 3 84 47 31z"/>
<path d="M4786 6919 c-31 -25 -56 -75 -56 -114 l0 -25 -72 37 c-88 44 -146 48
-226 13 -63 -27 -140 -107 -196 -203 l-38 -66 -27 20 c-39 28 -95 35 -126 15
-30 -20 -31 -35 -4 -70 24 -30 61 -34 116 -11 19 8 37 15 38 15 1 0 21 -29 44
-64 60 -91 157 -181 212 -196 42 -12 132 -9 206 6 29 6 30 4 36 -33 9 -54 46
-107 79 -111 31 -4 58 21 58 54 0 27 -60 100 -91 109 -17 6 -15 12 26 69 55
78 70 137 56 225 -6 34 -24 87 -40 118 -17 31 -30 57 -28 57 35 12 86 51 102
80 18 33 19 38 5 63 -20 36 -40 39 -74 12z m52 -11 c7 -7 12 -21 12 -31 0 -23
-62 -87 -84 -87 -30 0 -14 72 24 110 23 23 31 25 48 8z m-173 -117 c64 -35 73
-44 104 -104 29 -57 34 -75 34 -143 1 -93 -15 -130 -103 -236 -11 -14 -160
-30 -215 -23 -40 5 -67 15 -98 39 -40 30 -121 129 -159 194 l-18 29 58 93 c64
104 119 155 195 182 68 24 114 17 202 -31z m-520 -218 c43 -21 44 -28 4 -42
-50 -17 -87 -14 -99 10 -25 45 29 63 95 32z m605 -308 c30 -15 60 -61 60 -89
0 -8 -8 -20 -19 -25 -14 -8 -23 -5 -39 12 -23 25 -42 68 -42 98 0 23 3 23 40
4z"/>
<path d="M1218 6815 c-98 -20 -219 -121 -258 -214 -9 -24 -17 -30 -29 -25 -40
18 -96 16 -124 -6 -33 -26 -34 -40 -3 -69 32 -30 89 -38 121 -17 24 16 25 16
49 -33 35 -69 118 -155 178 -185 71 -35 171 -36 243 -2 59 28 146 112 183 179
19 33 31 45 42 41 54 -24 117 -10 144 31 14 21 13 24 -7 43 -45 42 -110 48
-133 11 -5 -9 -2 -10 12 -4 30 14 71 9 100 -10 l28 -18 -28 -23 c-43 -37 -116
-27 -116 17 0 69 -124 216 -220 261 -70 33 -111 38 -182 23z m170 -36 c55 -23
156 -120 182 -173 28 -60 25 -94 -16 -162 -87 -145 -204 -210 -330 -184 -95
20 -208 127 -249 235 -17 43 -17 47 0 90 22 59 100 144 164 178 89 49 162 53
249 16z m-477 -215 c58 -29 13 -87 -54 -70 -26 6 -57 31 -57 45 0 8 58 40 73
41 4 0 22 -7 38 -16z"/>
<path d="M2907 6819 c-96 -15 -240 -132 -267 -215 -9 -27 -16 -34 -29 -28 -9
4 -35 9 -57 12 -47 4 -94 -19 -94 -47 1 -56 96 -92 147 -56 21 15 23 14 44
-27 29 -57 96 -139 139 -170 54 -39 104 -51 191 -46 66 4 86 10 134 39 97 58
145 146 145 265 0 131 -101 246 -236 269 -21 4 -46 8 -54 10 -8 1 -37 -1 -63
-6z m173 -41 c54 -23 115 -79 142 -132 29 -57 23 -172 -13 -241 -90 -172 -335
-199 -465 -51 -47 54 -104 156 -104 188 0 35 48 113 98 160 110 103 222 128
342 76z m-490 -213 c54 -28 30 -75 -38 -75 -64 0 -93 58 -40 80 33 13 45 12
78 -5z"/>
<path d="M3655 5728 c-3 -7 -4 -310 -3 -673 l3 -660 795 0 795 0 30 23 c155
122 504 458 555 535 56 84 59 113 21 192 -48 98 -188 238 -520 523 l-83 72
-795 0 c-626 0 -795 -3 -798 -12z m1611 -30 c68 -52 346 -300 429 -383 92 -92
165 -200 165 -244 0 -78 -130 -228 -415 -480 l-200 -176 -781 -3 -781 -2 -7
31 c-8 41 -8 1192 0 1242 l7 37 777 0 777 0 29 -22z"/>
<path d="M1480 5488 c-12 -19 -20 -51 -20 -75 0 -23 -5 -45 -10 -48 -6 -4 -44
-1 -84 6 -68 10 -81 10 -146 -10 -40 -12 -78 -20 -85 -17 -7 2 -16 25 -19 50
-4 26 -18 58 -31 74 -23 26 -25 26 -52 12 -54 -30 -38 -71 52 -137 l30 -21
-41 -44 c-42 -44 -64 -91 -64 -137 0 -14 -5 -43 -10 -63 -10 -34 -13 -37 -39
-32 -39 8 -108 -13 -126 -39 -14 -20 -13 -23 4 -41 27 -27 79 -14 131 32 38
34 42 43 55 120 24 139 59 180 182 218 78 25 87 26 165 14 l83 -12 53 -70 c57
-77 56 -74 53 -238 l-2 -95 -41 -38 c-29 -27 -61 -43 -112 -58 -39 -11 -91
-27 -115 -34 l-45 -14 -63 51 c-35 27 -84 79 -109 114 -47 66 -79 88 -47 32
20 -35 145 -167 182 -191 l24 -16 -32 -36 c-27 -31 -32 -44 -29 -77 4 -55 29
-71 60 -40 18 18 23 35 25 84 2 69 2 70 83 88 97 22 143 41 187 77 l43 35 20
-23 c10 -13 19 -27 20 -31 1 -22 100 -50 100 -28 0 5 -6 7 -12 5 -17 -7 -74
29 -88 54 -7 15 -8 21 0 21 17 0 85 -37 99 -54 19 -23 34 -20 19 4 -15 24 -98
70 -127 70 -20 0 -21 4 -21 134 0 146 -1 148 -81 245 l-29 35 55 49 c59 52 69
81 37 110 -29 27 -60 21 -82 -15z m68 10 c7 -7 12 -19 12 -29 0 -20 -35 -66
-62 -80 -20 -11 -21 -9 -16 35 3 26 14 56 23 66 21 23 27 24 43 8z m-463 -72
c25 -64 16 -75 -28 -36 -49 42 -49 76 0 79 6 1 19 -19 28 -43z m-121 -410 c-8
-22 -72 -49 -100 -42 -33 9 -30 19 9 39 42 21 99 23 91 3z m276 -304 c0 -36
-22 -82 -40 -82 -20 0 -20 41 0 79 26 51 40 52 40 3z"/>
<path d="M2799 5346 c-58 -20 -106 -54 -144 -100 -56 -68 -75 -120 -75 -207 0
-67 3 -81 28 -117 61 -91 159 -144 267 -145 104 -1 188 48 243 142 23 40 27
57 27 126 0 95 -28 163 -97 234 -73 75 -161 99 -249 67z m142 -16 c34 -10 119
-73 119 -90 0 -4 -16 -11 -37 -15 -43 -8 -93 -54 -93 -86 0 -32 28 -59 62 -59
19 0 42 13 72 40 51 47 54 44 63 -57 8 -82 -13 -138 -73 -193 -44 -41 -98 -70
-128 -70 -12 0 -14 5 -6 26 25 64 -1 154 -44 154 -43 0 -61 -34 -60 -111 1
-66 0 -69 -20 -63 -80 25 -169 96 -187 151 -13 41 -8 155 10 198 12 28 13 29
21 9 19 -48 125 -99 156 -73 37 31 1 96 -71 125 -25 11 -45 22 -45 26 0 3 17
20 37 37 65 54 147 72 224 51z m-200 -140 c45 -23 64 -57 44 -78 -26 -28 -145
47 -132 83 9 21 40 19 88 -5z m339 5 c11 -13 8 -21 -21 -51 -38 -40 -72 -52
-94 -34 -21 18 -18 43 8 67 38 35 86 43 107 18z m-180 -254 c13 -25 13 -82 0
-116 -14 -37 -51 -31 -62 10 -9 33 -2 93 14 113 15 18 36 15 48 -7z"/>
<path d="M6360 6045 l0 -265 200 0 200 0 0 30 0 30 -162 2 -163 3 -3 88 -3 87
146 0 c138 0 145 1 147 20 0 11 1 26 2 32 1 9 -16 13 -49 13 -27 0 -94 2 -148
3 l-98 2 3 78 3 77 151 3 152 3 4 24 c3 14 3 27 0 30 -3 3 -90 5 -194 5 l-188
0 0 -265z"/>
<path d="M6872 6004 c-44 -37 -49 -67 -6 -40 13 9 26 16 29 16 3 0 5 -45 5
-100 0 -89 2 -100 18 -100 15 0 17 13 17 130 0 80 -4 130 -10 130 -5 0 -29
-16 -53 -36z"/>
<path d="M7041 6014 c-23 -29 -25 -37 -14 -48 4 -3 19 7 34 24 33 35 51 38 79
10 26 -26 18 -44 -66 -132 -35 -36 -64 -71 -64 -77 0 -17 172 -10 178 7 3 9
-14 12 -64 12 l-67 0 66 69 c37 38 67 78 67 89 0 10 -9 31 -21 46 -16 21 -29
26 -64 26 -35 0 -48 -5 -64 -26z"/>
<path d="M927 3811 c-44 -41 -45 -62 -2 -43 l25 12 0 -80 c0 -79 0 -80 25 -80
l25 0 0 115 c0 134 -5 139 -73 76z"/>
<path d="M3322 3830 c-12 -12 -22 -27 -22 -35 0 -19 34 -19 50 0 7 8 21 15 31
15 34 0 21 -38 -36 -106 -31 -36 -53 -69 -50 -74 4 -6 40 -10 81 -10 67 0 74
2 74 20 0 17 -7 20 -46 20 l-47 0 42 45 c52 56 58 95 19 128 -27 23 -69 22
-96 -3z"/>
<path d="M5742 3834 c-12 -8 -22 -21 -22 -29 0 -23 20 -28 39 -11 22 20 51 21
51 2 0 -8 -12 -23 -27 -34 l-26 -19 29 -14 c35 -17 44 -53 16 -68 -15 -8 -23
-6 -37 9 -22 24 -34 25 -42 5 -9 -25 26 -55 64 -55 62 0 96 68 56 112 -13 14
-14 21 -5 30 31 31 -4 88 -53 88 -11 0 -31 -7 -43 -16z"/>
<path d="M8171 3778 c-66 -93 -66 -105 -1 -114 40 -5 50 -10 50 -25 0 -24 29
-25 37 -1 3 9 13 25 21 34 13 16 13 18 -2 24 -12 5 -16 20 -16 64 0 113 -19
117 -89 18z m45 -43 c-5 -26 -12 -35 -26 -35 -25 0 -25 5 1 47 25 41 34 37 25
-12z"/>
<path d="M323 3543 l-63 -4 0 -669 0 -670 794 0 794 0 85 73 c289 246 479 434
518 513 34 70 31 118 -11 189 -58 96 -109 148 -462 458 -53 47 -107 92 -120
99 -18 10 -169 13 -748 14 -399 0 -753 -1 -787 -3z m1466 -20 c57 -5 68 -10
117 -52 29 -25 106 -92 171 -147 188 -162 295 -272 341 -350 23 -38 42 -81 42
-95 0 -75 -126 -231 -326 -406 -55 -48 -134 -118 -175 -154 -41 -36 -85 -73
-99 -82 -22 -16 -92 -17 -802 -17 l-778 0 0 650 0 649 83 4 c129 6 1355 6
1426 0z"/>
<path d="M1035 3286 c-17 -25 -22 -88 -11 -123 6 -18 1 -22 -29 -27 -46 -9
-165 -120 -197 -184 -23 -46 -24 -47 -52 -34 -33 16 -88 9 -111 -15 -22 -22
-15 -55 15 -71 24 -12 90 -12 120 1 11 5 21 -7 38 -48 30 -69 122 -158 180
-176 42 -12 51 -22 32 -34 -15 -9 -12 -82 5 -114 12 -24 33 -41 51 -41 12 0
44 68 44 93 0 32 -16 67 -31 67 -6 0 -6 -7 1 -19 24 -47 -5 -136 -36 -110 -22
18 -34 77 -22 105 12 25 12 25 98 45 48 10 64 21 126 83 52 51 76 84 85 115
11 36 16 41 33 36 56 -16 82 -15 114 4 38 24 42 53 10 75 -25 18 -103 22 -113
6 -11 -18 -21 -11 -34 26 -19 52 -136 167 -191 188 l-45 17 3 55 c6 89 -45
138 -83 80z m55 -15 c5 -11 10 -40 10 -64 0 -38 -3 -46 -22 -51 -31 -8 -43 8
-43 58 0 63 33 97 55 57z m66 -156 c44 -18 148 -116 168 -160 49 -103 -38
-268 -172 -327 -77 -34 -173 -11 -256 63 -43 37 -96 140 -96 186 0 48 34 108
94 168 77 77 179 105 262 70z m331 -216 c7 -6 13 -17 13 -24 0 -13 -41 -35
-65 -35 -27 0 -65 23 -65 40 0 35 81 48 117 19z m-720 -16 c18 -24 16 -30 -9
-37 -57 -15 -118 0 -118 30 0 35 103 41 127 7z"/>
<path d="M2676 3543 c-3 -3 -6 -307 -6 -675 l0 -668 799 0 800 0 98 88 c366
323 432 390 495 500 76 130 10 226 -412 596 -63 56 -132 114 -152 129 l-37 28
-789 4 c-434 3 -792 1 -796 -2z m1566 -22 c19 -1 72 -41 194 -148 295 -259
398 -370 431 -467 13 -37 13 -43 -16 -100 -17 -34 -64 -97 -105 -142 -70 -76
-395 -374 -459 -422 l-31 -22 -783 0 -783 0 0 650 0 650 248 2 c211 3 1225 1
1304 -1z"/>
<path d="M3508 3155 c-4 -4 -38 -8 -76 -9 -58 -1 -76 -6 -118 -31 -85 -53
-114 -116 -114 -250 0 -100 27 -164 91 -216 74 -60 77 -61 210 -51 103 9 125
14 159 36 84 55 128 163 115 281 -11 111 -51 172 -140 218 -35 18 -117 32
-127 22z m131 -45 c72 -37 108 -98 118 -204 14 -157 -67 -267 -216 -291 -43
-7 -44 -7 -36 16 24 79 17 130 -21 156 -26 16 -27 16 -46 -7 -16 -20 -19 -35
-15 -80 2 -30 8 -63 12 -72 12 -29 -44 -23 -96 10 -91 58 -119 114 -119 238 0
94 22 156 71 197 58 50 169 79 155 40 -27 -68 -10 -145 32 -151 18 -3 26 4 37
32 19 46 19 79 -1 118 l-16 31 52 -7 c29 -4 69 -15 89 -26z m-132 -69 c-3 -23
-12 -50 -20 -59 -15 -14 -17 -13 -27 12 -13 35 -13 55 1 95 11 31 12 32 31 14
16 -14 19 -27 15 -62z m-7 -340 c-1 -20 -7 -47 -14 -60 l-13 -24 -17 24 c-19
27 -21 91 -5 122 l12 21 18 -23 c11 -14 19 -39 19 -60z"/>
<path d="M5087 3544 c-4 -4 -7 -308 -7 -676 l0 -668 803 0 802 1 65 60 c36 33
115 102 176 154 229 194 384 381 384 462 0 34 -51 122 -111 195 -66 78 -455
425 -508 452 -24 13 -148 16 -813 21 -431 3 -787 2 -791 -1z m1619 -50 c61
-42 361 -313 451 -407 80 -86 133 -170 133 -214 0 -80 -138 -243 -380 -448
-58 -49 -133 -115 -167 -147 l-61 -58 -791 0 -791 0 0 650 0 650 784 0 783 0
39 -26z"/>
<path d="M5866 3278 c-21 -29 -20 -41 4 -88 l20 -39 -43 -25 c-41 -24 -120
-56 -138 -56 -5 0 -9 10 -9 23 0 30 -34 84 -59 92 -29 9 -61 -11 -61 -39 0
-26 43 -74 79 -87 20 -8 23 -14 18 -45 -9 -52 -60 -130 -83 -126 -74 14 -101
13 -123 -5 -20 -17 -22 -22 -12 -41 14 -26 47 -28 106 -7 39 15 40 14 63 -13
25 -29 55 -84 66 -118 5 -17 0 -24 -25 -34 -44 -19 -89 -58 -89 -79 0 -10 8
-25 18 -34 16 -15 20 -15 48 2 17 11 42 36 54 57 13 22 25 41 26 43 6 8 101
-31 127 -52 28 -22 28 -23 15 -70 -11 -41 -10 -52 3 -75 19 -34 39 -34 59 0
13 25 13 32 -1 73 -19 53 -15 59 71 99 69 32 86 32 94 1 7 -29 70 -95 91 -95
15 0 31 36 26 60 -4 23 -40 57 -74 71 -18 7 -33 13 -35 15 -7 5 57 131 75 147
18 16 23 16 49 2 54 -28 124 -14 124 25 0 38 -53 48 -140 25 -23 -6 -29 -1
-53 42 -14 27 -29 68 -33 91 -6 36 -4 42 11 42 9 0 33 16 52 35 43 43 44 88 2
93 -34 4 -67 -24 -83 -73 -13 -36 -17 -40 -43 -37 -37 4 -106 37 -127 61 -16
18 -16 22 0 69 18 49 18 51 0 71 -25 27 -51 27 -70 -1z m54 -8 c12 -22 -3 -90
-19 -90 -9 0 -31 45 -31 62 0 10 29 48 36 48 2 0 8 -9 14 -20z m280 -119 c0
-23 -44 -71 -65 -71 -25 0 -17 39 15 71 31 31 50 31 50 0z m-547 1 c9 -10 20
-33 23 -51 l7 -33 -31 16 c-35 18 -56 50 -48 72 7 19 30 18 49 -4z m262 -22
c12 -20 94 -61 135 -68 42 -7 43 -8 57 -62 7 -30 26 -74 42 -97 28 -40 29 -42
11 -58 -10 -9 -33 -50 -51 -90 -32 -70 -36 -74 -78 -86 -24 -7 -65 -27 -90
-44 -46 -30 -47 -31 -66 -12 -24 24 -113 67 -138 67 -10 0 -20 8 -23 18 -17
53 -31 80 -62 120 l-33 44 27 39 c15 22 35 63 45 92 17 51 19 53 80 74 34 13
76 34 93 47 35 28 42 30 51 16z m-341 -261 c12 -11 -36 -29 -75 -29 -36 0 -35
19 2 37 24 12 55 9 73 -8z m750 7 c29 -10 1 -36 -38 -36 -38 0 -80 25 -56 34
40 13 57 14 94 2z m-624 -226 c0 -5 -18 -28 -40 -51 -32 -33 -43 -40 -52 -31
-16 16 -2 40 42 70 36 24 50 28 50 12z m456 -10 c36 -23 52 -56 35 -73 -13
-13 -55 23 -77 66 -18 33 -5 35 42 7z m-240 -114 c8 -34 1 -61 -16 -61 -8 0
-16 8 -18 18 -5 25 6 67 18 67 5 0 12 -11 16 -24z"/>
<path d="M7500 2875 l0 -675 794 0 795 0 70 58 c194 158 474 429 523 505 60
93 45 171 -54 296 -45 56 -444 415 -512 460 l-40 26 -788 3 -788 3 0 -676z
m1616 623 c51 -37 309 -264 411 -362 101 -97 164 -189 170 -250 7 -59 -28
-122 -126 -228 -80 -86 -396 -371 -457 -413 l-37 -25 -778 0 -779 0 0 655 0
655 779 -2 778 -3 39 -27z"/>
<path d="M8231 3142 c-64 -25 -132 -90 -170 -165 -43 -84 -46 -173 -9 -245 43
-84 168 -152 280 -152 106 0 228 84 259 178 20 59 7 168 -29 238 -33 65 -94
128 -148 150 -44 19 -128 17 -183 -4z m183 -16 c35 -15 106 -73 106 -87 0 -5
-12 -9 -27 -9 -16 0 -42 -9 -60 -20 -60 -36 -70 -94 -20 -118 36 -17 76 -3
112 39 13 16 26 29 28 29 3 0 10 -14 16 -31 15 -44 14 -143 -2 -182 -17 -40
-86 -103 -141 -128 -55 -25 -70 -25 -56 0 16 32 12 122 -7 143 -52 57 -120
-31 -93 -121 5 -19 8 -36 6 -38 -8 -8 -132 55 -165 82 -18 16 -40 44 -47 62
-18 43 -18 145 1 190 l15 35 39 -35 c59 -53 132 -61 146 -16 10 32 -21 68 -86
99 l-60 28 33 26 c82 62 188 83 262 52z m-239 -125 c50 -23 80 -55 71 -77 -14
-38 -146 21 -146 65 0 36 17 39 75 12z m360 -9 c6 -17 -47 -78 -77 -87 -24 -8
-58 12 -58 34 0 9 10 27 23 39 43 40 99 48 112 14z m-187 -244 c15 -15 16
-102 2 -129 -19 -34 -48 -24 -60 21 -20 76 18 148 58 108z"/>
<path d="M3328 1840 c-29 -29 -30 -34 -26 -95 5 -77 25 -105 75 -105 44 0 73
30 73 75 0 50 -31 79 -77 72 -28 -5 -34 -3 -31 10 5 27 35 40 58 25 40 -25 57
-1 22 31 -28 25 -60 21 -94 -13z m78 -116 c8 -30 -6 -47 -32 -42 -35 6 -30 68
5 68 14 0 23 -9 27 -26z"/>
<path d="M8155 1846 c-21 -21 -23 -29 -15 -52 8 -19 7 -36 -2 -61 -19 -52 4
-87 59 -91 34 -3 44 1 62 24 25 32 26 40 6 78 -11 20 -12 33 -5 40 17 17 11
54 -12 70 -32 23 -65 20 -93 -8z m71 -27 c3 -6 -1 -18 -10 -27 -15 -15 -17
-15 -32 0 -19 19 -11 38 16 38 10 0 22 -5 26 -11z m2 -111 c3 -24 0 -28 -23
-28 -27 0 -41 20 -31 46 10 27 51 13 54 -18z"/>
<path d="M906 1838 c-3 -13 -8 -40 -11 -62 -6 -38 -6 -38 22 -31 57 16 68 12
71 -23 4 -37 -19 -53 -49 -34 -43 27 -67 2 -31 -31 36 -33 95 -20 118 25 27
52 -2 108 -57 108 -48 0 -37 28 13 32 31 2 44 8 46 21 3 15 -5 17 -57 17 -55
0 -61 -2 -65 -22z"/>
<path d="M5710 1845 c0 -11 12 -15 50 -15 l50 0 -21 -41 c-26 -51 -50 -130
-43 -141 3 -4 13 -8 23 -8 14 0 20 11 25 45 4 24 23 73 42 110 l35 65 -81 0
c-64 0 -80 -3 -80 -15z"/>
<path d="M257 1523 c-9 -88 -9 -1093 0 -1200 l6 -83 793 0 792 0 85 73 c391
332 547 504 547 602 0 75 -127 232 -324 403 -56 48 -140 121 -187 163 -48 43
-97 83 -110 91 -20 10 -173 14 -810 16 l-786 3 -6 -68z m1565 38 c38 -9 49
-17 199 -149 249 -218 305 -271 343 -322 61 -80 96 -143 96 -174 0 -92 -187
-296 -558 -609 l-57 -47 -781 0 -781 0 -6 113 c-9 145 -9 905 0 1070 l6 127
751 0 c413 0 768 -4 788 -9z"/>
<path d="M1001 1199 c-23 -5 -62 -19 -85 -33 -60 -35 -149 -127 -171 -176 -14
-30 -22 -39 -34 -34 -32 14 -94 16 -117 4 -82 -44 6 -132 102 -102 32 10 34 9
55 -26 46 -77 96 -134 147 -169 48 -33 60 -37 136 -41 74 -4 91 -1 137 20 69
32 157 119 188 185 23 51 24 51 48 36 46 -30 143 2 143 48 0 20 -43 53 -80 62
-15 4 -38 0 -54 -8 -35 -19 -33 -19 -40 9 -3 13 -38 58 -76 99 -102 109 -192
147 -299 126z m152 -37 c58 -20 108 -61 166 -135 57 -75 61 -108 22 -190 -36
-74 -110 -148 -180 -180 -103 -46 -236 -14 -316 75 -46 51 -105 158 -105 190
0 54 91 170 169 216 89 52 146 58 244 24z m-468 -216 c61 -26 38 -76 -33 -76
-64 0 -93 58 -40 80 31 12 34 12 73 -4z m833 -19 c19 -18 20 -23 9 -35 -23
-23 -94 -28 -116 -8 -23 21 -17 50 12 64 29 14 66 6 95 -21z"/>
<path d="M2676 1582 c-3 -3 -6 -306 -6 -674 l0 -668 799 0 800 0 143 128 c79
70 170 150 202 177 83 70 223 229 252 286 50 99 21 171 -130 327 -86 90 -357
334 -439 396 l-38 29 -789 3 c-433 1 -791 0 -794 -4z m1548 -18 c43 -6 62 -20
214 -153 293 -257 396 -369 429 -465 13 -37 13 -42 -16 -100 -48 -96 -231
-281 -518 -523 l-74 -63 -784 0 -785 0 0 650 0 650 663 3 c364 1 698 3 743 5
45 1 102 -1 128 -4z"/>
<path d="M3293 1201 c-83 -21 -169 -100 -200 -184 -6 -18 -12 -66 -12 -108 -1
-94 28 -158 100 -223 62 -56 102 -69 192 -64 124 6 227 76 291 196 28 54 35
61 46 47 29 -35 150 0 150 44 0 48 -118 85 -150 46 -10 -12 -16 -7 -37 33 -36
70 -126 156 -192 185 -63 28 -140 39 -188 28z m118 -25 c107 -25 191 -93 245
-198 29 -57 29 -54 3 -122 -28 -76 -99 -152 -174 -187 -149 -71 -319 -7 -371
139 -20 56 -18 66 8 48 37 -26 103 -21 139 12 28 25 30 31 20 50 -25 46 -103
64 -165 37 -16 -7 -18 -5 -11 26 19 88 91 168 175 194 57 17 63 17 131 1z
m394 -230 c19 -8 35 -22 35 -30 0 -21 -39 -46 -73 -46 -65 0 -90 47 -39 74 34
19 35 19 77 2z m-553 -24 c20 -20 20 -20 -1 -41 -25 -25 -79 -28 -121 -6 -36
18 -38 38 -7 60 29 22 102 14 129 -13z"/>
<path d="M5128 1583 l-48 -4 0 -670 0 -669 803 0 803 0 90 83 c49 45 116 104
149 132 98 81 264 246 312 310 50 67 73 115 73 154 0 38 -63 138 -137 221 -61
67 -399 369 -464 416 l-34 23 -750 5 c-412 2 -771 2 -797 -1z m1522 -24 c48
-11 64 -23 295 -230 236 -211 345 -343 345 -419 0 -73 -142 -242 -353 -422
-73 -62 -161 -138 -196 -170 l-64 -58 -788 0 -789 0 0 650 0 649 63 4 c160 9
1445 6 1487 -4z"/>
<path d="M5840 1313 c-19 -24 -21 -37 -17 -83 l5 -56 -44 -18 c-49 -20 -126
-91 -151 -140 -23 -44 -23 -158 1 -218 24 -63 91 -122 157 -138 45 -11 49 -14
42 -34 -12 -33 -7 -94 11 -121 43 -66 107 17 83 107 -6 24 -4 28 20 33 47 10
113 47 140 79 62 73 87 186 59 261 -21 53 -121 151 -184 179 -42 19 -43 20
-37 60 7 42 -7 95 -28 108 -21 13 -35 9 -57 -19z m64 -31 c4 -17 5 -47 2 -66
-6 -29 -11 -36 -30 -36 -27 0 -36 17 -36 64 0 35 26 79 43 73 7 -2 16 -18 21
-35z m64 -142 c51 -23 145 -116 159 -157 l10 -29 -67 4 c-103 6 -137 -23 -88
-75 18 -19 32 -23 85 -23 42 0 63 -4 63 -12 0 -27 -44 -99 -80 -132 -65 -59
-143 -70 -253 -36 -72 22 -120 62 -143 117 -24 56 -20 63 39 63 34 0 63 7 85
20 37 22 38 27 16 58 -13 19 -24 22 -85 22 -80 0 -83 4 -40 72 70 111 194 156
299 108z m-189 -214 c10 -12 8 -18 -11 -29 -28 -18 -90 -30 -112 -21 -10 4
-16 18 -16 35 0 29 0 29 64 29 43 0 67 -5 75 -14z m350 0 c24 -28 2 -46 -56
-46 -59 0 -93 13 -93 35 0 19 16 23 81 24 37 1 61 -4 68 -13z m-219 -320 c12
-38 5 -79 -16 -97 -33 -27 -66 49 -44 102 17 40 45 38 60 -5z"/>
<path d="M7500 914 l0 -674 793 0 c759 0 793 1 821 19 67 44 423 372 508 468
71 80 93 124 93 188 0 98 -89 207 -374 456 -84 74 -175 150 -201 170 l-48 36
-443 7 c-244 4 -603 6 -796 6 l-353 -2 0 -674z m1598 637 c40 -21 421 -359
484 -429 65 -72 110 -148 115 -195 7 -61 -28 -125 -124 -227 -86 -92 -397
-373 -457 -414 l-39 -26 -778 0 -779 0 0 649 c0 510 3 650 13 654 28 10 1546
-1 1565 -12z"/>
<path d="M8633 1298 c-29 -32 -53 -83 -53 -112 l0 -26 -71 36 c-86 44 -150 48
-226 14 -65 -28 -105 -69 -171 -170 -30 -47 -56 -87 -58 -89 -2 -2 -23 6 -47
18 -52 25 -75 26 -105 5 -24 -16 -28 -44 -12 -75 8 -13 21 -19 47 -19 44 0
103 20 103 35 0 5 22 -24 49 -65 65 -99 132 -167 189 -192 38 -17 58 -20 121
-15 42 4 90 9 107 13 30 6 31 4 37 -33 8 -46 38 -98 67 -113 17 -9 24 -7 45
14 37 37 32 63 -25 118 l-51 49 37 50 c44 60 63 109 64 164 0 58 -27 153 -55
197 l-25 38 39 20 c75 38 101 100 61 140 -26 26 -42 25 -67 -2z m67 -42 c0
-15 -14 -36 -35 -55 -59 -51 -80 -37 -51 32 20 50 43 69 67 57 10 -6 19 -21
19 -34z m-188 -82 c76 -38 106 -75 132 -164 32 -106 17 -179 -52 -272 -47 -61
-55 -64 -177 -74 -106 -9 -148 6 -220 80 -33 35 -77 90 -97 124 l-38 61 71
106 c70 104 103 136 174 163 73 28 113 23 207 -24z m-517 -221 c19 -9 35 -20
35 -24 0 -12 -72 -31 -100 -27 -28 3 -38 31 -20 53 16 20 41 19 85 -2z m631
-330 c39 -42 42 -63 15 -87 -25 -23 -38 -14 -62 38 -39 87 -13 115 47 49z"/>
</g>
</svg>
