<?xml version="1.0" standalone="no"?>
<!DOCTYPE svg PUBLIC "-//W3C//DTD SVG 20010904//EN"
 "http://www.w3.org/TR/2001/REC-SVG-20010904/DTD/svg10.dtd">
<svg version="1.0" xmlns="http://www.w3.org/2000/svg"
 width="900.000000pt" height="922.000000pt" viewBox="0 0 900.000000 922.000000"
 preserveAspectRatio="xMidYMid meet">
<metadata>
Created by potrace 1.16, written by Peter Selinger 2001-2019
</metadata>
<g transform="translate(0.000000,922.000000) scale(0.100000,-0.100000)"
fill="#FFFFFF" stroke="none">
<path d="M216 8688 c-4 -172 -6 -1150 -4 -2173 l3 -1860 3393 -3 3392 -2 0
2175 0 2175 -3389 0 -3389 0 -6 -312z m2032 -160 l-3 -453 -1001 -3 -1001 -2
-8 264 c-4 145 -4 350 0 455 l8 191 1003 0 1004 0 -2 -452z m2052 -3 l0 -455
-827 2 -828 3 -3 439 c-1 242 0 446 2 453 4 11 157 13 831 13 l825 0 0 -455z
m2680 0 l0 -455 -1137 2 -1138 3 -3 453 -2 452 1140 0 1140 0 0 -455z m-4782
-851 l52 -7 0 -823 0 -824 -1003 0 -1004 0 -6 248 c-9 317 -9 1017 0 1240 l6
172 951 0 c523 0 975 -3 1004 -6z m2051 0 l51 -7 0 -543 0 -544 -85 0 -85 0 0
-280 0 -280 -745 0 -745 0 0 823 c0 453 2 826 6 829 8 8 1542 10 1603 2z
m2679 0 l52 -7 0 -823 0 -824 -198 0 -198 0 -30 31 c-82 87 -421 391 -547 491
l-49 38 -629 0 -629 0 0 543 c0 299 3 547 7 550 8 9 2150 9 2221 1z m-936
-1141 c149 -123 337 -292 464 -418 129 -128 157 -161 188 -224 39 -79 39 -94
3 -166 -43 -88 -212 -267 -417 -443 -74 -63 -163 -143 -198 -176 l-63 -61
-907 0 -907 0 -3 758 -2 757 904 0 904 0 34 -27z m-3744 -1390 l2 -473 -1003
0 -1004 0 -7 92 c-8 118 -8 600 1 746 l6 112 1001 -2 1001 -3 3 -472z m1882
182 l0 -295 54 0 c29 0 68 -3 85 -6 l31 -6 0 -174 0 -174 -827 2 -828 3 -3
460 c-1 253 0 466 3 473 3 9 162 12 745 12 l740 0 0 -295z m2850 -181 l0 -475
-1140 2 -1140 2 0 173 0 173 633 3 633 3 60 53 c32 29 136 120 229 201 161
140 267 245 317 311 l22 30 193 0 193 0 0 -476z"/>
<path d="M7410 7228 c-18 -44 -213 -553 -218 -571 -4 -16 1 -18 38 -15 l43 3
31 85 32 85 129 3 130 3 34 -91 33 -90 48 0 48 0 -50 123 c-27 67 -69 169 -93
227 -24 58 -57 140 -75 183 l-32 77 -44 0 c-37 0 -46 -4 -54 -22z m109 -206
c23 -62 41 -117 41 -122 0 -6 -41 -10 -95 -10 -56 0 -95 4 -95 10 0 5 17 56
38 112 22 57 42 117 47 133 9 35 3 45 64 -123z"/>
<path d="M7770 6925 c0 -12 14 -15 63 -16 34 -1 68 -1 75 0 16 2 15 -14 -2
-28 -22 -18 -75 -144 -82 -194 -6 -43 -5 -47 15 -47 14 0 21 6 21 19 0 41 42
150 79 208 22 34 37 64 34 67 -4 3 -51 6 -105 6 -80 0 -98 -3 -98 -15z"/>
<path d="M1001 4350 c-70 -55 -69 -84 2 -55 15 6 17 -1 17 -84 0 -90 0 -91 25
-91 l25 0 0 135 c0 74 -4 135 -9 135 -5 0 -32 -18 -60 -40z"/>
<path d="M3951 4354 c-12 -15 -21 -33 -21 -40 0 -21 38 -17 50 6 12 23 58 27
66 6 8 -20 -9 -47 -71 -117 -30 -34 -55 -68 -55 -75 0 -11 20 -14 91 -14 88 0
90 1 87 23 -3 19 -10 22 -52 25 l-49 3 47 48 c83 84 70 161 -28 161 -36 0 -48
-5 -65 -26z"/>
<path d="M7080 4355 c-18 -19 -21 -28 -12 -37 9 -9 20 -7 47 7 24 14 38 16 45
9 15 -15 3 -39 -26 -52 -32 -15 -30 -26 8 -43 36 -15 47 -41 28 -64 -18 -21
-48 -18 -62 5 -7 11 -19 20 -26 20 -24 0 -25 -31 -2 -56 66 -70 189 17 133 94
-17 23 -17 30 -6 52 25 48 -6 90 -67 90 -26 0 -43 -7 -60 -25z"/>
<path d="M6233 4052 l-23 -3 0 -777 0 -777 920 1 920 1 137 123 c405 359 493
449 554 563 41 78 38 129 -16 218 -55 89 -142 177 -425 430 l-248 220 -898 2
c-495 1 -909 1 -921 -1z m1577 -53 c-43 -38 -522 -443 -617 -522 -26 -21 -50
-36 -54 -35 -8 3 -540 448 -645 540 l-55 48 703 3 c387 1 705 3 708 4 3 1 -15
-16 -40 -38z m502 -201 c297 -263 440 -432 440 -522 0 -96 -148 -269 -471
-550 -121 -105 -147 -123 -160 -113 -23 18 -595 499 -688 578 -46 39 -83 73
-83 77 1 4 18 21 40 37 45 35 631 527 704 592 30 27 53 40 61 35 8 -4 78 -64
157 -134z m-2037 32 c3 -5 58 -53 123 -108 64 -54 151 -126 192 -161 41 -35
137 -115 213 -179 109 -92 135 -118 125 -128 -7 -6 -143 -121 -303 -254 -159
-134 -314 -263 -342 -287 l-53 -45 0 597 c0 587 0 596 19 585 11 -5 23 -14 26
-20z m910 -769 c16 -15 129 -111 250 -212 121 -101 257 -215 303 -254 l84 -70
-341 -3 c-188 -1 -494 -1 -680 0 l-339 3 122 101 c66 56 218 183 336 283 118
99 219 181 225 181 5 0 23 -13 40 -29z"/>
<path d="M216 3921 c-4 -71 -6 -420 -5 -775 l2 -646 21 -6 c11 -2 422 -4 911
-2 741 3 894 5 915 17 38 22 372 323 502 452 170 170 230 271 208 350 -18 64
-90 162 -204 275 -123 122 -429 392 -490 433 l-40 26 -906 3 -907 2 -7 -129z
m452 -655 l2 -759 -52 7 c-29 3 -126 6 -215 6 l-163 0 0 755 0 755 213 -2 212
-3 3 -759z m1406 733 c69 -49 310 -263 449 -399 144 -140 206 -221 227 -296
12 -42 11 -48 -20 -108 -41 -81 -159 -213 -321 -358 -265 -239 -325 -291 -347
-306 -19 -13 -93 -15 -507 -16 l-485 -1 0 758 0 758 484 -3 483 -3 37 -26z"/>
<path d="M3222 3273 l3 -778 910 0 c850 0 913 1 938 17 14 10 56 46 93 80 36
35 134 122 217 193 157 135 292 277 358 379 49 74 52 126 12 207 -43 87 -451
481 -667 644 l-39 30 -914 3 -913 3 2 -778z m1808 747 c20 -5 84 -51 150 -106
135 -112 450 -404 450 -416 0 -4 -538 -8 -1195 -8 l-1195 0 0 270 0 270 878 0
c537 0 891 -4 912 -10z m630 -930 c0 -18 -196 -214 -320 -319 -69 -58 -160
-138 -203 -178 -68 -63 -84 -73 -115 -73 -20 0 -428 0 -907 0 l-870 0 -3 290
-2 290 1210 0 c765 0 1210 -4 1210 -10z"/>
<path d="M1040 2110 c-26 -26 -97 -135 -106 -162 -8 -27 10 -38 63 -38 35 0
42 -3 45 -22 4 -31 35 -35 48 -6 5 13 16 31 22 41 11 15 10 20 -4 31 -13 10
-18 31 -20 91 -3 86 -13 100 -48 65z m-7 -151 c-5 -5 -18 -6 -30 -3 l-22 6 27
41 27 41 3 -38 c2 -21 0 -42 -5 -47z"/>
<path d="M3951 2070 c-19 -89 -18 -91 42 -88 l52 3 0 -40 c0 -48 -24 -58 -60
-25 -25 24 -45 20 -45 -9 0 -42 73 -66 122 -40 26 14 48 67 41 102 -7 37 -50
70 -85 65 -22 -4 -28 0 -28 13 0 15 10 19 53 21 44 3 52 6 52 23 0 18 -8 20
-67 23 l-66 3 -11 -51z"/>
<path d="M7088 2090 c-29 -29 -30 -33 -26 -105 3 -61 7 -78 27 -99 33 -35 83
-35 116 -1 57 56 14 154 -62 142 -37 -6 -43 6 -18 39 13 18 15 18 45 2 42 -24
50 -23 50 7 0 53 -84 62 -132 15z m87 -145 c0 -36 -3 -40 -25 -40 -18 0 -27 7
-34 27 -12 33 7 60 38 56 17 -2 21 -10 21 -43z"/>
<path d="M3253 1793 l-33 -4 0 -775 0 -774 920 0 919 0 38 32 c21 18 70 62
108 98 39 36 131 119 205 184 150 133 301 293 342 364 37 63 38 128 2 203 -20
40 -69 96 -193 219 -188 186 -460 425 -508 446 -27 12 -180 14 -900 12 -477
-1 -883 -3 -900 -5z m517 -303 l0 -280 949 0 949 0 41 -61 c63 -94 67 -162 14
-242 l-29 -42 -959 -5 -960 -5 -3 -298 -2 -297 -178 2 -177 3 -3 293 -2 292
-23 1 c-12 0 -49 2 -82 2 l-60 2 -3 178 -2 177 85 0 85 0 0 280 0 280 180 0
180 0 0 -280z"/>
<path d="M217 1723 c-4 -38 -7 -386 -7 -775 l0 -708 173 -2 c812 -7 1635 -3
1663 7 41 16 377 316 534 475 267 273 265 328 -24 615 -157 156 -444 407 -499
438 -30 16 -93 17 -933 17 l-901 0 -6 -67z m321 -225 l2 -268 -150 0 -150 0 0
270 0 271 148 -3 147 -3 3 -267z m1080 0 l2 -268 -345 0 -345 0 0 224 c0 123
3 244 6 270 l7 46 336 -2 336 -3 3 -267z m534 179 c232 -199 283 -245 378
-341 l105 -106 -313 0 -312 0 0 239 c0 131 3 252 6 269 6 31 7 31 35 17 15 -8
61 -43 101 -78z m-1612 -1130 c0 -156 -2 -286 -4 -288 -2 -2 -69 -3 -149 -1
l-144 3 -7 125 c-4 69 -4 197 0 285 l7 159 148 0 149 0 0 -283z m1078 -4 l2
-283 -345 0 -345 0 0 263 c0 144 3 272 6 285 l6 22 337 -2 336 -3 3 -282z
m942 181 c-105 -106 -463 -426 -511 -457 -14 -10 -29 -14 -32 -10 -4 3 -7 134
-7 290 l0 283 327 0 328 0 -105 -106z"/>
<path d="M6220 1017 l0 -774 122 -6 c67 -3 484 -3 927 0 l805 6 80 77 c45 42
151 137 236 211 85 75 187 171 225 214 39 44 78 89 88 100 44 48 77 120 77
169 0 83 -41 143 -223 324 -89 88 -193 187 -232 221 -208 179 -250 212 -284
221 -23 6 -361 10 -928 10 l-893 0 0 -773z m170 483 l0 -270 -75 0 -75 0 0
270 0 270 75 0 75 0 0 -270z m1663 257 c55 -24 577 -493 577 -518 0 -5 -392
-9 -920 -9 l-920 0 0 270 0 270 618 0 c458 -1 624 -4 645 -13z m-1663 -1218
l0 -291 -22 6 c-13 3 -47 6 -75 6 l-53 0 0 285 0 285 75 0 75 0 0 -291z m2251
264 c-29 -41 -203 -210 -307 -300 -51 -43 -133 -115 -183 -160 l-91 -83 -635
0 -635 0 0 285 0 285 936 0 935 0 -20 -27z"/>
</g>
</svg>
