<?xml version="1.0" standalone="no"?>
<!DOCTYPE svg PUBLIC "-//W3C//DTD SVG 20010904//EN"
 "http://www.w3.org/TR/2001/REC-SVG-20010904/DTD/svg10.dtd">
<svg version="1.0" xmlns="http://www.w3.org/2000/svg"
 width="900.000000pt" height="924.000000pt" viewBox="0 0 900.000000 924.000000"
 preserveAspectRatio="xMidYMid meet">
<metadata>
Created by potrace 1.16, written by Peter Selinger 2001-2019
</metadata>
<g transform="translate(0.000000,924.000000) scale(0.100000,-0.100000)"
fill="#FFFFFF" stroke="none">
<path d="M217 8883 c-9 -177 -9 -3953 0 -4100 l6 -113 3389 0 3388 0 0 2175 0
2175 -3388 0 -3389 0 -6 -137z m1838 -341 l0 -453 -907 -2 -906 -2 -6 29 c-8
39 -8 614 1 764 l6 122 906 -2 906 -3 0 -453z m2483 1 l-3 -458 -52 0 c-29 1
-541 2 -1138 3 l-1085 2 0 455 0 455 1140 0 1140 0 -2 -457z m400 0 c2 -424 1
-452 -15 -457 -15 -4 -94 -3 -165 3 -17 1 -18 30 -18 456 l0 456 98 -3 97 -3
3 -452z m2042 3 l0 -454 -28 -6 c-15 -4 -429 -5 -920 -4 l-892 3 0 458 0 457
920 0 920 0 0 -454z m-4925 -868 c3 -112 5 -504 3 -873 l-3 -670 -906 -3 -906
-2 -6 91 c-9 119 -9 1434 0 1562 l6 97 902 0 903 0 7 -202z m2485 -438 l0
-640 -202 -2 -203 -3 -3 -232 -2 -233 -935 0 -935 0 0 875 0 875 1140 0 1140
0 0 -640z m398 3 l-3 -638 -97 -3 -98 -3 0 641 0 640 100 0 100 0 -2 -637z
m2042 -238 l0 -875 -244 0 -245 0 -38 36 c-146 139 -329 301 -436 387 l-58 47
-409 0 -410 0 0 640 0 640 920 0 920 0 0 -875z m-1018 -433 c28 -12 253 -207
425 -370 178 -168 252 -258 277 -335 16 -49 16 -51 -9 -104 -13 -30 -39 -73
-57 -96 -59 -77 -231 -248 -373 -371 -77 -66 -168 -147 -202 -178 l-63 -58
-902 2 -903 3 -3 745 c-1 410 0 751 3 758 3 9 192 12 897 11 491 0 901 -3 910
-7z m-3907 -742 l0 -95 -907 -3 -908 -2 0 100 0 100 908 -2 907 -3 0 -95z
m2075 0 l0 -100 -935 0 -935 0 0 100 0 100 935 0 935 0 0 -100z m2850 0 l0
-100 -156 0 c-145 0 -156 1 -149 18 16 38 17 108 2 145 l-16 37 160 0 159 0 0
-100z m-4927 -321 c8 -30 9 -677 1 -753 l-7 -66 -902 0 -902 0 -6 98 c-9 125
-9 485 0 630 l6 112 902 0 903 0 5 -21z m2079 -221 l3 -243 203 -3 202 -2 0
-138 c0 -75 -3 -154 -6 -174 l-7 -38 -1133 0 -1134 0 0 420 0 420 935 0 935 0
2 -242z m2848 -178 l0 -420 -920 0 -920 0 0 175 0 174 414 3 413 3 64 58 c35
31 116 101 179 155 63 53 156 136 205 184 l90 87 238 1 237 0 0 -420z m-2040
-177 c0 -60 -3 -138 -7 -175 l-6 -68 -93 0 -94 0 0 175 0 175 100 0 100 0 0
-107z"/>
<path d="M7411 7248 c-68 -174 -215 -557 -219 -571 -4 -16 1 -18 39 -15 l44 3
28 79 c15 44 32 85 37 91 7 8 49 12 131 11 l122 -1 35 -92 35 -93 47 0 47 0
-84 208 c-46 114 -102 251 -124 305 l-41 97 -44 0 c-37 0 -46 -4 -53 -22z
m108 -206 c23 -62 41 -117 41 -122 0 -6 -41 -10 -95 -10 -52 0 -95 3 -95 7 0
4 21 68 47 142 34 97 49 129 54 115 4 -10 26 -70 48 -132z"/>
<path d="M7835 6956 c-51 -22 -66 -95 -25 -121 8 -5 5 -13 -9 -26 -39 -37 -37
-82 7 -131 24 -29 106 -24 137 7 32 31 33 82 4 119 -20 25 -20 28 -5 45 22 25
20 56 -6 84 -29 32 -65 39 -103 23z m73 -38 c7 -7 12 -21 12 -33 0 -45 -53
-61 -85 -25 -15 17 -16 24 -7 45 13 27 58 35 80 13z m7 -133 c14 -13 25 -31
25 -40 0 -23 -37 -55 -65 -55 -30 0 -65 32 -65 60 0 26 34 60 60 60 12 0 32
-11 45 -25z"/>
<path d="M1001 4370 c-28 -22 -51 -47 -51 -56 0 -15 10 -14 58 3 9 4 12 -17
12 -86 0 -90 0 -91 25 -91 l25 0 0 135 c0 74 -4 135 -9 135 -5 0 -32 -18 -60
-40z"/>
<path d="M3951 4374 c-12 -15 -21 -33 -21 -40 0 -21 38 -17 50 6 13 24 58 27
66 5 7 -16 -8 -42 -51 -90 -45 -50 -75 -91 -75 -103 0 -8 29 -12 90 -12 l90 0
0 26 c0 22 -4 25 -27 24 -78 -5 -79 -4 -33 42 43 43 60 74 60 109 0 59 -109
83 -149 33z"/>
<path d="M7081 4376 c-23 -25 -21 -46 3 -46 8 0 19 7 26 15 14 17 46 20 54 6
10 -15 -4 -38 -30 -49 -32 -15 -30 -26 8 -43 36 -15 47 -41 28 -64 -18 -21
-47 -18 -64 6 -9 13 -21 19 -30 16 -42 -16 4 -77 58 -77 48 0 65 8 81 41 20
38 19 63 -5 84 -17 16 -18 20 -5 38 20 29 19 53 -5 77 -29 29 -90 27 -119 -4z"/>
<path d="M216 3848 c-4 -123 -5 -473 -4 -778 l3 -555 880 -3 c484 -2 899 0
923 3 38 6 62 23 185 133 436 388 485 437 546 552 52 97 39 150 -68 282 -80
99 -520 502 -616 564 -28 18 -64 19 -936 22 l-907 3 -6 -223z m1057 193 l27
-1 0 -310 0 -310 -100 0 -100 0 0 308 c0 170 2 311 4 313 4 3 86 4 169 0z
m-373 -311 l0 -310 -330 0 -330 0 0 310 0 310 330 0 330 0 0 -310z m1176 288
c154 -119 574 -511 607 -567 l18 -31 -600 0 -601 0 0 310 0 310 274 0 c267 0
274 -1 302 -22z m-1176 -1143 l0 -345 -329 0 -330 0 -3 218 c-2 119 -2 274 0
345 l3 127 330 0 329 0 0 -345z m395 0 l0 -340 -97 -3 -98 -3 0 339 c0 186 3
342 7 346 4 4 48 5 98 4 l90 -3 0 -340z m1439 333 c-56 -98 -163 -210 -403
-423 -69 -60 -153 -135 -187 -167 -100 -91 -86 -88 -384 -88 l-260 0 0 338 c0
186 3 342 7 345 3 4 283 7 620 7 489 0 613 -3 607 -12z"/>
<path d="M3227 4063 c-4 -3 -7 -354 -7 -780 l0 -773 893 0 c580 0 905 4 929
10 23 7 66 37 115 83 43 40 125 113 183 162 240 203 407 388 430 477 17 60 3
111 -50 192 -51 75 -237 263 -395 398 -50 42 -129 110 -177 151 l-87 74 -92 6
c-121 9 -1734 9 -1742 0z m393 -243 l0 -220 -190 0 -190 0 0 220 0 220 190 0
190 0 0 -220z m400 0 l0 -220 -100 0 -100 0 0 220 0 220 100 0 100 0 0 -220z
m1049 206 c15 -8 34 -22 42 -32 8 -9 65 -60 127 -111 62 -52 157 -137 210
-188 l97 -94 -662 -1 -663 0 0 220 0 220 410 0 c337 0 416 -3 439 -14z m-1449
-726 l0 -100 -190 0 -190 0 0 100 0 100 190 0 190 0 0 -100z m400 0 l0 -100
-100 0 -100 0 0 100 0 100 100 0 100 0 0 -100z m1722 60 c20 -39 19 -119 -2
-145 -11 -13 -101 -15 -766 -15 l-754 0 0 100 0 100 752 -2 753 -3 17 -35z
m-2122 -595 l0 -235 -190 0 -190 0 0 235 0 235 190 0 190 0 0 -235z m400 0 l0
-235 -100 0 -100 0 0 235 0 235 100 0 100 0 0 -235z m1480 169 c-36 -36 -101
-96 -145 -132 -44 -37 -128 -111 -188 -164 -73 -66 -119 -99 -140 -103 -18 -3
-205 -4 -417 -3 l-385 3 -3 233 -2 232 672 0 672 0 -64 -66z"/>
<path d="M6225 4058 c-3 -7 -4 -357 -3 -778 l3 -765 890 -3 c490 -1 905 0 923
3 24 4 63 33 135 98 55 51 155 140 221 198 143 125 267 254 333 346 40 56 48
75 51 123 5 65 -7 94 -73 180 -79 103 -454 452 -617 575 l-40 30 -909 3 c-734
2 -910 0 -914 -10z m1225 -338 l0 -320 -605 0 -605 0 0 320 0 320 605 0 605 0
0 -320z m643 288 c146 -105 572 -507 610 -575 l18 -33 -535 0 -536 0 0 320 0
320 199 0 199 0 45 -32z m-643 -1143 l0 -335 -605 0 -605 0 0 335 0 335 605 0
605 0 0 -335z m1280 329 c0 -17 -111 -142 -222 -249 -148 -145 -430 -397 -455
-407 -10 -3 -105 -7 -210 -7 l-193 -1 0 328 c0 181 3 332 7 335 8 9 1073 9
1073 1z"/>
<path d="M1048 2138 c-26 -20 -118 -160 -118 -179 0 -12 11 -19 38 -24 21 -3
45 -5 53 -3 9 2 15 -7 17 -24 3 -22 9 -28 28 -28 19 0 24 5 24 24 0 13 7 26
15 30 19 7 19 33 0 43 -10 6 -15 31 -17 87 -3 81 -11 96 -40 74z m-8 -118 c0
-38 -2 -40 -30 -40 l-30 0 26 40 c15 22 28 40 30 40 2 0 4 -18 4 -40z"/>
<path d="M3951 2090 c-19 -91 -18 -93 39 -85 46 6 50 5 61 -18 24 -54 -30 -89
-70 -46 -12 13 -26 19 -35 16 -21 -8 -20 -19 5 -51 41 -53 137 -24 154 47 8
30 -17 82 -46 98 -11 6 -32 8 -45 5 -19 -5 -24 -2 -24 13 0 17 8 20 53 23 45
3 52 6 55 26 3 21 0 22 -66 22 l-70 0 -11 -50z"/>
<path d="M7089 2111 c-26 -26 -29 -37 -29 -89 0 -106 24 -142 94 -142 67 0
100 87 55 145 -18 22 -28 26 -60 23 -31 -3 -39 0 -39 13 0 9 7 22 15 29 13 11
22 10 51 -3 44 -22 44 -22 44 8 0 52 -84 62 -131 16z m86 -146 c0 -34 -3 -40
-22 -43 -16 -2 -26 4 -34 21 -15 33 4 69 34 65 18 -2 22 -10 22 -43z"/>
<path d="M499 1803 l-277 -3 -7 -153 c-4 -83 -5 -431 -3 -772 l3 -620 916 0
916 0 34 26 c59 46 472 419 528 478 127 132 181 236 161 311 -14 50 -75 142
-144 218 -56 59 -327 306 -468 425 -114 95 -47 87 -756 91 -345 1 -751 1 -903
-1z m384 -23 c16 0 17 -43 17 -755 l0 -755 -328 0 -329 0 -6 98 c-9 126 -9
1085 0 1269 l6 142 81 4 c45 2 185 2 311 0 127 -1 238 -3 248 -3z m415 -753
l2 -758 -97 3 -98 3 -3 745 c-1 410 0 751 3 758 3 9 29 12 97 10 l93 -3 3
-758z m762 737 c53 -26 405 -340 541 -481 92 -97 159 -201 159 -250 0 -11 -16
-52 -35 -91 -45 -89 -126 -176 -347 -374 -95 -84 -201 -179 -236 -211 -95 -88
-92 -87 -387 -87 l-255 0 0 755 0 755 223 2 c250 3 301 1 337 -18z"/>
<path d="M3220 1017 l0 -774 473 -6 c648 -8 1344 2 1378 19 14 7 66 50 115 96
50 46 152 137 228 202 145 125 311 308 345 380 31 62 27 120 -11 186 -40 70
-266 302 -423 433 -66 55 -140 119 -165 143 -25 23 -63 54 -84 68 l-39 26
-908 0 -909 0 0 -773z m680 483 l0 -270 -330 0 -330 0 0 270 0 270 330 0 330
0 0 -270z m1153 259 c12 -7 56 -42 97 -78 41 -37 116 -101 165 -143 102 -85
315 -292 315 -305 0 -4 -299 -7 -665 -5 l-665 2 0 270 0 270 366 0 c253 0 372
-3 387 -11z m-1153 -1214 l0 -285 -330 0 -330 0 0 285 0 285 330 0 330 0 0
-285z m1732 248 c-42 -54 -201 -204 -312 -297 -52 -44 -124 -107 -160 -141
-106 -101 -76 -95 -495 -95 l-365 0 0 285 0 285 681 0 681 0 -30 -37z"/>
<path d="M6220 1016 l0 -774 718 -3 c394 -2 813 -2 929 1 l213 5 82 81 c46 44
133 123 193 175 158 135 345 325 383 391 56 95 53 167 -10 264 -62 95 -539
540 -656 611 l-37 23 -907 0 -908 0 0 -774z m1230 539 l0 -215 -605 0 -605 0
0 215 0 215 605 0 605 0 0 -215z m628 188 c64 -44 257 -213 427 -375 l30 -28
-443 0 -442 0 0 208 c0 115 3 212 7 215 3 4 90 7 193 7 l187 0 41 -27z m-628
-703 l0 -100 -605 0 -605 0 0 100 0 100 605 0 605 0 0 -100z m1288 50 c25 -50
29 -122 8 -139 -9 -8 -162 -10 -552 -9 l-539 3 -3 84 c-2 46 -1 90 2 98 5 11
99 13 533 11 l528 -3 23 -45z m-1286 -547 c2 -109 2 -217 0 -240 l-4 -43 -604
0 -604 0 0 240 0 240 604 0 603 0 5 -197z m1093 156 c-22 -23 -107 -101 -190
-175 -82 -73 -183 -163 -223 -199 l-73 -65 -204 0 -205 0 0 233 c0 129 3 237
7 240 3 4 213 7 467 7 l460 0 -39 -41z"/>
</g>
</svg>
