<?xml version="1.0" standalone="no"?>
<!DOCTYPE svg PUBLIC "-//W3C//DTD SVG 20010904//EN"
 "http://www.w3.org/TR/2001/REC-SVG-20010904/DTD/svg10.dtd">
<svg version="1.0" xmlns="http://www.w3.org/2000/svg"
 width="900.000000pt" height="922.000000pt" viewBox="0 0 900.000000 922.000000"
 preserveAspectRatio="xMidYMid meet">
<metadata>
Created by potrace 1.16, written by Peter Selinger 2001-2019
</metadata>
<g transform="translate(0.000000,922.000000) scale(0.100000,-0.100000)"
fill="#FFFFFF" stroke="none">
<path d="M215 8858 c-3 -79 -5 -1056 -3 -2173 l3 -2030 3393 -3 3392 -2 0
2175 0 2175 -367 0 c-203 0 -362 -4 -355 -9 11 -6 13 -258 15 -1349 1 -738 -1
-1342 -5 -1342 -4 0 -14 11 -23 23 -14 21 -15 172 -13 1350 l3 1327 -3016 0
-3017 0 -7 -142z m5405 -1079 l0 -1199 -60 0 -60 0 0 1198 c0 659 2 1201 4
1203 2 2 29 2 60 1 l56 -4 0 -1199z m-4757 949 c4 -324 3 -3599 -2 -3860 l-3
-198 -308 0 -307 0 -6 107 c-9 139 -9 3889 0 4066 l6 137 308 0 308 0 4 -252z
m677 -1903 l0 -2155 -270 0 -270 0 0 2155 0 2155 270 0 270 0 0 -2155z m680 0
l0 -2155 -235 0 -235 0 0 2155 0 2155 235 0 235 0 0 -2155z m678 3 l-3 -2152
-197 -1 -198 -1 0 2153 0 2153 200 0 200 0 -2 -2152z m680 0 l-3 -2153 -162 0
-163 -1 0 2153 0 2153 165 0 165 0 -2 -2152z m682 952 l0 -1199 -62 -3 -63 -3
-3 -772 -2 -773 42 0 c94 0 89 10 86 -184 l-3 -171 -125 0 -125 0 -3 2153 -2
2152 130 0 130 0 0 -1200z m680 0 l0 -1200 -95 0 -95 0 0 1200 0 1200 95 0 95
0 0 -1200z m1141 -1324 c170 -142 428 -384 489 -457 116 -140 126 -210 46
-323 -68 -95 -196 -227 -359 -368 -78 -68 -174 -154 -214 -192 l-72 -68 -908
-2 -908 -1 -3 725 c-1 399 0 740 3 758 l6 32 898 0 899 0 123 -104z m211
-1473 c-2 -304 -3 -313 -22 -313 -19 0 -20 8 -20 298 0 258 2 301 16 321 9 12
19 19 23 14 3 -4 5 -149 3 -320z m-675 34 c2 -3 1 -82 -3 -176 l-7 -172 -51 3
-51 3 -3 165 c-1 90 0 171 3 178 4 11 17 13 57 9 28 -4 53 -8 55 -10z m-679
-169 l-3 -173 -90 0 -90 0 -3 173 -2 172 95 0 95 0 -2 -172z"/>
<path d="M7411 7228 c-50 -128 -210 -548 -216 -566 -6 -22 -5 -23 36 -20 l43
3 31 82 c16 45 32 84 35 87 3 2 61 6 129 7 l125 2 35 -91 34 -92 48 0 47 0
-40 98 c-22 53 -73 178 -113 277 -105 259 -91 235 -142 235 -36 0 -45 -4 -52
-22z m107 -200 l49 -138 -98 0 c-55 0 -99 4 -99 9 0 5 14 47 31 93 17 46 38
105 46 131 8 27 16 47 18 45 2 -1 26 -65 53 -140z"/>
<path d="M7833 6935 c-37 -16 -55 -44 -56 -91 -2 -86 82 -130 147 -75 18 15
19 15 12 -14 -18 -76 -77 -108 -114 -61 -11 15 -25 26 -31 26 -18 0 -12 -27
12 -55 30 -35 88 -37 122 -5 37 35 48 72 43 155 -3 64 -7 78 -28 99 -33 31
-68 38 -107 21z m86 -57 c30 -52 -13 -111 -66 -92 -38 13 -52 63 -29 99 23 36
74 32 95 -7z"/>
<path d="M1001 4350 c-70 -55 -69 -84 2 -55 15 6 17 -1 17 -84 0 -90 0 -91 25
-91 l25 0 0 135 c0 74 -4 135 -9 135 -5 0 -32 -18 -60 -40z"/>
<path d="M3950 4356 c-24 -26 -22 -56 4 -56 9 0 20 9 26 20 12 23 58 27 66 6
8 -20 -9 -47 -71 -117 -30 -34 -55 -68 -55 -75 0 -11 20 -14 90 -14 l90 0 0
26 c0 26 -1 26 -50 22 -27 -3 -50 -3 -50 -1 0 3 19 25 43 49 45 48 55 66 56
102 2 60 -102 87 -149 38z"/>
<path d="M7081 4354 c-11 -15 -18 -30 -15 -35 8 -14 30 -11 44 6 14 17 46 20
54 6 9 -15 -4 -40 -25 -46 -27 -9 -23 -32 8 -47 31 -15 41 -42 23 -63 -18 -21
-47 -18 -64 6 -9 13 -21 19 -30 16 -42 -16 4 -77 58 -77 48 0 65 8 81 41 20
38 19 63 -5 84 -17 16 -18 20 -5 38 34 48 1 97 -64 97 -31 0 -44 -6 -60 -26z"/>
<path d="M283 4052 l-63 -3 0 -774 0 -775 918 0 917 0 72 63 c337 294 560 512
612 600 48 82 51 131 13 210 -36 72 -147 195 -290 322 -53 48 -110 99 -127
114 -16 15 -83 73 -147 129 -64 56 -120 106 -123 111 -5 9 -1634 12 -1782 3z
m737 -778 l0 -754 -90 0 -90 0 0 758 0 757 90 -3 90 -3 0 -755z m649 760 l31
-6 0 -754 0 -754 -55 0 -55 0 0 760 0 760 24 0 c13 0 38 -3 55 -6z m-1329
-759 l0 -755 -50 0 -50 0 0 755 0 755 50 0 50 0 0 -755z m2040 5 c0 -441 -1
-459 -20 -481 -19 -24 -19 -22 -19 481 0 503 0 505 19 481 19 -22 20 -40 20
-481z"/>
<path d="M3220 3276 l0 -774 63 -7 c34 -3 445 -5 912 -3 790 3 853 4 878 20
14 10 56 46 93 80 36 35 134 122 217 193 154 132 276 261 351 370 37 54 41 66
41 121 0 54 -4 67 -39 119 -21 33 -82 104 -135 158 -87 90 -355 334 -472 429
-88 73 -21 68 -1014 68 l-895 0 0 -774z m188 432 l2 -318 -85 0 -85 0 0 320 0
321 83 -3 82 -3 3 -317z m442 2 l0 -320 -125 0 -125 0 0 304 c0 167 3 311 6
320 5 13 26 16 125 16 l119 0 0 -320z m448 -2 l2 -318 -125 0 -125 0 0 320 0
321 123 -3 122 -3 3 -317z m440 0 l2 -318 -125 0 -125 0 0 320 0 321 123 -3
122 -3 3 -317z m305 308 c92 -38 608 -513 656 -603 l12 -23 -391 0 -390 0 0
238 c0 130 3 274 7 320 l6 82 34 0 c18 0 48 -6 66 -14z m-1635 -1163 l-3 -338
-60 -3 c-32 -2 -69 -1 -82 3 l-23 5 0 335 0 335 85 0 85 0 -2 -337z m442 -3
l0 -341 -122 3 -123 3 -3 338 -2 337 125 0 125 0 0 -340z m443 233 c8 -126 9
-536 2 -555 -4 -10 -33 -13 -123 -11 l-117 1 -3 336 -2 336 118 0 119 0 6
-107z m447 -227 c0 -184 -3 -337 -7 -339 -5 -2 -61 -2 -125 1 l-118 5 0 333 0
334 125 0 125 0 0 -334z m990 329 c0 -3 -19 -32 -42 -63 -67 -90 -199 -223
-381 -381 -93 -80 -188 -163 -212 -185 -40 -35 -50 -39 -102 -40 l-58 -1 -3
338 -2 337 400 0 c220 0 400 -2 400 -5z"/>
<path d="M6220 3270 l0 -781 920 1 920 1 188 167 c245 218 438 411 490 492 36
56 42 72 42 119 0 126 -101 238 -652 722 l-67 59 -920 0 -921 0 0 -780z m420
694 c5 -60 5 -60 100 -164 200 -218 254 -275 262 -278 4 -2 8 112 8 252 l0
257 143 -3 142 -3 0 -417 0 -418 90 -100 c50 -56 127 -142 172 -193 45 -50 86
-93 91 -95 16 -5 22 199 22 720 l0 508 140 0 140 0 0 -759 0 -759 -157 5 c-87
3 -163 8 -170 12 -6 3 -80 83 -164 176 -84 94 -155 171 -158 173 -3 1 -6 -24
-6 -55 0 -32 -1 -115 -3 -184 l-2 -126 -137 3 -138 3 -5 344 -5 344 -174 194
c-96 107 -178 195 -183 197 -4 2 -9 -241 -10 -539 l-3 -543 -125 2 c-69 1
-133 2 -142 2 -17 0 -18 43 -18 755 l0 756 143 -3 142 -3 5 -61z m1847 -320
l123 -115 0 -252 0 -252 -136 -132 c-74 -73 -140 -133 -145 -133 -5 0 -9 208
-9 516 l0 515 22 -15 c13 -9 78 -68 145 -132z"/>
<path d="M1048 2118 c-26 -20 -118 -160 -118 -179 0 -18 27 -29 77 -29 25 0
32 -5 35 -22 5 -36 36 -28 61 15 21 36 21 39 4 51 -13 10 -17 28 -17 79 0 93
-9 111 -42 85z m-8 -118 c0 -38 -2 -40 -30 -40 l-30 0 26 40 c15 22 28 40 30
40 2 0 4 -18 4 -40z"/>
<path d="M3951 2070 c-20 -91 -18 -93 39 -85 46 6 51 5 59 -17 19 -52 -38 -94
-66 -49 -13 21 -53 18 -53 -3 0 -25 46 -56 81 -56 45 0 75 22 89 64 19 59 -21
116 -82 116 -18 0 -28 5 -28 14 0 11 15 16 53 18 44 3 52 6 52 23 0 18 -8 20
-67 23 l-66 3 -11 -51z"/>
<path d="M7088 2090 c-29 -29 -30 -33 -26 -105 3 -61 7 -78 27 -99 34 -36 92
-36 120 0 50 63 9 153 -64 141 -39 -6 -45 5 -20 39 13 18 15 18 45 2 42 -24
50 -23 50 7 0 53 -84 62 -132 15z m87 -145 c0 -34 -3 -40 -22 -43 -16 -2 -26
4 -34 21 -15 33 4 69 34 65 18 -2 22 -10 22 -43z"/>
<path d="M3472 1792 l-252 -2 2 -778 3 -777 575 -2 c316 0 732 1 924 4 l349 6
96 91 c53 50 161 147 240 216 222 193 371 380 371 465 0 18 -14 61 -32 96 -25
51 -65 98 -197 230 -137 137 -415 389 -480 436 -16 12 -1015 21 -1599 15z m98
-782 c0 -736 -1 -760 -19 -760 -10 0 -33 3 -50 6 l-31 7 0 753 0 754 50 0 50
0 0 -760z m780 5 l0 -755 -140 0 -140 0 0 755 0 755 140 0 140 0 0 -755z m710
0 l0 -755 -215 0 -215 0 0 755 0 755 215 0 215 0 0 -755z m364 427 c145 -134
281 -286 311 -347 22 -43 26 -65 22 -97 -11 -83 -152 -253 -364 -439 -65 -56
-128 -112 -140 -123 l-23 -19 0 597 0 598 52 -44 c28 -23 92 -80 142 -126z"/>
<path d="M215 1718 c-7 -82 -3 -1464 5 -1471 3 -3 413 -7 912 -8 l906 -3 36
25 c40 28 216 184 405 359 200 184 301 316 301 392 0 66 -69 167 -225 327
-115 119 -450 409 -504 437 -21 11 -189 14 -928 14 l-901 0 -7 -72z m1852 25
c54 -37 253 -206 253 -215 0 -4 -226 -6 -502 -4 -277 2 -745 5 -1040 5 l-538
1 0 120 0 120 893 0 893 0 41 -27z m517 -461 c42 -43 88 -94 102 -113 25 -33
64 -103 64 -114 0 -3 -565 -5 -1255 -5 l-1255 0 0 155 0 155 1134 0 1134 0 76
-78z m95 -401 c24 -6 19 -13 -80 -115 -111 -116 -484 -456 -534 -487 -29 -18
-69 -19 -926 -19 l-897 0 -7 151 c-4 83 -4 225 0 315 l7 164 1207 -1 c663 -1
1217 -4 1230 -8z"/>
<path d="M6220 1010 l0 -780 918 0 918 0 85 76 c46 42 129 116 184 163 225
194 387 365 435 460 34 68 26 143 -26 218 -43 62 -296 316 -439 439 -49 42
-92 80 -95 84 -3 4 -35 32 -72 63 l-67 57 -921 0 -920 0 0 -780z m2027 593
c82 -69 383 -353 383 -362 0 -3 -538 -6 -1195 -6 l-1195 0 0 213 0 212 969 0
970 0 68 -57z m268 -933 l-39 -40 -1118 0 -1118 0 0 40 0 40 1157 0 1157 0
-39 -40z"/>
</g>
</svg>
