<svg xmlns="http://www.w3.org/2000/svg" width="16" height="16" style="display:inline" version="1.0"><g style="display:inline"><path d="m164.889 173.078-.034.002c-.47.018-.848.426-.875.938a1 1 0 0 0-1.001-.918.996.996 0 0 0-1.006.992v11.926q0 .04.004.082v.002l.011.082q.007.041.018.084v.002q.009.035.021.07l.01.027c.111.3.365.55.727.621q.104.022.215.022h7.537q.103 0 .2-.02a.98.98 0 0 0 .782-.77l.002-.007v-.002q.01-.045.016-.09v-.006l.002-.043.003-.052h1.557c.503 0 .91-.447.91-.997v-10.947c0-.55-.407-.998-.91-.998zm1.43 1.305h5.48c.161 0 .314 0 .314.176v.005c0 .149-.153.145-.314.145h-5.63c-.147 0-.306.003-.306-.156v-.012c0-.16.154-.152.31-.154zm1.06.654h3.2c.146 0 .265 0 .265.17v.006c0 .144-.119.14-.266.14h-3.2c-.146 0-.269.003-.269-.152v-.012c0-.154.123-.15.27-.15zm-1.238.637h5.69c.156 0 .284.104.284.23v3.43c0 .126-.128.23-.285.23h-5.69c-.157 0-.285-.104-.285-.23v-3.43c0-.126.128-.23.286-.23m4.798 4.53h1.082c.05 0 .09.072.09.161v.324c0 .09-.04.16-.09.16h-1.082c-.05 0-.09-.07-.09-.16v-.324c0-.089.04-.162.09-.162m-5.005.001h1.091c.05 0 .09.071.09.16v.324c0 .09-.04.163-.09.163h-1.084c-.05 0-.09-.073-.09-.163v-.324c0-.083.037-.152.083-.16m2.5.006h1.097c.05 0 .09.07.09.16v.324c0 .09-.04.16-.09.16h-1.082c-.05 0-.09-.07-.09-.16v-.324c0-.08.031-.148.075-.16m.013 1.281h1.086c.05 0 .09.073.09.162v.323c0 .089-.04.162-.09.162h-1.082c-.05 0-.092-.073-.092-.162v-.323c0-.086.04-.157.088-.162m2.504 0h1.088c.05 0 .09.073.09.162v.323c0 .089-.04.162-.09.162h-1.082c-.05 0-.092-.073-.092-.162v-.323c0-.086.039-.157.086-.162m-5.012.002h1.092c.05 0 .09.073.09.162v.323c0 .089-.04.162-.09.162h-1.084c-.05 0-.09-.073-.09-.162v-.323c0-.083.037-.154.082-.162m5.004 1.291h1.092c.05 0 .09.073.09.162v.323c0 .089-.04.162-.09.162h-1.082c-.05 0-.09-.073-.09-.162v-.323c0-.083.035-.154.08-.162m-2.502.002h1.092c.05 0 .09.073.09.162v.322c0 .09-.04.163-.09.163h-1.082c-.05 0-.092-.073-.092-.163v-.322c0-.083.037-.154.082-.162m-2.502.008h1.094c.05 0 .09.073.09.162v.322c0 .09-.04.162-.09.162h-1.082c-.05 0-.092-.072-.092-.162v-.322c0-.084.035-.154.08-.162" style="display:inline;fill:#000;fill-opacity:1;stroke-width:.124908" transform="translate(-160 -172)"/><path fill="none" d="M164.316 172.684c.11.398.254.296.254.296l.063.094h.34l.523-.11-.086-.577-1.074.062z" style="fill:#f0f0f0;fill-opacity:0;stroke-width:.518;paint-order:markers fill stroke" transform="translate(-160 -172)"/><path fill="none" d="M164.598 172.555c.066.511.226.535.226.535h.508l-.008-.692z" style="fill:#f0f0f0;fill-opacity:0;stroke-width:.518;paint-order:markers fill stroke" transform="translate(-160 -172)"/><path fill="none" d="M164.719 172.492h.488v.582h-.488z" style="fill:#f0f0f0;fill-opacity:0;stroke-width:.518;paint-order:markers fill stroke" transform="translate(-160 -172)"/><path fill="none" d="M164.766 172.41h.457v.574h-.457z" style="fill:#f0f0f0;fill-opacity:0;stroke-width:.518;paint-order:markers fill stroke" transform="translate(-160 -172)"/></g></svg>