<?xml version="1.0" encoding="UTF-8" standalone="no"?>
<svg
   width="128"
   height="128"
   style="display:inline"
   version="1.0"
   id="svg32"
   sodipodi:docname="site.ikhlasulov.openrpm.svg"
   inkscape:version="1.4.3 (0d15f75042, 2025-12-25)"
   xmlns:inkscape="http://www.inkscape.org/namespaces/inkscape"
   xmlns:sodipodi="http://sodipodi.sourceforge.net/DTD/sodipodi-0.dtd"
   xmlns="http://www.w3.org/2000/svg"
   xmlns:svg="http://www.w3.org/2000/svg">
  <sodipodi:namedview
     id="namedview32"
     pagecolor="#505050"
     bordercolor="#ffffff"
     borderopacity="1"
     inkscape:showpageshadow="0"
     inkscape:pageopacity="0"
     inkscape:pagecheckerboard="1"
     inkscape:deskcolor="#505050"
     inkscape:zoom="4.960796"
     inkscape:cx="65.71526"
     inkscape:cy="66.723163"
     inkscape:window-width="1920"
     inkscape:window-height="1164"
     inkscape:window-x="0"
     inkscape:window-y="0"
     inkscape:window-maximized="1"
     inkscape:current-layer="svg32" />
  <defs
     id="defs13">
    <linearGradient
       id="f"
       x1="108"
       x2="116"
       y1="106"
       y2="106"
       gradientTransform="matrix(0.7567,0,0,0.8573,16.24,177.72)"
       gradientUnits="userSpaceOnUse">
      <stop
         offset="0"
         stop-color="#c0bfbc"
         id="stop1" />
      <stop
         offset=".5"
         stop-color="#f6f5f4"
         id="stop2" />
      <stop
         offset="1"
         stop-color="#c0bfbc"
         id="stop3" />
    </linearGradient>
    <linearGradient
       id="g"
       x1="100"
       x2="108"
       y1="63.899"
       y2="63.899"
       gradientTransform="matrix(-0.79818,0,0,0.93629,123.62,172.49)"
       gradientUnits="userSpaceOnUse">
      <stop
         offset="0"
         stop-opacity="0"
         id="stop4" />
      <stop
         offset="1"
         stop-opacity=".149"
         id="stop5" />
    </linearGradient>
    <linearGradient
       id="a"
       x1="8"
       x2="24"
       y1="236"
       y2="236"
       gradientTransform="matrix(0.8358,0,0,0.85583,17.396,37.52)"
       gradientUnits="userSpaceOnUse">
      <stop
         offset="0"
         stop-color="#cb3f30"
         style="stop-color:#62a0ea;stop-opacity:1"
         id="stop6" />
      <stop
         offset=".5"
         stop-color="#f67f74"
         style="stop-color:#a8d6ff;stop-opacity:1"
         id="stop7" />
      <stop
         offset="1"
         stop-color="#e26255"
         style="stop-color:#8fc8f9;stop-opacity:1"
         id="stop8" />
    </linearGradient>
    <linearGradient
       id="c"
       x1="-20.007"
       x2="-13.147"
       y1="-272.836"
       y2="-281.373"
       gradientTransform="matrix(0,-0.85583,0.8358,0,264.793,263.46)"
       gradientUnits="userSpaceOnUse">
      <stop
         offset="0"
         stop-color="#b84437"
         style="stop-color:#5a98e5;stop-opacity:1"
         id="stop9" />
      <stop
         offset=".4"
         stop-color="#a84336"
         style="stop-color:#5190e2;stop-opacity:1"
         id="stop10" />
      <stop
         offset="1"
         stop-color="#803228"
         style="stop-color:#3b76bc;stop-opacity:1"
         id="stop11" />
    </linearGradient>
    <linearGradient
       id="e"
       x1="18.367"
       x2="21.996"
       y1="280.539"
       y2="286.825"
       gradientTransform="matrix(0.78641,0,0,0.80526,15.076,48.406)"
       gradientUnits="userSpaceOnUse">
      <stop
         offset="0"
         stop-color="#c14e40"
         style="stop-color:#68a3ed;stop-opacity:1"
         id="stop12" />
      <stop
         offset="1"
         stop-color="#f66151"
         style="stop-color:#70b8ff;stop-opacity:1"
         id="stop13" />
    </linearGradient>
  </defs>
  <g
     style="display:inline"
     id="g32"
     transform="matrix(1.25,0,0,1.25,-16.03904,-15.66875)">
    <path
       fill="#b8483c"
       d="m 30.769,271.057 h 50.148 c 3.693,0 6.686,2.897 6.686,6.471 0,3.574 -2.993,6.472 -6.686,6.472 H 30.769 c -3.693,0 -6.687,-2.898 -6.687,-6.472 0,-3.574 2.994,-6.471 6.687,-6.471 m 0,0"
       style="display:inline;fill:#5f9be6;fill-opacity:1;stroke-width:0.82227"
       transform="translate(0,-172)"
       id="path13" />
    <path
       fill="url(#a)"
       d="m 30.769,188.147 c 3.705,0 6.686,3.052 6.686,6.846 v 82.16 H 24.082 v -82.16 c 0,-3.794 2.981,-6.846 6.687,-6.846 m 0,0"
       style="display:inline;fill:url(#a);stroke-width:0.845758"
       transform="translate(0,-172)"
       id="path14" />
    <path
       fill="url(#b)"
       d="m 30.769,270.307 c 3.692,0 6.651,3.085 6.651,6.866 0,3.781 -2.959,6.827 -6.65,6.827 -3.693,0 -6.687,-3.066 -6.687,-6.847 0,-3.78 2.994,-6.846 6.687,-6.846"
       style="display:inline;fill:url(#c);stroke-width:0.845758"
       transform="translate(0,-172)"
       id="path15" />
    <path
       fill="url(#d)"
       d="m 30.769,270.2 c -3.787,0 -6.618,3.116 -6.72,6.942 -0.096,3.607 2.54,6.858 6.72,6.858 v -1.712 c -2.945,0 -5.015,-2.24 -5.015,-5.135 0,-3.126 2.018,-5.215 5.021,-5.278 2.831,0 5.024,2.448 5.024,5.343 l 1.66,-0.05 c 0,-4.28 -3.337,-6.968 -6.69,-6.968"
       style="display:inline;fill:url(#e);stroke-width:0.845758"
       transform="translate(0,-172)"
       id="path16" />
    <path
       fill="#f66151"
       d="m 30.504,282.288 h 50.413 c 3.255,0 6.598,-1.931 6.686,-5.135 C 87.819,280.759 84.88,284 80.917,284 H 30.504 Z"
       style="display:inline;fill:#70b8ff;fill-opacity:1;stroke-width:0.845758"
       transform="translate(0,-172)"
       id="path17" />
    <path
       d="m 37.427,212.013 h 13.62 v 65.108 h -13.62 z m 0,0"
       style="display:inline;fill:#f6f5f4;stroke-width:0.805139"
       transform="translate(0,-172)"
       id="path18" />
    <path
       d="m 43.48,256.593 h 54.482 c 3.343,0 6.054,3.229 6.054,7.212 0,3.983 -2.71,7.212 -6.054,7.212 H 43.48 c -3.343,0 -6.053,-3.23 -6.053,-7.212 0,-3.983 2.71,-7.212 6.053,-7.212 m 0,0"
       style="display:inline;fill:#f6f5f4;stroke-width:0.825928"
       transform="translate(0,-172)"
       id="path19" />
    <path
       d="m 37.427,194.867 h 66.589 v 68.584 h -66.59 z m 0,0"
       style="display:inline;fill:#f6f5f4;stroke-width:0.805429"
       transform="translate(0,-172)"
       id="path20" />
    <path
       fill="#f6f5f4"
       d="m 43.48,188.009 h 54.482 c 3.343,0 6.054,3.07 6.054,6.858 0,3.788 -2.71,6.858 -6.054,6.858 H 43.48 c -3.343,0 -6.053,-3.07 -6.053,-6.858 0,-3.788 2.71,-6.858 6.053,-6.858 m 0,0"
       style="display:inline;stroke-width:0.805427"
       transform="translate(0,-172)"
       id="path21" />
    <path
       fill="url(#f)"
       d="m 104.016,263.451 c 0,3.8 -2.7,6.83 -6.054,6.858 l -45.547,0.39 -8.553,-0.05 c -3.16,-0.02 -6.435,2.544 -6.435,6.519 h 60.535 c 3.343,0 6.054,-3.071 6.054,-6.859 z"
       style="display:inline;fill:url(#f);stroke-width:0.805427"
       transform="translate(0,-172)"
       id="path22" />
    <path
       fill="url(#g)"
       d="m 43.801,187.47 0.202,83.168 c -1.44,-0.03 -3.843,0.455 -5.599,3.038 -0.678,1.114 -0.957,2.24 -0.985,3.491 l -0.003,-0.091 v -81.837 c -0.044,-4.36 3.04,-7.407 6.491,-7.232 z"
       style="display:inline;fill:url(#g);stroke-width:0.864483"
       transform="translate(0,-172)"
       id="path23" />
    <path
       d="m 51.81,205.896 c -1.046,0 -1.893,0.705 -1.893,1.576 v 23.643 c 0,0.872 0.847,1.577 1.893,1.577 h 37.858 c 1.044,0 1.891,-0.707 1.891,-1.577 v -23.643 c 0,-0.871 -0.847,-1.576 -1.893,-1.576 z"
       style="display:inline;fill:#deddda;fill-opacity:1;stroke-width:0.431811"
       transform="translate(0,-172)"
       id="path24" />
    <path
       d="m 50.487,237.11 h 7.204 c 0.33,0 0.6,0.498 0.6,1.113 v 2.227 c 0,0.615 -0.27,1.113 -0.6,1.113 h -7.203 c -0.332,0 -0.6,-0.5 -0.6,-1.115 v -2.225 c 0,-0.615 0.268,-1.113 0.6,-1.113 m 16.68,0.034 h 7.204 c 0.331,0 0.6,0.498 0.6,1.113 v 2.227 c 0,0.615 -0.269,1.113 -0.6,1.113 H 67.17 c -0.332,0 -0.6,-0.5 -0.6,-1.115 v -2.225 c 0,-0.615 0.268,-1.113 0.6,-1.113 m -16.644,8.844 h 7.204 c 0.331,0 0.6,0.498 0.6,1.114 v 2.226 c 0,0.616 -0.269,1.114 -0.6,1.114 h -7.202 c -0.332,0 -0.601,-0.5 -0.601,-1.116 v -2.224 c 0,-0.616 0.269,-1.114 0.6,-1.114 m 0,0"
       style="display:inline;fill:#deddda;fill-opacity:1;stroke-width:0.424175"
       transform="translate(0,-172)"
       id="path25" />
    <path
       d="m 50.538,254.948 h 7.204 c 0.331,0 0.6,0.498 0.6,1.113 v 2.227 c 0,0.615 -0.269,1.113 -0.6,1.113 H 50.54 c -0.332,0 -0.601,-0.5 -0.601,-1.115 v -2.225 c 0,-0.615 0.269,-1.113 0.6,-1.113 m 0,0"
       style="display:inline;fill:#c0bfbc;fill-opacity:1;stroke-width:0.424175"
       transform="translate(0,-172)"
       id="path26" />
    <path
       d="m 67.18,254.896 h 7.204 c 0.33,0 0.6,0.498 0.6,1.113 v 2.227 c 0,0.616 -0.27,1.113 -0.6,1.113 H 67.18 c -0.332,0 -0.601,-0.5 -0.601,-1.115 v -2.225 c 0,-0.615 0.269,-1.113 0.6,-1.113 m 0,0"
       style="display:inline;fill:#f66151;fill-opacity:1;stroke-width:0.424175"
       transform="translate(0,-172)"
       id="path27" />
    <path
       d="m 83.826,254.884 h 7.204 c 0.33,0 0.6,0.498 0.6,1.113 v 2.227 c 0,0.616 -0.27,1.114 -0.6,1.114 h -7.203 c -0.332,0 -0.6,-0.5 -0.6,-1.116 v -2.225 c 0,-0.615 0.268,-1.113 0.599,-1.113 m 0,0"
       style="display:inline;fill:#99c1f1;fill-opacity:1;stroke-width:0.424175"
       transform="translate(0,-172)"
       id="path28" />
    <path
       d="m 67.18,245.978 h 7.203 c 0.33,0 0.6,0.498 0.6,1.113 v 2.227 c 0,0.616 -0.27,1.114 -0.6,1.114 H 67.18 c -0.332,0 -0.6,-0.5 -0.6,-1.116 v -2.225 c 0,-0.615 0.268,-1.113 0.6,-1.113 m 16.667,0.001 h 7.204 c 0.331,0 0.6,0.498 0.6,1.113 v 2.227 c 0,0.616 -0.269,1.114 -0.6,1.114 h -7.203 c -0.332,0 -0.6,-0.5 -0.6,-1.116 v -2.225 c 0,-0.615 0.268,-1.113 0.6,-1.113 m 0,0"
       style="display:inline;fill:#deddda;fill-opacity:1;stroke-width:0.424175"
       transform="translate(0,-172)"
       id="path29" />
    <path
       d="M 60.053,201.501 H 81.33 c 0.977,0 1.771,0 1.771,1.17 v 0.035 c 0,0.99 -0.794,0.97 -1.771,0.97 H 60.056 c -0.98,0 -1.807,0.017 -1.807,-1.04 v -0.087 c 0,-1.063 0.827,-1.048 1.804,-1.048"
       style="display:inline;fill:#deddda;fill-opacity:1;stroke-width:0.509422"
       transform="translate(0,-172)"
       id="path30" />
    <path
       d="m 52.986,196.995 h 36.471 c 1.074,0 2.094,0 2.094,1.21 v 0.036 c 0,1.024 -1.02,0.994 -2.094,0.994 l -37.448,0.01 c -0.982,0 -2.04,0.016 -2.04,-1.077 v -0.089 c 0,-1.099 1.012,-1.047 2.058,-1.066 z"
       style="display:inline;fill:#99c1f1;fill-opacity:1;stroke-width:0.670033"
       transform="translate(0,-172)"
       id="path31" />
    <path
       d="m 83.736,237.109 h 7.204 c 0.331,0 0.6,0.498 0.6,1.113 v 2.227 c 0,0.615 -0.269,1.113 -0.6,1.113 h -7.203 c -0.332,0 -0.6,-0.5 -0.6,-1.115 v -2.225 c 0,-0.615 0.268,-1.113 0.6,-1.113 m 0,0"
       style="display:inline;fill:#deddda;fill-opacity:1;stroke-width:0.424175"
       transform="translate(0,-172)"
       id="path32" />
  </g>
</svg>
